<svg width="24" height="24" viewBox="0 0 24 24" fill="none" xmlns="http://www.w3.org/2000/svg"><path d="M11.180 3.037 C 8.458 4.263,5.749 5.729,3.251 7.328 C 2.113 8.056,1.057 8.788,0.985 8.899 C 0.787 9.200,0.819 9.568,1.066 9.842 C 1.180 9.967,1.267 10.016,1.494 10.082 C 3.104 10.550,4.276 10.929,5.384 11.341 C 5.708 11.461,5.986 11.560,6.001 11.560 C 6.017 11.560,6.067 11.456,6.114 11.328 C 6.218 11.042,6.395 10.770,6.594 10.590 C 7.038 10.189,11.341 7.835,11.829 7.727 C 12.512 7.574,13.008 8.342,12.585 8.898 C 12.504 9.004,12.226 9.163,11.311 9.630 C 10.104 10.245,9.165 10.759,8.166 11.349 C 7.682 11.635,7.583 11.710,7.534 11.828 C 7.423 12.094,7.462 12.160,7.820 12.313 C 8.567 12.632,9.536 13.087,10.653 13.645 C 11.572 14.104,11.881 14.240,12.000 14.240 C 12.119 14.240,12.428 14.104,13.347 13.645 C 15.163 12.738,16.466 12.161,18.137 11.522 C 19.091 11.157,21.026 10.510,22.020 10.223 C 22.735 10.017,22.789 9.994,22.927 9.846 C 23.180 9.576,23.215 9.203,23.016 8.900 C 22.883 8.697,20.403 7.069,18.740 6.094 C 16.876 5.000,14.636 3.845,12.785 3.024 C 12.000 2.676,11.980 2.676,11.180 3.037 M3.264 12.389 C 3.168 13.161,3.026 15.729,3.046 16.346 C 3.059 16.776,3.065 16.799,3.184 16.946 C 3.277 17.062,3.405 17.143,3.704 17.276 C 3.922 17.372,4.394 17.584,4.754 17.746 C 5.114 17.907,5.423 18.040,5.442 18.040 C 5.506 18.040,5.840 17.166,5.840 16.999 C 5.840 16.965,5.766 16.865,5.677 16.778 C 5.167 16.285,5.109 15.461,5.543 14.869 C 5.620 14.763,5.753 14.628,5.840 14.569 L 5.997 14.460 5.998 13.819 L 6.000 13.179 5.550 13.004 C 5.145 12.848,3.589 12.289,3.374 12.223 C 3.296 12.200,3.286 12.215,3.264 12.389 M20.480 12.268 C 17.978 13.132,15.728 14.092,13.500 15.244 C 13.126 15.438,12.712 15.625,12.580 15.660 C 12.277 15.740,11.729 15.742,11.433 15.663 C 11.308 15.630,10.696 15.345,10.073 15.029 C 9.065 14.519,7.622 13.840,7.548 13.840 C 7.532 13.840,7.520 13.981,7.520 14.152 L 7.520 14.465 7.671 14.578 C 8.480 15.187,8.406 16.515,7.534 17.026 C 7.395 17.107,7.353 17.159,7.318 17.293 C 7.207 17.727,7.142 17.931,6.991 18.311 C 6.902 18.537,6.835 18.728,6.844 18.737 C 6.853 18.745,7.157 18.909,7.520 19.102 C 8.701 19.731,10.080 20.546,11.277 21.323 C 11.729 21.617,11.738 21.620,12.000 21.620 C 12.262 21.620,12.271 21.617,12.723 21.323 C 15.069 19.799,17.517 18.481,19.977 17.418 C 20.927 17.007,20.960 16.967,20.960 16.194 C 20.960 15.111,20.760 12.194,20.686 12.203 C 20.672 12.205,20.579 12.234,20.480 12.268 M5.344 18.290 C 5.175 18.597,4.906 18.967,4.632 19.272 C 4.364 19.570,4.242 19.794,4.241 19.991 C 4.240 20.142,4.331 20.382,4.432 20.493 C 4.643 20.727,5.099 20.793,5.370 20.628 C 5.538 20.527,5.954 20.072,6.227 19.692 C 6.395 19.457,6.800 18.781,6.800 18.735 C 6.800 18.718,5.506 18.080,5.471 18.080 C 5.465 18.080,5.408 18.175,5.344 18.290 " fill="#0F172A" stroke="none" fill-rule="evenodd"></path></svg>