<svg width="24" height="24" viewBox="0 0 24 24" fill="none" xmlns="http://www.w3.org/2000/svg"><path d="M8.540 3.798 C 7.779 3.963,7.186 4.479,6.888 5.235 C 6.796 5.470,6.784 5.556,6.784 6.000 C 6.784 6.447,6.796 6.529,6.891 6.771 C 7.147 7.424,7.577 7.853,8.235 8.112 C 8.470 8.204,8.556 8.216,9.000 8.216 C 9.444 8.216,9.530 8.204,9.765 8.112 C 10.423 7.853,10.853 7.424,11.109 6.771 C 11.204 6.529,11.216 6.447,11.216 6.000 C 11.216 5.553,11.204 5.471,11.109 5.229 C 10.852 4.574,10.414 4.138,9.765 3.892 C 9.473 3.782,8.841 3.733,8.540 3.798 M3.565 5.278 C 3.394 5.321,3.245 5.431,3.131 5.598 C 2.817 6.060,3.118 6.669,3.695 6.741 C 3.812 6.756,4.256 6.761,4.683 6.753 C 5.513 6.738,5.595 6.720,5.788 6.513 C 5.903 6.391,6.000 6.155,6.000 6.000 C 6.000 5.845,5.903 5.609,5.788 5.487 C 5.589 5.273,5.525 5.261,4.580 5.253 C 4.096 5.248,3.639 5.260,3.565 5.278 M12.565 5.280 C 12.395 5.320,12.245 5.430,12.131 5.598 C 11.818 6.058,12.119 6.671,12.692 6.740 C 12.806 6.753,14.601 6.759,16.680 6.752 C 20.108 6.741,20.471 6.734,20.580 6.674 C 20.822 6.540,21.000 6.255,21.000 6.000 C 21.000 5.745,20.822 5.460,20.580 5.326 C 20.471 5.266,20.108 5.259,16.580 5.254 C 14.446 5.250,12.639 5.262,12.565 5.280 M14.540 9.798 C 13.779 9.963,13.186 10.479,12.888 11.235 C 12.796 11.470,12.784 11.556,12.784 12.000 C 12.784 12.447,12.796 12.529,12.891 12.771 C 13.147 13.424,13.577 13.853,14.235 14.112 C 14.470 14.204,14.556 14.216,15.000 14.216 C 15.444 14.216,15.530 14.204,15.765 14.112 C 16.423 13.853,16.853 13.424,17.109 12.771 C 17.204 12.529,17.216 12.447,17.216 12.000 C 17.216 11.553,17.204 11.471,17.109 11.229 C 16.852 10.574,16.414 10.138,15.765 9.892 C 15.473 9.782,14.841 9.733,14.540 9.798 M3.565 11.280 C 3.395 11.320,3.245 11.430,3.131 11.598 C 2.818 12.058,3.119 12.671,3.692 12.740 C 3.806 12.753,5.601 12.759,7.680 12.752 C 11.108 12.741,11.471 12.734,11.580 12.674 C 11.822 12.540,12.000 12.255,12.000 12.000 C 12.000 11.745,11.822 11.460,11.580 11.326 C 11.471 11.266,11.108 11.259,7.580 11.254 C 5.446 11.250,3.639 11.262,3.565 11.280 M18.660 11.258 C 18.638 11.266,18.572 11.284,18.513 11.296 C 18.259 11.352,18.002 11.707,18.002 12.000 C 18.002 12.172,18.116 12.430,18.245 12.548 C 18.453 12.739,18.578 12.760,19.509 12.759 C 20.270 12.758,20.400 12.749,20.540 12.684 C 20.734 12.595,20.856 12.468,20.938 12.271 C 21.084 11.922,20.931 11.520,20.580 11.326 C 20.480 11.271,20.311 11.259,19.580 11.252 C 19.096 11.247,18.682 11.250,18.660 11.258 M8.540 15.798 C 7.779 15.963,7.186 16.479,6.888 17.235 C 6.796 17.470,6.784 17.556,6.784 18.000 C 6.784 18.447,6.796 18.529,6.891 18.771 C 7.147 19.424,7.577 19.853,8.235 20.112 C 8.470 20.204,8.556 20.216,9.000 20.216 C 9.444 20.216,9.530 20.204,9.765 20.112 C 10.423 19.853,10.853 19.424,11.109 18.771 C 11.204 18.529,11.216 18.447,11.216 18.000 C 11.216 17.553,11.204 17.471,11.109 17.229 C 10.852 16.574,10.414 16.138,9.765 15.892 C 9.473 15.782,8.841 15.733,8.540 15.798 M3.565 17.278 C 3.394 17.321,3.245 17.431,3.131 17.598 C 2.817 18.060,3.118 18.669,3.695 18.741 C 3.812 18.756,4.256 18.761,4.683 18.753 C 5.513 18.738,5.595 18.720,5.788 18.513 C 5.903 18.391,6.000 18.155,6.000 18.000 C 6.000 17.845,5.903 17.609,5.788 17.487 C 5.589 17.273,5.525 17.261,4.580 17.253 C 4.096 17.248,3.639 17.260,3.565 17.278 M12.565 17.280 C 12.395 17.320,12.245 17.430,12.131 17.598 C 11.818 18.058,12.119 18.671,12.692 18.740 C 12.806 18.753,14.601 18.759,16.680 18.752 C 20.108 18.741,20.471 18.734,20.580 18.674 C 20.822 18.540,21.000 18.255,21.000 18.000 C 21.000 17.745,20.822 17.460,20.580 17.326 C 20.471 17.266,20.108 17.259,16.580 17.254 C 14.446 17.250,12.639 17.262,12.565 17.280 " fill="#0F172A" stroke="none" fill-rule="evenodd"></path></svg>