<svg width="24" height="24" viewBox="0 0 24 24" fill="none" xmlns="http://www.w3.org/2000/svg"><path d="M5.700 3.076 C 5.506 3.165,5.384 3.292,5.302 3.489 C 5.247 3.620,5.240 4.104,5.241 7.509 C 5.242 11.187,5.245 11.388,5.316 11.540 C 5.594 12.144,6.406 12.144,6.684 11.540 C 6.755 11.388,6.758 11.188,6.758 7.500 C 6.758 3.812,6.755 3.612,6.684 3.460 C 6.503 3.068,6.077 2.902,5.700 3.076 M11.698 3.075 C 11.517 3.158,11.335 3.353,11.290 3.513 C 11.251 3.652,11.251 5.348,11.290 5.487 C 11.363 5.749,11.710 5.998,12.000 5.998 C 12.290 5.998,12.637 5.749,12.710 5.487 C 12.749 5.348,12.749 3.652,12.710 3.513 C 12.637 3.251,12.290 3.002,12.000 3.002 C 11.923 3.002,11.787 3.035,11.698 3.075 M17.698 3.075 C 17.517 3.158,17.335 3.353,17.290 3.513 C 17.251 3.653,17.251 11.347,17.290 11.487 C 17.363 11.749,17.710 11.998,18.000 11.998 C 18.290 11.998,18.637 11.749,18.710 11.487 C 18.749 11.347,18.749 3.653,18.710 3.513 C 18.637 3.251,18.290 3.002,18.000 3.002 C 17.923 3.002,17.787 3.035,17.698 3.075 M11.540 6.798 C 10.779 6.963,10.186 7.479,9.888 8.235 C 9.796 8.470,9.784 8.556,9.784 9.000 C 9.784 9.447,9.796 9.529,9.891 9.771 C 10.147 10.424,10.577 10.853,11.235 11.112 C 11.470 11.204,11.556 11.216,12.000 11.216 C 12.444 11.216,12.530 11.204,12.765 11.112 C 13.423 10.853,13.853 10.424,14.109 9.771 C 14.204 9.529,14.216 9.447,14.216 9.000 C 14.216 8.553,14.204 8.471,14.109 8.229 C 13.852 7.574,13.414 7.138,12.765 6.892 C 12.473 6.782,11.841 6.733,11.540 6.798 M11.698 12.075 C 11.517 12.158,11.335 12.353,11.290 12.513 C 11.251 12.653,11.251 20.347,11.290 20.487 C 11.363 20.749,11.710 20.998,12.000 20.998 C 12.290 20.998,12.637 20.749,12.710 20.487 C 12.749 20.347,12.749 12.653,12.710 12.513 C 12.637 12.251,12.290 12.002,12.000 12.002 C 11.923 12.002,11.787 12.035,11.698 12.075 M5.540 12.798 C 4.779 12.963,4.186 13.479,3.888 14.235 C 3.796 14.470,3.784 14.556,3.784 15.000 C 3.784 15.447,3.796 15.529,3.891 15.771 C 4.147 16.424,4.577 16.853,5.235 17.112 C 5.470 17.204,5.556 17.216,6.000 17.216 C 6.444 17.216,6.530 17.204,6.765 17.112 C 7.423 16.853,7.853 16.424,8.109 15.771 C 8.204 15.529,8.216 15.447,8.216 15.000 C 8.216 14.553,8.204 14.471,8.109 14.229 C 7.852 13.574,7.414 13.138,6.765 12.892 C 6.473 12.782,5.841 12.733,5.540 12.798 M17.540 12.798 C 16.779 12.963,16.186 13.479,15.888 14.235 C 15.796 14.470,15.784 14.556,15.784 15.000 C 15.784 15.447,15.796 15.529,15.891 15.771 C 16.147 16.424,16.577 16.853,17.235 17.112 C 17.470 17.204,17.556 17.216,18.000 17.216 C 18.444 17.216,18.530 17.204,18.765 17.112 C 19.423 16.853,19.853 16.424,20.109 15.771 C 20.204 15.529,20.216 15.447,20.216 15.000 C 20.216 14.553,20.204 14.471,20.109 14.229 C 19.852 13.574,19.414 13.138,18.765 12.892 C 18.473 12.782,17.841 12.733,17.540 12.798 M5.698 18.075 C 5.517 18.158,5.335 18.353,5.290 18.513 C 5.251 18.652,5.251 20.348,5.290 20.487 C 5.363 20.749,5.710 20.998,6.000 20.998 C 6.290 20.998,6.637 20.749,6.710 20.487 C 6.749 20.348,6.749 18.652,6.710 18.513 C 6.637 18.251,6.290 18.002,6.000 18.002 C 5.923 18.002,5.787 18.035,5.698 18.075 M17.698 18.075 C 17.517 18.158,17.335 18.353,17.290 18.513 C 17.251 18.652,17.251 20.348,17.290 20.487 C 17.363 20.749,17.710 20.998,18.000 20.998 C 18.290 20.998,18.637 20.749,18.710 20.487 C 18.749 20.348,18.749 18.652,18.710 18.513 C 18.637 18.251,18.290 18.002,18.000 18.002 C 17.923 18.002,17.787 18.035,17.698 18.075 " fill="#0F172A" stroke="none" fill-rule="evenodd"></path></svg>