<svg width="24" height="24" viewBox="0 0 24 24" fill="none" xmlns="http://www.w3.org/2000/svg"><path d="M2.940 3.058 C 2.556 3.157,2.235 3.350,1.959 3.651 C 1.747 3.880,1.564 4.304,1.514 4.680 C 1.454 5.137,1.492 5.871,1.593 6.190 C 1.782 6.790,2.242 7.238,2.860 7.427 C 3.089 7.497,3.492 7.500,12.000 7.500 C 20.508 7.500,20.911 7.497,21.140 7.427 C 21.758 7.238,22.218 6.790,22.407 6.190 C 22.508 5.871,22.546 5.137,22.486 4.680 C 22.376 3.854,21.799 3.217,21.000 3.042 C 20.884 3.016,17.675 3.003,11.980 3.004 C 4.918 3.006,3.100 3.017,2.940 3.058 M3.102 9.230 C 3.114 9.357,3.240 11.467,3.383 13.920 C 3.543 16.657,3.666 18.488,3.701 18.660 C 3.772 19.001,4.005 19.494,4.253 19.828 C 4.609 20.308,5.201 20.708,5.822 20.888 L 6.140 20.980 12.000 20.980 L 17.860 20.980 18.187 20.886 C 18.785 20.715,19.398 20.298,19.752 19.821 C 19.995 19.493,20.226 19.000,20.298 18.653 C 20.336 18.472,20.455 16.706,20.617 13.913 C 20.760 11.464,20.886 9.357,20.898 9.230 L 20.919 9.000 12.000 9.000 L 3.081 9.000 3.102 9.230 M10.027 11.682 C 10.089 11.705,10.558 12.141,11.070 12.652 L 12.000 13.579 12.930 12.652 C 13.442 12.141,13.911 11.705,13.973 11.682 C 14.035 11.659,14.166 11.640,14.264 11.640 C 14.756 11.640,15.093 12.105,14.960 12.600 C 14.918 12.755,14.792 12.899,13.988 13.709 L 13.064 14.641 14.008 15.590 C 14.925 16.512,14.953 16.546,14.981 16.734 C 15.041 17.132,14.830 17.474,14.460 17.582 C 14.045 17.702,13.956 17.646,12.890 16.587 L 12.000 15.702 11.110 16.587 C 10.044 17.646,9.955 17.702,9.540 17.582 C 9.170 17.474,8.959 17.132,9.019 16.734 C 9.047 16.546,9.075 16.512,9.992 15.590 L 10.936 14.641 10.014 13.710 C 9.314 13.004,9.080 12.743,9.041 12.625 C 8.932 12.291,9.090 11.881,9.390 11.723 C 9.556 11.635,9.851 11.616,10.027 11.682 " fill="#0F172A" stroke="none" fill-rule="evenodd"></path></svg>