<svg width="24" height="24" viewBox="0 0 24 24" fill="none" xmlns="http://www.w3.org/2000/svg"><path d="M2.094 5.278 C 1.599 5.396,1.358 5.941,1.613 6.369 C 1.745 6.590,8.496 13.330,8.677 13.421 C 8.852 13.509,9.148 13.508,9.323 13.420 C 9.398 13.383,10.337 12.476,11.410 11.407 L 13.360 9.461 13.970 10.081 C 15.194 11.322,15.997 12.586,16.584 14.193 C 16.735 14.606,17.169 16.164,17.141 16.192 C 17.131 16.202,16.227 15.692,15.132 15.058 C 13.355 14.031,13.118 13.905,12.932 13.889 C 12.657 13.865,12.551 13.895,12.375 14.050 C 12.002 14.377,12.038 14.953,12.450 15.231 C 12.800 15.467,18.015 18.454,18.171 18.508 C 18.390 18.584,18.664 18.519,18.855 18.347 C 18.950 18.261,19.505 17.336,20.555 15.514 C 21.413 14.026,22.155 12.730,22.204 12.634 C 22.465 12.127,22.106 11.538,21.541 11.546 C 21.308 11.549,21.131 11.628,20.994 11.790 C 20.942 11.852,20.388 12.790,19.762 13.874 L 18.625 15.845 18.417 15.080 C 17.798 12.805,17.004 11.245,15.679 9.700 C 15.091 9.016,13.957 7.972,13.606 7.793 C 13.431 7.704,13.207 7.700,13.009 7.781 C 12.906 7.824,12.259 8.443,10.930 9.771 L 9.000 11.700 5.830 8.534 C 4.086 6.793,2.624 5.351,2.580 5.329 C 2.456 5.269,2.233 5.245,2.094 5.278 " fill="#0F172A" stroke="none" fill-rule="evenodd"></path></svg>