<svg width="24" height="24" viewBox="0 0 24 24" fill="none" xmlns="http://www.w3.org/2000/svg"><path d="M8.815 2.277 C 8.746 2.294,8.638 2.346,8.575 2.391 C 8.512 2.437,7.080 3.857,5.393 5.547 C 2.608 8.337,2.322 8.636,2.280 8.796 C 2.230 8.985,2.253 9.194,2.341 9.359 C 2.370 9.414,3.795 10.858,5.507 12.567 C 8.321 15.375,8.637 15.678,8.795 15.720 C 9.366 15.870,9.870 15.366,9.720 14.795 C 9.679 14.638,9.430 14.376,7.247 12.189 L 4.820 9.758 10.300 9.771 C 16.317 9.784,15.878 9.767,16.660 10.024 C 18.419 10.604,19.747 12.107,20.149 13.972 C 20.248 14.431,20.248 15.569,20.149 16.028 C 19.824 17.536,18.921 18.788,17.604 19.558 C 17.239 19.771,16.710 19.981,16.220 20.109 C 15.821 20.213,15.813 20.214,13.797 20.237 L 11.774 20.260 11.605 20.372 C 11.311 20.566,11.192 20.873,11.281 21.204 C 11.340 21.422,11.569 21.657,11.781 21.715 C 11.990 21.773,15.083 21.775,15.646 21.718 C 18.564 21.420,20.930 19.333,21.583 16.480 C 22.207 13.754,21.034 10.873,18.680 9.350 C 17.708 8.721,16.668 8.370,15.508 8.280 C 15.237 8.259,12.756 8.241,9.920 8.241 L 4.821 8.240 7.247 5.810 C 9.431 3.624,9.679 3.362,9.720 3.205 C 9.806 2.878,9.687 2.564,9.412 2.385 C 9.241 2.275,9.001 2.231,8.815 2.277 " fill="#0F172A" stroke="none" fill-rule="evenodd"></path></svg>