<svg width="24" height="24" viewBox="0 0 24 24" fill="none" xmlns="http://www.w3.org/2000/svg"><path d="M13.201 3.823 C 13.018 3.903,12.928 3.988,12.836 4.168 C 12.738 4.360,12.739 4.642,12.837 4.832 C 12.880 4.914,14.298 6.362,16.037 8.100 L 19.160 11.220 10.967 11.240 L 2.774 11.260 2.606 11.372 C 2.311 11.566,2.192 11.873,2.281 12.204 C 2.340 12.422,2.569 12.657,2.781 12.715 C 2.895 12.747,5.259 12.760,11.060 12.760 L 19.180 12.760 16.034 15.910 C 14.303 17.643,12.859 19.118,12.824 19.188 C 12.697 19.443,12.775 19.857,12.987 20.048 C 13.199 20.240,13.552 20.289,13.820 20.163 C 13.930 20.112,15.178 18.888,17.827 16.234 C 21.819 12.234,21.760 12.298,21.760 12.000 C 21.760 11.702,21.819 11.766,17.827 7.766 C 15.178 5.112,13.930 3.888,13.820 3.837 C 13.628 3.747,13.390 3.741,13.201 3.823 " fill="#0F172A" stroke="none" fill-rule="evenodd"></path></svg>