<svg width="24" height="24" viewBox="0 0 24 24" fill="none" xmlns="http://www.w3.org/2000/svg"><path d="M14.811 2.278 C 14.415 2.375,14.173 2.797,14.280 3.204 C 14.322 3.363,14.559 3.613,16.753 5.810 L 19.179 8.240 14.080 8.241 C 11.244 8.241,8.763 8.259,8.492 8.280 C 7.331 8.370,6.289 8.722,5.320 9.350 C 2.962 10.880,1.792 13.752,2.417 16.480 C 3.070 19.333,5.436 21.420,8.354 21.718 C 8.917 21.775,12.010 21.773,12.219 21.715 C 12.431 21.657,12.660 21.422,12.719 21.204 C 12.808 20.873,12.689 20.566,12.395 20.372 L 12.226 20.260 10.203 20.237 L 8.180 20.214 7.768 20.107 C 6.511 19.781,5.446 19.057,4.719 18.034 C 4.432 17.630,4.065 16.857,3.945 16.400 C 3.604 15.112,3.723 13.873,4.299 12.700 C 4.846 11.587,5.619 10.820,6.740 10.277 C 7.245 10.033,7.770 9.872,8.293 9.802 C 8.498 9.774,10.423 9.760,13.892 9.760 L 19.179 9.760 16.753 12.190 C 14.569 14.376,14.321 14.638,14.280 14.795 C 14.130 15.366,14.634 15.870,15.205 15.720 C 15.363 15.678,15.679 15.375,18.493 12.567 C 20.205 10.858,21.630 9.414,21.659 9.359 C 21.747 9.194,21.770 8.985,21.720 8.796 C 21.678 8.636,21.391 8.336,18.587 5.528 C 16.889 3.828,15.446 2.403,15.380 2.362 C 15.234 2.272,14.985 2.235,14.811 2.278 " fill="#0F172A" stroke="none" fill-rule="evenodd"></path></svg>