<svg width="24" height="24" viewBox="0 0 24 24" fill="none" xmlns="http://www.w3.org/2000/svg"><path d="M10.201 0.823 C 10.018 0.903,9.928 0.988,9.836 1.168 C 9.764 1.310,9.760 1.447,9.760 4.038 L 9.760 6.760 8.098 6.760 C 6.245 6.760,6.054 6.779,5.533 7.020 C 4.823 7.347,4.360 7.805,4.039 8.495 C 3.749 9.121,3.760 8.921,3.760 13.500 C 3.760 18.112,3.746 17.882,4.059 18.540 C 4.364 19.182,4.818 19.636,5.460 19.941 C 6.118 20.254,5.888 20.240,10.500 20.240 C 15.112 20.240,14.882 20.254,15.540 19.941 C 16.182 19.636,16.636 19.182,16.941 18.540 C 17.254 17.882,17.240 18.112,17.240 13.500 C 17.240 8.888,17.254 9.118,16.941 8.460 C 16.637 7.820,16.192 7.376,15.540 7.059 C 14.957 6.777,14.810 6.760,12.902 6.760 L 11.240 6.760 11.239 4.050 C 11.238 1.506,11.234 1.330,11.165 1.180 C 11.077 0.990,10.988 0.904,10.790 0.822 C 10.605 0.744,10.381 0.745,10.201 0.823 M11.240 9.580 C 11.240 11.131,11.254 12.400,11.270 12.400 C 11.287 12.400,11.697 12.002,12.180 11.516 C 12.664 11.030,13.118 10.607,13.189 10.576 C 13.342 10.509,13.630 10.503,13.787 10.563 C 14.152 10.701,14.337 11.169,14.178 11.551 C 14.094 11.754,11.046 14.810,10.817 14.921 C 10.728 14.964,10.585 15.000,10.500 15.000 C 10.415 15.000,10.272 14.964,10.183 14.921 C 9.954 14.810,6.906 11.754,6.822 11.551 C 6.663 11.169,6.848 10.701,7.213 10.563 C 7.370 10.503,7.658 10.509,7.811 10.576 C 7.882 10.607,8.336 11.030,8.820 11.516 C 9.303 12.002,9.713 12.400,9.730 12.400 C 9.746 12.400,9.760 11.131,9.760 9.580 L 9.760 6.760 10.500 6.760 L 11.240 6.760 11.240 9.580 M18.760 13.828 C 18.760 16.811,18.749 17.571,18.702 17.880 C 18.401 19.880,16.880 21.401,14.880 21.702 C 14.571 21.749,13.811 21.760,10.828 21.760 L 7.156 21.760 7.287 21.950 C 7.594 22.398,8.001 22.735,8.526 22.977 C 9.109 23.246,8.993 23.240,13.500 23.240 C 18.079 23.240,17.901 23.251,18.540 22.941 C 19.190 22.625,19.625 22.190,19.941 21.540 C 20.251 20.901,20.240 21.079,20.240 16.500 C 20.240 11.993,20.246 12.109,19.977 11.526 C 19.735 11.001,19.398 10.594,18.950 10.287 L 18.760 10.156 18.760 13.828 " fill="#0F172A" stroke="none" fill-rule="evenodd"></path></svg>