<svg width="24" height="24" viewBox="0 0 24 24" fill="none" xmlns="http://www.w3.org/2000/svg"><path d="M12.420 4.587 C 12.235 4.685,12.155 4.766,12.075 4.940 C 11.991 5.124,11.982 5.273,12.044 5.500 C 12.081 5.637,12.481 6.055,14.872 8.449 L 17.657 11.239 10.978 11.249 C 4.842 11.259,4.290 11.265,4.180 11.326 C 3.598 11.649,3.620 12.407,4.220 12.684 C 4.374 12.755,4.642 12.758,11.019 12.759 L 17.658 12.760 14.873 15.550 C 11.919 18.509,11.999 18.418,12.001 18.780 C 12.002 18.960,12.134 19.216,12.286 19.332 C 12.557 19.539,12.907 19.544,13.193 19.345 C 13.274 19.288,14.865 17.716,16.728 15.851 C 19.102 13.475,20.135 12.415,20.178 12.311 C 20.212 12.229,20.240 12.089,20.240 12.000 C 20.240 11.911,20.212 11.771,20.178 11.689 C 20.135 11.585,19.101 10.524,16.728 8.148 C 14.865 6.283,13.260 4.703,13.163 4.638 C 13.019 4.542,12.945 4.520,12.763 4.522 C 12.640 4.522,12.486 4.552,12.420 4.587 " fill="#0F172A" stroke="none" fill-rule="evenodd"></path></svg>