<svg width="24" height="24" viewBox="0 0 24 24" fill="none" xmlns="http://www.w3.org/2000/svg"><path d="M4.201 3.823 C 4.018 3.903,3.928 3.988,3.836 4.168 C 3.762 4.312,3.760 4.504,3.760 10.120 C 3.760 14.958,3.769 15.944,3.815 16.051 C 3.946 16.356,4.326 16.546,4.658 16.472 C 4.865 16.425,4.967 16.358,5.107 16.174 L 5.220 16.026 5.240 11.173 L 5.260 6.320 12.140 13.204 C 16.922 17.989,19.069 20.111,19.180 20.163 C 19.383 20.258,19.615 20.259,19.820 20.165 C 20.010 20.077,20.096 19.988,20.178 19.790 C 20.260 19.594,20.255 19.375,20.163 19.180 C 20.111 19.069,17.989 16.922,13.204 12.140 L 6.320 5.260 11.173 5.240 L 16.026 5.220 16.174 5.107 C 16.447 4.899,16.543 4.633,16.460 4.307 C 16.405 4.091,16.285 3.946,16.072 3.836 C 15.928 3.762,15.747 3.760,10.132 3.762 C 5.065 3.763,4.323 3.771,4.201 3.823 " fill="#0F172A" stroke="none" fill-rule="evenodd"></path></svg>