<svg width="24" height="24" viewBox="0 0 24 24" fill="none" xmlns="http://www.w3.org/2000/svg"><path d="M3.460 3.076 C 3.257 3.170,3.089 3.348,3.039 3.523 C 2.986 3.710,2.987 8.292,3.041 8.485 C 3.102 8.704,3.384 8.947,3.620 8.982 C 4.026 9.043,4.392 8.795,4.476 8.400 C 4.503 8.276,4.520 7.685,4.520 6.889 L 4.520 5.581 6.570 7.627 C 8.407 9.461,8.638 9.679,8.795 9.720 C 9.366 9.870,9.870 9.366,9.720 8.795 C 9.679 8.638,9.461 8.407,7.627 6.570 L 5.581 4.520 6.889 4.520 C 7.685 4.520,8.276 4.503,8.400 4.476 C 8.942 4.360,9.182 3.695,8.828 3.292 C 8.564 2.991,8.666 3.002,6.000 3.002 C 3.768 3.002,3.610 3.006,3.460 3.076 M15.460 3.075 C 14.962 3.301,14.852 3.914,15.242 4.286 C 15.468 4.502,15.615 4.520,17.111 4.520 L 18.419 4.520 16.373 6.570 C 14.539 8.407,14.321 8.638,14.280 8.795 C 14.130 9.366,14.634 9.870,15.205 9.720 C 15.362 9.679,15.593 9.461,17.430 7.627 L 19.480 5.581 19.480 6.889 C 19.480 7.685,19.497 8.276,19.524 8.400 C 19.608 8.795,19.974 9.043,20.380 8.982 C 20.616 8.947,20.898 8.704,20.959 8.485 C 21.013 8.292,21.014 3.712,20.960 3.518 C 20.939 3.440,20.862 3.320,20.790 3.250 C 20.524 2.993,20.604 3.000,17.991 3.001 C 15.784 3.002,15.609 3.007,15.460 3.075 M8.900 14.259 C 8.878 14.267,8.806 14.285,8.740 14.299 C 8.651 14.319,8.094 14.850,6.570 16.372 L 4.520 18.418 4.519 17.099 C 4.518 16.338,4.501 15.704,4.477 15.601 C 4.370 15.139,3.908 14.887,3.489 15.062 C 3.285 15.147,3.087 15.348,3.040 15.518 C 2.987 15.709,2.987 20.293,3.039 20.478 C 3.091 20.659,3.342 20.911,3.519 20.960 C 3.712 21.014,8.292 21.013,8.485 20.959 C 8.704 20.898,8.947 20.616,8.982 20.380 C 9.033 20.041,8.888 19.747,8.598 19.599 C 8.453 19.525,8.358 19.520,7.022 19.520 C 6.240 19.520,5.600 19.507,5.600 19.491 C 5.600 19.474,6.517 18.543,7.637 17.421 C 9.462 15.593,9.679 15.362,9.720 15.205 C 9.806 14.878,9.687 14.564,9.412 14.385 C 9.271 14.294,8.993 14.226,8.900 14.259 M14.811 14.278 C 14.415 14.375,14.173 14.797,14.280 15.204 C 14.322 15.362,14.530 15.584,16.363 17.421 C 17.483 18.543,18.400 19.474,18.400 19.491 C 18.400 19.507,17.760 19.520,16.978 19.520 C 15.642 19.520,15.547 19.525,15.402 19.599 C 15.112 19.747,14.967 20.041,15.018 20.380 C 15.053 20.616,15.296 20.898,15.515 20.959 C 15.708 21.013,20.288 21.014,20.481 20.960 C 20.658 20.911,20.909 20.659,20.961 20.478 C 21.013 20.293,21.013 15.709,20.960 15.518 C 20.913 15.348,20.715 15.147,20.511 15.062 C 20.092 14.887,19.630 15.139,19.523 15.601 C 19.499 15.704,19.482 16.339,19.481 17.099 L 19.480 18.419 17.450 16.394 C 16.334 15.280,15.384 14.351,15.340 14.329 C 15.218 14.268,14.955 14.243,14.811 14.278 " fill="#0F172A" stroke="none" fill-rule="evenodd"></path></svg>