<svg width="24" height="24" viewBox="0 0 24 24" fill="none" xmlns="http://www.w3.org/2000/svg"><path d="M11.340 2.281 C 9.465 2.398,7.649 3.079,6.084 4.252 C 5.583 4.627,4.616 5.596,4.245 6.092 C 3.236 7.444,2.622 8.895,2.353 10.572 C 2.239 11.277,2.230 12.591,2.333 13.300 C 2.582 15.004,3.215 16.530,4.245 17.908 C 4.622 18.412,5.588 19.378,6.092 19.755 C 7.471 20.785,9.000 21.420,10.700 21.666 C 11.033 21.714,11.432 21.736,12.000 21.736 C 13.556 21.736,14.894 21.430,16.260 20.762 C 17.312 20.247,18.030 19.732,18.881 18.881 C 19.732 18.030,20.248 17.311,20.761 16.260 C 22.377 12.955,21.991 9.058,19.755 6.096 C 18.214 4.055,15.834 2.676,13.280 2.345 C 12.683 2.268,11.941 2.243,11.340 2.281 M12.402 7.635 C 12.643 7.792,15.573 10.744,15.661 10.919 C 15.748 11.091,15.752 11.422,15.670 11.581 C 15.544 11.822,15.254 12.001,14.991 11.999 C 14.728 11.997,14.553 11.862,13.660 10.964 L 12.780 10.079 12.760 13.010 L 12.740 15.940 12.634 16.120 C 12.345 16.612,11.655 16.612,11.366 16.120 L 11.260 15.940 11.240 13.010 L 11.220 10.079 10.340 10.964 C 9.447 11.862,9.272 11.997,9.009 11.999 C 8.746 12.001,8.456 11.822,8.331 11.581 C 8.246 11.418,8.249 11.092,8.337 10.920 C 8.428 10.743,11.359 7.791,11.598 7.635 C 11.740 7.543,11.820 7.520,12.000 7.520 C 12.180 7.520,12.260 7.543,12.402 7.635 " fill="#0F172A" stroke="none" fill-rule="evenodd"></path></svg>