<svg width="24" height="24" viewBox="0 0 24 24" fill="none" xmlns="http://www.w3.org/2000/svg"><path d="M11.340 2.281 C 9.465 2.398,7.649 3.079,6.084 4.252 C 5.583 4.627,4.616 5.596,4.245 6.092 C 3.236 7.444,2.622 8.895,2.353 10.572 C 2.239 11.277,2.230 12.591,2.333 13.300 C 2.582 15.004,3.215 16.530,4.245 17.908 C 4.622 18.412,5.588 19.378,6.092 19.755 C 7.471 20.785,9.000 21.420,10.700 21.666 C 11.033 21.714,11.432 21.736,12.000 21.736 C 13.556 21.736,14.894 21.430,16.260 20.762 C 17.312 20.247,18.030 19.732,18.881 18.881 C 19.732 18.030,20.248 17.311,20.761 16.260 C 22.377 12.955,21.991 9.058,19.755 6.096 C 18.214 4.055,15.834 2.676,13.280 2.345 C 12.683 2.268,11.941 2.243,11.340 2.281 M11.600 8.342 C 11.821 8.454,12.001 8.754,11.999 9.009 C 11.997 9.272,11.862 9.447,10.964 10.340 L 10.079 11.220 13.010 11.240 L 15.940 11.260 16.120 11.366 C 16.486 11.581,16.595 12.043,16.365 12.405 C 16.142 12.758,16.338 12.737,13.010 12.760 L 10.079 12.780 10.964 13.660 C 11.519 14.212,11.876 14.600,11.923 14.700 C 12.103 15.084,11.920 15.527,11.511 15.698 C 11.333 15.772,11.242 15.775,11.025 15.713 C 10.885 15.674,10.622 15.430,9.305 14.123 C 8.450 13.274,7.699 12.500,7.635 12.402 C 7.500 12.194,7.478 11.879,7.584 11.668 C 7.660 11.517,10.639 8.514,10.834 8.392 C 11.079 8.239,11.362 8.221,11.600 8.342 " fill="#0F172A" stroke="none" fill-rule="evenodd"></path></svg>