<svg width="24" height="24" viewBox="0 0 24 24" fill="none" xmlns="http://www.w3.org/2000/svg"><path d="M10.180 3.837 C 10.070 3.888,8.822 5.112,6.173 7.766 C 2.181 11.766,2.240 11.702,2.240 12.000 C 2.240 12.298,2.181 12.234,6.173 16.234 C 8.822 18.888,10.070 20.112,10.180 20.163 C 10.383 20.258,10.615 20.259,10.820 20.165 C 11.010 20.077,11.096 19.988,11.178 19.790 C 11.257 19.603,11.257 19.398,11.179 19.209 C 11.136 19.104,10.179 18.121,7.969 15.910 L 4.820 12.760 12.940 12.760 C 18.741 12.760,21.105 12.747,21.219 12.715 C 21.431 12.657,21.660 12.422,21.719 12.204 C 21.808 11.873,21.689 11.566,21.394 11.372 L 21.226 11.260 13.033 11.240 L 4.840 11.220 7.964 8.100 C 10.098 5.969,11.112 4.929,11.163 4.820 C 11.258 4.617,11.259 4.385,11.165 4.180 C 11.077 3.990,10.988 3.904,10.790 3.822 C 10.594 3.740,10.375 3.745,10.180 3.837 " fill="#0F172A" stroke="none" fill-rule="evenodd"></path></svg>