<svg width="24" height="24" viewBox="0 0 24 24" fill="none" xmlns="http://www.w3.org/2000/svg"><path d="M11.900 2.259 C 11.878 2.267,11.806 2.285,11.740 2.299 C 11.650 2.319,11.023 2.921,9.267 4.673 C 7.966 5.970,6.880 7.086,6.837 7.168 C 6.696 7.439,6.766 7.849,6.987 8.048 C 7.190 8.232,7.529 8.287,7.791 8.179 C 7.893 8.137,8.463 7.594,9.590 6.469 L 11.240 4.820 11.241 10.720 C 11.242 16.377,11.245 16.627,11.316 16.780 C 11.602 17.399,12.398 17.399,12.684 16.780 C 12.755 16.627,12.758 16.377,12.759 10.720 L 12.760 4.820 14.410 6.469 C 15.537 7.594,16.107 8.137,16.209 8.179 C 16.484 8.292,16.869 8.217,17.048 8.014 C 17.241 7.798,17.289 7.448,17.163 7.180 C 17.113 7.071,16.337 6.272,14.754 4.694 C 13.470 3.415,12.384 2.351,12.340 2.329 C 12.249 2.284,11.960 2.237,11.900 2.259 M2.699 15.816 C 2.537 15.887,2.334 16.125,2.279 16.309 C 2.216 16.520,2.248 19.198,2.316 19.420 C 2.711 20.705,3.520 21.468,4.735 21.700 C 5.204 21.790,18.796 21.790,19.265 21.700 C 20.539 21.457,21.457 20.539,21.700 19.265 C 21.746 19.028,21.760 18.644,21.759 17.666 C 21.758 16.500,21.751 16.365,21.684 16.220 C 21.547 15.925,21.303 15.760,21.000 15.760 C 20.799 15.760,20.647 15.819,20.506 15.953 C 20.259 16.186,20.262 16.171,20.240 17.720 L 20.220 19.140 20.116 19.360 C 19.961 19.686,19.718 19.936,19.409 20.089 L 19.142 20.220 12.000 20.220 L 4.858 20.220 4.591 20.089 C 4.282 19.936,4.039 19.686,3.884 19.360 L 3.780 19.140 3.760 17.720 C 3.738 16.171,3.741 16.186,3.494 15.953 C 3.290 15.760,2.959 15.703,2.699 15.816 " fill="#0F172A" stroke="none" fill-rule="evenodd"></path></svg>