<svg width="24" height="24" viewBox="0 0 24 24" fill="none" xmlns="http://www.w3.org/2000/svg"><path d="M15.577 5.878 C 15.379 5.979,15.257 6.137,15.193 6.374 C 15.129 6.612,15.197 6.838,15.393 7.044 C 15.528 7.186,15.712 7.264,17.640 8.003 C 18.795 8.446,19.776 8.822,19.820 8.840 C 19.889 8.867,19.876 8.882,19.720 8.950 C 17.440 9.945,16.331 10.660,14.996 11.996 C 14.314 12.679,13.925 13.145,13.447 13.853 L 13.134 14.315 11.357 12.533 C 10.380 11.553,9.500 10.699,9.402 10.636 C 9.151 10.473,8.849 10.472,8.598 10.636 C 8.356 10.793,1.666 17.505,1.579 17.677 C 1.477 17.882,1.491 18.163,1.614 18.373 C 1.733 18.577,1.847 18.661,2.095 18.727 C 2.486 18.832,2.293 19.000,5.810 15.487 L 9.000 12.301 10.970 14.267 C 12.728 16.022,12.959 16.239,13.113 16.279 C 13.319 16.333,13.482 16.306,13.703 16.179 C 13.828 16.107,13.906 16.012,14.043 15.763 C 14.650 14.658,15.213 13.902,16.058 13.058 C 16.955 12.160,17.778 11.557,18.856 11.005 C 19.435 10.708,20.436 10.263,20.462 10.289 C 20.474 10.301,20.114 11.274,19.662 12.451 C 19.072 13.988,18.840 14.639,18.840 14.758 C 18.840 14.981,18.920 15.157,19.091 15.306 C 19.418 15.593,19.825 15.572,20.129 15.252 C 20.209 15.168,20.550 14.327,21.409 12.099 C 22.515 9.228,22.579 9.045,22.580 8.797 C 22.580 8.568,22.565 8.514,22.464 8.382 C 22.396 8.293,22.264 8.192,22.144 8.137 C 22.032 8.086,20.644 7.546,19.060 6.936 C 15.932 5.733,15.889 5.720,15.577 5.878 " fill="#0F172A" stroke="none" fill-rule="evenodd"></path></svg>