<svg width="24" height="24" viewBox="0 0 24 24" fill="none" xmlns="http://www.w3.org/2000/svg"><path d="M16.940 7.567 C 16.605 7.751,16.454 8.069,16.529 8.429 C 16.567 8.610,16.635 8.687,17.873 9.930 L 19.176 11.239 10.975 11.250 L 2.774 11.260 2.606 11.372 C 2.311 11.566,2.192 11.873,2.281 12.204 C 2.340 12.422,2.569 12.657,2.781 12.715 C 2.895 12.747,5.259 12.760,11.059 12.760 L 19.177 12.760 17.873 14.070 C 16.635 15.313,16.567 15.390,16.529 15.571 C 16.489 15.765,16.511 15.953,16.592 16.105 C 16.661 16.234,16.909 16.436,17.031 16.463 C 17.091 16.476,17.160 16.493,17.184 16.500 C 17.208 16.507,17.316 16.495,17.424 16.472 C 17.614 16.433,17.682 16.370,19.613 14.446 C 20.709 13.354,21.630 12.414,21.659 12.359 C 21.747 12.193,21.770 11.984,21.720 11.796 C 21.679 11.638,21.475 11.420,19.707 9.647 C 18.625 8.562,17.673 7.640,17.592 7.597 C 17.426 7.511,17.071 7.494,16.940 7.567 " fill="#0F172A" stroke="none" fill-rule="evenodd"></path></svg>