<svg width="24" height="24" viewBox="0 0 24 24" fill="none" xmlns="http://www.w3.org/2000/svg"><path d="M14.815 2.277 C 14.746 2.294,14.638 2.346,14.575 2.391 C 14.512 2.437,13.080 3.857,11.393 5.547 C 8.621 8.324,8.322 8.637,8.280 8.795 C 8.130 9.366,8.634 9.870,9.205 9.720 C 9.362 9.679,9.624 9.430,11.811 7.247 L 14.242 4.820 14.229 10.300 C 14.218 15.292,14.211 15.805,14.149 16.060 C 13.709 17.873,12.561 19.235,10.930 19.877 C 10.208 20.161,9.886 20.218,9.000 20.219 C 8.282 20.219,8.186 20.210,7.789 20.110 C 5.781 19.602,4.332 18.114,3.856 16.070 C 3.799 15.827,3.784 15.454,3.764 13.780 C 3.741 11.860,3.737 11.774,3.658 11.641 C 3.613 11.564,3.501 11.448,3.409 11.384 C 3.269 11.285,3.204 11.267,3.000 11.267 C 2.796 11.267,2.731 11.285,2.591 11.384 C 2.251 11.622,2.262 11.559,2.248 13.460 C 2.231 15.673,2.289 16.243,2.626 17.212 C 3.632 20.102,6.526 21.994,9.530 21.726 C 12.831 21.432,15.383 18.924,15.718 15.646 C 15.745 15.378,15.760 13.394,15.760 10.026 L 15.760 4.821 18.190 7.247 C 20.376 9.431,20.638 9.679,20.795 9.720 C 21.366 9.870,21.870 9.366,21.720 8.795 C 21.678 8.637,21.377 8.323,18.587 5.528 C 16.889 3.828,15.446 2.403,15.380 2.362 C 15.235 2.273,14.985 2.235,14.815 2.277 " fill="#0F172A" stroke="none" fill-rule="evenodd"></path></svg>