<svg width="24" height="24" viewBox="0 0 24 24" fill="none" xmlns="http://www.w3.org/2000/svg"><path d="M4.201 3.823 C 4.125 3.856,4.028 3.914,3.987 3.952 C 3.775 4.143,3.697 4.557,3.824 4.812 C 3.859 4.882,6.995 8.049,10.794 11.850 L 17.700 18.760 12.888 18.760 C 8.192 18.760,8.073 18.762,7.923 18.838 C 7.667 18.969,7.510 19.220,7.510 19.500 C 7.510 19.780,7.704 20.084,7.948 20.186 C 8.055 20.231,9.094 20.240,13.869 20.239 C 19.420 20.238,19.667 20.235,19.823 20.164 C 20.014 20.078,20.143 19.927,20.202 19.725 C 20.230 19.626,20.240 17.725,20.232 13.774 L 20.220 7.967 20.097 7.814 C 19.939 7.616,19.748 7.520,19.513 7.520 C 19.280 7.520,19.134 7.574,18.985 7.713 C 18.748 7.934,18.760 7.655,18.760 12.889 L 18.760 17.700 11.850 10.791 C 6.921 5.863,4.897 3.865,4.791 3.821 C 4.605 3.744,4.381 3.745,4.201 3.823 " fill="#0F172A" stroke="none" fill-rule="evenodd"></path></svg>