<svg width="24" height="24" viewBox="0 0 24 24" fill="none" xmlns="http://www.w3.org/2000/svg"><path d="M11.815 2.277 C 11.746 2.294,11.638 2.345,11.575 2.391 C 11.512 2.437,10.584 3.353,9.514 4.427 C 7.645 6.302,7.567 6.388,7.529 6.571 C 7.489 6.765,7.511 6.954,7.592 7.105 C 7.661 7.234,7.909 7.436,8.031 7.463 C 8.091 7.476,8.160 7.493,8.184 7.500 C 8.208 7.507,8.316 7.494,8.424 7.472 C 8.612 7.433,8.676 7.375,9.930 6.127 L 11.240 4.823 11.240 12.941 C 11.240 18.741,11.253 21.105,11.285 21.219 C 11.344 21.432,11.578 21.660,11.798 21.719 C 12.198 21.827,12.610 21.599,12.718 21.209 C 12.746 21.109,12.760 18.403,12.760 12.941 L 12.760 4.823 14.070 6.127 C 15.324 7.375,15.388 7.433,15.576 7.472 C 15.684 7.494,15.792 7.507,15.816 7.500 C 15.840 7.493,15.909 7.476,15.969 7.463 C 16.091 7.436,16.339 7.234,16.408 7.105 C 16.489 6.954,16.511 6.765,16.471 6.571 C 16.433 6.388,16.354 6.302,14.466 4.408 C 13.385 3.323,12.446 2.403,12.380 2.362 C 12.235 2.273,11.985 2.235,11.815 2.277 " fill="#0F172A" stroke="none" fill-rule="evenodd"></path></svg>