<svg width="24" height="24" viewBox="0 0 24 24" fill="none" xmlns="http://www.w3.org/2000/svg"><path d="M7.152 2.281 C 6.776 2.326,6.468 2.422,6.120 2.603 C 5.346 3.005,4.819 3.671,4.586 4.540 L 4.500 4.860 4.500 11.980 C 4.500 19.972,4.478 19.371,4.796 20.026 C 5.250 20.959,6.056 21.557,7.080 21.718 C 7.432 21.774,13.568 21.774,13.920 21.718 C 14.944 21.557,15.750 20.959,16.204 20.026 C 16.494 19.428,16.500 19.369,16.500 16.960 L 16.500 14.820 16.400 14.646 C 16.155 14.217,15.535 14.133,15.215 14.486 C 15.016 14.706,15.021 14.648,15.000 16.940 L 14.980 19.100 14.853 19.368 C 14.697 19.697,14.452 19.949,14.138 20.103 L 13.900 20.220 10.500 20.220 L 7.100 20.220 6.862 20.103 C 6.548 19.949,6.303 19.697,6.147 19.368 L 6.020 19.100 6.020 12.000 L 6.020 4.900 6.147 4.632 C 6.303 4.303,6.548 4.051,6.862 3.897 L 7.100 3.780 10.500 3.780 L 13.900 3.780 14.138 3.897 C 14.452 4.051,14.697 4.303,14.853 4.632 L 14.980 4.900 15.000 7.060 C 15.022 9.444,15.011 9.348,15.280 9.574 C 15.467 9.731,15.688 9.785,15.905 9.727 C 16.155 9.660,16.267 9.577,16.392 9.364 L 16.500 9.180 16.500 7.040 C 16.500 4.603,16.495 4.557,16.178 3.928 C 15.778 3.133,15.118 2.593,14.245 2.349 C 13.946 2.265,13.878 2.263,10.680 2.256 C 8.887 2.252,7.300 2.263,7.152 2.281 M18.660 8.260 C 18.638 8.267,18.572 8.284,18.513 8.296 C 18.259 8.352,18.002 8.707,18.002 9.000 C 18.002 9.272,18.131 9.439,19.036 10.340 L 19.921 11.220 14.347 11.240 L 8.774 11.260 8.606 11.372 C 8.311 11.566,8.192 11.873,8.281 12.204 C 8.340 12.422,8.569 12.657,8.781 12.715 C 8.893 12.747,10.551 12.760,14.440 12.760 L 19.939 12.760 19.031 13.670 C 18.107 14.596,17.999 14.736,18.001 15.009 C 18.002 15.173,18.119 15.432,18.245 15.548 C 18.359 15.652,18.602 15.760,18.724 15.760 C 19.039 15.760,19.081 15.725,20.713 14.103 C 21.578 13.243,22.332 12.463,22.388 12.369 C 22.526 12.135,22.526 11.864,22.387 11.631 C 22.263 11.422,19.268 8.432,19.100 8.350 C 18.974 8.288,18.728 8.237,18.660 8.260 " fill="#0F172A" stroke="none" fill-rule="evenodd"></path></svg>