<svg width="24" height="24" viewBox="0 0 24 24" fill="none" xmlns="http://www.w3.org/2000/svg"><path d="M15.660 2.259 C 15.638 2.267,15.572 2.284,15.513 2.296 C 15.259 2.352,15.002 2.707,15.002 3.000 C 15.002 3.172,15.116 3.430,15.245 3.548 C 15.472 3.757,15.504 3.760,17.409 3.760 L 19.180 3.760 13.034 9.910 C 9.653 13.293,6.859 16.118,6.824 16.188 C 6.697 16.443,6.775 16.857,6.987 17.048 C 7.190 17.232,7.529 17.287,7.791 17.179 C 7.897 17.135,9.710 15.348,14.090 10.969 L 20.240 4.820 20.241 6.600 C 20.242 8.245,20.247 8.392,20.316 8.540 C 20.405 8.734,20.532 8.856,20.729 8.938 C 21.125 9.103,21.598 8.869,21.721 8.448 C 21.751 8.347,21.760 7.434,21.752 5.540 C 21.740 2.842,21.738 2.777,21.658 2.641 C 21.613 2.564,21.499 2.447,21.405 2.381 L 21.233 2.260 18.467 2.252 C 16.945 2.248,15.682 2.251,15.660 2.259 M4.860 5.283 C 3.631 5.431,2.644 6.336,2.312 7.620 C 2.236 7.913,2.236 19.087,2.312 19.380 C 2.635 20.629,3.509 21.466,4.735 21.700 C 5.203 21.790,15.797 21.790,16.265 21.700 C 17.539 21.457,18.457 20.539,18.700 19.265 C 18.751 19.000,18.760 18.302,18.759 14.666 C 18.758 10.580,18.755 10.373,18.684 10.220 C 18.547 9.925,18.303 9.760,18.000 9.760 C 17.799 9.760,17.647 9.819,17.506 9.953 C 17.242 10.202,17.262 9.849,17.240 14.720 L 17.220 19.140 17.116 19.360 C 16.961 19.686,16.718 19.936,16.409 20.089 L 16.142 20.220 10.500 20.220 L 4.858 20.220 4.591 20.089 C 4.282 19.936,4.039 19.686,3.884 19.360 L 3.780 19.140 3.780 13.500 L 3.780 7.860 3.888 7.631 C 4.025 7.337,4.337 7.025,4.631 6.888 L 4.860 6.780 9.280 6.760 C 14.151 6.738,13.798 6.758,14.047 6.494 C 14.181 6.353,14.240 6.201,14.240 6.000 C 14.240 5.799,14.181 5.647,14.047 5.506 C 13.797 5.242,14.140 5.261,9.420 5.255 C 7.066 5.252,5.014 5.265,4.860 5.283 " fill="#0F172A" stroke="none" fill-rule="evenodd"></path></svg>