<svg width="24" height="24" viewBox="0 0 24 24" fill="none" xmlns="http://www.w3.org/2000/svg"><path d="M16.420 2.260 C 16.398 2.267,16.331 2.284,16.271 2.297 C 16.124 2.329,15.881 2.548,15.814 2.708 C 15.742 2.880,15.746 3.128,15.822 3.311 C 15.864 3.412,16.417 3.994,17.531 5.110 L 19.178 6.760 13.268 6.760 C 6.919 6.760,7.209 6.751,6.987 6.952 C 6.694 7.217,6.694 7.783,6.987 8.048 C 7.209 8.249,6.919 8.240,13.268 8.240 L 19.178 8.240 17.531 9.890 C 16.417 11.006,15.864 11.588,15.822 11.689 C 15.691 12.002,15.765 12.330,16.013 12.549 C 16.297 12.798,16.603 12.815,16.924 12.601 C 17.021 12.537,18.112 11.471,19.348 10.232 C 21.667 7.908,21.758 7.805,21.758 7.500 C 21.758 7.193,21.673 7.096,19.288 4.714 C 18.019 3.446,16.926 2.382,16.860 2.349 C 16.733 2.287,16.488 2.237,16.420 2.260 M7.329 11.279 C 7.257 11.296,7.131 11.357,7.049 11.414 C 6.967 11.471,5.888 12.531,4.652 13.769 C 2.333 16.092,2.242 16.195,2.242 16.500 C 2.242 16.805,2.333 16.908,4.652 19.232 C 5.888 20.471,6.979 21.537,7.076 21.601 C 7.397 21.815,7.703 21.798,7.987 21.549 C 8.235 21.330,8.309 21.002,8.178 20.689 C 8.136 20.588,7.583 20.006,6.469 18.890 L 4.822 17.240 10.741 17.239 C 16.399 17.238,16.667 17.235,16.820 17.165 C 17.010 17.077,17.096 16.988,17.178 16.790 C 17.257 16.602,17.257 16.398,17.178 16.210 C 17.096 16.012,17.010 15.923,16.820 15.835 C 16.667 15.765,16.399 15.762,10.741 15.761 L 4.822 15.760 6.469 14.110 C 7.583 12.994,8.136 12.412,8.178 12.311 C 8.373 11.843,8.097 11.345,7.600 11.270 C 7.523 11.258,7.401 11.262,7.329 11.279 " fill="#0F172A" stroke="none" fill-rule="evenodd"></path></svg>