<svg width="24" height="24" viewBox="0 0 24 24" fill="none" xmlns="http://www.w3.org/2000/svg"><path d="M11.900 2.259 C 11.878 2.267,11.806 2.285,11.740 2.299 C 11.649 2.319,10.676 3.268,7.767 6.172 C 5.593 8.343,3.881 10.085,3.837 10.168 C 3.696 10.439,3.766 10.849,3.987 11.048 C 4.190 11.232,4.529 11.287,4.791 11.179 C 4.896 11.136,5.879 10.179,8.090 7.969 L 11.240 4.820 11.240 12.940 C 11.240 18.741,11.253 21.105,11.285 21.219 C 11.344 21.432,11.578 21.660,11.798 21.719 C 12.198 21.827,12.610 21.599,12.718 21.209 C 12.746 21.109,12.760 18.402,12.760 12.940 L 12.760 4.820 15.910 7.969 C 18.121 10.179,19.104 11.136,19.209 11.179 C 19.484 11.292,19.869 11.217,20.048 11.014 C 20.241 10.798,20.289 10.448,20.163 10.180 C 20.112 10.070,18.894 8.829,16.254 6.194 C 14.145 4.090,12.384 2.351,12.340 2.329 C 12.248 2.284,11.960 2.238,11.900 2.259 " fill="#0F172A" stroke="none" fill-rule="evenodd"></path></svg>