<svg width="24" height="24" viewBox="0 0 24 24" fill="none" xmlns="http://www.w3.org/2000/svg"><path d="M11.700 3.817 C 11.542 3.887,11.379 4.064,11.302 4.249 C 11.247 4.381,11.240 5.124,11.240 11.028 L 11.240 17.659 8.490 14.911 C 5.618 12.042,5.573 12.002,5.240 12.002 C 5.042 12.002,4.789 12.128,4.668 12.286 C 4.461 12.557,4.456 12.907,4.655 13.193 C 4.712 13.274,6.284 14.865,8.149 16.728 C 10.525 19.102,11.585 20.135,11.689 20.178 C 11.878 20.257,12.122 20.257,12.311 20.178 C 12.415 20.135,13.475 19.102,15.851 16.728 C 17.716 14.865,19.288 13.274,19.345 13.193 C 19.544 12.907,19.539 12.557,19.332 12.286 C 19.211 12.128,18.958 12.002,18.760 12.002 C 18.427 12.002,18.382 12.042,15.510 14.911 L 12.760 17.659 12.759 11.019 C 12.758 4.642,12.755 4.374,12.684 4.220 C 12.598 4.034,12.427 3.863,12.267 3.803 C 12.115 3.745,11.846 3.752,11.700 3.817 " fill="#0F172A" stroke="none" fill-rule="evenodd"></path></svg>