<svg width="24" height="24" viewBox="0 0 24 24" fill="none" xmlns="http://www.w3.org/2000/svg"><path d="M7.940 3.826 C 7.573 4.020,7.427 4.378,7.557 4.770 C 7.609 4.929,7.812 5.137,7.973 5.198 C 8.050 5.227,9.600 5.240,12.893 5.240 L 17.700 5.240 10.794 12.150 C 6.995 15.950,3.859 19.118,3.824 19.188 C 3.697 19.443,3.775 19.857,3.987 20.048 C 4.190 20.232,4.529 20.287,4.791 20.179 C 4.897 20.135,6.921 18.137,11.850 13.209 L 18.760 6.300 18.760 11.111 C 18.760 15.108,18.769 15.944,18.815 16.051 C 18.946 16.356,19.326 16.546,19.658 16.472 C 19.865 16.425,19.967 16.358,20.107 16.174 L 20.220 16.026 20.232 10.223 C 20.240 6.274,20.230 4.374,20.202 4.275 C 20.143 4.073,20.014 3.922,19.823 3.836 C 19.667 3.765,19.421 3.762,13.860 3.762 C 8.654 3.763,8.048 3.770,7.940 3.826 " fill="#0F172A" stroke="none" fill-rule="evenodd"></path></svg>