<svg width="24" height="24" viewBox="0 0 24 24" fill="none" xmlns="http://www.w3.org/2000/svg"><path d="M11.300 3.025 C 10.011 3.160,9.086 3.418,8.020 3.941 C 6.500 4.687,5.204 5.867,4.309 7.320 C 3.817 8.119,3.255 9.559,3.290 9.929 C 3.326 10.310,3.642 10.600,4.020 10.600 C 4.455 10.600,4.642 10.407,4.855 9.738 C 5.750 6.930,8.140 4.947,11.100 4.557 C 11.682 4.480,12.912 4.531,13.488 4.655 C 14.818 4.941,15.997 5.531,16.987 6.408 C 17.203 6.599,17.794 7.170,18.300 7.678 L 19.219 8.600 17.542 8.600 C 15.915 8.600,15.860 8.603,15.690 8.685 C 15.423 8.814,15.300 9.028,15.300 9.364 C 15.300 9.604,15.314 9.650,15.423 9.786 C 15.490 9.871,15.616 9.976,15.703 10.020 C 15.854 10.097,15.951 10.100,18.397 10.111 C 20.141 10.119,21.000 10.109,21.147 10.079 C 21.402 10.026,21.584 9.885,21.685 9.662 C 21.754 9.510,21.758 9.334,21.759 6.849 C 21.760 3.927,21.770 4.042,21.506 3.811 C 21.137 3.487,20.569 3.589,20.361 4.017 C 20.283 4.178,20.280 4.257,20.280 5.860 L 20.280 7.535 19.130 6.396 C 18.497 5.770,17.836 5.142,17.660 5.001 C 16.416 4.007,14.892 3.340,13.320 3.100 C 12.914 3.038,11.627 2.990,11.300 3.025 M19.660 13.457 C 19.427 13.561,19.324 13.723,19.138 14.284 C 18.159 17.225,15.662 19.201,12.572 19.480 C 11.307 19.594,9.812 19.292,8.599 18.677 C 7.682 18.212,7.166 17.792,5.700 16.322 L 4.781 15.400 6.458 15.400 C 8.085 15.400,8.140 15.397,8.310 15.315 C 8.794 15.081,8.853 14.388,8.418 14.056 L 8.266 13.940 5.533 13.929 C 2.908 13.919,2.794 13.921,2.650 13.995 C 2.465 14.089,2.381 14.180,2.302 14.370 C 2.248 14.498,2.240 14.872,2.240 17.160 C 2.240 20.068,2.231 19.958,2.491 20.186 C 2.871 20.521,3.424 20.426,3.635 19.990 C 3.717 19.820,3.720 19.765,3.720 18.141 L 3.720 16.467 4.910 17.645 C 6.427 19.146,6.976 19.568,8.132 20.121 C 10.233 21.126,12.625 21.274,14.836 20.536 C 17.538 19.633,19.638 17.530,20.541 14.820 C 20.756 14.176,20.764 13.990,20.586 13.722 C 20.397 13.436,19.976 13.316,19.660 13.457 " fill="#0F172A" stroke="none" fill-rule="evenodd"></path></svg>