<svg width="24" height="24" viewBox="0 0 24 24" fill="none" xmlns="http://www.w3.org/2000/svg"><path d="M11.340 2.281 C 9.465 2.398,7.649 3.079,6.084 4.252 C 5.583 4.627,4.616 5.596,4.245 6.092 C 3.236 7.444,2.622 8.895,2.353 10.572 C 2.239 11.277,2.230 12.591,2.333 13.300 C 2.582 15.004,3.215 16.530,4.245 17.908 C 4.622 18.412,5.588 19.378,6.092 19.755 C 7.471 20.785,9.000 21.420,10.700 21.666 C 11.033 21.714,11.432 21.736,12.000 21.736 C 13.556 21.736,14.894 21.430,16.260 20.762 C 17.312 20.247,18.030 19.732,18.881 18.881 C 19.732 18.030,20.248 17.311,20.761 16.260 C 22.377 12.955,21.991 9.058,19.755 6.096 C 18.214 4.055,15.834 2.676,13.280 2.345 C 12.683 2.268,11.941 2.243,11.340 2.281 M13.100 8.350 C 13.260 8.428,16.217 11.370,16.365 11.598 C 16.527 11.848,16.527 12.151,16.365 12.402 C 16.301 12.500,15.550 13.274,14.695 14.123 C 13.083 15.723,13.038 15.760,12.724 15.760 C 12.602 15.760,12.359 15.652,12.245 15.548 C 12.116 15.430,12.002 15.172,12.002 15.000 C 12.002 14.728,12.131 14.561,13.036 13.660 L 13.921 12.780 10.990 12.760 C 7.662 12.737,7.858 12.758,7.635 12.405 C 7.405 12.043,7.514 11.581,7.880 11.366 L 8.060 11.260 10.990 11.240 L 13.921 11.220 13.036 10.340 C 12.131 9.439,12.002 9.272,12.002 9.000 C 12.002 8.707,12.259 8.352,12.513 8.296 C 12.572 8.284,12.638 8.267,12.660 8.260 C 12.728 8.237,12.974 8.288,13.100 8.350 " fill="#0F172A" stroke="none" fill-rule="evenodd"></path></svg>