<svg width="24" height="24" viewBox="0 0 24 24" fill="none" xmlns="http://www.w3.org/2000/svg"><path d="M11.811 2.278 C 11.639 2.320,11.417 2.493,11.330 2.652 C 11.264 2.772,11.259 3.269,11.240 10.970 L 11.220 19.160 8.100 16.036 C 5.969 13.902,4.929 12.888,4.820 12.837 C 4.552 12.711,4.199 12.760,3.987 12.952 C 3.766 13.151,3.696 13.561,3.837 13.832 C 3.881 13.915,5.596 15.659,7.767 17.827 C 11.766 21.819,11.702 21.760,12.000 21.760 C 12.298 21.760,12.234 21.819,16.234 17.827 C 18.888 15.178,20.112 13.930,20.163 13.820 C 20.255 13.625,20.260 13.406,20.178 13.210 C 20.096 13.012,20.010 12.923,19.820 12.835 C 19.615 12.741,19.383 12.742,19.180 12.837 C 19.071 12.888,18.031 13.902,15.900 16.036 L 12.780 19.160 12.760 10.970 C 12.740 2.806,12.740 2.780,12.658 2.641 C 12.494 2.361,12.122 2.202,11.811 2.278 " fill="#0F172A" stroke="none" fill-rule="evenodd"></path></svg>