<svg width="24" height="24" viewBox="0 0 24 24" fill="none" xmlns="http://www.w3.org/2000/svg"><path d="M11.811 2.278 C 11.639 2.320,11.417 2.493,11.330 2.652 C 11.264 2.772,11.259 3.269,11.240 10.970 L 11.220 19.160 9.980 17.918 C 9.298 17.234,8.673 16.640,8.592 16.597 C 8.415 16.505,8.084 16.495,7.928 16.576 C 7.802 16.642,7.631 16.819,7.560 16.956 C 7.491 17.091,7.499 17.403,7.576 17.565 C 7.611 17.640,8.528 18.588,9.630 19.688 C 11.420 21.474,11.638 21.678,11.796 21.720 C 11.984 21.770,12.193 21.747,12.359 21.659 C 12.414 21.630,13.354 20.709,14.446 19.613 C 16.370 17.682,16.433 17.614,16.472 17.424 C 16.495 17.316,16.507 17.208,16.500 17.184 C 16.493 17.160,16.476 17.091,16.463 17.031 C 16.434 16.897,16.228 16.657,16.076 16.578 C 15.916 16.495,15.586 16.505,15.408 16.597 C 15.327 16.640,14.702 17.234,14.020 17.918 L 12.780 19.160 12.760 10.970 C 12.740 2.806,12.740 2.780,12.658 2.641 C 12.494 2.361,12.122 2.202,11.811 2.278 " fill="#0F172A" stroke="none" fill-rule="evenodd"></path></svg>