<svg width="24" height="24" viewBox="0 0 24 24" fill="none" xmlns="http://www.w3.org/2000/svg"><path d="M10.200 0.823 C 10.023 0.899,6.946 3.960,6.837 4.168 C 6.696 4.439,6.766 4.849,6.987 5.048 C 7.100 5.151,7.339 5.240,7.500 5.240 C 7.786 5.240,7.917 5.140,8.850 4.209 L 9.760 3.301 9.760 5.030 L 9.760 6.760 8.098 6.760 C 6.190 6.760,6.043 6.777,5.460 7.059 C 4.810 7.375,4.375 7.810,4.059 8.460 C 3.749 9.099,3.760 8.921,3.760 13.500 C 3.760 18.079,3.749 17.901,4.059 18.540 C 4.375 19.190,4.810 19.625,5.460 19.941 C 6.099 20.251,5.921 20.240,10.500 20.240 C 15.079 20.240,14.901 20.251,15.540 19.941 C 16.190 19.625,16.625 19.190,16.941 18.540 C 17.251 17.901,17.240 18.079,17.240 13.500 C 17.240 8.921,17.251 9.099,16.941 8.460 C 16.625 7.810,16.190 7.375,15.540 7.059 C 14.957 6.777,14.810 6.760,12.902 6.760 L 11.240 6.760 11.240 5.030 L 11.240 3.301 12.150 4.209 C 13.089 5.146,13.214 5.241,13.509 5.239 C 13.682 5.238,13.948 5.127,14.048 5.014 C 14.232 4.807,14.287 4.471,14.179 4.209 C 14.094 4.004,11.044 0.942,10.820 0.837 C 10.628 0.747,10.391 0.741,10.200 0.823 M11.231 9.893 L 11.220 13.026 11.107 13.174 C 10.967 13.358,10.865 13.425,10.658 13.472 C 10.326 13.546,9.946 13.356,9.815 13.051 C 9.770 12.946,9.760 12.369,9.760 9.841 L 9.760 6.760 10.501 6.760 L 11.241 6.760 11.231 9.893 M18.760 13.828 C 18.760 16.811,18.749 17.571,18.702 17.880 C 18.401 19.880,16.880 21.401,14.880 21.702 C 14.571 21.749,13.811 21.760,10.828 21.760 L 7.156 21.760 7.287 21.950 C 7.594 22.398,8.001 22.735,8.526 22.977 C 9.109 23.246,8.993 23.240,13.500 23.240 C 18.079 23.240,17.901 23.251,18.540 22.941 C 19.190 22.625,19.625 22.190,19.941 21.540 C 20.251 20.901,20.240 21.079,20.240 16.500 C 20.240 11.993,20.246 12.109,19.977 11.526 C 19.735 11.001,19.398 10.594,18.950 10.287 L 18.760 10.156 18.760 13.828 " fill="#0F172A" stroke="none" fill-rule="evenodd"></path></svg>