<svg width="24" height="24" viewBox="0 0 24 24" fill="none" xmlns="http://www.w3.org/2000/svg"><path d="M7.152 2.281 C 6.776 2.326,6.468 2.422,6.120 2.603 C 5.346 3.005,4.819 3.671,4.586 4.540 L 4.500 4.860 4.500 11.980 C 4.500 19.972,4.478 19.371,4.796 20.026 C 5.250 20.959,6.056 21.557,7.080 21.718 C 7.432 21.774,13.568 21.774,13.920 21.718 C 14.944 21.557,15.750 20.959,16.204 20.026 C 16.494 19.428,16.500 19.369,16.500 16.960 L 16.500 14.820 16.400 14.646 C 16.155 14.217,15.535 14.133,15.215 14.486 C 15.016 14.706,15.021 14.648,15.000 16.940 L 14.980 19.100 14.853 19.368 C 14.697 19.697,14.452 19.949,14.138 20.103 L 13.900 20.220 10.500 20.220 L 7.100 20.220 6.862 20.103 C 6.548 19.949,6.303 19.697,6.147 19.368 L 6.020 19.100 6.020 12.000 L 6.020 4.900 6.147 4.632 C 6.303 4.303,6.548 4.051,6.862 3.897 L 7.100 3.780 10.500 3.780 L 13.900 3.780 14.138 3.897 C 14.452 4.051,14.697 4.303,14.853 4.632 L 14.980 4.900 15.000 7.060 C 15.022 9.444,15.011 9.348,15.280 9.574 C 15.467 9.731,15.688 9.785,15.905 9.727 C 16.155 9.660,16.267 9.577,16.392 9.364 L 16.500 9.180 16.500 7.040 C 16.500 4.603,16.495 4.557,16.178 3.928 C 15.778 3.133,15.118 2.593,14.245 2.349 C 13.946 2.265,13.878 2.263,10.680 2.256 C 8.887 2.252,7.300 2.263,7.152 2.281 M11.815 8.277 C 11.746 8.294,11.638 8.345,11.575 8.391 C 11.512 8.437,10.755 9.182,9.893 10.047 C 8.495 11.451,8.321 11.639,8.280 11.796 C 8.230 11.984,8.253 12.193,8.341 12.359 C 8.370 12.414,9.120 13.183,10.007 14.067 C 11.441 15.495,11.639 15.679,11.795 15.720 C 12.366 15.870,12.870 15.365,12.719 14.795 C 12.679 14.643,12.549 14.496,11.748 13.690 L 10.823 12.761 16.382 12.750 C 21.933 12.740,21.940 12.740,22.100 12.656 C 22.607 12.391,22.615 11.646,22.114 11.360 L 21.940 11.260 16.382 11.249 L 10.824 11.239 11.748 10.309 C 12.747 9.305,12.799 9.231,12.740 8.882 C 12.669 8.462,12.230 8.175,11.815 8.277 " fill="#0F172A" stroke="none" fill-rule="evenodd"></path></svg>