<svg width="24" height="24" viewBox="0 0 24 24" fill="none" xmlns="http://www.w3.org/2000/svg"><path d="M10.140 3.786 C 9.118 3.828,7.906 3.928,7.600 3.997 C 6.706 4.196,5.922 4.632,5.258 5.297 C 4.377 6.181,3.946 7.213,3.859 8.644 C 3.834 9.056,3.840 9.128,3.909 9.286 C 4.114 9.748,4.661 9.887,5.064 9.580 C 5.264 9.427,5.326 9.244,5.367 8.683 C 5.440 7.680,5.713 6.991,6.278 6.385 C 6.650 5.986,7.266 5.631,7.841 5.485 C 8.976 5.195,15.024 5.195,16.159 5.485 C 17.331 5.783,18.217 6.671,18.517 7.845 C 18.566 8.038,18.610 8.423,18.637 8.885 C 18.661 9.289,18.689 9.736,18.699 9.877 L 18.718 10.134 17.849 9.272 C 17.371 8.798,16.917 8.379,16.841 8.340 C 16.667 8.251,16.339 8.247,16.175 8.332 C 15.768 8.543,15.637 9.060,15.895 9.433 C 15.951 9.514,16.677 10.258,17.509 11.088 C 19.061 12.636,19.207 12.758,19.500 12.758 C 19.793 12.758,19.939 12.636,21.491 11.088 C 22.323 10.258,23.049 9.514,23.105 9.433 C 23.363 9.060,23.232 8.543,22.825 8.332 C 22.661 8.247,22.333 8.251,22.159 8.339 C 22.083 8.379,21.623 8.804,21.138 9.285 C 20.653 9.766,20.244 10.160,20.228 10.160 C 20.213 10.160,20.200 10.026,20.200 9.863 C 20.200 9.481,20.131 8.435,20.078 8.009 C 19.993 7.331,19.699 6.561,19.289 5.943 C 18.905 5.365,18.182 4.734,17.521 4.400 C 16.838 4.056,16.328 3.937,15.182 3.857 C 14.380 3.800,10.959 3.752,10.140 3.786 M4.329 11.279 C 4.257 11.296,4.131 11.357,4.049 11.414 C 3.766 11.610,0.888 14.531,0.822 14.689 C 0.656 15.087,0.821 15.499,1.220 15.684 C 1.633 15.875,1.786 15.785,2.860 14.718 C 3.346 14.235,3.756 13.840,3.772 13.840 C 3.787 13.840,3.800 13.989,3.800 14.170 C 3.801 14.709,3.911 16.046,3.979 16.344 C 4.203 17.323,4.691 18.188,5.383 18.835 C 5.754 19.182,6.108 19.420,6.603 19.657 C 7.592 20.131,8.447 20.220,12.000 20.220 C 15.553 20.220,16.408 20.131,17.397 19.657 C 17.948 19.393,18.292 19.150,18.721 18.721 C 19.130 18.312,19.377 17.970,19.630 17.460 C 19.927 16.861,20.056 16.358,20.125 15.530 C 20.178 14.892,20.154 14.735,19.974 14.520 C 19.753 14.258,19.370 14.187,19.053 14.352 C 18.744 14.512,18.664 14.709,18.621 15.416 C 18.525 16.964,17.654 18.084,16.222 18.499 C 15.663 18.660,14.348 18.734,12.000 18.734 C 9.652 18.734,8.337 18.660,7.778 18.499 C 6.806 18.217,6.121 17.641,5.699 16.750 C 5.488 16.305,5.412 15.938,5.363 15.136 C 5.340 14.742,5.311 14.294,5.299 14.141 L 5.278 13.862 6.151 14.729 C 7.213 15.784,7.366 15.874,7.780 15.685 C 8.222 15.485,8.375 14.957,8.105 14.567 C 7.952 14.346,4.999 11.418,4.860 11.350 C 4.698 11.270,4.488 11.242,4.329 11.279 " fill="#0F172A" stroke="none" fill-rule="evenodd"></path></svg>