<svg width="24" height="24" viewBox="0 0 24 24" fill="none" xmlns="http://www.w3.org/2000/svg"><path d="M14.420 2.283 C 13.346 2.366,12.260 2.740,11.320 3.350 C 9.602 4.464,8.493 6.292,8.282 8.354 C 8.255 8.622,8.240 10.606,8.240 13.974 L 8.240 19.179 5.830 16.774 C 4.505 15.451,3.375 14.346,3.320 14.318 C 3.265 14.290,3.118 14.267,2.992 14.267 C 2.492 14.267,2.152 14.715,2.280 15.205 C 2.322 15.363,2.625 15.679,5.433 18.493 C 7.142 20.205,8.594 21.635,8.660 21.671 C 8.730 21.709,8.872 21.736,9.000 21.736 C 9.128 21.736,9.270 21.709,9.340 21.671 C 9.406 21.635,10.858 20.205,12.567 18.493 C 15.375 15.679,15.678 15.363,15.720 15.205 C 15.848 14.715,15.508 14.267,15.008 14.267 C 14.882 14.267,14.735 14.290,14.680 14.318 C 14.625 14.346,13.495 15.451,12.170 16.774 L 9.760 19.179 9.760 13.892 C 9.760 10.423,9.774 8.498,9.802 8.293 C 9.906 7.521,10.269 6.599,10.719 5.966 C 11.554 4.790,12.899 3.984,14.340 3.796 C 14.775 3.740,15.662 3.771,16.060 3.858 C 18.123 4.307,19.655 5.838,20.146 7.940 C 20.200 8.171,20.216 8.570,20.236 10.220 C 20.262 12.425,20.253 12.350,20.520 12.574 C 20.929 12.918,21.576 12.720,21.718 12.209 C 21.773 12.010,21.773 8.896,21.718 8.354 C 21.382 5.067,18.795 2.535,15.508 2.280 C 14.972 2.238,14.991 2.238,14.420 2.283 " fill="#0F172A" stroke="none" fill-rule="evenodd"></path></svg>