<svg width="24" height="24" viewBox="0 0 24 24" fill="none" xmlns="http://www.w3.org/2000/svg"><path d="M11.340 2.281 C 9.465 2.398,7.649 3.079,6.084 4.252 C 5.583 4.627,4.616 5.596,4.245 6.092 C 3.236 7.444,2.622 8.895,2.353 10.572 C 2.239 11.277,2.230 12.591,2.333 13.300 C 2.582 15.004,3.215 16.530,4.245 17.908 C 4.622 18.412,5.588 19.378,6.092 19.755 C 7.471 20.785,9.000 21.420,10.700 21.666 C 11.033 21.714,11.432 21.736,12.000 21.736 C 13.556 21.736,14.894 21.430,16.260 20.762 C 17.312 20.247,18.030 19.732,18.881 18.881 C 19.732 18.030,20.248 17.311,20.761 16.260 C 22.377 12.955,21.991 9.058,19.755 6.096 C 18.214 4.055,15.834 2.676,13.280 2.345 C 12.683 2.268,11.941 2.243,11.340 2.281 M12.368 7.610 C 12.463 7.663,12.571 7.773,12.634 7.880 L 12.740 8.060 12.760 10.990 L 12.780 13.921 13.660 13.036 C 14.553 12.138,14.728 12.003,14.991 12.001 C 15.254 11.999,15.544 12.178,15.670 12.419 C 15.752 12.578,15.748 12.909,15.661 13.081 C 15.569 13.264,12.590 16.256,12.369 16.387 C 12.135 16.526,11.865 16.526,11.631 16.387 C 11.410 16.256,8.431 13.264,8.339 13.081 C 8.252 12.909,8.248 12.578,8.330 12.419 C 8.456 12.178,8.746 11.999,9.009 12.001 C 9.272 12.003,9.447 12.138,10.340 13.036 L 11.220 13.921 11.240 10.990 L 11.260 8.060 11.359 7.887 C 11.559 7.537,12.016 7.412,12.368 7.610 " fill="#0F172A" stroke="none" fill-rule="evenodd"></path></svg>