<svg width="24" height="24" viewBox="0 0 24 24" fill="none" xmlns="http://www.w3.org/2000/svg"><path d="M6.400 7.599 C 6.323 7.641,5.375 8.562,4.293 9.647 C 2.525 11.420,2.321 11.638,2.280 11.796 C 2.230 11.984,2.253 12.193,2.341 12.359 C 2.370 12.414,3.291 13.354,4.387 14.446 C 6.318 16.370,6.386 16.433,6.576 16.472 C 6.684 16.495,6.792 16.507,6.816 16.500 C 6.840 16.493,6.909 16.476,6.969 16.463 C 7.091 16.436,7.339 16.234,7.408 16.105 C 7.489 15.953,7.511 15.765,7.471 15.571 C 7.433 15.390,7.365 15.313,6.127 14.070 L 4.823 12.760 12.941 12.760 C 18.741 12.760,21.105 12.747,21.219 12.715 C 21.431 12.657,21.660 12.422,21.719 12.204 C 21.808 11.873,21.689 11.566,21.394 11.372 L 21.226 11.260 13.025 11.250 L 4.824 11.239 6.127 9.930 C 7.375 8.676,7.433 8.612,7.472 8.424 C 7.494 8.316,7.507 8.208,7.500 8.184 C 7.493 8.160,7.476 8.091,7.463 8.031 C 7.434 7.897,7.228 7.657,7.076 7.578 C 6.918 7.496,6.570 7.507,6.400 7.599 " fill="#0F172A" stroke="none" fill-rule="evenodd"></path></svg>