<svg width="24" height="24" viewBox="0 0 24 24" fill="none" xmlns="http://www.w3.org/2000/svg"><path d="M10.837 4.638 C 10.740 4.703,9.135 6.283,7.272 8.148 C 4.899 10.524,3.865 11.585,3.822 11.689 C 3.743 11.878,3.743 12.122,3.822 12.311 C 3.865 12.415,4.898 13.475,7.272 15.851 C 9.135 17.716,10.726 19.288,10.807 19.345 C 11.093 19.544,11.443 19.539,11.714 19.332 C 11.866 19.216,11.998 18.960,11.999 18.780 C 12.001 18.418,12.081 18.509,9.127 15.550 L 6.342 12.760 12.981 12.759 C 19.358 12.758,19.626 12.755,19.780 12.684 C 20.266 12.459,20.399 11.877,20.047 11.506 C 19.794 11.239,20.398 11.261,13.022 11.249 L 6.343 11.239 9.128 8.449 C 12.071 5.501,11.999 5.582,12.000 5.229 C 12.000 5.095,11.903 4.852,11.808 4.747 C 11.685 4.611,11.454 4.520,11.228 4.520 C 11.057 4.520,10.978 4.544,10.837 4.638 " fill="#0F172A" stroke="none" fill-rule="evenodd"></path></svg>