<svg width="24" height="24" viewBox="0 0 24 24" fill="none" xmlns="http://www.w3.org/2000/svg"><path d="M19.180 3.837 C 19.069 3.889,16.922 6.011,12.140 10.796 L 5.260 17.680 5.240 12.824 L 5.220 7.967 5.097 7.814 C 4.939 7.616,4.748 7.520,4.513 7.520 C 4.280 7.520,4.134 7.574,3.985 7.713 C 3.747 7.936,3.760 7.566,3.760 13.880 C 3.760 19.577,3.761 19.686,3.839 19.838 C 3.934 20.023,4.080 20.145,4.275 20.202 C 4.374 20.230,6.274 20.240,10.223 20.232 L 16.026 20.220 16.174 20.107 C 16.447 19.899,16.543 19.633,16.460 19.307 C 16.405 19.091,16.285 18.946,16.072 18.836 C 15.928 18.763,15.762 18.760,11.112 18.760 L 6.300 18.760 13.209 11.850 C 18.137 6.921,20.135 4.897,20.179 4.791 C 20.292 4.516,20.217 4.131,20.014 3.952 C 19.798 3.759,19.448 3.711,19.180 3.837 " fill="#0F172A" stroke="none" fill-rule="evenodd"></path></svg>