<svg width="24" height="24" viewBox="0 0 24 24" fill="none" xmlns="http://www.w3.org/2000/svg"><path d="M3.460 3.075 C 3.227 3.180,3.051 3.398,3.018 3.622 C 2.957 4.023,2.900 3.953,5.130 6.188 L 7.174 8.235 5.737 8.248 C 4.488 8.258,4.284 8.269,4.180 8.326 C 3.598 8.649,3.620 9.407,4.220 9.684 C 4.370 9.754,4.527 9.758,6.720 9.759 C 8.306 9.759,9.111 9.745,9.219 9.715 C 9.423 9.659,9.659 9.423,9.715 9.219 C 9.745 9.111,9.759 8.306,9.759 6.720 C 9.758 4.527,9.754 4.370,9.684 4.220 C 9.547 3.925,9.303 3.760,9.000 3.760 C 8.697 3.760,8.453 3.925,8.316 4.220 C 8.248 4.366,8.242 4.503,8.241 5.780 L 8.240 7.180 6.210 5.151 C 4.809 3.751,4.134 3.104,4.031 3.061 C 3.836 2.981,3.657 2.985,3.460 3.075 M19.960 3.063 C 19.871 3.101,19.077 3.866,17.790 5.151 L 15.760 7.180 15.759 5.780 C 15.758 4.503,15.752 4.366,15.684 4.220 C 15.398 3.601,14.602 3.601,14.316 4.220 C 14.246 4.370,14.242 4.527,14.241 6.720 C 14.241 8.306,14.255 9.111,14.285 9.219 C 14.341 9.423,14.577 9.659,14.781 9.715 C 14.889 9.745,15.694 9.759,17.280 9.759 C 19.473 9.758,19.630 9.754,19.780 9.684 C 20.075 9.547,20.240 9.303,20.240 9.000 C 20.240 8.799,20.181 8.647,20.047 8.506 C 19.812 8.258,19.834 8.261,18.263 8.248 L 16.826 8.235 18.870 6.188 C 21.100 3.953,21.043 4.023,20.982 3.622 C 20.915 3.175,20.382 2.883,19.960 3.063 M4.420 14.259 C 4.398 14.267,4.331 14.284,4.271 14.297 C 4.211 14.310,4.095 14.379,4.015 14.450 C 3.595 14.818,3.699 15.443,4.220 15.684 C 4.366 15.752,4.503 15.758,5.779 15.759 L 7.179 15.760 5.133 17.810 C 2.893 20.054,2.957 19.976,3.019 20.386 C 3.042 20.544,3.082 20.614,3.234 20.766 C 3.386 20.918,3.456 20.958,3.614 20.981 C 4.024 21.043,3.946 21.107,6.190 18.867 L 8.240 16.821 8.241 18.221 C 8.242 19.497,8.248 19.634,8.316 19.780 C 8.557 20.300,9.182 20.405,9.549 19.987 C 9.619 19.907,9.696 19.774,9.720 19.691 C 9.751 19.586,9.761 18.809,9.752 17.160 C 9.740 14.845,9.738 14.776,9.658 14.641 C 9.613 14.564,9.499 14.447,9.405 14.381 L 9.233 14.260 6.847 14.252 C 5.534 14.248,4.442 14.251,4.420 14.259 M14.811 14.278 C 14.640 14.320,14.417 14.493,14.330 14.652 C 14.266 14.769,14.259 14.983,14.248 17.160 C 14.239 18.809,14.249 19.586,14.280 19.691 C 14.304 19.774,14.381 19.907,14.451 19.987 C 14.818 20.405,15.443 20.300,15.684 19.780 C 15.752 19.634,15.758 19.497,15.759 18.221 L 15.760 16.821 17.810 18.867 C 20.054 21.107,19.976 21.043,20.386 20.981 C 20.544 20.958,20.614 20.918,20.766 20.766 C 20.918 20.614,20.958 20.544,20.981 20.386 C 21.043 19.976,21.107 20.054,18.867 17.810 L 16.821 15.760 18.221 15.759 C 19.497 15.758,19.634 15.752,19.780 15.684 C 20.266 15.459,20.399 14.877,20.047 14.506 C 19.803 14.248,19.935 14.261,17.320 14.253 C 16.011 14.250,14.882 14.261,14.811 14.278 " fill="#0F172A" stroke="none" fill-rule="evenodd"></path></svg>