<svg width="24" height="24" viewBox="0 0 24 24" fill="none" xmlns="http://www.w3.org/2000/svg"><path d="M11.595 1.635 C 11.242 1.859,11.260 1.685,11.260 4.780 L 11.260 7.500 12.000 7.500 L 12.740 7.500 12.740 4.780 C 12.740 2.174,12.737 2.053,12.663 1.905 C 12.479 1.533,11.961 1.402,11.595 1.635 M6.760 7.602 C 5.703 7.873,4.866 8.716,4.599 9.776 C 4.522 10.083,4.520 10.237,4.520 15.000 C 4.520 19.763,4.522 19.917,4.599 20.224 C 4.868 21.291,5.709 22.132,6.776 22.401 C 7.083 22.478,7.237 22.480,12.000 22.480 C 16.763 22.480,16.917 22.478,17.224 22.401 C 18.291 22.132,19.132 21.291,19.401 20.224 C 19.478 19.917,19.480 19.763,19.480 15.000 C 19.480 10.237,19.478 10.083,19.401 9.776 C 19.132 8.709,18.291 7.868,17.224 7.599 C 16.928 7.525,16.770 7.520,14.834 7.520 L 12.760 7.520 12.760 10.349 L 12.760 13.178 13.690 12.252 C 14.496 11.451,14.643 11.321,14.795 11.281 C 15.365 11.130,15.870 11.634,15.720 12.205 C 15.679 12.361,15.495 12.559,14.067 13.993 C 13.183 14.880,12.406 15.635,12.340 15.671 C 12.270 15.709,12.128 15.736,12.000 15.736 C 11.872 15.736,11.730 15.709,11.660 15.671 C 11.594 15.635,10.817 14.880,9.933 13.993 C 8.505 12.559,8.321 12.361,8.280 12.205 C 8.130 11.634,8.635 11.130,9.205 11.281 C 9.357 11.321,9.504 11.451,10.310 12.252 L 11.240 13.178 11.240 10.349 L 11.240 7.520 9.150 7.522 C 7.220 7.524,7.037 7.530,6.760 7.602 " fill="#0F172A" stroke="none" fill-rule="evenodd"></path></svg>