<svg width="24" height="24" viewBox="0 0 24 24" fill="none" xmlns="http://www.w3.org/2000/svg"><path d="M11.598 1.635 C 11.500 1.699,10.726 2.450,9.877 3.305 C 8.269 4.925,8.238 4.963,8.241 5.285 C 8.242 5.418,8.371 5.683,8.485 5.788 C 8.613 5.906,8.847 6.000,9.009 5.999 C 9.272 5.997,9.447 5.862,10.340 4.964 L 11.220 4.079 11.240 5.790 L 11.260 7.500 12.000 7.500 L 12.740 7.500 12.760 5.790 L 12.780 4.079 13.660 4.964 C 14.212 5.519,14.600 5.876,14.700 5.923 C 15.084 6.103,15.527 5.920,15.698 5.511 C 15.772 5.333,15.775 5.242,15.713 5.025 C 15.674 4.885,15.430 4.622,14.123 3.305 C 13.274 2.450,12.500 1.699,12.402 1.635 C 12.260 1.543,12.179 1.520,12.000 1.520 C 11.821 1.520,11.740 1.543,11.598 1.635 M6.760 7.602 C 5.703 7.873,4.866 8.716,4.599 9.776 C 4.522 10.083,4.520 10.237,4.520 15.000 C 4.520 19.763,4.522 19.917,4.599 20.224 C 4.868 21.291,5.709 22.132,6.776 22.401 C 7.083 22.478,7.237 22.480,12.000 22.480 C 16.763 22.480,16.917 22.478,17.224 22.401 C 18.291 22.132,19.132 21.291,19.401 20.224 C 19.478 19.917,19.480 19.763,19.480 15.000 C 19.480 10.237,19.478 10.083,19.401 9.776 C 19.132 8.709,18.291 7.868,17.224 7.599 C 16.928 7.525,16.770 7.520,14.834 7.520 L 12.760 7.520 12.760 11.290 C 12.760 13.760,12.745 15.111,12.718 15.209 C 12.610 15.599,12.198 15.827,11.798 15.719 C 11.578 15.660,11.344 15.432,11.285 15.219 C 11.254 15.108,11.240 13.917,11.240 11.290 L 11.240 7.520 9.150 7.522 C 7.220 7.524,7.037 7.530,6.760 7.602 " fill="#0F172A" stroke="none" fill-rule="evenodd"></path></svg>