<svg width="24" height="24" viewBox="0 0 24 24" fill="none" xmlns="http://www.w3.org/2000/svg"><path d="M11.680 3.823 C 11.531 3.887,4.845 10.535,4.655 10.807 C 4.456 11.093,4.461 11.443,4.668 11.714 C 4.784 11.866,5.040 11.998,5.220 11.999 C 5.582 12.001,5.491 12.081,8.450 9.127 L 11.240 6.342 11.241 12.981 C 11.242 19.358,11.245 19.626,11.316 19.780 C 11.602 20.399,12.398 20.399,12.684 19.780 C 12.755 19.626,12.758 19.358,12.759 12.981 L 12.760 6.342 15.550 9.127 C 18.509 12.081,18.418 12.001,18.780 11.999 C 18.960 11.998,19.216 11.866,19.332 11.714 C 19.539 11.443,19.544 11.093,19.345 10.807 C 19.288 10.726,17.716 9.135,15.851 7.272 C 13.475 4.898,12.415 3.865,12.311 3.822 C 12.125 3.744,11.862 3.745,11.680 3.823 " fill="#0F172A" stroke="none" fill-rule="evenodd"></path></svg>