<svg width="24" height="24" viewBox="0 0 24 24" fill="none" xmlns="http://www.w3.org/2000/svg"><path d="M11.320 2.280 C 9.441 2.407,7.648 3.082,6.084 4.252 C 5.587 4.622,4.619 5.592,4.245 6.092 C 2.808 8.015,2.099 10.362,2.272 12.630 C 2.375 13.977,2.677 15.112,3.238 16.260 C 3.753 17.312,4.268 18.030,5.119 18.881 C 5.970 19.732,6.689 20.248,7.740 20.761 C 9.106 21.429,10.446 21.736,12.000 21.736 C 12.908 21.736,13.449 21.675,14.260 21.480 C 15.888 21.090,17.425 20.269,18.620 19.150 C 19.112 18.691,19.213 18.429,19.043 18.055 C 18.871 17.675,18.383 17.515,18.007 17.716 C 17.957 17.743,17.778 17.892,17.608 18.047 C 16.390 19.163,15.019 19.835,13.320 20.148 C 12.780 20.248,11.220 20.248,10.680 20.148 C 8.927 19.825,7.519 19.119,6.298 17.952 C 4.999 16.710,4.157 15.103,3.852 13.284 C 3.752 12.691,3.752 11.309,3.852 10.716 C 4.151 8.935,4.920 7.433,6.176 6.176 C 7.433 4.920,8.935 4.151,10.716 3.852 C 11.309 3.752,12.691 3.752,13.284 3.852 C 14.992 4.138,16.477 4.877,17.707 6.052 C 19.001 7.290,19.849 8.910,20.147 10.716 C 20.246 11.314,20.247 12.443,20.149 12.797 C 19.982 13.403,19.595 13.939,19.177 14.143 C 18.994 14.233,18.921 14.247,18.710 14.232 C 18.072 14.189,17.608 13.682,17.331 12.722 C 17.276 12.535,17.263 12.147,17.243 10.234 L 17.220 7.967 17.097 7.814 C 16.939 7.615,16.748 7.520,16.509 7.520 C 16.088 7.520,15.760 7.820,15.760 8.207 L 15.760 8.328 15.531 8.119 C 14.871 7.516,13.971 7.056,13.060 6.858 C 12.906 6.825,12.537 6.786,12.240 6.773 C 11.281 6.731,10.548 6.883,9.700 7.299 C 8.286 7.994,7.321 9.177,6.908 10.720 C 6.791 11.159,6.785 11.217,6.783 11.980 C 6.780 12.724,6.788 12.810,6.890 13.211 C 7.388 15.176,8.828 16.615,10.789 17.110 C 11.180 17.208,11.289 17.218,11.960 17.219 C 12.515 17.220,12.780 17.203,13.020 17.151 C 13.744 16.994,14.405 16.713,14.988 16.314 C 15.404 16.030,16.049 15.380,16.333 14.958 L 16.563 14.617 16.895 14.940 C 17.567 15.596,18.384 15.866,19.204 15.703 C 20.370 15.470,21.290 14.451,21.644 13.000 C 21.723 12.674,21.736 12.518,21.735 11.900 C 21.733 9.820,21.054 7.830,19.755 6.092 C 19.381 5.592,18.413 4.623,17.916 4.252 C 16.519 3.207,14.952 2.563,13.280 2.345 C 12.682 2.267,11.897 2.241,11.320 2.280 M12.948 8.381 C 13.321 8.476,13.825 8.704,14.158 8.931 C 14.392 9.090,14.910 9.608,15.069 9.842 C 15.296 10.176,15.524 10.679,15.627 11.072 C 15.772 11.627,15.772 12.373,15.627 12.928 C 15.525 13.319,15.298 13.820,15.070 14.158 C 14.863 14.465,14.279 15.005,13.928 15.215 C 13.495 15.474,12.923 15.666,12.408 15.727 C 11.626 15.819,10.767 15.631,10.072 15.215 C 9.721 15.005,9.137 14.465,8.930 14.158 C 8.702 13.820,8.475 13.319,8.373 12.928 C 8.228 12.373,8.228 11.627,8.373 11.072 C 8.829 9.328,10.410 8.169,12.200 8.267 C 12.409 8.279,12.746 8.330,12.948 8.381 " fill="#0F172A" stroke="none" fill-rule="evenodd"></path></svg>