<svg width="24" height="24" viewBox="0 0 24 24" fill="none" xmlns="http://www.w3.org/2000/svg"><path d="M9.826 6.843 C 9.697 6.862,9.499 6.921,9.386 6.973 C 9.137 7.087,2.212 11.042,1.970 11.207 C 0.971 11.892,0.867 13.330,1.758 14.131 C 2.027 14.372,9.200 18.467,9.576 18.594 C 9.818 18.675,9.914 18.687,10.227 18.670 C 10.544 18.654,10.636 18.632,10.898 18.507 C 11.385 18.276,11.753 17.863,11.931 17.348 C 11.958 17.270,11.984 16.688,11.998 15.853 L 12.020 14.485 15.380 16.408 C 17.228 17.465,18.892 18.403,19.078 18.491 C 19.368 18.629,19.463 18.654,19.760 18.671 C 20.718 18.725,21.540 18.083,21.719 17.140 C 21.751 16.967,21.761 15.694,21.752 12.600 L 21.740 8.300 21.644 8.060 C 21.510 7.726,21.406 7.573,21.146 7.328 C 20.599 6.813,19.774 6.678,19.100 6.995 C 18.968 7.057,17.341 7.976,15.484 9.037 C 13.627 10.099,12.084 10.976,12.054 10.988 C 12.009 11.005,12.000 10.789,12.000 9.733 C 12.000 8.715,11.988 8.409,11.939 8.221 C 11.698 7.296,10.782 6.699,9.826 6.843 " fill="#0F172A" stroke="none" fill-rule="evenodd"></path></svg>