<svg width="24" height="24" viewBox="0 0 24 24" fill="none" xmlns="http://www.w3.org/2000/svg"><path d="M9.724 3.823 C 9.238 3.954,9.270 3.925,5.695 7.497 C 2.522 10.668,2.281 10.918,2.165 11.164 C 1.906 11.718,1.906 12.283,2.166 12.836 C 2.281 13.081,2.527 13.338,5.615 16.432 C 7.624 18.446,9.033 19.827,9.175 19.923 C 9.305 20.010,9.530 20.117,9.675 20.161 C 9.936 20.240,10.029 20.242,15.020 20.231 L 20.100 20.220 20.420 20.108 C 20.896 19.941,21.258 19.710,21.620 19.343 C 22.137 18.818,22.394 18.278,22.479 17.529 C 22.533 17.058,22.533 6.942,22.479 6.471 C 22.392 5.712,22.136 5.178,21.600 4.636 C 21.306 4.340,21.202 4.265,20.840 4.087 C 20.131 3.741,20.479 3.760,14.872 3.763 C 10.694 3.765,9.907 3.774,9.724 3.823 M12.271 9.061 C 12.368 9.101,12.738 9.441,13.329 10.030 L 14.238 10.938 15.169 10.014 C 16.169 9.022,16.240 8.972,16.585 9.011 C 17.069 9.065,17.388 9.627,17.176 10.052 C 17.141 10.122,16.705 10.590,16.206 11.090 L 15.301 12.000 16.206 12.910 C 16.705 13.410,17.141 13.878,17.176 13.948 C 17.388 14.373,17.069 14.935,16.585 14.989 C 16.240 15.028,16.169 14.978,15.169 13.986 L 14.238 13.062 13.329 13.970 C 12.412 14.886,12.264 15.000,12.000 15.000 C 11.744 15.000,11.454 14.819,11.331 14.581 C 11.245 14.417,11.249 14.092,11.337 13.920 C 11.377 13.843,11.807 13.380,12.293 12.890 L 13.178 12.000 12.293 11.110 C 11.807 10.620,11.378 10.157,11.339 10.081 C 11.252 9.909,11.248 9.578,11.330 9.419 C 11.511 9.072,11.920 8.916,12.271 9.061 " fill="#0F172A" stroke="none" fill-rule="evenodd"></path></svg>