<svg width="24" height="24" viewBox="0 0 24 24" fill="none" xmlns="http://www.w3.org/2000/svg"><path d="M2.940 3.058 C 2.364 3.206,1.960 3.536,1.689 4.080 L 1.540 4.380 1.540 9.740 L 1.540 15.100 1.689 15.411 C 1.886 15.825,2.175 16.114,2.589 16.311 L 2.900 16.460 12.000 16.460 L 21.100 16.460 21.411 16.311 C 21.825 16.114,22.114 15.825,22.311 15.411 L 22.460 15.100 22.460 9.740 L 22.460 4.380 22.312 4.080 C 22.046 3.539,21.577 3.169,21.000 3.042 C 20.884 3.016,17.675 3.003,11.980 3.004 C 4.918 3.006,3.100 3.017,2.940 3.058 M12.940 6.120 C 13.625 6.304,14.217 6.655,14.700 7.165 C 15.177 7.668,15.461 8.177,15.645 8.864 C 15.769 9.326,15.770 10.126,15.647 10.620 C 15.225 12.317,13.732 13.492,12.000 13.492 C 10.148 13.492,8.624 12.194,8.301 10.339 C 8.090 9.131,8.513 7.905,9.445 7.018 C 9.973 6.515,10.592 6.202,11.340 6.056 C 11.740 5.978,12.530 6.010,12.940 6.120 M11.404 7.583 C 10.829 7.738,10.244 8.224,9.989 8.760 C 9.806 9.145,9.744 9.471,9.770 9.911 C 9.819 10.732,10.302 11.432,11.060 11.782 C 11.697 12.076,12.303 12.076,12.940 11.782 C 13.698 11.432,14.181 10.732,14.230 9.911 C 14.272 9.214,14.063 8.653,13.584 8.179 C 13.274 7.872,12.946 7.677,12.578 7.581 C 12.285 7.505,11.692 7.506,11.404 7.583 M5.590 9.085 C 5.910 9.240,6.079 9.660,5.962 10.013 C 5.865 10.308,5.441 10.560,5.147 10.498 C 4.703 10.404,4.433 10.008,4.527 9.591 C 4.634 9.113,5.146 8.870,5.590 9.085 M19.062 9.075 C 19.393 9.226,19.571 9.583,19.483 9.919 C 19.328 10.505,18.653 10.703,18.236 10.285 C 17.937 9.987,17.926 9.562,18.208 9.256 C 18.445 8.999,18.751 8.934,19.062 9.075 M1.961 18.063 C 1.778 18.143,1.688 18.228,1.596 18.408 C 1.505 18.585,1.496 18.918,1.576 19.072 C 1.651 19.215,1.834 19.385,1.968 19.436 C 2.027 19.458,2.765 19.495,3.608 19.518 C 8.453 19.650,12.517 20.211,17.113 21.382 C 18.216 21.663,18.399 21.683,18.843 21.567 C 19.513 21.392,20.051 20.833,20.199 20.160 C 20.230 20.019,20.242 19.682,20.233 19.217 C 20.220 18.510,20.218 18.490,20.113 18.332 C 20.048 18.234,19.935 18.136,19.830 18.085 L 19.655 18.000 10.877 18.002 C 3.152 18.003,2.083 18.010,1.961 18.063 " fill="#0F172A" stroke="none" fill-rule="evenodd"></path></svg>