<svg width="24" height="24" viewBox="0 0 24 24" fill="none" xmlns="http://www.w3.org/2000/svg"><path d="M3.460 6.075 C 2.795 6.376,2.890 7.324,3.600 7.476 C 3.888 7.538,20.112 7.538,20.400 7.476 C 21.110 7.324,21.205 6.376,20.540 6.075 C 20.387 6.005,20.020 6.002,12.000 6.002 C 3.980 6.002,3.613 6.005,3.460 6.075 M3.660 11.259 C 3.638 11.267,3.572 11.284,3.513 11.296 C 3.259 11.352,3.002 11.707,3.002 12.000 C 3.002 12.172,3.116 12.430,3.245 12.548 C 3.491 12.774,2.903 12.760,12.000 12.760 C 21.097 12.760,20.509 12.774,20.755 12.548 C 20.881 12.432,20.998 12.173,20.999 12.009 C 21.001 11.747,20.826 11.462,20.580 11.326 C 20.470 11.265,19.795 11.259,12.080 11.253 C 7.471 11.249,3.682 11.252,3.660 11.259 M3.394 16.601 C 3.110 16.751,2.968 17.046,3.018 17.380 C 3.053 17.616,3.296 17.898,3.515 17.959 C 3.608 17.985,5.165 17.999,7.900 17.999 C 11.927 17.998,12.148 17.995,12.302 17.925 C 12.846 17.678,12.904 16.951,12.405 16.635 L 12.224 16.520 7.882 16.522 C 3.669 16.523,3.536 16.526,3.394 16.601 " fill="#0F172A" stroke="none" fill-rule="evenodd"></path></svg>