<svg width="24" height="24" viewBox="0 0 24 24" fill="none" xmlns="http://www.w3.org/2000/svg"><path d="M3.660 8.259 C 3.638 8.267,3.572 8.284,3.513 8.296 C 3.259 8.352,3.002 8.707,3.002 9.000 C 3.002 9.172,3.116 9.430,3.245 9.548 C 3.491 9.774,2.903 9.760,12.000 9.760 C 21.097 9.760,20.509 9.774,20.755 9.548 C 20.881 9.432,20.998 9.173,20.999 9.009 C 21.001 8.747,20.826 8.462,20.580 8.326 C 20.470 8.265,19.795 8.259,12.080 8.253 C 7.471 8.249,3.682 8.252,3.660 8.259 M3.460 15.075 C 2.795 15.376,2.890 16.324,3.600 16.476 C 3.888 16.538,20.112 16.538,20.400 16.476 C 21.110 16.324,21.205 15.376,20.540 15.075 C 20.387 15.005,20.020 15.002,12.000 15.002 C 3.980 15.002,3.613 15.005,3.460 15.075 " fill="#0F172A" stroke="none" fill-rule="evenodd"></path></svg>