<svg width="24" height="24" viewBox="0 0 24 24" fill="none" xmlns="http://www.w3.org/2000/svg"><path d="M2.700 3.817 C 2.460 3.924,2.239 4.257,2.241 4.509 C 2.243 4.761,2.488 5.105,2.733 5.197 C 2.811 5.227,5.080 5.240,10.130 5.240 L 17.415 5.240 17.590 5.155 C 17.850 5.029,17.980 4.811,17.980 4.500 C 17.980 4.189,17.850 3.971,17.590 3.845 L 17.415 3.760 10.117 3.762 C 4.110 3.763,2.799 3.773,2.700 3.817 M2.811 8.279 C 2.536 8.345,2.316 8.587,2.260 8.885 C 2.197 9.224,2.451 9.626,2.787 9.717 C 2.905 9.748,4.388 9.758,7.946 9.750 C 12.924 9.740,12.941 9.740,13.100 9.656 C 13.607 9.391,13.615 8.646,13.114 8.360 L 12.940 8.260 7.940 8.254 C 5.190 8.250,2.882 8.261,2.811 8.279 M17.094 8.278 C 17.025 8.295,16.908 8.346,16.834 8.392 C 16.760 8.438,15.841 9.336,14.792 10.388 C 13.484 11.698,12.864 12.347,12.822 12.449 C 12.746 12.632,12.742 12.881,12.814 13.052 C 12.892 13.238,13.133 13.435,13.320 13.465 C 13.513 13.495,13.486 13.496,13.691 13.463 C 13.848 13.438,13.952 13.345,15.169 12.130 L 16.479 10.823 16.489 16.002 L 16.500 21.180 16.608 21.364 C 16.733 21.577,16.845 21.660,17.095 21.727 C 17.420 21.814,17.775 21.632,17.925 21.302 C 17.995 21.148,17.998 20.900,17.999 15.981 L 18.000 10.822 19.270 12.086 C 19.968 12.782,20.602 13.382,20.677 13.420 C 20.882 13.523,21.162 13.510,21.373 13.386 C 21.577 13.267,21.661 13.153,21.727 12.905 C 21.829 12.524,21.881 12.588,19.687 10.387 C 18.594 9.291,17.655 8.371,17.600 8.343 C 17.461 8.270,17.244 8.243,17.094 8.278 M2.700 12.817 C 2.460 12.924,2.239 13.257,2.241 13.509 C 2.243 13.761,2.488 14.105,2.733 14.197 C 2.808 14.226,3.760 14.240,5.630 14.240 C 8.386 14.240,8.417 14.239,8.590 14.155 C 8.850 14.029,8.980 13.811,8.980 13.500 C 8.980 13.189,8.850 12.971,8.590 12.845 C 8.416 12.761,8.388 12.760,5.617 12.762 C 3.369 12.763,2.796 12.774,2.700 12.817 " fill="#0F172A" stroke="none" fill-rule="evenodd"></path></svg>