<svg width="24" height="24" viewBox="0 0 24 24" fill="none" xmlns="http://www.w3.org/2000/svg"><path d="M3.394 4.601 C 3.110 4.751,2.968 5.046,3.018 5.380 C 3.053 5.616,3.296 5.898,3.515 5.959 C 3.716 6.015,20.284 6.015,20.485 5.959 C 20.704 5.898,20.947 5.616,20.982 5.380 C 21.033 5.041,20.888 4.747,20.598 4.599 C 20.445 4.521,20.326 4.520,11.992 4.522 C 3.716 4.523,3.537 4.525,3.394 4.601 M3.460 9.075 C 2.795 9.376,2.890 10.324,3.600 10.476 C 3.888 10.538,20.112 10.538,20.400 10.476 C 21.110 10.324,21.205 9.376,20.540 9.075 C 20.387 9.005,20.020 9.002,12.000 9.002 C 3.980 9.002,3.613 9.005,3.460 9.075 M3.394 13.601 C 3.110 13.751,2.968 14.046,3.018 14.380 C 3.053 14.616,3.296 14.898,3.515 14.959 C 3.716 15.015,20.284 15.015,20.485 14.959 C 20.704 14.898,20.947 14.616,20.982 14.380 C 21.033 14.041,20.888 13.747,20.598 13.599 C 20.445 13.521,20.326 13.520,11.992 13.522 C 3.716 13.523,3.537 13.525,3.394 13.601 M3.460 18.075 C 2.795 18.376,2.890 19.324,3.600 19.476 C 3.888 19.538,20.112 19.538,20.400 19.476 C 21.110 19.324,21.205 18.376,20.540 18.075 C 20.387 18.005,20.020 18.002,12.000 18.002 C 3.980 18.002,3.613 18.005,3.460 18.075 " fill="#0F172A" stroke="none" fill-rule="evenodd"></path></svg>