<svg width="24" height="24" viewBox="0 0 24 24" fill="none" xmlns="http://www.w3.org/2000/svg"><path d="M2.700 3.817 C 2.460 3.924,2.239 4.257,2.241 4.509 C 2.243 4.761,2.488 5.105,2.733 5.197 C 2.811 5.227,5.080 5.240,10.130 5.240 L 17.415 5.240 17.590 5.155 C 17.850 5.029,17.980 4.811,17.980 4.500 C 17.980 4.189,17.850 3.971,17.590 3.845 L 17.415 3.760 10.117 3.762 C 4.110 3.763,2.799 3.773,2.700 3.817 M2.811 8.279 C 2.536 8.345,2.316 8.587,2.260 8.885 C 2.197 9.224,2.451 9.626,2.787 9.717 C 2.905 9.748,4.388 9.758,7.946 9.750 C 12.924 9.740,12.941 9.740,13.100 9.656 C 13.607 9.391,13.615 8.646,13.114 8.360 L 12.940 8.260 7.940 8.254 C 5.190 8.250,2.882 8.261,2.811 8.279 M17.094 8.278 C 16.888 8.327,16.703 8.465,16.598 8.648 L 16.500 8.820 16.480 13.990 L 16.460 19.160 15.200 17.896 C 14.507 17.201,13.882 16.607,13.811 16.576 C 13.659 16.510,13.370 16.503,13.213 16.563 C 12.827 16.708,12.650 17.188,12.839 17.577 C 12.891 17.685,13.585 18.405,14.889 19.703 C 16.952 21.758,16.956 21.762,17.285 21.759 C 17.532 21.757,17.717 21.591,19.686 19.614 C 21.788 17.503,21.798 17.491,21.747 17.178 C 21.683 16.781,21.391 16.520,21.010 16.520 C 20.892 16.520,20.738 16.549,20.668 16.584 C 20.598 16.620,19.968 17.218,19.270 17.914 L 18.000 19.178 18.000 14.028 C 18.000 8.438,18.011 8.725,17.788 8.487 C 17.619 8.306,17.336 8.221,17.094 8.278 M2.700 12.817 C 2.460 12.924,2.239 13.257,2.241 13.509 C 2.243 13.791,2.548 14.173,2.809 14.220 C 2.881 14.232,5.209 14.238,7.983 14.231 L 13.026 14.220 13.174 14.107 C 13.447 13.899,13.543 13.633,13.460 13.307 C 13.405 13.091,13.285 12.946,13.072 12.836 C 12.928 12.762,12.760 12.760,7.872 12.762 C 3.740 12.763,2.798 12.773,2.700 12.817 " fill="#0F172A" stroke="none" fill-rule="evenodd"></path></svg>