<svg width="24" height="24" viewBox="0 0 24 24" fill="none" xmlns="http://www.w3.org/2000/svg"><path d="M3.100 6.825 C 2.946 6.858,2.658 6.963,2.460 7.059 C 1.810 7.375,1.375 7.810,1.059 8.460 C 0.749 9.099,0.755 9.001,0.768 12.900 L 0.780 16.340 0.890 16.660 C 1.227 17.642,1.992 18.368,2.989 18.651 L 3.300 18.739 10.980 18.752 C 15.990 18.759,18.792 18.749,19.040 18.723 C 20.468 18.570,21.559 17.496,21.719 16.086 C 21.740 15.901,21.767 15.740,21.779 15.728 C 21.790 15.716,21.892 15.675,22.004 15.635 C 22.480 15.467,22.837 15.136,23.076 14.640 L 23.220 14.340 23.232 12.870 C 23.243 11.632,23.235 11.361,23.181 11.153 C 23.028 10.555,22.542 10.032,21.972 9.852 C 21.765 9.787,21.763 9.784,21.742 9.603 C 21.683 9.092,21.595 8.764,21.423 8.420 C 21.055 7.684,20.453 7.162,19.660 6.890 L 19.340 6.780 11.360 6.773 C 4.445 6.767,3.343 6.774,3.100 6.825 M19.093 8.300 C 19.219 8.333,19.389 8.394,19.471 8.436 C 19.690 8.548,19.987 8.865,20.111 9.118 L 20.220 9.340 20.220 12.740 L 20.220 16.140 20.114 16.367 C 19.965 16.685,19.719 16.936,19.406 17.090 L 19.142 17.220 11.311 17.230 C 3.610 17.241,3.477 17.239,3.256 17.162 C 2.853 17.020,2.537 16.718,2.365 16.308 L 2.260 16.060 2.260 12.760 C 2.260 9.717,2.265 9.444,2.330 9.260 C 2.482 8.826,2.920 8.420,3.360 8.303 C 3.697 8.214,18.752 8.211,19.093 8.300 M4.201 9.823 C 4.018 9.903,3.928 9.988,3.836 10.168 C 3.764 10.309,3.760 10.441,3.760 12.736 C 3.760 14.348,3.774 15.192,3.803 15.267 C 3.863 15.427,4.034 15.598,4.220 15.684 C 4.372 15.754,4.558 15.758,7.880 15.758 C 11.190 15.758,11.389 15.754,11.542 15.685 C 11.738 15.596,11.903 15.408,11.961 15.208 C 11.990 15.107,12.000 14.292,11.992 12.657 L 11.980 10.254 11.873 10.092 C 11.808 9.994,11.696 9.896,11.590 9.845 C 11.415 9.760,11.402 9.760,7.877 9.762 C 4.818 9.763,4.321 9.771,4.201 9.823 " fill="#0F172A" stroke="none" fill-rule="evenodd"></path></svg>