<svg width="24" height="24" viewBox="0 0 24 24" fill="none" xmlns="http://www.w3.org/2000/svg"><path d="M3.101 6.826 C 2.783 6.895,2.337 7.090,2.053 7.285 C 1.592 7.601,1.283 7.970,1.039 8.495 C 0.749 9.120,0.756 9.006,0.768 12.880 L 0.780 16.340 0.885 16.647 C 1.221 17.632,1.952 18.334,2.967 18.649 L 3.260 18.740 11.099 18.750 C 18.022 18.760,18.977 18.754,19.267 18.700 C 20.056 18.552,20.737 18.125,21.180 17.500 C 21.490 17.062,21.650 16.649,21.732 16.067 L 21.782 15.714 21.985 15.645 C 22.564 15.449,23.062 14.903,23.198 14.315 C 23.221 14.215,23.238 13.535,23.239 12.734 C 23.240 11.448,23.233 11.307,23.161 11.074 C 22.986 10.506,22.518 10.024,21.975 9.853 L 21.769 9.788 21.742 9.515 C 21.621 8.287,20.824 7.287,19.647 6.885 L 19.340 6.780 11.360 6.773 C 4.387 6.767,3.345 6.773,3.101 6.826 M19.290 8.353 C 19.594 8.476,19.932 8.789,20.093 9.096 L 20.220 9.340 20.220 12.740 L 20.220 16.140 20.116 16.360 C 19.961 16.686,19.718 16.936,19.409 17.089 L 19.142 17.220 11.311 17.230 C 3.610 17.241,3.477 17.239,3.256 17.162 C 2.853 17.020,2.520 16.695,2.347 16.272 C 2.260 16.060,2.260 16.057,2.260 12.740 L 2.260 9.420 2.386 9.155 C 2.455 9.009,2.576 8.819,2.655 8.731 C 2.829 8.538,3.218 8.324,3.472 8.281 C 3.576 8.263,7.125 8.251,11.360 8.254 L 19.060 8.260 19.290 8.353 " fill="#0F172A" stroke="none" fill-rule="evenodd"></path></svg>