<svg width="24" height="24" viewBox="0 0 24 24" fill="none" xmlns="http://www.w3.org/2000/svg"><path d="M10.860 2.284 C 9.848 2.328,8.894 2.431,8.699 2.517 C 8.158 2.755,8.099 3.491,8.595 3.805 C 8.694 3.868,8.827 3.920,8.889 3.920 L 9.003 3.920 8.991 6.550 L 8.980 9.180 8.883 9.400 C 8.799 9.593,8.378 10.031,5.421 13.000 C 2.202 16.232,1.910 16.543,1.690 16.980 C 1.428 17.498,1.332 18.282,1.458 18.864 C 1.678 19.881,2.427 20.695,3.400 20.973 C 3.815 21.092,5.696 21.365,7.020 21.499 C 10.317 21.833,13.683 21.833,16.980 21.499 C 18.304 21.365,20.185 21.092,20.600 20.973 C 21.561 20.698,22.270 19.942,22.526 18.921 C 22.674 18.326,22.585 17.525,22.310 16.980 C 22.090 16.543,21.798 16.232,18.579 13.000 C 15.622 10.031,15.201 9.593,15.117 9.400 L 15.020 9.180 15.009 6.550 L 14.997 3.920 15.109 3.920 C 15.243 3.920,15.483 3.779,15.596 3.635 C 15.641 3.578,15.698 3.452,15.724 3.355 C 15.812 3.021,15.615 2.639,15.287 2.507 C 15.083 2.426,14.105 2.329,13.000 2.280 C 12.016 2.237,11.917 2.238,10.860 2.284 M13.148 3.786 L 13.475 3.811 13.489 6.536 L 13.503 9.260 13.614 9.620 C 13.730 9.998,13.926 10.391,14.132 10.660 C 14.199 10.748,15.171 11.740,16.290 12.864 L 18.325 14.908 17.913 14.996 C 17.257 15.137,16.704 15.198,16.079 15.199 C 14.786 15.201,13.638 14.936,12.357 14.341 C 11.291 13.846,10.549 13.605,9.582 13.440 C 9.013 13.343,8.010 13.277,7.573 13.308 L 7.260 13.330 8.483 12.095 C 9.155 11.416,9.770 10.779,9.849 10.680 C 10.068 10.404,10.264 10.017,10.386 9.620 L 10.497 9.260 10.511 6.532 L 10.525 3.804 10.752 3.789 C 11.176 3.763,12.818 3.760,13.148 3.786 " fill="#0F172A" stroke="none" fill-rule="evenodd"></path></svg>