<svg width="24" height="24" viewBox="0 0 24 24" fill="none" xmlns="http://www.w3.org/2000/svg"><path d="M11.420 2.283 C 8.833 2.484,6.514 4.271,5.646 6.730 C 5.344 7.586,5.281 8.010,5.239 9.480 C 5.198 10.931,5.129 11.415,4.835 12.320 C 4.496 13.361,4.058 14.125,3.140 15.272 C 2.945 15.514,2.900 15.710,2.976 15.973 C 3.040 16.191,3.171 16.347,3.380 16.451 C 3.730 16.626,5.631 17.194,6.560 17.401 C 6.878 17.472,8.171 17.720,8.224 17.720 C 8.233 17.720,8.240 17.827,8.240 17.957 C 8.240 18.607,8.450 19.365,8.785 19.929 C 9.047 20.371,9.629 20.953,10.071 21.215 C 10.771 21.631,11.627 21.819,12.408 21.727 C 12.922 21.667,13.494 21.474,13.929 21.215 C 14.371 20.953,14.953 20.371,15.215 19.929 C 15.550 19.365,15.760 18.607,15.760 17.957 C 15.760 17.827,15.767 17.720,15.776 17.720 C 15.829 17.720,17.122 17.472,17.440 17.401 C 18.369 17.194,20.270 16.626,20.620 16.451 C 20.942 16.290,21.127 15.921,21.042 15.608 C 20.999 15.447,20.979 15.418,20.490 14.799 C 19.664 13.754,19.116 12.519,18.874 11.160 C 18.812 10.807,18.785 10.415,18.760 9.480 C 18.737 8.665,18.705 8.140,18.661 7.900 C 18.099 4.780,15.627 2.522,12.508 2.280 C 11.972 2.238,11.991 2.238,11.420 2.283 M12.000 17.980 C 12.627 17.980,13.390 17.965,13.696 17.946 L 14.252 17.913 14.227 18.214 C 14.130 19.358,13.161 20.240,12.000 20.240 C 10.839 20.240,9.870 19.358,9.773 18.214 L 9.748 17.913 10.304 17.946 C 10.610 17.965,11.373 17.980,12.000 17.980 " fill="#0F172A" stroke="none" fill-rule="evenodd"></path></svg>