<svg width="24" height="24" viewBox="0 0 24 24" fill="none" xmlns="http://www.w3.org/2000/svg"><path d="M5.133 2.279 C 4.921 2.329,4.766 2.452,4.472 2.805 C 3.469 4.006,2.678 5.711,2.401 7.270 C 2.346 7.581,2.394 7.785,2.571 7.986 C 2.802 8.249,3.143 8.313,3.470 8.155 C 3.721 8.034,3.813 7.861,3.938 7.280 C 4.086 6.589,4.278 6.037,4.600 5.380 C 4.905 4.756,5.184 4.319,5.625 3.775 C 6.044 3.256,6.113 3.052,5.978 2.729 C 5.832 2.381,5.484 2.195,5.133 2.279 M11.420 2.283 C 8.798 2.487,6.453 4.321,5.617 6.822 C 5.339 7.653,5.243 8.376,5.240 9.680 C 5.239 10.065,5.213 10.571,5.182 10.805 C 4.979 12.327,4.360 13.771,3.411 14.935 C 2.968 15.478,2.951 15.512,2.967 15.804 C 2.979 16.018,3.003 16.097,3.093 16.215 C 3.239 16.405,3.367 16.466,4.180 16.733 C 5.395 17.130,6.538 17.420,7.679 17.619 C 7.997 17.675,8.258 17.720,8.259 17.720 C 8.260 17.720,8.264 17.905,8.269 18.130 C 8.283 18.823,8.523 19.558,8.931 20.158 C 9.090 20.392,9.608 20.910,9.842 21.069 C 10.176 21.296,10.679 21.524,11.072 21.627 C 11.627 21.772,12.373 21.772,12.928 21.627 C 13.321 21.524,13.824 21.296,14.158 21.069 C 14.392 20.910,14.910 20.392,15.069 20.158 C 15.477 19.558,15.717 18.823,15.731 18.130 C 15.736 17.905,15.740 17.720,15.741 17.720 C 15.742 17.720,16.003 17.675,16.321 17.619 C 17.462 17.420,18.605 17.130,19.820 16.733 C 20.633 16.466,20.761 16.405,20.907 16.215 C 20.997 16.097,21.021 16.018,21.033 15.804 C 21.049 15.512,21.030 15.474,20.588 14.935 C 20.018 14.240,19.457 13.218,19.184 12.380 C 18.872 11.422,18.762 10.726,18.760 9.700 C 18.759 9.304,18.741 8.761,18.720 8.492 C 18.460 5.148,15.852 2.540,12.508 2.280 C 11.972 2.238,11.991 2.238,11.420 2.283 M18.525 2.280 C 18.162 2.366,17.907 2.765,17.977 3.138 C 18.004 3.281,18.126 3.467,18.453 3.865 C 19.229 4.812,19.815 6.067,20.083 7.358 C 20.126 7.565,20.206 7.811,20.260 7.904 C 20.537 8.375,21.283 8.334,21.544 7.832 C 21.793 7.354,21.156 5.301,20.342 3.960 C 19.931 3.282,19.307 2.492,19.089 2.372 C 18.906 2.271,18.703 2.238,18.525 2.280 M12.000 17.969 C 12.825 17.969,13.667 17.953,13.870 17.933 L 14.240 17.897 14.240 18.100 C 14.240 18.823,13.710 19.656,13.040 19.989 C 12.131 20.441,11.124 20.284,10.420 19.580 C 10.008 19.168,9.760 18.612,9.760 18.100 L 9.760 17.897 10.130 17.933 C 10.333 17.953,11.175 17.969,12.000 17.969 " fill="#0F172A" stroke="none" fill-rule="evenodd"></path></svg>