<svg width="24" height="24" viewBox="0 0 24 24" fill="none" xmlns="http://www.w3.org/2000/svg"><path d="M2.811 2.278 C 2.638 2.320,2.416 2.494,2.332 2.652 C 2.244 2.817,2.243 3.181,2.329 3.340 C 2.365 3.406,6.495 7.558,11.507 12.567 C 19.840 20.895,20.635 21.678,20.795 21.720 C 21.366 21.869,21.869 21.366,21.720 20.795 C 21.678 20.635,20.897 19.842,12.587 11.528 C 7.589 6.528,3.446 2.403,3.380 2.362 C 3.234 2.272,2.985 2.235,2.811 2.278 M11.420 2.283 C 9.991 2.394,8.492 3.049,7.449 4.016 L 7.318 4.138 13.604 10.424 L 19.891 16.711 20.217 16.601 C 20.658 16.452,20.776 16.386,20.907 16.214 C 20.997 16.097,21.021 16.018,21.033 15.804 C 21.049 15.512,21.030 15.474,20.588 14.935 C 20.018 14.240,19.457 13.218,19.184 12.380 C 18.872 11.422,18.762 10.726,18.760 9.700 C 18.759 9.304,18.741 8.761,18.720 8.492 C 18.460 5.148,15.852 2.540,12.508 2.280 C 11.972 2.238,11.991 2.238,11.420 2.283 M5.266 8.662 C 5.252 8.766,5.240 9.195,5.239 9.616 C 5.239 10.043,5.213 10.568,5.182 10.805 C 4.979 12.327,4.360 13.771,3.411 14.935 C 2.968 15.478,2.951 15.512,2.967 15.804 C 2.979 16.018,3.003 16.097,3.093 16.215 C 3.239 16.405,3.367 16.466,4.180 16.733 C 5.395 17.130,6.538 17.420,7.679 17.619 C 7.997 17.675,8.258 17.720,8.259 17.720 C 8.260 17.720,8.264 17.905,8.269 18.130 C 8.283 18.823,8.523 19.558,8.931 20.158 C 9.090 20.392,9.608 20.910,9.842 21.069 C 10.585 21.574,11.486 21.809,12.342 21.720 C 12.897 21.662,13.161 21.586,13.660 21.338 C 14.441 20.951,14.962 20.431,15.341 19.660 C 15.459 19.418,15.578 19.133,15.604 19.026 L 15.652 18.832 10.472 13.652 L 5.292 8.472 5.266 8.662 M12.000 17.969 C 12.825 17.969,13.667 17.953,13.870 17.933 L 14.240 17.897 14.240 18.100 C 14.240 18.823,13.710 19.656,13.040 19.989 C 12.131 20.441,11.124 20.284,10.420 19.580 C 10.008 19.168,9.760 18.612,9.760 18.100 L 9.760 17.897 10.130 17.933 C 10.333 17.953,11.175 17.969,12.000 17.969 " fill="#0F172A" stroke="none" fill-rule="evenodd"></path></svg>