<svg width="24" height="24" viewBox="0 0 24 24" fill="none" xmlns="http://www.w3.org/2000/svg"><path d="M13.940 1.576 C 13.781 1.646,13.817 1.608,8.120 7.712 C 5.403 10.623,3.138 13.080,3.087 13.172 C 2.897 13.515,3.050 13.981,3.410 14.155 C 3.585 14.240,3.596 14.240,7.293 14.240 C 9.553 14.240,11.000 14.255,11.000 14.277 C 11.000 14.298,10.550 15.964,10.000 17.980 C 9.450 19.996,9.000 21.703,9.001 21.773 C 9.005 22.302,9.628 22.663,10.101 22.410 C 10.222 22.345,10.566 21.981,15.880 16.288 C 18.597 13.377,20.862 10.920,20.913 10.828 C 21.103 10.485,20.950 10.019,20.590 9.845 C 20.415 9.760,20.404 9.760,16.707 9.760 C 14.447 9.760,13.000 9.745,13.000 9.723 C 13.000 9.702,13.450 8.036,14.000 6.020 C 14.550 4.004,15.000 2.301,15.000 2.236 C 15.000 2.096,14.905 1.854,14.808 1.747 C 14.621 1.540,14.206 1.459,13.940 1.576 " fill="#0F172A" stroke="none" fill-rule="evenodd"></path></svg>