<svg width="24" height="24" viewBox="0 0 24 24" fill="none" xmlns="http://www.w3.org/2000/svg"><path d="M13.940 1.577 C 13.788 1.646,13.516 1.927,11.440 4.160 C 10.509 5.161,9.683 6.048,9.605 6.131 L 9.462 6.282 13.521 10.341 C 15.753 12.573,17.593 14.400,17.608 14.400 C 17.667 14.400,20.825 10.988,20.913 10.828 C 21.103 10.485,20.950 10.019,20.590 9.845 C 20.415 9.760,20.404 9.760,16.707 9.760 C 14.447 9.760,13.000 9.745,13.000 9.723 C 13.000 9.702,13.450 8.036,14.000 6.020 C 14.550 4.004,15.000 2.301,15.000 2.236 C 15.000 2.096,14.905 1.854,14.808 1.747 C 14.621 1.540,14.204 1.458,13.940 1.577 M2.815 2.277 C 2.640 2.320,2.462 2.456,2.356 2.626 C 2.234 2.823,2.232 3.174,2.352 3.364 C 2.398 3.439,6.528 7.589,11.528 12.588 C 18.144 19.201,20.653 21.684,20.740 21.707 C 21.374 21.871,21.871 21.374,21.707 20.740 C 21.684 20.653,19.201 18.144,12.588 11.528 C 7.589 6.528,3.446 2.403,3.380 2.362 C 3.235 2.273,2.985 2.235,2.815 2.277 M4.773 11.305 C 3.897 12.243,3.144 13.066,3.100 13.135 C 3.042 13.224,3.020 13.327,3.020 13.503 C 3.020 13.811,3.151 14.030,3.410 14.155 C 3.585 14.240,3.596 14.240,7.293 14.240 C 9.497 14.240,11.000 14.255,11.000 14.276 C 11.000 14.297,10.550 15.963,10.000 17.981 C 9.450 19.998,9.000 21.701,9.000 21.766 C 9.000 21.904,9.095 22.146,9.192 22.253 C 9.229 22.294,9.331 22.365,9.417 22.409 C 9.618 22.511,9.987 22.494,10.151 22.375 C 10.243 22.307,13.166 19.206,14.210 18.067 L 14.534 17.714 10.477 13.657 C 8.246 11.426,6.408 9.600,6.393 9.600 C 6.378 9.600,5.649 10.367,4.773 11.305 " fill="#0F172A" stroke="none" fill-rule="evenodd"></path></svg>