<svg width="24" height="24" viewBox="0 0 24 24" fill="none" xmlns="http://www.w3.org/2000/svg"><path d="M5.340 3.023 C 4.398 3.117,3.736 3.243,3.055 3.459 C 2.717 3.566,2.590 3.627,2.491 3.728 C 2.220 4.009,2.240 3.406,2.240 11.369 C 2.240 16.322,2.254 18.628,2.283 18.733 C 2.345 18.955,2.586 19.179,2.826 19.237 C 3.003 19.279,3.056 19.274,3.342 19.184 C 3.799 19.041,4.242 18.933,4.700 18.853 C 5.261 18.756,6.735 18.755,7.300 18.853 C 8.172 19.004,8.958 19.260,9.725 19.643 C 10.111 19.836,11.020 20.420,11.118 20.537 C 11.146 20.572,11.186 20.600,11.205 20.600 C 11.225 20.600,11.240 17.147,11.240 12.563 L 11.240 4.526 11.010 4.387 C 9.906 3.719,8.593 3.266,7.220 3.080 C 6.885 3.034,5.615 2.996,5.340 3.023 M17.340 3.023 C 15.701 3.187,14.644 3.498,13.300 4.213 C 13.102 4.318,12.899 4.435,12.850 4.472 L 12.760 4.540 12.770 12.572 L 12.780 20.604 13.080 20.379 C 14.033 19.664,15.214 19.144,16.442 18.898 C 16.873 18.812,17.133 18.786,17.748 18.770 C 18.783 18.743,19.543 18.841,20.446 19.121 C 20.898 19.260,21.142 19.271,21.358 19.161 C 21.547 19.064,21.661 18.912,21.719 18.677 C 21.750 18.551,21.759 16.406,21.751 11.280 C 21.742 5.258,21.731 4.043,21.685 3.960 C 21.545 3.705,21.392 3.600,20.952 3.461 C 20.452 3.303,19.904 3.179,19.340 3.097 C 18.946 3.040,17.651 2.992,17.340 3.023 " fill="#0F172A" stroke="none" fill-rule="evenodd"></path></svg>