<svg width="24" height="24" viewBox="0 0 24 24" fill="none" xmlns="http://www.w3.org/2000/svg"><path d="M2.811 2.278 C 2.638 2.320,2.416 2.494,2.332 2.652 C 2.244 2.817,2.243 3.181,2.329 3.340 C 2.365 3.406,6.495 7.558,11.507 12.567 C 19.840 20.895,20.635 21.678,20.795 21.720 C 21.366 21.869,21.869 21.366,21.720 20.795 C 21.678 20.635,20.897 19.842,12.587 11.528 C 7.589 6.528,3.446 2.403,3.380 2.362 C 3.234 2.272,2.985 2.235,2.811 2.278 M10.339 2.284 C 8.547 2.342,5.968 2.570,5.902 2.676 C 5.893 2.692,9.115 5.935,13.062 9.882 L 20.240 17.060 20.240 11.128 C 20.240 4.462,20.257 4.865,19.941 4.220 C 19.550 3.421,18.896 2.871,18.089 2.662 C 17.553 2.523,15.355 2.342,13.460 2.280 C 12.141 2.237,11.761 2.238,10.339 2.284 M3.760 14.061 C 3.760 19.935,3.769 21.185,3.814 21.292 C 3.932 21.575,4.333 21.798,4.613 21.737 C 4.683 21.722,6.374 20.893,8.370 19.895 L 12.000 18.080 14.890 19.523 L 17.780 20.966 10.780 13.963 C 6.930 10.111,3.776 6.960,3.770 6.960 C 3.765 6.960,3.760 10.156,3.760 14.061 " fill="#0F172A" stroke="none" fill-rule="evenodd"></path></svg>