<svg width="24" height="24" viewBox="0 0 24 24" fill="none" xmlns="http://www.w3.org/2000/svg"><path d="M10.350 2.283 C 8.698 2.337,6.416 2.532,5.911 2.662 C 4.900 2.924,4.091 3.763,3.840 4.809 C 3.762 5.133,3.761 5.298,3.760 13.151 C 3.760 19.790,3.769 21.185,3.814 21.292 C 3.930 21.570,4.308 21.790,4.594 21.747 C 4.674 21.735,6.373 20.910,8.370 19.913 L 12.000 18.101 15.630 19.913 C 17.627 20.910,19.326 21.735,19.406 21.747 C 19.692 21.790,20.070 21.570,20.186 21.292 C 20.231 21.185,20.240 19.790,20.240 13.151 C 20.239 5.298,20.238 5.133,20.160 4.809 C 19.909 3.763,19.100 2.924,18.089 2.662 C 17.553 2.523,15.355 2.342,13.460 2.280 C 12.145 2.237,11.764 2.238,10.350 2.283 " fill="#0F172A" stroke="none" fill-rule="evenodd"></path></svg>