<svg width="24" height="24" viewBox="0 0 24 24" fill="none" xmlns="http://www.w3.org/2000/svg"><path d="M5.503 3.042 C 4.487 3.214,3.556 3.976,3.202 4.925 C 2.994 5.481,3.001 5.233,3.001 11.992 C 3.000 18.878,2.989 18.550,3.234 19.151 C 3.521 19.857,4.143 20.479,4.849 20.766 C 5.449 21.011,5.123 21.000,12.000 21.000 C 18.876 21.000,18.551 21.011,19.150 20.767 C 19.850 20.482,20.482 19.850,20.767 19.150 C 21.011 18.551,21.000 18.876,21.000 12.000 C 21.000 5.123,21.011 5.449,20.766 4.849 C 20.499 4.193,19.964 3.633,19.296 3.312 C 18.639 2.996,19.291 3.023,12.120 3.015 C 8.589 3.012,5.611 3.024,5.503 3.042 M16.787 4.563 C 16.939 4.620,17.072 4.749,17.164 4.928 C 17.238 5.072,17.240 5.254,17.240 10.880 C 17.240 16.496,17.238 16.688,17.164 16.832 C 17.030 17.095,16.794 17.239,16.492 17.241 C 16.320 17.243,16.079 17.133,14.150 16.172 L 12.000 15.102 9.850 16.172 C 7.921 17.133,7.680 17.243,7.508 17.241 C 7.206 17.239,6.970 17.095,6.836 16.832 C 6.762 16.688,6.760 16.496,6.760 10.880 C 6.760 5.254,6.762 5.072,6.836 4.928 C 6.925 4.755,7.059 4.621,7.200 4.565 C 7.344 4.508,16.636 4.505,16.787 4.563 " fill="#0F172A" stroke="none" fill-rule="evenodd"></path></svg>