<svg width="24" height="24" viewBox="0 0 24 24" fill="none" xmlns="http://www.w3.org/2000/svg"><path d="M10.152 2.280 C 9.353 2.378,8.588 2.812,8.125 3.428 C 7.748 3.931,7.557 4.451,7.502 5.122 L 7.474 5.463 6.787 5.532 C 5.695 5.643,4.643 5.794,4.341 5.884 C 3.272 6.204,2.500 7.078,2.297 8.200 C 2.220 8.627,2.220 11.813,2.297 12.240 C 2.417 12.900,2.694 13.413,3.182 13.877 C 3.543 14.220,3.975 14.438,4.767 14.676 C 9.526 16.109,14.474 16.109,19.233 14.676 C 20.025 14.438,20.457 14.220,20.818 13.877 C 21.306 13.413,21.583 12.900,21.703 12.240 C 21.780 11.813,21.780 8.627,21.703 8.200 C 21.500 7.078,20.728 6.204,19.659 5.884 C 19.357 5.794,18.305 5.643,17.213 5.532 L 16.526 5.463 16.498 5.122 C 16.387 3.752,15.537 2.705,14.251 2.352 C 13.958 2.271,13.837 2.266,12.180 2.257 C 11.212 2.251,10.300 2.262,10.152 2.280 M14.138 3.897 C 14.605 4.126,14.931 4.595,14.986 5.116 C 15.011 5.353,15.007 5.368,14.936 5.346 C 14.894 5.334,14.217 5.304,13.430 5.280 C 12.074 5.239,9.280 5.281,9.064 5.346 C 8.993 5.368,8.989 5.353,9.014 5.118 C 9.061 4.663,9.318 4.232,9.680 4.000 C 10.050 3.763,10.047 3.763,12.060 3.772 L 13.900 3.780 14.138 3.897 M12.271 12.062 C 12.574 12.189,12.731 12.422,12.731 12.743 C 12.731 13.316,12.133 13.673,11.640 13.395 C 11.216 13.157,11.136 12.539,11.486 12.212 C 11.703 12.010,12.007 11.952,12.271 12.062 M3.010 17.268 C 3.024 18.832,3.031 18.957,3.109 19.209 C 3.284 19.765,3.556 20.199,3.973 20.586 C 4.483 21.057,4.921 21.238,5.854 21.358 C 7.863 21.619,9.701 21.730,12.000 21.730 C 13.943 21.730,15.111 21.675,16.920 21.498 C 19.042 21.290,19.427 21.169,20.103 20.500 C 20.476 20.132,20.675 19.814,20.853 19.302 L 20.979 18.940 20.992 17.268 L 21.006 15.596 20.773 15.713 C 20.017 16.095,17.522 16.725,15.760 16.980 C 14.351 17.185,13.812 17.219,12.000 17.219 C 10.224 17.219,9.660 17.185,8.340 16.998 C 6.580 16.748,3.989 16.097,3.227 15.713 L 2.994 15.596 3.010 17.268 " fill="#0F172A" stroke="none" fill-rule="evenodd"></path></svg>