<svg width="24" height="24" viewBox="0 0 24 24" fill="none" xmlns="http://www.w3.org/2000/svg"><path d="M7.778 1.576 C 7.711 1.605,7.606 1.689,7.545 1.761 C 7.143 2.239,6.692 3.722,6.806 4.194 C 6.844 4.355,6.912 4.441,7.304 4.828 L 7.758 5.276 7.700 5.441 C 7.513 5.971,7.450 7.054,7.578 7.534 C 7.757 8.201,8.292 8.639,9.096 8.777 C 9.291 8.810,9.457 8.843,9.463 8.850 C 9.470 8.856,9.407 8.998,9.323 9.164 C 9.240 9.330,9.163 9.491,9.152 9.523 C 9.136 9.572,9.063 9.569,8.637 9.508 C 7.874 9.398,6.972 9.214,6.200 9.013 C 5.815 8.913,5.458 8.822,5.407 8.810 C 5.317 8.790,5.315 8.781,5.340 8.485 C 5.381 7.997,5.475 7.268,5.584 6.593 C 5.702 5.856,5.685 5.715,5.445 5.475 C 5.196 5.227,4.833 5.185,4.527 5.370 C 4.305 5.504,4.214 5.693,4.125 6.200 C 3.954 7.173,3.810 8.440,3.790 9.140 C 3.781 9.467,3.790 9.516,3.886 9.680 C 4.026 9.918,4.176 9.997,4.910 10.216 C 6.062 10.559,7.184 10.809,8.348 10.981 C 8.715 11.035,9.026 11.093,9.040 11.109 C 9.054 11.126,9.097 11.248,9.137 11.380 C 9.176 11.512,9.267 11.733,9.340 11.870 C 9.493 12.162,9.539 12.128,8.900 12.201 C 7.469 12.365,5.803 12.737,4.300 13.228 C 3.512 13.485,3.368 13.551,3.226 13.720 C 3.047 13.933,3.024 14.086,3.076 14.725 C 3.227 16.577,3.570 18.345,4.125 20.130 C 4.298 20.688,4.425 20.869,4.709 20.963 C 5.033 21.070,5.446 20.902,5.599 20.602 C 5.710 20.383,5.701 20.147,5.563 19.710 C 5.106 18.259,4.722 16.364,4.617 15.038 L 4.590 14.696 5.225 14.509 C 5.574 14.406,5.911 14.310,5.974 14.296 L 6.089 14.269 6.054 14.445 C 6.035 14.541,6.021 14.908,6.023 15.260 C 6.034 17.811,7.304 20.386,9.158 21.619 C 10.699 22.643,12.616 22.776,14.220 21.971 C 15.840 21.158,17.097 19.508,17.662 17.453 C 17.935 16.457,18.074 15.124,17.963 14.560 C 17.936 14.424,17.924 14.303,17.935 14.291 C 17.954 14.273,18.164 14.330,19.190 14.631 C 19.438 14.704,19.432 14.674,19.340 15.441 C 19.164 16.898,18.850 18.391,18.455 19.653 C 18.300 20.152,18.287 20.378,18.401 20.602 C 18.554 20.902,18.967 21.070,19.291 20.963 C 19.577 20.869,19.701 20.690,19.883 20.110 C 20.403 18.455,20.789 16.451,20.924 14.705 C 20.973 14.065,20.952 13.932,20.772 13.717 C 20.630 13.549,20.484 13.483,19.640 13.208 C 18.293 12.770,16.571 12.383,15.240 12.220 C 14.943 12.184,14.663 12.147,14.617 12.138 C 14.538 12.123,14.541 12.109,14.687 11.811 C 14.770 11.640,14.861 11.410,14.888 11.300 C 14.915 11.190,14.938 11.096,14.939 11.092 C 14.941 11.088,15.203 11.047,15.521 11.001 C 16.673 10.834,17.745 10.603,18.876 10.279 C 19.783 10.019,19.967 9.930,20.110 9.687 C 20.211 9.515,20.219 9.470,20.210 9.140 C 20.179 8.030,19.874 5.872,19.712 5.607 C 19.464 5.204,18.892 5.139,18.556 5.475 C 18.309 5.722,18.293 5.850,18.414 6.586 C 18.515 7.196,18.606 7.904,18.661 8.505 C 18.686 8.780,18.684 8.790,18.594 8.810 C 18.542 8.821,18.185 8.913,17.800 9.013 C 17.028 9.214,16.126 9.398,15.363 9.508 C 14.937 9.569,14.864 9.572,14.848 9.523 C 14.837 9.491,14.760 9.330,14.677 9.164 C 14.593 8.998,14.530 8.856,14.537 8.850 C 14.543 8.843,14.709 8.810,14.904 8.777 C 15.708 8.639,16.243 8.201,16.422 7.534 C 16.550 7.055,16.487 5.971,16.301 5.442 L 16.243 5.279 16.696 4.829 C 17.086 4.442,17.155 4.354,17.194 4.194 C 17.323 3.660,16.773 2.010,16.353 1.670 C 16.093 1.459,15.666 1.469,15.413 1.691 C 15.116 1.952,15.080 2.284,15.301 2.723 C 15.379 2.877,15.497 3.167,15.565 3.367 L 15.687 3.732 15.591 3.827 L 15.495 3.923 15.325 3.721 C 14.966 3.295,14.228 2.790,13.626 2.556 C 12.620 2.167,11.380 2.167,10.374 2.556 C 9.772 2.790,9.034 3.295,8.675 3.721 L 8.505 3.923 8.409 3.827 L 8.313 3.732 8.435 3.367 C 8.503 3.167,8.621 2.877,8.699 2.723 C 8.854 2.413,8.881 2.173,8.785 1.949 C 8.718 1.793,8.541 1.620,8.387 1.563 C 8.234 1.505,7.926 1.512,7.778 1.576 " fill="#0F172A" stroke="none" fill-rule="evenodd"></path></svg>