<svg width="24" height="24" viewBox="0 0 24 24" fill="none" xmlns="http://www.w3.org/2000/svg"><path d="M2.811 2.279 C 2.646 2.318,2.416 2.492,2.343 2.633 C 2.118 3.070,2.349 3.605,2.813 3.722 L 3.000 3.769 3.000 12.000 L 3.000 20.230 2.527 20.247 C 2.107 20.262,2.035 20.275,1.877 20.368 C 1.383 20.657,1.396 21.393,1.900 21.656 L 2.060 21.740 8.530 21.750 L 15.000 21.761 15.000 12.765 L 15.000 3.769 15.187 3.722 C 15.547 3.632,15.802 3.245,15.740 2.882 C 15.705 2.671,15.589 2.501,15.394 2.372 L 15.226 2.260 9.083 2.254 C 5.704 2.250,2.882 2.262,2.811 2.279 M7.830 6.085 C 8.458 6.389,8.329 7.328,7.639 7.476 C 7.385 7.531,6.837 7.531,6.601 7.477 C 5.886 7.312,5.793 6.383,6.460 6.076 C 6.589 6.016,6.720 6.002,7.137 6.001 C 7.584 6.000,7.679 6.012,7.830 6.085 M11.540 6.076 C 12.207 6.383,12.114 7.312,11.399 7.477 C 11.163 7.531,10.615 7.531,10.361 7.476 C 9.672 7.329,9.542 6.395,10.167 6.086 C 10.317 6.011,10.408 6.000,10.860 6.001 C 11.280 6.002,11.411 6.016,11.540 6.076 M16.520 14.261 L 16.520 21.763 19.230 21.751 L 21.940 21.740 22.120 21.634 C 22.605 21.349,22.606 20.651,22.123 20.368 C 21.965 20.275,21.893 20.262,21.473 20.247 L 21.000 20.230 21.000 14.240 L 21.000 8.250 21.159 8.225 C 21.339 8.196,21.570 8.014,21.668 7.825 C 21.749 7.668,21.750 7.333,21.669 7.179 C 21.588 7.024,21.409 6.856,21.267 6.803 C 21.193 6.774,20.377 6.760,18.837 6.760 L 16.520 6.760 16.520 14.261 M7.830 9.085 C 8.458 9.389,8.329 10.328,7.639 10.476 C 7.385 10.531,6.837 10.531,6.601 10.477 C 5.886 10.312,5.793 9.383,6.460 9.076 C 6.589 9.016,6.720 9.002,7.137 9.001 C 7.584 9.000,7.679 9.012,7.830 9.085 M11.540 9.076 C 12.207 9.383,12.114 10.312,11.399 10.477 C 11.163 10.531,10.615 10.531,10.361 10.476 C 9.672 10.329,9.542 9.395,10.167 9.086 C 10.317 9.011,10.408 9.000,10.860 9.001 C 11.280 9.002,11.411 9.016,11.540 9.076 M19.134 10.615 C 19.297 10.704,19.454 10.934,19.499 11.147 C 19.557 11.429,19.334 11.828,19.052 11.946 C 18.737 12.078,18.316 11.953,18.131 11.674 C 17.844 11.240,18.080 10.639,18.583 10.527 C 18.780 10.482,18.938 10.507,19.134 10.615 M7.830 12.085 C 8.458 12.389,8.329 13.328,7.639 13.476 C 7.385 13.531,6.837 13.531,6.601 13.477 C 5.886 13.312,5.793 12.383,6.460 12.076 C 6.589 12.016,6.720 12.002,7.137 12.001 C 7.584 12.000,7.679 12.012,7.830 12.085 M11.540 12.076 C 12.207 12.383,12.114 13.312,11.399 13.477 C 11.163 13.531,10.615 13.531,10.361 13.476 C 9.672 13.329,9.542 12.395,10.167 12.086 C 10.317 12.011,10.408 12.000,10.860 12.001 C 11.280 12.002,11.411 12.016,11.540 12.076 M19.134 13.615 C 19.297 13.704,19.454 13.934,19.499 14.147 C 19.557 14.429,19.334 14.828,19.052 14.946 C 18.737 15.078,18.316 14.953,18.131 14.674 C 17.844 14.240,18.080 13.639,18.583 13.527 C 18.780 13.482,18.938 13.507,19.134 13.615 M19.134 16.615 C 19.297 16.704,19.454 16.934,19.499 17.147 C 19.557 17.429,19.334 17.828,19.052 17.946 C 18.737 18.078,18.316 17.953,18.131 17.674 C 17.844 17.240,18.080 16.639,18.583 16.527 C 18.780 16.482,18.938 16.507,19.134 16.615 M10.787 16.563 C 10.939 16.620,11.072 16.749,11.164 16.928 C 11.234 17.065,11.240 17.177,11.240 18.360 C 11.240 19.424,11.230 19.668,11.178 19.790 C 11.096 19.988,11.010 20.077,10.820 20.165 C 10.673 20.232,10.525 20.238,9.009 20.239 C 7.612 20.240,7.335 20.231,7.210 20.178 C 7.012 20.096,6.923 20.010,6.835 19.820 C 6.769 19.675,6.762 19.536,6.761 18.368 C 6.760 17.176,6.766 17.065,6.836 16.928 C 6.925 16.755,7.059 16.621,7.200 16.565 C 7.341 16.509,10.639 16.507,10.787 16.563 " fill="#0F172A" stroke="none" fill-rule="evenodd"></path></svg>