<svg width="24" height="24" viewBox="0 0 24 24" fill="none" xmlns="http://www.w3.org/2000/svg"><path d="M4.908 2.284 C 4.418 2.355,4.218 2.494,3.306 3.396 C 2.847 3.849,2.393 4.322,2.296 4.447 C 1.306 5.723,1.243 7.498,2.140 8.835 C 3.084 10.243,4.875 10.842,6.480 10.287 C 6.757 10.191,7.181 9.981,7.347 9.856 C 7.503 9.738,7.497 9.738,7.653 9.856 C 7.835 9.993,8.297 10.215,8.600 10.312 C 9.029 10.449,9.316 10.491,9.800 10.488 C 10.510 10.482,11.182 10.285,11.773 9.906 L 12.000 9.761 12.227 9.906 C 13.162 10.504,14.330 10.654,15.400 10.312 C 15.703 10.215,16.165 9.993,16.347 9.856 C 16.503 9.738,16.497 9.738,16.653 9.856 C 16.819 9.981,17.243 10.191,17.520 10.287 C 18.885 10.759,20.370 10.417,21.393 9.393 C 22.574 8.212,22.833 6.441,22.040 4.970 C 21.799 4.523,21.604 4.295,20.694 3.396 C 19.767 2.479,19.589 2.359,19.056 2.281 C 18.715 2.232,5.246 2.234,4.908 2.284 M3.000 15.875 L 3.000 20.230 2.530 20.247 C 2.124 20.261,2.036 20.277,1.886 20.361 C 1.394 20.638,1.394 21.359,1.886 21.640 L 2.060 21.740 12.000 21.740 L 21.940 21.740 22.114 21.640 C 22.606 21.359,22.606 20.638,22.114 20.361 C 21.964 20.277,21.876 20.261,21.470 20.247 L 21.000 20.230 21.000 15.875 C 21.000 13.480,20.991 11.520,20.979 11.520 C 20.968 11.520,20.846 11.566,20.709 11.622 C 20.064 11.886,19.263 12.021,18.540 11.989 C 17.962 11.963,17.554 11.883,17.020 11.692 C 16.800 11.614,16.566 11.549,16.500 11.549 C 16.434 11.549,16.200 11.614,15.980 11.692 C 15.336 11.923,14.993 11.979,14.240 11.979 C 13.421 11.978,12.927 11.879,12.130 11.555 C 12.022 11.512,11.978 11.512,11.870 11.555 C 11.073 11.879,10.579 11.978,9.760 11.979 C 9.007 11.979,8.664 11.923,8.020 11.692 C 7.800 11.614,7.566 11.549,7.500 11.549 C 7.434 11.549,7.200 11.614,6.980 11.692 C 6.446 11.883,6.038 11.963,5.460 11.989 C 4.737 12.021,3.936 11.886,3.291 11.622 C 3.154 11.566,3.032 11.520,3.021 11.520 C 3.009 11.520,3.000 13.480,3.000 15.875 M10.040 13.555 C 10.186 13.635,10.358 13.803,10.434 13.940 C 10.492 14.045,10.502 14.256,10.512 15.615 C 10.525 17.290,10.509 17.482,10.333 17.712 C 10.118 17.995,10.093 17.998,8.280 17.999 C 7.340 17.999,6.601 17.983,6.519 17.960 C 6.342 17.911,6.091 17.659,6.039 17.478 C 6.016 17.398,6.000 16.668,6.001 15.720 C 6.002 14.224,6.007 14.087,6.077 13.935 C 6.166 13.739,6.366 13.576,6.583 13.524 C 6.671 13.503,7.441 13.489,8.340 13.493 C 9.610 13.499,9.961 13.511,10.040 13.555 M17.399 13.523 C 17.635 13.578,17.831 13.732,17.923 13.935 C 17.994 14.091,17.998 14.251,17.999 16.877 C 18.000 19.627,17.999 19.657,17.915 19.830 C 17.864 19.936,17.766 20.048,17.668 20.113 L 17.506 20.220 15.823 20.232 C 14.716 20.240,14.090 20.230,13.994 20.202 C 13.779 20.139,13.577 19.894,13.522 19.631 C 13.491 19.480,13.481 18.607,13.489 16.737 C 13.499 14.307,13.506 14.049,13.568 13.936 C 13.658 13.771,13.895 13.567,14.031 13.537 C 14.091 13.524,14.158 13.507,14.180 13.500 C 14.285 13.465,17.238 13.486,17.399 13.523 " fill="#0F172A" stroke="none" fill-rule="evenodd"></path></svg>