<svg width="24" height="24" viewBox="0 0 24 24" fill="none" xmlns="http://www.w3.org/2000/svg"><path d="M11.820 2.276 C 11.754 2.293,9.616 3.696,7.069 5.394 C 3.717 7.628,2.417 8.516,2.361 8.607 C 2.031 9.150,2.504 9.844,3.131 9.738 C 3.255 9.717,4.306 9.035,7.646 6.809 L 12.000 3.907 16.354 6.809 C 19.694 9.035,20.745 9.717,20.869 9.738 C 21.496 9.844,21.969 9.150,21.639 8.607 C 21.583 8.516,20.283 7.630,16.911 5.384 C 12.018 2.125,12.137 2.198,11.820 2.276 M11.560 5.723 C 11.340 5.822,11.103 6.045,10.987 6.260 C 10.855 6.507,10.865 6.990,11.009 7.265 C 11.126 7.488,11.281 7.637,11.535 7.770 C 11.767 7.891,12.233 7.891,12.465 7.770 C 12.719 7.637,12.874 7.488,12.991 7.265 C 13.135 6.990,13.145 6.507,13.013 6.260 C 12.805 5.873,12.426 5.642,12.000 5.642 C 11.824 5.642,11.682 5.668,11.560 5.723 M10.500 9.024 C 9.055 9.080,7.709 9.178,6.420 9.322 C 5.663 9.407,4.396 9.585,4.260 9.625 C 4.115 9.669,3.921 9.842,3.840 10.001 C 3.761 10.154,3.760 10.244,3.760 15.194 L 3.760 20.230 3.268 20.247 C 2.840 20.261,2.757 20.275,2.626 20.356 C 2.386 20.504,2.267 20.719,2.267 21.000 C 2.267 21.281,2.386 21.495,2.627 21.645 L 2.780 21.740 12.003 21.740 L 21.226 21.740 21.388 21.633 C 21.627 21.474,21.733 21.279,21.733 20.997 C 21.733 20.719,21.612 20.504,21.374 20.356 C 21.243 20.275,21.160 20.261,20.732 20.247 L 20.240 20.230 20.240 15.194 C 20.240 10.244,20.239 10.154,20.160 10.001 C 20.079 9.842,19.885 9.669,19.740 9.625 C 19.604 9.585,18.338 9.407,17.580 9.322 C 16.707 9.225,15.653 9.135,14.740 9.079 C 14.040 9.037,11.140 8.999,10.500 9.024 M8.478 12.039 C 8.659 12.091,8.911 12.342,8.960 12.519 C 8.985 12.606,9.000 13.992,9.000 16.157 C 9.000 19.640,9.000 19.655,8.915 19.830 C 8.760 20.150,8.340 20.319,7.987 20.202 C 7.778 20.133,7.577 19.891,7.524 19.643 C 7.465 19.366,7.464 12.858,7.523 12.601 C 7.625 12.158,8.040 11.914,8.478 12.039 M12.271 12.062 C 12.468 12.144,12.595 12.266,12.684 12.460 C 12.754 12.612,12.758 12.802,12.758 16.120 C 12.758 19.442,12.754 19.628,12.684 19.780 C 12.547 20.075,12.303 20.240,12.000 20.240 C 11.697 20.240,11.453 20.075,11.316 19.780 C 11.246 19.628,11.242 19.442,11.241 16.129 C 11.240 13.067,11.248 12.619,11.302 12.489 C 11.384 12.292,11.506 12.165,11.700 12.076 C 11.897 11.985,12.076 11.981,12.271 12.062 M16.065 12.077 C 16.275 12.172,16.426 12.371,16.480 12.622 C 16.508 12.755,16.519 13.941,16.511 16.240 C 16.500 19.569,16.498 19.664,16.420 19.817 C 16.376 19.904,16.271 20.030,16.186 20.097 C 16.049 20.207,16.004 20.220,15.763 20.220 C 15.428 20.220,15.214 20.097,15.085 19.830 C 15.000 19.655,15.000 19.640,15.000 16.157 C 15.000 13.992,15.015 12.606,15.040 12.519 C 15.086 12.351,15.339 12.091,15.503 12.042 C 15.694 11.985,15.889 11.997,16.065 12.077 " fill="#0F172A" stroke="none" fill-rule="evenodd"></path></svg>