<svg width="24" height="24" viewBox="0 0 24 24" fill="none" xmlns="http://www.w3.org/2000/svg"><path d="M4.420 2.259 C 4.398 2.267,4.331 2.284,4.271 2.297 C 4.124 2.329,3.881 2.548,3.814 2.708 C 3.691 3.002,3.771 3.336,4.013 3.549 C 4.093 3.619,4.231 3.698,4.319 3.725 L 4.480 3.773 4.480 12.001 L 4.480 20.230 4.010 20.248 C 3.514 20.266,3.380 20.307,3.212 20.487 C 2.856 20.868,2.980 21.463,3.460 21.684 C 3.614 21.755,3.937 21.758,12.000 21.758 C 20.063 21.758,20.386 21.755,20.540 21.684 C 20.920 21.509,21.092 21.097,20.938 20.729 C 20.786 20.366,20.598 20.271,19.990 20.248 L 19.520 20.230 19.520 12.001 L 19.520 3.773 19.681 3.725 C 20.007 3.627,20.240 3.327,20.240 3.004 C 20.240 2.717,20.091 2.476,19.820 2.326 C 19.709 2.265,19.098 2.259,12.080 2.253 C 7.889 2.249,4.442 2.252,4.420 2.259 M10.830 6.085 C 11.306 6.315,11.377 6.983,10.962 7.332 C 10.774 7.491,10.489 7.529,9.606 7.514 C 8.854 7.501,8.812 7.496,8.646 7.400 C 8.216 7.154,8.134 6.542,8.486 6.212 C 8.690 6.022,8.802 6.003,9.757 6.002 C 10.592 6.000,10.667 6.006,10.830 6.085 M15.271 6.062 C 15.575 6.189,15.731 6.422,15.731 6.746 C 15.731 7.020,15.590 7.265,15.354 7.400 C 15.188 7.496,15.146 7.501,14.394 7.514 C 13.511 7.529,13.226 7.491,13.038 7.332 C 12.625 6.984,12.693 6.320,13.167 6.086 C 13.328 6.006,13.401 6.000,14.231 6.000 C 14.945 6.000,15.152 6.012,15.271 6.062 M10.830 9.085 C 11.306 9.315,11.377 9.983,10.962 10.332 C 10.774 10.491,10.489 10.529,9.606 10.514 C 8.854 10.501,8.812 10.496,8.646 10.400 C 8.216 10.154,8.134 9.542,8.486 9.212 C 8.690 9.022,8.802 9.003,9.757 9.002 C 10.592 9.000,10.667 9.006,10.830 9.085 M15.271 9.062 C 15.575 9.189,15.731 9.422,15.731 9.746 C 15.731 10.020,15.590 10.265,15.354 10.400 C 15.188 10.496,15.146 10.501,14.394 10.514 C 13.511 10.529,13.226 10.491,13.038 10.332 C 12.625 9.984,12.693 9.320,13.167 9.086 C 13.328 9.006,13.401 9.000,14.231 9.000 C 14.945 9.000,15.152 9.012,15.271 9.062 M10.830 12.085 C 11.306 12.315,11.377 12.983,10.962 13.332 C 10.774 13.491,10.489 13.529,9.606 13.514 C 8.854 13.501,8.812 13.496,8.646 13.400 C 8.216 13.154,8.134 12.542,8.486 12.212 C 8.690 12.022,8.802 12.003,9.757 12.002 C 10.592 12.000,10.667 12.006,10.830 12.085 M15.271 12.062 C 15.575 12.189,15.731 12.422,15.731 12.746 C 15.731 13.020,15.590 13.265,15.354 13.400 C 15.188 13.496,15.146 13.501,14.394 13.514 C 13.511 13.529,13.226 13.491,13.038 13.332 C 12.625 12.984,12.693 12.320,13.167 12.086 C 13.328 12.006,13.401 12.000,14.231 12.000 C 14.945 12.000,15.152 12.012,15.271 12.062 M14.598 16.599 C 14.783 16.693,14.905 16.839,14.962 17.035 C 14.990 17.128,15.000 17.639,14.992 18.463 L 14.980 19.746 14.873 19.908 C 14.808 20.006,14.696 20.104,14.590 20.155 C 14.417 20.239,14.379 20.240,12.000 20.240 C 9.621 20.240,9.583 20.239,9.410 20.155 C 9.304 20.104,9.192 20.006,9.127 19.908 L 9.020 19.746 9.008 18.443 C 8.996 17.037,9.010 16.914,9.211 16.731 C 9.447 16.516,9.349 16.523,11.992 16.522 C 14.354 16.520,14.449 16.523,14.598 16.599 " fill="#0F172A" stroke="none" fill-rule="evenodd"></path></svg>