<svg width="24" height="24" viewBox="0 0 24 24" fill="none" xmlns="http://www.w3.org/2000/svg"><path d="M8.533 2.250 C 7.978 2.814,7.901 2.951,7.901 3.380 C 7.901 3.741,7.978 3.936,8.214 4.171 C 8.438 4.395,8.615 4.460,9.000 4.460 C 9.385 4.460,9.562 4.395,9.786 4.171 C 10.022 3.936,10.099 3.741,10.099 3.380 C 10.099 3.121,10.081 3.026,10.004 2.880 C 9.921 2.722,9.064 1.800,9.000 1.800 C 8.987 1.800,8.776 2.002,8.533 2.250 M11.533 2.250 C 10.978 2.814,10.901 2.951,10.901 3.380 C 10.901 3.741,10.978 3.936,11.214 4.171 C 11.438 4.395,11.615 4.460,12.000 4.460 C 12.385 4.460,12.562 4.395,12.786 4.171 C 13.022 3.936,13.099 3.741,13.099 3.380 C 13.099 3.121,13.081 3.026,13.004 2.880 C 12.921 2.722,12.064 1.800,12.000 1.800 C 11.987 1.800,11.776 2.002,11.533 2.250 M14.515 2.270 C 13.960 2.839,13.900 2.947,13.900 3.380 C 13.900 3.660,13.915 3.727,14.020 3.917 C 14.221 4.280,14.576 4.488,15.000 4.490 C 15.430 4.492,15.800 4.264,16.009 3.869 C 16.130 3.639,16.137 3.135,16.022 2.900 C 15.951 2.755,15.064 1.800,15.000 1.800 C 14.985 1.800,14.767 2.011,14.515 2.270 M8.720 6.064 C 8.643 6.097,8.538 6.164,8.486 6.212 C 8.298 6.388,8.265 6.508,8.248 7.085 L 8.231 7.631 7.946 7.658 C 6.853 7.762,5.966 8.390,5.519 9.376 C 5.329 9.796,5.279 10.075,5.252 10.870 C 5.231 11.527,5.235 11.600,5.293 11.600 C 5.329 11.600,5.732 11.565,6.189 11.521 C 10.008 11.159,13.992 11.159,17.811 11.521 C 18.268 11.565,18.671 11.600,18.707 11.600 C 18.765 11.600,18.769 11.527,18.748 10.870 C 18.721 10.075,18.671 9.796,18.481 9.376 C 18.034 8.390,17.147 7.762,16.054 7.658 L 15.769 7.631 15.752 7.085 C 15.735 6.508,15.702 6.388,15.513 6.212 C 15.391 6.097,15.155 6.000,15.000 6.000 C 14.845 6.000,14.609 6.097,14.487 6.212 C 14.301 6.385,14.266 6.511,14.247 7.055 L 14.230 7.570 13.989 7.545 C 13.857 7.531,13.528 7.520,13.259 7.520 L 12.770 7.520 12.752 7.030 C 12.730 6.400,12.638 6.215,12.271 6.062 C 11.922 5.916,11.514 6.071,11.329 6.420 C 11.284 6.504,11.260 6.687,11.248 7.030 L 11.230 7.520 10.741 7.520 C 10.472 7.520,10.143 7.531,10.011 7.545 L 9.770 7.570 9.753 7.055 C 9.740 6.687,9.717 6.506,9.671 6.420 C 9.485 6.070,9.067 5.914,8.720 6.064 M10.160 12.785 C 8.666 12.848,6.933 12.997,5.520 13.183 C 4.523 13.314,4.294 13.368,3.892 13.562 C 3.300 13.848,2.851 14.300,2.562 14.900 C 2.368 15.302,2.290 15.625,2.256 16.164 L 2.229 16.588 2.484 16.551 C 2.856 16.497,3.603 16.542,3.980 16.641 C 4.156 16.688,4.507 16.814,4.761 16.921 C 5.336 17.164,5.522 17.207,6.000 17.207 C 6.478 17.207,6.665 17.164,7.239 16.921 C 7.988 16.604,8.273 16.543,9.000 16.543 C 9.727 16.543,10.012 16.604,10.761 16.921 C 11.335 17.164,11.522 17.207,12.000 17.207 C 12.478 17.207,12.665 17.164,13.239 16.921 C 13.988 16.604,14.273 16.543,15.000 16.543 C 15.727 16.543,16.012 16.604,16.761 16.921 C 17.335 17.164,17.522 17.207,18.000 17.207 C 18.478 17.207,18.664 17.164,19.239 16.921 C 19.493 16.814,19.844 16.688,20.020 16.641 C 20.397 16.542,21.144 16.497,21.516 16.551 L 21.771 16.588 21.744 16.164 C 21.710 15.626,21.632 15.303,21.439 14.900 C 21.071 14.132,20.324 13.526,19.520 13.344 C 18.912 13.207,16.781 12.967,15.200 12.857 C 14.351 12.799,10.980 12.750,10.160 12.785 M2.410 18.084 L 2.240 18.125 2.240 19.392 C 2.240 20.090,2.259 20.777,2.282 20.920 C 2.392 21.609,2.900 22.198,3.564 22.404 C 3.799 22.478,4.071 22.480,12.000 22.480 C 19.929 22.480,20.201 22.478,20.436 22.404 C 21.110 22.195,21.618 21.599,21.718 20.900 C 21.740 20.746,21.759 20.059,21.759 19.373 L 21.760 18.126 21.530 18.078 C 21.259 18.021,20.489 18.048,20.280 18.122 C 20.203 18.149,19.960 18.248,19.740 18.343 C 19.045 18.641,18.760 18.700,18.000 18.700 C 17.240 18.700,16.953 18.641,16.260 18.342 C 15.622 18.067,15.590 18.060,15.000 18.060 C 14.410 18.060,14.378 18.067,13.740 18.342 C 13.047 18.641,12.760 18.700,12.000 18.700 C 11.240 18.700,10.953 18.641,10.260 18.342 C 9.622 18.067,9.590 18.060,9.000 18.060 C 8.410 18.060,8.378 18.067,7.740 18.342 C 7.047 18.641,6.760 18.700,6.000 18.700 C 5.240 18.700,4.955 18.641,4.260 18.343 C 4.040 18.248,3.797 18.149,3.720 18.121 C 3.540 18.057,2.631 18.031,2.410 18.084 " fill="#0F172A" stroke="none" fill-rule="evenodd"></path></svg>