<svg width="24" height="24" viewBox="0 0 24 24" fill="none" xmlns="http://www.w3.org/2000/svg"><path d="M9.900 1.545 C 8.145 1.634,6.313 1.806,5.882 1.923 C 4.874 2.197,4.108 2.999,3.840 4.061 C 3.760 4.379,3.759 4.462,3.769 12.241 L 3.780 20.100 3.892 20.420 C 4.060 20.897,4.290 21.258,4.657 21.620 C 5.182 22.137,5.722 22.394,6.471 22.479 C 6.942 22.533,17.058 22.533,17.529 22.479 C 18.278 22.394,18.818 22.137,19.343 21.620 C 19.710 21.258,19.941 20.896,20.108 20.420 L 20.220 20.100 20.231 12.241 C 20.241 4.462,20.240 4.379,20.160 4.061 C 19.893 3.001,19.124 2.196,18.118 1.923 C 17.799 1.837,16.755 1.720,15.360 1.616 C 14.554 1.556,10.684 1.506,9.900 1.545 M16.030 6.062 C 16.221 6.141,16.311 6.225,16.407 6.414 C 16.477 6.551,16.484 6.635,16.473 7.180 L 16.460 7.793 16.339 7.942 C 16.272 8.024,16.156 8.125,16.080 8.166 C 15.948 8.237,15.763 8.240,12.009 8.240 C 7.734 8.240,7.933 8.250,7.713 8.015 C 7.546 7.837,7.520 7.716,7.520 7.116 C 7.520 6.526,7.561 6.360,7.747 6.192 C 7.962 5.998,7.836 6.003,11.991 6.002 C 15.405 6.000,15.901 6.008,16.030 6.062 M8.699 10.657 C 9.140 10.993,9.069 11.708,8.571 11.928 C 8.056 12.156,7.520 11.810,7.520 11.249 C 7.520 11.010,7.580 10.869,7.746 10.715 C 7.935 10.542,8.006 10.517,8.284 10.530 C 8.503 10.540,8.575 10.562,8.699 10.657 M11.137 10.616 C 11.359 10.746,11.486 10.979,11.486 11.257 C 11.486 11.831,10.933 12.169,10.410 11.915 C 9.865 11.652,9.871 10.876,10.420 10.586 C 10.607 10.488,10.942 10.502,11.137 10.616 M13.547 10.563 C 13.923 10.705,14.103 11.191,13.925 11.580 C 13.837 11.770,13.748 11.856,13.550 11.938 C 13.290 12.047,12.950 11.992,12.747 11.808 C 12.549 11.629,12.462 11.238,12.563 10.973 C 12.619 10.824,12.791 10.643,12.940 10.577 C 13.086 10.512,13.394 10.505,13.547 10.563 M16.137 10.616 C 16.360 10.747,16.491 10.987,16.489 11.260 C 16.483 11.828,15.931 12.167,15.417 11.919 C 14.868 11.653,14.870 10.877,15.420 10.586 C 15.607 10.488,15.942 10.502,16.137 10.616 M8.550 12.822 C 8.748 12.904,8.837 12.990,8.925 13.180 C 9.157 13.685,8.806 14.248,8.260 14.248 C 7.960 14.248,7.662 14.051,7.562 13.787 C 7.503 13.631,7.509 13.342,7.575 13.189 C 7.725 12.836,8.177 12.666,8.550 12.822 M11.189 12.907 C 11.407 13.083,11.486 13.239,11.486 13.495 C 11.486 13.856,11.275 14.133,10.934 14.220 C 10.268 14.389,9.752 13.660,10.131 13.087 C 10.358 12.744,10.878 12.655,11.189 12.907 M13.550 12.822 C 13.748 12.904,13.837 12.990,13.925 13.180 C 14.210 13.801,13.643 14.419,12.987 14.202 C 12.802 14.141,12.572 13.884,12.537 13.700 C 12.418 13.062,12.973 12.580,13.550 12.822 M16.189 12.907 C 16.405 13.081,16.486 13.241,16.488 13.495 C 16.491 13.777,16.362 14.012,16.129 14.148 C 15.983 14.234,15.920 14.247,15.703 14.233 C 15.501 14.220,15.419 14.194,15.300 14.103 C 14.868 13.774,14.927 13.087,15.407 12.844 C 15.660 12.715,15.984 12.741,16.189 12.907 M8.651 15.119 C 8.892 15.284,8.980 15.457,8.980 15.763 C 8.980 16.005,8.967 16.048,8.856 16.186 C 8.679 16.405,8.502 16.497,8.262 16.497 C 7.842 16.497,7.520 16.179,7.520 15.765 C 7.520 15.547,7.612 15.313,7.747 15.192 C 7.979 14.982,8.401 14.948,8.651 15.119 M11.065 15.077 C 11.235 15.154,11.409 15.347,11.460 15.517 C 11.547 15.803,11.428 16.198,11.207 16.355 C 10.795 16.649,10.235 16.485,10.057 16.019 C 9.819 15.394,10.455 14.800,11.065 15.077 M13.673 15.130 C 14.017 15.358,14.105 15.878,13.852 16.190 C 13.679 16.405,13.501 16.497,13.262 16.497 C 12.842 16.497,12.520 16.179,12.520 15.765 C 12.520 15.547,12.612 15.313,12.747 15.192 C 12.986 14.976,13.398 14.948,13.673 15.130 M16.030 15.062 C 16.220 15.141,16.311 15.225,16.404 15.408 C 16.474 15.545,16.480 15.661,16.480 16.891 L 16.480 18.224 16.365 18.405 C 16.049 18.904,15.322 18.846,15.075 18.302 C 15.009 18.156,15.002 18.016,15.001 16.889 C 15.000 15.848,15.010 15.612,15.062 15.489 C 15.144 15.292,15.266 15.165,15.460 15.076 C 15.656 14.985,15.836 14.981,16.030 15.062 M8.616 17.355 C 8.679 17.391,8.787 17.489,8.856 17.574 C 8.967 17.712,8.980 17.755,8.980 17.997 C 8.980 18.216,8.962 18.292,8.884 18.407 C 8.627 18.782,8.128 18.866,7.781 18.594 C 7.522 18.390,7.440 17.933,7.608 17.633 C 7.802 17.289,8.271 17.159,8.616 17.355 M11.139 17.375 C 11.412 17.522,11.559 17.920,11.460 18.243 C 11.376 18.520,11.053 18.757,10.758 18.759 C 10.421 18.761,10.047 18.434,10.010 18.103 C 9.972 17.760,10.219 17.361,10.511 17.297 C 10.571 17.284,10.638 17.267,10.660 17.260 C 10.741 17.233,10.984 17.292,11.139 17.375 M13.600 17.342 C 13.737 17.412,13.906 17.597,13.957 17.733 C 14.074 18.041,13.949 18.434,13.673 18.625 C 13.536 18.720,13.467 18.739,13.262 18.739 C 13.058 18.740,12.985 18.720,12.848 18.630 C 12.530 18.420,12.421 17.967,12.608 17.633 C 12.797 17.298,13.253 17.164,13.600 17.342 " fill="#0F172A" stroke="none" fill-rule="evenodd"></path></svg>