<svg width="24" height="24" viewBox="0 0 24 24" fill="none" xmlns="http://www.w3.org/2000/svg"><path d="M6.660 2.260 C 6.638 2.267,6.572 2.284,6.513 2.296 C 6.358 2.331,6.160 2.512,6.075 2.698 C 6.012 2.838,6.002 2.971,6.001 3.690 L 6.000 4.520 5.430 4.521 C 4.748 4.522,4.440 4.579,3.991 4.792 C 3.047 5.237,2.443 6.048,2.281 7.087 C 2.211 7.533,2.242 19.199,2.313 19.420 C 2.457 19.865,2.588 20.156,2.762 20.416 C 3.218 21.096,3.900 21.540,4.735 21.700 C 5.204 21.790,18.796 21.790,19.265 21.700 C 20.539 21.457,21.457 20.539,21.700 19.265 C 21.752 18.997,21.760 18.127,21.760 13.146 C 21.760 9.376,21.745 7.249,21.718 7.080 C 21.534 5.912,20.787 5.035,19.639 4.638 C 19.422 4.564,19.267 4.546,18.690 4.530 L 18.000 4.511 18.000 3.694 C 18.000 2.823,17.976 2.688,17.788 2.487 C 17.458 2.134,16.846 2.216,16.600 2.646 C 16.503 2.814,16.500 2.850,16.487 3.670 L 16.473 4.520 12.000 4.520 L 7.527 4.520 7.513 3.670 C 7.500 2.834,7.498 2.817,7.394 2.640 C 7.332 2.533,7.224 2.424,7.134 2.374 C 6.984 2.292,6.741 2.233,6.660 2.260 M19.369 9.888 C 19.663 10.025,19.975 10.337,20.112 10.631 L 20.220 10.860 20.220 15.000 L 20.220 19.140 20.116 19.360 C 19.961 19.686,19.718 19.936,19.409 20.089 L 19.142 20.220 12.000 20.220 L 4.858 20.220 4.591 20.089 C 4.282 19.936,4.039 19.686,3.884 19.360 L 3.780 19.140 3.780 15.000 L 3.780 10.860 3.871 10.663 C 4.054 10.266,4.373 9.972,4.772 9.834 C 4.970 9.766,5.329 9.763,12.060 9.771 L 19.140 9.780 19.369 9.888 " fill="#0F172A" stroke="none" fill-rule="evenodd"></path></svg>