<svg width="24" height="24" viewBox="0 0 24 24" fill="none" xmlns="http://www.w3.org/2000/svg"><path d="M6.660 2.260 C 6.638 2.267,6.572 2.284,6.513 2.296 C 6.358 2.331,6.160 2.512,6.075 2.698 C 6.012 2.838,6.002 2.971,6.001 3.690 L 6.000 4.520 5.430 4.521 C 4.727 4.522,4.421 4.583,3.943 4.817 C 3.135 5.213,2.602 5.862,2.347 6.760 C 2.261 7.059,2.261 7.078,2.249 12.860 C 2.241 16.615,2.251 18.794,2.277 19.040 C 2.430 20.470,3.502 21.558,4.919 21.720 C 5.379 21.773,18.621 21.773,19.081 21.720 C 20.498 21.558,21.570 20.470,21.723 19.040 C 21.749 18.794,21.759 16.615,21.751 12.860 L 21.739 7.060 21.652 6.755 C 21.361 5.726,20.658 4.988,19.640 4.638 C 19.423 4.564,19.266 4.546,18.690 4.530 L 18.000 4.511 18.000 3.694 C 18.000 2.823,17.976 2.688,17.788 2.487 C 17.476 2.152,16.869 2.211,16.628 2.598 C 16.546 2.730,16.539 2.802,16.520 3.620 L 16.500 4.500 12.000 4.500 L 7.500 4.500 7.480 3.620 C 7.461 2.802,7.454 2.730,7.372 2.598 C 7.245 2.394,6.838 2.201,6.660 2.260 M19.406 9.910 C 19.719 10.064,19.965 10.315,20.114 10.633 L 20.220 10.860 20.220 15.000 L 20.220 19.140 20.114 19.367 C 19.965 19.685,19.719 19.936,19.406 20.090 L 19.142 20.220 12.000 20.220 L 4.858 20.220 4.594 20.090 C 4.281 19.936,4.035 19.685,3.886 19.367 L 3.780 19.140 3.780 15.000 L 3.780 10.860 3.885 10.635 C 4.072 10.238,4.402 9.946,4.811 9.818 C 4.949 9.775,6.284 9.766,12.061 9.772 L 19.142 9.780 19.406 9.910 M11.698 12.075 C 11.368 12.225,11.186 12.580,11.273 12.905 C 11.339 13.153,11.423 13.267,11.627 13.386 C 11.752 13.459,11.860 13.489,12.000 13.489 C 12.224 13.489,12.505 13.349,12.614 13.184 C 12.734 13.001,12.780 12.745,12.726 12.565 C 12.631 12.248,12.314 12.002,12.000 12.002 C 11.923 12.002,11.787 12.035,11.698 12.075 M13.961 12.063 C 13.676 12.187,13.520 12.434,13.520 12.760 C 13.520 13.184,13.826 13.480,14.264 13.480 C 14.570 13.480,14.820 13.313,14.938 13.030 C 15.187 12.436,14.551 11.808,13.961 12.063 M16.167 12.084 C 15.692 12.325,15.625 12.985,16.039 13.333 C 16.376 13.616,16.953 13.486,17.160 13.079 C 17.479 12.454,16.792 11.766,16.167 12.084 M7.420 14.260 C 7.398 14.267,7.331 14.284,7.271 14.297 C 7.211 14.310,7.095 14.379,7.015 14.450 C 6.497 14.904,6.811 15.731,7.500 15.731 C 7.727 15.731,7.889 15.661,8.047 15.494 C 8.454 15.064,8.197 14.363,7.600 14.269 C 7.523 14.256,7.442 14.252,7.420 14.260 M9.660 14.260 C 9.638 14.267,9.572 14.284,9.513 14.296 C 9.263 14.351,9.003 14.705,9.001 14.991 C 9.000 15.153,9.095 15.388,9.212 15.513 C 9.534 15.858,10.144 15.787,10.384 15.377 C 10.585 15.034,10.466 14.557,10.134 14.374 C 9.984 14.292,9.741 14.233,9.660 14.260 M11.815 14.277 C 11.485 14.358,11.267 14.648,11.267 15.003 C 11.267 15.756,12.244 16.021,12.642 15.377 C 12.841 15.055,12.730 14.591,12.405 14.381 C 12.240 14.274,11.999 14.232,11.815 14.277 M14.094 14.278 C 13.603 14.395,13.363 14.945,13.616 15.377 C 13.856 15.787,14.466 15.858,14.788 15.513 C 15.200 15.072,14.955 14.359,14.360 14.270 C 14.283 14.258,14.163 14.262,14.094 14.278 M16.420 14.260 C 16.398 14.267,16.331 14.284,16.271 14.297 C 16.211 14.310,16.095 14.379,16.015 14.450 C 15.497 14.904,15.811 15.731,16.500 15.731 C 16.727 15.731,16.889 15.661,17.047 15.494 C 17.454 15.064,17.197 14.363,16.600 14.269 C 16.523 14.256,16.442 14.252,16.420 14.260 M7.200 16.565 C 6.635 16.790,6.622 17.650,7.180 17.920 C 7.670 18.157,8.240 17.794,8.240 17.246 C 8.240 16.961,8.039 16.658,7.787 16.563 C 7.649 16.510,7.334 16.511,7.200 16.565 M9.381 16.611 C 9.197 16.715,9.053 16.911,9.017 17.104 C 8.923 17.605,9.395 18.077,9.896 17.983 C 10.447 17.880,10.675 17.160,10.287 16.745 C 10.064 16.506,9.670 16.448,9.381 16.611 M11.619 16.617 C 11.212 16.861,11.144 17.468,11.487 17.788 C 11.702 17.989,12.008 18.048,12.271 17.938 C 12.698 17.760,12.862 17.284,12.636 16.882 C 12.440 16.532,11.966 16.409,11.619 16.617 M13.940 16.567 C 13.813 16.637,13.638 16.811,13.576 16.928 C 13.545 16.987,13.520 17.131,13.521 17.248 C 13.523 17.850,14.155 18.198,14.645 17.868 C 15.274 17.444,14.997 16.520,14.240 16.522 C 14.119 16.522,13.984 16.542,13.940 16.567 " fill="#0F172A" stroke="none" fill-rule="evenodd"></path></svg>