<svg width="24" height="24" viewBox="0 0 24 24" fill="none" xmlns="http://www.w3.org/2000/svg"><path d="M10.000 3.045 C 9.017 3.084,8.706 3.144,8.200 3.391 C 7.885 3.545,7.761 3.635,7.477 3.918 C 7.190 4.203,7.051 4.393,6.638 5.060 C 6.366 5.500,6.072 5.937,5.986 6.030 C 5.715 6.324,5.433 6.431,4.574 6.564 C 4.159 6.627,3.684 6.723,3.518 6.776 C 2.767 7.017,2.135 7.576,1.797 8.300 C 1.503 8.929,1.516 8.669,1.529 13.920 C 1.540 18.362,1.544 18.632,1.614 18.838 C 1.964 19.873,2.703 20.599,3.702 20.888 L 4.020 20.980 12.000 20.980 L 19.980 20.980 20.298 20.888 C 21.148 20.642,21.795 20.097,22.185 19.300 C 22.493 18.669,22.479 18.936,22.479 13.788 C 22.480 8.669,22.493 8.923,22.202 8.300 C 21.865 7.576,21.233 7.017,20.482 6.776 C 20.316 6.723,19.841 6.627,19.426 6.564 C 18.567 6.431,18.285 6.325,18.014 6.030 C 17.927 5.937,17.634 5.500,17.361 5.060 C 16.950 4.395,16.808 4.202,16.523 3.918 C 16.238 3.635,16.115 3.545,15.800 3.391 C 15.589 3.288,15.287 3.178,15.120 3.143 C 14.527 3.019,11.912 2.969,10.000 3.045 M13.008 7.603 C 14.077 7.816,15.001 8.319,15.753 9.097 C 16.179 9.539,16.424 9.878,16.677 10.374 C 17.050 11.107,17.240 11.903,17.240 12.735 C 17.239 14.800,16.088 16.617,14.220 17.504 C 11.703 18.699,8.631 17.656,7.348 15.171 C 6.704 13.924,6.582 12.483,7.006 11.145 C 7.253 10.366,7.643 9.723,8.247 9.097 C 9.486 7.814,11.264 7.257,13.008 7.603 M11.540 9.026 C 11.187 9.081,10.722 9.215,10.460 9.336 C 9.274 9.884,8.461 10.974,8.283 12.255 C 8.225 12.676,8.229 12.925,8.301 13.339 C 8.444 14.159,8.779 14.819,9.339 15.382 C 10.066 16.112,10.978 16.492,12.000 16.492 C 13.453 16.492,14.722 15.696,15.360 14.386 C 15.647 13.798,15.738 13.390,15.734 12.720 C 15.730 12.116,15.660 11.779,15.429 11.243 C 14.985 10.216,14.002 9.384,12.920 9.119 C 12.587 9.038,11.800 8.984,11.540 9.026 M19.051 9.815 C 19.446 9.984,19.614 10.546,19.379 10.907 C 19.095 11.342,18.415 11.343,18.127 10.908 C 17.975 10.677,17.974 10.323,18.127 10.093 C 18.317 9.806,18.735 9.680,19.051 9.815 " fill="#0F172A" stroke="none" fill-rule="evenodd"></path></svg>