<svg width="24" height="24" viewBox="0 0 24 24" fill="none" xmlns="http://www.w3.org/2000/svg"><path d="M5.503 3.042 C 4.487 3.214,3.556 3.976,3.202 4.925 C 2.994 5.481,3.001 5.233,3.001 11.992 C 3.000 18.878,2.989 18.550,3.234 19.151 C 3.521 19.857,4.143 20.479,4.849 20.766 C 5.449 21.011,5.123 21.000,12.000 21.000 C 18.876 21.000,18.551 21.011,19.150 20.767 C 19.850 20.482,20.482 19.850,20.767 19.150 C 21.011 18.551,21.000 18.876,21.000 12.000 C 21.000 5.123,21.011 5.449,20.766 4.849 C 20.499 4.193,19.964 3.633,19.296 3.312 C 18.639 2.996,19.291 3.023,12.120 3.015 C 8.589 3.012,5.611 3.024,5.503 3.042 M16.790 6.822 C 16.988 6.904,17.077 6.990,17.165 7.180 C 17.235 7.332,17.238 7.564,17.239 11.991 C 17.240 16.978,17.247 16.790,17.048 17.014 C 16.946 17.130,16.680 17.238,16.500 17.238 C 16.320 17.238,16.054 17.130,15.952 17.014 C 15.753 16.790,15.760 16.977,15.760 12.000 C 15.760 7.023,15.753 7.210,15.952 6.986 C 16.131 6.783,16.517 6.708,16.790 6.822 M13.913 9.130 C 14.006 9.192,14.105 9.306,14.155 9.410 C 14.240 9.585,14.240 9.599,14.239 13.123 C 14.238 16.469,14.234 16.669,14.165 16.820 C 14.077 17.010,13.988 17.096,13.790 17.178 C 13.382 17.349,12.917 17.136,12.798 16.725 C 12.770 16.627,12.760 15.423,12.768 13.037 L 12.780 9.494 12.887 9.333 C 13.109 8.997,13.573 8.906,13.913 9.130 M10.840 11.342 C 10.977 11.412,11.146 11.597,11.197 11.733 C 11.226 11.808,11.240 12.647,11.239 14.253 C 11.238 16.503,11.233 16.670,11.165 16.820 C 11.077 17.010,10.988 17.096,10.790 17.178 C 10.602 17.257,10.398 17.257,10.210 17.178 C 10.012 17.096,9.923 17.010,9.835 16.820 C 9.767 16.670,9.762 16.503,9.761 14.249 C 9.760 12.312,9.771 11.812,9.814 11.708 C 9.881 11.548,10.124 11.329,10.271 11.297 C 10.331 11.284,10.398 11.267,10.420 11.260 C 10.485 11.238,10.732 11.287,10.840 11.342 M7.787 13.563 C 7.939 13.620,8.072 13.749,8.164 13.928 C 8.234 14.065,8.240 14.176,8.239 15.368 C 8.238 16.536,8.231 16.675,8.165 16.820 C 8.077 17.010,7.988 17.096,7.790 17.178 C 7.602 17.257,7.398 17.257,7.210 17.178 C 7.012 17.096,6.923 17.010,6.835 16.820 C 6.769 16.675,6.762 16.536,6.761 15.368 C 6.760 14.176,6.766 14.065,6.836 13.928 C 6.925 13.755,7.059 13.621,7.200 13.565 C 7.334 13.511,7.649 13.510,7.787 13.563 " fill="#0F172A" stroke="none" fill-rule="evenodd"></path></svg>