<svg width="24" height="24" viewBox="0 0 24 24" fill="none" xmlns="http://www.w3.org/2000/svg"><path d="M18.040 2.283 C 17.680 2.347,17.343 2.530,17.055 2.817 C 16.740 3.133,16.576 3.466,16.517 3.911 C 16.491 4.114,16.481 6.968,16.488 12.220 L 16.500 20.220 16.586 20.443 C 16.719 20.793,16.783 20.898,17.018 21.151 C 17.461 21.629,17.922 21.777,18.880 21.750 C 19.416 21.735,19.536 21.719,19.766 21.633 C 20.271 21.443,20.681 21.040,20.888 20.529 L 20.980 20.300 20.980 12.000 L 20.980 3.700 20.886 3.467 C 20.682 2.962,20.261 2.555,19.740 2.361 C 19.538 2.285,19.402 2.269,18.880 2.258 C 18.539 2.250,18.161 2.262,18.040 2.283 M11.123 6.824 C 10.510 6.988,9.983 7.522,9.822 8.141 C 9.767 8.348,9.760 9.094,9.760 14.258 C 9.761 19.042,9.771 20.177,9.814 20.340 C 10.008 21.064,10.618 21.614,11.344 21.719 C 11.697 21.770,12.303 21.770,12.656 21.719 C 13.382 21.614,13.992 21.064,14.186 20.340 C 14.229 20.177,14.239 19.042,14.240 14.258 C 14.240 9.094,14.233 8.348,14.178 8.141 C 14.015 7.513,13.487 6.985,12.859 6.822 C 12.544 6.739,11.432 6.741,11.123 6.824 M4.580 11.280 C 4.007 11.367,3.464 11.762,3.197 12.286 C 3.003 12.666,3.001 12.703,3.001 16.500 C 3.001 20.297,3.003 20.334,3.197 20.714 C 3.412 21.135,3.789 21.463,4.260 21.638 C 4.561 21.749,5.338 21.792,5.840 21.725 C 6.589 21.625,7.188 21.132,7.404 20.436 C 7.476 20.205,7.480 20.012,7.480 16.500 C 7.480 12.988,7.476 12.795,7.404 12.564 C 7.198 11.900,6.609 11.392,5.920 11.282 C 5.627 11.235,4.883 11.234,4.580 11.280 " fill="#0F172A" stroke="none" fill-rule="evenodd"></path></svg>