<svg width="24" height="24" viewBox="0 0 24 24" fill="none" xmlns="http://www.w3.org/2000/svg"><path d="M13.420 2.260 C 13.398 2.267,13.331 2.284,13.271 2.297 C 13.124 2.329,12.881 2.548,12.814 2.708 C 12.770 2.814,12.760 3.553,12.761 6.749 C 12.762 10.458,12.766 10.668,12.835 10.820 C 12.923 11.010,13.012 11.096,13.210 11.178 C 13.339 11.232,13.838 11.240,17.256 11.240 C 19.913 11.240,21.191 11.226,21.267 11.197 C 21.408 11.144,21.586 10.978,21.673 10.820 C 21.756 10.668,21.748 9.945,21.657 9.323 C 21.393 7.520,20.614 5.969,19.322 4.678 C 18.024 3.379,16.437 2.585,14.660 2.345 C 14.216 2.284,13.494 2.235,13.420 2.260 M9.880 5.280 C 7.868 5.435,6.101 6.253,4.658 7.697 C 3.894 8.462,3.344 9.267,2.937 10.215 C 1.751 12.977,2.116 16.050,3.916 18.471 C 4.249 18.919,5.081 19.751,5.529 20.084 C 8.514 22.304,12.496 22.304,15.471 20.083 C 15.924 19.745,16.755 18.915,17.085 18.471 C 18.078 17.133,18.644 15.572,18.744 13.897 C 18.774 13.388,18.739 13.230,18.546 13.011 C 18.315 12.747,18.508 12.760,14.701 12.760 L 11.240 12.760 11.240 9.303 C 11.240 6.957,11.226 5.809,11.197 5.733 C 11.146 5.595,10.977 5.412,10.833 5.337 C 10.686 5.260,10.375 5.242,9.880 5.280 " fill="#0F172A" stroke="none" fill-rule="evenodd"></path></svg>