<svg width="24" height="24" viewBox="0 0 24 24" fill="none" xmlns="http://www.w3.org/2000/svg"><path d="M10.480 2.282 C 8.423 2.344,5.477 2.621,4.528 2.842 C 2.897 3.222,1.717 4.594,1.523 6.333 C 1.468 6.824,1.465 12.687,1.520 13.160 C 1.575 13.646,1.699 14.084,1.902 14.514 C 2.128 14.992,2.352 15.303,2.746 15.684 C 3.238 16.161,3.791 16.475,4.423 16.637 C 4.903 16.760,6.666 16.982,8.111 17.101 C 8.325 17.119,8.470 17.152,8.521 17.194 C 8.565 17.230,9.244 18.223,10.031 19.400 C 11.013 20.871,11.501 21.567,11.591 21.627 C 11.847 21.796,12.219 21.782,12.458 21.594 C 12.518 21.547,13.213 20.540,14.003 19.356 C 14.792 18.173,15.470 17.187,15.509 17.166 C 15.548 17.145,15.823 17.107,16.120 17.081 C 17.756 16.940,19.335 16.724,19.775 16.580 C 20.398 16.377,20.885 16.070,21.344 15.592 C 21.735 15.184,21.878 14.979,22.101 14.507 C 22.306 14.073,22.428 13.635,22.480 13.140 C 22.534 12.636,22.531 6.818,22.477 6.333 C 22.283 4.594,21.103 3.222,19.472 2.842 C 19.100 2.755,17.524 2.552,16.520 2.462 C 15.427 2.364,14.681 2.321,13.359 2.280 C 11.998 2.239,11.942 2.239,10.480 2.282 " fill="#0F172A" stroke="none" fill-rule="evenodd"></path></svg>