<svg width="24" height="24" viewBox="0 0 24 24" fill="none" xmlns="http://www.w3.org/2000/svg"><path d="M10.480 2.282 C 8.423 2.344,5.477 2.621,4.528 2.842 C 2.897 3.222,1.717 4.594,1.523 6.333 C 1.468 6.824,1.465 12.687,1.520 13.160 C 1.706 14.786,2.743 16.096,4.225 16.580 C 4.395 16.636,4.841 16.725,5.217 16.779 C 5.880 16.875,7.270 17.040,7.408 17.040 C 7.472 17.040,7.477 17.189,7.488 19.110 C 7.500 21.163,7.501 21.181,7.589 21.347 C 7.696 21.547,7.846 21.661,8.091 21.726 C 8.479 21.830,8.389 21.904,10.820 19.479 C 12.230 18.073,13.056 17.278,13.120 17.264 C 13.175 17.253,13.661 17.224,14.200 17.200 C 16.405 17.103,19.090 16.804,19.775 16.580 C 20.398 16.377,20.885 16.070,21.344 15.592 C 21.735 15.184,21.878 14.979,22.101 14.507 C 22.306 14.073,22.428 13.635,22.480 13.140 C 22.534 12.636,22.531 6.818,22.477 6.333 C 22.283 4.594,21.103 3.222,19.472 2.842 C 19.100 2.755,17.524 2.552,16.520 2.462 C 15.427 2.364,14.681 2.321,13.359 2.280 C 11.998 2.239,11.942 2.239,10.480 2.282 M8.757 8.765 C 9.174 8.973,9.386 9.353,9.351 9.830 C 9.327 10.165,9.223 10.378,8.976 10.595 C 8.661 10.872,8.261 10.947,7.872 10.801 C 7.578 10.691,7.385 10.518,7.253 10.249 C 6.949 9.631,7.270 8.875,7.920 8.677 C 7.975 8.661,8.130 8.645,8.264 8.643 C 8.461 8.641,8.555 8.664,8.757 8.765 M12.440 8.723 C 12.660 8.822,12.897 9.045,13.013 9.260 C 13.145 9.506,13.135 9.991,12.993 10.260 C 12.780 10.664,12.458 10.858,12.000 10.858 C 11.542 10.858,11.220 10.664,11.007 10.260 C 10.865 9.991,10.855 9.506,10.987 9.260 C 11.195 8.873,11.574 8.642,12.000 8.642 C 12.176 8.642,12.318 8.668,12.440 8.723 M16.260 8.750 C 16.797 9.029,17.016 9.702,16.747 10.249 C 16.615 10.518,16.422 10.691,16.128 10.801 C 15.737 10.947,15.339 10.872,15.020 10.592 C 14.762 10.365,14.641 10.098,14.641 9.760 C 14.642 9.307,14.852 8.961,15.249 8.760 C 15.479 8.644,15.525 8.635,15.800 8.650 C 15.999 8.661,16.154 8.695,16.260 8.750 " fill="#0F172A" stroke="none" fill-rule="evenodd"></path></svg>