<svg width="24" height="24" viewBox="0 0 24 24" fill="none" xmlns="http://www.w3.org/2000/svg"><path d="M11.060 3.046 C 7.181 3.383,3.834 5.901,2.684 9.346 C 1.689 12.328,2.429 15.550,4.650 17.906 C 5.123 18.408,5.160 18.462,5.160 18.661 C 5.160 19.049,4.874 19.718,4.471 20.274 C 4.215 20.629,4.161 20.802,4.217 21.100 C 4.258 21.318,4.488 21.549,4.735 21.619 C 5.063 21.713,5.816 21.772,6.313 21.743 C 7.309 21.685,8.172 21.452,9.066 21.000 L 9.612 20.724 9.856 20.780 C 10.676 20.967,11.995 21.047,12.880 20.963 C 15.300 20.735,17.402 19.794,19.055 18.200 C 19.840 17.442,20.407 16.667,20.881 15.700 C 22.465 12.469,21.845 8.684,19.301 6.045 C 17.217 3.882,14.175 2.775,11.060 3.046 M8.740 10.991 C 9.123 11.188,9.358 11.573,9.358 12.000 C 9.358 12.593,8.926 13.063,8.337 13.110 C 7.874 13.147,7.491 12.935,7.260 12.514 C 7.159 12.330,7.143 12.258,7.143 12.000 C 7.144 11.678,7.212 11.495,7.423 11.244 C 7.526 11.121,7.750 10.984,7.960 10.915 C 8.131 10.859,8.566 10.901,8.740 10.991 M12.383 10.947 C 12.647 11.037,12.963 11.353,13.053 11.617 C 13.193 12.028,13.109 12.431,12.815 12.758 C 12.381 13.240,11.619 13.240,11.185 12.758 C 10.763 12.288,10.777 11.658,11.218 11.217 C 11.538 10.897,11.953 10.801,12.383 10.947 M16.265 11.012 C 16.487 11.125,16.636 11.279,16.770 11.535 C 16.835 11.660,16.856 11.772,16.857 12.000 C 16.857 12.258,16.841 12.330,16.740 12.514 C 16.509 12.935,16.126 13.147,15.663 13.110 C 15.074 13.063,14.642 12.593,14.642 12.000 C 14.642 11.502,14.957 11.073,15.440 10.915 C 15.631 10.852,16.047 10.901,16.265 11.012 " fill="#0F172A" stroke="none" fill-rule="evenodd"></path></svg>