<svg width="24" height="24" viewBox="0 0 24 24" fill="none" xmlns="http://www.w3.org/2000/svg"><path d="M11.060 3.046 C 7.181 3.383,3.834 5.901,2.684 9.346 C 1.689 12.328,2.429 15.550,4.650 17.906 C 5.123 18.408,5.160 18.462,5.160 18.661 C 5.160 19.049,4.874 19.718,4.471 20.274 C 4.215 20.629,4.161 20.802,4.217 21.100 C 4.258 21.318,4.488 21.549,4.735 21.619 C 5.063 21.713,5.816 21.772,6.313 21.743 C 7.309 21.685,8.172 21.452,9.066 21.000 L 9.612 20.724 9.856 20.780 C 10.676 20.967,11.995 21.047,12.880 20.963 C 15.300 20.735,17.402 19.794,19.055 18.200 C 19.840 17.442,20.407 16.667,20.881 15.700 C 22.465 12.469,21.845 8.684,19.301 6.045 C 17.217 3.882,14.175 2.775,11.060 3.046 " fill="#0F172A" stroke="none" fill-rule="evenodd"></path></svg>