<svg width="24" height="24" viewBox="0 0 24 24" fill="none" xmlns="http://www.w3.org/2000/svg"><path d="M10.160 2.267 C 8.741 2.298,7.133 2.409,5.613 2.581 C 4.617 2.694,4.261 2.772,3.820 2.976 C 2.535 3.570,1.688 4.771,1.520 6.238 C 1.465 6.714,1.468 12.774,1.523 13.267 C 1.706 14.913,2.757 16.221,4.280 16.698 C 4.485 16.763,4.894 16.839,5.310 16.890 L 6.000 16.975 6.000 19.049 C 6.000 21.283,6.000 21.284,6.212 21.515 C 6.317 21.629,6.582 21.758,6.715 21.759 C 7.034 21.762,7.085 21.721,8.532 20.283 C 9.788 19.035,9.917 18.895,9.852 18.849 C 9.812 18.821,9.637 18.705,9.463 18.592 C 8.673 18.076,8.028 17.213,7.723 16.260 C 7.522 15.634,7.514 15.482,7.529 12.540 L 7.543 9.820 7.653 9.440 C 8.119 7.822,9.412 6.585,10.973 6.263 C 11.418 6.171,12.607 6.088,14.290 6.033 C 16.556 5.958,19.762 6.085,20.611 6.285 C 20.806 6.330,20.973 6.361,20.981 6.352 C 21.013 6.320,20.912 5.771,20.813 5.441 C 20.620 4.794,20.285 4.236,19.803 3.760 C 19.173 3.136,18.484 2.800,17.552 2.663 C 15.980 2.432,12.608 2.218,11.020 2.249 C 10.800 2.254,10.413 2.262,10.160 2.267 M13.660 7.548 C 12.642 7.591,11.437 7.694,11.173 7.762 C 10.399 7.960,9.696 8.528,9.347 9.240 C 9.007 9.931,9.020 9.793,9.020 12.760 C 9.020 15.165,9.026 15.401,9.092 15.640 C 9.195 16.008,9.445 16.499,9.677 16.785 C 10.023 17.212,10.628 17.602,11.155 17.739 C 11.497 17.827,12.563 17.908,14.113 17.963 L 15.420 18.009 16.840 19.422 C 18.316 20.890,18.447 20.998,18.760 20.998 C 18.964 20.998,19.213 20.870,19.345 20.698 L 19.460 20.546 19.480 19.203 L 19.500 17.860 19.820 17.830 C 20.526 17.763,21.103 17.495,21.603 17.000 C 21.948 16.659,22.185 16.284,22.348 15.820 L 22.460 15.500 22.471 12.874 C 22.484 9.927,22.483 9.915,22.206 9.340 C 21.793 8.484,21.068 7.906,20.180 7.726 C 19.949 7.679,19.148 7.616,18.060 7.560 C 17.385 7.525,14.395 7.516,13.660 7.548 " fill="#0F172A" stroke="none" fill-rule="evenodd"></path></svg>