<svg width="24" height="24" viewBox="0 0 24 24" fill="none" xmlns="http://www.w3.org/2000/svg"><path d="M19.200 4.565 C 19.145 4.587,19.052 4.650,18.994 4.706 C 18.936 4.761,16.975 7.677,14.637 11.185 L 10.385 17.563 7.642 14.826 C 4.694 11.884,4.791 11.968,4.415 12.011 C 3.934 12.065,3.623 12.606,3.816 13.051 C 3.848 13.126,5.185 14.490,7.006 16.306 C 10.066 19.358,10.145 19.433,10.335 19.473 C 10.594 19.526,10.858 19.448,11.026 19.271 C 11.179 19.110,20.109 5.716,20.185 5.533 C 20.251 5.377,20.256 5.128,20.197 4.973 C 20.140 4.819,19.967 4.642,19.811 4.575 C 19.663 4.512,19.347 4.507,19.200 4.565 " fill="#0F172A" stroke="none" fill-rule="evenodd"></path></svg>