<svg width="24" height="24" viewBox="0 0 24 24" fill="none" xmlns="http://www.w3.org/2000/svg"><path d="M11.340 2.281 C 9.465 2.398,7.649 3.079,6.084 4.252 C 5.583 4.627,4.616 5.596,4.245 6.092 C 3.236 7.444,2.622 8.895,2.353 10.572 C 2.239 11.277,2.230 12.591,2.333 13.300 C 2.582 15.004,3.215 16.530,4.245 17.908 C 4.622 18.412,5.588 19.378,6.092 19.755 C 7.471 20.785,9.000 21.420,10.700 21.666 C 11.033 21.714,11.432 21.736,12.000 21.736 C 13.556 21.736,14.894 21.430,16.260 20.762 C 17.312 20.247,18.030 19.732,18.881 18.881 C 19.732 18.030,20.248 17.311,20.761 16.260 C 22.377 12.955,21.991 9.058,19.755 6.096 C 18.214 4.055,15.834 2.676,13.280 2.345 C 12.683 2.268,11.941 2.243,11.340 2.281 M15.271 9.062 C 15.690 9.237,15.861 9.707,15.649 10.100 C 15.601 10.188,14.711 11.448,13.671 12.899 C 12.443 14.614,11.733 15.570,11.646 15.628 C 11.462 15.751,11.273 15.779,11.048 15.719 C 10.878 15.673,10.745 15.553,9.667 14.484 C 9.011 13.833,8.428 13.222,8.371 13.127 C 8.194 12.828,8.243 12.439,8.487 12.212 C 8.609 12.097,8.845 12.000,9.000 12.000 C 9.262 12.000,9.412 12.115,10.285 12.986 L 11.150 13.849 12.701 11.675 C 13.554 10.479,14.316 9.421,14.393 9.325 C 14.629 9.032,14.960 8.932,15.271 9.062 " fill="#0F172A" stroke="none" fill-rule="evenodd"></path></svg>