<svg width="24" height="24" viewBox="0 0 24 24" fill="none" xmlns="http://www.w3.org/2000/svg"><path d="M7.940 3.826 C 7.608 4.001,7.455 4.311,7.527 4.665 C 7.567 4.856,7.645 4.938,11.134 8.430 L 14.700 12.000 11.148 15.552 C 7.905 18.795,7.592 19.119,7.541 19.291 C 7.493 19.449,7.493 19.511,7.537 19.682 C 7.655 20.136,8.112 20.360,8.551 20.178 C 8.734 20.103,16.231 12.631,16.387 12.369 C 16.526 12.135,16.526 11.865,16.387 11.631 C 16.231 11.369,8.734 3.897,8.551 3.822 C 8.362 3.743,8.094 3.745,7.940 3.826 " fill="#0F172A" stroke="none" fill-rule="evenodd"></path></svg>