<svg width="24" height="24" viewBox="0 0 24 24" fill="none" xmlns="http://www.w3.org/2000/svg"><path d="M11.598 4.636 C 11.309 4.824,3.894 12.273,3.822 12.449 C 3.746 12.632,3.743 12.881,3.814 13.052 C 3.892 13.238,4.133 13.435,4.320 13.465 C 4.513 13.495,4.486 13.496,4.691 13.463 C 4.851 13.438,5.042 13.255,8.430 9.869 L 12.000 6.301 15.570 9.869 C 18.958 13.255,19.149 13.438,19.309 13.463 C 19.514 13.496,19.487 13.495,19.680 13.465 C 19.867 13.435,20.108 13.238,20.186 13.052 C 20.257 12.881,20.254 12.632,20.178 12.449 C 20.106 12.273,12.691 4.824,12.402 4.636 C 12.260 4.543,12.180 4.520,12.000 4.520 C 11.820 4.520,11.740 4.543,11.598 4.636 M11.598 10.636 C 11.309 10.824,3.894 18.273,3.822 18.449 C 3.746 18.632,3.743 18.881,3.814 19.052 C 3.892 19.238,4.133 19.435,4.320 19.465 C 4.513 19.495,4.486 19.496,4.691 19.463 C 4.851 19.438,5.042 19.255,8.430 15.869 L 12.000 12.301 15.570 15.869 C 18.958 19.255,19.149 19.438,19.309 19.463 C 19.514 19.496,19.487 19.495,19.680 19.465 C 19.867 19.435,20.108 19.238,20.186 19.052 C 20.257 18.881,20.254 18.632,20.178 18.449 C 20.106 18.273,12.691 10.824,12.402 10.636 C 12.260 10.543,12.180 10.520,12.000 10.520 C 11.820 10.520,11.740 10.543,11.598 10.636 " fill="#0F172A" stroke="none" fill-rule="evenodd"></path></svg>