<svg width="24" height="24" viewBox="0 0 24 24" fill="none" xmlns="http://www.w3.org/2000/svg"><path d="M12.440 3.823 C 12.264 3.899,4.760 11.385,4.613 11.631 C 4.474 11.865,4.474 12.135,4.613 12.369 C 4.769 12.631,12.266 20.103,12.449 20.178 C 12.632 20.254,12.881 20.257,13.052 20.186 C 13.234 20.110,13.435 19.867,13.463 19.689 C 13.476 19.607,13.488 19.531,13.490 19.520 C 13.492 19.509,13.481 19.419,13.465 19.320 C 13.438 19.145,13.335 19.038,9.869 15.570 L 6.301 12.000 9.869 8.430 C 13.335 4.962,13.438 4.855,13.465 4.680 C 13.481 4.581,13.493 4.495,13.492 4.489 C 13.491 4.483,13.479 4.408,13.465 4.322 C 13.398 3.902,12.863 3.642,12.440 3.823 M18.440 3.823 C 18.264 3.899,10.760 11.385,10.613 11.631 C 10.540 11.753,10.511 11.860,10.511 12.000 C 10.511 12.140,10.540 12.247,10.613 12.369 C 10.769 12.631,18.266 20.103,18.449 20.178 C 18.632 20.254,18.881 20.257,19.052 20.186 C 19.234 20.110,19.435 19.867,19.463 19.689 C 19.476 19.607,19.488 19.531,19.490 19.520 C 19.492 19.509,19.481 19.419,19.465 19.320 C 19.438 19.145,19.335 19.038,15.869 15.570 L 12.301 12.000 15.869 8.430 C 19.335 4.962,19.438 4.855,19.465 4.680 C 19.481 4.581,19.493 4.495,19.492 4.489 C 19.491 4.483,19.479 4.408,19.465 4.322 C 19.398 3.902,18.863 3.642,18.440 3.823 " fill="#0F172A" stroke="none" fill-rule="evenodd"></path></svg>