<svg width="24" height="24" viewBox="0 0 24 24" fill="none" xmlns="http://www.w3.org/2000/svg"><path d="M15.440 3.823 C 15.264 3.899,7.760 11.385,7.613 11.631 C 7.474 11.865,7.474 12.135,7.613 12.369 C 7.769 12.631,15.266 20.103,15.449 20.178 C 15.632 20.254,15.881 20.257,16.052 20.186 C 16.234 20.110,16.435 19.867,16.463 19.689 C 16.476 19.607,16.488 19.531,16.490 19.520 C 16.492 19.509,16.481 19.419,16.465 19.320 C 16.438 19.145,16.335 19.038,12.869 15.570 L 9.301 12.000 12.869 8.430 C 16.335 4.962,16.438 4.855,16.465 4.680 C 16.481 4.581,16.493 4.495,16.492 4.489 C 16.491 4.483,16.479 4.408,16.465 4.322 C 16.398 3.902,15.863 3.642,15.440 3.823 " fill="#0F172A" stroke="none" fill-rule="evenodd"></path></svg>