<svg width="24" height="24" viewBox="0 0 24 24" fill="none" xmlns="http://www.w3.org/2000/svg"><path d="M4.940 3.826 C 4.608 4.001,4.455 4.311,4.527 4.665 C 4.567 4.856,4.645 4.938,8.134 8.430 L 11.700 12.000 8.148 15.552 C 4.905 18.795,4.592 19.119,4.541 19.291 C 4.493 19.449,4.493 19.511,4.537 19.682 C 4.655 20.136,5.112 20.360,5.551 20.178 C 5.734 20.103,13.231 12.631,13.387 12.369 C 13.526 12.135,13.526 11.865,13.387 11.631 C 13.231 11.369,5.734 3.897,5.551 3.822 C 5.362 3.743,5.094 3.745,4.940 3.826 M10.940 3.826 C 10.608 4.001,10.455 4.311,10.527 4.665 C 10.567 4.856,10.645 4.938,14.134 8.430 L 17.700 12.000 14.148 15.552 C 10.905 18.795,10.592 19.119,10.541 19.291 C 10.493 19.449,10.493 19.511,10.537 19.682 C 10.655 20.136,11.112 20.360,11.551 20.178 C 11.734 20.103,19.231 12.631,19.387 12.369 C 19.526 12.135,19.526 11.865,19.387 11.631 C 19.231 11.369,11.734 3.897,11.551 3.822 C 11.362 3.743,11.094 3.745,10.940 3.826 " fill="#0F172A" stroke="none" fill-rule="evenodd"></path></svg>