<svg width="24" height="24" viewBox="0 0 24 24" fill="none" xmlns="http://www.w3.org/2000/svg"><path d="M4.180 7.577 C 3.823 7.736,3.664 8.170,3.822 8.551 C 3.897 8.734,11.369 16.231,11.631 16.387 C 11.865 16.526,12.135 16.526,12.369 16.387 C 12.631 16.231,20.103 8.734,20.178 8.551 C 20.340 8.160,20.160 7.703,19.787 7.563 C 19.644 7.508,19.358 7.508,19.213 7.562 C 19.149 7.585,17.549 9.154,15.550 11.152 L 12.000 14.700 8.450 11.152 C 6.451 9.154,4.851 7.585,4.787 7.562 C 4.633 7.504,4.325 7.512,4.180 7.577 " fill="#0F172A" stroke="none" fill-rule="evenodd"></path></svg>