<svg width="24" height="24" viewBox="0 0 24 24" fill="none" xmlns="http://www.w3.org/2000/svg"><path d="M4.180 4.577 C 3.823 4.736,3.664 5.170,3.822 5.551 C 3.897 5.734,11.369 13.231,11.631 13.387 C 11.865 13.526,12.135 13.526,12.369 13.387 C 12.631 13.231,20.103 5.734,20.178 5.551 C 20.340 5.160,20.160 4.703,19.787 4.563 C 19.644 4.508,19.358 4.508,19.213 4.562 C 19.149 4.585,17.549 6.154,15.550 8.152 L 12.000 11.700 8.450 8.152 C 6.451 6.154,4.851 4.585,4.787 4.562 C 4.633 4.504,4.325 4.512,4.180 4.577 M4.180 10.577 C 3.823 10.736,3.664 11.170,3.822 11.551 C 3.897 11.734,11.369 19.231,11.631 19.387 C 11.865 19.526,12.135 19.526,12.369 19.387 C 12.631 19.231,20.103 11.734,20.178 11.551 C 20.340 11.160,20.160 10.703,19.787 10.563 C 19.644 10.508,19.358 10.508,19.213 10.562 C 19.149 10.585,17.549 12.154,15.550 14.152 L 12.000 17.700 8.450 14.152 C 6.451 12.154,4.851 10.585,4.787 10.562 C 4.633 10.504,4.325 10.512,4.180 10.577 " fill="#0F172A" stroke="none" fill-rule="evenodd"></path></svg>