<svg width="24" height="24" viewBox="0 0 24 24" fill="none" xmlns="http://www.w3.org/2000/svg"><path d="M11.598 4.636 C 11.358 4.791,7.666 8.504,7.580 8.677 C 7.477 8.882,7.490 9.163,7.614 9.373 C 7.733 9.577,7.847 9.661,8.095 9.727 C 8.471 9.828,8.442 9.851,10.310 7.987 L 12.000 6.301 13.690 7.987 C 15.558 9.851,15.529 9.828,15.905 9.727 C 16.153 9.661,16.267 9.577,16.386 9.373 C 16.510 9.163,16.523 8.882,16.420 8.677 C 16.334 8.504,12.642 4.791,12.402 4.636 C 12.260 4.543,12.180 4.520,12.000 4.520 C 11.820 4.520,11.740 4.543,11.598 4.636 M8.094 14.278 C 7.599 14.396,7.358 14.941,7.613 15.369 C 7.744 15.589,11.496 19.329,11.677 19.420 C 11.752 19.458,11.898 19.489,12.000 19.489 C 12.102 19.489,12.248 19.458,12.323 19.420 C 12.504 19.329,16.256 15.589,16.387 15.369 C 16.679 14.879,16.322 14.269,15.745 14.269 C 15.630 14.269,15.492 14.291,15.438 14.318 C 15.384 14.346,14.588 15.118,13.670 16.034 L 12.000 17.700 10.330 16.034 C 9.412 15.118,8.624 14.351,8.580 14.329 C 8.456 14.269,8.233 14.245,8.094 14.278 " fill="#0F172A" stroke="none" fill-rule="evenodd"></path></svg>