<svg width="24" height="24" viewBox="0 0 24 24" fill="none" xmlns="http://www.w3.org/2000/svg"><path d="M11.598 7.636 C 11.309 7.824,3.894 15.273,3.822 15.449 C 3.746 15.632,3.743 15.881,3.814 16.052 C 3.892 16.238,4.133 16.435,4.320 16.465 C 4.513 16.495,4.486 16.496,4.691 16.463 C 4.851 16.438,5.042 16.255,8.430 12.869 L 12.000 9.301 15.570 12.869 C 18.958 16.255,19.149 16.438,19.309 16.463 C 19.514 16.496,19.487 16.495,19.680 16.465 C 19.867 16.435,20.108 16.238,20.186 16.052 C 20.257 15.881,20.254 15.632,20.178 15.449 C 20.106 15.273,12.691 7.824,12.402 7.636 C 12.260 7.543,12.180 7.520,12.000 7.520 C 11.820 7.520,11.740 7.543,11.598 7.636 " fill="#0F172A" stroke="none" fill-rule="evenodd"></path></svg>