<svg width="24" height="24" viewBox="0 0 24 24" fill="none" xmlns="http://www.w3.org/2000/svg"><path d="M10.800 1.544 C 10.723 1.552,10.462 1.579,10.220 1.604 C 7.612 1.866,5.187 2.863,3.978 4.169 C 2.557 5.704,2.702 7.530,4.360 8.951 C 5.633 10.042,7.599 10.808,9.932 11.123 C 10.722 11.229,12.422 11.270,13.255 11.203 C 17.349 10.873,20.475 9.131,20.940 6.922 C 21.302 5.199,19.937 3.501,17.360 2.467 C 16.316 2.049,15.326 1.801,13.951 1.615 C 13.524 1.558,11.156 1.504,10.800 1.544 M3.015 9.860 C 2.969 9.979,3.035 10.617,3.124 10.903 C 3.719 12.831,6.269 14.345,9.760 14.842 C 10.057 14.884,10.682 14.941,11.150 14.967 C 14.290 15.145,17.448 14.370,19.307 12.964 C 20.366 12.163,20.925 11.256,20.988 10.236 C 21.001 10.025,20.995 9.842,20.976 9.830 C 20.956 9.819,20.769 9.953,20.560 10.129 C 20.060 10.549,19.462 10.942,18.842 11.257 C 14.679 13.374,8.372 13.221,4.526 10.910 C 4.180 10.702,3.560 10.247,3.230 9.958 C 3.070 9.818,3.036 9.803,3.015 9.860 M20.778 13.683 C 20.370 14.104,19.463 14.711,18.660 15.100 C 14.816 16.964,9.184 16.964,5.340 15.100 C 4.553 14.718,3.780 14.208,3.292 13.748 C 3.166 13.629,3.066 13.564,3.037 13.582 C 2.964 13.627,3.019 14.325,3.122 14.660 C 3.676 16.465,6.088 17.974,9.290 18.519 C 10.990 18.808,13.010 18.808,14.710 18.519 C 17.910 17.974,20.326 16.463,20.878 14.660 C 20.973 14.350,21.032 13.690,20.974 13.586 C 20.942 13.529,20.915 13.542,20.778 13.683 M3.026 17.308 C 2.980 17.353,2.998 17.825,3.058 18.135 C 3.385 19.847,5.343 21.322,8.265 22.057 C 10.180 22.539,12.696 22.617,14.754 22.259 C 16.958 21.875,18.776 21.061,19.882 19.960 C 20.482 19.363,20.818 18.785,20.942 18.135 C 21.002 17.821,21.018 17.453,20.976 17.343 C 20.956 17.293,20.905 17.322,20.728 17.484 C 19.312 18.778,17.014 19.729,14.460 20.077 C 13.539 20.202,12.981 20.239,12.000 20.239 C 11.019 20.239,10.461 20.202,9.540 20.077 C 6.987 19.729,4.688 18.778,3.273 17.485 C 3.151 17.373,3.040 17.294,3.026 17.308 " fill="#0F172A" stroke="none" fill-rule="evenodd"></path></svg>