<svg width="24" height="24" viewBox="0 0 24 24" fill="none" xmlns="http://www.w3.org/2000/svg"><path d="M9.900 1.560 C 9.104 1.723,8.303 2.296,7.918 2.977 L 7.802 3.183 7.051 3.254 C 6.091 3.345,5.827 3.404,5.360 3.631 C 5.041 3.786,4.925 3.871,4.640 4.158 C 4.251 4.551,4.083 4.814,3.905 5.310 L 3.780 5.660 3.780 12.880 L 3.780 20.100 3.892 20.420 C 4.060 20.897,4.290 21.258,4.657 21.620 C 5.182 22.137,5.722 22.394,6.471 22.479 C 6.942 22.533,17.058 22.533,17.529 22.479 C 18.278 22.394,18.818 22.137,19.343 21.620 C 19.710 21.258,19.941 20.896,20.108 20.420 L 20.220 20.100 20.220 12.880 L 20.220 5.660 20.095 5.310 C 19.917 4.814,19.749 4.551,19.360 4.158 C 19.075 3.871,18.959 3.786,18.640 3.631 C 18.173 3.404,17.909 3.345,16.949 3.254 L 16.198 3.183 16.083 2.982 C 15.746 2.392,15.145 1.906,14.428 1.646 L 14.140 1.541 12.100 1.534 C 10.978 1.530,9.988 1.542,9.900 1.560 M14.104 3.133 C 14.563 3.345,14.919 3.822,14.983 4.310 L 15.010 4.520 12.000 4.520 L 8.990 4.520 9.017 4.310 C 9.093 3.720,9.574 3.182,10.150 3.042 C 10.232 3.022,11.101 3.009,12.080 3.013 L 13.860 3.020 14.104 3.133 " fill="#0F172A" stroke="none" fill-rule="evenodd"></path></svg>