<svg width="24" height="24" viewBox="0 0 24 24" fill="none" xmlns="http://www.w3.org/2000/svg"><path d="M12.960 1.547 C 12.767 1.579,12.346 1.726,12.121 1.840 C 11.668 2.068,11.094 2.619,10.886 3.026 C 10.849 3.097,10.793 3.116,10.551 3.138 C 9.674 3.216,9.242 3.347,8.774 3.675 C 8.082 4.162,7.639 4.898,7.526 5.749 L 7.494 5.997 11.337 6.009 C 15.138 6.021,15.183 6.022,15.485 6.108 C 16.659 6.440,17.558 7.339,17.892 8.515 C 17.979 8.820,17.979 8.827,17.991 13.795 L 18.002 18.770 18.251 18.743 C 18.653 18.698,18.955 18.608,19.360 18.410 C 19.681 18.253,19.796 18.168,20.102 17.862 C 20.501 17.462,20.716 17.105,20.886 16.560 L 20.980 16.260 20.980 10.940 C 20.980 4.967,21.003 5.448,20.680 4.780 C 20.387 4.176,19.931 3.732,19.300 3.439 C 18.901 3.254,18.736 3.214,18.137 3.158 C 17.875 3.134,17.660 3.111,17.659 3.107 C 17.658 3.103,17.587 2.992,17.502 2.861 C 17.084 2.217,16.430 1.759,15.670 1.580 C 15.476 1.534,15.154 1.522,14.240 1.526 C 13.591 1.529,13.015 1.538,12.960 1.547 M15.381 3.062 C 15.971 3.216,16.425 3.735,16.472 4.310 L 16.490 4.520 14.240 4.520 L 11.990 4.520 12.017 4.310 C 12.094 3.722,12.580 3.178,13.150 3.043 C 13.232 3.024,13.715 3.006,14.222 3.004 C 14.935 3.001,15.197 3.014,15.381 3.062 M4.440 7.548 C 4.385 7.558,4.214 7.627,4.060 7.701 C 3.543 7.950,3.167 8.429,3.042 9.000 C 2.987 9.246,2.987 20.754,3.042 21.000 C 3.169 21.577,3.539 22.046,4.080 22.312 L 4.380 22.460 9.740 22.460 L 15.100 22.460 15.411 22.311 C 15.825 22.114,16.114 21.825,16.311 21.411 L 16.460 21.100 16.460 15.000 L 16.460 8.900 16.311 8.589 C 16.114 8.175,15.825 7.886,15.411 7.689 L 15.100 7.540 9.820 7.535 C 6.916 7.532,4.495 7.538,4.440 7.548 M7.116 11.338 C 7.393 11.481,7.567 11.884,7.484 12.188 C 7.396 12.508,7.079 12.758,6.760 12.758 C 6.422 12.758,6.065 12.457,6.016 12.129 C 5.924 11.513,6.564 11.053,7.116 11.338 M13.100 11.344 C 13.327 11.462,13.489 11.736,13.489 12.000 C 13.489 12.264,13.327 12.538,13.100 12.656 C 12.945 12.737,12.880 12.740,10.948 12.751 C 9.568 12.759,8.905 12.748,8.790 12.717 C 8.244 12.570,8.073 11.838,8.492 11.447 C 8.708 11.245,8.751 11.242,10.920 11.251 C 12.883 11.260,12.945 11.262,13.100 11.344 M7.116 14.338 C 7.393 14.481,7.567 14.884,7.484 15.188 C 7.396 15.508,7.079 15.758,6.760 15.758 C 6.422 15.758,6.065 15.457,6.016 15.129 C 5.924 14.513,6.564 14.053,7.116 14.338 M13.100 14.344 C 13.327 14.462,13.489 14.736,13.489 15.000 C 13.489 15.264,13.327 15.538,13.100 15.656 C 12.945 15.737,12.880 15.740,10.948 15.751 C 9.568 15.759,8.905 15.748,8.790 15.717 C 8.244 15.570,8.073 14.838,8.492 14.447 C 8.708 14.245,8.751 14.242,10.920 14.251 C 12.883 14.260,12.945 14.262,13.100 14.344 M7.116 17.338 C 7.393 17.481,7.567 17.884,7.484 18.188 C 7.396 18.508,7.079 18.758,6.760 18.758 C 6.422 18.758,6.065 18.457,6.016 18.129 C 5.924 17.513,6.564 17.053,7.116 17.338 M13.100 17.344 C 13.327 17.462,13.489 17.736,13.489 18.000 C 13.489 18.264,13.327 18.538,13.100 18.656 C 12.945 18.737,12.880 18.740,10.948 18.751 C 9.568 18.759,8.905 18.748,8.790 18.717 C 8.244 18.570,8.073 17.838,8.492 17.447 C 8.708 17.245,8.751 17.242,10.920 17.251 C 12.883 17.260,12.945 17.262,13.100 17.344 " fill="#0F172A" stroke="none" fill-rule="evenodd"></path></svg>