<svg width="24" height="24" viewBox="0 0 24 24" fill="none" xmlns="http://www.w3.org/2000/svg"><path d="M12.960 1.547 C 12.767 1.579,12.346 1.726,12.121 1.840 C 11.668 2.068,11.094 2.619,10.886 3.026 C 10.849 3.097,10.793 3.116,10.551 3.138 C 9.674 3.216,9.242 3.347,8.774 3.675 C 8.082 4.162,7.639 4.898,7.526 5.749 L 7.494 5.997 11.337 6.009 C 15.138 6.021,15.183 6.022,15.485 6.108 C 16.659 6.440,17.558 7.339,17.892 8.515 C 17.979 8.820,17.979 8.827,17.991 13.795 L 18.002 18.770 18.251 18.743 C 18.653 18.698,18.955 18.608,19.360 18.410 C 19.681 18.253,19.796 18.168,20.102 17.862 C 20.501 17.462,20.716 17.105,20.886 16.560 L 20.980 16.260 20.980 10.940 C 20.980 4.967,21.003 5.448,20.680 4.780 C 20.387 4.176,19.931 3.732,19.300 3.439 C 18.901 3.254,18.736 3.214,18.137 3.158 C 17.875 3.134,17.660 3.111,17.659 3.107 C 17.658 3.103,17.587 2.992,17.502 2.861 C 17.084 2.217,16.430 1.759,15.670 1.580 C 15.476 1.534,15.154 1.522,14.240 1.526 C 13.591 1.529,13.015 1.538,12.960 1.547 M15.381 3.062 C 15.971 3.216,16.425 3.735,16.472 4.310 L 16.490 4.520 14.240 4.520 L 11.990 4.520 12.017 4.310 C 12.094 3.722,12.580 3.178,13.150 3.043 C 13.232 3.024,13.715 3.006,14.222 3.004 C 14.935 3.001,15.197 3.014,15.381 3.062 M4.440 7.548 C 4.385 7.558,4.214 7.627,4.060 7.701 C 3.543 7.950,3.167 8.429,3.042 9.000 C 2.987 9.246,2.987 20.754,3.042 21.000 C 3.169 21.577,3.539 22.046,4.080 22.312 L 4.380 22.460 9.740 22.460 L 15.100 22.460 15.411 22.311 C 15.825 22.114,16.114 21.825,16.311 21.411 L 16.460 21.100 16.460 15.000 L 16.460 8.900 16.311 8.589 C 16.114 8.175,15.825 7.886,15.411 7.689 L 15.100 7.540 9.820 7.535 C 6.916 7.532,4.495 7.538,4.440 7.548 M12.292 12.814 C 12.574 12.932,12.797 13.331,12.739 13.613 C 12.724 13.683,12.669 13.812,12.617 13.900 C 12.564 13.988,11.842 14.906,11.011 15.940 C 9.735 17.527,9.472 17.834,9.322 17.910 C 9.105 18.019,8.913 18.023,8.700 17.923 C 8.505 17.832,6.863 16.192,6.802 16.027 C 6.636 15.580,6.947 15.063,7.415 15.011 C 7.729 14.975,7.858 15.051,8.423 15.606 L 8.945 16.119 10.182 14.572 C 10.863 13.721,11.456 12.990,11.500 12.948 C 11.688 12.767,12.037 12.708,12.292 12.814 " fill="#0F172A" stroke="none" fill-rule="evenodd"></path></svg>