<svg width="24" height="24" viewBox="0 0 24 24" fill="none" xmlns="http://www.w3.org/2000/svg"><path d="M12.960 1.547 C 12.767 1.579,12.346 1.726,12.121 1.840 C 11.668 2.068,11.095 2.619,10.885 3.027 C 10.848 3.100,10.795 3.117,10.530 3.138 C 10.071 3.174,9.610 3.261,9.348 3.360 C 8.818 3.560,8.215 4.081,7.910 4.601 C 7.756 4.865,7.616 5.229,7.653 5.267 C 7.665 5.279,7.825 5.305,8.007 5.325 C 9.982 5.541,11.854 6.287,13.512 7.517 C 14.172 8.007,15.213 9.044,15.704 9.700 C 16.894 11.291,17.574 12.914,17.882 14.900 C 17.958 15.385,17.972 15.680,17.989 17.115 L 18.009 18.769 18.255 18.742 C 18.653 18.698,18.956 18.607,19.360 18.410 C 19.681 18.253,19.796 18.168,20.102 17.862 C 20.501 17.462,20.716 17.105,20.886 16.560 L 20.980 16.260 20.980 10.940 C 20.980 4.967,21.003 5.448,20.680 4.780 C 20.387 4.176,19.931 3.732,19.300 3.439 C 18.901 3.254,18.736 3.214,18.137 3.158 C 17.875 3.134,17.660 3.111,17.659 3.107 C 17.658 3.103,17.587 2.992,17.502 2.861 C 17.084 2.217,16.430 1.759,15.670 1.580 C 15.476 1.534,15.154 1.522,14.240 1.526 C 13.591 1.529,13.015 1.538,12.960 1.547 M15.381 3.062 C 15.971 3.216,16.425 3.735,16.472 4.310 L 16.490 4.520 14.240 4.520 L 11.990 4.520 12.017 4.310 C 12.094 3.722,12.580 3.178,13.150 3.043 C 13.232 3.024,13.715 3.006,14.222 3.004 C 14.935 3.001,15.197 3.014,15.381 3.062 M4.400 6.813 C 3.871 6.969,3.445 7.316,3.220 7.774 C 3.143 7.931,3.062 8.157,3.040 8.275 C 2.986 8.568,2.987 20.753,3.042 21.000 C 3.169 21.577,3.539 22.046,4.080 22.312 L 4.380 22.460 9.740 22.460 L 15.100 22.460 15.411 22.311 C 15.825 22.114,16.114 21.825,16.311 21.411 L 16.460 21.100 16.460 19.220 C 16.460 17.380,16.458 17.333,16.369 17.024 C 16.046 15.911,15.341 15.083,14.300 14.596 C 13.675 14.303,13.483 14.275,11.860 14.243 C 10.652 14.219,10.392 14.204,10.244 14.147 C 9.727 13.948,9.323 13.544,9.118 13.020 C 9.028 12.790,9.023 12.722,8.997 11.340 C 8.968 9.798,8.953 9.676,8.733 9.127 C 8.295 8.032,7.350 7.186,6.220 6.879 C 5.815 6.768,4.690 6.728,4.400 6.813 M9.439 7.339 C 10.026 8.115,10.383 9.045,10.477 10.043 C 10.500 10.294,10.520 10.953,10.520 11.508 C 10.520 12.515,10.520 12.516,10.616 12.628 L 10.713 12.740 12.106 12.762 C 13.226 12.780,13.562 12.798,13.813 12.855 C 14.534 13.016,15.348 13.383,15.876 13.785 C 16.032 13.904,16.160 13.980,16.160 13.953 C 16.160 13.926,16.078 13.660,15.977 13.362 C 15.014 10.507,12.682 8.195,9.805 7.243 C 9.533 7.153,9.296 7.080,9.277 7.080 C 9.259 7.080,9.331 7.197,9.439 7.339 " fill="#0F172A" stroke="none" fill-rule="evenodd"></path></svg>