<svg width="24" height="24" viewBox="0 0 24 24" fill="none" xmlns="http://www.w3.org/2000/svg"><path d="M11.340 2.281 C 9.465 2.398,7.649 3.079,6.084 4.252 C 5.583 4.627,4.616 5.596,4.245 6.092 C 3.236 7.444,2.622 8.895,2.353 10.572 C 2.239 11.277,2.230 12.591,2.333 13.300 C 2.582 15.004,3.215 16.530,4.245 17.908 C 4.622 18.412,5.588 19.378,6.092 19.755 C 7.471 20.785,9.000 21.420,10.700 21.666 C 11.033 21.714,11.432 21.736,12.000 21.736 C 13.556 21.736,14.894 21.430,16.260 20.762 C 17.312 20.247,18.030 19.732,18.881 18.881 C 19.732 18.030,20.248 17.311,20.761 16.260 C 22.377 12.955,21.991 9.058,19.755 6.096 C 18.214 4.055,15.834 2.676,13.280 2.345 C 12.683 2.268,11.941 2.243,11.340 2.281 M12.405 5.381 C 12.485 5.432,12.593 5.543,12.645 5.627 L 12.740 5.780 12.751 8.508 L 12.763 11.236 14.731 11.248 C 16.890 11.261,16.807 11.252,17.047 11.506 C 17.241 11.711,17.297 12.027,17.186 12.292 C 17.115 12.461,16.880 12.665,16.691 12.720 C 16.586 12.751,15.809 12.761,14.160 12.752 C 11.845 12.740,11.776 12.738,11.641 12.658 C 11.564 12.613,11.447 12.499,11.381 12.405 L 11.260 12.233 11.260 9.007 L 11.260 5.780 11.353 5.631 C 11.586 5.256,12.044 5.147,12.405 5.381 " fill="#0F172A" stroke="none" fill-rule="evenodd"></path></svg>