<svg width="24" height="24" viewBox="0 0 24 24" fill="none" xmlns="http://www.w3.org/2000/svg"><path d="M9.720 3.801 C 8.881 3.917,7.968 4.247,7.304 4.672 C 6.162 5.403,5.237 6.574,4.820 7.817 C 4.596 8.483,4.446 9.515,4.502 10.008 L 4.527 10.236 4.321 10.348 C 3.103 11.011,2.205 12.063,1.783 13.322 C 1.239 14.949,1.504 16.694,2.509 18.089 C 2.773 18.455,3.346 19.022,3.729 19.294 C 4.318 19.713,5.147 20.052,5.895 20.179 C 6.421 20.269,18.255 20.271,18.765 20.181 C 19.649 20.026,20.438 19.629,21.082 19.014 C 22.483 17.675,22.874 15.757,22.116 13.936 C 21.834 13.259,21.180 12.473,20.547 12.050 L 20.234 11.840 20.224 11.210 C 20.215 10.658,20.201 10.536,20.107 10.228 C 19.895 9.534,19.565 9.000,19.049 8.517 C 18.338 7.851,17.499 7.520,16.523 7.520 L 16.083 7.520 15.904 7.146 C 15.610 6.533,15.274 6.069,14.743 5.539 C 13.864 4.662,12.889 4.125,11.728 3.878 C 11.284 3.784,10.154 3.740,9.720 3.801 " fill="#0F172A" stroke="none" fill-rule="evenodd"></path></svg>