<svg width="24" height="24" viewBox="0 0 24 24" fill="none" xmlns="http://www.w3.org/2000/svg"><path d="M5.503 3.042 C 4.487 3.214,3.556 3.976,3.202 4.925 C 2.994 5.481,3.001 5.233,3.001 11.992 C 3.000 18.878,2.989 18.550,3.234 19.151 C 3.521 19.857,4.143 20.479,4.849 20.766 C 5.449 21.011,5.123 21.000,12.000 21.000 C 18.876 21.000,18.551 21.011,19.150 20.767 C 19.850 20.482,20.482 19.850,20.767 19.150 C 21.011 18.551,21.000 18.876,21.000 12.000 C 21.000 5.123,21.011 5.449,20.766 4.849 C 20.499 4.193,19.964 3.633,19.296 3.312 C 18.639 2.996,19.291 3.023,12.120 3.015 C 8.589 3.012,5.611 3.024,5.503 3.042 M10.030 9.062 C 10.220 9.141,10.311 9.225,10.404 9.408 C 10.496 9.588,10.502 9.870,10.419 10.069 C 10.381 10.160,10.028 10.547,9.471 11.107 L 8.584 12.000 9.471 12.893 C 10.028 13.453,10.381 13.840,10.419 13.931 C 10.548 14.241,10.457 14.646,10.216 14.836 C 9.934 15.058,9.552 15.044,9.251 14.802 C 8.867 14.494,6.884 12.460,6.821 12.310 C 6.743 12.122,6.743 11.878,6.822 11.690 C 6.914 11.468,9.159 9.228,9.418 9.099 C 9.646 8.985,9.821 8.974,10.030 9.062 M14.559 9.083 C 14.689 9.142,15.052 9.477,15.871 10.292 C 16.493 10.912,17.050 11.487,17.107 11.570 C 17.232 11.751,17.271 12.044,17.199 12.265 C 17.160 12.384,16.895 12.676,16.044 13.535 C 15.437 14.148,14.854 14.718,14.749 14.802 C 14.222 15.225,13.520 14.904,13.520 14.240 C 13.520 14.128,13.549 13.978,13.585 13.908 C 13.621 13.838,14.048 13.380,14.533 12.890 L 15.416 12.000 14.533 11.110 C 14.048 10.620,13.621 10.162,13.585 10.092 C 13.549 10.022,13.520 9.872,13.520 9.760 C 13.520 9.189,14.042 8.849,14.559 9.083 " fill="#0F172A" stroke="none" fill-rule="evenodd"></path></svg>