<svg width="24" height="24" viewBox="0 0 24 24" fill="none" xmlns="http://www.w3.org/2000/svg"><path d="M13.935 3.077 C 13.593 3.232,13.755 2.703,11.272 11.811 C 8.724 21.160,8.901 20.406,9.190 20.725 C 9.437 20.999,9.744 21.069,10.065 20.923 C 10.405 20.769,10.246 21.290,12.721 12.215 C 13.975 7.620,15.000 3.814,15.000 3.756 C 15.000 3.476,14.816 3.204,14.540 3.076 C 14.336 2.982,14.144 2.982,13.935 3.077 M6.440 6.083 C 6.302 6.145,5.644 6.779,3.629 8.792 C 2.182 10.237,0.951 11.488,0.893 11.571 C 0.768 11.750,0.729 12.043,0.800 12.265 C 0.840 12.390,1.367 12.938,3.515 15.091 C 4.981 16.560,6.245 17.807,6.324 17.862 C 6.407 17.920,6.551 17.972,6.667 17.986 C 7.265 18.057,7.683 17.427,7.402 16.879 C 7.374 16.825,6.278 15.705,4.966 14.390 L 2.582 12.000 4.966 9.610 C 6.278 8.296,7.374 7.175,7.402 7.121 C 7.603 6.730,7.448 6.251,7.065 6.077 C 6.852 5.980,6.664 5.982,6.440 6.083 M16.935 6.077 C 16.552 6.251,16.397 6.730,16.598 7.121 C 16.626 7.175,17.722 8.296,19.034 9.610 L 21.418 12.000 19.034 14.390 C 17.722 15.705,16.626 16.825,16.598 16.879 C 16.317 17.427,16.735 18.057,17.333 17.986 C 17.449 17.972,17.593 17.920,17.676 17.862 C 17.755 17.807,19.019 16.560,20.485 15.091 C 22.633 12.938,23.160 12.390,23.200 12.265 C 23.271 12.043,23.232 11.750,23.107 11.571 C 23.049 11.488,21.818 10.237,20.371 8.792 C 17.624 6.048,17.572 6.002,17.240 6.002 C 17.163 6.002,17.026 6.035,16.935 6.077 " fill="#0F172A" stroke="none" fill-rule="evenodd"></path></svg>