<svg width="24" height="24" viewBox="0 0 24 24" fill="none" xmlns="http://www.w3.org/2000/svg"><path d="M10.760 2.286 C 10.489 2.331,10.079 2.518,9.859 2.699 C 9.645 2.874,9.421 3.201,9.322 3.484 C 9.279 3.607,9.197 3.983,9.140 4.320 C 9.083 4.656,9.021 4.961,9.002 4.996 C 8.940 5.112,8.784 5.229,8.520 5.361 C 8.377 5.432,8.123 5.578,7.956 5.685 C 7.790 5.792,7.600 5.890,7.536 5.903 C 7.450 5.920,7.244 5.860,6.760 5.675 L 6.100 5.424 5.637 5.422 L 5.174 5.420 4.831 5.590 C 4.582 5.713,4.434 5.819,4.289 5.978 C 4.074 6.213,3.134 7.804,2.970 8.210 C 2.781 8.678,2.814 9.234,3.059 9.718 C 3.201 9.998,3.352 10.158,3.900 10.611 C 4.164 10.829,4.409 11.051,4.444 11.105 C 4.498 11.187,4.507 11.328,4.501 12.011 C 4.497 12.456,4.481 12.849,4.465 12.884 C 4.449 12.919,4.223 13.122,3.963 13.334 C 3.703 13.547,3.417 13.800,3.327 13.897 C 2.867 14.396,2.720 15.172,2.970 15.790 C 3.023 15.921,3.298 16.432,3.581 16.924 C 3.983 17.624,4.149 17.873,4.338 18.063 C 4.734 18.460,5.184 18.625,5.776 18.590 C 6.049 18.574,6.204 18.532,6.760 18.323 C 7.243 18.140,7.451 18.080,7.536 18.097 C 7.600 18.110,7.790 18.208,7.956 18.315 C 8.123 18.422,8.359 18.559,8.480 18.619 C 8.744 18.751,8.945 18.897,8.998 18.996 C 9.019 19.036,9.082 19.339,9.138 19.669 C 9.194 20.000,9.271 20.367,9.309 20.485 C 9.472 20.992,9.944 21.465,10.466 21.646 C 10.731 21.737,10.780 21.740,12.000 21.740 C 13.220 21.740,13.269 21.737,13.534 21.646 C 14.056 21.465,14.528 20.992,14.691 20.485 C 14.729 20.367,14.806 20.000,14.862 19.669 C 14.918 19.339,14.981 19.036,15.002 18.996 C 15.055 18.897,15.256 18.751,15.520 18.619 C 15.641 18.559,15.877 18.422,16.044 18.315 C 16.210 18.208,16.400 18.110,16.464 18.097 C 16.549 18.080,16.757 18.140,17.240 18.323 C 17.963 18.595,18.335 18.655,18.750 18.566 C 19.199 18.470,19.631 18.182,19.889 17.807 C 20.120 17.471,20.990 15.927,21.058 15.732 C 21.270 15.124,21.113 14.374,20.673 13.897 C 20.583 13.800,20.298 13.547,20.038 13.335 C 19.775 13.120,19.548 12.903,19.526 12.845 C 19.505 12.787,19.488 12.394,19.489 11.972 C 19.491 11.334,19.502 11.187,19.555 11.105 C 19.591 11.051,19.836 10.829,20.100 10.611 C 20.364 10.393,20.639 10.148,20.710 10.066 C 21.118 9.599,21.262 8.854,21.058 8.268 C 20.991 8.074,20.121 6.530,19.891 6.196 C 19.705 5.925,19.465 5.728,19.125 5.566 C 18.828 5.424,18.808 5.420,18.360 5.422 L 17.900 5.424 17.240 5.675 C 16.765 5.856,16.549 5.920,16.467 5.903 C 16.404 5.891,16.197 5.784,16.005 5.665 C 15.813 5.547,15.559 5.401,15.438 5.341 C 15.212 5.227,15.058 5.106,14.998 4.996 C 14.979 4.961,14.917 4.656,14.860 4.320 C 14.803 3.983,14.721 3.607,14.678 3.484 C 14.459 2.861,13.883 2.392,13.200 2.282 C 12.887 2.232,11.070 2.235,10.760 2.286 M12.948 8.381 C 13.321 8.476,13.825 8.704,14.158 8.931 C 14.392 9.090,14.910 9.608,15.069 9.842 C 15.296 10.176,15.524 10.679,15.627 11.072 C 15.772 11.627,15.772 12.373,15.627 12.928 C 15.525 13.319,15.298 13.820,15.070 14.158 C 14.863 14.465,14.279 15.005,13.928 15.215 C 13.495 15.474,12.923 15.666,12.408 15.727 C 11.626 15.819,10.767 15.631,10.072 15.215 C 9.721 15.005,9.137 14.465,8.930 14.158 C 8.702 13.820,8.475 13.319,8.373 12.928 C 8.228 12.373,8.228 11.627,8.373 11.072 C 8.829 9.328,10.410 8.169,12.200 8.267 C 12.409 8.279,12.746 8.330,12.948 8.381 " fill="#0F172A" stroke="none" fill-rule="evenodd"></path></svg>