<svg width="24" height="24" viewBox="0 0 24 24" fill="none" xmlns="http://www.w3.org/2000/svg"><path d="M11.508 2.284 C 11.172 2.333,10.794 2.528,10.523 2.793 C 10.179 3.131,10.025 3.479,9.919 4.160 C 9.865 4.509,9.735 4.760,9.550 4.873 C 9.280 5.039,8.727 5.240,8.540 5.240 C 8.324 5.240,8.229 5.195,7.741 4.862 C 7.320 4.574,7.090 4.484,6.700 4.453 C 6.085 4.403,5.588 4.616,5.074 5.150 C 4.610 5.632,4.441 6.008,4.440 6.566 C 4.440 6.964,4.562 7.301,4.868 7.753 C 5.309 8.401,5.327 8.513,5.081 9.103 C 4.807 9.762,4.727 9.824,4.001 9.955 C 3.434 10.056,3.104 10.210,2.797 10.517 C 2.422 10.891,2.240 11.377,2.240 12.000 C 2.240 12.572,2.402 13.049,2.719 13.409 C 3.037 13.771,3.415 13.954,4.069 14.063 C 4.513 14.137,4.752 14.252,4.872 14.450 C 5.025 14.701,5.240 15.280,5.240 15.442 C 5.240 15.658,5.179 15.790,4.868 16.247 C 4.562 16.699,4.440 17.036,4.440 17.434 C 4.441 17.990,4.610 18.368,5.069 18.845 C 5.557 19.351,5.992 19.558,6.566 19.560 C 6.964 19.560,7.301 19.438,7.753 19.132 C 8.210 18.821,8.342 18.760,8.558 18.760 C 8.720 18.760,9.299 18.975,9.550 19.128 C 9.748 19.248,9.863 19.487,9.937 19.931 C 10.046 20.585,10.229 20.963,10.591 21.281 C 10.951 21.598,11.428 21.760,12.000 21.760 C 12.572 21.760,13.049 21.598,13.409 21.281 C 13.771 20.963,13.954 20.585,14.063 19.931 C 14.137 19.487,14.252 19.248,14.450 19.128 C 14.701 18.975,15.280 18.760,15.442 18.760 C 15.658 18.760,15.790 18.821,16.247 19.132 C 16.699 19.439,17.036 19.560,17.437 19.560 C 17.998 19.560,18.452 19.343,18.929 18.845 C 19.390 18.365,19.559 17.987,19.560 17.434 C 19.560 17.039,19.438 16.698,19.137 16.253 C 18.795 15.749,18.760 15.676,18.760 15.462 C 18.760 15.279,18.963 14.720,19.128 14.450 C 19.248 14.252,19.487 14.137,19.931 14.063 C 20.585 13.954,20.963 13.771,21.281 13.409 C 21.599 13.049,21.760 12.565,21.760 11.975 C 21.760 11.378,21.572 10.885,21.203 10.517 C 20.896 10.210,20.566 10.056,19.999 9.955 C 19.273 9.824,19.193 9.762,18.919 9.103 C 18.746 8.687,18.717 8.439,18.819 8.242 C 18.851 8.179,18.994 7.957,19.137 7.747 C 19.438 7.302,19.560 6.961,19.560 6.566 C 19.559 6.011,19.390 5.636,18.924 5.150 C 18.413 4.617,17.915 4.403,17.300 4.453 C 16.910 4.484,16.680 4.574,16.259 4.862 C 15.771 5.195,15.676 5.240,15.460 5.240 C 15.273 5.240,14.720 5.039,14.450 4.873 C 14.265 4.760,14.135 4.509,14.081 4.160 C 13.975 3.479,13.821 3.131,13.477 2.793 C 13.004 2.331,12.348 2.161,11.508 2.284 M12.948 8.381 C 13.321 8.476,13.825 8.704,14.158 8.931 C 14.392 9.090,14.910 9.608,15.069 9.842 C 15.296 10.176,15.524 10.679,15.627 11.072 C 15.772 11.627,15.772 12.373,15.627 12.928 C 15.525 13.319,15.298 13.820,15.070 14.158 C 14.863 14.465,14.279 15.005,13.928 15.215 C 13.495 15.474,12.923 15.666,12.408 15.727 C 11.626 15.819,10.767 15.631,10.072 15.215 C 9.721 15.005,9.137 14.465,8.930 14.158 C 8.702 13.820,8.475 13.319,8.373 12.928 C 8.228 12.373,8.228 11.627,8.373 11.072 C 8.829 9.328,10.410 8.169,12.200 8.267 C 12.409 8.279,12.746 8.330,12.948 8.381 " fill="#0F172A" stroke="none" fill-rule="evenodd"></path></svg>