<svg width="24" height="24" viewBox="0 0 24 24" fill="none" xmlns="http://www.w3.org/2000/svg"><path d="M10.089 2.485 C 9.914 2.572,9.756 2.787,9.704 3.011 C 9.682 3.104,9.746 3.611,9.821 3.948 C 9.839 4.027,9.812 4.045,9.563 4.119 C 9.411 4.164,9.129 4.265,8.937 4.343 C 8.744 4.420,8.567 4.476,8.543 4.467 C 8.520 4.458,8.415 4.299,8.311 4.114 C 8.023 3.601,7.867 3.480,7.493 3.480 C 7.221 3.480,7.066 3.559,6.895 3.783 C 6.795 3.914,6.780 3.969,6.780 4.197 C 6.780 4.445,6.793 4.482,7.012 4.855 C 7.139 5.072,7.238 5.254,7.232 5.260 C 7.225 5.265,7.040 5.414,6.820 5.590 C 6.600 5.767,6.376 5.958,6.323 6.016 C 6.270 6.073,6.210 6.120,6.191 6.120 C 6.171 6.120,6.007 5.995,5.825 5.842 C 5.455 5.530,5.354 5.480,5.096 5.480 C 4.718 5.480,4.406 5.771,4.369 6.158 C 4.340 6.458,4.451 6.645,4.857 6.980 C 5.044 7.134,5.197 7.278,5.198 7.301 C 5.199 7.323,5.139 7.431,5.065 7.541 C 4.991 7.651,4.844 7.903,4.739 8.100 C 4.633 8.298,4.543 8.465,4.539 8.471 C 4.534 8.477,4.353 8.417,4.135 8.337 C 3.698 8.177,3.413 8.150,3.219 8.250 C 2.872 8.431,2.704 8.885,2.862 9.218 C 2.967 9.440,3.135 9.561,3.561 9.722 C 3.787 9.808,3.980 9.886,3.990 9.897 C 4.001 9.907,3.972 10.101,3.927 10.328 C 3.882 10.555,3.833 10.850,3.818 10.985 L 3.791 11.231 3.284 11.247 C 2.843 11.260,2.759 11.274,2.630 11.354 C 2.207 11.615,2.135 12.175,2.480 12.520 C 2.665 12.705,2.882 12.760,3.422 12.760 C 3.794 12.760,3.800 12.761,3.800 12.856 C 3.800 12.936,3.853 13.257,3.989 14.005 C 4.007 14.106,3.991 14.117,3.648 14.239 C 3.208 14.397,3.081 14.471,2.940 14.657 C 2.744 14.913,2.765 15.297,2.988 15.562 C 3.235 15.855,3.538 15.882,4.135 15.663 C 4.353 15.583,4.534 15.523,4.539 15.529 C 4.543 15.535,4.633 15.702,4.739 15.900 C 4.844 16.097,4.991 16.349,5.065 16.459 C 5.139 16.569,5.199 16.677,5.198 16.699 C 5.196 16.722,5.043 16.866,4.857 17.019 C 4.452 17.353,4.340 17.541,4.369 17.842 C 4.407 18.235,4.718 18.520,5.109 18.520 C 5.344 18.520,5.472 18.453,5.858 18.130 C 6.023 17.993,6.173 17.880,6.192 17.880 C 6.211 17.880,6.270 17.927,6.323 17.984 C 6.376 18.042,6.600 18.233,6.820 18.410 C 7.040 18.586,7.225 18.735,7.232 18.740 C 7.238 18.746,7.139 18.928,7.012 19.145 C 6.793 19.518,6.780 19.555,6.780 19.803 C 6.780 20.031,6.795 20.086,6.895 20.217 C 7.066 20.441,7.221 20.520,7.493 20.520 C 7.867 20.520,8.023 20.399,8.311 19.886 C 8.415 19.701,8.520 19.542,8.543 19.533 C 8.567 19.524,8.744 19.580,8.937 19.657 C 9.129 19.735,9.411 19.836,9.563 19.881 C 9.812 19.955,9.839 19.973,9.821 20.052 C 9.746 20.389,9.682 20.896,9.704 20.989 C 9.756 21.216,9.914 21.430,10.092 21.516 C 10.388 21.660,10.711 21.618,10.934 21.407 C 11.098 21.252,11.144 21.144,11.216 20.740 C 11.252 20.542,11.289 20.344,11.299 20.300 C 11.316 20.224,11.349 20.220,11.999 20.220 C 12.571 20.220,12.684 20.230,12.699 20.280 C 12.708 20.313,12.745 20.509,12.781 20.717 C 12.852 21.134,12.899 21.249,13.066 21.407 C 13.289 21.618,13.612 21.660,13.908 21.516 C 14.086 21.430,14.244 21.216,14.296 20.989 C 14.318 20.896,14.254 20.389,14.179 20.052 C 14.161 19.973,14.188 19.955,14.437 19.881 C 14.589 19.836,14.869 19.736,15.059 19.659 C 15.249 19.583,15.420 19.520,15.440 19.520 C 15.459 19.520,15.574 19.687,15.694 19.890 C 16.010 20.426,16.131 20.520,16.507 20.520 C 16.779 20.520,16.934 20.441,17.105 20.217 C 17.205 20.086,17.220 20.031,17.220 19.803 C 17.220 19.557,17.206 19.516,17.000 19.160 C 16.879 18.951,16.780 18.770,16.780 18.757 C 16.780 18.744,16.960 18.589,17.180 18.411 C 17.400 18.234,17.624 18.042,17.677 17.984 C 17.730 17.927,17.789 17.880,17.808 17.880 C 17.827 17.880,17.977 17.993,18.142 18.130 C 18.528 18.453,18.656 18.520,18.891 18.520 C 19.282 18.520,19.593 18.235,19.631 17.842 C 19.660 17.538,19.544 17.343,19.140 17.014 C 18.955 16.863,18.803 16.724,18.802 16.704 C 18.801 16.684,18.888 16.531,18.995 16.364 C 19.102 16.197,19.248 15.943,19.319 15.800 C 19.391 15.657,19.454 15.535,19.459 15.529 C 19.465 15.523,19.647 15.583,19.865 15.663 C 20.302 15.823,20.587 15.850,20.781 15.750 C 21.187 15.538,21.325 15.004,21.062 14.659 C 20.919 14.471,20.794 14.397,20.352 14.239 C 20.009 14.117,19.993 14.106,20.011 14.005 C 20.146 13.263,20.200 12.937,20.200 12.861 C 20.200 12.773,20.212 12.770,20.718 12.752 C 21.192 12.735,21.249 12.724,21.393 12.629 C 21.801 12.360,21.861 11.770,21.514 11.455 C 21.333 11.291,21.230 11.264,20.715 11.247 L 20.209 11.231 20.182 10.985 C 20.167 10.850,20.118 10.555,20.073 10.328 C 20.028 10.101,19.999 9.907,20.010 9.897 C 20.020 9.886,20.213 9.808,20.439 9.722 C 20.666 9.636,20.899 9.519,20.962 9.458 C 21.264 9.169,21.284 8.719,21.007 8.426 C 20.739 8.142,20.456 8.120,19.865 8.337 C 19.647 8.417,19.465 8.477,19.459 8.471 C 19.454 8.465,19.392 8.344,19.321 8.203 C 19.250 8.062,19.104 7.805,18.996 7.633 C 18.888 7.462,18.801 7.307,18.802 7.290 C 18.804 7.274,18.957 7.134,19.143 6.981 C 19.548 6.647,19.660 6.459,19.631 6.158 C 19.593 5.765,19.282 5.480,18.891 5.480 C 18.656 5.480,18.528 5.547,18.142 5.870 C 17.977 6.008,17.827 6.120,17.808 6.120 C 17.789 6.120,17.730 6.073,17.677 6.016 C 17.624 5.958,17.400 5.766,17.180 5.589 C 16.960 5.411,16.780 5.256,16.780 5.243 C 16.780 5.230,16.879 5.049,17.000 4.840 C 17.206 4.484,17.220 4.443,17.220 4.197 C 17.220 3.969,17.205 3.914,17.105 3.783 C 16.934 3.559,16.779 3.480,16.507 3.480 C 16.133 3.480,15.977 3.601,15.689 4.114 C 15.585 4.299,15.480 4.458,15.456 4.467 C 15.431 4.477,15.260 4.422,15.076 4.346 C 14.891 4.270,14.610 4.168,14.450 4.120 C 14.193 4.042,14.163 4.023,14.180 3.946 C 14.255 3.609,14.318 3.104,14.296 3.011 C 14.244 2.784,14.086 2.570,13.908 2.484 C 13.583 2.326,13.241 2.392,13.010 2.655 C 12.868 2.816,12.854 2.858,12.763 3.380 L 12.700 3.740 12.002 3.740 L 11.304 3.740 11.232 3.340 C 11.146 2.854,11.111 2.765,10.947 2.608 C 10.713 2.382,10.391 2.335,10.089 2.485 M12.672 5.283 C 16.714 5.727,19.446 9.488,18.594 13.436 C 18.168 15.410,16.840 17.116,15.019 18.030 C 11.109 19.993,6.397 17.760,5.417 13.480 C 4.783 10.711,6.004 7.791,8.434 6.263 C 9.644 5.503,11.263 5.128,12.672 5.283 M11.269 6.801 C 10.585 6.909,10.368 7.103,10.408 7.570 C 10.424 7.757,10.527 7.955,11.338 9.360 C 11.840 10.229,12.280 10.974,12.315 11.016 C 12.351 11.057,12.452 11.124,12.540 11.165 C 12.688 11.233,12.842 11.238,14.604 11.239 L 16.507 11.240 16.684 11.148 C 16.808 11.083,16.887 11.004,16.953 10.878 C 17.071 10.651,17.052 10.480,16.857 10.010 C 16.192 8.404,14.789 7.239,13.060 6.857 C 12.727 6.784,11.602 6.748,11.269 6.801 M8.238 8.370 C 7.899 8.598,7.256 9.640,7.025 10.332 C 6.827 10.929,6.780 11.247,6.780 12.000 C 6.780 12.753,6.827 13.071,7.025 13.668 C 7.256 14.360,7.899 15.402,8.238 15.630 C 8.395 15.736,8.703 15.752,8.872 15.664 C 9.062 15.564,9.175 15.401,9.761 14.380 C 10.077 13.830,10.485 13.120,10.668 12.802 C 10.971 12.274,11.000 12.206,11.000 12.009 C 11.000 11.891,10.980 11.755,10.955 11.707 C 10.740 11.290,9.164 8.594,9.084 8.506 C 8.934 8.343,8.791 8.280,8.568 8.280 C 8.431 8.280,8.332 8.307,8.238 8.370 M12.513 12.841 C 12.432 12.884,12.331 12.968,12.288 13.029 C 12.245 13.090,11.809 13.833,11.318 14.680 C 10.464 16.154,10.426 16.230,10.411 16.460 C 10.374 17.043,10.749 17.220,12.020 17.219 C 12.990 17.219,13.565 17.083,14.400 16.656 C 15.589 16.049,16.544 14.951,16.960 13.711 C 17.097 13.302,16.995 13.002,16.666 12.843 C 16.500 12.763,16.437 12.760,14.577 12.762 C 12.759 12.763,12.652 12.768,12.513 12.841 " fill="#0F172A" stroke="none" fill-rule="evenodd"></path></svg>