<svg width="24" height="24" viewBox="0 0 24 24" fill="none" xmlns="http://www.w3.org/2000/svg"><path d="M4.680 3.059 C 4.068 3.183,3.581 3.450,3.118 3.916 C 2.836 4.200,2.744 4.326,2.590 4.640 C 2.229 5.376,2.260 4.697,2.260 12.000 C 2.260 19.302,2.230 18.623,2.590 19.360 C 2.747 19.681,2.832 19.796,3.138 20.102 C 3.538 20.501,3.895 20.716,4.440 20.886 L 4.740 20.980 12.000 20.980 L 19.260 20.980 19.560 20.886 C 20.105 20.716,20.462 20.501,20.862 20.102 C 21.168 19.796,21.253 19.681,21.410 19.360 C 21.770 18.623,21.740 19.302,21.740 12.000 C 21.740 4.698,21.770 5.377,21.410 4.640 C 21.253 4.319,21.168 4.204,20.862 3.898 C 20.560 3.597,20.437 3.506,20.120 3.348 C 19.395 2.988,20.180 3.021,12.100 3.014 C 6.325 3.008,4.890 3.017,4.680 3.059 M7.052 6.824 C 7.210 6.903,9.581 9.255,9.668 9.419 C 9.768 9.606,9.750 9.922,9.629 10.127 C 9.572 10.222,8.989 10.832,8.333 11.483 C 7.104 12.702,7.031 12.760,6.724 12.760 C 6.602 12.760,6.359 12.652,6.245 12.548 C 6.119 12.432,6.002 12.173,6.001 12.009 C 5.999 11.736,6.107 11.596,7.030 10.671 L 7.938 9.762 7.014 8.831 C 6.022 7.831,5.972 7.760,6.011 7.415 C 6.065 6.930,6.627 6.612,7.052 6.824 M13.820 11.326 C 14.402 11.649,14.380 12.407,13.780 12.684 C 13.633 12.752,13.493 12.758,12.000 12.758 C 10.507 12.758,10.367 12.752,10.220 12.684 C 9.699 12.443,9.595 11.818,10.015 11.450 C 10.095 11.379,10.211 11.310,10.271 11.297 C 10.331 11.284,10.398 11.267,10.420 11.259 C 10.442 11.251,11.189 11.248,12.080 11.252 C 13.505 11.259,13.714 11.268,13.820 11.326 " fill="#0F172A" stroke="none" fill-rule="evenodd"></path></svg>