<svg width="24" height="24" viewBox="0 0 24 24" fill="none" xmlns="http://www.w3.org/2000/svg"><path d="M4.860 2.284 C 3.816 2.408,2.834 3.171,2.467 4.146 C 2.250 4.721,2.260 4.432,2.260 10.140 C 2.260 16.154,2.232 15.628,2.590 16.360 C 2.747 16.681,2.832 16.796,3.138 17.102 C 3.529 17.493,3.877 17.705,4.420 17.885 C 4.693 17.975,4.744 17.978,6.470 17.991 L 8.240 18.005 8.240 18.260 C 8.240 18.616,8.176 18.890,8.012 19.236 C 7.897 19.477,7.781 19.625,7.373 20.047 C 7.099 20.331,6.849 20.625,6.817 20.700 C 6.656 21.086,6.826 21.502,7.220 21.684 C 7.373 21.755,7.587 21.758,12.000 21.758 C 16.413 21.758,16.627 21.755,16.780 21.684 C 17.174 21.502,17.344 21.086,17.183 20.700 C 17.151 20.625,16.901 20.331,16.627 20.047 C 16.219 19.625,16.103 19.477,15.988 19.236 C 15.824 18.890,15.760 18.616,15.760 18.260 L 15.760 18.005 17.530 17.991 C 19.256 17.978,19.307 17.975,19.580 17.885 C 20.123 17.705,20.471 17.493,20.862 17.102 C 21.168 16.796,21.253 16.681,21.410 16.360 C 21.766 15.632,21.736 16.168,21.750 10.282 C 21.761 5.705,21.754 5.024,21.700 4.734 C 21.451 3.405,20.414 2.432,19.081 2.280 C 18.662 2.232,5.267 2.235,4.860 2.284 M19.369 3.888 C 19.663 4.025,19.975 4.337,20.112 4.631 L 20.220 4.860 20.220 9.000 L 20.220 13.140 20.116 13.360 C 19.961 13.686,19.718 13.936,19.409 14.089 L 19.142 14.220 12.000 14.220 L 4.858 14.220 4.591 14.089 C 4.282 13.936,4.039 13.686,3.884 13.360 L 3.780 13.140 3.780 9.000 L 3.780 4.860 3.871 4.663 C 4.054 4.266,4.373 3.972,4.772 3.834 C 4.970 3.766,5.329 3.763,12.060 3.771 L 19.140 3.780 19.369 3.888 " fill="#0F172A" stroke="none" fill-rule="evenodd"></path></svg>