<svg width="24" height="24" viewBox="0 0 24 24" fill="none" xmlns="http://www.w3.org/2000/svg"><path d="M8.094 2.278 C 7.905 2.323,7.709 2.459,7.620 2.607 C 7.555 2.715,7.536 2.835,7.520 3.240 L 7.500 3.740 6.860 3.763 C 6.118 3.791,5.949 3.827,5.460 4.061 C 4.811 4.373,4.373 4.811,4.061 5.460 C 3.827 5.949,3.791 6.118,3.763 6.860 L 3.740 7.500 3.240 7.520 C 2.816 7.537,2.718 7.553,2.598 7.628 C 2.211 7.869,2.152 8.476,2.487 8.788 C 2.663 8.953,2.848 9.000,3.319 9.000 L 3.760 9.000 3.760 10.115 L 3.760 11.230 3.265 11.247 C 2.811 11.262,2.756 11.272,2.609 11.369 C 2.374 11.525,2.267 11.722,2.267 12.000 C 2.267 12.278,2.374 12.475,2.609 12.631 C 2.756 12.728,2.811 12.738,3.265 12.753 L 3.760 12.770 3.760 13.885 L 3.760 15.000 3.319 15.000 C 2.848 15.000,2.663 15.047,2.487 15.212 C 2.152 15.524,2.211 16.131,2.598 16.372 C 2.718 16.447,2.816 16.463,3.240 16.480 L 3.740 16.500 3.763 17.140 C 3.791 17.882,3.827 18.051,4.061 18.540 C 4.373 19.189,4.811 19.627,5.460 19.939 C 5.949 20.173,6.118 20.209,6.860 20.237 L 7.500 20.260 7.520 20.760 C 7.537 21.184,7.553 21.282,7.628 21.402 C 7.869 21.789,8.476 21.848,8.788 21.513 C 8.953 21.337,9.000 21.152,9.000 20.681 L 9.000 20.240 10.115 20.240 L 11.230 20.240 11.247 20.732 C 11.261 21.160,11.275 21.243,11.356 21.374 C 11.504 21.614,11.719 21.733,12.000 21.733 C 12.281 21.733,12.496 21.614,12.644 21.374 C 12.725 21.243,12.739 21.160,12.753 20.732 L 12.770 20.240 13.885 20.240 L 15.000 20.240 15.000 20.681 C 15.000 21.152,15.047 21.337,15.212 21.513 C 15.524 21.848,16.131 21.789,16.372 21.402 C 16.447 21.282,16.463 21.184,16.480 20.760 L 16.500 20.260 17.140 20.237 C 17.882 20.209,18.051 20.173,18.540 19.939 C 19.189 19.627,19.627 19.189,19.939 18.540 C 20.173 18.051,20.209 17.882,20.237 17.140 L 20.260 16.500 20.760 16.480 C 21.184 16.463,21.282 16.447,21.402 16.372 C 21.789 16.131,21.848 15.524,21.513 15.212 C 21.337 15.047,21.152 15.000,20.681 15.000 L 20.240 15.000 20.240 13.885 L 20.240 12.770 20.735 12.753 C 21.189 12.738,21.244 12.728,21.391 12.631 C 21.626 12.475,21.733 12.278,21.733 12.000 C 21.733 11.722,21.626 11.525,21.391 11.369 C 21.244 11.272,21.189 11.262,20.735 11.247 L 20.240 11.230 20.240 10.115 L 20.240 9.000 20.681 9.000 C 21.152 9.000,21.337 8.953,21.513 8.788 C 21.848 8.476,21.789 7.869,21.402 7.628 C 21.282 7.553,21.184 7.537,20.760 7.520 L 20.260 7.500 20.237 6.860 C 20.209 6.118,20.173 5.949,19.939 5.460 C 19.627 4.811,19.189 4.373,18.540 4.061 C 18.051 3.827,17.882 3.791,17.140 3.763 L 16.500 3.740 16.480 3.240 C 16.463 2.816,16.447 2.718,16.372 2.598 C 16.131 2.211,15.524 2.152,15.212 2.487 C 15.047 2.663,15.000 2.848,15.000 3.319 L 15.000 3.760 13.885 3.760 L 12.770 3.760 12.753 3.265 C 12.738 2.811,12.728 2.756,12.631 2.609 C 12.474 2.373,12.278 2.267,11.997 2.267 C 11.719 2.267,11.504 2.388,11.356 2.626 C 11.275 2.757,11.261 2.840,11.247 3.268 L 11.230 3.760 10.115 3.760 L 9.000 3.760 9.000 3.319 C 9.000 2.848,8.953 2.663,8.788 2.487 C 8.619 2.306,8.336 2.221,8.094 2.278 M17.481 6.040 C 17.658 6.089,17.909 6.341,17.961 6.522 C 18.014 6.710,18.014 17.290,17.961 17.478 C 17.909 17.659,17.658 17.911,17.481 17.960 C 17.288 18.014,6.709 18.014,6.522 17.961 C 6.341 17.909,6.089 17.658,6.040 17.481 C 5.986 17.289,5.986 6.711,6.040 6.519 C 6.086 6.351,6.339 6.091,6.503 6.042 C 6.669 5.992,17.303 5.990,17.481 6.040 M7.490 12.010 L 7.500 16.500 12.000 16.500 L 16.500 16.500 16.510 12.010 L 16.520 7.520 12.000 7.520 L 7.480 7.520 7.490 12.010 " fill="#0F172A" stroke="none" fill-rule="evenodd"></path></svg>