<svg width="24" height="24" viewBox="0 0 24 24" fill="none" xmlns="http://www.w3.org/2000/svg"><path d="M3.860 3.826 C 2.849 4.041,1.969 4.836,1.658 5.814 C 1.543 6.178,1.470 6.770,1.488 7.200 L 1.500 7.500 12.000 7.500 L 22.500 7.500 22.512 7.200 C 22.530 6.770,22.457 6.178,22.342 5.814 C 22.028 4.824,21.142 4.034,20.112 3.823 C 19.837 3.767,18.951 3.760,11.972 3.763 C 5.199 3.766,4.102 3.775,3.860 3.826 M1.529 13.810 L 1.540 17.860 1.646 18.171 C 1.995 19.194,2.858 19.966,3.888 20.177 C 4.163 20.233,5.055 20.240,12.000 20.240 C 20.823 20.240,20.118 20.266,20.837 19.914 C 21.187 19.743,21.306 19.658,21.581 19.385 C 21.952 19.016,22.197 18.632,22.354 18.171 L 22.460 17.860 22.471 13.810 L 22.482 9.760 12.000 9.760 L 1.518 9.760 1.529 13.810 M11.590 12.845 C 11.850 12.971,11.980 13.189,11.980 13.500 C 11.980 13.811,11.850 14.029,11.590 14.155 C 11.416 14.239,11.393 14.240,8.246 14.240 C 4.754 14.240,4.924 14.252,4.690 13.985 C 4.582 13.863,4.490 13.603,4.510 13.480 C 4.512 13.469,4.524 13.393,4.537 13.311 C 4.565 13.137,4.764 12.892,4.939 12.816 C 5.036 12.774,5.702 12.763,8.237 12.762 C 11.395 12.760,11.416 12.761,11.590 12.845 M8.590 15.845 C 8.850 15.971,8.980 16.189,8.980 16.500 C 8.980 16.811,8.850 17.029,8.590 17.155 C 8.420 17.237,8.365 17.240,6.746 17.240 C 4.901 17.240,4.915 17.242,4.690 16.985 C 4.582 16.863,4.490 16.603,4.510 16.480 C 4.512 16.469,4.524 16.393,4.537 16.311 C 4.565 16.137,4.764 15.892,4.939 15.816 C 5.033 15.775,5.442 15.763,6.737 15.762 C 8.367 15.760,8.420 15.762,8.590 15.845 " fill="#0F172A" stroke="none" fill-rule="evenodd"></path></svg>