<svg width="24" height="24" viewBox="0 0 24 24" fill="none" xmlns="http://www.w3.org/2000/svg"><path d="M11.338 1.772 C 9.441 2.864,3.040 6.615,3.041 6.635 C 3.041 6.649,5.057 7.835,7.521 9.272 L 12.000 11.883 16.479 9.272 C 18.943 7.835,20.959 6.649,20.959 6.635 C 20.960 6.615,14.559 2.864,12.662 1.772 C 12.267 1.545,12.202 1.520,12.000 1.520 C 11.798 1.520,11.733 1.545,11.338 1.772 M2.240 12.250 C 2.240 15.190,2.254 16.589,2.284 16.695 C 2.307 16.780,2.393 16.918,2.473 17.001 C 2.571 17.102,4.043 17.981,6.840 19.610 C 9.161 20.962,11.101 22.089,11.150 22.115 L 11.240 22.163 11.240 17.670 L 11.240 13.177 6.768 10.568 C 4.309 9.134,2.284 7.960,2.268 7.960 C 2.253 7.960,2.240 9.890,2.240 12.250 M17.230 10.569 L 12.760 13.177 12.760 17.670 L 12.760 22.163 12.850 22.115 C 12.900 22.089,14.839 20.962,17.160 19.610 C 19.957 17.981,21.429 17.102,21.527 17.001 C 21.607 16.918,21.693 16.780,21.716 16.695 C 21.766 16.515,21.780 7.960,21.730 7.960 C 21.713 7.961,19.689 9.134,17.230 10.569 " fill="#0F172A" stroke="none" fill-rule="evenodd"></path></svg>