<svg width="24" height="24" viewBox="0 0 24 24" fill="none" xmlns="http://www.w3.org/2000/svg"><path d="M11.660 1.588 C 11.239 1.813,9.323 2.946,9.245 3.016 C 9.117 3.128,9.002 3.388,9.002 3.560 C 9.002 3.865,9.239 4.181,9.543 4.281 C 9.810 4.369,9.966 4.307,11.010 3.697 L 12.000 3.119 12.990 3.697 C 14.034 4.307,14.190 4.369,14.457 4.281 C 14.761 4.181,14.998 3.865,14.998 3.560 C 14.998 3.388,14.883 3.128,14.755 3.016 C 14.671 2.941,12.661 1.755,12.332 1.586 C 12.169 1.502,11.818 1.503,11.660 1.588 M5.001 5.482 C 4.779 5.576,2.557 6.894,2.464 6.987 C 2.249 7.202,2.236 7.308,2.248 8.680 C 2.259 9.868,2.265 9.949,2.344 10.100 C 2.538 10.473,3.025 10.600,3.388 10.375 C 3.683 10.191,3.738 10.045,3.753 9.390 C 3.760 9.088,3.774 8.840,3.784 8.840 C 3.794 8.840,4.075 8.998,4.408 9.190 C 4.991 9.526,5.024 9.540,5.260 9.540 C 5.454 9.540,5.535 9.520,5.647 9.444 C 5.964 9.226,6.078 8.848,5.928 8.508 C 5.834 8.297,5.761 8.241,5.026 7.812 C 4.743 7.647,4.527 7.498,4.546 7.480 C 4.565 7.462,4.832 7.300,5.140 7.121 C 5.790 6.741,5.855 6.688,5.944 6.454 C 6.068 6.130,5.950 5.765,5.658 5.564 C 5.508 5.462,5.153 5.418,5.001 5.482 M18.497 5.483 C 18.430 5.502,18.309 5.585,18.228 5.666 C 17.997 5.896,17.941 6.207,18.075 6.500 C 18.173 6.712,18.208 6.740,18.860 7.121 C 19.168 7.300,19.435 7.462,19.454 7.480 C 19.473 7.498,19.257 7.647,18.974 7.812 C 18.239 8.241,18.166 8.297,18.072 8.508 C 17.922 8.848,18.036 9.226,18.353 9.444 C 18.465 9.520,18.546 9.540,18.740 9.540 C 18.976 9.540,19.009 9.526,19.592 9.190 C 19.925 8.997,20.206 8.840,20.216 8.840 C 20.226 8.840,20.240 9.088,20.247 9.390 C 20.262 10.045,20.317 10.191,20.612 10.375 C 20.975 10.600,21.462 10.473,21.656 10.100 C 21.735 9.949,21.741 9.868,21.752 8.680 C 21.765 7.280,21.754 7.203,21.510 6.973 C 21.383 6.853,19.267 5.601,19.012 5.494 C 18.867 5.434,18.681 5.430,18.497 5.483 M9.506 10.736 C 9.221 10.842,9.003 11.142,9.001 11.431 C 9.000 11.592,9.095 11.828,9.210 11.951 C 9.258 12.001,9.734 12.298,10.268 12.610 L 11.240 13.177 11.240 14.118 C 11.240 14.643,11.259 15.126,11.282 15.209 C 11.390 15.599,11.802 15.827,12.202 15.719 C 12.422 15.660,12.656 15.432,12.715 15.219 C 12.742 15.124,12.760 14.682,12.760 14.118 L 12.760 13.177 13.732 12.610 C 14.266 12.298,14.742 12.001,14.790 11.951 C 14.905 11.828,15.000 11.592,14.999 11.431 C 14.996 11.000,14.544 10.622,14.125 10.700 C 14.046 10.715,13.536 10.987,12.991 11.305 L 12.000 11.883 11.002 11.301 C 9.929 10.675,9.801 10.627,9.506 10.736 M2.595 13.635 C 2.269 13.842,2.262 13.875,2.248 15.320 C 2.235 16.720,2.246 16.796,2.490 17.028 C 2.622 17.153,4.719 18.393,4.990 18.507 C 5.293 18.633,5.676 18.510,5.873 18.222 C 6.055 17.956,6.014 17.498,5.789 17.290 C 5.740 17.244,5.268 16.955,4.740 16.648 L 3.780 16.088 3.760 15.074 C 3.737 13.905,3.719 13.834,3.405 13.635 C 3.262 13.544,3.178 13.520,3.000 13.520 C 2.822 13.520,2.738 13.544,2.595 13.635 M20.595 13.635 C 20.281 13.834,20.263 13.905,20.240 15.074 L 20.220 16.088 19.260 16.648 C 18.732 16.955,18.260 17.244,18.211 17.290 C 17.986 17.498,17.945 17.956,18.127 18.222 C 18.324 18.510,18.707 18.633,19.010 18.507 C 19.281 18.393,21.378 17.153,21.510 17.028 C 21.754 16.796,21.765 16.720,21.752 15.320 C 21.738 13.875,21.731 13.842,21.405 13.635 C 21.262 13.544,21.178 13.520,21.000 13.520 C 20.822 13.520,20.738 13.544,20.595 13.635 M11.720 18.805 C 11.665 18.827,11.569 18.893,11.506 18.952 C 11.291 19.157,11.262 19.256,11.240 19.865 L 11.220 20.431 10.620 20.078 C 10.290 19.884,9.955 19.714,9.875 19.700 C 9.446 19.625,9.002 20.001,9.002 20.440 C 9.002 20.612,9.117 20.871,9.245 20.986 C 9.400 21.125,11.683 22.438,11.848 22.482 C 11.952 22.510,12.048 22.510,12.152 22.482 C 12.317 22.438,14.600 21.125,14.755 20.986 C 14.883 20.871,14.998 20.612,14.998 20.440 C 14.998 20.001,14.554 19.625,14.125 19.700 C 14.045 19.714,13.710 19.884,13.380 20.078 L 12.780 20.431 12.760 19.865 C 12.738 19.256,12.709 19.157,12.494 18.953 C 12.431 18.893,12.329 18.826,12.267 18.803 C 12.129 18.750,11.854 18.751,11.720 18.805 " fill="#0F172A" stroke="none" fill-rule="evenodd"></path></svg>