<svg width="24" height="24" viewBox="0 0 24 24" fill="none" xmlns="http://www.w3.org/2000/svg"><path d="M11.340 2.281 C 9.465 2.398,7.651 3.078,6.084 4.252 C 5.591 4.621,4.621 5.591,4.252 6.084 C 3.447 7.159,2.885 8.320,2.558 9.588 C 2.170 11.092,2.170 12.908,2.558 14.412 C 3.452 17.876,6.124 20.548,9.588 21.442 C 10.363 21.642,11.077 21.727,11.980 21.727 C 13.185 21.726,14.008 21.597,15.088 21.238 C 17.994 20.272,20.272 17.993,21.239 15.085 C 21.595 14.014,21.726 13.182,21.726 12.000 C 21.726 10.817,21.595 9.987,21.238 8.912 C 20.064 5.380,16.964 2.822,13.280 2.345 C 12.683 2.268,11.941 2.243,11.340 2.281 M12.209 5.282 C 12.291 5.304,12.413 5.370,12.480 5.426 C 12.695 5.607,12.735 5.731,12.758 6.295 L 12.780 6.809 13.120 6.905 C 13.836 7.105,14.846 7.746,15.068 8.140 C 15.310 8.568,15.032 9.148,14.548 9.226 C 14.289 9.268,14.134 9.208,13.749 8.915 C 13.404 8.651,13.059 8.447,12.850 8.383 L 12.760 8.355 12.760 9.830 L 12.760 11.305 13.070 11.377 C 13.786 11.543,14.449 11.900,14.909 12.367 C 15.239 12.702,15.344 12.845,15.502 13.181 C 16.263 14.798,15.188 16.584,13.141 17.100 L 12.780 17.192 12.758 17.706 C 12.735 18.269,12.695 18.393,12.480 18.574 C 12.365 18.671,12.135 18.760,12.000 18.760 C 11.865 18.760,11.635 18.671,11.520 18.574 C 11.305 18.393,11.265 18.269,11.242 17.706 L 11.220 17.192 10.859 17.100 C 10.424 16.991,10.007 16.818,9.696 16.619 C 9.393 16.426,8.563 15.795,8.452 15.674 C 8.353 15.567,8.240 15.320,8.240 15.211 C 8.241 14.940,8.466 14.595,8.708 14.494 C 8.875 14.424,9.128 14.425,9.291 14.496 C 9.362 14.527,9.662 14.733,9.959 14.955 C 10.495 15.355,10.862 15.567,11.110 15.619 L 11.240 15.646 11.240 14.169 L 11.240 12.692 10.900 12.602 C 9.745 12.297,8.861 11.508,8.530 10.487 C 8.404 10.097,8.390 9.514,8.496 9.120 C 8.781 8.069,9.658 7.253,10.880 6.906 L 11.220 6.809 11.242 6.295 C 11.265 5.749,11.301 5.625,11.492 5.447 C 11.598 5.348,11.845 5.245,11.980 5.242 C 12.024 5.241,12.127 5.259,12.209 5.282 M10.851 8.520 C 10.482 8.704,10.173 8.988,10.035 9.268 C 9.890 9.562,9.900 9.986,10.059 10.274 C 10.256 10.632,10.737 11.002,11.132 11.101 L 11.240 11.129 11.240 9.744 C 11.240 8.969,11.224 8.360,11.205 8.360 C 11.185 8.360,11.026 8.432,10.851 8.520 M12.760 14.240 C 12.760 15.113,12.775 15.640,12.799 15.640 C 12.909 15.640,13.253 15.492,13.506 15.336 C 13.843 15.128,14.015 14.944,14.151 14.647 C 14.233 14.467,14.247 14.389,14.230 14.183 C 14.219 14.048,14.180 13.877,14.142 13.804 C 14.039 13.605,13.767 13.325,13.528 13.171 C 13.355 13.060,12.857 12.840,12.779 12.840 C 12.769 12.840,12.760 13.470,12.760 14.240 " fill="#0F172A" stroke="none" fill-rule="evenodd"></path></svg>