<svg width="24" height="24" viewBox="0 0 24 24" fill="none" xmlns="http://www.w3.org/2000/svg"><path d="M11.340 2.281 C 9.465 2.398,7.649 3.079,6.084 4.252 C 5.583 4.627,4.616 5.596,4.245 6.092 C 3.236 7.444,2.622 8.895,2.353 10.572 C 2.239 11.277,2.230 12.591,2.333 13.300 C 2.582 15.004,3.215 16.530,4.245 17.908 C 4.622 18.412,5.588 19.378,6.092 19.755 C 7.471 20.785,9.000 21.420,10.700 21.666 C 11.033 21.714,11.432 21.736,12.000 21.736 C 13.556 21.736,14.894 21.430,16.260 20.762 C 17.312 20.247,18.030 19.732,18.881 18.881 C 19.732 18.030,20.248 17.311,20.761 16.260 C 22.377 12.955,21.991 9.058,19.755 6.096 C 18.214 4.055,15.834 2.676,13.280 2.345 C 12.683 2.268,11.941 2.243,11.340 2.281 M9.292 6.814 C 9.363 6.844,9.475 6.930,9.541 7.006 C 9.606 7.082,10.182 7.930,10.820 8.891 C 11.458 9.852,11.989 10.638,12.000 10.638 C 12.011 10.638,12.542 9.852,13.180 8.891 C 13.818 7.930,14.394 7.082,14.459 7.006 C 14.728 6.695,15.196 6.671,15.494 6.953 C 15.688 7.137,15.749 7.318,15.727 7.649 C 15.723 7.717,15.288 8.406,14.562 9.496 L 13.405 11.234 14.315 11.247 L 15.226 11.260 15.388 11.367 C 15.628 11.526,15.733 11.721,15.733 12.007 C 15.733 12.203,15.714 12.271,15.616 12.409 C 15.385 12.738,15.382 12.738,13.990 12.752 L 12.760 12.764 12.760 13.500 L 12.760 14.235 13.993 14.247 L 15.226 14.260 15.388 14.367 C 15.628 14.526,15.733 14.721,15.733 15.007 C 15.733 15.203,15.714 15.271,15.616 15.409 C 15.385 15.738,15.382 15.738,13.993 15.752 L 12.767 15.764 12.753 16.612 C 12.738 17.519,12.724 17.592,12.513 17.788 C 12.391 17.903,12.155 18.000,12.000 18.000 C 11.845 18.000,11.609 17.903,11.487 17.788 C 11.276 17.592,11.262 17.519,11.247 16.612 L 11.233 15.764 10.007 15.752 C 8.618 15.738,8.615 15.738,8.384 15.409 C 8.286 15.271,8.267 15.203,8.267 15.007 C 8.267 14.721,8.372 14.526,8.612 14.367 L 8.774 14.260 10.007 14.247 L 11.240 14.235 11.240 13.500 L 11.240 12.764 10.010 12.752 C 8.618 12.738,8.615 12.738,8.384 12.409 C 8.286 12.271,8.267 12.203,8.267 12.007 C 8.267 11.721,8.372 11.526,8.612 11.367 L 8.774 11.260 9.685 11.247 L 10.595 11.234 9.438 9.496 C 8.714 8.409,8.277 7.717,8.273 7.649 C 8.263 7.503,8.272 7.359,8.299 7.251 C 8.330 7.124,8.557 6.878,8.699 6.816 C 8.857 6.747,9.130 6.746,9.292 6.814 " fill="#0F172A" stroke="none" fill-rule="evenodd"></path></svg>