<svg width="24" height="24" viewBox="0 0 24 24" fill="none" xmlns="http://www.w3.org/2000/svg"><path d="M11.340 2.281 C 9.465 2.398,7.649 3.079,6.084 4.252 C 5.583 4.627,4.616 5.596,4.245 6.092 C 3.236 7.444,2.622 8.895,2.353 10.572 C 2.239 11.277,2.230 12.591,2.333 13.300 C 2.582 15.004,3.215 16.530,4.245 17.908 C 4.622 18.412,5.588 19.378,6.092 19.755 C 7.471 20.785,9.000 21.420,10.700 21.666 C 11.033 21.714,11.432 21.736,12.000 21.736 C 13.556 21.736,14.894 21.430,16.260 20.762 C 17.312 20.247,18.030 19.732,18.881 18.881 C 19.732 18.030,20.248 17.311,20.761 16.260 C 22.377 12.955,21.991 9.058,19.755 6.096 C 18.214 4.055,15.834 2.676,13.280 2.345 C 12.683 2.268,11.941 2.243,11.340 2.281 M13.860 6.875 C 14.561 7.028,14.803 7.166,14.938 7.489 C 15.107 7.894,14.867 8.364,14.428 8.484 C 14.289 8.522,14.215 8.518,14.000 8.459 C 13.450 8.308,13.244 8.277,12.780 8.275 C 12.476 8.273,12.183 8.297,11.980 8.339 C 11.256 8.490,10.555 8.883,10.038 9.428 L 9.741 9.740 11.361 9.760 C 13.166 9.782,13.126 9.776,13.348 10.067 C 13.447 10.196,13.460 10.248,13.460 10.503 C 13.460 10.766,13.449 10.806,13.339 10.942 C 13.089 11.251,13.176 11.240,11.011 11.240 L 9.082 11.240 9.051 11.350 C 9.011 11.493,9.011 12.507,9.051 12.650 L 9.082 12.760 11.002 12.760 C 12.841 12.760,12.930 12.763,13.079 12.840 C 13.328 12.967,13.454 13.165,13.471 13.455 C 13.487 13.745,13.412 13.913,13.182 14.099 L 13.033 14.220 11.388 14.240 L 9.744 14.260 10.001 14.534 C 10.616 15.192,11.289 15.550,12.197 15.701 C 12.720 15.789,13.133 15.764,13.763 15.605 C 14.233 15.486,14.424 15.483,14.620 15.589 C 14.825 15.700,15.001 16.006,14.999 16.249 C 14.998 16.432,14.875 16.684,14.724 16.810 C 14.322 17.149,12.846 17.341,11.895 17.179 C 11.146 17.052,10.317 16.713,9.729 16.294 C 9.129 15.866,8.499 15.162,8.155 14.536 L 7.993 14.240 7.675 14.240 C 7.203 14.240,6.976 14.127,6.835 13.820 C 6.711 13.550,6.760 13.201,6.952 12.986 C 7.039 12.887,7.311 12.762,7.440 12.761 L 7.540 12.760 7.540 12.000 L 7.540 11.240 7.449 11.240 C 7.333 11.240,7.087 11.138,6.986 11.048 C 6.783 10.869,6.708 10.483,6.822 10.210 C 6.959 9.882,7.184 9.762,7.666 9.761 L 7.993 9.760 8.152 9.470 C 8.817 8.260,10.057 7.282,11.360 6.938 C 12.105 6.742,13.137 6.716,13.860 6.875 " fill="#0F172A" stroke="none" fill-rule="evenodd"></path></svg>