<svg width="24" height="24" viewBox="0 0 24 24" fill="none" xmlns="http://www.w3.org/2000/svg"><path d="M11.340 2.281 C 9.465 2.398,7.649 3.079,6.084 4.252 C 5.583 4.627,4.616 5.596,4.245 6.092 C 3.236 7.444,2.622 8.895,2.353 10.572 C 2.239 11.277,2.230 12.591,2.333 13.300 C 2.582 15.004,3.215 16.530,4.245 17.908 C 4.622 18.412,5.588 19.378,6.092 19.755 C 7.471 20.785,9.000 21.420,10.700 21.666 C 11.033 21.714,11.432 21.736,12.000 21.736 C 13.556 21.736,14.894 21.430,16.260 20.762 C 17.312 20.247,18.030 19.732,18.881 18.881 C 19.732 18.030,20.248 17.311,20.761 16.260 C 22.377 12.955,21.991 9.058,19.755 6.096 C 18.214 4.055,15.834 2.676,13.280 2.345 C 12.683 2.268,11.941 2.243,11.340 2.281 M9.651 6.619 C 9.924 6.755,10.249 7.084,10.372 7.350 C 10.454 7.527,10.461 7.615,10.480 8.640 L 10.500 9.740 13.240 9.760 C 15.691 9.778,15.993 9.787,16.100 9.846 C 16.361 9.990,16.480 10.199,16.480 10.513 C 16.480 10.744,16.381 10.938,16.182 11.099 L 16.033 11.220 13.266 11.240 L 10.500 11.260 10.489 13.560 C 10.482 14.825,10.488 15.920,10.501 15.993 C 10.522 16.109,10.555 16.140,10.752 16.227 C 11.808 16.695,13.023 16.536,13.895 15.817 C 14.041 15.696,14.242 15.495,14.342 15.369 C 14.540 15.119,14.826 14.574,14.864 14.374 L 14.889 14.247 14.428 14.234 C 13.983 14.220,13.962 14.216,13.814 14.097 C 13.616 13.939,13.520 13.748,13.520 13.513 C 13.520 13.183,13.642 12.983,13.935 12.833 C 14.075 12.761,14.154 12.755,14.735 12.767 C 15.355 12.779,15.389 12.785,15.619 12.898 C 16.086 13.127,16.384 13.539,16.425 14.013 C 16.452 14.327,16.311 14.897,16.088 15.372 C 15.115 17.450,12.775 18.480,10.620 17.779 C 9.680 17.474,9.244 17.080,9.060 16.372 C 9.010 16.181,9.000 15.736,9.000 13.692 L 9.000 11.240 8.529 11.240 C 7.996 11.240,7.867 11.196,7.666 10.949 C 7.470 10.706,7.470 10.273,7.667 10.039 C 7.857 9.813,8.022 9.760,8.538 9.760 L 9.000 9.760 9.000 8.862 L 9.000 7.963 8.711 8.102 C 8.263 8.316,7.950 8.281,7.691 7.987 C 7.470 7.735,7.459 7.307,7.668 7.049 C 7.794 6.894,8.141 6.686,8.487 6.557 C 8.811 6.437,9.340 6.465,9.651 6.619 " fill="#0F172A" stroke="none" fill-rule="evenodd"></path></svg>