<svg width="24" height="24" viewBox="0 0 24 24" fill="none" xmlns="http://www.w3.org/2000/svg"><path d="M11.340 2.281 C 9.465 2.398,7.649 3.079,6.084 4.252 C 5.583 4.627,4.616 5.596,4.245 6.092 C 3.236 7.444,2.622 8.895,2.353 10.572 C 2.239 11.277,2.230 12.591,2.333 13.300 C 2.582 15.004,3.215 16.530,4.245 17.908 C 4.622 18.412,5.588 19.378,6.092 19.755 C 7.471 20.785,9.000 21.420,10.700 21.666 C 11.033 21.714,11.432 21.736,12.000 21.736 C 13.556 21.736,14.894 21.430,16.260 20.762 C 17.312 20.247,18.030 19.732,18.881 18.881 C 19.732 18.030,20.248 17.311,20.761 16.260 C 22.377 12.955,21.991 9.058,19.755 6.096 C 18.214 4.055,15.834 2.676,13.280 2.345 C 12.683 2.268,11.941 2.243,11.340 2.281 M15.377 7.616 C 15.787 7.856,15.858 8.466,15.513 8.788 C 15.312 8.976,15.176 9.000,14.317 9.000 L 13.512 9.000 13.598 9.130 C 13.774 9.398,13.977 9.831,14.081 10.160 L 14.188 10.500 14.724 10.520 C 15.186 10.537,15.280 10.552,15.402 10.628 C 15.789 10.869,15.848 11.476,15.513 11.788 C 15.333 11.956,15.154 12.000,14.646 12.000 L 14.170 12.000 14.102 12.270 C 13.885 13.138,13.151 14.066,12.309 14.536 C 12.019 14.698,11.427 14.903,11.140 14.940 C 11.030 14.954,10.914 14.974,10.883 14.985 C 10.846 14.997,11.137 15.317,11.708 15.892 C 12.194 16.380,12.622 16.843,12.661 16.919 C 12.748 17.091,12.752 17.422,12.670 17.581 C 12.489 17.927,12.079 18.083,11.729 17.939 C 11.561 17.869,8.439 14.784,8.332 14.581 C 8.167 14.271,8.304 13.802,8.610 13.625 C 8.776 13.529,8.805 13.526,9.820 13.508 C 10.960 13.488,11.094 13.466,11.558 13.231 C 11.883 13.066,12.296 12.660,12.470 12.333 C 12.542 12.199,12.600 12.069,12.600 12.044 C 12.600 12.013,12.076 12.000,10.739 12.000 C 8.736 12.000,8.711 11.998,8.487 11.788 C 8.142 11.466,8.213 10.856,8.623 10.616 L 8.787 10.520 10.698 10.520 L 12.609 10.520 12.581 10.410 C 12.489 10.042,11.958 9.468,11.502 9.244 C 11.088 9.040,10.815 9.001,9.789 9.001 C 8.816 9.000,8.692 8.980,8.487 8.788 C 8.144 8.468,8.212 7.861,8.619 7.617 L 8.780 7.521 11.996 7.520 L 15.213 7.520 15.377 7.616 " fill="#0F172A" stroke="none" fill-rule="evenodd"></path></svg>