<svg width="24" height="24" viewBox="0 0 24 24" fill="none" xmlns="http://www.w3.org/2000/svg"><path d="M11.340 2.281 C 9.465 2.398,7.649 3.079,6.084 4.252 C 5.583 4.627,4.616 5.596,4.245 6.092 C 3.236 7.444,2.622 8.895,2.353 10.572 C 2.239 11.277,2.230 12.591,2.333 13.300 C 2.582 15.004,3.215 16.530,4.245 17.908 C 4.622 18.412,5.588 19.378,6.092 19.755 C 7.471 20.785,9.000 21.420,10.700 21.666 C 11.033 21.714,11.432 21.736,12.000 21.736 C 13.556 21.736,14.894 21.430,16.260 20.762 C 17.312 20.247,18.030 19.732,18.881 18.881 C 19.732 18.030,20.248 17.311,20.761 16.260 C 22.377 12.955,21.991 9.058,19.755 6.096 C 18.214 4.055,15.834 2.676,13.280 2.345 C 12.683 2.268,11.941 2.243,11.340 2.281 M12.840 6.101 C 13.511 6.260,14.064 6.556,14.553 7.017 C 14.779 7.230,14.851 7.373,14.854 7.621 C 14.860 8.030,14.529 8.369,14.123 8.369 C 13.899 8.369,13.762 8.305,13.482 8.066 C 13.045 7.692,12.577 7.520,12.000 7.520 C 11.356 7.520,10.879 7.719,10.419 8.179 C 10.109 8.489,9.921 8.806,9.823 9.186 C 9.738 9.516,9.743 9.675,9.860 10.480 C 9.915 10.858,9.960 11.183,9.960 11.201 C 9.960 11.219,10.468 11.240,11.090 11.247 C 12.199 11.260,12.223 11.262,12.373 11.355 C 12.615 11.506,12.733 11.718,12.733 12.003 C 12.733 12.203,12.714 12.270,12.616 12.409 C 12.391 12.729,12.355 12.738,11.210 12.752 C 10.429 12.762,10.200 12.776,10.200 12.816 C 10.200 12.843,10.228 13.063,10.263 13.303 C 10.334 13.797,10.344 14.712,10.281 15.036 C 10.258 15.156,10.246 15.259,10.254 15.267 C 10.262 15.275,10.373 15.255,10.501 15.221 C 11.118 15.061,11.654 15.104,12.531 15.384 C 13.368 15.651,13.565 15.633,14.436 15.205 C 14.688 15.081,14.906 15.000,14.988 15.000 C 15.153 15.000,15.387 15.094,15.513 15.212 C 15.856 15.532,15.793 16.132,15.389 16.387 C 15.102 16.569,14.426 16.873,14.117 16.958 C 13.453 17.142,12.986 17.110,12.079 16.820 C 11.261 16.557,11.186 16.562,10.043 16.940 C 9.114 17.247,8.934 17.280,8.708 17.186 C 8.429 17.069,8.201 16.667,8.261 16.394 C 8.276 16.329,8.358 16.122,8.445 15.935 C 8.870 15.013,8.934 14.245,8.695 12.894 L 8.673 12.768 8.366 12.753 C 7.975 12.733,7.786 12.643,7.635 12.405 C 7.544 12.263,7.520 12.178,7.520 12.006 C 7.520 11.595,7.785 11.317,8.231 11.257 C 8.478 11.225,8.470 11.272,8.360 10.540 C 8.266 9.916,8.259 9.346,8.339 8.963 C 8.641 7.528,9.849 6.338,11.260 6.084 C 11.392 6.060,11.545 6.033,11.600 6.023 C 11.789 5.989,12.580 6.039,12.840 6.101 " fill="#0F172A" stroke="none" fill-rule="evenodd"></path></svg>