<svg width="24" height="24" viewBox="0 0 24 24" fill="none" xmlns="http://www.w3.org/2000/svg"><path d="M7.960 0.820 C 6.693 1.075,5.691 2.035,5.350 3.320 L 5.260 3.660 5.260 12.000 L 5.260 20.340 5.350 20.680 C 5.696 21.981,6.703 22.936,7.994 23.184 C 8.426 23.267,15.574 23.267,16.006 23.184 C 17.297 22.936,18.304 21.981,18.650 20.680 L 18.740 20.340 18.740 12.000 L 18.740 3.660 18.650 3.320 C 18.304 2.019,17.297 1.064,16.006 0.816 C 15.592 0.737,8.357 0.740,7.960 0.820 M9.760 3.314 C 9.760 3.585,9.777 3.661,9.885 3.878 C 10.015 4.138,10.226 4.329,10.493 4.427 C 10.581 4.460,11.043 4.474,12.000 4.474 C 12.957 4.474,13.419 4.460,13.507 4.427 C 13.774 4.329,13.985 4.138,14.115 3.878 C 14.223 3.661,14.240 3.585,14.240 3.314 L 14.240 3.000 14.898 3.000 C 15.765 3.000,15.978 3.074,16.289 3.482 C 16.532 3.801,16.520 3.342,16.520 12.000 C 16.520 18.992,16.513 19.930,16.458 20.140 C 16.360 20.516,16.124 20.783,15.768 20.919 C 15.562 20.998,15.473 21.000,12.000 21.000 C 8.527 21.000,8.438 20.998,8.232 20.919 C 7.876 20.783,7.640 20.516,7.542 20.140 C 7.487 19.930,7.480 18.992,7.480 12.000 C 7.480 3.342,7.468 3.801,7.711 3.482 C 8.023 3.073,8.219 3.005,9.090 3.002 L 9.760 3.000 9.760 3.314 M10.201 18.823 C 10.018 18.903,9.928 18.988,9.836 19.168 C 9.697 19.441,9.767 19.850,9.987 20.048 C 10.192 20.233,10.263 20.240,12.009 20.239 C 13.525 20.238,13.673 20.232,13.820 20.165 C 14.010 20.077,14.096 19.988,14.178 19.790 C 14.257 19.602,14.257 19.398,14.178 19.210 C 14.096 19.012,14.010 18.923,13.820 18.835 C 13.673 18.768,13.527 18.762,12.000 18.762 C 10.611 18.763,10.317 18.773,10.201 18.823 " fill="#0F172A" stroke="none" fill-rule="evenodd"></path></svg>