<svg width="24" height="24" viewBox="0 0 24 24" fill="none" xmlns="http://www.w3.org/2000/svg"><path d="M6.380 1.586 C 5.202 1.840,4.221 2.778,3.872 3.983 L 3.780 4.300 3.780 12.000 L 3.780 19.700 3.872 20.017 C 4.145 20.961,4.787 21.729,5.660 22.157 C 6.330 22.484,5.819 22.460,12.000 22.460 C 18.181 22.460,17.670 22.484,18.340 22.157 C 19.213 21.729,19.855 20.961,20.128 20.017 L 20.220 19.700 20.220 12.000 L 20.220 4.300 20.128 3.983 C 19.855 3.039,19.212 2.270,18.340 1.844 C 17.673 1.517,18.204 1.543,12.100 1.534 C 7.380 1.527,6.623 1.534,6.380 1.586 M17.385 3.868 C 17.476 3.917,17.623 4.039,17.712 4.141 C 18.024 4.495,18.000 3.839,18.000 12.000 C 18.000 20.161,18.024 19.505,17.712 19.859 C 17.623 19.961,17.476 20.083,17.385 20.132 L 17.220 20.220 12.000 20.220 L 6.780 20.220 6.615 20.132 C 6.524 20.083,6.377 19.961,6.288 19.859 C 5.976 19.505,6.000 20.161,6.000 12.000 C 6.000 3.840,5.976 4.495,6.288 4.141 C 6.446 3.961,6.598 3.859,6.800 3.797 C 6.855 3.780,9.222 3.769,12.060 3.773 L 17.220 3.780 17.385 3.868 M10.167 18.086 C 9.946 18.195,9.794 18.421,9.769 18.676 C 9.744 18.939,9.814 19.127,9.998 19.294 C 10.239 19.511,10.386 19.526,12.127 19.512 C 13.854 19.498,13.848 19.499,14.097 19.186 C 14.207 19.049,14.220 19.004,14.220 18.763 C 14.220 18.428,14.097 18.214,13.830 18.085 C 13.660 18.003,13.605 18.000,11.997 18.000 C 10.383 18.000,10.335 18.002,10.167 18.086 " fill="#0F172A" stroke="none" fill-rule="evenodd"></path></svg>