<svg width="24" height="24" viewBox="0 0 24 24" fill="none" xmlns="http://www.w3.org/2000/svg"><path d="M5.100 1.575 C 4.454 1.784,3.986 2.270,3.821 2.901 C 3.767 3.109,3.760 4.166,3.760 12.000 C 3.760 19.834,3.767 20.891,3.821 21.099 C 3.961 21.636,4.303 22.049,4.818 22.303 L 5.136 22.460 12.000 22.460 L 18.864 22.460 19.175 22.307 C 19.706 22.044,20.086 21.569,20.199 21.027 C 20.229 20.879,20.239 19.502,20.231 16.458 L 20.219 12.100 20.127 11.780 C 19.795 10.628,18.966 9.704,17.873 9.267 C 17.324 9.047,17.202 9.032,15.660 9.003 C 14.278 8.977,14.210 8.972,13.980 8.882 C 13.456 8.677,13.052 8.273,12.853 7.756 C 12.796 7.608,12.781 7.348,12.757 6.140 C 12.725 4.517,12.697 4.325,12.404 3.700 C 11.921 2.668,11.111 1.973,9.997 1.634 C 9.706 1.545,9.658 1.543,7.480 1.533 C 5.751 1.526,5.225 1.535,5.100 1.575 M13.215 2.124 C 13.617 2.652,13.984 3.466,14.145 4.187 C 14.202 4.438,14.220 4.774,14.238 5.894 L 14.260 7.287 14.372 7.384 L 14.484 7.480 15.518 7.480 C 17.066 7.480,17.652 7.560,18.449 7.880 C 18.899 8.060,19.290 8.280,19.661 8.561 C 19.803 8.669,19.920 8.741,19.920 8.723 C 19.920 8.704,19.847 8.467,19.757 8.195 C 19.296 6.801,18.534 5.549,17.501 4.485 C 16.658 3.617,15.841 3.021,14.780 2.500 C 14.264 2.247,13.196 1.840,13.047 1.840 C 13.020 1.840,13.096 1.968,13.215 2.124 M12.460 11.359 C 13.421 11.606,14.211 12.252,14.640 13.140 C 14.917 13.713,14.979 13.988,14.978 14.640 C 14.976 15.269,14.892 15.645,14.641 16.129 L 14.490 16.420 15.081 17.020 C 15.574 17.520,15.680 17.649,15.719 17.795 C 15.871 18.365,15.365 18.871,14.795 18.719 C 14.649 18.680,14.520 18.574,14.020 18.081 L 13.420 17.490 13.129 17.641 C 12.637 17.896,12.270 17.977,11.620 17.978 C 10.960 17.978,10.741 17.928,10.140 17.639 C 8.332 16.770,7.695 14.475,8.795 12.792 C 9.588 11.578,11.068 11.000,12.460 11.359 M11.123 12.824 C 9.761 13.190,9.300 14.945,10.303 15.948 C 10.897 16.542,11.890 16.665,12.596 16.231 C 13.425 15.721,13.722 14.699,13.300 13.807 C 12.923 13.010,11.993 12.590,11.123 12.824 " fill="#0F172A" stroke="none" fill-rule="evenodd"></path></svg>