<svg width="24" height="24" viewBox="0 0 24 24" fill="none" xmlns="http://www.w3.org/2000/svg"><path d="M5.100 1.576 C 4.480 1.773,4.027 2.224,3.839 2.831 C 3.761 3.085,3.760 3.224,3.760 11.997 C 3.760 21.763,3.743 21.052,3.989 21.537 C 4.225 22.003,4.806 22.396,5.380 22.478 C 5.764 22.533,18.239 22.533,18.620 22.478 C 18.942 22.432,19.340 22.259,19.584 22.059 C 19.813 21.871,20.062 21.487,20.160 21.172 C 20.238 20.918,20.240 20.805,20.240 16.614 C 20.240 12.844,20.232 12.279,20.176 12.008 C 19.920 10.763,19.062 9.742,17.873 9.267 C 17.324 9.047,17.202 9.032,15.660 9.003 C 14.280 8.977,14.210 8.972,13.980 8.882 C 13.465 8.682,13.113 8.335,12.878 7.800 C 12.784 7.585,12.781 7.545,12.756 6.140 C 12.726 4.478,12.700 4.313,12.362 3.618 C 11.938 2.746,11.245 2.104,10.360 1.763 C 9.752 1.528,9.644 1.520,7.352 1.523 C 5.779 1.525,5.220 1.538,5.100 1.576 M13.215 2.124 C 13.617 2.652,13.984 3.466,14.145 4.187 C 14.202 4.438,14.220 4.774,14.238 5.894 L 14.260 7.287 14.372 7.384 L 14.484 7.480 15.518 7.480 C 17.066 7.480,17.652 7.560,18.449 7.880 C 18.899 8.060,19.290 8.280,19.661 8.561 C 19.803 8.669,19.920 8.741,19.920 8.723 C 19.920 8.704,19.847 8.467,19.757 8.195 C 19.296 6.801,18.534 5.549,17.501 4.485 C 16.658 3.617,15.841 3.021,14.780 2.500 C 14.264 2.247,13.196 1.840,13.047 1.840 C 13.020 1.840,13.096 1.968,13.215 2.124 M12.405 11.381 C 12.485 11.432,12.593 11.543,12.645 11.627 C 12.739 11.778,12.740 11.796,12.753 13.007 L 12.765 14.235 13.993 14.247 C 15.204 14.260,15.222 14.261,15.373 14.355 C 15.615 14.506,15.733 14.718,15.733 15.003 C 15.733 15.203,15.714 15.270,15.616 15.409 C 15.385 15.738,15.382 15.738,13.993 15.752 L 12.765 15.764 12.753 16.999 L 12.740 18.233 12.619 18.405 C 12.453 18.642,12.273 18.739,12.000 18.739 C 11.727 18.739,11.547 18.642,11.381 18.405 L 11.260 18.233 11.247 16.999 L 11.235 15.764 10.007 15.752 C 8.618 15.738,8.615 15.738,8.384 15.409 C 8.286 15.271,8.267 15.203,8.267 15.007 C 8.267 14.721,8.372 14.526,8.612 14.367 L 8.774 14.260 10.004 14.247 L 11.235 14.235 11.247 13.007 C 11.260 11.804,11.262 11.777,11.353 11.631 C 11.586 11.256,12.044 11.147,12.405 11.381 " fill="#0F172A" stroke="none" fill-rule="evenodd"></path></svg>