<svg width="24" height="24" viewBox="0 0 24 24" fill="none" xmlns="http://www.w3.org/2000/svg"><path d="M8.860 1.574 C 8.232 1.782,7.792 2.209,7.586 2.810 L 7.500 3.060 7.488 9.540 C 7.481 13.846,7.491 16.127,7.518 16.340 C 7.618 17.115,8.168 17.740,8.925 17.942 C 9.254 18.029,19.236 18.028,19.572 17.940 C 19.920 17.850,20.192 17.695,20.443 17.443 C 20.695 17.192,20.850 16.920,20.940 16.572 C 21.029 16.233,21.028 12.555,20.939 12.088 C 20.664 10.638,19.609 9.504,18.171 9.113 C 17.892 9.037,17.714 9.025,16.420 9.003 C 15.099 8.979,14.962 8.970,14.760 8.895 C 14.279 8.714,13.912 8.381,13.687 7.920 L 13.541 7.620 13.515 6.180 C 13.491 4.814,13.485 4.720,13.390 4.360 C 13.034 3.012,12.080 2.026,10.753 1.636 C 10.513 1.565,10.331 1.547,9.740 1.535 C 9.216 1.525,8.976 1.535,8.860 1.574 M13.839 1.950 C 14.213 2.431,14.543 3.033,14.720 3.560 C 14.948 4.236,14.968 4.411,14.995 5.887 C 15.020 7.264,15.021 7.274,15.112 7.372 L 15.205 7.470 16.532 7.492 C 17.643 7.510,17.922 7.527,18.243 7.593 C 19.015 7.754,19.746 8.075,20.357 8.522 C 20.568 8.677,20.679 8.738,20.664 8.692 C 20.652 8.652,20.604 8.494,20.557 8.340 C 20.316 7.554,19.857 6.597,19.363 5.853 C 18.169 4.056,16.345 2.663,14.310 1.995 C 14.050 1.910,13.819 1.840,13.795 1.840 C 13.772 1.840,13.792 1.889,13.839 1.950 M4.480 6.044 C 3.802 6.176,3.170 6.823,3.040 7.515 C 2.986 7.808,2.987 20.751,3.042 21.000 C 3.169 21.577,3.539 22.046,4.080 22.312 L 4.380 22.460 9.740 22.460 L 15.100 22.460 15.411 22.311 C 15.825 22.114,16.114 21.825,16.311 21.411 L 16.460 21.100 16.473 20.312 L 16.486 19.523 12.693 19.511 C 8.966 19.498,8.895 19.496,8.599 19.413 C 7.916 19.220,7.453 18.960,7.006 18.516 C 6.494 18.009,6.170 17.387,6.042 16.663 C 6.014 16.505,6.000 14.679,6.000 11.213 L 6.000 6.000 5.330 6.004 C 4.962 6.007,4.579 6.025,4.480 6.044 " fill="#0F172A" stroke="none" fill-rule="evenodd"></path></svg>