<svg width="24" height="24" viewBox="0 0 24 24" fill="none" xmlns="http://www.w3.org/2000/svg"><path d="M5.493 10.592 C 4.831 10.828,4.409 11.538,4.521 12.228 C 4.718 13.436,6.190 13.915,7.053 13.053 C 7.782 12.323,7.575 11.106,6.644 10.650 C 6.352 10.507,5.807 10.480,5.493 10.592 M11.493 10.592 C 10.831 10.828,10.409 11.538,10.521 12.228 C 10.718 13.436,12.190 13.915,13.053 13.053 C 13.782 12.323,13.575 11.106,12.644 10.650 C 12.352 10.507,11.807 10.480,11.493 10.592 M17.493 10.592 C 16.831 10.828,16.409 11.538,16.521 12.228 C 16.718 13.436,18.190 13.915,19.053 13.053 C 19.782 12.323,19.575 11.106,18.644 10.650 C 18.352 10.507,17.807 10.480,17.493 10.592 " fill="#0F172A" stroke="none" fill-rule="evenodd"></path></svg>