<svg width="24" height="24" viewBox="0 0 24 24" fill="none" xmlns="http://www.w3.org/2000/svg"><path d="M11.340 2.281 C 9.465 2.398,7.649 3.079,6.084 4.252 C 5.583 4.627,4.616 5.596,4.245 6.092 C 3.236 7.444,2.622 8.895,2.353 10.572 C 2.239 11.277,2.230 12.591,2.333 13.300 C 2.582 15.004,3.215 16.530,4.245 17.908 C 4.622 18.412,5.588 19.378,6.092 19.755 C 7.471 20.785,9.000 21.420,10.700 21.666 C 11.033 21.714,11.432 21.736,12.000 21.736 C 13.556 21.736,14.894 21.430,16.260 20.762 C 17.312 20.247,18.030 19.732,18.881 18.881 C 19.732 18.030,20.248 17.311,20.761 16.260 C 22.377 12.955,21.991 9.058,19.755 6.096 C 18.214 4.055,15.834 2.676,13.280 2.345 C 12.683 2.268,11.941 2.243,11.340 2.281 M8.037 11.022 C 8.416 11.228,8.600 11.548,8.600 12.000 C 8.600 12.453,8.417 12.769,8.033 12.982 C 7.847 13.085,7.780 13.100,7.500 13.100 C 7.220 13.100,7.153 13.085,6.967 12.982 C 6.739 12.856,6.555 12.654,6.459 12.425 C 6.383 12.242,6.382 11.760,6.458 11.579 C 6.715 10.962,7.451 10.703,8.037 11.022 M12.383 10.947 C 12.647 11.037,12.963 11.353,13.053 11.617 C 13.193 12.028,13.109 12.431,12.815 12.758 C 12.381 13.240,11.619 13.240,11.185 12.758 C 10.763 12.288,10.777 11.658,11.218 11.217 C 11.538 10.897,11.953 10.801,12.383 10.947 M17.037 11.022 C 17.416 11.228,17.600 11.548,17.600 12.000 C 17.600 12.453,17.417 12.769,17.033 12.982 C 16.847 13.085,16.780 13.100,16.500 13.100 C 16.220 13.100,16.153 13.085,15.967 12.982 C 15.739 12.856,15.555 12.654,15.459 12.425 C 15.383 12.242,15.382 11.760,15.458 11.579 C 15.715 10.962,16.451 10.703,17.037 11.022 " fill="#0F172A" stroke="none" fill-rule="evenodd"></path></svg>