<svg width="24" height="24" viewBox="0 0 24 24" fill="none" xmlns="http://www.w3.org/2000/svg"><path d="M3.860 3.826 C 2.849 4.041,1.976 4.833,1.651 5.829 C 1.572 6.070,1.548 6.229,1.544 6.534 L 1.540 6.928 6.440 9.944 C 9.135 11.603,11.429 12.990,11.538 13.026 C 11.647 13.062,11.855 13.092,12.000 13.092 C 12.145 13.092,12.353 13.062,12.462 13.026 C 12.571 12.990,14.865 11.603,17.560 9.944 L 22.460 6.928 22.454 6.534 C 22.436 5.261,21.426 4.092,20.112 3.823 C 19.837 3.767,18.951 3.760,11.972 3.763 C 5.199 3.766,4.102 3.775,3.860 3.826 M1.480 12.930 C 1.481 15.500,1.496 17.318,1.521 17.529 C 1.606 18.278,1.863 18.818,2.380 19.343 C 2.742 19.710,3.104 19.941,3.580 20.108 L 3.900 20.220 12.000 20.220 L 20.100 20.220 20.420 20.108 C 20.896 19.941,21.258 19.710,21.620 19.343 C 22.137 18.818,22.394 18.278,22.479 17.529 C 22.518 17.190,22.540 8.680,22.502 8.680 C 22.493 8.680,20.463 9.925,17.992 11.446 C 15.522 12.967,13.392 14.263,13.260 14.325 C 12.484 14.691,11.516 14.691,10.740 14.325 C 10.608 14.263,8.478 12.967,6.008 11.446 C 3.537 9.925,1.507 8.680,1.498 8.680 C 1.488 8.680,1.480 10.592,1.480 12.930 " fill="#0F172A" stroke="none" fill-rule="evenodd"></path></svg>