<svg width="24" height="24" viewBox="0 0 24 24" fill="none" xmlns="http://www.w3.org/2000/svg"><path d="M11.529 1.846 C 11.392 1.866,11.161 1.924,11.018 1.977 C 10.874 2.029,8.974 3.031,6.796 4.204 C 3.871 5.779,2.768 6.393,2.576 6.551 C 2.263 6.809,2.002 7.151,1.796 7.574 C 1.572 8.034,1.515 8.349,1.529 9.035 L 1.540 9.610 5.729 12.059 L 9.918 14.508 10.469 14.233 C 11.162 13.887,11.404 13.822,12.000 13.822 C 12.596 13.822,12.838 13.887,13.531 14.233 L 14.082 14.508 18.271 12.059 L 22.460 9.610 22.471 9.035 C 22.485 8.349,22.427 8.034,22.204 7.574 C 21.998 7.151,21.737 6.809,21.424 6.551 C 21.232 6.393,20.129 5.779,17.204 4.204 C 15.026 3.031,13.129 2.030,12.988 1.979 C 12.546 1.818,12.042 1.772,11.529 1.846 M1.490 15.647 C 1.505 20.483,1.481 20.117,1.822 20.820 C 2.114 21.423,2.576 21.885,3.180 22.178 C 3.905 22.530,3.078 22.500,12.000 22.500 C 20.922 22.500,20.095 22.530,20.820 22.178 C 21.424 21.885,21.886 21.423,22.178 20.820 C 22.519 20.117,22.495 20.483,22.510 15.647 C 22.522 11.945,22.516 11.355,22.466 11.367 C 22.346 11.395,15.643 15.339,15.671 15.366 C 15.687 15.382,16.465 15.806,17.401 16.310 C 18.336 16.814,19.147 17.256,19.203 17.293 C 19.365 17.399,19.480 17.642,19.480 17.877 C 19.480 18.280,19.213 18.580,18.816 18.624 C 18.568 18.651,18.744 18.738,15.340 16.903 C 13.844 16.097,12.531 15.411,12.423 15.379 C 12.171 15.304,11.829 15.304,11.577 15.379 C 11.469 15.411,10.156 16.097,8.660 16.903 C 5.256 18.738,5.432 18.651,5.184 18.624 C 4.787 18.580,4.520 18.280,4.520 17.877 C 4.520 17.642,4.635 17.399,4.797 17.293 C 4.853 17.256,5.664 16.814,6.599 16.310 C 7.535 15.806,8.313 15.382,8.329 15.366 C 8.356 15.340,1.654 11.394,1.534 11.367 C 1.484 11.355,1.478 11.937,1.490 15.647 " fill="#0F172A" stroke="none" fill-rule="evenodd"></path></svg>