<svg width="24" height="24" viewBox="0 0 24 24" fill="none" xmlns="http://www.w3.org/2000/svg"><path d="M11.340 1.576 C 10.629 1.739,9.989 2.162,9.580 2.740 C 9.418 2.970,2.160 15.526,1.950 15.941 C 1.734 16.367,1.660 16.699,1.661 17.240 C 1.661 17.605,1.682 17.810,1.736 18.000 C 2.049 19.094,2.853 19.883,3.936 20.159 C 4.248 20.239,4.364 20.240,12.000 20.240 C 19.636 20.240,19.752 20.239,20.064 20.159 C 20.707 19.995,21.277 19.639,21.657 19.165 C 21.944 18.806,22.052 18.607,22.205 18.160 C 22.324 17.813,22.336 17.737,22.338 17.280 C 22.340 16.730,22.282 16.442,22.085 16.020 C 21.923 15.674,14.623 3.028,14.417 2.736 C 14.071 2.246,13.542 1.860,12.940 1.656 C 12.671 1.566,12.537 1.546,12.100 1.535 C 11.757 1.526,11.498 1.540,11.340 1.576 M12.405 8.381 C 12.485 8.432,12.593 8.543,12.645 8.627 L 12.740 8.780 12.740 10.860 L 12.740 12.940 12.634 13.120 C 12.345 13.612,11.655 13.612,11.366 13.120 L 11.260 12.940 11.260 10.860 L 11.260 8.780 11.353 8.631 C 11.586 8.256,12.044 8.147,12.405 8.381 M12.271 15.062 C 12.574 15.189,12.731 15.422,12.731 15.743 C 12.731 16.316,12.133 16.673,11.640 16.395 C 11.216 16.157,11.136 15.539,11.486 15.212 C 11.703 15.010,12.007 14.952,12.271 15.062 " fill="#0F172A" stroke="none" fill-rule="evenodd"></path></svg>