<svg width="24" height="24" viewBox="0 0 24 24" fill="none" xmlns="http://www.w3.org/2000/svg"><path d="M11.340 2.281 C 9.465 2.398,7.649 3.079,6.084 4.252 C 5.583 4.627,4.616 5.596,4.245 6.092 C 3.236 7.444,2.622 8.895,2.353 10.572 C 2.239 11.277,2.230 12.591,2.333 13.300 C 2.582 15.004,3.215 16.530,4.245 17.908 C 4.622 18.412,5.588 19.378,6.092 19.755 C 7.471 20.785,9.000 21.420,10.700 21.666 C 11.033 21.714,11.432 21.736,12.000 21.736 C 13.556 21.736,14.894 21.430,16.260 20.762 C 17.312 20.247,18.030 19.732,18.881 18.881 C 19.732 18.030,20.248 17.311,20.761 16.260 C 22.377 12.955,21.991 9.058,19.755 6.096 C 18.214 4.055,15.834 2.676,13.280 2.345 C 12.683 2.268,11.941 2.243,11.340 2.281 M12.405 8.381 C 12.485 8.432,12.593 8.543,12.645 8.627 L 12.740 8.780 12.740 10.860 L 12.740 12.940 12.634 13.120 C 12.345 13.612,11.655 13.612,11.366 13.120 L 11.260 12.940 11.260 10.860 L 11.260 8.780 11.353 8.631 C 11.586 8.256,12.044 8.147,12.405 8.381 M12.271 15.062 C 12.574 15.189,12.731 15.422,12.731 15.743 C 12.731 16.316,12.133 16.673,11.640 16.395 C 11.216 16.157,11.136 15.539,11.486 15.212 C 11.703 15.010,12.007 14.952,12.271 15.062 " fill="#0F172A" stroke="none" fill-rule="evenodd"></path></svg>