<svg width="24" height="24" viewBox="0 0 24 24" fill="none" xmlns="http://www.w3.org/2000/svg"><path d="M18.005 1.579 C 17.201 1.762,16.509 2.151,16.004 2.704 C 15.442 3.318,15.291 3.650,14.895 5.145 L 14.668 6.000 13.273 6.000 C 12.108 6.000,11.853 6.010,11.729 6.062 C 11.642 6.098,11.376 6.326,11.089 6.612 C 10.527 7.170,10.454 7.308,10.528 7.665 C 10.566 7.843,10.619 7.910,11.133 8.431 L 11.698 9.001 7.573 13.131 L 3.449 17.260 3.284 17.600 C 3.111 17.956,3.002 18.373,3.001 18.683 C 3.000 18.783,2.971 18.962,2.936 19.080 C 2.879 19.272,2.807 19.362,2.262 19.918 C 1.926 20.260,1.620 20.602,1.581 20.677 C 1.477 20.879,1.490 21.162,1.612 21.369 C 1.737 21.581,2.491 22.324,2.677 22.419 C 2.852 22.509,3.148 22.509,3.323 22.419 C 3.398 22.380,3.740 22.074,4.082 21.738 C 4.638 21.193,4.728 21.121,4.920 21.064 C 5.038 21.029,5.217 21.000,5.317 20.999 C 5.627 20.998,6.044 20.889,6.400 20.716 L 6.740 20.551 10.869 16.427 L 14.999 12.302 15.571 12.869 C 16.078 13.373,16.161 13.439,16.310 13.463 C 16.506 13.494,16.494 13.494,16.698 13.462 C 16.833 13.440,16.930 13.364,17.353 12.948 C 17.641 12.665,17.881 12.393,17.924 12.300 C 17.992 12.154,17.998 12.019,17.999 10.736 L 18.000 9.332 18.855 9.105 C 20.127 8.768,20.375 8.674,20.844 8.357 C 22.550 7.201,23.006 4.872,21.861 3.166 C 21.381 2.451,20.593 1.881,19.740 1.634 C 19.366 1.525,18.379 1.494,18.005 1.579 M13.360 10.660 L 13.940 11.241 9.860 15.314 C 5.312 19.854,5.765 19.456,5.082 19.520 C 4.893 19.538,4.660 19.573,4.565 19.599 C 4.470 19.624,4.384 19.638,4.375 19.628 C 4.366 19.619,4.383 19.514,4.414 19.396 C 4.445 19.277,4.483 19.027,4.499 18.840 C 4.515 18.653,4.563 18.419,4.605 18.320 C 4.667 18.177,5.504 17.319,8.711 14.110 C 10.927 11.893,12.749 10.080,12.760 10.080 C 12.772 10.080,13.042 10.341,13.360 10.660 " fill="#0F172A" stroke="none" fill-rule="evenodd"></path></svg>