<svg width="24" height="24" viewBox="0 0 24 24" fill="none" xmlns="http://www.w3.org/2000/svg"><path d="M10.920 3.806 C 7.657 4.107,4.645 5.877,2.747 8.610 C 2.230 9.354,1.774 10.229,1.437 11.120 C 1.272 11.557,1.264 11.601,1.264 12.000 C 1.265 12.374,1.279 12.459,1.397 12.780 C 2.799 16.615,6.126 19.413,10.076 20.079 C 13.287 20.620,16.493 19.796,19.040 17.774 C 19.477 17.427,20.427 16.478,20.774 16.040 C 21.528 15.091,22.107 14.060,22.583 12.820 C 22.726 12.447,22.737 12.391,22.737 12.000 C 22.736 11.602,22.727 11.556,22.563 11.120 C 21.482 8.257,19.358 5.981,16.609 4.739 C 14.874 3.956,12.866 3.626,10.920 3.806 M13.232 6.896 C 15.188 7.390,16.634 8.855,17.124 10.840 C 17.207 11.173,17.218 11.316,17.218 12.000 C 17.218 12.684,17.207 12.827,17.124 13.160 C 16.628 15.169,15.169 16.628,13.160 17.124 C 12.827 17.207,12.683 17.218,12.000 17.219 C 11.282 17.219,11.186 17.210,10.789 17.110 C 8.826 16.613,7.388 15.176,6.890 13.211 C 6.788 12.810,6.780 12.724,6.783 11.980 C 6.785 11.217,6.791 11.159,6.908 10.720 C 7.347 9.081,8.475 7.777,10.001 7.147 C 10.728 6.847,11.233 6.759,12.120 6.777 C 12.709 6.789,12.885 6.808,13.232 6.896 M11.503 9.040 C 11.202 9.094,10.930 9.192,10.596 9.365 C 9.231 10.073,8.644 11.703,9.234 13.151 C 9.521 13.857,10.143 14.479,10.849 14.766 C 11.989 15.230,13.251 14.978,14.115 14.115 C 15.238 12.992,15.295 11.212,14.246 10.020 C 13.897 9.624,13.276 9.239,12.756 9.097 C 12.491 9.024,11.770 8.991,11.503 9.040 " fill="#0F172A" stroke="none" fill-rule="evenodd"></path></svg>