<svg width="24" height="24" viewBox="0 0 24 24" fill="none" xmlns="http://www.w3.org/2000/svg"><path d="M11.340 2.281 C 9.465 2.398,7.649 3.079,6.084 4.252 C 5.583 4.627,4.616 5.596,4.245 6.092 C 3.236 7.444,2.622 8.895,2.353 10.572 C 2.239 11.277,2.230 12.591,2.333 13.300 C 2.582 15.004,3.215 16.530,4.245 17.908 C 4.622 18.412,5.588 19.378,6.092 19.755 C 7.471 20.785,9.000 21.420,10.700 21.666 C 11.033 21.714,11.432 21.736,12.000 21.736 C 13.556 21.736,14.894 21.430,16.260 20.762 C 17.312 20.247,18.030 19.732,18.881 18.881 C 19.732 18.030,20.248 17.311,20.761 16.260 C 22.377 12.955,21.991 9.058,19.755 6.096 C 18.214 4.055,15.834 2.676,13.280 2.345 C 12.683 2.268,11.941 2.243,11.340 2.281 M9.801 8.361 C 10.270 8.600,10.509 9.141,10.471 9.884 C 10.446 10.385,10.336 10.670,10.064 10.940 C 9.839 11.163,9.651 11.241,9.335 11.239 C 8.500 11.235,8.002 10.038,8.399 8.990 C 8.631 8.376,9.269 8.089,9.801 8.361 M14.919 8.303 C 15.952 8.610,16.026 10.697,15.020 11.164 C 14.666 11.329,14.238 11.240,13.936 10.940 C 13.620 10.626,13.541 10.386,13.540 9.740 C 13.540 9.242,13.545 9.209,13.663 8.960 C 13.842 8.582,14.091 8.357,14.420 8.277 C 14.609 8.231,14.691 8.236,14.919 8.303 M9.092 14.494 C 9.164 14.524,9.330 14.643,9.461 14.758 C 10.226 15.427,11.024 15.734,12.000 15.734 C 12.976 15.734,13.774 15.427,14.539 14.758 C 14.906 14.437,15.152 14.369,15.470 14.502 C 15.754 14.620,15.920 14.870,15.920 15.180 C 15.920 15.510,15.710 15.783,15.118 16.218 C 14.541 16.643,13.967 16.911,13.211 17.107 C 12.810 17.211,12.725 17.219,12.000 17.219 C 11.273 17.219,11.190 17.212,10.780 17.106 C 10.039 16.914,9.460 16.644,8.882 16.218 C 8.514 15.947,8.244 15.685,8.156 15.513 C 8.017 15.239,8.087 14.831,8.307 14.632 C 8.504 14.453,8.850 14.393,9.092 14.494 " fill="#0F172A" stroke="none" fill-rule="evenodd"></path></svg>