<svg width="24" height="24" viewBox="0 0 24 24" fill="none" xmlns="http://www.w3.org/2000/svg"><path d="M11.340 2.281 C 9.465 2.398,7.649 3.079,6.084 4.252 C 5.583 4.627,4.616 5.596,4.245 6.092 C 3.236 7.444,2.622 8.895,2.353 10.572 C 2.239 11.277,2.230 12.591,2.333 13.300 C 2.582 15.004,3.215 16.530,4.245 17.908 C 4.622 18.412,5.588 19.378,6.092 19.755 C 7.471 20.785,9.000 21.420,10.700 21.666 C 11.033 21.714,11.432 21.736,12.000 21.736 C 13.556 21.736,14.894 21.430,16.260 20.762 C 17.312 20.247,18.030 19.732,18.881 18.881 C 19.732 18.030,20.248 17.311,20.761 16.260 C 22.377 12.955,21.991 9.058,19.755 6.096 C 18.214 4.055,15.834 2.676,13.280 2.345 C 12.683 2.268,11.941 2.243,11.340 2.281 M9.801 8.361 C 10.270 8.600,10.509 9.141,10.471 9.884 C 10.446 10.385,10.336 10.670,10.064 10.940 C 9.839 11.163,9.651 11.241,9.335 11.239 C 8.500 11.235,8.002 10.038,8.399 8.990 C 8.631 8.376,9.269 8.089,9.801 8.361 M14.919 8.303 C 15.952 8.610,16.026 10.697,15.020 11.164 C 14.666 11.329,14.238 11.240,13.936 10.940 C 13.620 10.626,13.541 10.386,13.540 9.740 C 13.540 9.242,13.545 9.209,13.663 8.960 C 13.842 8.582,14.091 8.357,14.420 8.277 C 14.609 8.231,14.691 8.236,14.919 8.303 M12.960 14.345 C 13.891 14.506,14.936 15.039,15.613 15.697 C 15.832 15.910,15.920 16.087,15.920 16.316 C 15.920 16.623,15.757 16.867,15.460 17.004 C 15.169 17.139,14.935 17.079,14.585 16.783 C 14.029 16.311,13.617 16.078,13.012 15.893 C 12.695 15.797,12.596 15.786,12.020 15.783 C 11.466 15.781,11.337 15.793,11.060 15.873 C 10.448 16.049,9.959 16.313,9.500 16.717 C 9.225 16.959,9.116 17.022,8.911 17.061 C 8.632 17.113,8.252 16.894,8.134 16.612 C 8.064 16.445,8.065 16.193,8.136 16.024 C 8.307 15.615,9.400 14.855,10.260 14.549 C 11.082 14.256,12.033 14.184,12.960 14.345 " fill="#0F172A" stroke="none" fill-rule="evenodd"></path></svg>