<svg width="24" height="24" viewBox="0 0 24 24" fill="none" xmlns="http://www.w3.org/2000/svg"><path d="M2.884 3.823 C 2.179 4.013,1.639 4.623,1.522 5.360 C 1.465 5.720,1.465 18.282,1.522 18.640 C 1.572 18.953,1.750 19.351,1.949 19.593 C 2.137 19.823,2.506 20.060,2.831 20.161 C 3.085 20.239,3.224 20.240,12.000 20.240 C 20.812 20.240,20.914 20.239,21.172 20.160 C 21.487 20.062,21.871 19.813,22.059 19.584 C 22.259 19.340,22.432 18.942,22.478 18.620 C 22.533 18.239,22.533 5.764,22.478 5.380 C 22.396 4.803,22.024 4.256,21.535 3.991 C 21.079 3.745,21.711 3.760,11.982 3.763 C 4.352 3.765,3.070 3.773,2.884 3.823 M5.041 5.300 C 5.105 5.334,5.176 5.395,5.199 5.438 C 5.223 5.484,5.240 5.869,5.240 6.399 C 5.240 7.595,5.305 7.536,4.003 7.513 L 3.233 7.500 3.117 7.369 L 3.000 7.239 3.000 6.401 C 3.000 5.481,3.019 5.383,3.219 5.296 C 3.404 5.215,4.883 5.219,5.041 5.300 M20.755 5.284 C 20.979 5.362,21.000 5.459,21.000 6.397 L 21.000 7.239 20.883 7.369 L 20.767 7.500 19.997 7.513 C 19.121 7.528,18.989 7.513,18.856 7.379 C 18.761 7.284,18.760 7.278,18.760 6.399 C 18.760 5.872,18.777 5.484,18.801 5.438 C 18.893 5.267,19.017 5.243,19.844 5.242 C 20.319 5.241,20.678 5.257,20.755 5.284 M5.123 9.117 L 5.240 9.234 5.240 10.114 L 5.240 10.994 5.136 11.117 L 5.033 11.240 4.133 11.240 L 3.234 11.240 3.117 11.123 L 3.000 11.006 3.000 10.132 C 3.000 9.194,3.015 9.120,3.214 9.040 C 3.261 9.021,3.684 9.004,4.153 9.003 L 5.006 9.000 5.123 9.117 M20.889 9.111 C 20.977 9.200,20.980 9.227,20.992 10.102 L 21.004 11.002 20.885 11.121 L 20.766 11.240 19.867 11.240 L 18.967 11.240 18.864 11.117 L 18.760 10.994 18.760 10.114 L 18.760 9.234 18.879 9.115 L 18.998 8.996 19.898 9.008 C 20.773 9.020,20.800 9.023,20.889 9.111 M16.820 11.326 C 17.402 11.649,17.380 12.407,16.780 12.684 C 16.627 12.755,16.413 12.758,12.000 12.758 C 7.587 12.758,7.373 12.755,7.220 12.684 C 6.699 12.443,6.595 11.818,7.015 11.450 C 7.095 11.379,7.211 11.310,7.271 11.297 C 7.331 11.284,7.398 11.267,7.420 11.259 C 7.442 11.252,9.539 11.249,12.080 11.253 C 16.302 11.259,16.710 11.266,16.820 11.326 M5.123 12.877 L 5.240 12.994 5.240 13.880 L 5.240 14.766 5.123 14.883 L 5.006 15.000 4.125 15.000 C 3.252 15.000,3.243 14.999,3.132 14.904 L 3.020 14.807 3.008 13.903 L 2.996 12.998 3.115 12.879 L 3.234 12.760 4.120 12.760 L 5.006 12.760 5.123 12.877 M20.885 12.879 L 21.004 12.998 20.992 13.903 L 20.980 14.807 20.868 14.904 C 20.757 14.999,20.748 15.000,19.875 15.000 L 18.994 15.000 18.877 14.883 L 18.760 14.766 18.760 13.880 L 18.760 12.994 18.877 12.877 L 18.994 12.760 19.880 12.760 L 20.766 12.760 20.885 12.879 M5.142 16.618 L 5.240 16.716 5.240 17.616 C 5.240 18.509,5.239 18.516,5.144 18.628 L 5.047 18.740 4.197 18.752 C 3.603 18.761,3.313 18.750,3.232 18.717 C 3.021 18.629,3.000 18.529,3.000 17.605 L 3.000 16.766 3.104 16.643 L 3.207 16.520 4.125 16.520 L 5.044 16.520 5.142 16.618 M20.896 16.643 L 21.000 16.766 21.000 17.605 C 21.000 18.529,20.979 18.629,20.768 18.717 C 20.687 18.750,20.397 18.761,19.803 18.752 L 18.953 18.740 18.856 18.628 C 18.761 18.516,18.760 18.509,18.760 17.616 L 18.760 16.716 18.858 16.618 L 18.956 16.520 19.875 16.520 L 20.793 16.520 20.896 16.643 " fill="#0F172A" stroke="none" fill-rule="evenodd"></path></svg>