<svg width="24" height="24" viewBox="0 0 24 24" fill="none" xmlns="http://www.w3.org/2000/svg"><path d="M11.312 2.283 C 10.304 2.364,9.223 2.672,8.280 3.148 C 7.399 3.592,7.164 3.797,7.130 4.152 C 7.104 4.419,7.173 4.607,7.360 4.775 C 7.675 5.060,7.980 5.060,8.425 4.775 C 9.041 4.381,9.927 4.034,10.730 3.872 C 11.378 3.741,12.613 3.741,13.270 3.872 C 15.947 4.408,18.022 6.438,18.594 9.082 C 18.729 9.705,18.767 10.399,18.721 11.407 C 18.613 13.757,18.206 15.828,17.433 17.960 C 17.170 18.687,17.147 18.859,17.277 19.115 C 17.503 19.557,18.105 19.645,18.454 19.286 C 18.613 19.122,18.741 18.812,19.092 17.740 C 19.822 15.508,20.180 13.423,20.228 11.119 C 20.259 9.618,20.176 8.963,19.818 7.886 C 18.933 5.226,16.734 3.189,14.006 2.502 C 13.211 2.302,12.147 2.215,11.312 2.283 M5.660 5.630 C 5.449 5.665,5.391 5.690,5.258 5.807 C 4.989 6.043,4.496 6.974,4.221 7.763 C 3.920 8.627,3.812 9.219,3.758 10.300 C 3.737 10.740,3.691 11.294,3.658 11.531 C 3.549 12.304,3.258 13.144,2.855 13.849 C 2.639 14.226,2.620 14.280,2.620 14.503 C 2.620 14.694,2.641 14.776,2.716 14.887 C 2.983 15.276,3.487 15.351,3.841 15.053 C 3.981 14.935,4.336 14.321,4.554 13.819 C 4.978 12.841,5.240 11.667,5.240 10.741 C 5.241 9.337,5.559 8.129,6.222 7.018 C 6.455 6.628,6.511 6.435,6.463 6.182 C 6.435 6.032,6.250 5.790,6.105 5.711 C 6.000 5.655,5.767 5.612,5.660 5.630 M11.408 6.043 C 10.418 6.172,9.389 6.705,8.703 7.446 C 7.874 8.341,7.483 9.426,7.481 10.840 C 7.477 12.991,6.526 15.475,5.022 17.266 C 4.649 17.711,4.600 17.803,4.601 18.053 C 4.604 18.559,5.102 18.918,5.583 18.759 C 5.993 18.624,7.107 17.114,7.751 15.820 C 8.525 14.266,8.907 12.723,8.998 10.780 C 9.049 9.705,9.154 9.338,9.581 8.740 C 10.000 8.154,10.657 7.726,11.370 7.574 C 11.735 7.496,12.518 7.521,12.838 7.620 C 13.619 7.863,14.284 8.410,14.655 9.116 C 14.961 9.698,15.044 10.333,14.967 11.487 C 14.919 12.199,14.939 12.328,15.132 12.547 C 15.521 12.990,16.242 12.831,16.404 12.266 C 16.424 12.198,16.458 11.778,16.481 11.333 C 16.529 10.400,16.494 9.904,16.339 9.323 C 15.762 7.170,13.634 5.754,11.408 6.043 M11.699 9.816 C 11.543 9.884,11.340 10.117,11.288 10.287 C 11.265 10.360,11.237 10.717,11.224 11.080 C 11.122 13.987,10.111 16.799,8.335 19.120 C 8.175 19.329,7.973 19.590,7.885 19.700 C 7.682 19.953,7.613 20.196,7.676 20.428 C 7.764 20.748,8.081 20.998,8.400 20.998 C 8.665 20.998,8.853 20.871,9.191 20.464 C 10.851 18.459,12.010 15.954,12.497 13.314 C 12.691 12.263,12.816 10.590,12.721 10.304 C 12.658 10.111,12.458 9.884,12.292 9.814 C 12.130 9.746,11.857 9.747,11.699 9.816 M14.673 15.001 C 14.452 15.118,14.374 15.260,14.154 15.949 C 13.673 17.453,12.880 19.131,12.111 20.273 C 11.787 20.753,11.734 20.965,11.862 21.270 C 11.941 21.460,12.025 21.551,12.208 21.644 C 12.492 21.789,12.874 21.724,13.087 21.495 C 13.384 21.174,14.279 19.610,14.730 18.624 C 15.121 17.767,15.641 16.340,15.777 15.749 C 15.836 15.488,15.607 15.089,15.332 14.974 C 15.148 14.897,14.846 14.910,14.673 15.001 " fill="#0F172A" stroke="none" fill-rule="evenodd"></path></svg>