<svg width="24" height="24" viewBox="0 0 24 24" fill="none" xmlns="http://www.w3.org/2000/svg"><path d="M12.007 2.086 C 11.793 2.191,10.807 3.139,10.453 3.578 C 9.437 4.840,8.740 6.321,8.435 7.868 L 8.347 8.316 8.164 8.188 C 7.887 7.994,7.044 7.141,6.780 6.787 C 6.510 6.425,6.343 6.320,6.040 6.320 C 5.729 6.320,5.570 6.426,5.158 6.910 C 2.634 9.873,2.293 14.094,4.309 17.420 C 4.677 18.027,5.068 18.515,5.656 19.102 C 6.680 20.124,7.704 20.776,9.000 21.230 C 10.038 21.594,10.883 21.736,12.000 21.736 C 13.117 21.736,13.964 21.593,15.000 21.230 C 16.297 20.774,17.321 20.122,18.344 19.102 C 18.932 18.515,19.323 18.027,19.691 17.420 C 21.746 14.030,21.347 9.711,18.706 6.754 C 17.981 5.942,17.020 5.208,16.040 4.719 C 14.705 4.052,13.935 3.467,13.171 2.540 C 12.999 2.331,12.806 2.142,12.711 2.090 C 12.500 1.974,12.236 1.972,12.007 2.086 M13.080 10.664 C 14.322 11.022,15.331 12.092,15.645 13.385 C 15.753 13.828,15.762 14.591,15.665 15.030 C 15.515 15.709,15.173 16.347,14.687 16.852 C 14.203 17.354,13.616 17.698,12.920 17.886 C 12.431 18.019,11.569 18.019,11.080 17.886 C 10.140 17.632,9.362 17.066,8.843 16.257 C 8.443 15.636,8.268 15.019,8.271 14.240 C 8.272 13.812,8.350 13.242,8.425 13.114 C 8.433 13.100,8.561 13.168,8.710 13.267 C 9.241 13.619,10.482 14.145,10.560 14.051 C 10.574 14.034,10.608 13.903,10.635 13.760 C 10.825 12.774,11.400 11.675,12.136 10.893 L 12.478 10.530 12.669 10.565 C 12.774 10.585,12.959 10.629,13.080 10.664 " fill="#0F172A" stroke="none" fill-rule="evenodd"></path></svg>