<svg width="24" height="24" viewBox="0 0 24 24" fill="none" xmlns="http://www.w3.org/2000/svg"><path d="M2.811 2.278 C 2.639 2.320,2.417 2.493,2.330 2.652 C 2.264 2.773,2.259 3.304,2.250 11.914 C 2.242 18.485,2.252 21.095,2.284 21.213 C 2.342 21.431,2.574 21.659,2.798 21.719 C 3.198 21.827,3.610 21.599,3.718 21.209 C 3.745 21.113,3.760 20.081,3.760 18.319 L 3.760 15.577 4.936 15.286 C 6.495 14.900,6.841 14.840,7.660 14.813 C 9.106 14.764,10.253 15.013,11.703 15.691 C 12.536 16.080,13.015 16.258,13.679 16.426 C 15.053 16.774,16.383 16.832,17.720 16.603 C 18.402 16.487,21.434 15.767,21.622 15.678 C 21.807 15.590,21.925 15.448,21.997 15.230 C 22.038 15.105,22.032 14.921,21.964 14.170 C 21.806 12.419,21.782 11.844,21.781 9.780 C 21.780 7.709,21.806 7.081,21.963 5.349 C 22.048 4.419,22.038 4.270,21.879 4.068 C 21.740 3.891,21.541 3.794,21.310 3.792 C 21.177 3.790,20.503 3.931,19.480 4.172 C 18.589 4.383,17.710 4.583,17.526 4.618 C 16.960 4.723,16.152 4.767,15.578 4.722 C 14.337 4.627,13.574 4.409,12.100 3.727 C 11.227 3.324,10.463 3.086,9.480 2.913 C 9.053 2.838,8.831 2.825,7.960 2.824 C 6.746 2.823,6.498 2.858,4.888 3.258 C 4.310 3.402,3.822 3.520,3.803 3.520 C 3.785 3.520,3.762 3.353,3.753 3.148 C 3.741 2.870,3.717 2.742,3.657 2.639 C 3.494 2.361,3.121 2.202,2.811 2.278 " fill="#0F172A" stroke="none" fill-rule="evenodd"></path></svg>