<svg width="24" height="24" viewBox="0 0 24 24" fill="none" xmlns="http://www.w3.org/2000/svg"><path d="M4.033 3.041 C 2.665 3.272,1.680 4.318,1.521 5.710 C 1.466 6.185,1.466 17.815,1.521 18.290 C 1.665 19.550,2.457 20.502,3.681 20.886 L 3.980 20.980 12.000 20.980 L 20.020 20.980 20.319 20.886 C 21.543 20.502,22.335 19.550,22.479 18.290 C 22.533 17.819,22.533 9.181,22.479 8.710 C 22.335 7.449,21.530 6.484,20.314 6.113 C 20.024 6.024,19.983 6.023,16.960 6.002 C 14.473 5.984,13.881 5.970,13.800 5.925 C 13.745 5.895,13.151 5.326,12.480 4.661 C 11.141 3.334,11.005 3.230,10.420 3.080 C 10.120 3.003,9.983 3.000,7.164 3.005 C 5.545 3.007,4.136 3.024,4.033 3.041 M12.267 9.803 C 12.407 9.855,12.586 10.021,12.674 10.180 C 12.733 10.287,12.741 10.537,12.752 12.476 L 12.763 14.653 13.654 13.767 C 14.213 13.212,14.600 12.859,14.691 12.821 C 15.068 12.664,15.479 12.814,15.669 13.179 C 15.752 13.338,15.748 13.668,15.661 13.841 C 15.582 13.998,12.666 16.943,12.423 17.111 C 12.291 17.203,12.225 17.220,12.000 17.220 C 11.775 17.220,11.709 17.203,11.577 17.111 C 11.334 16.943,8.418 13.998,8.339 13.841 C 8.252 13.668,8.248 13.338,8.331 13.179 C 8.521 12.814,8.932 12.664,9.309 12.821 C 9.400 12.859,9.787 13.212,10.346 13.767 L 11.237 14.653 11.248 12.476 C 11.259 10.537,11.267 10.287,11.326 10.180 C 11.411 10.028,11.591 9.856,11.720 9.805 C 11.854 9.751,12.129 9.750,12.267 9.803 " fill="#0F172A" stroke="none" fill-rule="evenodd"></path></svg>