<svg width="24" height="24" viewBox="0 0 24 24" fill="none" xmlns="http://www.w3.org/2000/svg"><path d="M4.033 3.041 C 2.665 3.272,1.680 4.318,1.521 5.710 C 1.466 6.185,1.466 17.815,1.521 18.290 C 1.665 19.550,2.457 20.502,3.681 20.886 L 3.980 20.980 12.000 20.980 L 20.020 20.980 20.319 20.886 C 21.543 20.502,22.335 19.550,22.479 18.290 C 22.533 17.819,22.533 9.181,22.479 8.710 C 22.335 7.449,21.530 6.484,20.314 6.113 C 20.024 6.024,19.983 6.023,16.960 6.002 C 14.473 5.984,13.881 5.970,13.800 5.925 C 13.745 5.895,13.151 5.326,12.480 4.661 C 11.141 3.334,11.005 3.230,10.420 3.080 C 10.120 3.003,9.983 3.000,7.164 3.005 C 5.545 3.007,4.136 3.024,4.033 3.041 M15.267 12.803 C 15.540 12.905,15.731 13.193,15.731 13.500 C 15.731 13.807,15.540 14.095,15.267 14.197 C 15.191 14.226,14.132 14.240,12.000 14.240 C 9.868 14.240,8.809 14.226,8.733 14.197 C 8.460 14.095,8.269 13.807,8.269 13.500 C 8.269 13.200,8.458 12.909,8.720 12.805 C 8.863 12.748,15.117 12.746,15.267 12.803 " fill="#0F172A" stroke="none" fill-rule="evenodd"></path></svg>