<svg width="24" height="24" viewBox="0 0 24 24" fill="none" xmlns="http://www.w3.org/2000/svg"><path d="M5.503 3.042 C 4.490 3.212,3.556 3.976,3.202 4.925 C 3.015 5.425,3.001 5.598,3.001 7.434 C 3.000 8.904,3.009 9.165,3.056 9.147 C 3.379 9.023,3.591 9.020,12.000 9.020 C 20.409 9.020,20.621 9.023,20.944 9.147 C 21.022 9.177,21.019 8.808,20.938 8.419 C 20.745 7.480,20.156 6.725,19.296 6.312 C 18.683 6.017,18.795 6.028,16.220 6.003 C 14.363 5.985,13.880 5.969,13.800 5.925 C 13.745 5.895,13.151 5.326,12.480 4.661 C 11.141 3.334,11.005 3.230,10.420 3.080 C 10.125 3.004,9.984 3.000,7.904 3.005 C 6.692 3.007,5.611 3.024,5.503 3.042 M3.534 10.577 C 2.868 10.738,2.245 11.295,2.001 11.945 C 1.954 12.073,1.895 12.314,1.871 12.479 C 1.830 12.766,1.849 12.926,2.275 15.920 C 2.520 17.647,2.741 19.150,2.765 19.260 C 2.938 20.056,3.663 20.770,4.470 20.941 C 4.874 21.027,19.126 21.027,19.530 20.941 C 20.337 20.770,21.062 20.056,21.235 19.260 C 21.259 19.150,21.480 17.647,21.725 15.920 C 22.151 12.926,22.170 12.766,22.129 12.479 C 22.073 12.089,21.952 11.773,21.743 11.466 C 21.449 11.037,20.903 10.667,20.408 10.564 C 20.084 10.497,3.814 10.509,3.534 10.577 " fill="#0F172A" stroke="none" fill-rule="evenodd"></path></svg>