<svg width="24" height="24" viewBox="0 0 24 24" fill="none" xmlns="http://www.w3.org/2000/svg"><path d="M4.033 3.041 C 2.998 3.216,2.166 3.866,1.745 4.829 C 1.529 5.323,1.521 5.429,1.521 7.868 L 1.520 10.116 1.810 9.898 C 2.177 9.621,2.608 9.396,3.063 9.243 C 3.829 8.987,3.347 9.000,12.000 9.000 C 20.653 9.000,20.171 8.987,20.937 9.243 C 21.392 9.396,21.823 9.621,22.190 9.898 L 22.480 10.116 22.479 9.368 C 22.478 8.473,22.431 8.204,22.185 7.700 C 21.800 6.913,21.163 6.371,20.319 6.114 C 20.022 6.024,19.999 6.023,16.960 6.002 C 14.473 5.984,13.881 5.970,13.800 5.925 C 13.745 5.895,13.151 5.326,12.480 4.661 C 11.141 3.334,11.005 3.230,10.420 3.080 C 10.120 3.003,9.983 3.000,7.164 3.005 C 5.545 3.007,4.136 3.024,4.033 3.041 M3.760 10.602 C 2.915 10.819,2.199 11.402,1.822 12.180 C 1.499 12.847,1.508 12.757,1.490 15.458 C 1.473 18.026,1.492 18.423,1.656 18.938 C 1.948 19.859,2.694 20.576,3.681 20.886 L 3.980 20.980 12.000 20.980 L 20.020 20.980 20.319 20.886 C 21.306 20.576,22.052 19.859,22.344 18.938 C 22.508 18.423,22.527 18.026,22.510 15.458 C 22.492 12.757,22.501 12.847,22.178 12.180 C 21.797 11.395,21.080 10.814,20.224 10.599 C 19.913 10.521,19.760 10.520,11.984 10.522 C 4.292 10.524,4.051 10.527,3.760 10.602 " fill="#0F172A" stroke="none" fill-rule="evenodd"></path></svg>