<svg width="24" height="24" viewBox="0 0 24 24" fill="none" xmlns="http://www.w3.org/2000/svg"><path d="M3.823 6.844 C 3.492 6.893,3.119 7.079,2.854 7.328 C 2.594 7.573,2.466 7.761,2.346 8.076 C 2.260 8.299,2.260 8.311,2.249 12.620 C 2.236 17.427,2.229 17.282,2.502 17.745 C 2.965 18.528,3.943 18.881,4.768 18.563 C 4.894 18.515,6.568 17.578,8.488 16.481 L 11.980 14.486 12.002 15.853 C 12.016 16.688,12.042 17.270,12.069 17.348 C 12.247 17.863,12.615 18.276,13.102 18.507 C 13.364 18.632,13.456 18.654,13.773 18.670 C 14.086 18.687,14.182 18.675,14.424 18.594 C 14.800 18.467,21.973 14.372,22.242 14.131 C 23.131 13.332,23.027 11.890,22.031 11.208 C 21.791 11.044,14.865 7.088,14.619 6.975 C 13.611 6.511,12.346 7.127,12.061 8.221 C 12.012 8.409,12.000 8.715,12.000 9.733 C 12.000 10.789,11.991 11.005,11.946 10.988 C 11.916 10.976,10.382 10.104,8.536 9.049 C 6.690 7.994,5.090 7.086,4.979 7.030 C 4.624 6.850,4.224 6.786,3.823 6.844 " fill="#0F172A" stroke="none" fill-rule="evenodd"></path></svg>