<svg width="24" height="24" viewBox="0 0 24 24" fill="none" xmlns="http://www.w3.org/2000/svg"><path d="M10.500 2.282 C 8.467 2.339,6.074 2.565,4.203 2.877 C 3.429 3.005,3.192 3.101,2.845 3.422 C 2.372 3.860,2.241 4.272,2.241 5.332 C 2.240 6.334,2.371 6.894,2.740 7.462 C 2.840 7.617,4.054 8.865,6.201 11.020 C 8.729 13.558,9.529 14.384,9.595 14.525 C 9.643 14.627,9.700 14.816,9.721 14.945 C 9.743 15.080,9.760 16.450,9.760 18.171 C 9.760 20.593,9.770 21.187,9.814 21.292 C 9.933 21.578,10.326 21.798,10.617 21.743 C 10.777 21.713,12.434 20.897,12.830 20.654 C 13.305 20.361,13.761 19.840,13.986 19.330 C 14.227 18.786,14.240 18.660,14.240 16.844 C 14.240 15.109,14.260 14.833,14.404 14.525 C 14.471 14.383,15.267 13.561,17.799 11.020 C 19.949 8.862,21.160 7.617,21.260 7.462 C 21.452 7.167,21.614 6.755,21.697 6.352 C 21.782 5.935,21.783 4.724,21.698 4.364 C 21.570 3.819,21.182 3.330,20.692 3.097 C 20.230 2.878,17.643 2.530,15.200 2.359 C 14.566 2.315,12.212 2.238,11.780 2.248 C 11.648 2.251,11.072 2.266,10.500 2.282 " fill="#0F172A" stroke="none" fill-rule="evenodd"></path></svg>