<svg width="24" height="24" viewBox="0 0 24 24" fill="none" xmlns="http://www.w3.org/2000/svg"><path d="M3.860 3.826 C 2.850 4.041,1.969 4.836,1.659 5.811 C 1.605 5.982,1.543 6.279,1.521 6.471 C 1.467 6.942,1.467 17.058,1.521 17.529 C 1.606 18.278,1.863 18.818,2.380 19.343 C 2.742 19.710,3.104 19.941,3.580 20.108 L 3.900 20.220 12.000 20.220 L 20.100 20.220 20.420 20.108 C 20.896 19.941,21.258 19.710,21.620 19.343 C 22.137 18.818,22.394 18.278,22.479 17.529 C 22.533 17.058,22.533 6.942,22.479 6.471 C 22.350 5.343,21.684 4.434,20.660 3.990 C 20.102 3.748,20.545 3.760,11.972 3.763 C 5.199 3.766,4.102 3.775,3.860 3.826 M8.505 7.579 C 9.030 7.703,9.521 7.995,9.971 8.451 C 10.120 8.602,10.295 8.819,10.360 8.933 C 10.668 9.468,10.349 10.082,9.762 10.086 C 9.481 10.088,9.304 9.986,9.059 9.679 C 8.684 9.208,8.198 8.961,7.754 9.013 C 7.480 9.046,7.122 9.249,6.869 9.515 C 6.032 10.395,5.763 12.062,6.240 13.414 C 6.400 13.868,6.601 14.204,6.894 14.510 C 7.224 14.855,7.486 14.980,7.880 14.980 C 8.230 14.980,8.492 14.872,8.810 14.598 L 9.000 14.434 9.000 13.600 L 9.000 12.767 8.530 12.753 C 7.963 12.737,7.806 12.676,7.635 12.405 C 7.405 12.042,7.518 11.570,7.886 11.360 C 8.058 11.261,8.072 11.260,9.000 11.260 C 9.928 11.260,9.942 11.261,10.114 11.360 C 10.215 11.418,10.328 11.528,10.384 11.623 L 10.480 11.787 10.480 13.317 C 10.480 14.606,10.470 14.868,10.419 14.976 C 10.316 15.193,9.928 15.629,9.631 15.861 C 9.098 16.279,8.521 16.488,7.900 16.490 C 7.110 16.493,6.426 16.186,5.817 15.553 C 4.963 14.667,4.520 13.455,4.520 12.000 C 4.520 10.473,5.012 9.205,5.947 8.320 C 6.309 7.978,6.801 7.697,7.240 7.583 C 7.527 7.508,8.195 7.506,8.505 7.579 M13.051 7.575 C 13.207 7.642,13.380 7.819,13.437 7.973 C 13.497 8.130,13.497 15.870,13.437 16.027 C 13.390 16.153,13.222 16.344,13.101 16.410 C 12.740 16.605,12.247 16.439,12.077 16.065 C 12.005 15.907,12.002 15.724,12.002 12.000 C 12.002 8.300,12.006 8.092,12.075 7.940 C 12.155 7.766,12.235 7.685,12.420 7.587 C 12.569 7.508,12.881 7.502,13.051 7.575 M19.027 7.563 C 19.181 7.620,19.358 7.793,19.425 7.949 C 19.541 8.219,19.460 8.621,19.253 8.808 C 19.056 8.986,18.943 9.000,17.681 9.000 L 16.480 9.000 16.480 10.117 L 16.480 11.233 17.353 11.247 C 18.223 11.260,18.227 11.260,18.388 11.367 C 18.628 11.526,18.733 11.721,18.733 12.007 C 18.733 12.203,18.714 12.271,18.616 12.409 C 18.396 12.722,18.337 12.738,17.350 12.753 L 16.480 12.766 16.480 14.340 C 16.480 15.355,16.465 15.955,16.437 16.027 C 16.390 16.153,16.222 16.344,16.101 16.410 C 15.740 16.605,15.247 16.439,15.077 16.065 C 15.005 15.907,15.002 15.724,15.002 12.000 C 15.002 8.300,15.006 8.092,15.075 7.940 C 15.155 7.766,15.235 7.685,15.420 7.587 C 15.524 7.532,15.766 7.523,17.227 7.522 C 18.326 7.521,18.954 7.535,19.027 7.563 " fill="#0F172A" stroke="none" fill-rule="evenodd"></path></svg>