<svg width="24" height="24" viewBox="0 0 24 24" fill="none" xmlns="http://www.w3.org/2000/svg"><path d="M3.251 3.060 C 2.496 3.225,1.837 3.846,1.575 4.640 C 1.508 4.843,1.502 5.100,1.489 8.050 L 1.476 11.240 4.217 11.240 L 6.959 11.240 6.798 11.030 C 6.109 10.130,6.005 8.892,6.528 7.840 C 6.665 7.564,6.768 7.429,7.079 7.119 C 7.389 6.808,7.524 6.705,7.800 6.568 C 8.434 6.253,9.162 6.157,9.843 6.301 C 10.218 6.379,10.721 6.618,11.010 6.853 L 11.240 7.041 11.240 5.020 L 11.240 3.000 7.370 3.003 C 4.276 3.006,3.450 3.017,3.251 3.060 M12.760 5.003 L 12.760 7.006 12.925 6.865 C 13.373 6.482,14.110 6.229,14.779 6.231 C 15.288 6.232,15.643 6.315,16.100 6.540 C 16.892 6.929,17.491 7.676,17.701 8.540 C 17.791 8.907,17.791 9.533,17.701 9.900 C 17.614 10.257,17.330 10.850,17.140 11.070 L 16.994 11.240 19.737 11.240 L 22.480 11.240 22.480 8.070 C 22.479 5.417,22.470 4.864,22.421 4.680 C 22.209 3.885,21.523 3.227,20.730 3.059 C 20.507 3.011,19.796 3.001,16.610 3.001 L 12.760 3.000 12.760 5.003 M8.797 7.772 C 8.380 7.891,7.999 8.222,7.807 8.633 C 7.717 8.825,7.701 8.915,7.701 9.221 C 7.700 9.548,7.712 9.606,7.831 9.847 C 8.206 10.609,9.168 11.048,10.670 11.143 L 11.120 11.171 11.119 10.956 C 11.119 10.837,11.101 10.573,11.080 10.370 C 10.908 8.737,10.260 7.794,9.272 7.737 C 9.100 7.727,8.905 7.742,8.797 7.772 M14.430 7.761 C 14.156 7.830,13.897 7.991,13.677 8.229 C 13.184 8.762,12.926 9.545,12.854 10.736 L 12.827 11.172 13.284 11.143 C 14.464 11.069,15.253 10.807,15.777 10.317 C 16.136 9.981,16.258 9.702,16.258 9.220 C 16.258 8.911,16.242 8.826,16.146 8.616 C 16.005 8.309,15.695 7.998,15.390 7.859 C 15.132 7.742,14.687 7.696,14.430 7.761 M1.520 15.930 C 1.521 18.583,1.530 19.136,1.579 19.320 C 1.791 20.115,2.477 20.773,3.270 20.941 C 3.493 20.989,4.204 20.999,7.390 20.999 L 11.240 21.000 11.240 18.112 C 11.240 16.524,11.226 15.241,11.209 15.262 C 11.191 15.283,11.088 15.435,10.979 15.600 C 10.711 16.005,9.983 16.726,9.553 17.012 C 8.610 17.641,7.602 17.970,6.597 17.977 C 6.157 17.980,6.127 17.975,5.968 17.870 C 5.764 17.735,5.640 17.505,5.640 17.260 C 5.640 16.760,6.002 16.481,6.652 16.479 C 6.766 16.479,7.022 16.445,7.221 16.404 C 8.812 16.076,10.076 14.812,10.404 13.221 C 10.445 13.022,10.479 12.838,10.479 12.810 C 10.480 12.770,9.558 12.760,6.000 12.760 L 1.520 12.760 1.520 15.930 M13.521 12.810 C 13.521 12.838,13.555 13.022,13.596 13.221 C 13.924 14.812,15.188 16.076,16.779 16.404 C 16.978 16.445,17.234 16.479,17.348 16.479 C 17.998 16.481,18.360 16.760,18.360 17.260 C 18.360 17.505,18.236 17.735,18.032 17.870 C 17.873 17.975,17.843 17.980,17.403 17.977 C 16.385 17.970,15.295 17.607,14.387 16.973 C 13.970 16.682,13.278 15.986,13.021 15.599 C 12.912 15.435,12.809 15.283,12.791 15.262 C 12.774 15.241,12.760 16.524,12.760 18.112 L 12.760 21.000 16.610 20.999 C 19.796 20.999,20.507 20.989,20.730 20.941 C 21.523 20.773,22.209 20.115,22.421 19.320 C 22.470 19.136,22.479 18.583,22.480 15.930 L 22.480 12.760 18.000 12.760 C 14.442 12.760,13.520 12.770,13.521 12.810 " fill="#0F172A" stroke="none" fill-rule="evenodd"></path></svg>