<svg width="24" height="24" viewBox="0 0 24 24" fill="none" xmlns="http://www.w3.org/2000/svg"><path d="M8.723 1.561 C 7.625 1.790,6.666 2.580,6.256 3.594 C 6.065 4.068,6.021 4.309,6.022 4.880 C 6.024 5.521,6.109 5.887,6.382 6.422 L 6.555 6.760 4.846 6.760 C 2.985 6.760,2.873 6.771,2.465 6.991 C 1.986 7.250,1.611 7.794,1.522 8.360 C 1.469 8.694,1.469 9.307,1.522 9.640 C 1.572 9.953,1.750 10.351,1.949 10.593 C 2.137 10.823,2.506 11.060,2.831 11.161 C 3.081 11.238,3.212 11.240,7.164 11.240 L 11.240 11.240 11.240 9.000 L 11.240 6.760 12.000 6.760 L 12.760 6.760 12.760 9.000 L 12.760 11.240 17.216 11.240 C 21.531 11.240,21.680 11.238,21.926 11.161 C 22.515 10.979,22.979 10.515,23.161 9.926 C 23.276 9.556,23.276 8.444,23.161 8.074 C 22.973 7.466,22.469 6.980,21.859 6.822 C 21.661 6.770,21.285 6.760,19.534 6.760 L 17.445 6.760 17.618 6.422 C 17.891 5.887,17.976 5.521,17.978 4.880 C 17.979 4.309,17.935 4.068,17.744 3.594 C 17.371 2.672,16.565 1.948,15.560 1.634 C 15.300 1.552,15.178 1.540,14.640 1.540 C 13.943 1.540,13.701 1.587,13.210 1.819 C 12.828 2.000,12.597 2.160,12.270 2.474 L 12.000 2.733 11.730 2.474 C 11.291 2.053,10.797 1.765,10.260 1.616 C 9.981 1.539,8.999 1.504,8.723 1.561 M9.725 3.040 C 10.420 3.169,11.040 3.763,11.199 4.451 C 11.221 4.544,11.238 5.101,11.239 5.690 L 11.240 6.760 10.230 6.759 C 9.133 6.759,8.890 6.727,8.516 6.538 C 8.086 6.320,7.706 5.852,7.579 5.383 C 7.526 5.187,7.514 5.030,7.529 4.748 C 7.546 4.420,7.566 4.336,7.693 4.076 C 7.852 3.752,7.981 3.595,8.264 3.379 C 8.682 3.060,9.193 2.941,9.725 3.040 M15.000 3.042 C 15.577 3.169,16.049 3.541,16.308 4.076 C 16.433 4.335,16.454 4.422,16.471 4.748 C 16.486 5.030,16.474 5.187,16.421 5.383 C 16.294 5.852,15.914 6.320,15.484 6.538 C 15.110 6.727,14.867 6.759,13.770 6.759 L 12.760 6.760 12.761 5.690 C 12.762 5.101,12.779 4.544,12.801 4.451 C 13.023 3.490,14.048 2.832,15.000 3.042 M3.001 16.230 C 3.001 20.051,2.999 20.003,3.248 20.511 C 3.419 20.860,3.852 21.305,4.180 21.470 C 4.741 21.753,4.518 21.736,8.050 21.751 L 11.240 21.764 11.240 17.262 L 11.240 12.760 7.120 12.760 L 3.000 12.760 3.001 16.230 M12.760 17.262 L 12.760 21.764 16.330 21.751 C 20.292 21.736,20.033 21.754,20.580 21.466 C 21.051 21.219,21.477 20.691,21.665 20.120 C 21.733 19.915,21.739 19.652,21.751 16.330 L 21.764 12.760 17.262 12.760 L 12.760 12.760 12.760 17.262 " fill="#0F172A" stroke="none" fill-rule="evenodd"></path></svg>