<svg width="24" height="24" viewBox="0 0 24 24" fill="none" xmlns="http://www.w3.org/2000/svg"><path d="M11.340 2.281 C 9.465 2.398,7.651 3.078,6.084 4.252 C 5.591 4.621,4.621 5.591,4.252 6.084 C 3.447 7.159,2.885 8.320,2.558 9.588 C 2.170 11.092,2.170 12.908,2.558 14.412 C 3.452 17.876,6.124 20.548,9.588 21.442 C 10.363 21.642,11.077 21.727,11.980 21.727 C 13.185 21.726,14.008 21.597,15.088 21.238 C 17.994 20.272,20.272 17.993,21.239 15.085 C 21.595 14.014,21.726 13.182,21.726 12.000 C 21.726 10.817,21.595 9.987,21.238 8.912 C 20.064 5.380,16.964 2.822,13.280 2.345 C 12.683 2.268,11.941 2.243,11.340 2.281 M13.345 3.861 C 15.374 4.209,17.152 5.251,18.429 6.840 C 20.176 9.015,20.706 11.936,19.834 14.580 C 19.681 15.044,19.210 16.084,19.131 16.133 C 19.109 16.147,19.035 16.069,18.965 15.961 C 18.695 15.545,18.130 15.169,17.610 15.059 C 17.462 15.027,17.153 15.001,16.925 15.001 L 16.510 15.000 16.241 14.747 C 15.809 14.339,15.425 14.203,14.931 14.281 C 14.442 14.360,14.120 14.598,13.832 15.097 C 13.639 15.431,13.394 15.682,13.130 15.814 C 13.026 15.867,12.670 15.986,12.340 16.079 C 11.532 16.306,11.354 16.414,11.156 16.796 C 11.042 17.019,11.016 17.319,11.079 17.712 C 11.140 18.095,11.208 18.263,11.372 18.434 C 11.572 18.642,11.760 18.718,12.171 18.757 C 12.770 18.815,13.183 19.012,13.543 19.411 C 13.706 19.593,13.946 19.988,13.913 20.020 C 13.887 20.044,13.248 20.160,12.921 20.199 C 12.485 20.252,11.514 20.252,11.079 20.199 C 9.573 20.017,8.197 19.464,6.991 18.556 C 6.536 18.213,5.677 17.336,5.344 16.873 C 5.054 16.471,4.652 15.799,4.616 15.655 C 4.583 15.527,5.205 14.304,5.412 14.090 C 5.789 13.700,6.435 13.653,6.868 13.984 C 6.942 14.040,7.188 14.332,7.416 14.633 C 7.644 14.934,7.873 15.220,7.925 15.268 C 8.280 15.595,8.926 15.539,9.256 15.153 C 9.530 14.833,9.542 14.459,9.298 13.860 C 9.217 13.662,9.117 13.414,9.076 13.310 L 9.001 13.120 10.391 12.424 C 11.958 11.641,12.057 11.570,12.183 11.136 C 12.274 10.823,12.239 10.569,12.056 10.220 C 11.776 9.687,11.833 9.180,12.213 8.807 C 12.331 8.691,12.485 8.601,12.732 8.504 C 13.382 8.249,13.658 8.009,14.157 7.264 C 14.546 6.684,14.615 6.523,14.613 6.200 C 14.610 5.745,14.474 5.555,13.680 4.900 C 13.013 4.350,12.878 4.198,12.782 3.890 C 12.758 3.811,12.769 3.800,12.872 3.800 C 12.937 3.800,13.149 3.827,13.345 3.861 M15.660 8.260 C 15.638 8.267,15.571 8.284,15.511 8.297 C 15.347 8.333,15.133 8.542,15.065 8.732 C 15.032 8.824,14.995 9.030,14.983 9.189 C 14.941 9.711,14.732 10.161,14.325 10.605 C 14.051 10.904,14.000 11.008,14.000 11.264 C 14.000 11.570,14.167 11.820,14.450 11.938 C 14.786 12.079,15.058 11.994,15.404 11.641 C 16.083 10.950,16.475 10.046,16.492 9.127 C 16.497 8.860,16.484 8.794,16.393 8.639 C 16.331 8.533,16.224 8.424,16.134 8.374 C 15.984 8.292,15.741 8.233,15.660 8.260 " fill="#0F172A" stroke="none" fill-rule="evenodd"></path></svg>