<svg width="24" height="24" viewBox="0 0 24 24" fill="none" xmlns="http://www.w3.org/2000/svg"><path d="M11.668 2.790 C 10.624 4.439,9.843 6.322,9.425 8.200 C 9.301 8.760,9.194 9.367,9.216 9.389 C 9.246 9.419,9.737 9.523,10.219 9.601 C 10.989 9.725,11.901 9.770,12.650 9.721 C 13.429 9.670,14.701 9.472,14.785 9.389 C 14.794 9.380,14.755 9.122,14.699 8.816 C 14.307 6.690,13.498 4.631,12.332 2.790 C 12.168 2.531,12.019 2.320,12.000 2.320 C 11.981 2.320,11.832 2.531,11.668 2.790 M9.580 2.559 C 7.965 2.982,6.465 3.812,5.292 4.934 C 4.904 5.305,4.410 5.862,4.150 6.223 L 4.003 6.426 4.332 6.726 C 5.225 7.543,6.237 8.228,7.226 8.685 C 7.809 8.955,7.741 8.973,7.821 8.527 C 8.145 6.709,8.947 4.494,9.870 2.870 C 10.004 2.634,10.093 2.441,10.067 2.442 C 10.041 2.443,9.822 2.495,9.580 2.559 M14.107 2.830 C 15.020 4.439,15.745 6.390,16.121 8.255 C 16.189 8.588,16.247 8.873,16.252 8.889 C 16.263 8.931,17.042 8.571,17.486 8.318 C 18.271 7.872,19.054 7.297,19.731 6.671 L 20.001 6.420 19.698 6.027 C 18.385 4.331,16.509 3.100,14.407 2.557 C 14.158 2.493,13.939 2.440,13.920 2.440 C 13.901 2.440,13.985 2.616,14.107 2.830 M3.070 8.092 C 2.755 8.821,2.531 9.572,2.401 10.333 C 2.299 10.931,2.234 11.939,2.267 12.403 L 2.292 12.760 2.656 12.995 C 3.792 13.728,5.115 14.372,6.381 14.809 C 7.021 15.029,7.711 15.222,7.744 15.189 C 7.758 15.175,7.749 15.051,7.726 14.912 C 7.583 14.086,7.459 12.210,7.500 11.510 C 7.511 11.318,7.529 11.001,7.541 10.807 L 7.562 10.453 7.271 10.342 C 6.495 10.043,5.348 9.420,4.650 8.917 C 4.247 8.627,3.537 8.052,3.420 7.922 C 3.247 7.727,3.222 7.739,3.070 8.092 M20.538 7.962 C 19.487 8.925,18.017 9.843,16.740 10.337 L 16.460 10.445 16.460 11.932 C 16.460 13.410,16.439 13.759,16.294 14.732 C 16.259 14.969,16.241 15.174,16.255 15.188 C 16.268 15.202,16.428 15.172,16.610 15.123 C 18.218 14.684,19.862 13.948,21.287 13.030 L 21.714 12.755 21.742 12.448 C 21.802 11.816,21.699 10.709,21.497 9.810 C 21.384 9.306,21.107 8.474,20.904 8.025 L 20.776 7.744 20.538 7.962 M9.026 11.187 C 8.940 12.100,9.057 13.864,9.285 15.105 L 9.367 15.550 9.714 15.594 C 11.183 15.780,12.817 15.780,14.286 15.594 L 14.633 15.550 14.715 15.105 C 14.917 14.008,15.025 12.613,14.987 11.586 C 14.975 11.237,14.956 10.942,14.945 10.932 C 14.934 10.921,14.803 10.940,14.653 10.974 C 13.652 11.200,11.966 11.303,10.893 11.203 C 10.460 11.162,9.532 11.020,9.156 10.936 C 9.054 10.913,9.052 10.917,9.026 11.187 M2.805 15.236 C 3.117 16.148,3.774 17.334,4.393 18.099 C 5.727 19.748,7.642 20.971,9.660 21.462 C 9.880 21.516,10.072 21.560,10.086 21.560 C 10.100 21.560,10.004 21.367,9.872 21.130 C 9.293 20.093,8.832 19.038,8.460 17.901 C 8.323 17.482,8.195 17.077,8.174 17.001 L 8.137 16.861 7.419 16.678 C 5.999 16.317,4.861 15.890,3.534 15.220 L 2.647 14.772 2.805 15.236 M20.460 15.218 C 19.156 15.884,18.012 16.315,16.583 16.678 C 15.924 16.846,15.864 16.868,15.837 16.960 C 15.386 18.509,14.820 19.894,14.151 21.090 C 14.006 21.348,13.899 21.560,13.914 21.560 C 13.928 21.560,14.120 21.516,14.340 21.462 C 17.484 20.696,20.145 18.277,21.195 15.230 C 21.284 14.972,21.353 14.762,21.348 14.764 C 21.344 14.766,20.944 14.971,20.460 15.218 M9.903 17.525 C 10.228 18.460,10.713 19.556,11.142 20.326 C 11.446 20.871,11.957 21.680,11.998 21.680 C 12.081 21.680,12.820 20.434,13.218 19.620 C 13.568 18.905,13.856 18.218,14.097 17.525 L 14.240 17.111 14.070 17.136 C 13.627 17.200,12.857 17.239,12.000 17.239 C 11.143 17.239,10.373 17.200,9.930 17.136 L 9.760 17.111 9.903 17.525 " fill="#0F172A" stroke="none" fill-rule="evenodd"></path></svg>