<svg width="24" height="24" viewBox="0 0 24 24" fill="none" xmlns="http://www.w3.org/2000/svg"><path d="M11.340 2.281 C 9.465 2.398,7.649 3.079,6.084 4.252 C 5.583 4.627,4.616 5.596,4.245 6.092 C 3.236 7.444,2.622 8.895,2.353 10.572 C 2.239 11.277,2.230 12.591,2.333 13.300 C 2.582 15.004,3.215 16.530,4.245 17.908 C 4.622 18.412,5.588 19.378,6.092 19.755 C 7.471 20.785,9.000 21.420,10.700 21.666 C 11.033 21.714,11.432 21.736,12.000 21.736 C 13.556 21.736,14.894 21.430,16.260 20.762 C 17.312 20.247,18.030 19.732,18.881 18.881 C 19.732 18.030,20.248 17.311,20.761 16.260 C 22.377 12.955,21.991 9.058,19.755 6.096 C 18.214 4.055,15.834 2.676,13.280 2.345 C 12.683 2.268,11.941 2.243,11.340 2.281 M8.508 4.550 C 8.499 4.566,8.208 5.056,7.860 5.637 C 7.512 6.218,7.201 6.784,7.169 6.893 C 7.050 7.297,7.252 7.739,7.644 7.935 C 8.007 8.115,8.375 8.065,8.707 7.789 C 8.970 7.570,9.076 7.534,9.549 7.503 C 10.197 7.461,10.675 7.278,11.048 6.929 L 11.245 6.744 11.622 6.931 C 12.267 7.252,12.519 7.569,12.520 8.061 C 12.520 8.353,12.301 9.150,12.148 9.410 C 11.986 9.687,11.736 9.856,11.392 9.921 C 11.210 9.956,11.089 9.942,10.461 9.813 C 9.259 9.565,8.743 9.615,8.108 10.040 C 7.250 10.614,6.825 11.761,7.116 12.720 C 7.236 13.115,7.419 13.408,7.729 13.706 C 8.007 13.973,8.159 14.060,8.829 14.334 C 9.520 14.616,9.838 14.852,10.125 15.294 C 10.430 15.763,10.451 15.864,10.479 16.960 C 10.502 17.872,10.510 17.953,10.596 18.128 C 10.778 18.503,11.187 18.760,11.601 18.760 C 11.820 18.760,12.339 18.616,12.572 18.491 C 13.002 18.259,13.208 17.996,14.019 16.643 C 14.479 15.876,14.812 15.276,14.872 15.103 C 14.952 14.875,14.977 14.707,14.999 14.240 C 15.031 13.559,15.068 13.460,15.446 13.053 C 15.579 12.911,15.724 12.712,15.768 12.610 C 15.932 12.241,15.843 11.718,15.568 11.425 C 15.509 11.363,15.275 11.187,15.050 11.035 C 14.505 10.667,14.420 10.541,14.420 10.103 C 14.420 9.815,14.432 9.762,14.532 9.615 C 14.595 9.522,14.727 9.405,14.837 9.345 C 15.125 9.189,15.333 9.204,16.160 9.440 C 16.545 9.550,16.928 9.640,17.011 9.640 C 17.189 9.640,17.389 9.563,17.570 9.425 C 17.750 9.288,17.882 9.263,18.051 9.334 C 18.184 9.389,18.232 9.471,18.839 10.677 L 19.485 11.962 19.850 12.344 L 20.215 12.726 20.164 13.133 C 20.056 14.000,19.732 15.011,19.300 15.829 C 17.542 19.153,13.835 20.861,10.160 20.041 C 7.850 19.525,5.832 17.970,4.704 15.836 C 4.295 15.063,4.011 14.215,3.853 13.300 C 3.754 12.727,3.754 11.299,3.852 10.716 C 4.152 8.930,4.921 7.429,6.176 6.178 C 6.826 5.530,7.381 5.116,8.135 4.715 C 8.526 4.507,8.533 4.505,8.508 4.550 " fill="#0F172A" stroke="none" fill-rule="evenodd"></path></svg>