<svg width="24" height="24" viewBox="0 0 24 24" fill="none" xmlns="http://www.w3.org/2000/svg"><path d="M11.340 2.281 C 9.465 2.398,7.649 3.079,6.084 4.252 C 5.583 4.627,4.616 5.596,4.245 6.092 C 3.236 7.444,2.622 8.895,2.353 10.572 C 2.239 11.277,2.230 12.591,2.333 13.300 C 2.582 15.004,3.215 16.530,4.245 17.908 C 4.622 18.412,5.588 19.378,6.092 19.755 C 7.471 20.785,9.000 21.420,10.700 21.666 C 11.033 21.714,11.432 21.736,12.000 21.736 C 13.556 21.736,14.894 21.430,16.260 20.762 C 17.312 20.247,18.030 19.732,18.881 18.881 C 19.732 18.030,20.248 17.311,20.761 16.260 C 22.377 12.955,21.991 9.058,19.755 6.096 C 18.214 4.055,15.834 2.676,13.280 2.345 C 12.683 2.268,11.941 2.243,11.340 2.281 M17.136 5.548 C 18.738 6.831,19.787 8.627,20.147 10.700 C 20.244 11.262,20.245 12.737,20.147 13.300 C 19.829 15.136,18.972 16.755,17.663 17.991 C 16.112 19.456,14.140 20.238,12.000 20.238 C 9.838 20.238,7.860 19.445,6.298 17.952 C 5.006 16.717,4.167 15.120,3.853 13.300 C 3.753 12.721,3.754 11.300,3.853 10.705 C 4.053 9.516,4.468 8.451,5.108 7.480 C 5.390 7.054,5.875 6.449,6.129 6.207 L 6.269 6.075 6.297 6.287 C 6.469 7.595,6.783 8.550,7.302 9.350 C 7.627 9.850,7.785 10.029,8.814 11.068 L 9.734 11.997 9.497 12.488 C 9.272 12.956,9.260 12.995,9.261 13.280 C 9.262 13.514,9.282 13.619,9.355 13.760 C 9.411 13.869,9.759 14.254,10.241 14.740 C 10.722 15.225,11.071 15.611,11.127 15.720 C 11.213 15.887,11.222 15.962,11.241 16.740 C 11.264 17.710,11.294 17.817,11.617 18.114 C 11.889 18.363,12.198 18.495,12.520 18.498 C 12.949 18.501,13.120 18.391,13.873 17.622 C 15.087 16.383,15.781 15.258,16.223 13.812 C 16.343 13.419,16.364 13.297,16.350 13.080 C 16.329 12.773,16.229 12.559,16.013 12.356 C 15.604 11.971,14.557 11.137,14.380 11.054 C 14.119 10.932,13.903 10.934,13.145 11.063 C 12.178 11.228,11.956 11.184,11.473 10.728 C 11.110 10.385,10.979 10.121,10.983 9.740 C 10.986 9.397,11.101 9.150,11.387 8.872 C 11.646 8.620,11.892 8.515,12.225 8.515 C 12.462 8.515,12.535 8.537,12.965 8.743 C 13.232 8.870,13.522 8.979,13.622 8.990 C 14.006 9.034,14.393 8.749,14.476 8.361 C 14.521 8.153,14.486 7.969,14.356 7.712 C 14.314 7.630,14.280 7.545,14.280 7.523 C 14.280 7.501,14.635 7.244,15.069 6.953 C 15.904 6.392,16.350 5.998,16.657 5.549 C 16.743 5.423,16.822 5.320,16.832 5.320 C 16.843 5.320,16.979 5.423,17.136 5.548 " fill="#0F172A" stroke="none" fill-rule="evenodd"></path></svg>