<svg width="24" height="24" viewBox="0 0 24 24" fill="none" xmlns="http://www.w3.org/2000/svg"><path d="M11.128 0.882 C 10.857 1.018,10.710 1.169,10.584 1.440 C 10.501 1.618,10.500 1.656,10.489 5.690 L 10.478 9.760 10.229 9.761 C 10.092 9.761,9.782 9.788,9.540 9.820 C 9.298 9.853,9.078 9.879,9.051 9.880 C 9.012 9.880,8.999 9.133,8.991 6.470 L 8.980 3.060 8.862 2.847 C 8.653 2.469,8.312 2.268,7.877 2.265 C 7.550 2.263,7.229 2.407,7.023 2.647 C 6.747 2.969,6.760 2.764,6.760 6.957 L 6.759 10.740 6.330 11.029 C 6.093 11.187,5.756 11.443,5.580 11.596 L 5.260 11.875 5.240 8.967 L 5.220 6.060 5.127 5.872 C 4.862 5.334,4.177 5.106,3.629 5.374 C 3.389 5.491,3.250 5.630,3.108 5.895 L 3.020 6.060 3.008 11.060 C 2.999 14.514,3.009 16.196,3.040 16.500 C 3.129 17.386,3.369 18.229,3.759 19.025 C 4.888 21.333,7.078 22.887,9.640 23.200 C 9.896 23.232,10.566 23.241,11.700 23.229 C 13.527 23.211,13.556 23.207,14.360 22.952 C 15.040 22.736,15.783 22.333,16.320 21.888 C 16.652 21.613,18.487 19.785,18.798 19.420 C 19.332 18.792,19.708 18.120,19.951 17.360 C 20.209 16.556,20.209 16.553,20.236 14.420 L 20.260 12.460 20.355 12.280 C 20.408 12.181,20.513 12.030,20.590 11.945 C 21.101 11.376,20.975 10.553,20.320 10.184 C 20.125 10.074,20.064 10.060,19.780 10.060 C 19.502 10.060,19.433 10.075,19.251 10.176 C 18.831 10.409,18.351 11.115,18.135 11.820 C 18.025 12.179,18.025 12.184,18.002 13.700 C 17.983 15.011,17.971 15.236,17.914 15.340 C 17.752 15.634,17.497 15.760,17.066 15.760 C 16.024 15.760,14.550 16.088,13.583 16.535 C 13.416 16.612,13.280 16.659,13.280 16.640 C 13.280 16.621,13.386 16.447,13.516 16.253 C 13.804 15.823,14.161 15.448,14.560 15.153 C 15.089 14.763,15.459 14.585,16.120 14.403 L 16.500 14.298 16.500 8.739 C 16.500 3.382,16.497 3.173,16.424 2.984 C 16.326 2.729,16.116 2.500,15.863 2.371 C 15.591 2.232,15.178 2.225,14.912 2.354 C 14.678 2.467,14.451 2.694,14.345 2.920 C 14.261 3.099,14.260 3.126,14.249 6.910 C 14.243 9.006,14.231 10.720,14.222 10.720 C 14.213 10.720,14.023 10.631,13.801 10.523 C 13.579 10.414,13.254 10.274,13.079 10.213 L 12.761 10.100 12.751 5.860 L 12.740 1.620 12.628 1.391 C 12.346 0.817,11.698 0.597,11.128 0.882 " fill="#0F172A" stroke="none" fill-rule="evenodd"></path></svg>