<svg width="24" height="24" viewBox="0 0 24 24" fill="none" xmlns="http://www.w3.org/2000/svg"><path d="M14.811 2.279 C 14.739 2.296,14.618 2.358,14.541 2.417 C 14.290 2.608,14.267 2.694,14.236 3.560 C 14.203 4.485,14.109 4.925,13.822 5.500 C 13.523 6.101,13.087 6.538,12.364 6.962 C 11.060 7.727,10.418 8.248,9.577 9.225 C 9.013 9.878,8.798 10.055,8.213 10.342 C 7.713 10.587,7.628 10.666,7.233 11.260 C 5.995 13.119,5.670 15.500,6.361 17.660 C 6.519 18.151,6.595 18.303,6.766 18.468 C 7.015 18.706,7.132 18.732,8.100 18.765 C 8.677 18.784,9.070 18.817,9.240 18.859 C 9.383 18.894,10.310 19.191,11.300 19.520 C 12.407 19.887,13.241 20.141,13.466 20.180 C 13.778 20.234,14.194 20.241,16.286 20.231 C 18.612 20.220,18.752 20.215,18.960 20.141 C 19.475 19.956,19.843 19.602,20.436 18.720 C 21.691 16.855,22.356 14.866,22.481 12.600 C 22.523 11.846,22.475 10.829,22.379 10.463 C 22.244 9.944,21.908 9.530,21.409 9.267 C 20.929 9.015,20.797 9.001,18.849 9.001 C 16.987 9.000,16.950 8.996,16.727 8.788 C 16.586 8.657,16.476 8.415,16.452 8.185 C 16.433 8.004,16.457 7.915,16.653 7.420 C 17.055 6.405,17.196 5.767,17.228 4.820 C 17.245 4.335,17.236 4.170,17.181 3.960 C 16.988 3.219,16.414 2.602,15.700 2.368 C 15.422 2.277,14.997 2.235,14.811 2.279 M3.762 9.804 C 3.474 9.860,3.037 10.091,2.789 10.319 C 2.615 10.478,2.518 10.612,2.402 10.855 C 2.012 11.670,1.670 13.057,1.559 14.272 C 1.489 15.033,1.528 16.462,1.638 17.176 C 1.756 17.942,2.008 18.909,2.169 19.212 C 2.418 19.679,2.892 20.035,3.458 20.179 C 3.626 20.222,3.901 20.240,4.382 20.240 C 5.029 20.240,5.076 20.235,5.204 20.149 C 5.370 20.039,5.480 19.831,5.480 19.630 C 5.480 19.539,5.411 19.326,5.302 19.085 C 4.764 17.887,4.513 16.706,4.510 15.360 C 4.508 13.802,4.885 12.345,5.641 10.993 C 5.912 10.508,5.948 10.293,5.800 10.050 C 5.637 9.783,5.550 9.760,4.700 9.765 C 4.282 9.767,3.860 9.784,3.762 9.804 " fill="#0F172A" stroke="none" fill-rule="evenodd"></path></svg>