<svg width="24" height="24" viewBox="0 0 24 24" fill="none" xmlns="http://www.w3.org/2000/svg"><path d="M5.200 3.824 C 4.696 3.958,4.382 4.182,3.985 4.694 C 2.740 6.299,1.922 8.237,1.620 10.300 C 1.468 11.336,1.468 12.952,1.621 13.537 C 1.802 14.232,2.368 14.760,3.122 14.938 C 3.332 14.988,3.706 14.999,5.131 14.999 C 7.014 15.000,7.050 15.004,7.273 15.212 C 7.415 15.344,7.524 15.585,7.548 15.817 C 7.565 15.983,7.548 16.075,7.462 16.282 C 7.258 16.773,7.075 17.298,6.980 17.665 C 6.767 18.482,6.697 19.563,6.823 20.054 C 7.008 20.770,7.565 21.376,8.263 21.620 C 8.796 21.806,9.223 21.790,9.480 21.574 C 9.711 21.379,9.733 21.292,9.764 20.440 C 9.795 19.569,9.884 19.119,10.126 18.592 C 10.465 17.858,10.867 17.486,12.128 16.740 C 12.917 16.274,13.633 15.678,14.212 15.007 C 15.175 13.890,15.649 13.574,16.430 13.529 L 16.760 13.510 16.903 13.285 C 17.148 12.898,17.438 12.261,17.621 11.703 C 18.124 10.176,18.122 8.530,17.615 7.006 C 17.470 6.567,17.096 5.765,16.882 5.430 L 16.760 5.240 16.024 5.240 C 15.527 5.240,15.181 5.220,14.954 5.177 C 14.770 5.143,13.783 4.839,12.760 4.501 C 11.553 4.102,10.768 3.865,10.523 3.823 C 9.987 3.733,5.539 3.734,5.200 3.824 M18.762 4.625 C 18.466 4.874,18.451 5.105,18.695 5.661 C 19.174 6.749,19.400 7.665,19.479 8.838 C 19.593 10.537,19.186 12.302,18.332 13.811 C 18.125 14.177,18.111 14.216,18.128 14.415 C 18.149 14.669,18.273 14.865,18.465 14.945 C 18.650 15.022,19.842 15.019,20.213 14.941 C 20.759 14.825,21.212 14.530,21.479 14.117 C 21.780 13.651,22.189 12.282,22.368 11.140 C 22.444 10.657,22.457 10.416,22.458 9.380 C 22.459 8.081,22.432 7.801,22.202 6.740 C 21.940 5.534,21.691 5.110,21.045 4.766 C 20.658 4.560,20.427 4.520,19.615 4.520 C 18.887 4.520,18.886 4.520,18.762 4.625 " fill="#0F172A" stroke="none" fill-rule="evenodd"></path></svg>