<svg width="24" height="24" viewBox="0 0 24 24" fill="none" xmlns="http://www.w3.org/2000/svg"><path d="M10.620 1.586 C 10.447 1.678,10.334 1.791,10.276 1.929 C 10.249 1.996,9.981 3.277,9.681 4.775 L 9.136 7.500 7.058 7.520 C 5.536 7.535,4.957 7.553,4.895 7.588 C 4.763 7.665,4.564 7.911,4.537 8.031 C 4.524 8.091,4.507 8.160,4.500 8.185 C 4.472 8.279,4.569 8.584,4.668 8.714 C 4.724 8.788,4.845 8.882,4.935 8.923 C 5.089 8.993,5.230 8.998,6.971 8.999 L 8.842 9.000 8.820 9.090 C 8.797 9.184,7.640 14.970,7.640 14.989 C 7.640 14.995,6.736 15.000,5.630 15.001 C 3.379 15.002,3.433 14.995,3.172 15.292 C 2.818 15.695,3.058 16.360,3.600 16.476 C 3.730 16.504,4.439 16.520,5.562 16.520 C 6.529 16.520,7.320 16.534,7.320 16.550 C 7.320 16.567,7.087 17.744,6.803 19.166 C 6.275 21.809,6.266 21.870,6.392 22.105 C 6.461 22.234,6.709 22.436,6.831 22.463 C 6.891 22.476,6.960 22.493,6.985 22.500 C 7.079 22.528,7.384 22.431,7.514 22.332 C 7.589 22.275,7.681 22.155,7.719 22.064 C 7.758 21.974,8.030 20.689,8.324 19.210 L 8.859 16.520 11.090 16.520 C 12.316 16.520,13.320 16.534,13.320 16.550 C 13.320 16.567,13.087 17.744,12.803 19.166 C 12.275 21.809,12.266 21.870,12.392 22.105 C 12.461 22.234,12.709 22.436,12.831 22.463 C 12.891 22.476,12.960 22.493,12.985 22.500 C 13.079 22.528,13.384 22.431,13.514 22.332 C 13.589 22.275,13.681 22.155,13.719 22.064 C 13.758 21.974,14.030 20.690,14.324 19.212 L 14.859 16.523 16.899 16.512 C 18.730 16.501,18.953 16.493,19.064 16.432 C 19.229 16.342,19.433 16.105,19.463 15.969 C 19.476 15.909,19.493 15.840,19.500 15.815 C 19.528 15.721,19.431 15.416,19.332 15.286 C 19.276 15.212,19.155 15.118,19.065 15.077 C 18.911 15.007,18.770 15.002,17.029 15.001 L 15.158 15.000 15.180 14.910 C 15.203 14.816,16.360 9.030,16.360 9.011 C 16.360 9.005,17.256 9.000,18.350 9.000 C 19.567 9.000,20.397 8.984,20.485 8.959 C 20.704 8.898,20.947 8.616,20.982 8.380 C 21.033 8.041,20.888 7.747,20.598 7.599 C 20.450 7.524,20.355 7.520,18.562 7.520 C 17.083 7.520,16.680 7.509,16.680 7.470 C 16.680 7.442,16.913 6.256,17.197 4.834 C 17.723 2.198,17.733 2.128,17.610 1.899 C 17.544 1.778,17.353 1.610,17.227 1.563 C 16.856 1.422,16.369 1.628,16.255 1.973 C 16.239 2.021,15.981 3.284,15.681 4.780 L 15.136 7.500 12.908 7.510 C 11.139 7.519,10.680 7.510,10.680 7.470 C 10.680 7.443,10.913 6.256,11.197 4.834 C 11.723 2.198,11.733 2.128,11.610 1.899 C 11.544 1.778,11.353 1.610,11.227 1.563 C 11.065 1.501,10.759 1.513,10.620 1.586 M14.820 9.090 C 14.797 9.184,13.640 14.970,13.640 14.989 C 13.640 14.995,12.632 15.000,11.399 15.000 L 9.158 15.000 9.180 14.910 C 9.203 14.816,10.360 9.030,10.360 9.011 C 10.360 9.005,11.368 9.000,12.601 9.000 L 14.842 9.000 14.820 9.090 " fill="#0F172A" stroke="none" fill-rule="evenodd"></path></svg>