<svg width="24" height="24" viewBox="0 0 24 24" fill="none" xmlns="http://www.w3.org/2000/svg"><path d="M7.140 3.025 C 5.284 3.227,3.647 4.314,2.843 5.880 C 2.410 6.724,2.261 7.355,2.263 8.340 C 2.268 11.141,3.522 13.867,6.052 16.575 C 7.320 17.932,9.113 19.372,10.947 20.505 C 11.503 20.849,11.825 21.000,12.000 21.000 C 12.175 21.000,12.497 20.849,13.053 20.505 C 16.475 18.390,19.142 15.716,20.536 13.000 C 21.145 11.815,21.517 10.646,21.684 9.400 C 21.764 8.802,21.754 7.732,21.664 7.300 C 21.224 5.182,19.604 3.578,17.438 3.116 C 16.844 2.989,15.800 2.988,15.212 3.113 C 14.070 3.358,13.124 3.876,12.330 4.691 L 12.000 5.030 11.670 4.691 C 10.638 3.631,9.326 3.058,7.841 3.021 C 7.543 3.014,7.228 3.016,7.140 3.025 " fill="#0F172A" stroke="none" fill-rule="evenodd"></path></svg>