<svg width="24" height="24" viewBox="0 0 24 24" fill="none" xmlns="http://www.w3.org/2000/svg"><path d="M11.520 2.182 C 11.377 2.213,11.125 2.304,10.960 2.384 C 10.669 2.525,10.523 2.666,6.187 6.995 C 3.727 9.451,1.669 11.537,1.613 11.631 C 1.474 11.865,1.474 12.135,1.614 12.373 C 1.733 12.577,1.847 12.661,2.095 12.727 C 2.491 12.833,2.167 13.126,7.080 8.221 C 9.533 5.772,11.598 3.739,11.668 3.704 C 11.738 3.669,11.888 3.640,12.000 3.640 C 12.112 3.640,12.262 3.669,12.332 3.704 C 12.402 3.739,14.467 5.772,16.920 8.221 C 21.834 13.126,21.509 12.833,21.906 12.727 C 22.411 12.592,22.644 12.063,22.387 11.631 C 22.331 11.537,20.273 9.451,17.813 6.995 C 13.474 2.664,13.331 2.526,13.040 2.384 C 12.527 2.136,12.038 2.071,11.520 2.182 M7.870 9.550 L 3.760 13.660 3.760 16.900 C 3.761 19.478,3.772 20.181,3.814 20.340 C 4.013 21.084,4.624 21.621,5.387 21.723 C 5.578 21.748,6.387 21.760,7.463 21.752 L 9.226 21.740 9.388 21.633 C 9.477 21.574,9.593 21.457,9.645 21.373 L 9.740 21.220 9.760 18.740 C 9.781 16.074,9.776 16.139,9.986 15.955 C 10.207 15.760,10.210 15.760,12.000 15.760 C 13.790 15.760,13.793 15.760,14.014 15.955 C 14.224 16.139,14.219 16.074,14.240 18.740 L 14.260 21.220 14.355 21.373 C 14.407 21.457,14.523 21.574,14.612 21.633 L 14.774 21.740 16.537 21.752 C 17.613 21.760,18.422 21.748,18.613 21.723 C 19.376 21.621,19.987 21.084,20.186 20.340 C 20.228 20.181,20.239 19.478,20.240 16.900 L 20.240 13.660 16.130 9.550 C 13.869 7.289,12.011 5.440,12.000 5.440 C 11.989 5.440,10.130 7.290,7.870 9.550 " fill="#0F172A" stroke="none" fill-rule="evenodd"></path></svg>