<svg width="24" height="24" viewBox="0 0 24 24" fill="none" xmlns="http://www.w3.org/2000/svg"><path d="M3.660 2.258 C 3.638 2.266,3.572 2.284,3.513 2.296 C 3.375 2.327,3.176 2.495,3.089 2.655 C 3.026 2.768,3.018 3.022,3.000 5.359 L 2.980 7.938 2.477 8.122 C 2.200 8.223,1.907 8.346,1.825 8.397 C 1.531 8.579,1.425 9.016,1.594 9.349 C 1.731 9.617,2.068 9.794,2.343 9.742 C 2.578 9.698,19.089 3.679,19.209 3.594 C 19.369 3.480,19.489 3.223,19.489 2.995 C 19.489 2.582,19.154 2.257,18.740 2.268 C 18.584 2.273,17.162 2.776,12.280 4.553 L 6.020 6.833 6.000 4.806 C 5.979 2.658,5.983 2.705,5.785 2.486 C 5.593 2.274,5.524 2.261,4.580 2.252 C 4.096 2.247,3.682 2.250,3.660 2.258 M10.640 8.342 C 6.625 9.803,3.264 11.027,3.170 11.063 L 3.000 11.127 3.000 15.678 L 3.000 20.230 2.527 20.247 C 2.107 20.262,2.035 20.275,1.877 20.368 C 1.392 20.652,1.397 21.360,1.886 21.640 L 2.060 21.740 12.000 21.740 L 21.940 21.740 22.120 21.634 C 22.605 21.349,22.606 20.651,22.123 20.368 C 21.965 20.275,21.893 20.262,21.473 20.247 L 21.000 20.230 21.000 16.015 C 21.000 13.697,21.015 11.800,21.033 11.800 C 21.051 11.800,21.195 11.845,21.352 11.900 C 21.510 11.955,21.693 12.000,21.761 12.000 C 21.903 12.000,22.145 11.906,22.253 11.808 C 22.460 11.621,22.541 11.219,22.425 10.949 C 22.301 10.660,22.237 10.629,20.071 9.841 L 18.020 9.094 18.010 7.387 C 18.004 6.448,17.986 5.681,17.970 5.683 C 17.953 5.684,14.655 6.881,10.640 8.342 M19.140 11.098 L 19.500 11.229 19.510 15.734 L 19.520 20.240 18.760 20.240 L 18.000 20.240 18.000 15.462 L 18.000 10.683 18.390 10.825 C 18.605 10.903,18.942 11.026,19.140 11.098 M12.219 14.285 C 12.423 14.341,12.659 14.577,12.715 14.781 C 12.745 14.889,12.759 15.694,12.759 17.280 C 12.758 19.473,12.754 19.630,12.684 19.780 C 12.598 19.966,12.427 20.137,12.267 20.197 C 12.194 20.225,11.572 20.240,10.500 20.240 C 9.428 20.240,8.806 20.225,8.733 20.197 C 8.573 20.137,8.402 19.966,8.316 19.780 C 8.246 19.630,8.242 19.473,8.241 17.280 C 8.241 15.742,8.255 14.887,8.283 14.786 C 8.339 14.585,8.540 14.371,8.740 14.300 C 8.945 14.227,11.965 14.214,12.219 14.285 " fill="#0F172A" stroke="none" fill-rule="evenodd"></path></svg>