<svg width="24" height="24" viewBox="0 0 24 24" fill="none" xmlns="http://www.w3.org/2000/svg"><path d="M3.860 3.826 C 2.850 4.041,1.969 4.836,1.659 5.811 C 1.605 5.982,1.543 6.279,1.521 6.471 C 1.467 6.942,1.467 17.058,1.521 17.529 C 1.606 18.278,1.863 18.818,2.380 19.343 C 2.742 19.710,3.104 19.941,3.580 20.108 L 3.900 20.220 12.000 20.220 L 20.100 20.220 20.420 20.108 C 20.896 19.941,21.258 19.710,21.620 19.343 C 22.137 18.818,22.394 18.278,22.479 17.529 C 22.533 17.058,22.533 6.942,22.479 6.471 C 22.350 5.343,21.684 4.434,20.660 3.990 C 20.102 3.748,20.545 3.760,11.972 3.763 C 5.199 3.766,4.102 3.775,3.860 3.826 M9.156 6.821 C 9.700 6.950,10.202 7.312,10.522 7.808 C 10.977 8.512,10.976 9.490,10.520 10.195 C 10.089 10.862,9.397 11.241,8.614 11.240 C 7.624 11.238,6.753 10.575,6.464 9.603 C 6.379 9.315,6.379 8.685,6.464 8.397 C 6.693 7.627,7.339 7.000,8.091 6.817 C 8.379 6.748,8.850 6.749,9.156 6.821 M19.120 8.366 C 19.486 8.581,19.595 9.043,19.365 9.405 C 19.146 9.751,19.231 9.740,16.860 9.740 C 14.836 9.740,14.776 9.738,14.641 9.658 C 14.564 9.613,14.448 9.501,14.384 9.409 C 14.098 9.003,14.329 8.396,14.815 8.277 C 14.884 8.260,15.840 8.249,16.940 8.253 L 18.940 8.260 19.120 8.366 M19.120 11.366 C 19.486 11.581,19.595 12.043,19.365 12.405 C 19.146 12.751,19.231 12.740,16.860 12.740 C 14.836 12.740,14.776 12.738,14.641 12.658 C 14.564 12.613,14.448 12.501,14.384 12.409 C 14.098 12.003,14.329 11.396,14.815 11.277 C 14.884 11.260,15.840 11.249,16.940 11.253 L 18.940 11.260 19.120 11.366 M9.325 12.819 C 10.188 12.970,10.924 13.355,11.541 13.976 C 11.912 14.350,12.196 14.760,12.386 15.195 C 12.557 15.587,12.566 15.854,12.418 16.108 C 12.326 16.264,12.265 16.307,11.828 16.518 C 10.806 17.011,9.792 17.238,8.620 17.238 C 7.480 17.238,6.449 17.012,5.460 16.543 C 4.639 16.154,4.539 15.847,4.959 15.015 C 5.539 13.866,6.632 13.048,7.893 12.819 C 8.285 12.748,8.921 12.748,9.325 12.819 M19.120 14.366 C 19.486 14.581,19.595 15.043,19.365 15.405 C 19.146 15.751,19.231 15.740,16.860 15.740 C 14.836 15.740,14.776 15.738,14.641 15.658 C 14.564 15.613,14.448 15.501,14.384 15.409 C 14.098 15.003,14.329 14.396,14.815 14.277 C 14.884 14.260,15.840 14.249,16.940 14.253 L 18.940 14.260 19.120 14.366 " fill="#0F172A" stroke="none" fill-rule="evenodd"></path></svg>