<svg width="24" height="24" viewBox="0 0 24 24" fill="none" xmlns="http://www.w3.org/2000/svg"><path d="M6.410 3.044 C 5.505 3.197,4.689 3.788,4.263 4.600 C 4.164 4.787,3.740 6.107,2.878 8.905 C 2.195 11.124,1.606 13.048,1.571 13.180 C 1.516 13.383,1.504 13.761,1.491 15.639 C 1.473 18.020,1.494 18.428,1.656 18.938 C 1.948 19.859,2.694 20.576,3.681 20.886 L 3.980 20.980 12.000 20.980 L 20.020 20.980 20.319 20.886 C 21.306 20.576,22.052 19.859,22.344 18.938 C 22.506 18.428,22.527 18.020,22.509 15.639 C 22.496 13.761,22.484 13.383,22.429 13.180 C 22.394 13.048,21.805 11.124,21.122 8.905 C 20.273 6.147,19.835 4.786,19.740 4.605 C 19.361 3.885,18.684 3.341,17.860 3.094 C 17.635 3.027,17.282 3.022,12.120 3.015 C 9.060 3.012,6.527 3.024,6.410 3.044 M17.740 4.658 C 18.031 4.800,18.308 5.076,18.430 5.343 C 18.500 5.496,20.609 12.286,20.706 12.670 L 20.729 12.760 19.134 12.761 C 17.398 12.761,17.239 12.777,16.732 12.990 C 16.385 13.136,16.031 13.376,15.763 13.647 C 15.487 13.926,15.380 14.085,15.063 14.680 C 14.766 15.238,14.705 15.316,14.412 15.505 C 14.034 15.750,13.936 15.760,12.000 15.760 C 10.084 15.760,9.954 15.747,9.599 15.520 C 9.320 15.340,9.222 15.216,8.939 14.683 C 8.614 14.073,8.541 13.965,8.251 13.667 C 7.966 13.374,7.627 13.140,7.268 12.990 C 6.761 12.777,6.602 12.761,4.866 12.761 L 3.271 12.760 3.294 12.670 C 3.389 12.292,5.497 5.502,5.562 5.365 C 5.734 4.999,6.005 4.749,6.396 4.595 C 6.570 4.527,6.863 4.524,12.040 4.532 L 17.500 4.540 17.740 4.658 " fill="#0F172A" stroke="none" fill-rule="evenodd"></path></svg>