<svg width="24" height="24" viewBox="0 0 24 24" fill="none" xmlns="http://www.w3.org/2000/svg"><path d="M7.380 3.028 C 6.907 3.096,6.364 3.321,5.970 3.614 C 5.788 3.749,5.223 4.380,3.890 5.936 C 2.884 7.111,1.999 8.173,1.925 8.296 C 1.732 8.616,1.562 9.143,1.514 9.570 C 1.491 9.776,1.480 10.385,1.490 10.940 C 1.504 11.814,1.517 11.972,1.589 12.190 C 1.790 12.797,2.244 13.239,2.860 13.427 C 3.089 13.497,3.492 13.500,12.000 13.500 C 20.508 13.500,20.911 13.497,21.140 13.427 C 21.756 13.239,22.210 12.797,22.411 12.190 C 22.483 11.972,22.496 11.814,22.510 10.940 C 22.520 10.385,22.509 9.776,22.486 9.570 C 22.438 9.143,22.268 8.616,22.075 8.296 C 22.001 8.173,21.120 7.116,20.118 5.946 C 18.189 3.694,18.051 3.554,17.500 3.298 C 16.867 3.003,17.262 3.024,12.120 3.017 C 9.579 3.014,7.446 3.019,7.380 3.028 M16.724 4.598 C 16.836 4.641,16.991 4.717,17.067 4.768 C 17.144 4.819,17.856 5.616,18.649 6.540 L 20.092 8.220 18.296 8.243 C 16.620 8.264,16.479 8.271,16.189 8.351 C 15.494 8.543,14.849 9.013,14.432 9.631 C 14.065 10.176,13.741 10.405,13.223 10.485 C 13.062 10.510,12.492 10.521,11.807 10.512 C 10.757 10.497,10.642 10.489,10.451 10.412 C 10.107 10.274,9.869 10.069,9.606 9.685 C 9.140 9.005,8.527 8.549,7.811 8.351 C 7.521 8.271,7.380 8.264,5.704 8.243 L 3.908 8.220 5.351 6.540 C 6.144 5.616,6.856 4.818,6.933 4.768 C 7.009 4.717,7.159 4.641,7.266 4.600 C 7.452 4.527,7.640 4.524,11.990 4.522 C 16.382 4.520,16.525 4.522,16.724 4.598 M2.413 15.073 C 1.992 15.221,1.711 15.498,1.574 15.899 C 1.481 16.172,1.515 18.528,1.616 18.838 C 1.951 19.860,2.703 20.599,3.702 20.888 L 4.020 20.980 12.000 20.980 L 19.980 20.980 20.298 20.888 C 21.148 20.642,21.795 20.097,22.185 19.300 C 22.452 18.753,22.479 18.565,22.479 17.217 C 22.480 15.914,22.469 15.846,22.208 15.500 C 22.098 15.354,21.982 15.262,21.782 15.160 L 21.508 15.020 18.984 15.020 C 16.664 15.020,16.439 15.026,16.200 15.093 C 15.546 15.276,14.965 15.672,14.570 16.203 C 14.130 16.795,13.963 16.963,13.680 17.097 L 13.420 17.220 12.000 17.220 L 10.580 17.220 10.320 17.097 C 10.037 16.963,9.870 16.795,9.430 16.203 C 9.144 15.819,8.767 15.507,8.340 15.301 C 7.752 15.017,7.849 15.026,5.100 15.013 C 2.788 15.001,2.606 15.005,2.413 15.073 " fill="#0F172A" stroke="none" fill-rule="evenodd"></path></svg>