<svg width="24" height="24" viewBox="0 0 24 24" fill="none" xmlns="http://www.w3.org/2000/svg"><path d="M11.815 2.277 C 11.638 2.320,11.462 2.456,11.353 2.631 L 11.260 2.780 11.249 6.098 L 11.238 9.415 10.349 8.532 C 9.860 8.047,9.402 7.620,9.332 7.585 C 9.144 7.490,8.824 7.501,8.632 7.610 C 8.312 7.789,8.165 8.267,8.332 8.581 C 8.366 8.646,9.111 9.415,9.987 10.289 C 11.602 11.899,11.721 12.000,12.000 12.000 C 12.279 12.000,12.398 11.899,14.013 10.289 C 14.889 9.415,15.634 8.646,15.668 8.581 C 15.833 8.270,15.684 7.787,15.368 7.610 C 15.176 7.501,14.856 7.490,14.668 7.585 C 14.598 7.620,14.140 8.047,13.651 8.532 L 12.762 9.415 12.751 6.098 L 12.740 2.780 12.645 2.627 C 12.472 2.349,12.123 2.202,11.815 2.277 M6.410 3.044 C 5.508 3.195,4.690 3.788,4.263 4.600 C 4.164 4.787,3.740 6.107,2.878 8.905 C 2.195 11.124,1.606 13.048,1.571 13.180 C 1.516 13.383,1.504 13.761,1.491 15.639 C 1.473 18.020,1.494 18.428,1.656 18.938 C 1.948 19.859,2.694 20.576,3.681 20.886 L 3.980 20.980 12.000 20.980 L 20.020 20.980 20.319 20.886 C 21.306 20.576,22.052 19.859,22.344 18.938 C 22.506 18.428,22.527 18.020,22.509 15.639 C 22.496 13.761,22.484 13.383,22.429 13.180 C 22.394 13.048,21.805 11.124,21.122 8.905 C 20.273 6.147,19.835 4.786,19.740 4.605 C 19.361 3.884,18.671 3.331,17.860 3.097 C 17.498 2.993,14.990 2.962,14.736 3.059 C 14.389 3.192,14.183 3.569,14.273 3.905 C 14.340 4.155,14.423 4.267,14.636 4.392 L 14.820 4.500 16.160 4.520 L 17.500 4.540 17.740 4.658 C 18.031 4.800,18.308 5.076,18.430 5.343 C 18.500 5.496,20.609 12.286,20.706 12.670 L 20.729 12.760 19.134 12.761 C 17.398 12.761,17.239 12.777,16.732 12.990 C 16.385 13.136,16.031 13.376,15.763 13.647 C 15.487 13.926,15.380 14.085,15.063 14.680 C 14.766 15.238,14.705 15.316,14.412 15.505 C 14.034 15.750,13.936 15.760,12.000 15.760 C 10.084 15.760,9.954 15.747,9.599 15.520 C 9.320 15.340,9.222 15.216,8.939 14.683 C 8.614 14.073,8.541 13.965,8.251 13.667 C 7.966 13.374,7.627 13.140,7.268 12.990 C 6.761 12.777,6.602 12.761,4.866 12.761 L 3.271 12.760 3.294 12.670 C 3.391 12.286,5.500 5.496,5.570 5.343 C 5.692 5.076,5.969 4.800,6.260 4.658 L 6.500 4.540 7.840 4.520 L 9.180 4.500 9.364 4.392 C 9.784 4.145,9.877 3.640,9.571 3.276 C 9.348 3.012,9.283 3.001,7.880 3.006 C 7.187 3.008,6.525 3.025,6.410 3.044 " fill="#0F172A" stroke="none" fill-rule="evenodd"></path></svg>