<svg width="24" height="24" viewBox="0 0 24 24" fill="none" xmlns="http://www.w3.org/2000/svg"><path d="M11.340 2.281 C 9.465 2.398,7.649 3.079,6.084 4.252 C 5.583 4.627,4.616 5.596,4.245 6.092 C 3.236 7.444,2.622 8.895,2.353 10.572 C 2.239 11.277,2.230 12.591,2.333 13.300 C 2.582 15.004,3.215 16.530,4.245 17.908 C 4.622 18.412,5.588 19.378,6.092 19.755 C 7.471 20.785,9.000 21.420,10.700 21.666 C 11.033 21.714,11.432 21.736,12.000 21.736 C 13.556 21.736,14.894 21.430,16.260 20.762 C 17.312 20.247,18.030 19.732,18.881 18.881 C 19.732 18.030,20.248 17.311,20.761 16.260 C 22.377 12.955,21.991 9.058,19.755 6.096 C 18.214 4.055,15.834 2.676,13.280 2.345 C 12.683 2.268,11.941 2.243,11.340 2.281 M12.377 7.616 C 12.787 7.856,12.858 8.466,12.513 8.788 C 12.298 8.989,11.992 9.048,11.729 8.938 C 11.426 8.811,11.269 8.578,11.269 8.257 C 11.269 7.680,11.882 7.326,12.377 7.616 M12.253 10.551 C 12.756 10.786,13.068 11.234,13.109 11.779 C 13.129 12.047,13.104 12.176,12.760 13.556 C 12.557 14.374,12.399 15.052,12.410 15.063 C 12.420 15.074,12.478 15.064,12.537 15.041 C 12.953 14.883,13.434 15.202,13.472 15.661 C 13.496 15.948,13.464 16.053,13.299 16.236 C 12.793 16.796,11.674 16.675,11.185 16.007 C 10.987 15.736,10.916 15.539,10.893 15.200 C 10.875 14.921,10.899 14.797,11.237 13.449 C 11.436 12.651,11.600 11.981,11.600 11.960 C 11.600 11.936,11.561 11.937,11.497 11.961 C 11.067 12.125,10.567 11.803,10.528 11.339 C 10.505 11.057,10.535 10.951,10.687 10.778 C 11.027 10.391,11.702 10.293,12.253 10.551 " fill="#0F172A" stroke="none" fill-rule="evenodd"></path></svg>