<svg width="24" height="24" viewBox="0 0 24 24" fill="none" xmlns="http://www.w3.org/2000/svg"><path d="M14.700 1.581 C 12.768 1.894,11.045 3.040,10.011 4.700 C 9.198 6.004,8.867 7.547,9.059 9.128 C 9.179 10.110,9.597 9.571,5.601 13.580 C 3.715 15.472,2.113 17.107,2.042 17.213 C 1.858 17.486,1.652 17.948,1.571 18.267 C 1.511 18.504,1.502 18.763,1.501 20.240 C 1.500 21.765,1.507 21.953,1.568 22.064 C 1.656 22.224,1.891 22.430,2.031 22.469 C 2.091 22.486,3.050 22.500,4.163 22.500 L 6.186 22.500 6.380 22.380 C 6.712 22.173,6.738 22.084,6.752 21.090 L 6.764 20.240 7.590 20.240 C 8.543 20.240,8.676 20.206,8.873 19.908 C 8.980 19.746,8.980 19.744,8.992 18.873 L 9.004 18.000 9.823 18.000 C 10.473 18.000,10.673 17.987,10.791 17.938 C 10.890 17.897,11.425 17.393,12.400 16.423 C 14.131 14.701,13.923 14.825,14.872 14.941 C 19.852 15.547,23.726 10.832,22.141 6.093 C 21.385 3.834,19.479 2.150,17.100 1.639 C 16.571 1.525,15.244 1.493,14.700 1.581 M16.753 4.638 C 17.389 4.821,17.931 5.140,18.396 5.604 C 19.060 6.268,19.423 7.072,19.468 7.981 C 19.488 8.377,19.482 8.440,19.406 8.588 C 19.130 9.130,18.373 9.128,18.092 8.585 C 18.057 8.517,18.013 8.308,17.994 8.121 C 17.951 7.693,17.838 7.351,17.643 7.052 C 17.254 6.457,16.674 6.098,15.979 6.022 C 15.494 5.969,15.434 5.952,15.290 5.826 C 15.018 5.587,14.935 5.246,15.075 4.940 C 15.154 4.768,15.232 4.688,15.420 4.584 C 15.589 4.490,16.347 4.521,16.753 4.638 " fill="#0F172A" stroke="none" fill-rule="evenodd"></path></svg>