<svg width="24" height="24" viewBox="0 0 24 24" fill="none" xmlns="http://www.w3.org/2000/svg"><path d="M8.811 2.278 C 8.639 2.320,8.417 2.493,8.330 2.652 C 8.271 2.760,8.258 2.913,8.247 3.650 L 8.234 4.520 7.883 4.520 C 6.666 4.520,3.131 4.797,2.733 4.924 C 2.663 4.946,2.542 5.034,2.465 5.120 C 2.170 5.447,2.181 5.845,2.496 6.147 C 2.611 6.258,2.722 6.324,2.825 6.344 C 2.917 6.361,3.319 6.338,3.820 6.286 C 6.190 6.041,8.328 5.957,10.468 6.026 C 10.912 6.041,11.299 6.067,11.327 6.084 C 11.444 6.157,10.794 7.947,10.246 9.061 C 9.839 9.888,9.074 11.201,9.000 11.199 C 8.971 11.198,8.750 10.856,8.408 10.282 C 8.116 9.793,7.661 8.899,7.335 8.174 C 7.147 7.756,6.995 7.620,6.670 7.575 C 6.515 7.554,6.445 7.568,6.271 7.654 C 5.817 7.878,5.739 8.258,6.015 8.900 C 6.434 9.875,7.070 11.034,7.713 11.992 L 8.043 12.484 7.958 12.592 C 7.691 12.932,6.932 13.726,6.464 14.155 C 5.321 15.203,4.091 16.079,2.809 16.759 C 2.670 16.833,2.505 16.953,2.440 17.026 C 2.021 17.503,2.366 18.240,3.009 18.240 C 3.212 18.240,3.461 18.127,4.160 17.720 C 5.764 16.784,7.293 15.559,8.498 14.242 C 8.761 13.955,8.987 13.720,9.000 13.720 C 9.013 13.720,9.221 13.935,9.462 14.198 C 10.026 14.814,10.242 14.936,10.597 14.841 C 10.953 14.745,11.195 14.379,11.145 14.014 C 11.116 13.800,11.057 13.715,10.578 13.196 C 10.387 12.989,10.168 12.745,10.092 12.652 L 9.954 12.485 10.274 12.012 C 10.980 10.970,11.725 9.572,12.157 8.480 C 12.360 7.968,12.722 6.890,12.859 6.390 L 12.922 6.160 13.131 6.181 C 13.246 6.193,13.601 6.230,13.920 6.264 C 15.204 6.398,15.275 6.392,15.530 6.129 C 15.719 5.936,15.788 5.688,15.723 5.448 C 15.666 5.238,15.440 4.979,15.267 4.923 C 14.864 4.794,11.385 4.520,10.133 4.520 L 9.766 4.520 9.753 3.650 C 9.741 2.859,9.733 2.767,9.658 2.641 C 9.494 2.361,9.122 2.202,8.811 2.278 M15.460 9.076 C 15.372 9.117,15.253 9.202,15.195 9.265 C 15.061 9.411,9.798 20.689,9.770 20.887 C 9.759 20.969,9.762 21.099,9.777 21.178 C 9.829 21.457,10.205 21.758,10.500 21.758 C 10.662 21.758,10.916 21.636,11.047 21.495 C 11.106 21.432,11.428 20.790,11.764 20.070 L 12.374 18.760 15.754 18.770 L 19.134 18.780 19.748 20.100 C 20.410 21.525,20.482 21.634,20.803 21.721 C 21.112 21.804,21.409 21.698,21.598 21.437 C 21.740 21.241,21.783 21.013,21.718 20.811 C 21.632 20.543,16.433 9.425,16.330 9.286 C 16.134 9.024,15.764 8.935,15.460 9.076 M17.098 14.416 C 17.815 15.954,18.395 17.218,18.387 17.226 C 18.379 17.234,17.185 17.236,15.733 17.230 L 13.094 17.220 14.414 14.389 C 15.141 12.833,15.748 11.573,15.764 11.589 C 15.780 11.606,16.380 12.878,17.098 14.416 " fill="#0F172A" stroke="none" fill-rule="evenodd"></path></svg>