<svg width="24" height="24" viewBox="0 0 24 24" fill="none" xmlns="http://www.w3.org/2000/svg"><path d="M11.300 2.279 C 7.811 2.554,4.781 4.596,3.257 7.700 C 1.911 10.444,1.911 13.556,3.257 16.300 C 4.515 18.864,6.860 20.759,9.639 21.459 C 11.174 21.846,12.826 21.846,14.361 21.459 C 17.177 20.750,19.529 18.831,20.784 16.220 C 21.771 14.165,22.011 11.830,21.459 9.639 C 20.484 5.765,17.254 2.878,13.300 2.345 C 12.736 2.269,11.812 2.238,11.300 2.279 M13.400 3.875 C 13.991 3.980,14.597 4.152,15.096 4.356 C 15.313 4.445,15.500 4.527,15.511 4.538 C 15.536 4.563,15.651 4.420,14.225 6.139 L 13.029 7.580 12.805 7.560 C 12.681 7.549,12.319 7.540,12.000 7.540 C 11.681 7.540,11.319 7.549,11.196 7.560 L 10.972 7.580 9.726 6.086 C 9.041 5.265,8.480 4.578,8.480 4.560 C 8.480 4.543,8.502 4.519,8.530 4.508 C 9.426 4.139,10.169 3.924,10.820 3.844 C 11.018 3.820,11.225 3.792,11.280 3.783 C 11.556 3.735,12.962 3.796,13.400 3.875 M6.086 9.726 C 7.372 10.798,7.579 10.986,7.576 11.076 C 7.574 11.133,7.552 11.365,7.527 11.590 C 7.492 11.899,7.492 12.101,7.527 12.410 C 7.552 12.636,7.574 12.867,7.576 12.924 C 7.579 13.014,7.372 13.202,6.086 14.274 C 5.265 14.959,4.578 15.520,4.560 15.520 C 4.543 15.520,4.519 15.498,4.508 15.470 C 4.156 14.615,3.979 14.029,3.853 13.300 C 3.756 12.738,3.756 11.262,3.853 10.700 C 3.979 9.971,4.156 9.385,4.508 8.530 C 4.519 8.502,4.543 8.480,4.560 8.480 C 4.578 8.480,5.265 9.041,6.086 9.726 M19.492 8.530 C 19.844 9.386,20.022 9.973,20.147 10.700 C 20.243 11.262,20.243 12.738,20.147 13.300 C 20.022 14.027,19.844 14.614,19.492 15.470 C 19.481 15.498,19.457 15.520,19.440 15.520 C 19.422 15.520,18.735 14.959,17.914 14.274 C 16.628 13.202,16.421 13.014,16.424 12.924 C 16.426 12.867,16.448 12.636,16.473 12.410 C 16.508 12.101,16.508 11.899,16.473 11.590 C 16.448 11.365,16.426 11.133,16.424 11.076 C 16.421 10.986,16.628 10.798,17.914 9.726 C 18.735 9.041,19.422 8.480,19.440 8.480 C 19.457 8.480,19.481 8.502,19.492 8.530 M12.740 9.098 C 13.630 9.334,14.387 9.976,14.750 10.804 C 15.061 11.514,15.061 12.486,14.750 13.196 C 14.466 13.844,13.851 14.466,13.227 14.737 C 12.792 14.926,12.526 14.978,12.000 14.978 C 11.474 14.978,11.208 14.926,10.770 14.736 C 10.292 14.528,9.798 14.102,9.499 13.640 C 9.144 13.092,9.022 12.665,9.023 11.980 C 9.023 11.330,9.151 10.895,9.499 10.360 C 9.949 9.668,10.673 9.194,11.520 9.037 C 11.778 8.990,12.459 9.024,12.740 9.098 M11.640 16.482 C 11.868 16.507,12.118 16.504,12.400 16.473 C 12.631 16.448,12.867 16.426,12.924 16.424 C 13.014 16.421,13.202 16.628,14.274 17.914 C 14.959 18.735,15.520 19.422,15.520 19.440 C 15.520 19.457,15.498 19.481,15.470 19.492 C 14.149 20.036,13.202 20.240,12.000 20.240 C 11.269 20.240,10.646 20.162,9.940 19.981 C 9.485 19.864,8.561 19.535,8.490 19.464 C 8.458 19.431,8.487 19.395,9.780 17.840 L 10.980 16.397 11.140 16.421 C 11.228 16.435,11.453 16.462,11.640 16.482 " fill="#0F172A" stroke="none" fill-rule="evenodd"></path></svg>