<svg width="24" height="24" viewBox="0 0 24 24" fill="none" xmlns="http://www.w3.org/2000/svg"><path d="M11.280 0.783 C 11.225 0.792,11.018 0.820,10.820 0.844 C 10.328 0.904,9.499 1.120,8.997 1.319 C 6.138 2.451,4.173 5.007,3.801 8.079 C 3.748 8.518,3.748 9.529,3.802 9.961 C 3.984 11.430,4.551 12.827,5.445 14.009 C 5.771 14.439,6.571 15.241,6.990 15.555 C 7.171 15.691,7.513 15.923,7.750 16.069 C 8.528 16.551,8.909 17.055,8.996 17.714 C 9.043 18.075,9.165 18.277,9.407 18.394 C 9.502 18.440,9.844 18.525,10.167 18.584 L 10.753 18.690 10.933 18.603 C 11.253 18.448,11.240 18.568,11.240 15.852 L 11.240 13.456 10.907 13.408 C 10.431 13.339,10.180 13.255,10.013 13.109 C 9.538 12.692,9.756 11.947,10.389 11.827 C 10.465 11.812,10.680 11.838,10.909 11.889 C 11.470 12.014,12.530 12.014,13.091 11.889 C 13.601 11.776,13.809 11.814,14.047 12.066 C 14.332 12.367,14.305 12.829,13.987 13.109 C 13.820 13.255,13.569 13.339,13.093 13.408 L 12.760 13.456 12.760 15.852 C 12.760 18.568,12.747 18.448,13.067 18.603 L 13.247 18.690 13.833 18.584 C 14.156 18.525,14.498 18.440,14.593 18.394 C 14.834 18.277,14.956 18.075,15.005 17.714 C 15.094 17.046,15.465 16.555,16.250 16.069 C 16.897 15.669,17.289 15.358,17.822 14.824 C 18.559 14.084,19.001 13.463,19.445 12.540 C 19.984 11.417,20.241 10.269,20.239 8.981 C 20.236 6.834,19.440 4.854,17.952 3.298 C 16.722 2.011,15.106 1.160,13.320 0.858 C 12.960 0.797,11.509 0.744,11.280 0.783 M9.565 19.320 C 9.080 19.435,8.851 20.028,9.132 20.445 C 9.320 20.724,9.459 20.771,10.500 20.910 C 11.758 21.079,14.254 20.931,14.649 20.665 C 15.001 20.428,15.098 19.975,14.869 19.638 C 14.644 19.307,14.437 19.256,13.752 19.362 C 12.626 19.536,11.367 19.535,10.240 19.360 C 9.957 19.316,9.720 19.282,9.713 19.284 C 9.706 19.286,9.639 19.303,9.565 19.320 M10.180 21.752 C 9.989 21.844,9.904 21.933,9.822 22.130 C 9.713 22.390,9.768 22.730,9.952 22.933 C 10.095 23.091,10.293 23.152,10.813 23.196 C 11.899 23.289,13.554 23.226,13.839 23.081 C 14.195 22.899,14.336 22.474,14.165 22.100 C 14.076 21.908,13.988 21.824,13.781 21.738 C 13.640 21.679,13.549 21.677,12.865 21.722 C 12.169 21.768,11.729 21.763,10.700 21.699 C 10.397 21.680,10.315 21.688,10.180 21.752 " fill="#0F172A" stroke="none" fill-rule="evenodd"></path></svg>