<svg width="24" height="24" viewBox="0 0 24 24" fill="none" xmlns="http://www.w3.org/2000/svg"><path d="M16.320 1.584 C 15.618 1.712,14.949 1.986,14.311 2.407 C 13.994 2.617,13.570 3.021,11.406 5.176 C 10.013 6.564,8.760 7.844,8.622 8.020 C 6.798 10.346,7.256 13.710,9.637 15.476 C 9.955 15.711,10.499 16.010,10.691 16.056 C 10.963 16.120,11.356 15.906,11.483 15.625 C 11.672 15.209,11.500 14.829,10.999 14.563 C 10.069 14.067,9.371 13.169,9.111 12.132 C 8.990 11.650,8.990 10.805,9.112 10.354 C 9.226 9.933,9.406 9.522,9.626 9.185 C 9.892 8.777,14.777 3.892,15.185 3.626 C 15.522 3.406,15.933 3.226,16.354 3.112 C 16.806 2.990,17.650 2.990,18.135 3.112 C 19.491 3.452,20.551 4.514,20.888 5.868 C 20.958 6.150,20.975 6.332,20.973 6.780 C 20.971 7.398,20.909 7.709,20.682 8.241 C 20.452 8.781,20.236 9.050,19.114 10.181 C 18.426 10.877,18.021 11.316,17.982 11.410 C 17.828 11.777,18.000 12.189,18.380 12.364 C 18.584 12.458,18.777 12.458,18.980 12.364 C 19.163 12.278,21.155 10.290,21.448 9.900 C 23.089 7.717,22.765 4.603,20.709 2.809 C 20.066 2.248,19.364 1.881,18.500 1.655 C 18.155 1.565,18.000 1.548,17.380 1.536 C 16.853 1.526,16.569 1.539,16.320 1.584 M12.860 8.023 C 12.680 8.117,12.596 8.203,12.515 8.380 C 12.328 8.788,12.502 9.171,12.995 9.435 C 13.931 9.935,14.631 10.835,14.888 11.868 C 14.958 12.150,14.975 12.332,14.973 12.780 C 14.971 13.398,14.909 13.709,14.682 14.241 C 14.423 14.850,14.313 14.974,11.724 17.573 C 10.369 18.933,9.143 20.134,9.000 20.243 C 8.668 20.494,8.198 20.727,7.740 20.865 C 7.415 20.964,7.320 20.974,6.760 20.974 C 6.247 20.973,6.085 20.958,5.820 20.886 C 4.479 20.519,3.447 19.470,3.111 18.132 C 3.040 17.847,3.023 17.673,3.026 17.220 C 3.030 16.602,3.093 16.288,3.318 15.759 C 3.547 15.219,3.765 14.951,4.903 13.800 C 5.800 12.893,5.999 12.672,6.035 12.540 C 6.095 12.325,6.091 12.225,6.018 12.049 C 5.936 11.852,5.814 11.725,5.620 11.636 C 5.416 11.542,5.223 11.542,5.020 11.636 C 4.837 11.722,2.845 13.710,2.552 14.100 C 0.986 16.183,1.195 19.108,3.043 20.957 C 4.923 22.837,7.891 23.017,9.980 21.378 C 10.368 21.073,15.194 16.238,15.448 15.900 C 16.933 13.920,16.826 11.142,15.194 9.293 C 14.767 8.810,14.188 8.357,13.651 8.086 C 13.367 7.942,13.062 7.918,12.860 8.023 " fill="#0F172A" stroke="none" fill-rule="evenodd"></path></svg>