<svg width="24" height="24" viewBox="0 0 24 24" fill="none" xmlns="http://www.w3.org/2000/svg"><path d="M3.251 5.759 C 2.841 5.967,2.640 6.301,2.640 6.775 C 2.641 7.373,3.158 7.880,3.766 7.880 C 4.189 7.880,4.640 7.557,4.795 7.145 C 4.947 6.738,4.877 6.344,4.595 6.024 C 4.367 5.765,4.167 5.670,3.800 5.650 C 3.526 5.635,3.479 5.644,3.251 5.759 M7.935 6.077 C 7.845 6.118,7.724 6.212,7.668 6.286 C 7.569 6.416,7.472 6.721,7.500 6.815 C 7.507 6.840,7.524 6.909,7.537 6.969 C 7.567 7.105,7.771 7.342,7.936 7.432 C 8.051 7.495,8.505 7.501,14.120 7.511 C 18.400 7.518,20.242 7.509,20.392 7.478 C 21.109 7.329,21.209 6.379,20.540 6.075 C 20.387 6.005,20.094 6.002,14.240 6.002 C 8.329 6.002,8.094 6.005,7.935 6.077 M3.440 10.915 C 2.625 11.182,2.366 12.206,2.964 12.794 C 3.379 13.201,4.040 13.227,4.476 12.854 C 4.738 12.629,4.858 12.362,4.858 12.000 C 4.858 11.535,4.656 11.207,4.240 10.998 C 4.046 10.901,3.618 10.856,3.440 10.915 M8.094 11.278 C 7.586 11.400,7.354 11.951,7.625 12.388 C 7.695 12.500,7.803 12.606,7.900 12.656 C 8.060 12.740,8.061 12.740,14.180 12.752 C 18.447 12.760,20.345 12.751,20.448 12.721 C 20.747 12.634,20.997 12.311,20.999 12.009 C 21.001 11.747,20.826 11.462,20.580 11.326 C 20.470 11.265,19.953 11.259,14.340 11.254 C 10.974 11.250,8.163 11.261,8.094 11.278 M3.500 16.155 C 2.987 16.291,2.643 16.718,2.641 17.223 C 2.640 17.570,2.734 17.810,2.962 18.038 C 3.189 18.266,3.429 18.360,3.777 18.360 C 4.373 18.359,4.880 17.841,4.880 17.234 C 4.880 17.031,4.749 16.693,4.600 16.513 C 4.373 16.237,3.843 16.065,3.500 16.155 M7.940 16.567 C 7.827 16.629,7.641 16.806,7.590 16.899 C 7.395 17.260,7.561 17.753,7.935 17.923 C 8.094 17.995,8.329 17.998,14.220 17.999 C 18.221 17.999,20.390 17.986,20.485 17.959 C 20.704 17.898,20.947 17.616,20.982 17.380 C 21.033 17.041,20.888 16.747,20.598 16.599 C 20.446 16.521,20.336 16.520,14.232 16.521 C 9.779 16.522,7.997 16.535,7.940 16.567 " fill="#0F172A" stroke="none" fill-rule="evenodd"></path></svg>