<svg width="24" height="24" viewBox="0 0 24 24" fill="none" xmlns="http://www.w3.org/2000/svg"><path d="M11.086 1.584 C 10.028 1.762,8.992 2.319,8.214 3.130 C 7.641 3.727,7.248 4.384,7.006 5.145 C 6.778 5.866,6.760 6.071,6.760 8.005 L 6.760 9.760 6.598 9.760 C 6.327 9.760,5.836 9.880,5.533 10.020 C 4.823 10.347,4.360 10.804,4.039 11.495 C 3.747 12.124,3.756 11.964,3.769 16.260 L 3.780 20.100 3.892 20.420 C 4.060 20.897,4.290 21.258,4.657 21.620 C 5.182 22.137,5.722 22.394,6.471 22.479 C 6.942 22.533,17.058 22.533,17.529 22.479 C 18.278 22.394,18.818 22.137,19.343 21.620 C 19.710 21.258,19.941 20.896,20.108 20.420 L 20.220 20.100 20.231 16.260 C 20.244 11.932,20.256 12.121,19.941 11.460 C 19.636 10.820,19.192 10.376,18.540 10.059 C 18.178 9.884,17.707 9.760,17.402 9.760 L 17.240 9.760 17.240 8.005 C 17.240 6.071,17.222 5.866,16.994 5.145 C 16.410 3.304,14.776 1.889,12.879 1.582 C 12.414 1.506,11.543 1.508,11.086 1.584 M12.913 3.118 C 14.261 3.450,15.333 4.553,15.666 5.951 C 15.718 6.169,15.733 6.553,15.748 7.990 L 15.767 9.760 12.000 9.760 L 8.234 9.760 8.252 7.990 C 8.266 6.546,8.281 6.170,8.334 5.951 C 8.695 4.445,9.841 3.347,11.350 3.061 C 11.759 2.983,12.470 3.009,12.913 3.118 " fill="#0F172A" stroke="none" fill-rule="evenodd"></path></svg>