<svg width="24" height="24" viewBox="0 0 24 24" fill="none" xmlns="http://www.w3.org/2000/svg"><path d="M17.086 1.584 C 16.028 1.762,14.992 2.319,14.214 3.130 C 13.641 3.727,13.248 4.384,13.006 5.145 C 12.778 5.866,12.760 6.071,12.760 8.005 L 12.760 9.760 8.098 9.760 C 2.935 9.760,3.113 9.752,2.533 10.020 C 1.823 10.347,1.360 10.804,1.039 11.495 C 0.747 12.124,0.756 11.964,0.769 16.260 L 0.780 20.100 0.892 20.420 C 1.060 20.897,1.290 21.258,1.657 21.620 C 2.182 22.137,2.722 22.394,3.471 22.479 C 3.942 22.533,14.058 22.533,14.529 22.479 C 15.278 22.394,15.818 22.137,16.343 21.620 C 16.710 21.258,16.941 20.896,17.108 20.420 L 17.220 20.100 17.231 16.260 C 17.244 11.932,17.256 12.121,16.941 11.460 C 16.636 10.820,16.192 10.376,15.540 10.059 C 15.177 9.883,14.707 9.760,14.398 9.760 L 14.234 9.760 14.252 7.990 C 14.271 6.062,14.278 5.994,14.520 5.367 C 14.766 4.727,15.344 4.016,15.932 3.626 C 16.270 3.403,16.706 3.212,17.108 3.112 C 17.605 2.988,18.395 2.988,18.892 3.112 C 20.266 3.455,21.327 4.540,21.666 5.951 C 21.721 6.177,21.734 6.574,21.749 8.457 C 21.765 10.521,21.772 10.706,21.839 10.837 C 21.929 11.015,22.022 11.100,22.210 11.178 C 22.398 11.257,22.602 11.257,22.790 11.178 C 22.988 11.096,23.077 11.010,23.165 10.820 C 23.233 10.671,23.238 10.509,23.239 8.455 C 23.240 6.029,23.230 5.889,22.994 5.145 C 22.410 3.304,20.776 1.889,18.879 1.582 C 18.414 1.506,17.543 1.508,17.086 1.584 " fill="#0F172A" stroke="none" fill-rule="evenodd"></path></svg>