<svg width="24" height="24" viewBox="0 0 24 24" fill="none" xmlns="http://www.w3.org/2000/svg"><path d="M9.880 2.280 C 7.875 2.432,6.101 3.253,4.658 4.697 C 3.894 5.462,3.344 6.267,2.937 7.215 C 1.751 9.977,2.116 13.050,3.916 15.471 C 4.249 15.919,5.081 16.751,5.529 17.084 C 7.938 18.876,11.031 19.247,13.764 18.072 C 14.335 17.827,14.970 17.459,15.448 17.097 L 15.780 16.845 18.200 19.260 C 20.376 21.431,20.638 21.679,20.795 21.720 C 21.366 21.870,21.870 21.366,21.720 20.795 C 21.679 20.638,21.431 20.376,19.260 18.200 L 16.845 15.780 17.097 15.448 C 18.507 13.586,19.058 11.118,18.575 8.824 C 18.237 7.219,17.499 5.855,16.342 4.697 C 15.451 3.805,14.465 3.169,13.320 2.748 C 12.310 2.376,10.990 2.196,9.880 2.280 M11.690 3.858 C 14.487 4.375,16.617 6.510,17.147 9.331 C 17.245 9.848,17.245 11.152,17.147 11.669 C 16.873 13.128,16.185 14.403,15.138 15.393 C 14.214 16.268,13.105 16.844,11.800 17.126 C 11.435 17.205,11.265 17.217,10.500 17.217 C 9.735 17.217,9.565 17.205,9.200 17.126 C 6.406 16.522,4.376 14.450,3.853 11.669 C 3.755 11.152,3.755 9.848,3.853 9.331 C 4.215 7.405,5.312 5.785,6.940 4.771 C 7.757 4.262,8.659 3.943,9.680 3.801 C 10.064 3.748,11.280 3.782,11.690 3.858 " fill="#0F172A" stroke="none" fill-rule="evenodd"></path></svg>