<svg width="24" height="24" viewBox="0 0 24 24" fill="none" xmlns="http://www.w3.org/2000/svg"><path d="M11.340 2.281 C 9.465 2.398,7.651 3.078,6.084 4.252 C 5.591 4.621,4.621 5.591,4.252 6.084 C 3.447 7.159,2.885 8.320,2.558 9.588 C 2.170 11.092,2.170 12.908,2.558 14.412 C 3.452 17.876,6.124 20.548,9.588 21.442 C 10.363 21.642,11.077 21.727,11.980 21.727 C 13.185 21.726,14.008 21.597,15.088 21.238 C 17.994 20.272,20.272 17.993,21.239 15.085 C 21.595 14.014,21.726 13.182,21.726 12.000 C 21.726 10.817,21.595 9.987,21.238 8.912 C 20.064 5.380,16.964 2.822,13.280 2.345 C 12.683 2.268,11.941 2.243,11.340 2.281 M11.900 6.878 C 12.615 7.075,13.177 7.388,13.695 7.881 C 14.858 8.985,15.273 10.542,14.813 12.079 C 14.712 12.418,14.501 12.879,14.350 13.093 L 14.270 13.207 15.350 14.293 C 16.368 15.317,16.433 15.391,16.471 15.571 C 16.511 15.765,16.489 15.953,16.408 16.105 C 16.339 16.234,16.091 16.436,15.969 16.463 C 15.909 16.476,15.840 16.493,15.816 16.500 C 15.792 16.507,15.684 16.494,15.576 16.472 C 15.390 16.433,15.326 16.377,14.293 15.350 L 13.207 14.270 13.093 14.350 C 12.879 14.501,12.418 14.712,12.079 14.813 C 10.542 15.273,8.985 14.858,7.881 13.695 C 7.388 13.176,7.073 12.613,6.879 11.900 C 6.756 11.449,6.727 10.627,6.818 10.145 C 7.132 8.474,8.368 7.205,10.040 6.836 C 10.515 6.731,11.440 6.752,11.900 6.878 M10.526 8.282 C 9.629 8.402,8.858 8.979,8.479 9.816 C 8.312 10.185,8.224 10.667,8.256 11.046 C 8.312 11.723,8.561 12.251,9.056 12.741 C 9.576 13.256,10.147 13.490,10.880 13.486 C 11.598 13.483,12.219 13.226,12.722 12.722 C 13.226 12.219,13.483 11.598,13.486 10.880 C 13.488 10.428,13.412 10.098,13.209 9.680 C 13.005 9.261,12.500 8.756,12.080 8.550 C 11.584 8.307,11.040 8.213,10.526 8.282 " fill="#0F172A" stroke="none" fill-rule="evenodd"></path></svg>