<svg width="24" height="24" viewBox="0 0 24 24" fill="none" xmlns="http://www.w3.org/2000/svg"><path d="M11.400 2.279 C 8.100 2.510,5.226 4.741,4.183 7.880 C 3.874 8.813,3.760 9.534,3.760 10.559 C 3.761 12.258,4.139 13.828,4.938 15.460 C 5.665 16.943,6.598 18.212,7.938 19.540 C 9.040 20.633,10.511 21.779,11.532 22.340 C 12.008 22.602,12.184 22.557,13.131 21.933 C 14.455 21.060,15.995 19.718,16.979 18.580 C 18.406 16.930,19.437 15.038,19.900 13.221 C 20.144 12.261,20.238 11.519,20.239 10.539 C 20.240 9.537,20.124 8.806,19.818 7.886 C 18.631 4.319,15.172 2.015,11.400 2.279 M12.838 7.620 C 13.842 7.933,14.603 8.707,14.886 9.702 C 15.013 10.149,15.014 10.849,14.888 11.292 C 14.414 12.956,12.712 13.868,11.060 13.344 C 10.321 13.109,9.672 12.542,9.305 11.812 C 8.921 11.046,8.921 9.954,9.305 9.188 C 9.448 8.904,9.717 8.534,9.926 8.335 C 10.289 7.989,10.849 7.687,11.331 7.578 C 11.666 7.502,12.538 7.526,12.838 7.620 " fill="#0F172A" stroke="none" fill-rule="evenodd"></path></svg>