<svg width="24" height="24" viewBox="0 0 24 24" fill="none" xmlns="http://www.w3.org/2000/svg"><path d="M8.440 2.476 C 8.319 2.515,7.065 3.126,5.653 3.833 C 2.820 5.252,2.754 5.293,2.487 5.792 C 2.228 6.279,2.241 5.895,2.241 12.940 C 2.241 19.880,2.232 19.591,2.456 20.033 C 2.584 20.286,2.872 20.601,3.120 20.760 C 3.542 21.031,4.165 21.120,4.638 20.978 C 4.758 20.942,5.770 20.455,6.888 19.896 C 8.005 19.337,8.956 18.880,9.000 18.880 C 9.044 18.880,10.248 19.464,11.674 20.177 C 13.101 20.891,14.371 21.504,14.497 21.541 C 14.788 21.625,15.212 21.625,15.503 21.541 C 15.629 21.504,16.897 20.892,18.321 20.180 C 21.182 18.749,21.245 18.710,21.513 18.208 C 21.772 17.721,21.759 18.105,21.759 11.060 C 21.759 5.553,21.751 4.625,21.700 4.409 C 21.565 3.837,21.228 3.417,20.692 3.152 C 20.382 2.998,20.321 2.982,19.982 2.967 C 19.713 2.955,19.548 2.969,19.380 3.018 C 19.253 3.055,18.233 3.543,17.114 4.103 C 15.996 4.662,15.044 5.120,15.000 5.120 C 14.956 5.120,13.753 4.537,12.328 3.824 C 10.902 3.111,9.639 2.499,9.521 2.464 C 9.234 2.379,8.722 2.384,8.440 2.476 M9.302 6.075 C 9.483 6.158,9.665 6.353,9.710 6.513 C 9.727 6.572,9.740 8.558,9.740 10.927 L 9.740 15.233 9.619 15.405 C 9.453 15.641,9.273 15.739,9.000 15.739 C 8.727 15.739,8.547 15.641,8.381 15.405 L 8.260 15.233 8.260 10.927 C 8.260 8.558,8.273 6.572,8.290 6.513 C 8.363 6.251,8.710 6.002,9.000 6.002 C 9.077 6.002,9.213 6.035,9.302 6.075 M15.405 8.381 C 15.485 8.432,15.593 8.543,15.645 8.627 L 15.740 8.780 15.740 13.080 C 15.740 15.445,15.727 17.428,15.710 17.487 C 15.637 17.749,15.290 17.998,15.000 17.998 C 14.710 17.998,14.363 17.749,14.290 17.487 C 14.273 17.428,14.260 15.445,14.260 13.080 L 14.260 8.780 14.353 8.631 C 14.586 8.256,15.044 8.147,15.405 8.381 " fill="#0F172A" stroke="none" fill-rule="evenodd"></path></svg>