<svg width="24" height="24" viewBox="0 0 24 24" fill="none" xmlns="http://www.w3.org/2000/svg"><path d="M18.605 2.280 C 18.331 2.345,18.103 2.602,18.059 2.895 C 18.037 3.037,18.076 3.195,18.295 3.862 C 18.625 4.865,18.843 5.670,19.019 6.540 C 19.850 10.627,19.609 14.661,18.298 18.637 C 18.004 19.528,17.998 19.593,18.177 19.899 C 18.354 20.200,18.782 20.328,19.104 20.176 C 19.326 20.070,19.454 19.884,19.610 19.438 C 20.235 17.649,20.642 15.829,20.858 13.852 L 20.916 13.324 21.099 13.100 C 21.579 12.509,21.808 11.695,21.717 10.897 C 21.653 10.328,21.462 9.868,21.090 9.388 L 20.911 9.155 20.856 8.628 C 20.673 6.855,20.245 4.903,19.680 3.264 C 19.417 2.501,19.332 2.382,18.980 2.285 C 18.802 2.235,18.795 2.235,18.605 2.280 M16.680 4.424 C 16.411 4.540,15.255 4.926,14.660 5.098 C 13.262 5.503,11.876 5.760,10.220 5.922 C 9.978 5.946,9.105 5.981,8.280 6.000 C 7.019 6.029,6.723 6.047,6.420 6.114 C 5.390 6.342,4.547 6.805,3.796 7.556 C 3.030 8.322,2.581 9.149,2.354 10.211 C 2.240 10.743,2.230 11.686,2.334 12.210 C 2.413 12.611,2.634 13.271,2.800 13.600 C 3.011 14.017,3.410 14.568,3.756 14.920 C 4.459 15.634,5.243 16.085,6.222 16.340 C 6.438 16.396,6.618 16.446,6.621 16.451 C 6.624 16.456,6.676 16.649,6.737 16.880 C 7.112 18.316,7.906 20.345,8.261 20.778 C 8.694 21.307,9.511 21.537,10.196 21.324 C 10.511 21.226,11.327 20.753,11.568 20.528 C 11.905 20.214,12.082 19.870,12.161 19.375 C 12.221 19.001,12.154 18.676,11.883 18.022 C 11.594 17.324,11.387 16.760,11.411 16.736 C 11.437 16.710,12.170 16.824,12.860 16.962 C 13.994 17.189,15.334 17.571,16.340 17.952 L 16.860 18.149 16.914 18.025 C 16.944 17.956,17.049 17.621,17.147 17.280 C 18.206 13.607,18.279 9.713,17.358 6.020 C 17.136 5.126,16.911 4.389,16.856 4.374 C 16.836 4.368,16.757 4.391,16.680 4.424 " fill="#0F172A" stroke="none" fill-rule="evenodd"></path></svg>