<svg width="24" height="24" viewBox="0 0 24 24" fill="none" xmlns="http://www.w3.org/2000/svg"><path d="M11.386 0.799 C 9.748 1.097,8.511 2.379,8.283 4.015 C 8.254 4.222,8.240 5.769,8.240 8.658 C 8.240 13.303,8.241 13.326,8.444 13.934 C 8.818 15.053,9.730 15.957,10.840 16.312 C 11.262 16.447,11.555 16.492,12.000 16.492 C 12.933 16.492,13.728 16.194,14.477 15.563 C 14.979 15.140,15.460 14.350,15.648 13.640 L 15.738 13.300 15.751 8.840 C 15.760 5.761,15.750 4.276,15.720 4.045 C 15.522 2.536,14.489 1.334,13.017 0.898 C 12.727 0.812,12.558 0.790,12.120 0.778 C 11.823 0.770,11.493 0.780,11.386 0.799 M5.619 10.617 C 5.529 10.671,5.415 10.790,5.359 10.887 C 5.260 11.060,5.260 11.060,5.261 12.180 C 5.263 13.405,5.297 13.761,5.480 14.468 C 6.133 16.986,8.268 18.957,10.810 19.385 L 11.240 19.458 11.240 20.609 L 11.240 21.760 9.658 21.760 C 8.182 21.760,8.067 21.765,7.928 21.836 C 7.646 21.981,7.520 22.186,7.520 22.500 C 7.520 22.814,7.646 23.019,7.928 23.164 C 8.071 23.237,8.222 23.240,12.000 23.240 C 15.838 23.240,15.927 23.238,16.079 23.160 C 16.165 23.117,16.286 23.014,16.348 22.933 C 16.447 22.804,16.460 22.752,16.460 22.500 C 16.460 22.248,16.447 22.196,16.348 22.067 C 16.286 21.986,16.165 21.883,16.079 21.840 C 15.931 21.764,15.842 21.760,14.342 21.760 L 12.760 21.760 12.760 20.609 L 12.760 19.458 13.190 19.385 C 15.389 19.015,17.346 17.450,18.221 15.364 C 18.635 14.379,18.782 13.405,18.754 11.837 C 18.740 11.080,18.737 11.055,18.634 10.880 C 18.348 10.394,17.652 10.394,17.366 10.880 L 17.260 11.060 17.234 12.300 C 17.207 13.641,17.184 13.818,16.954 14.474 C 16.561 15.591,15.807 16.544,14.806 17.188 C 14.463 17.409,13.901 17.663,13.500 17.780 C 10.785 18.568,7.979 17.130,7.046 14.474 C 6.816 13.818,6.793 13.641,6.766 12.300 C 6.740 11.074,6.739 11.058,6.640 10.886 C 6.438 10.532,5.968 10.408,5.619 10.617 " fill="#0F172A" stroke="none" fill-rule="evenodd"></path></svg>