<svg width="24" height="24" viewBox="0 0 24 24" fill="none" xmlns="http://www.w3.org/2000/svg"><path d="M11.340 2.281 C 9.465 2.398,7.649 3.079,6.084 4.252 C 5.583 4.627,4.616 5.596,4.245 6.092 C 3.236 7.444,2.622 8.895,2.353 10.572 C 2.239 11.277,2.230 12.591,2.333 13.300 C 2.582 15.004,3.215 16.530,4.245 17.908 C 4.622 18.412,5.588 19.378,6.092 19.755 C 7.471 20.785,9.000 21.420,10.700 21.666 C 11.033 21.714,11.432 21.736,12.000 21.736 C 13.556 21.736,14.894 21.430,16.260 20.762 C 17.312 20.247,18.030 19.732,18.881 18.881 C 19.732 18.030,20.248 17.311,20.761 16.260 C 22.377 12.955,21.991 9.058,19.755 6.096 C 18.214 4.055,15.834 2.676,13.280 2.345 C 12.683 2.268,11.941 2.243,11.340 2.281 M15.388 11.367 C 15.628 11.526,15.733 11.721,15.733 12.007 C 15.733 12.203,15.714 12.271,15.616 12.409 C 15.552 12.501,15.436 12.613,15.359 12.658 C 15.222 12.739,15.173 12.740,12.000 12.740 C 8.827 12.740,8.778 12.739,8.641 12.658 C 8.564 12.613,8.448 12.501,8.384 12.409 C 8.098 12.003,8.330 11.395,8.815 11.278 C 8.884 11.261,10.354 11.250,12.083 11.254 L 15.226 11.260 15.388 11.367 " fill="#0F172A" stroke="none" fill-rule="evenodd"></path></svg>