<svg width="24" height="24" viewBox="0 0 24 24" fill="none" xmlns="http://www.w3.org/2000/svg"><path d="M8.360 1.715 C 6.169 2.724,4.396 4.456,3.339 6.620 C 2.172 9.007,1.937 11.550,2.647 14.100 C 3.128 15.828,4.026 17.351,5.337 18.663 C 7.040 20.365,9.036 21.341,11.520 21.685 C 12.136 21.771,13.544 21.751,14.220 21.647 C 15.404 21.465,16.319 21.180,17.380 20.661 C 19.429 19.660,21.094 18.015,22.130 15.966 C 22.471 15.292,22.541 15.066,22.479 14.836 C 22.415 14.599,22.335 14.492,22.133 14.374 C 21.885 14.228,21.665 14.238,21.198 14.412 C 19.827 14.924,18.394 15.105,16.992 14.941 C 13.915 14.581,11.260 12.703,9.920 9.940 C 9.280 8.621,9.023 7.493,9.023 6.000 C 9.023 4.811,9.169 3.960,9.552 2.920 C 9.667 2.607,9.736 2.353,9.737 2.240 C 9.739 1.831,9.421 1.519,9.002 1.521 C 8.822 1.521,8.701 1.558,8.360 1.715 " fill="#0F172A" stroke="none" fill-rule="evenodd"></path></svg>