<svg width="24" height="24" viewBox="0 0 24 24" fill="none" xmlns="http://www.w3.org/2000/svg"><path d="M13.991 3.036 C 10.204 4.123,8.678 4.577,8.567 4.651 C 8.482 4.707,8.378 4.822,8.336 4.906 C 8.263 5.055,8.259 5.251,8.240 10.500 L 8.220 15.940 8.114 16.167 C 7.980 16.451,7.740 16.715,7.492 16.849 C 7.386 16.907,6.700 17.125,5.968 17.336 C 4.405 17.784,4.207 17.873,3.756 18.321 C 3.400 18.675,3.157 19.119,3.055 19.600 C 2.944 20.130,3.033 20.795,3.280 21.281 C 3.413 21.540,3.712 21.902,3.947 22.087 C 4.450 22.481,4.948 22.653,5.580 22.651 C 5.952 22.649,6.045 22.630,6.899 22.384 C 7.415 22.235,7.939 22.057,8.092 21.979 C 8.979 21.529,9.560 20.721,9.718 19.720 C 9.745 19.553,9.760 17.696,9.760 14.513 C 9.760 9.836,9.764 9.564,9.830 9.544 C 9.869 9.533,11.862 8.964,14.260 8.280 C 16.658 7.596,18.652 7.027,18.691 7.015 C 18.760 6.995,18.762 7.126,18.751 9.927 C 18.738 13.195,18.756 12.990,18.456 13.427 C 18.189 13.817,18.045 13.883,16.533 14.317 C 15.789 14.530,15.081 14.750,14.960 14.806 C 14.436 15.050,13.992 15.503,13.742 16.051 C 13.567 16.435,13.507 16.710,13.509 17.120 C 13.512 17.809,13.753 18.391,14.240 18.884 C 14.752 19.402,15.339 19.654,16.040 19.655 C 16.365 19.656,16.509 19.631,17.040 19.485 C 18.536 19.072,18.838 18.931,19.360 18.404 C 19.749 18.010,19.917 17.747,20.095 17.250 L 20.220 16.900 20.230 9.480 C 20.240 2.469,20.237 2.052,20.170 1.923 C 20.132 1.847,20.031 1.731,19.948 1.664 C 19.816 1.559,19.759 1.541,19.528 1.533 C 19.282 1.525,18.832 1.647,13.991 3.036 " fill="#0F172A" stroke="none" fill-rule="evenodd"></path></svg>