<svg width="24" height="24" viewBox="0 0 24 24" fill="none" xmlns="http://www.w3.org/2000/svg"><path d="M3.640 3.073 C 2.941 3.255,2.404 3.844,2.281 4.560 C 2.250 4.746,2.240 6.778,2.249 11.660 C 2.264 19.378,2.230 18.624,2.590 19.360 C 2.747 19.681,2.832 19.796,3.138 20.102 C 3.528 20.492,3.873 20.702,4.420 20.886 L 4.700 20.980 12.300 20.986 C 16.739 20.989,19.826 20.977,19.723 20.957 C 18.562 20.727,17.645 19.865,17.331 18.710 C 17.269 18.481,17.262 17.872,17.242 11.440 C 17.221 4.834,17.216 4.409,17.149 4.242 C 16.904 3.627,16.349 3.159,15.724 3.041 C 15.584 3.014,13.495 3.001,9.705 3.002 C 4.376 3.004,3.879 3.010,3.640 3.073 M9.292 6.814 C 9.447 6.879,9.667 7.119,9.709 7.271 C 9.749 7.413,9.749 10.587,9.709 10.729 C 9.667 10.881,9.447 11.121,9.292 11.186 C 9.103 11.265,5.897 11.265,5.708 11.186 C 5.553 11.121,5.333 10.881,5.291 10.729 C 5.251 10.587,5.251 7.413,5.291 7.271 C 5.332 7.124,5.550 6.881,5.699 6.816 C 5.877 6.738,9.107 6.737,9.292 6.814 M13.820 6.835 C 14.010 6.923,14.096 7.012,14.178 7.210 C 14.287 7.470,14.232 7.807,14.048 8.014 C 14.011 8.057,13.908 8.124,13.820 8.165 C 13.680 8.229,13.547 8.238,12.753 8.239 C 11.789 8.240,11.695 8.226,11.506 8.047 C 11.339 7.889,11.269 7.727,11.269 7.500 C 11.269 7.200,11.458 6.909,11.720 6.805 C 11.776 6.783,12.228 6.764,12.740 6.763 C 13.550 6.762,13.679 6.771,13.820 6.835 M18.769 12.570 L 18.780 18.380 18.886 18.607 C 19.029 18.910,19.266 19.160,19.570 19.324 C 19.809 19.454,19.838 19.460,20.240 19.460 C 20.623 19.460,20.681 19.450,20.898 19.343 C 21.344 19.124,21.634 18.733,21.719 18.236 C 21.750 18.057,21.760 16.411,21.752 12.800 L 21.740 7.620 21.628 7.391 C 21.566 7.265,21.442 7.100,21.353 7.023 C 21.069 6.780,20.950 6.760,19.792 6.760 L 18.759 6.760 18.769 12.570 M13.820 9.835 C 14.010 9.923,14.096 10.012,14.178 10.210 C 14.287 10.470,14.232 10.807,14.048 11.014 C 14.011 11.057,13.908 11.124,13.820 11.165 C 13.680 11.229,13.547 11.238,12.753 11.239 C 11.789 11.240,11.695 11.226,11.506 11.047 C 11.339 10.889,11.269 10.727,11.269 10.500 C 11.269 10.200,11.458 9.909,11.720 9.805 C 11.776 9.783,12.228 9.764,12.740 9.763 C 13.550 9.762,13.679 9.771,13.820 9.835 M13.820 12.835 C 14.010 12.923,14.096 13.012,14.178 13.210 C 14.257 13.398,14.257 13.602,14.178 13.790 C 14.096 13.988,14.010 14.077,13.820 14.165 C 13.668 14.234,13.458 14.238,9.753 14.239 C 7.087 14.240,5.809 14.226,5.733 14.197 C 5.460 14.095,5.269 13.807,5.269 13.500 C 5.269 13.200,5.458 12.909,5.720 12.805 C 5.784 12.779,7.240 12.764,9.740 12.763 C 13.461 12.762,13.668 12.765,13.820 12.835 M13.820 15.835 C 14.010 15.923,14.096 16.012,14.178 16.210 C 14.257 16.398,14.257 16.602,14.178 16.790 C 14.096 16.988,14.010 17.077,13.820 17.165 C 13.668 17.234,13.458 17.238,9.753 17.239 C 7.087 17.240,5.809 17.226,5.733 17.197 C 5.460 17.095,5.269 16.807,5.269 16.500 C 5.269 16.200,5.458 15.909,5.720 15.805 C 5.784 15.779,7.240 15.764,9.740 15.763 C 13.461 15.762,13.668 15.765,13.820 15.835 " fill="#0F172A" stroke="none" fill-rule="evenodd"></path></svg>