<svg width="24" height="24" viewBox="0 0 24 24" fill="none" xmlns="http://www.w3.org/2000/svg"><path d="M11.320 2.280 C 9.441 2.407,7.648 3.082,6.084 4.252 C 5.587 4.622,4.619 5.592,4.245 6.092 C 2.808 8.015,2.099 10.362,2.272 12.630 C 2.375 13.977,2.677 15.112,3.238 16.260 C 3.753 17.312,4.268 18.030,5.119 18.881 C 5.970 19.732,6.689 20.248,7.740 20.761 C 9.106 21.429,10.446 21.736,12.000 21.736 C 13.554 21.736,14.894 21.429,16.260 20.761 C 17.311 20.248,18.030 19.732,18.881 18.881 C 19.732 18.030,20.248 17.311,20.761 16.260 C 21.429 14.894,21.736 13.554,21.736 12.000 C 21.736 11.427,21.715 11.035,21.666 10.700 C 21.416 8.990,20.786 7.471,19.755 6.092 C 19.381 5.592,18.413 4.623,17.916 4.252 C 16.519 3.207,14.952 2.563,13.280 2.345 C 12.682 2.267,11.897 2.241,11.320 2.280 M13.320 3.858 C 15.000 4.143,16.488 4.887,17.707 6.052 C 18.994 7.283,19.832 8.880,20.147 10.700 C 20.244 11.262,20.244 12.738,20.147 13.300 C 19.933 14.537,19.513 15.594,18.843 16.585 C 18.666 16.846,18.480 17.109,18.430 17.169 L 18.338 17.278 12.528 11.468 L 6.719 5.659 7.009 5.435 C 8.085 4.609,9.544 4.000,10.820 3.844 C 11.018 3.820,11.225 3.792,11.280 3.783 C 11.509 3.743,12.960 3.797,13.320 3.858 M11.473 12.533 L 17.287 18.347 16.933 18.609 C 15.781 19.463,14.461 19.995,13.026 20.184 C 12.427 20.263,11.205 20.242,10.660 20.143 C 8.943 19.832,7.514 19.114,6.298 17.952 C 5.004 16.715,4.169 15.126,3.853 13.300 C 3.756 12.738,3.756 11.262,3.853 10.700 C 4.042 9.606,4.437 8.540,4.972 7.682 C 5.098 7.480,5.639 6.720,5.657 6.720 C 5.659 6.720,8.276 9.336,11.473 12.533 " fill="#0F172A" stroke="none" fill-rule="evenodd"></path></svg>