<svg width="24" height="24" viewBox="0 0 24 24" fill="none" xmlns="http://www.w3.org/2000/svg"><path d="M20.109 1.564 C 20.027 1.583,19.884 1.637,19.793 1.683 C 19.526 1.820,14.047 5.485,13.573 5.845 C 12.777 6.448,11.777 7.338,11.290 7.874 L 11.001 8.193 11.430 8.421 C 13.183 9.347,14.653 10.817,15.579 12.570 L 15.807 12.999 16.125 12.711 C 16.680 12.207,17.564 11.213,18.179 10.400 C 18.593 9.854,22.236 4.379,22.345 4.140 C 22.794 3.154,22.224 1.926,21.166 1.599 C 20.894 1.515,20.388 1.498,20.109 1.564 M9.396 10.212 C 9.124 10.605,8.658 11.365,8.343 11.930 C 8.233 12.129,8.207 12.205,8.247 12.219 C 8.276 12.229,8.390 12.267,8.500 12.303 C 9.019 12.473,9.752 12.904,10.204 13.306 C 10.871 13.898,11.452 14.753,11.697 15.500 C 11.733 15.610,11.771 15.723,11.781 15.752 C 11.794 15.790,11.874 15.763,12.070 15.655 C 12.571 15.379,13.444 14.843,13.822 14.580 L 14.197 14.319 14.117 14.129 C 13.715 13.174,12.961 12.092,12.230 11.420 C 11.542 10.787,10.644 10.207,9.830 9.867 L 9.680 9.804 9.396 10.212 M6.000 13.579 C 5.041 13.784,4.185 14.353,3.653 15.140 C 3.241 15.751,3.061 16.305,3.001 17.148 C 2.970 17.589,2.950 17.683,2.842 17.903 C 2.684 18.223,2.362 18.523,2.050 18.641 C 1.912 18.694,1.684 18.737,1.480 18.750 C 0.996 18.780,0.794 18.894,0.662 19.210 C 0.530 19.526,0.603 19.772,0.990 20.316 C 2.182 21.989,4.317 22.811,6.354 22.381 C 8.116 22.010,9.627 20.665,10.218 18.943 C 10.508 18.099,10.576 17.074,10.389 16.360 C 10.037 15.015,9.077 14.023,7.753 13.636 C 7.374 13.526,6.396 13.494,6.000 13.579 " fill="#0F172A" stroke="none" fill-rule="evenodd"></path></svg>