<svg width="24" height="24" viewBox="0 0 24 24" fill="none" xmlns="http://www.w3.org/2000/svg"><path d="M16.628 1.582 C 16.140 1.679,15.602 1.916,15.183 2.218 C 15.049 2.315,12.337 5.001,9.155 8.187 C 3.053 14.297,3.180 14.163,2.810 14.900 C 2.416 15.687,2.265 16.341,2.267 17.260 C 2.268 18.372,2.535 19.253,3.146 20.172 C 4.366 22.004,6.633 22.877,8.773 22.338 C 9.439 22.170,9.997 21.911,10.600 21.490 C 10.970 21.231,18.937 13.273,19.041 13.057 C 19.271 12.582,18.960 12.053,18.424 12.009 C 18.276 11.996,18.172 12.012,18.077 12.060 C 18.001 12.097,16.131 13.932,13.920 16.137 C 11.709 18.343,9.809 20.212,9.698 20.291 C 8.326 21.270,6.473 21.221,5.161 20.171 C 4.566 19.695,4.134 19.043,3.895 18.259 C 3.796 17.933,3.786 17.842,3.786 17.260 C 3.785 16.722,3.799 16.569,3.873 16.300 C 3.981 15.910,4.179 15.483,4.418 15.127 C 4.545 14.940,6.310 13.151,10.349 9.117 C 15.746 3.727,16.117 3.366,16.369 3.245 C 17.268 2.815,18.245 2.972,18.945 3.660 C 19.408 4.116,19.613 4.616,19.608 5.279 C 19.604 5.766,19.503 6.100,19.241 6.488 C 19.094 6.707,17.652 8.171,13.472 12.346 C 7.474 18.337,7.800 18.033,7.415 17.989 C 6.931 17.935,6.612 17.373,6.824 16.948 C 6.859 16.878,8.693 15.011,10.900 12.800 C 15.215 8.475,15.033 8.677,14.989 8.295 C 14.933 7.797,14.367 7.489,13.928 7.717 C 13.844 7.761,12.015 9.564,9.697 11.887 C 5.355 16.241,5.535 16.046,5.344 16.614 C 5.185 17.086,5.236 17.713,5.474 18.216 C 6.062 19.460,7.663 19.880,8.783 19.084 C 8.961 18.958,11.065 16.878,14.684 13.254 C 19.028 8.902,20.350 7.555,20.494 7.334 C 20.718 6.991,20.847 6.708,20.989 6.246 C 21.087 5.930,21.096 5.843,21.095 5.240 C 21.094 4.640,21.084 4.548,20.987 4.228 C 20.623 3.037,19.794 2.156,18.625 1.719 C 18.109 1.525,17.219 1.464,16.628 1.582 " fill="#0F172A" stroke="none" fill-rule="evenodd"></path></svg>