<svg width="24" height="24" viewBox="0 0 24 24" fill="none" xmlns="http://www.w3.org/2000/svg"><path d="M2.940 2.456 C 2.716 2.556,2.522 2.857,2.519 3.109 C 2.518 3.170,3.071 5.024,3.749 7.229 L 4.980 11.238 9.340 11.249 C 13.316 11.259,13.711 11.266,13.820 11.326 C 14.402 11.649,14.380 12.407,13.780 12.684 C 13.627 12.755,13.419 12.758,9.300 12.759 L 4.980 12.760 3.749 16.770 C 3.071 18.976,2.518 20.834,2.519 20.900 C 2.525 21.195,2.780 21.517,3.071 21.598 C 3.274 21.655,3.254 21.657,3.786 21.502 C 9.544 19.822,15.265 17.120,20.440 13.636 C 21.999 12.587,22.165 12.447,22.223 12.136 C 22.292 11.771,22.152 11.557,21.579 11.148 C 16.890 7.801,11.147 4.896,5.626 3.076 C 3.662 2.429,3.227 2.329,2.940 2.456 " fill="#0F172A" stroke="none" fill-rule="evenodd"></path></svg>