<svg width="24" height="24" viewBox="0 0 24 24" fill="none" xmlns="http://www.w3.org/2000/svg"><path d="M11.340 2.281 C 9.465 2.398,7.649 3.079,6.084 4.252 C 5.583 4.627,4.616 5.596,4.245 6.092 C 3.236 7.444,2.622 8.895,2.353 10.572 C 2.239 11.277,2.230 12.591,2.333 13.300 C 2.582 15.004,3.215 16.530,4.245 17.908 C 4.622 18.412,5.588 19.378,6.092 19.755 C 7.471 20.785,9.000 21.420,10.700 21.666 C 11.033 21.714,11.432 21.736,12.000 21.736 C 13.556 21.736,14.894 21.430,16.260 20.762 C 17.312 20.247,18.030 19.732,18.881 18.881 C 19.732 18.030,20.248 17.311,20.761 16.260 C 22.377 12.955,21.991 9.058,19.755 6.096 C 18.214 4.055,15.834 2.676,13.280 2.345 C 12.683 2.268,11.941 2.243,11.340 2.281 M10.122 8.367 C 10.228 8.429,10.338 8.537,10.390 8.632 L 10.480 8.791 10.480 12.008 L 10.480 15.224 10.365 15.405 C 10.181 15.696,10.048 15.740,9.360 15.740 C 8.693 15.740,8.592 15.705,8.381 15.405 L 8.260 15.233 8.260 12.007 L 8.260 8.780 8.353 8.631 C 8.461 8.457,8.637 8.321,8.815 8.276 C 8.884 8.258,9.166 8.248,9.441 8.253 C 9.901 8.262,9.958 8.271,10.122 8.367 M15.374 8.356 C 15.457 8.408,15.574 8.523,15.633 8.612 L 15.740 8.774 15.740 12.004 L 15.740 15.233 15.619 15.405 C 15.408 15.705,15.307 15.740,14.640 15.740 C 13.952 15.740,13.819 15.696,13.635 15.405 L 13.520 15.224 13.520 12.008 L 13.520 8.791 13.608 8.633 C 13.703 8.466,13.889 8.329,14.094 8.276 C 14.163 8.258,14.445 8.248,14.721 8.253 C 15.167 8.261,15.239 8.273,15.374 8.356 " fill="#0F172A" stroke="none" fill-rule="evenodd"></path></svg>