<svg width="24" height="24" viewBox="0 0 24 24" fill="none" xmlns="http://www.w3.org/2000/svg"><path d="M7.180 4.577 C 7.031 4.643,6.859 4.824,6.803 4.973 C 6.773 5.051,6.760 7.213,6.760 12.004 C 6.760 17.724,6.769 18.945,6.814 19.052 C 6.844 19.123,6.933 19.238,7.012 19.307 C 7.223 19.493,7.468 19.530,8.397 19.514 L 9.186 19.500 9.380 19.380 C 9.500 19.305,9.604 19.199,9.656 19.100 L 9.740 18.940 9.740 12.000 C 9.740 5.227,9.738 5.056,9.663 4.905 C 9.616 4.811,9.514 4.704,9.405 4.635 L 9.224 4.520 8.262 4.522 C 7.548 4.523,7.269 4.537,7.180 4.577 M14.595 4.635 C 14.486 4.704,14.384 4.811,14.337 4.905 C 14.262 5.056,14.260 5.227,14.260 12.000 L 14.260 18.940 14.344 19.100 C 14.396 19.200,14.500 19.305,14.620 19.380 L 14.814 19.500 15.737 19.500 C 16.782 19.500,16.862 19.482,17.097 19.186 L 17.220 19.033 17.231 12.106 C 17.238 8.297,17.232 5.121,17.219 5.049 C 17.190 4.887,16.984 4.646,16.812 4.574 C 16.716 4.534,16.439 4.520,15.729 4.520 L 14.776 4.520 14.595 4.635 " fill="#0F172A" stroke="none" fill-rule="evenodd"></path></svg>