<svg width="24" height="24" viewBox="0 0 24 24" fill="none" xmlns="http://www.w3.org/2000/svg"><path d="M19.226 1.583 C 19.098 1.614,18.846 1.715,18.666 1.807 C 18.380 1.954,18.248 2.065,17.600 2.707 L 16.860 3.438 18.711 5.289 L 20.563 7.140 21.313 6.380 C 21.974 5.711,22.081 5.584,22.208 5.320 C 22.413 4.896,22.488 4.569,22.486 4.120 C 22.485 3.661,22.414 3.371,22.193 2.921 C 21.880 2.281,21.228 1.764,20.502 1.580 C 20.204 1.505,19.543 1.507,19.226 1.583 M9.517 10.790 C 2.881 17.434,3.053 17.252,2.671 18.020 C 2.462 18.439,2.371 18.710,1.881 20.357 C 1.438 21.851,1.428 21.987,1.746 22.287 C 1.890 22.424,2.040 22.480,2.256 22.480 C 2.423 22.480,4.938 21.753,5.492 21.544 C 5.925 21.381,6.435 21.100,6.800 20.823 C 7.022 20.655,9.281 18.423,13.320 14.383 L 19.500 8.200 17.660 6.360 C 16.648 5.348,15.811 4.520,15.800 4.520 C 15.788 4.520,12.961 7.341,9.517 10.790 " fill="#0F172A" stroke="none" fill-rule="evenodd"></path></svg>