<svg width="24" height="24" viewBox="0 0 24 24" fill="none" xmlns="http://www.w3.org/2000/svg"><path d="M19.226 1.583 C 19.098 1.614,18.846 1.715,18.666 1.807 C 18.380 1.954,18.248 2.065,17.600 2.707 L 16.860 3.438 18.711 5.289 L 20.563 7.140 21.313 6.380 C 21.974 5.711,22.081 5.584,22.208 5.320 C 22.413 4.896,22.488 4.569,22.486 4.120 C 22.485 3.661,22.414 3.371,22.193 2.921 C 21.880 2.281,21.228 1.764,20.502 1.580 C 20.204 1.505,19.543 1.507,19.226 1.583 M11.415 8.890 C 9.014 11.293,6.979 13.359,6.892 13.480 C 6.650 13.817,6.422 14.226,6.268 14.601 C 6.037 15.160,5.267 17.789,5.265 18.025 C 5.261 18.414,5.579 18.730,5.974 18.732 C 6.209 18.733,8.816 17.972,9.400 17.732 C 9.794 17.570,10.241 17.313,10.605 17.038 C 10.745 16.932,12.804 14.900,15.180 12.522 L 19.500 8.200 17.660 6.360 C 16.648 5.348,15.811 4.520,15.800 4.520 C 15.789 4.520,13.815 6.486,11.415 8.890 M4.860 5.283 C 3.518 5.445,2.437 6.550,2.280 7.919 C 2.227 8.376,2.227 18.624,2.280 19.081 C 2.440 20.479,3.521 21.560,4.919 21.720 C 5.376 21.773,15.624 21.773,16.081 21.720 C 17.498 21.558,18.569 20.471,18.723 19.040 C 18.748 18.808,18.759 17.617,18.752 15.980 C 18.739 13.034,18.753 13.198,18.494 12.953 C 18.353 12.819,18.201 12.760,18.000 12.760 C 17.799 12.760,17.647 12.819,17.506 12.953 C 17.247 13.198,17.262 13.011,17.240 16.221 L 17.220 19.142 17.090 19.406 C 16.936 19.719,16.685 19.965,16.367 20.114 L 16.140 20.220 10.500 20.220 L 4.860 20.220 4.633 20.114 C 4.315 19.965,4.064 19.719,3.910 19.406 L 3.780 19.142 3.780 13.500 L 3.780 7.858 3.910 7.594 C 4.064 7.281,4.315 7.035,4.633 6.886 L 4.860 6.780 7.780 6.760 C 10.989 6.738,10.802 6.753,11.047 6.494 C 11.309 6.217,11.309 5.783,11.047 5.506 C 10.801 5.246,10.979 5.261,7.920 5.255 C 6.391 5.252,5.014 5.264,4.860 5.283 " fill="#0F172A" stroke="none" fill-rule="evenodd"></path></svg>