<svg width="24" height="24" viewBox="0 0 24 24" fill="none" xmlns="http://www.w3.org/2000/svg"><path d="M3.760 1.602 C 2.703 1.873,1.866 2.716,1.599 3.776 C 1.526 4.068,1.520 4.229,1.520 5.856 C 1.521 6.826,1.539 7.836,1.562 8.100 C 2.033 13.605,5.367 18.467,10.340 20.899 C 12.081 21.750,13.961 22.271,15.900 22.438 C 16.164 22.461,17.174 22.479,18.144 22.480 C 19.771 22.480,19.932 22.474,20.224 22.401 C 21.291 22.132,22.132 21.291,22.401 20.224 C 22.470 19.948,22.480 19.772,22.480 18.857 C 22.480 17.939,22.470 17.777,22.404 17.564 C 22.253 17.079,21.888 16.661,21.426 16.445 C 21.268 16.371,20.331 16.119,18.820 15.744 C 16.352 15.131,16.194 15.103,15.765 15.202 C 15.521 15.258,15.189 15.427,14.995 15.594 C 14.905 15.671,14.588 16.059,14.291 16.457 C 13.994 16.855,13.715 17.211,13.671 17.250 C 13.551 17.355,13.408 17.336,12.979 17.158 C 10.191 15.997,8.003 13.809,6.842 11.021 C 6.664 10.592,6.645 10.449,6.750 10.329 C 6.788 10.285,7.144 10.007,7.540 9.711 C 7.936 9.415,8.321 9.104,8.396 9.019 C 8.470 8.934,8.594 8.732,8.671 8.571 C 8.788 8.325,8.813 8.220,8.830 7.923 C 8.850 7.571,8.846 7.548,8.260 5.194 C 7.883 3.677,7.628 2.731,7.555 2.574 C 7.339 2.112,6.921 1.747,6.436 1.596 C 6.222 1.529,6.065 1.520,5.126 1.522 C 4.208 1.524,4.018 1.535,3.760 1.602 M19.960 3.063 C 19.871 3.101,18.950 3.992,17.410 5.531 L 15.000 7.940 15.000 6.529 C 15.000 5.041,14.990 4.948,14.808 4.747 C 14.619 4.538,14.168 4.452,13.924 4.578 C 13.777 4.654,13.569 4.893,13.531 5.031 C 13.514 5.091,13.500 6.220,13.500 7.540 C 13.500 9.723,13.506 9.951,13.568 10.064 C 13.656 10.224,13.891 10.430,14.031 10.469 C 14.173 10.509,18.827 10.509,18.969 10.469 C 19.094 10.434,19.342 10.229,19.408 10.105 C 19.605 9.737,19.441 9.248,19.065 9.077 C 18.914 9.008,18.780 9.002,17.480 9.001 L 16.061 9.000 18.487 6.570 C 21.136 3.917,21.043 4.027,20.982 3.622 C 20.915 3.175,20.382 2.883,19.960 3.063 " fill="#0F172A" stroke="none" fill-rule="evenodd"></path></svg>