<svg width="24" height="24" viewBox="0 0 24 24" fill="none" xmlns="http://www.w3.org/2000/svg"><path d="M3.760 1.602 C 2.915 1.819,2.199 2.402,1.822 3.180 C 1.527 3.789,1.512 3.886,1.491 5.380 C 1.455 7.815,1.612 9.303,2.080 10.988 C 3.549 16.273,7.727 20.451,13.012 21.920 C 14.697 22.388,16.212 22.546,18.658 22.509 C 20.110 22.487,20.215 22.471,20.820 22.178 C 21.423 21.886,21.885 21.424,22.178 20.820 C 22.471 20.217,22.497 20.054,22.498 18.860 C 22.498 17.904,22.491 17.800,22.413 17.570 C 22.242 17.066,21.885 16.660,21.426 16.445 C 21.268 16.371,20.331 16.119,18.820 15.744 C 16.352 15.131,16.194 15.103,15.765 15.202 C 15.509 15.261,15.178 15.434,14.971 15.616 C 14.871 15.704,14.547 16.101,14.250 16.498 C 13.953 16.895,13.682 17.242,13.647 17.270 C 13.543 17.354,13.387 17.327,12.979 17.158 C 10.196 15.999,8.063 13.875,6.864 11.066 C 6.674 10.623,6.644 10.461,6.730 10.353 C 6.758 10.319,7.077 10.070,7.440 9.800 C 8.405 9.082,8.567 8.910,8.745 8.404 C 8.926 7.892,8.913 7.812,8.239 5.116 C 7.891 3.724,7.598 2.634,7.543 2.525 C 7.330 2.105,6.893 1.738,6.436 1.596 C 6.222 1.529,6.065 1.520,5.126 1.522 C 4.208 1.524,4.018 1.535,3.760 1.602 " fill="#0F172A" stroke="none" fill-rule="evenodd"></path></svg>