<svg width="24" height="24" viewBox="0 0 24 24" fill="none" xmlns="http://www.w3.org/2000/svg"><path d="M3.760 1.602 C 2.703 1.873,1.866 2.716,1.599 3.776 C 1.526 4.068,1.520 4.229,1.520 5.856 C 1.521 6.826,1.539 7.836,1.562 8.100 C 2.033 13.605,5.367 18.467,10.340 20.899 C 12.081 21.750,13.961 22.271,15.900 22.438 C 16.164 22.461,17.174 22.479,18.144 22.480 C 19.771 22.480,19.932 22.474,20.224 22.401 C 21.291 22.132,22.132 21.291,22.401 20.224 C 22.470 19.948,22.480 19.772,22.480 18.857 C 22.480 17.939,22.470 17.777,22.404 17.564 C 22.253 17.079,21.888 16.661,21.426 16.445 C 21.268 16.371,20.331 16.119,18.820 15.744 C 16.352 15.131,16.194 15.103,15.765 15.202 C 15.521 15.258,15.189 15.427,14.995 15.594 C 14.905 15.671,14.588 16.059,14.291 16.457 C 13.994 16.855,13.715 17.211,13.671 17.250 C 13.551 17.355,13.408 17.336,12.979 17.158 C 10.191 15.997,8.003 13.809,6.842 11.021 C 6.664 10.592,6.645 10.449,6.750 10.329 C 6.788 10.285,7.144 10.007,7.540 9.711 C 7.936 9.415,8.321 9.104,8.396 9.019 C 8.470 8.934,8.594 8.732,8.671 8.571 C 8.788 8.325,8.813 8.220,8.830 7.923 C 8.850 7.571,8.846 7.548,8.260 5.194 C 7.883 3.677,7.628 2.731,7.555 2.574 C 7.339 2.112,6.921 1.747,6.436 1.596 C 6.222 1.529,6.065 1.520,5.126 1.522 C 4.208 1.524,4.018 1.535,3.760 1.602 M15.460 3.075 C 14.962 3.301,14.852 3.914,15.242 4.286 C 15.468 4.502,15.615 4.520,17.111 4.520 L 18.418 4.520 15.993 6.950 C 13.652 9.295,13.567 9.387,13.529 9.571 C 13.489 9.766,13.511 9.954,13.592 10.105 C 13.661 10.234,13.909 10.436,14.031 10.463 C 14.091 10.476,14.160 10.493,14.184 10.500 C 14.208 10.507,14.316 10.495,14.424 10.472 C 14.615 10.433,14.685 10.367,17.050 8.007 L 19.480 5.582 19.480 6.889 C 19.480 7.685,19.497 8.276,19.524 8.400 C 19.608 8.795,19.974 9.043,20.380 8.982 C 20.616 8.947,20.898 8.704,20.959 8.485 C 21.013 8.292,21.014 3.712,20.960 3.518 C 20.939 3.440,20.862 3.320,20.790 3.250 C 20.524 2.993,20.604 3.000,17.991 3.001 C 15.784 3.002,15.609 3.007,15.460 3.075 " fill="#0F172A" stroke="none" fill-rule="evenodd"></path></svg>