<svg width="24" height="24" viewBox="0 0 24 24" fill="none" xmlns="http://www.w3.org/2000/svg"><path d="M3.211 3.817 C 2.451 4.002,1.821 4.618,1.573 5.422 C 1.504 5.649,1.500 5.963,1.500 12.000 C 1.500 18.037,1.504 18.351,1.573 18.578 C 1.702 18.994,1.876 19.285,2.176 19.584 C 2.486 19.894,2.883 20.116,3.272 20.196 C 3.572 20.258,20.428 20.258,20.728 20.196 C 21.508 20.035,22.172 19.402,22.427 18.578 C 22.496 18.351,22.500 18.037,22.500 12.000 C 22.500 5.963,22.496 5.649,22.427 5.422 C 22.298 5.006,22.124 4.715,21.824 4.416 C 21.514 4.106,21.117 3.884,20.728 3.804 C 20.400 3.736,3.493 3.749,3.211 3.817 M14.730 7.244 C 15.125 7.441,15.322 7.742,15.352 8.190 C 15.369 8.456,15.360 8.503,15.244 8.738 C 15.037 9.158,14.704 9.361,14.225 9.359 C 13.614 9.357,13.149 8.884,13.143 8.257 C 13.138 7.758,13.415 7.362,13.888 7.193 C 14.149 7.100,14.484 7.120,14.730 7.244 M9.379 10.741 C 9.509 10.775,9.679 10.841,9.758 10.888 C 9.836 10.934,11.133 12.201,12.640 13.702 C 15.288 16.340,15.386 16.433,15.571 16.471 C 15.766 16.511,15.954 16.489,16.105 16.408 C 16.234 16.339,16.436 16.091,16.463 15.969 C 16.476 15.909,16.493 15.840,16.500 15.816 C 16.507 15.792,16.494 15.684,16.471 15.576 C 16.433 15.398,16.379 15.329,15.875 14.818 L 15.321 14.255 15.872 13.709 C 16.459 13.127,16.615 13.026,17.020 12.960 C 17.302 12.914,17.667 12.972,17.934 13.106 C 18.090 13.183,18.487 13.554,19.570 14.633 L 21.000 16.059 20.999 17.099 C 20.998 18.231,20.979 18.341,20.755 18.548 C 20.509 18.774,21.097 18.760,12.000 18.760 C 2.903 18.760,3.491 18.774,3.245 18.548 C 3.021 18.342,3.002 18.231,3.001 17.100 L 3.000 16.059 5.550 13.515 C 6.953 12.116,8.164 10.934,8.243 10.887 C 8.420 10.782,8.766 10.686,8.982 10.683 C 9.070 10.681,9.249 10.708,9.379 10.741 " fill="#0F172A" stroke="none" fill-rule="evenodd"></path></svg>