<svg width="24" height="24" viewBox="0 0 24 24" fill="none" xmlns="http://www.w3.org/2000/svg"><path d="M5.784 3.882 C 5.190 4.091,4.781 4.510,4.575 5.120 C 4.503 5.331,4.500 5.609,4.500 12.000 C 4.500 18.391,4.503 18.669,4.575 18.880 C 4.781 19.489,5.191 19.912,5.783 20.125 C 6.110 20.243,6.610 20.244,6.943 20.128 C 7.127 20.064,17.926 14.164,18.877 13.608 C 19.455 13.269,19.843 12.535,19.788 11.880 C 19.739 11.297,19.440 10.782,18.967 10.466 C 18.681 10.275,7.473 4.106,7.089 3.929 C 6.769 3.780,6.136 3.758,5.784 3.882 " fill="#0F172A" stroke="none" fill-rule="evenodd"></path></svg>