<svg width="24" height="24" viewBox="0 0 24 24" fill="none" xmlns="http://www.w3.org/2000/svg"><path d="M11.340 2.281 C 9.465 2.398,7.649 3.079,6.084 4.252 C 5.583 4.627,4.616 5.596,4.245 6.092 C 3.236 7.444,2.622 8.895,2.353 10.572 C 2.239 11.277,2.230 12.591,2.333 13.300 C 2.582 15.004,3.215 16.530,4.245 17.908 C 4.622 18.412,5.588 19.378,6.092 19.755 C 7.471 20.785,9.000 21.420,10.700 21.666 C 11.033 21.714,11.432 21.736,12.000 21.736 C 13.556 21.736,14.894 21.430,16.260 20.762 C 17.312 20.247,18.030 19.732,18.881 18.881 C 19.732 18.030,20.248 17.311,20.761 16.260 C 22.377 12.955,21.991 9.058,19.755 6.096 C 18.214 4.055,15.834 2.676,13.280 2.345 C 12.683 2.268,11.941 2.243,11.340 2.281 M10.564 7.859 C 11.207 8.178,16.328 11.055,16.466 11.175 C 16.742 11.416,16.819 11.595,16.819 12.000 C 16.819 12.391,16.750 12.561,16.493 12.807 C 16.295 12.996,10.644 16.138,10.384 16.203 C 10.037 16.291,9.619 16.179,9.346 15.926 C 9.284 15.868,9.185 15.730,9.126 15.620 L 9.020 15.420 9.020 12.000 L 9.020 8.580 9.128 8.375 C 9.279 8.090,9.546 7.878,9.860 7.795 C 10.038 7.748,10.408 7.782,10.564 7.859 " fill="#0F172A" stroke="none" fill-rule="evenodd"></path></svg>