<svg width="24" height="24" viewBox="0 0 24 24" fill="none" xmlns="http://www.w3.org/2000/svg"><path d="M14.700 6.817 C 14.542 6.887,14.379 7.064,14.302 7.249 C 14.247 7.381,14.240 7.999,14.240 12.729 C 14.240 16.495,14.253 18.107,14.285 18.219 C 14.344 18.432,14.578 18.660,14.797 18.719 C 14.901 18.747,15.168 18.761,15.456 18.753 C 16.043 18.737,16.196 18.675,16.380 18.380 L 16.500 18.186 16.511 12.883 C 16.518 9.167,16.508 7.517,16.478 7.370 C 16.427 7.126,16.294 6.949,16.077 6.838 C 15.946 6.771,15.842 6.760,15.372 6.762 C 15.000 6.763,14.781 6.781,14.700 6.817 M19.940 6.826 C 19.761 6.921,19.636 7.045,19.575 7.189 C 19.529 7.296,19.520 8.239,19.520 12.763 L 19.520 18.209 19.610 18.368 C 19.663 18.463,19.773 18.571,19.880 18.634 C 20.052 18.736,20.084 18.740,20.643 18.740 C 21.208 18.740,21.231 18.737,21.388 18.633 C 21.477 18.574,21.593 18.457,21.645 18.373 L 21.740 18.220 21.740 12.800 C 21.740 9.819,21.726 7.331,21.709 7.271 C 21.667 7.119,21.447 6.879,21.292 6.814 C 21.098 6.733,20.100 6.742,19.940 6.826 M3.820 6.844 C 3.068 6.952,2.406 7.622,2.282 8.400 C 2.227 8.746,2.226 16.714,2.281 17.096 C 2.443 18.214,3.626 18.949,4.685 18.588 C 4.844 18.533,6.405 17.666,8.623 16.399 C 11.492 14.759,12.347 14.253,12.528 14.086 C 13.337 13.339,13.265 11.939,12.384 11.282 C 12.199 11.143,5.452 7.269,4.979 7.030 C 4.624 6.850,4.226 6.786,3.820 6.844 " fill="#0F172A" stroke="none" fill-rule="evenodd"></path></svg>