<svg width="24" height="24" viewBox="0 0 24 24" fill="none" xmlns="http://www.w3.org/2000/svg"><path d="M11.340 2.281 C 9.465 2.398,7.649 3.079,6.084 4.252 C 5.583 4.627,4.616 5.596,4.245 6.092 C 3.236 7.444,2.622 8.895,2.353 10.572 C 2.239 11.277,2.230 12.591,2.333 13.300 C 2.582 15.004,3.215 16.530,4.245 17.908 C 4.622 18.412,5.588 19.378,6.092 19.755 C 7.471 20.785,9.000 21.420,10.700 21.666 C 11.033 21.714,11.432 21.736,12.000 21.736 C 13.556 21.736,14.894 21.430,16.260 20.762 C 17.312 20.247,18.030 19.732,18.881 18.881 C 19.732 18.030,20.248 17.311,20.761 16.260 C 22.377 12.955,21.991 9.058,19.755 6.096 C 18.214 4.055,15.834 2.676,13.280 2.345 C 12.683 2.268,11.941 2.243,11.340 2.281 M12.405 8.381 C 12.485 8.432,12.593 8.543,12.645 8.627 C 12.739 8.778,12.740 8.796,12.753 10.007 L 12.765 11.235 13.993 11.247 C 15.204 11.260,15.222 11.261,15.373 11.355 C 15.615 11.506,15.733 11.718,15.733 12.003 C 15.733 12.203,15.714 12.270,15.616 12.409 C 15.385 12.738,15.382 12.738,13.993 12.752 L 12.765 12.764 12.753 13.999 L 12.740 15.233 12.619 15.405 C 12.453 15.642,12.273 15.739,12.000 15.739 C 11.727 15.739,11.547 15.642,11.381 15.405 L 11.260 15.233 11.247 13.999 L 11.235 12.764 10.007 12.752 C 8.618 12.738,8.615 12.738,8.384 12.409 C 8.286 12.271,8.267 12.203,8.267 12.007 C 8.267 11.721,8.372 11.526,8.612 11.367 L 8.774 11.260 10.004 11.247 L 11.235 11.235 11.247 10.007 C 11.260 8.804,11.262 8.777,11.353 8.631 C 11.586 8.256,12.044 8.147,12.405 8.381 " fill="#0F172A" stroke="none" fill-rule="evenodd"></path></svg>