<svg width="24" height="24" viewBox="0 0 24 24" fill="none" xmlns="http://www.w3.org/2000/svg"><path d="M11.811 5.278 C 11.639 5.320,11.417 5.493,11.330 5.652 C 11.266 5.770,11.259 5.999,11.249 8.509 L 11.238 11.237 8.506 11.249 L 5.774 11.260 5.605 11.372 C 5.311 11.566,5.192 11.873,5.281 12.204 C 5.340 12.422,5.569 12.657,5.781 12.715 C 5.890 12.746,6.780 12.760,8.590 12.760 L 11.240 12.760 11.240 15.410 C 11.240 17.220,11.254 18.110,11.285 18.219 C 11.344 18.432,11.578 18.660,11.798 18.719 C 12.198 18.827,12.610 18.599,12.718 18.209 C 12.745 18.113,12.760 17.109,12.760 15.410 L 12.760 12.760 15.410 12.760 C 17.220 12.760,18.110 12.746,18.219 12.715 C 18.431 12.657,18.660 12.422,18.719 12.204 C 18.808 11.873,18.689 11.566,18.395 11.372 L 18.226 11.260 15.494 11.249 L 12.762 11.237 12.751 8.509 C 12.740 5.841,12.738 5.777,12.658 5.641 C 12.494 5.361,12.122 5.202,11.811 5.278 " fill="#0F172A" stroke="none" fill-rule="evenodd"></path></svg>