<svg width="24" height="24" viewBox="0 0 24 24" fill="none" xmlns="http://www.w3.org/2000/svg"><path d="M11.811 2.278 C 11.639 2.320,11.417 2.493,11.330 2.652 C 11.265 2.771,11.259 3.089,11.249 7.413 C 11.242 10.720,11.251 12.094,11.283 12.212 C 11.342 12.431,11.573 12.659,11.798 12.719 C 12.202 12.828,12.613 12.597,12.720 12.201 C 12.748 12.097,12.758 10.536,12.751 7.413 C 12.740 2.826,12.739 2.779,12.658 2.641 C 12.494 2.361,12.122 2.202,11.811 2.278 M5.380 4.939 C 5.269 4.978,5.115 5.105,4.876 5.355 C 3.070 7.248,2.074 10.031,2.272 12.630 C 2.375 13.977,2.677 15.112,3.238 16.260 C 3.753 17.312,4.268 18.030,5.119 18.881 C 5.970 19.732,6.689 20.248,7.740 20.761 C 9.106 21.429,10.446 21.736,12.000 21.736 C 12.573 21.736,12.965 21.715,13.300 21.666 C 15.010 21.416,16.529 20.786,17.908 19.755 C 18.412 19.378,19.378 18.412,19.755 17.908 C 20.786 16.529,21.416 15.010,21.666 13.300 C 21.762 12.642,21.762 11.358,21.666 10.700 C 21.416 8.995,20.776 7.449,19.764 6.108 C 19.422 5.655,18.870 5.058,18.723 4.982 C 18.148 4.684,17.492 5.181,17.640 5.802 C 17.679 5.964,17.748 6.066,18.008 6.351 C 19.172 7.622,19.866 9.037,20.148 10.716 C 20.246 11.299,20.246 12.727,20.147 13.300 C 19.833 15.120,18.994 16.717,17.702 17.952 C 16.481 19.119,15.073 19.825,13.320 20.148 C 12.780 20.248,11.220 20.248,10.680 20.148 C 8.927 19.825,7.519 19.119,6.298 17.952 C 4.999 16.710,4.157 15.103,3.852 13.284 C 3.752 12.691,3.752 11.309,3.852 10.716 C 4.132 9.043,4.837 7.604,5.990 6.351 C 6.253 6.065,6.321 5.965,6.360 5.802 C 6.451 5.423,6.221 5.025,5.851 4.922 C 5.656 4.868,5.575 4.871,5.380 4.939 " fill="#0F172A" stroke="none" fill-rule="evenodd"></path></svg>