<svg width="24" height="24" viewBox="0 0 24 24" fill="none" xmlns="http://www.w3.org/2000/svg"><path d="M2.094 2.278 C 1.586 2.400,1.354 2.951,1.625 3.388 C 1.802 3.672,1.963 3.737,2.529 3.753 L 2.998 3.767 3.010 9.273 C 3.021 14.437,3.027 14.795,3.094 15.020 C 3.401 16.045,4.128 16.792,5.140 17.122 C 5.389 17.203,5.520 17.216,6.313 17.231 C 6.964 17.243,7.201 17.260,7.188 17.294 C 6.954 17.925,6.000 20.904,6.001 21.003 C 6.003 21.321,6.253 21.637,6.572 21.724 C 6.873 21.806,7.251 21.650,7.387 21.387 C 7.423 21.317,7.528 21.035,7.620 20.760 L 7.787 20.260 12.000 20.260 L 16.213 20.260 16.380 20.760 C 16.472 21.035,16.577 21.317,16.613 21.387 C 16.749 21.650,17.127 21.806,17.428 21.724 C 17.747 21.637,17.997 21.321,17.999 21.003 C 18.000 20.904,17.046 17.925,16.812 17.294 C 16.799 17.260,17.036 17.243,17.687 17.231 C 18.480 17.216,18.611 17.203,18.860 17.122 C 19.872 16.792,20.599 16.045,20.906 15.020 C 20.973 14.795,20.979 14.437,20.990 9.273 L 21.002 3.767 21.471 3.753 C 22.037 3.737,22.198 3.672,22.375 3.388 C 22.599 3.026,22.484 2.572,22.114 2.360 L 21.940 2.260 12.080 2.254 C 6.657 2.251,2.163 2.261,2.094 2.278 M15.302 6.075 C 15.483 6.158,15.665 6.353,15.710 6.513 C 15.727 6.572,15.740 8.042,15.740 9.780 L 15.740 12.940 15.634 13.120 C 15.345 13.612,14.655 13.612,14.366 13.120 L 14.260 12.940 14.260 9.780 C 14.260 8.042,14.273 6.572,14.290 6.513 C 14.363 6.251,14.710 6.002,15.000 6.002 C 15.077 6.002,15.213 6.035,15.302 6.075 M12.405 8.381 C 12.485 8.432,12.593 8.543,12.645 8.627 L 12.740 8.780 12.740 10.860 L 12.740 12.940 12.634 13.120 C 12.345 13.612,11.655 13.612,11.366 13.120 L 11.260 12.940 11.260 10.860 L 11.260 8.780 11.353 8.631 C 11.586 8.256,12.044 8.147,12.405 8.381 M9.377 10.616 C 9.472 10.672,9.582 10.785,9.640 10.886 C 9.739 11.058,9.740 11.072,9.740 12.000 C 9.740 12.928,9.739 12.942,9.640 13.114 C 9.355 13.612,8.645 13.612,8.360 13.114 C 8.261 12.942,8.260 12.928,8.260 12.000 C 8.260 11.073,8.261 11.058,8.359 10.887 C 8.562 10.532,9.024 10.409,9.377 10.616 M15.447 17.959 C 15.575 18.344,15.680 18.681,15.680 18.709 C 15.680 18.750,14.951 18.760,12.000 18.760 C 9.031 18.760,8.320 18.750,8.320 18.709 C 8.320 18.669,8.685 17.541,8.779 17.290 C 8.794 17.250,9.460 17.242,12.005 17.250 L 15.213 17.260 15.447 17.959 " fill="#0F172A" stroke="none" fill-rule="evenodd"></path></svg>