<svg width="24" height="24" viewBox="0 0 24 24" fill="none" xmlns="http://www.w3.org/2000/svg"><path d="M2.094 2.278 C 1.586 2.400,1.354 2.951,1.625 3.388 C 1.802 3.672,1.963 3.737,2.529 3.753 L 2.998 3.767 3.010 9.273 C 3.021 14.437,3.027 14.795,3.094 15.020 C 3.401 16.045,4.128 16.792,5.140 17.122 C 5.389 17.203,5.520 17.216,6.313 17.231 C 6.964 17.243,7.201 17.260,7.188 17.294 C 6.954 17.925,6.000 20.904,6.001 21.003 C 6.003 21.321,6.253 21.637,6.572 21.724 C 6.873 21.806,7.251 21.650,7.387 21.387 C 7.423 21.317,7.528 21.035,7.620 20.760 L 7.787 20.260 12.000 20.260 L 16.213 20.260 16.380 20.760 C 16.472 21.035,16.577 21.317,16.613 21.387 C 16.749 21.650,17.127 21.806,17.428 21.724 C 17.747 21.637,17.997 21.321,17.999 21.003 C 18.000 20.904,17.046 17.925,16.812 17.294 C 16.799 17.260,17.036 17.243,17.687 17.231 C 18.480 17.216,18.611 17.203,18.860 17.122 C 19.872 16.792,20.599 16.045,20.906 15.020 C 20.973 14.795,20.979 14.437,20.990 9.273 L 21.002 3.767 21.471 3.753 C 22.037 3.737,22.198 3.672,22.375 3.388 C 22.599 3.026,22.484 2.572,22.114 2.360 L 21.940 2.260 12.080 2.254 C 6.657 2.251,2.163 2.261,2.094 2.278 M16.832 6.936 C 17.104 7.079,17.261 7.370,17.231 7.679 C 17.204 7.957,17.072 8.130,16.720 8.348 C 15.394 9.168,14.409 10.064,13.456 11.313 C 13.095 11.787,12.957 11.887,12.664 11.887 C 12.347 11.887,12.225 11.797,11.342 10.920 L 10.498 10.082 9.299 11.283 C 8.078 12.505,7.855 12.699,7.610 12.744 C 7.312 12.800,6.895 12.548,6.798 12.253 C 6.729 12.044,6.770 11.748,6.893 11.571 C 7.058 11.332,10.005 8.417,10.159 8.339 C 10.339 8.248,10.662 8.248,10.841 8.340 C 10.917 8.379,11.340 8.768,11.781 9.204 L 12.581 9.997 12.781 9.750 C 13.102 9.351,13.985 8.488,14.460 8.108 C 14.957 7.710,15.425 7.382,15.921 7.084 C 16.225 6.901,16.284 6.880,16.492 6.880 C 16.620 6.880,16.773 6.905,16.832 6.936 M15.447 17.959 C 15.575 18.344,15.680 18.681,15.680 18.709 C 15.680 18.750,14.951 18.760,12.000 18.760 C 9.031 18.760,8.320 18.750,8.320 18.709 C 8.320 18.669,8.685 17.541,8.779 17.290 C 8.794 17.250,9.460 17.242,12.005 17.250 L 15.213 17.260 15.447 17.959 " fill="#0F172A" stroke="none" fill-rule="evenodd"></path></svg>