<svg width="24" height="24" viewBox="0 0 24 24" fill="none" xmlns="http://www.w3.org/2000/svg"><path d="M7.440 1.548 C 7.385 1.558,7.214 1.627,7.060 1.700 C 6.725 1.861,6.378 2.191,6.223 2.498 C 6.010 2.919,6.001 3.010,6.000 4.749 L 6.000 6.358 5.910 6.377 C 5.861 6.387,5.532 6.434,5.180 6.480 C 4.515 6.568,4.071 6.690,3.760 6.869 C 2.939 7.343,2.431 8.091,2.281 9.047 C 2.213 9.480,2.243 16.198,2.314 16.420 C 2.599 17.313,2.985 17.854,3.637 18.275 C 4.084 18.564,4.752 18.760,5.288 18.760 L 5.529 18.760 5.507 18.890 C 5.495 18.962,5.453 19.394,5.414 19.851 C 5.333 20.807,5.355 21.050,5.558 21.462 C 5.817 21.987,6.388 22.396,6.980 22.479 C 7.357 22.532,16.643 22.532,17.020 22.479 C 17.612 22.396,18.183 21.987,18.442 21.462 C 18.645 21.050,18.667 20.807,18.586 19.851 C 18.547 19.394,18.505 18.961,18.493 18.890 L 18.471 18.760 18.712 18.760 C 18.845 18.760,19.093 18.733,19.265 18.700 C 20.539 18.457,21.457 17.539,21.700 16.265 C 21.784 15.825,21.787 9.423,21.703 8.960 C 21.568 8.216,21.184 7.557,20.645 7.145 C 20.117 6.741,19.730 6.600,18.820 6.480 C 18.468 6.434,18.140 6.387,18.090 6.377 L 18.000 6.358 18.000 4.749 C 17.999 3.010,17.990 2.919,17.777 2.498 C 17.620 2.187,17.276 1.862,16.920 1.687 L 16.620 1.540 12.080 1.535 C 9.583 1.532,7.495 1.538,7.440 1.548 M16.357 3.104 L 16.480 3.207 16.480 4.704 C 16.480 5.536,16.464 6.200,16.445 6.200 C 16.426 6.200,16.052 6.173,15.615 6.141 C 13.200 5.961,10.800 5.961,8.385 6.141 C 7.948 6.173,7.574 6.200,7.555 6.200 C 7.536 6.200,7.520 5.536,7.520 4.704 L 7.520 3.207 7.643 3.104 L 7.766 3.000 12.000 3.000 L 16.234 3.000 16.357 3.104 M15.343 9.841 C 15.597 9.965,15.737 10.199,15.739 10.503 C 15.740 10.702,15.720 10.776,15.630 10.912 C 15.331 11.364,14.642 11.351,14.370 10.887 C 14.251 10.683,14.233 10.367,14.331 10.179 C 14.408 10.030,14.589 9.857,14.720 9.805 C 14.887 9.738,15.164 9.755,15.343 9.841 M18.343 9.841 C 18.597 9.965,18.737 10.199,18.739 10.503 C 18.740 10.702,18.720 10.776,18.630 10.912 C 18.331 11.364,17.642 11.351,17.370 10.887 C 17.251 10.683,17.233 10.367,17.331 10.179 C 17.408 10.030,17.589 9.857,17.720 9.805 C 17.887 9.738,18.164 9.755,18.343 9.841 M14.280 14.323 C 15.255 14.374,16.358 14.476,16.447 14.524 C 16.486 14.545,16.538 14.598,16.562 14.643 C 16.606 14.726,17.121 20.209,17.119 20.576 C 17.117 20.792,17.075 20.878,16.933 20.953 C 16.807 21.020,7.193 21.020,7.067 20.953 C 6.925 20.878,6.883 20.792,6.881 20.576 C 6.879 20.209,7.394 14.726,7.438 14.643 C 7.509 14.510,7.592 14.489,8.282 14.425 C 10.113 14.254,12.273 14.217,14.280 14.323 " fill="#0F172A" stroke="none" fill-rule="evenodd"></path></svg>