<svg width="24" height="24" viewBox="0 0 24 24" fill="none" xmlns="http://www.w3.org/2000/svg"><path d="M12.106 1.583 C 11.174 1.809,10.514 2.545,10.512 3.360 C 10.512 3.759,10.586 3.975,10.880 4.420 C 11.248 4.978,11.328 5.343,11.149 5.658 C 10.994 5.932,10.871 5.975,10.265 5.965 C 9.605 5.956,8.270 5.865,7.186 5.756 C 6.401 5.677,6.342 5.676,6.179 5.738 C 5.964 5.820,5.733 6.069,5.698 6.255 C 5.684 6.332,5.709 6.787,5.755 7.267 C 5.880 8.575,5.916 9.110,5.962 10.337 L 6.004 11.454 5.911 11.637 C 5.803 11.850,5.555 12.000,5.313 12.000 C 5.102 12.000,4.757 11.862,4.459 11.658 C 4.099 11.411,3.929 11.332,3.651 11.282 C 2.528 11.078,1.510 12.133,1.510 13.500 C 1.510 14.613,2.164 15.528,3.095 15.720 C 3.536 15.810,3.929 15.700,4.495 15.327 C 4.811 15.119,5.115 15.000,5.329 15.000 C 5.551 15.000,5.774 15.171,5.837 15.388 C 5.909 15.642,5.608 18.320,5.316 20.020 C 5.211 20.632,5.227 20.870,5.386 21.070 C 5.559 21.287,5.719 21.349,6.280 21.418 C 7.490 21.565,9.586 21.719,10.375 21.720 C 10.838 21.720,11.016 21.647,11.155 21.400 C 11.327 21.094,11.233 20.678,10.872 20.154 C 10.586 19.739,10.509 19.493,10.528 19.056 C 10.541 18.741,10.561 18.655,10.678 18.416 C 10.925 17.914,11.461 17.502,12.080 17.338 C 12.421 17.248,13.055 17.246,13.395 17.335 C 14.212 17.547,14.819 18.122,14.961 18.819 C 15.058 19.298,14.961 19.652,14.566 20.256 C 14.156 20.882,14.147 21.289,14.536 21.578 C 14.633 21.649,14.697 21.659,15.034 21.650 C 16.297 21.618,20.143 21.149,20.557 20.976 C 20.755 20.893,20.908 20.736,20.978 20.543 C 21.082 20.261,21.373 18.256,21.496 16.980 C 21.628 15.615,21.634 15.519,21.598 15.394 C 21.450 14.878,20.856 14.882,20.125 15.404 C 19.211 16.057,18.105 15.750,17.548 14.690 C 17.344 14.302,17.268 13.979,17.268 13.500 C 17.268 13.021,17.344 12.699,17.549 12.305 C 17.926 11.580,18.664 11.164,19.368 11.278 C 19.663 11.326,19.816 11.395,20.182 11.642 C 20.654 11.960,21.025 12.064,21.307 11.958 C 21.479 11.893,21.677 11.680,21.723 11.511 C 21.841 11.070,21.488 6.104,21.307 5.670 C 21.234 5.495,20.982 5.288,20.801 5.254 C 20.654 5.226,20.617 5.230,19.160 5.458 C 18.071 5.628,16.768 5.776,15.600 5.864 C 14.782 5.926,14.725 5.926,14.587 5.861 C 14.374 5.760,14.260 5.553,14.267 5.280 C 14.274 5.013,14.365 4.796,14.636 4.400 C 14.988 3.887,15.077 3.419,14.921 2.913 C 14.725 2.277,14.144 1.774,13.382 1.581 C 13.084 1.505,12.423 1.506,12.106 1.583 " fill="#0F172A" stroke="none" fill-rule="evenodd"></path></svg>