<svg width="24" height="24" viewBox="0 0 24 24" fill="none" xmlns="http://www.w3.org/2000/svg"><path d="M4.480 3.044 C 4.006 3.136,3.442 3.562,3.224 3.991 C 3.001 4.432,3.000 4.448,3.000 7.120 C 3.000 9.755,3.002 9.791,3.205 10.222 C 3.394 10.625,3.866 11.022,4.324 11.164 C 4.552 11.235,4.727 11.240,7.119 11.240 C 9.543 11.240,9.684 11.236,9.926 11.161 C 10.515 10.979,10.979 10.515,11.161 9.926 C 11.236 9.684,11.240 9.543,11.240 7.119 C 11.240 4.727,11.235 4.552,11.164 4.324 C 10.964 3.679,10.388 3.167,9.724 3.041 C 9.459 2.990,4.740 2.993,4.480 3.044 M14.244 3.043 C 13.613 3.167,13.031 3.696,12.836 4.324 C 12.765 4.552,12.760 4.727,12.760 7.119 C 12.760 9.543,12.764 9.684,12.839 9.926 C 13.021 10.515,13.485 10.979,14.074 11.161 C 14.316 11.236,14.457 11.240,16.881 11.240 C 19.273 11.240,19.448 11.235,19.676 11.164 C 20.297 10.971,20.770 10.464,20.940 9.812 C 21.029 9.472,21.029 4.768,20.940 4.428 C 20.758 3.726,20.173 3.169,19.485 3.040 C 19.220 2.991,14.497 2.994,14.244 3.043 M9.628 4.617 L 9.740 4.713 9.740 7.116 L 9.740 9.518 9.629 9.629 L 9.518 9.740 7.116 9.740 L 4.713 9.740 4.617 9.628 L 4.520 9.516 4.520 7.116 L 4.520 4.716 4.618 4.618 L 4.716 4.520 7.116 4.520 L 9.516 4.520 9.628 4.617 M19.382 4.618 L 19.480 4.716 19.480 7.116 L 19.480 9.516 19.383 9.628 L 19.287 9.740 16.884 9.740 L 14.482 9.740 14.371 9.629 L 14.260 9.518 14.260 7.116 L 14.260 4.713 14.372 4.617 L 14.484 4.520 16.884 4.520 L 19.284 4.520 19.382 4.618 M6.460 6.075 C 6.232 6.178,6.051 6.399,6.019 6.611 C 6.005 6.708,5.999 7.002,6.006 7.266 C 6.019 7.708,6.028 7.759,6.127 7.908 C 6.307 8.180,6.488 8.240,7.123 8.239 C 7.720 8.238,7.911 8.186,8.073 7.980 C 8.216 7.797,8.247 7.615,8.233 7.037 C 8.221 6.526,8.214 6.484,8.113 6.332 C 7.934 6.062,7.750 6.000,7.137 6.001 C 6.724 6.002,6.588 6.016,6.460 6.075 M16.167 6.086 C 16.065 6.136,15.949 6.239,15.887 6.333 C 15.785 6.486,15.779 6.522,15.767 7.083 C 15.756 7.605,15.763 7.690,15.833 7.826 C 16.008 8.169,16.189 8.240,16.886 8.240 C 17.511 8.240,17.693 8.179,17.873 7.908 C 17.972 7.759,17.981 7.708,17.994 7.266 C 18.011 6.630,17.984 6.470,17.828 6.292 C 17.615 6.050,17.455 6.002,16.860 6.001 C 16.408 6.000,16.317 6.011,16.167 6.086 M4.400 12.816 C 4.065 12.910,3.821 13.055,3.558 13.318 C 3.283 13.593,3.157 13.812,3.059 14.190 C 2.971 14.528,2.972 19.234,3.060 19.572 C 3.150 19.920,3.305 20.192,3.557 20.443 C 3.808 20.695,4.080 20.850,4.428 20.940 C 4.768 21.029,9.472 21.029,9.812 20.940 C 10.464 20.770,10.971 20.297,11.164 19.676 C 11.235 19.448,11.240 19.273,11.240 16.881 C 11.240 14.457,11.236 14.316,11.161 14.074 C 10.973 13.466,10.469 12.980,9.859 12.822 C 9.658 12.769,9.248 12.760,7.102 12.763 C 5.204 12.765,4.535 12.778,4.400 12.816 M13.201 12.823 C 12.837 12.981,12.760 13.164,12.760 13.866 C 12.760 14.513,12.819 14.692,13.092 14.873 C 13.241 14.972,13.292 14.981,13.734 14.994 C 14.407 15.012,14.532 14.988,14.744 14.792 C 14.974 14.580,15.009 14.437,14.993 13.781 C 14.981 13.287,14.973 13.244,14.873 13.092 C 14.692 12.820,14.512 12.760,13.877 12.762 C 13.490 12.763,13.301 12.780,13.201 12.823 M19.201 12.823 C 18.837 12.981,18.760 13.164,18.760 13.866 C 18.760 14.513,18.819 14.692,19.092 14.873 C 19.241 14.972,19.292 14.981,19.734 14.994 C 20.407 15.012,20.532 14.988,20.744 14.792 C 20.974 14.580,21.009 14.437,20.993 13.781 C 20.981 13.287,20.973 13.244,20.873 13.092 C 20.692 12.820,20.512 12.760,19.877 12.762 C 19.490 12.763,19.301 12.780,19.201 12.823 M9.629 14.371 L 9.740 14.482 9.740 16.880 L 9.740 19.278 9.629 19.389 L 9.518 19.500 7.249 19.512 C 6.001 19.518,4.919 19.513,4.846 19.499 C 4.772 19.486,4.668 19.432,4.616 19.379 L 4.520 19.284 4.520 16.891 C 4.520 14.297,4.514 14.369,4.734 14.279 C 4.781 14.260,5.877 14.248,7.169 14.252 L 9.518 14.260 9.629 14.371 M6.407 15.846 C 6.305 15.896,6.189 15.999,6.127 16.093 C 6.027 16.243,6.019 16.288,6.007 16.781 C 5.991 17.437,6.026 17.580,6.256 17.792 C 6.468 17.988,6.593 18.012,7.266 17.994 C 7.708 17.981,7.759 17.972,7.908 17.873 C 8.179 17.693,8.240 17.511,8.240 16.886 C 8.240 16.184,8.164 15.993,7.820 15.835 C 7.690 15.776,7.558 15.762,7.120 15.761 C 6.647 15.760,6.558 15.771,6.407 15.846 M16.201 15.823 C 15.837 15.981,15.760 16.164,15.760 16.866 C 15.760 17.513,15.819 17.692,16.092 17.873 C 16.241 17.972,16.292 17.981,16.734 17.994 C 17.407 18.012,17.532 17.988,17.744 17.792 C 17.974 17.580,18.009 17.437,17.993 16.781 C 17.981 16.287,17.973 16.244,17.873 16.092 C 17.692 15.820,17.512 15.760,16.877 15.762 C 16.490 15.763,16.301 15.780,16.201 15.823 M13.201 18.823 C 12.837 18.981,12.760 19.164,12.760 19.866 C 12.760 20.513,12.819 20.692,13.092 20.873 C 13.241 20.972,13.292 20.981,13.734 20.994 C 14.407 21.012,14.532 20.988,14.744 20.792 C 14.974 20.580,15.009 20.437,14.993 19.781 C 14.981 19.287,14.973 19.244,14.873 19.092 C 14.692 18.820,14.512 18.760,13.877 18.762 C 13.490 18.763,13.301 18.780,13.201 18.823 M19.201 18.823 C 18.837 18.981,18.760 19.164,18.760 19.866 C 18.760 20.513,18.819 20.692,19.092 20.873 C 19.241 20.972,19.292 20.981,19.734 20.994 C 20.407 21.012,20.532 20.988,20.744 20.792 C 20.974 20.580,21.009 20.437,20.993 19.781 C 20.981 19.287,20.973 19.244,20.873 19.092 C 20.692 18.820,20.512 18.760,19.877 18.762 C 19.490 18.763,19.301 18.780,19.201 18.823 " fill="#0F172A" stroke="none" fill-rule="evenodd"></path></svg>