<svg width="24" height="24" viewBox="0 0 24 24" fill="none" xmlns="http://www.w3.org/2000/svg"><path d="M11.340 2.281 C 9.465 2.398,7.649 3.079,6.084 4.252 C 5.583 4.627,4.616 5.596,4.245 6.092 C 3.236 7.444,2.622 8.895,2.353 10.572 C 2.239 11.277,2.230 12.591,2.333 13.300 C 2.582 15.004,3.215 16.530,4.245 17.908 C 4.622 18.412,5.588 19.378,6.092 19.755 C 7.471 20.785,9.000 21.420,10.700 21.666 C 11.033 21.714,11.432 21.736,12.000 21.736 C 13.556 21.736,14.894 21.430,16.260 20.762 C 17.312 20.247,18.030 19.732,18.881 18.881 C 19.732 18.030,20.248 17.311,20.761 16.260 C 22.377 12.955,21.991 9.058,19.755 6.096 C 18.214 4.055,15.834 2.676,13.280 2.345 C 12.683 2.268,11.941 2.243,11.340 2.281 M12.870 6.096 C 13.969 6.333,14.949 7.060,15.413 7.983 C 15.777 8.709,15.833 9.607,15.563 10.390 C 15.308 11.132,14.740 11.806,14.035 12.205 C 13.905 12.279,13.687 12.403,13.552 12.480 C 13.269 12.642,12.962 12.925,12.856 13.123 C 12.799 13.230,12.778 13.389,12.759 13.860 C 12.733 14.493,12.701 14.613,12.513 14.788 C 12.391 14.903,12.155 15.000,12.000 15.000 C 11.845 15.000,11.609 14.903,11.487 14.788 C 11.280 14.595,11.260 14.508,11.261 13.800 C 11.263 13.237,11.276 13.099,11.350 12.860 C 11.586 12.102,12.181 11.489,13.199 10.956 C 13.564 10.765,13.928 10.397,14.090 10.055 C 14.210 9.801,14.220 9.749,14.220 9.378 C 14.220 8.994,14.213 8.962,14.070 8.672 C 13.888 8.305,13.584 8.006,13.173 7.790 C 12.809 7.598,12.472 7.521,12.000 7.521 C 11.362 7.521,10.998 7.643,10.407 8.055 C 10.139 8.242,10.095 8.259,9.887 8.259 C 9.607 8.259,9.429 8.164,9.261 7.925 C 9.100 7.696,9.095 7.363,9.248 7.131 C 9.526 6.711,10.492 6.202,11.240 6.081 C 11.405 6.055,11.567 6.026,11.600 6.018 C 11.736 5.985,12.601 6.039,12.870 6.096 M12.377 16.616 C 12.787 16.856,12.858 17.466,12.513 17.788 C 12.298 17.989,11.992 18.048,11.729 17.938 C 11.426 17.811,11.269 17.578,11.269 17.257 C 11.269 16.680,11.882 16.326,12.377 16.616 " fill="#0F172A" stroke="none" fill-rule="evenodd"></path></svg>