<svg width="24" height="24" viewBox="0 0 24 24" fill="none" xmlns="http://www.w3.org/2000/svg"><path d="M5.040 3.822 C 4.321 3.977,3.607 4.540,3.284 5.207 C 2.902 5.997,2.910 6.800,3.309 7.600 C 3.418 7.819,3.545 7.986,3.779 8.221 C 4.149 8.591,4.508 8.793,5.021 8.921 C 5.337 9.000,5.454 9.001,12.101 8.991 L 18.860 8.980 19.185 8.870 C 19.554 8.745,20.021 8.454,20.266 8.195 C 20.519 7.929,20.749 7.542,20.868 7.183 C 20.960 6.907,20.976 6.791,20.978 6.380 C 20.980 5.848,20.911 5.565,20.667 5.100 C 20.468 4.721,19.973 4.250,19.560 4.046 C 18.945 3.743,19.433 3.761,11.980 3.764 C 6.421 3.766,5.256 3.776,5.040 3.822 M3.565 11.280 C 3.395 11.320,3.245 11.430,3.131 11.598 C 2.818 12.058,3.119 12.672,3.692 12.739 C 3.806 12.753,7.626 12.758,12.180 12.752 C 19.796 12.741,20.470 12.735,20.580 12.674 C 20.822 12.540,21.000 12.255,21.000 12.000 C 21.000 11.745,20.822 11.460,20.580 11.326 C 20.470 11.265,19.796 11.260,12.080 11.254 C 7.471 11.250,3.639 11.262,3.565 11.280 M3.460 15.076 C 3.080 15.251,2.908 15.663,3.062 16.030 C 3.141 16.220,3.225 16.311,3.408 16.404 C 3.553 16.478,3.794 16.480,12.000 16.480 C 20.206 16.480,20.447 16.478,20.592 16.404 C 21.164 16.112,21.116 15.315,20.511 15.062 C 20.379 15.007,19.458 15.000,11.991 15.001 C 3.938 15.002,3.614 15.005,3.460 15.076 M3.407 18.846 C 3.149 18.973,3.020 19.192,3.020 19.500 C 3.020 19.811,3.150 20.029,3.410 20.155 L 3.585 20.240 12.000 20.240 L 20.415 20.240 20.590 20.155 C 20.850 20.029,20.980 19.811,20.980 19.500 C 20.980 19.189,20.850 18.971,20.590 18.845 L 20.415 18.760 11.997 18.760 L 3.580 18.760 3.407 18.846 " fill="#0F172A" stroke="none" fill-rule="evenodd"></path></svg>