<svg width="24" height="24" viewBox="0 0 24 24" fill="none" xmlns="http://www.w3.org/2000/svg"><path d="M12.260 4.603 C 7.970 5.679,4.271 6.597,4.040 6.644 C 3.546 6.744,3.271 6.841,2.953 7.027 C 2.464 7.314,2.083 7.724,1.821 8.248 C 1.481 8.925,1.500 8.574,1.500 14.160 C 1.500 19.705,1.484 19.383,1.796 20.026 C 2.240 20.940,2.981 21.505,3.994 21.703 C 4.433 21.789,19.567 21.789,20.006 21.703 C 21.019 21.505,21.760 20.940,22.204 20.026 C 22.516 19.383,22.500 19.707,22.500 14.140 C 22.500 8.541,22.524 8.975,22.180 8.260 C 21.904 7.688,21.485 7.256,20.924 6.965 C 20.491 6.741,20.313 6.698,19.081 6.520 C 17.290 6.261,14.853 6.045,13.640 6.038 C 12.685 6.032,12.616 6.055,16.736 5.026 C 19.703 4.284,20.585 4.050,20.685 3.976 C 20.860 3.848,20.953 3.695,20.984 3.487 C 21.053 3.025,20.714 2.635,20.252 2.644 C 20.143 2.646,16.684 3.494,12.260 4.603 M9.590 9.845 C 10.204 10.142,10.087 11.081,9.417 11.232 C 9.098 11.303,8.732 11.129,8.576 10.832 C 8.505 10.694,8.504 10.356,8.575 10.189 C 8.735 9.812,9.199 9.655,9.590 9.845 M7.700 10.330 C 8.358 10.660,8.191 11.668,7.465 11.749 C 7.000 11.802,6.640 11.471,6.640 10.990 C 6.640 10.655,6.850 10.385,7.194 10.278 C 7.313 10.241,7.578 10.268,7.700 10.330 M11.540 10.393 C 11.726 10.519,11.880 10.794,11.879 10.998 C 11.877 11.280,11.644 11.620,11.387 11.717 C 11.087 11.831,10.703 11.698,10.505 11.413 C 10.412 11.279,10.389 11.202,10.389 11.032 C 10.389 10.400,11.025 10.047,11.540 10.393 M17.898 10.657 C 18.827 11.113,19.028 12.334,18.295 13.067 C 17.951 13.411,17.438 13.562,16.954 13.461 C 16.475 13.362,16.099 13.061,15.886 12.607 C 15.795 12.411,15.780 12.328,15.780 12.000 C 15.780 11.673,15.795 11.589,15.885 11.395 C 16.066 11.011,16.380 10.727,16.794 10.574 C 16.886 10.540,17.072 10.524,17.300 10.530 C 17.604 10.538,17.697 10.558,17.898 10.657 M6.383 11.740 C 7.029 12.118,6.765 13.120,6.020 13.120 C 5.778 13.120,5.607 13.044,5.451 12.866 C 5.221 12.605,5.195 12.309,5.374 11.987 C 5.560 11.650,6.032 11.534,6.383 11.740 M12.936 11.774 C 13.458 12.173,13.255 13.038,12.622 13.110 C 12.247 13.152,11.995 13.024,11.834 12.708 C 11.655 12.357,11.801 11.910,12.161 11.712 C 12.370 11.597,12.742 11.626,12.936 11.774 M8.505 12.517 C 8.675 12.594,8.849 12.787,8.900 12.957 C 8.954 13.132,8.925 13.400,8.836 13.558 C 8.524 14.114,7.725 14.054,7.497 13.459 C 7.259 12.834,7.895 12.240,8.505 12.517 M10.620 12.516 C 10.841 12.617,10.962 12.762,11.022 12.994 C 11.207 13.708,10.394 14.240,9.836 13.771 C 9.586 13.560,9.493 13.174,9.625 12.895 C 9.700 12.737,9.969 12.492,10.095 12.468 C 10.289 12.430,10.469 12.446,10.620 12.516 M5.811 13.575 C 6.080 13.690,6.240 13.947,6.240 14.264 C 6.240 14.570,6.073 14.820,5.790 14.938 C 5.261 15.159,4.727 14.770,4.768 14.194 C 4.788 13.926,4.929 13.709,5.163 13.590 C 5.327 13.506,5.634 13.499,5.811 13.575 M13.362 13.601 C 13.717 13.782,13.850 14.261,13.647 14.621 C 13.473 14.928,13.087 15.075,12.747 14.962 C 12.563 14.902,12.336 14.648,12.280 14.442 C 12.113 13.819,12.777 13.303,13.362 13.601 M8.505 14.637 C 8.900 14.816,9.049 15.313,8.823 15.698 C 8.581 16.111,8.063 16.194,7.702 15.876 C 7.295 15.519,7.385 14.903,7.881 14.650 C 8.094 14.541,8.285 14.537,8.505 14.637 M10.620 14.636 C 10.841 14.737,10.962 14.882,11.022 15.114 C 11.210 15.839,10.380 16.366,9.822 15.876 C 9.415 15.519,9.505 14.903,10.001 14.650 C 10.214 14.541,10.406 14.537,10.620 14.636 M17.858 15.134 C 18.823 15.576,19.040 16.865,18.272 17.584 C 17.587 18.224,16.506 18.098,16.002 17.318 C 15.439 16.448,15.899 15.296,16.910 15.041 C 17.162 14.977,17.612 15.022,17.858 15.134 M6.412 15.506 C 6.803 15.757,6.864 16.268,6.546 16.629 C 6.247 16.970,5.752 16.969,5.451 16.626 C 5.141 16.273,5.223 15.696,5.613 15.493 C 5.898 15.344,6.166 15.349,6.412 15.506 M12.860 15.470 C 12.982 15.536,13.150 15.727,13.197 15.853 C 13.301 16.128,13.198 16.542,12.983 16.711 C 12.491 17.097,11.760 16.756,11.760 16.140 C 11.760 15.898,11.837 15.726,12.015 15.570 C 12.151 15.450,12.208 15.425,12.420 15.390 C 12.525 15.372,12.760 15.415,12.860 15.470 M7.692 16.825 C 8.078 17.020,8.222 17.431,8.043 17.825 C 7.827 18.301,7.182 18.395,6.831 18.000 C 6.402 17.517,6.732 16.760,7.371 16.760 C 7.477 16.760,7.622 16.789,7.692 16.825 M11.482 16.841 C 11.854 17.031,11.985 17.556,11.750 17.912 C 11.467 18.340,10.810 18.355,10.526 17.940 C 10.396 17.751,10.348 17.512,10.401 17.317 C 10.452 17.128,10.652 16.889,10.819 16.816 C 11.001 16.737,11.299 16.748,11.482 16.841 M9.600 17.342 C 9.852 17.470,10.016 17.768,9.992 18.057 C 9.929 18.806,8.937 19.020,8.599 18.358 C 8.490 18.144,8.495 17.827,8.611 17.622 C 8.795 17.296,9.255 17.166,9.600 17.342 " fill="#0F172A" stroke="none" fill-rule="evenodd"></path></svg>