<svg width="24" height="24" viewBox="0 0 24 24" fill="none" xmlns="http://www.w3.org/2000/svg"><path d="M9.900 1.545 C 8.145 1.634,6.313 1.806,5.882 1.923 C 4.876 2.196,4.111 2.996,3.841 4.056 C 3.761 4.369,3.760 4.481,3.760 13.144 C 3.760 19.232,3.773 21.949,3.802 22.027 C 3.919 22.336,4.314 22.549,4.637 22.476 C 4.727 22.456,5.570 22.132,6.509 21.757 C 7.479 21.368,8.251 21.081,8.298 21.091 C 8.343 21.101,9.154 21.419,10.100 21.799 C 11.437 22.335,11.860 22.489,12.000 22.489 C 12.140 22.489,12.563 22.335,13.900 21.799 C 14.846 21.419,15.657 21.101,15.702 21.091 C 15.749 21.081,16.521 21.368,17.491 21.757 C 18.430 22.132,19.273 22.456,19.363 22.476 C 19.686 22.549,20.081 22.336,20.198 22.027 C 20.227 21.949,20.240 19.232,20.240 13.144 C 20.240 4.481,20.239 4.369,20.159 4.056 C 19.890 2.998,19.122 2.196,18.118 1.923 C 17.799 1.837,16.755 1.720,15.360 1.616 C 14.554 1.556,10.684 1.506,9.900 1.545 M15.368 7.610 C 15.684 7.787,15.833 8.270,15.668 8.581 C 15.634 8.646,14.213 10.090,12.513 11.789 C 10.345 13.953,9.376 14.896,9.271 14.939 C 8.921 15.083,8.511 14.927,8.331 14.581 C 8.246 14.418,8.249 14.092,8.337 13.920 C 8.426 13.744,14.356 7.793,14.598 7.636 C 14.828 7.486,15.130 7.476,15.368 7.610 M10.265 8.012 C 10.487 8.125,10.636 8.279,10.770 8.535 C 10.835 8.660,10.856 8.772,10.857 9.000 C 10.857 9.258,10.841 9.330,10.740 9.514 C 10.509 9.935,10.126 10.147,9.663 10.110 C 8.724 10.035,8.298 8.906,8.952 8.227 C 9.208 7.962,9.426 7.876,9.800 7.895 C 9.981 7.904,10.122 7.940,10.265 8.012 M14.752 12.504 C 15.132 12.693,15.360 13.067,15.360 13.500 C 15.360 14.495,14.167 14.993,13.465 14.292 C 13.032 13.858,13.025 13.159,13.450 12.722 C 13.770 12.393,14.338 12.297,14.752 12.504 " fill="#0F172A" stroke="none" fill-rule="evenodd"></path></svg>