<svg width="24" height="24" viewBox="0 0 24 24" fill="none" xmlns="http://www.w3.org/2000/svg"><path d="M9.900 1.545 C 8.145 1.634,6.313 1.806,5.882 1.923 C 4.876 2.196,4.111 2.996,3.841 4.056 C 3.761 4.369,3.760 4.481,3.760 13.144 C 3.760 19.232,3.773 21.949,3.802 22.027 C 3.919 22.336,4.314 22.549,4.637 22.476 C 4.727 22.456,5.570 22.132,6.509 21.757 C 7.479 21.368,8.251 21.081,8.298 21.091 C 8.343 21.101,9.154 21.419,10.100 21.799 C 11.437 22.335,11.860 22.489,12.000 22.489 C 12.140 22.489,12.563 22.335,13.900 21.799 C 14.846 21.419,15.657 21.101,15.702 21.091 C 15.749 21.081,16.521 21.368,17.491 21.757 C 18.430 22.132,19.273 22.456,19.363 22.476 C 19.686 22.549,20.081 22.336,20.198 22.027 C 20.227 21.949,20.240 19.232,20.240 13.144 C 20.240 4.481,20.239 4.369,20.159 4.056 C 19.890 2.998,19.122 2.196,18.118 1.923 C 17.799 1.837,16.755 1.720,15.360 1.616 C 14.554 1.556,10.684 1.506,9.900 1.545 M10.790 6.822 C 10.988 6.904,11.077 6.990,11.165 7.180 C 11.255 7.376,11.260 7.595,11.178 7.791 C 11.142 7.880,10.905 8.153,10.592 8.467 L 10.067 8.994 11.883 9.009 L 13.700 9.024 14.052 9.133 C 15.200 9.486,16.004 10.288,16.366 11.442 C 16.448 11.701,16.460 11.822,16.460 12.360 C 16.460 13.059,16.413 13.299,16.178 13.796 C 15.737 14.730,14.962 15.372,13.940 15.652 C 13.654 15.730,13.522 15.740,12.700 15.740 C 11.654 15.740,11.608 15.728,11.384 15.409 C 11.286 15.271,11.267 15.203,11.267 15.007 C 11.267 14.721,11.372 14.526,11.612 14.367 C 11.773 14.261,11.782 14.260,12.677 14.237 C 13.657 14.212,13.759 14.192,14.124 13.957 C 14.521 13.703,14.816 13.289,14.940 12.812 C 15.159 11.972,14.734 11.086,13.920 10.687 L 13.620 10.540 11.861 10.528 L 10.102 10.516 10.612 11.035 C 10.892 11.320,11.148 11.618,11.181 11.696 C 11.250 11.862,11.257 12.109,11.197 12.267 C 11.104 12.516,10.759 12.758,10.500 12.758 C 10.218 12.758,10.048 12.622,8.888 11.468 C 8.265 10.848,7.702 10.260,7.638 10.163 C 7.493 9.945,7.476 9.641,7.597 9.408 C 7.705 9.202,10.023 6.899,10.200 6.823 C 10.382 6.745,10.606 6.745,10.790 6.822 " fill="#0F172A" stroke="none" fill-rule="evenodd"></path></svg>