<svg width="24" height="24" viewBox="0 0 24 24" fill="none" xmlns="http://www.w3.org/2000/svg"><path d="M3.040 5.286 C 2.487 5.377,1.912 5.822,1.677 6.339 C 1.491 6.751,1.473 7.019,1.489 9.221 C 1.503 11.133,1.507 11.230,1.587 11.443 C 1.634 11.566,1.700 11.723,1.735 11.791 C 1.849 12.011,2.229 12.383,2.472 12.513 C 2.938 12.761,2.903 12.759,6.368 12.759 C 8.514 12.760,9.584 12.746,9.728 12.716 C 10.314 12.594,10.808 12.202,11.071 11.652 L 11.220 11.340 11.220 9.000 L 11.220 6.660 11.071 6.348 C 10.793 5.765,10.268 5.370,9.656 5.281 C 9.308 5.231,3.346 5.235,3.040 5.286 M14.884 6.823 C 14.170 7.015,13.634 7.627,13.520 8.380 C 13.491 8.569,13.481 10.054,13.489 12.940 C 13.501 17.198,13.501 17.221,13.586 17.443 C 13.719 17.792,13.783 17.897,14.018 18.151 C 14.270 18.423,14.595 18.612,14.964 18.698 C 15.345 18.788,20.655 18.788,21.036 18.698 C 21.405 18.612,21.730 18.423,21.982 18.151 C 22.217 17.897,22.281 17.792,22.414 17.443 C 22.499 17.221,22.499 17.196,22.512 12.980 C 22.520 10.152,22.510 8.633,22.482 8.420 C 22.377 7.628,21.847 7.016,21.099 6.821 C 20.758 6.732,15.215 6.734,14.884 6.823 M4.640 14.267 C 4.404 14.294,4.023 14.443,3.796 14.598 C 3.535 14.776,3.242 15.151,3.114 15.467 C 3.023 15.694,3.021 15.739,3.008 17.130 C 2.994 18.662,3.008 18.802,3.204 19.220 C 3.394 19.625,3.865 20.021,4.324 20.164 C 4.553 20.236,4.734 20.240,7.500 20.240 C 10.266 20.240,10.447 20.236,10.676 20.164 C 11.315 19.966,11.823 19.400,11.961 18.735 C 11.989 18.599,12.000 18.028,11.992 17.112 C 11.979 15.740,11.976 15.693,11.886 15.467 C 11.685 14.967,11.272 14.566,10.740 14.355 L 10.500 14.260 7.640 14.255 C 6.067 14.253,4.717 14.258,4.640 14.267 " fill="#0F172A" stroke="none" fill-rule="evenodd"></path></svg>