<svg width="24" height="24" viewBox="0 0 24 24" fill="none" xmlns="http://www.w3.org/2000/svg"><path d="M7.700 3.059 C 7.078 3.178,6.618 3.422,6.156 3.879 C 5.852 4.180,5.560 4.574,5.607 4.620 C 5.616 4.629,5.766 4.611,5.941 4.580 C 6.415 4.495,17.585 4.495,18.059 4.580 C 18.234 4.611,18.384 4.629,18.393 4.620 C 18.440 4.574,18.148 4.180,17.842 3.876 C 17.556 3.591,17.430 3.499,17.118 3.346 C 16.407 2.997,16.788 3.023,12.120 3.014 C 8.812 3.008,7.924 3.017,7.700 3.059 M6.245 6.045 C 5.457 6.176,4.678 6.687,4.245 7.356 C 4.154 7.498,4.085 7.619,4.092 7.626 C 4.099 7.633,4.257 7.607,4.443 7.569 C 4.755 7.505,5.312 7.500,12.000 7.500 C 18.688 7.500,19.245 7.505,19.557 7.569 C 19.743 7.607,19.901 7.633,19.908 7.626 C 19.944 7.589,19.556 7.067,19.330 6.849 C 18.891 6.425,18.322 6.140,17.720 6.043 C 17.396 5.990,6.561 5.993,6.245 6.045 M4.680 9.059 C 3.531 9.292,2.626 10.159,2.329 11.311 C 2.266 11.556,2.260 11.888,2.260 15.000 C 2.260 18.112,2.266 18.444,2.329 18.689 C 2.551 19.552,3.123 20.272,3.892 20.656 C 4.598 21.010,3.853 20.980,12.000 20.980 C 20.147 20.980,19.402 21.010,20.108 20.656 C 20.877 20.272,21.449 19.552,21.671 18.689 C 21.734 18.444,21.740 18.112,21.740 15.000 C 21.740 11.888,21.734 11.556,21.671 11.311 C 21.449 10.448,20.877 9.727,20.108 9.344 C 19.398 8.989,20.173 9.021,12.100 9.014 C 6.325 9.008,4.890 9.017,4.680 9.059 " fill="#0F172A" stroke="none" fill-rule="evenodd"></path></svg>