<svg width="24" height="24" viewBox="0 0 24 24" fill="none" xmlns="http://www.w3.org/2000/svg"><path d="M20.320 1.566 C 16.984 1.878,13.861 3.223,11.360 5.423 C 10.802 5.914,10.004 6.734,9.608 7.224 L 9.316 7.586 9.048 7.549 C 8.605 7.488,7.363 7.540,6.900 7.639 C 4.230 8.209,2.192 10.247,1.638 12.900 C 1.532 13.408,1.474 14.177,1.525 14.404 C 1.577 14.634,1.732 14.831,1.935 14.923 C 2.090 14.993,2.236 14.998,4.241 14.999 L 6.381 15.000 6.701 15.390 C 7.111 15.891,8.109 16.889,8.610 17.299 L 9.000 17.619 9.001 19.759 C 9.002 21.764,9.007 21.910,9.077 22.065 C 9.118 22.155,9.212 22.276,9.286 22.332 C 9.489 22.486,9.703 22.519,10.243 22.478 C 12.333 22.320,14.186 21.237,15.364 19.486 C 16.202 18.240,16.598 16.716,16.475 15.204 L 16.431 14.669 16.566 14.564 C 16.962 14.257,17.563 13.705,18.060 13.195 C 20.471 10.717,21.956 7.597,22.397 4.080 C 22.458 3.591,22.523 2.304,22.493 2.150 C 22.443 1.888,22.253 1.648,22.027 1.563 C 21.895 1.513,20.871 1.515,20.320 1.566 M15.765 6.892 C 16.414 7.138,16.852 7.574,17.109 8.229 C 17.204 8.471,17.216 8.553,17.216 9.000 C 17.216 9.447,17.204 9.529,17.109 9.771 C 16.752 10.680,15.948 11.240,15.000 11.240 C 14.052 11.240,13.248 10.680,12.891 9.771 C 12.796 9.529,12.784 9.447,12.784 9.000 C 12.784 8.556,12.796 8.470,12.888 8.235 C 13.186 7.479,13.779 6.963,14.540 6.798 C 14.841 6.733,15.473 6.782,15.765 6.892 M4.590 15.937 C 4.370 16.016,4.263 16.095,3.871 16.473 C 2.925 17.385,2.396 18.497,2.281 19.814 C 2.237 20.310,2.276 20.999,2.361 21.223 C 2.421 21.381,2.592 21.558,2.751 21.626 C 2.973 21.721,3.660 21.766,4.186 21.719 C 5.532 21.602,6.650 21.056,7.597 20.056 C 7.993 19.638,8.096 19.454,8.090 19.174 C 8.084 18.851,7.932 18.628,7.631 18.502 C 7.269 18.351,7.039 18.448,6.577 18.949 C 6.382 19.160,6.114 19.413,5.981 19.511 C 5.448 19.904,4.709 20.183,4.084 20.229 L 3.747 20.253 3.771 19.916 C 3.817 19.291,4.096 18.552,4.489 18.019 C 4.587 17.886,4.840 17.618,5.051 17.423 C 5.449 17.055,5.561 16.881,5.559 16.629 C 5.557 16.328,5.305 16.004,5.009 15.922 C 4.821 15.870,4.774 15.871,4.590 15.937 " fill="#0F172A" stroke="none" fill-rule="evenodd"></path></svg>