<svg width="24" height="24" viewBox="0 0 24 24" fill="none" xmlns="http://www.w3.org/2000/svg"><path d="M4.201 3.821 C 4.015 3.905,3.927 3.990,3.833 4.174 C 3.763 4.310,3.756 4.395,3.767 4.917 C 3.779 5.479,3.785 5.514,3.887 5.668 C 4.076 5.953,4.235 6.000,5.007 6.000 C 6.799 6.000,8.341 6.274,9.847 6.862 C 11.027 7.321,12.294 8.057,13.300 8.866 C 15.467 10.608,17.114 13.281,17.696 16.004 C 17.908 16.991,18.000 17.901,18.000 18.993 C 18.000 19.765,18.047 19.924,18.332 20.113 C 18.484 20.214,18.526 20.221,19.037 20.233 C 19.630 20.248,19.808 20.215,19.995 20.058 C 20.234 19.857,20.253 19.728,20.228 18.491 C 20.200 17.115,20.105 16.347,19.819 15.180 C 19.575 14.185,19.191 13.114,18.756 12.220 C 16.700 7.990,12.773 4.954,8.180 4.043 C 7.237 3.856,6.604 3.794,5.420 3.775 C 4.497 3.760,4.320 3.767,4.201 3.821 M4.180 10.574 C 4.030 10.644,3.858 10.825,3.803 10.973 C 3.779 11.035,3.760 11.326,3.760 11.620 C 3.760 12.197,3.787 12.318,3.953 12.494 C 4.169 12.723,4.229 12.736,5.180 12.765 C 6.429 12.803,6.999 12.934,7.940 13.400 C 9.079 13.963,10.037 14.921,10.600 16.060 C 11.066 17.001,11.197 17.571,11.235 18.820 C 11.265 19.792,11.277 19.844,11.537 20.072 C 11.718 20.231,11.829 20.249,12.490 20.233 C 13.027 20.220,13.035 20.219,13.186 20.097 C 13.475 19.867,13.501 19.766,13.495 18.880 C 13.484 17.164,13.096 15.751,12.267 14.414 C 11.019 12.400,9.032 11.064,6.620 10.616 C 6.120 10.523,4.354 10.493,4.180 10.574 M4.962 17.282 C 4.521 17.372,4.091 17.707,3.889 18.118 C 3.792 18.315,3.780 18.385,3.780 18.741 C 3.780 19.112,3.790 19.161,3.910 19.406 C 4.064 19.719,4.315 19.965,4.633 20.114 C 4.831 20.207,4.910 20.220,5.260 20.220 C 5.614 20.220,5.685 20.208,5.882 20.111 C 6.334 19.889,6.642 19.466,6.731 18.943 C 6.808 18.492,6.609 17.952,6.248 17.635 C 5.922 17.349,5.374 17.198,4.962 17.282 " fill="#0F172A" stroke="none" fill-rule="evenodd"></path></svg>