<svg width="24" height="24" viewBox="0 0 24 24" fill="none" xmlns="http://www.w3.org/2000/svg"><path d="M11.811 2.278 C 11.739 2.295,11.618 2.358,11.541 2.417 C 11.308 2.594,11.265 2.720,11.247 3.263 L 11.232 3.746 10.086 3.795 C 7.663 3.897,5.409 4.143,3.227 4.543 C 2.073 4.754,1.933 4.791,1.775 4.929 C 1.454 5.212,1.412 5.615,1.669 5.954 C 1.868 6.217,1.975 6.238,3.130 6.239 C 3.696 6.240,4.160 6.246,4.160 6.254 C 4.160 6.262,3.602 8.551,2.920 11.342 C 2.238 14.132,1.680 16.485,1.680 16.569 C 1.680 16.768,1.804 17.008,1.972 17.136 C 2.287 17.377,3.245 17.730,4.000 17.884 C 4.663 18.019,5.813 18.021,6.478 17.887 C 7.077 17.766,7.606 17.595,8.100 17.363 C 8.548 17.152,8.729 16.984,8.803 16.711 C 8.851 16.531,8.869 16.605,6.585 7.270 L 6.333 6.240 8.786 6.240 L 11.240 6.240 11.240 12.880 C 11.240 16.532,11.233 19.520,11.224 19.520 C 10.852 19.520,9.533 19.727,8.904 19.885 C 7.766 20.170,7.334 20.354,7.177 20.622 C 6.967 20.979,7.107 21.486,7.465 21.663 C 7.615 21.738,7.755 21.740,12.000 21.740 C 16.228 21.740,16.385 21.737,16.534 21.664 C 16.884 21.490,17.030 20.975,16.828 20.630 C 16.699 20.410,16.486 20.293,15.880 20.106 C 15.013 19.839,14.074 19.643,13.360 19.580 C 13.217 19.567,13.023 19.547,12.930 19.536 L 12.760 19.515 12.760 12.878 L 12.760 6.240 15.213 6.240 L 17.667 6.240 16.995 8.990 C 15.018 17.078,15.147 16.524,15.197 16.711 C 15.271 16.984,15.452 17.152,15.900 17.363 C 17.276 18.010,18.878 18.166,20.380 17.799 C 20.849 17.684,21.707 17.349,21.948 17.187 C 22.176 17.034,22.318 16.801,22.319 16.578 C 22.320 16.489,21.762 14.132,21.080 11.342 C 20.398 8.551,19.840 6.262,19.840 6.254 C 19.840 6.246,20.303 6.240,20.870 6.239 C 22.025 6.238,22.132 6.217,22.331 5.954 C 22.588 5.615,22.546 5.212,22.225 4.929 C 22.067 4.791,21.927 4.754,20.773 4.543 C 18.591 4.143,16.337 3.897,13.914 3.795 L 12.768 3.746 12.754 3.263 C 12.742 2.865,12.726 2.755,12.658 2.641 C 12.494 2.361,12.122 2.202,11.811 2.278 M7.099 15.710 L 7.122 15.800 5.261 15.800 C 3.866 15.800,3.400 15.788,3.400 15.753 C 3.400 15.713,5.165 8.444,5.228 8.221 C 5.241 8.178,5.662 9.824,6.164 11.881 C 6.666 13.937,7.087 15.661,7.099 15.710 M19.681 11.944 C 20.186 14.010,20.599 15.723,20.600 15.750 C 20.600 15.789,20.201 15.800,18.736 15.800 C 17.262 15.800,16.875 15.790,16.889 15.750 C 16.898 15.723,17.318 14.005,17.823 11.934 C 18.327 9.863,18.745 8.172,18.751 8.178 C 18.757 8.184,19.175 9.879,19.681 11.944 " fill="#0F172A" stroke="none" fill-rule="evenodd"></path></svg>