<svg width="24" height="24" viewBox="0 0 24 24" fill="none" xmlns="http://www.w3.org/2000/svg"><path d="M4.680 3.044 C 4.285 3.104,3.676 3.327,3.319 3.543 C 2.678 3.931,2.182 4.484,1.865 5.165 C 1.468 6.019,1.394 6.868,1.640 7.753 C 2.204 9.778,4.354 10.957,6.340 10.331 C 6.950 10.139,7.394 9.877,7.859 9.436 L 8.143 9.166 8.762 9.523 C 9.335 9.854,9.396 9.880,9.600 9.880 C 10.098 9.880,10.454 9.420,10.322 8.949 C 10.250 8.689,10.113 8.570,9.435 8.179 C 9.019 7.938,8.841 7.815,8.856 7.776 C 8.868 7.745,8.907 7.563,8.944 7.370 C 9.026 6.932,9.000 6.278,8.882 5.820 C 8.545 4.516,7.478 3.453,6.173 3.119 C 5.803 3.024,5.057 2.987,4.680 3.044 M5.818 4.581 C 6.579 4.779,7.221 5.421,7.419 6.182 C 7.495 6.473,7.497 7.032,7.424 7.308 C 7.322 7.690,7.116 8.042,6.820 8.339 C 5.478 9.689,3.193 8.839,3.015 6.923 C 2.919 5.896,3.646 4.852,4.644 4.583 C 4.932 4.506,5.525 4.505,5.818 4.581 M19.777 6.446 C 19.556 6.461,19.223 6.510,19.037 6.554 C 18.721 6.629,14.151 8.014,13.320 8.287 C 11.293 8.951,9.909 10.708,9.778 12.782 C 9.745 13.300,9.660 13.608,9.486 13.836 C 9.298 14.082,9.236 14.129,8.627 14.487 L 8.104 14.795 7.842 14.547 C 7.296 14.033,6.619 13.689,5.903 13.562 C 5.553 13.500,4.841 13.511,4.488 13.583 C 3.139 13.860,2.018 14.905,1.638 16.240 C 1.529 16.623,1.489 17.436,1.558 17.864 C 1.775 19.210,2.733 20.340,4.035 20.786 C 4.966 21.105,5.947 21.054,6.831 20.640 C 7.863 20.156,8.614 19.242,8.887 18.135 C 9.003 17.663,9.012 16.882,8.905 16.425 C 8.845 16.163,8.841 16.104,8.886 16.075 C 8.916 16.056,12.034 14.254,15.816 12.070 C 23.354 7.717,22.870 8.022,22.910 7.605 C 22.934 7.359,22.821 7.091,22.634 6.948 C 22.546 6.881,22.313 6.795,21.979 6.705 C 21.047 6.453,20.537 6.393,19.777 6.446 M12.219 11.285 C 12.431 11.343,12.660 11.578,12.719 11.796 C 12.919 12.539,12.017 13.067,11.475 12.525 C 11.085 12.134,11.228 11.483,11.746 11.298 C 11.936 11.231,12.016 11.228,12.219 11.285 M16.498 12.558 C 16.329 12.627,13.336 14.370,13.245 14.453 C 13.192 14.501,13.116 14.612,13.076 14.700 C 12.881 15.121,13.116 15.592,13.592 15.734 C 13.695 15.765,14.912 16.137,16.295 16.560 C 17.678 16.982,18.974 17.362,19.174 17.403 C 19.697 17.510,20.230 17.537,20.737 17.482 C 21.211 17.431,22.349 17.156,22.536 17.047 C 22.819 16.883,22.966 16.555,22.904 16.226 C 22.848 15.929,22.718 15.842,19.860 14.195 C 18.364 13.333,17.082 12.603,17.011 12.574 C 16.869 12.514,16.625 12.507,16.498 12.558 M5.758 15.062 C 6.585 15.257,7.247 15.924,7.443 16.760 C 7.564 17.278,7.453 17.961,7.176 18.411 C 6.768 19.070,6.023 19.491,5.260 19.492 C 4.623 19.494,4.123 19.284,3.660 18.820 C 2.429 17.588,3.016 15.508,4.720 15.063 C 5.010 14.987,5.438 14.987,5.758 15.062 " fill="#0F172A" stroke="none" fill-rule="evenodd"></path></svg>