<svg width="24" height="24" viewBox="0 0 24 24" fill="none" xmlns="http://www.w3.org/2000/svg"><path d="M7.380 3.028 C 6.908 3.095,6.364 3.321,5.973 3.612 C 5.810 3.733,5.403 4.171,4.771 4.908 L 3.815 6.020 12.000 6.020 L 20.185 6.020 19.238 4.917 C 18.232 3.747,17.999 3.530,17.500 3.298 C 16.867 3.003,17.262 3.024,12.120 3.017 C 9.579 3.014,7.446 3.019,7.380 3.028 M3.760 7.602 C 2.433 7.943,1.520 9.124,1.520 10.500 C 1.520 11.884,2.438 13.064,3.776 13.401 C 4.087 13.478,4.244 13.480,12.000 13.480 C 19.756 13.480,19.913 13.478,20.224 13.401 C 22.085 12.933,23.027 10.862,22.160 9.140 C 21.778 8.380,21.061 7.810,20.224 7.599 C 19.913 7.521,19.760 7.520,11.984 7.522 C 4.292 7.524,4.051 7.527,3.760 7.602 M16.051 9.815 C 16.446 9.984,16.614 10.546,16.379 10.907 C 16.095 11.342,15.415 11.343,15.127 10.908 C 14.975 10.677,14.974 10.323,15.127 10.093 C 15.317 9.806,15.735 9.680,16.051 9.815 M19.051 9.815 C 19.446 9.984,19.614 10.546,19.379 10.907 C 19.095 11.342,18.415 11.343,18.127 10.908 C 17.975 10.677,17.974 10.323,18.127 10.093 C 18.317 9.806,18.735 9.680,19.051 9.815 M4.033 15.041 C 2.796 15.252,1.830 16.167,1.574 17.370 C 1.496 17.735,1.521 18.518,1.620 18.838 C 1.931 19.839,2.702 20.598,3.702 20.888 L 4.020 20.980 12.000 20.980 L 19.980 20.980 20.298 20.888 C 21.148 20.642,21.795 20.097,22.185 19.300 C 22.397 18.865,22.479 18.505,22.479 18.000 C 22.479 17.495,22.397 17.135,22.185 16.700 C 21.801 15.913,21.168 15.375,20.319 15.113 L 20.020 15.020 12.120 15.015 C 7.775 15.011,4.136 15.023,4.033 15.041 M16.108 17.348 C 16.463 17.532,16.595 18.017,16.386 18.373 C 16.267 18.577,16.153 18.661,15.905 18.727 C 15.351 18.875,14.837 18.268,15.062 17.729 C 15.242 17.298,15.693 17.134,16.108 17.348 M19.108 17.348 C 19.463 17.532,19.595 18.017,19.386 18.373 C 19.267 18.577,19.153 18.661,18.905 18.727 C 18.351 18.875,17.837 18.268,18.062 17.729 C 18.242 17.298,18.693 17.134,19.108 17.348 " fill="#0F172A" stroke="none" fill-rule="evenodd"></path></svg>