<svg width="24" height="24" viewBox="0 0 24 24" fill="none" xmlns="http://www.w3.org/2000/svg"><path d="M6.419 3.058 C 5.427 3.239,4.522 3.995,4.185 4.924 C 4.085 5.200,1.959 13.120,1.985 13.120 C 1.992 13.120,2.141 13.022,2.318 12.901 C 2.889 12.513,3.552 12.238,4.273 12.091 C 4.598 12.025,5.098 12.020,12.000 12.020 C 18.902 12.020,19.402 12.025,19.727 12.091 C 20.448 12.238,21.111 12.513,21.682 12.901 C 21.859 13.022,22.008 13.120,22.015 13.120 C 22.045 13.120,19.874 5.064,19.785 4.845 C 19.415 3.935,18.541 3.231,17.562 3.057 C 17.132 2.980,6.842 2.981,6.419 3.058 M4.480 13.582 C 3.018 13.897,1.882 15.037,1.583 16.488 C 1.504 16.873,1.501 17.578,1.577 17.966 C 1.883 19.529,3.166 20.745,4.733 20.958 C 5.168 21.016,18.832 21.016,19.267 20.958 C 20.868 20.741,22.185 19.458,22.442 17.864 C 22.511 17.436,22.471 16.622,22.363 16.247 C 21.995 14.974,21.059 14.036,19.753 13.631 L 19.460 13.540 12.100 13.533 C 5.917 13.527,4.698 13.535,4.480 13.582 M16.084 16.584 C 16.228 16.656,16.434 16.899,16.463 17.031 C 16.476 17.091,16.493 17.160,16.500 17.184 C 16.507 17.208,16.495 17.313,16.473 17.416 C 16.392 17.796,16.018 18.042,15.614 17.981 C 15.456 17.958,15.386 17.918,15.234 17.766 C 15.082 17.614,15.042 17.544,15.019 17.386 C 14.927 16.771,15.539 16.310,16.084 16.584 M19.084 16.584 C 19.228 16.656,19.434 16.899,19.463 17.031 C 19.476 17.091,19.493 17.160,19.500 17.184 C 19.507 17.208,19.495 17.313,19.473 17.416 C 19.392 17.796,19.018 18.042,18.614 17.981 C 18.456 17.958,18.386 17.918,18.234 17.766 C 18.082 17.614,18.042 17.544,18.019 17.386 C 17.927 16.771,18.539 16.310,19.084 16.584 " fill="#0F172A" stroke="none" fill-rule="evenodd"></path></svg>