<svg width="24" height="24" viewBox="0 0 24 24" fill="none" xmlns="http://www.w3.org/2000/svg"><path d="M18.095 1.577 C 17.077 1.809,16.240 2.571,15.895 3.580 C 15.799 3.861,15.786 3.963,15.783 4.420 C 15.781 4.706,15.793 5.012,15.809 5.101 L 15.838 5.261 11.641 7.593 L 7.445 9.924 7.172 9.702 C 6.857 9.446,6.372 9.195,6.000 9.095 C 5.643 8.999,4.873 8.997,4.520 9.090 C 4.377 9.128,4.089 9.244,3.880 9.348 C 3.563 9.506,3.440 9.597,3.138 9.898 C 2.832 10.204,2.747 10.319,2.590 10.640 C 2.330 11.171,2.265 11.445,2.265 12.000 C 2.265 12.555,2.330 12.829,2.590 13.360 C 2.747 13.681,2.832 13.796,3.138 14.102 C 3.538 14.501,3.895 14.716,4.440 14.886 C 4.827 15.007,5.593 15.017,6.000 14.906 C 6.380 14.803,6.869 14.549,7.174 14.298 L 7.440 14.078 11.639 16.409 L 15.837 18.740 15.808 18.900 C 15.793 18.988,15.781 19.294,15.783 19.580 C 15.786 20.037,15.799 20.139,15.895 20.420 C 16.326 21.680,17.442 22.485,18.760 22.485 C 19.845 22.485,20.823 21.913,21.375 20.956 C 21.659 20.462,21.805 19.713,21.726 19.149 C 21.555 17.927,20.803 17.030,19.616 16.632 C 19.375 16.552,19.265 16.540,18.740 16.542 C 18.201 16.544,18.108 16.555,17.819 16.651 C 17.447 16.775,17.081 16.986,16.782 17.249 L 16.571 17.435 12.376 15.103 L 8.180 12.771 8.200 12.616 C 8.211 12.530,8.220 12.253,8.220 12.000 C 8.220 11.747,8.211 11.471,8.200 11.387 L 8.180 11.233 12.377 8.900 L 16.574 6.568 16.784 6.752 C 17.687 7.548,19.007 7.720,20.078 7.181 C 20.794 6.821,21.331 6.212,21.581 5.478 C 21.732 5.034,21.783 4.561,21.726 4.149 C 21.556 2.936,20.809 2.038,19.639 1.639 C 19.306 1.526,18.468 1.492,18.095 1.577 " fill="#0F172A" stroke="none" fill-rule="evenodd"></path></svg>