<svg width="24" height="24" viewBox="0 0 24 24" fill="none" xmlns="http://www.w3.org/2000/svg"><path d="M11.753 2.016 C 11.673 2.045,11.421 2.230,11.193 2.428 C 10.717 2.843,10.162 3.259,9.694 3.552 C 8.020 4.598,5.881 5.235,4.020 5.241 C 3.110 5.243,2.995 5.339,2.727 6.308 C 2.451 7.306,2.346 7.938,2.273 9.030 C 2.166 10.623,2.407 12.330,2.964 13.945 C 4.042 17.065,6.325 19.659,9.312 21.158 C 10.188 21.597,11.649 22.120,12.000 22.120 C 12.077 22.120,12.381 22.047,12.677 21.958 C 17.368 20.542,20.851 16.539,21.600 11.700 C 21.880 9.890,21.773 8.116,21.275 6.315 C 21.091 5.650,21.029 5.527,20.800 5.375 C 20.642 5.271,20.609 5.266,19.888 5.235 C 19.035 5.200,18.655 5.157,17.991 5.020 C 16.064 4.625,14.338 3.763,12.807 2.428 C 12.405 2.078,12.206 1.964,12.000 1.964 C 11.945 1.964,11.834 1.987,11.753 2.016 M12.405 8.381 C 12.485 8.432,12.593 8.543,12.645 8.627 L 12.740 8.780 12.740 10.860 L 12.740 12.940 12.634 13.120 C 12.345 13.612,11.655 13.612,11.366 13.120 L 11.260 12.940 11.260 10.860 L 11.260 8.780 11.353 8.631 C 11.586 8.256,12.044 8.147,12.405 8.381 M12.271 15.062 C 12.468 15.144,12.595 15.266,12.684 15.460 C 12.816 15.744,12.755 16.054,12.524 16.285 C 12.178 16.631,11.619 16.559,11.356 16.134 C 11.248 15.958,11.234 15.602,11.330 15.420 C 11.512 15.072,11.921 14.916,12.271 15.062 " fill="#0F172A" stroke="none" fill-rule="evenodd"></path></svg>