<svg width="24" height="24" viewBox="0 0 24 24" fill="none" xmlns="http://www.w3.org/2000/svg"><path d="M2.094 2.278 C 1.587 2.399,1.354 2.951,1.625 3.388 C 1.825 3.709,1.921 3.737,2.924 3.760 C 3.818 3.781,3.869 3.791,3.961 3.961 C 3.980 3.998,4.565 6.160,5.259 8.764 C 5.954 11.369,6.531 13.529,6.542 13.565 C 6.557 13.614,6.521 13.641,6.391 13.673 C 6.176 13.728,5.615 13.999,5.368 14.167 C 4.891 14.492,4.420 15.040,4.145 15.588 C 3.894 16.089,3.789 16.512,3.784 17.043 C 3.780 17.481,3.786 17.513,3.887 17.668 C 3.952 17.766,4.064 17.864,4.170 17.915 L 4.345 18.000 12.343 18.000 C 17.605 18.000,20.390 17.986,20.485 17.959 C 20.704 17.898,20.947 17.616,20.982 17.380 C 21.033 17.041,20.888 16.747,20.598 16.599 C 20.446 16.521,20.329 16.520,12.922 16.520 C 7.795 16.520,5.400 16.507,5.400 16.479 C 5.400 16.456,5.456 16.326,5.525 16.189 C 5.695 15.852,6.136 15.421,6.489 15.248 C 7.014 14.991,6.723 15.002,13.080 15.000 C 18.613 14.998,18.867 14.995,19.020 14.924 C 19.108 14.884,19.220 14.807,19.268 14.755 C 19.525 14.475,21.083 10.892,21.779 8.980 C 22.104 8.088,22.400 7.206,22.400 7.131 C 22.399 6.957,22.300 6.730,22.165 6.595 C 21.993 6.424,21.925 6.401,20.753 6.126 C 16.247 5.066,11.609 4.521,7.092 4.520 L 5.683 4.520 5.638 4.350 C 5.511 3.867,5.398 3.485,5.344 3.355 C 5.272 3.183,5.049 2.884,4.869 2.719 C 4.675 2.539,4.214 2.327,3.920 2.281 C 3.624 2.235,2.284 2.233,2.094 2.278 M4.772 18.832 C 4.370 18.976,4.053 19.268,3.871 19.663 C 3.795 19.827,3.780 19.927,3.781 20.260 C 3.783 20.629,3.792 20.679,3.909 20.904 C 4.070 21.216,4.406 21.526,4.710 21.643 C 4.879 21.708,5.026 21.732,5.265 21.732 C 5.544 21.732,5.628 21.715,5.850 21.610 C 6.211 21.442,6.413 21.245,6.586 20.895 C 6.718 20.628,6.732 20.570,6.732 20.270 C 6.731 19.839,6.626 19.559,6.351 19.257 C 6.055 18.934,5.756 18.793,5.320 18.773 C 5.059 18.761,4.932 18.775,4.772 18.832 M17.571 18.816 C 17.170 18.947,16.858 19.215,16.652 19.609 C 16.551 19.801,16.541 19.858,16.540 20.240 C 16.540 20.623,16.550 20.681,16.657 20.898 C 16.952 21.499,17.604 21.835,18.247 21.719 C 18.740 21.629,19.126 21.340,19.343 20.898 C 19.450 20.681,19.460 20.623,19.460 20.240 C 19.460 19.838,19.454 19.809,19.324 19.570 C 19.053 19.069,18.616 18.794,18.060 18.773 C 17.864 18.765,17.675 18.782,17.571 18.816 " fill="#0F172A" stroke="none" fill-rule="evenodd"></path></svg>