<svg width="24" height="24" viewBox="0 0 24 24" fill="none" xmlns="http://www.w3.org/2000/svg"><path d="M11.173 1.579 C 9.823 1.824,8.564 2.777,7.972 4.004 C 7.643 4.686,7.531 5.179,7.494 6.110 L 7.468 6.760 6.364 6.761 C 5.757 6.762,5.181 6.780,5.085 6.802 C 4.769 6.875,4.468 7.050,4.197 7.319 C 3.912 7.602,3.759 7.877,3.683 8.240 C 3.658 8.361,3.349 11.205,2.997 14.560 C 2.414 20.114,2.360 20.683,2.401 20.920 C 2.518 21.602,2.983 22.151,3.663 22.410 L 3.900 22.500 12.000 22.500 L 20.100 22.500 20.337 22.410 C 21.017 22.151,21.482 21.602,21.599 20.920 C 21.640 20.683,21.586 20.114,21.003 14.560 C 20.651 11.205,20.342 8.361,20.317 8.240 C 20.176 7.563,19.585 6.957,18.915 6.802 C 18.819 6.780,18.243 6.762,17.636 6.761 L 16.532 6.760 16.508 6.130 C 16.482 5.443,16.413 5.010,16.260 4.559 C 15.737 3.023,14.384 1.855,12.805 1.579 C 12.398 1.508,11.567 1.508,11.173 1.579 M12.756 3.097 C 13.093 3.189,13.595 3.447,13.873 3.671 C 14.219 3.949,14.501 4.312,14.704 4.740 C 14.919 5.194,15.000 5.613,15.000 6.264 L 15.000 6.760 11.995 6.760 L 8.990 6.760 9.011 6.110 C 9.025 5.710,9.057 5.375,9.095 5.240 C 9.190 4.904,9.493 4.325,9.703 4.080 C 10.157 3.550,10.828 3.162,11.503 3.040 C 11.770 2.991,12.491 3.024,12.756 3.097 M8.590 9.845 C 8.695 9.896,8.808 9.994,8.873 10.092 C 8.977 10.249,8.981 10.276,9.003 10.997 C 9.029 11.824,9.078 12.076,9.304 12.548 C 9.664 13.303,10.323 13.863,11.161 14.126 C 11.413 14.205,11.545 14.220,12.000 14.220 C 12.455 14.220,12.587 14.205,12.839 14.126 C 13.677 13.863,14.336 13.303,14.696 12.548 C 14.922 12.076,14.971 11.824,14.997 10.997 C 15.019 10.276,15.023 10.249,15.127 10.092 C 15.408 9.667,16.034 9.655,16.348 10.067 L 16.460 10.214 16.457 11.117 C 16.453 12.120,16.423 12.300,16.143 12.986 C 15.412 14.780,13.481 15.934,11.561 15.725 C 10.141 15.571,8.899 14.790,8.156 13.582 C 7.941 13.233,7.759 12.794,7.631 12.321 C 7.567 12.084,7.546 11.853,7.530 11.231 C 7.508 10.335,7.522 10.211,7.666 10.040 C 7.897 9.765,8.265 9.688,8.590 9.845 " fill="#0F172A" stroke="none" fill-rule="evenodd"></path></svg>