<svg width="24" height="24" viewBox="0 0 24 24" fill="none" xmlns="http://www.w3.org/2000/svg"><path d="M4.779 4.440 C 4.511 4.573,3.767 5.430,3.246 6.205 C 2.379 7.496,1.801 9.055,1.579 10.702 C 1.492 11.344,1.492 12.656,1.579 13.298 C 1.883 15.553,2.777 17.463,4.317 19.151 C 4.744 19.619,5.025 19.731,5.390 19.578 C 5.673 19.460,5.840 19.210,5.840 18.904 C 5.840 18.638,5.786 18.536,5.446 18.161 C 4.763 17.409,4.355 16.819,3.939 15.980 C 3.513 15.122,3.243 14.261,3.094 13.280 C 2.997 12.647,2.997 11.353,3.094 10.720 C 3.378 8.857,4.105 7.337,5.413 5.872 C 5.823 5.414,5.868 5.316,5.830 4.978 C 5.777 4.507,5.220 4.222,4.779 4.440 M18.575 4.437 C 18.358 4.535,18.196 4.753,18.170 4.978 C 18.133 5.310,18.181 5.421,18.534 5.814 C 19.253 6.613,19.643 7.177,20.061 8.020 C 21.472 10.863,21.271 14.238,19.531 16.920 C 19.270 17.322,18.984 17.685,18.534 18.186 C 18.181 18.579,18.133 18.690,18.170 19.022 C 18.223 19.493,18.774 19.776,19.218 19.561 C 19.476 19.436,20.225 18.582,20.711 17.858 C 22.862 14.654,23.085 10.536,21.294 7.120 C 20.863 6.300,20.364 5.596,19.683 4.849 C 19.246 4.370,18.958 4.263,18.575 4.437 M6.929 6.540 C 6.857 6.571,6.707 6.692,6.595 6.808 C 5.134 8.324,4.364 10.450,4.522 12.530 C 4.657 14.296,5.387 15.938,6.595 17.192 C 6.913 17.522,7.203 17.599,7.545 17.443 C 7.789 17.333,7.932 17.123,7.952 16.845 C 7.974 16.541,7.912 16.413,7.542 16.000 C 6.815 15.188,6.347 14.257,6.116 13.160 C 5.987 12.552,5.987 11.441,6.115 10.840 C 6.352 9.726,6.797 8.847,7.577 7.950 C 7.940 7.533,7.987 7.425,7.950 7.098 C 7.899 6.646,7.361 6.352,6.929 6.540 M16.455 6.557 C 16.136 6.701,15.970 7.057,16.058 7.406 C 16.093 7.541,16.189 7.684,16.436 7.968 C 17.369 9.040,17.839 10.120,17.967 11.488 C 18.091 12.818,17.739 14.199,16.989 15.320 C 16.774 15.641,16.710 15.722,16.343 16.137 C 16.071 16.444,15.988 16.670,16.048 16.937 C 16.148 17.381,16.642 17.637,17.062 17.462 C 17.138 17.430,17.293 17.308,17.405 17.192 C 18.613 15.938,19.343 14.296,19.478 12.530 C 19.636 10.450,18.866 8.324,17.405 6.808 C 17.087 6.478,16.797 6.401,16.455 6.557 M9.040 8.670 C 8.751 8.812,8.258 9.423,7.985 9.980 C 7.640 10.684,7.511 11.234,7.511 12.000 C 7.511 12.754,7.639 13.305,7.972 13.996 C 8.240 14.550,8.790 15.230,9.064 15.344 C 9.478 15.517,9.973 15.258,10.072 14.817 C 10.132 14.549,10.052 14.342,9.736 13.951 C 9.191 13.277,8.958 12.582,9.015 11.800 C 9.066 11.099,9.315 10.522,9.812 9.950 C 10.046 9.681,10.129 9.437,10.072 9.183 C 9.970 8.730,9.448 8.471,9.040 8.670 M14.335 8.677 C 14.136 8.767,13.977 8.965,13.928 9.183 C 13.871 9.437,13.954 9.681,14.188 9.950 C 14.446 10.247,14.639 10.554,14.771 10.880 C 14.945 11.307,14.976 11.476,14.978 12.000 C 14.980 12.841,14.778 13.339,14.114 14.134 C 13.777 14.538,13.885 15.119,14.335 15.323 C 14.785 15.528,15.090 15.367,15.636 14.639 C 16.777 13.118,16.777 10.891,15.637 9.361 C 15.101 8.641,14.782 8.474,14.335 8.677 M11.611 10.946 C 11.349 11.039,11.059 11.323,10.962 11.583 C 10.621 12.495,11.463 13.366,12.383 13.053 C 12.647 12.963,12.963 12.647,13.053 12.383 C 13.203 11.943,13.089 11.484,12.758 11.185 C 12.435 10.896,12.006 10.806,11.611 10.946 " fill="#0F172A" stroke="none" fill-rule="evenodd"></path></svg>