<svg width="24" height="24" viewBox="0 0 24 24" fill="none" xmlns="http://www.w3.org/2000/svg"><path d="M2.811 2.278 C 2.638 2.320,2.416 2.494,2.332 2.652 C 2.244 2.817,2.243 3.181,2.329 3.340 C 2.365 3.406,6.495 7.558,11.507 12.567 C 19.840 20.895,20.635 21.678,20.795 21.720 C 21.367 21.869,21.870 21.365,21.719 20.795 C 21.679 20.644,21.554 20.501,20.812 19.754 C 20.198 19.137,19.960 18.872,19.983 18.834 C 20.001 18.804,20.091 18.688,20.181 18.577 C 22.257 16.022,22.992 12.577,22.154 9.340 C 21.800 7.973,21.090 6.552,20.227 5.480 C 19.790 4.938,19.385 4.520,19.218 4.439 C 18.774 4.224,18.223 4.507,18.170 4.978 C 18.132 5.316,18.177 5.414,18.587 5.872 C 19.051 6.392,19.358 6.795,19.651 7.270 C 21.493 10.246,21.431 14.070,19.495 16.967 C 19.333 17.210,19.125 17.498,19.034 17.607 L 18.867 17.806 18.335 17.275 L 17.803 16.744 17.936 16.582 C 18.157 16.313,18.499 15.764,18.710 15.340 C 19.312 14.131,19.578 12.790,19.478 11.470 C 19.344 9.715,18.613 8.061,17.425 6.828 C 17.303 6.701,17.139 6.571,17.062 6.538 C 16.642 6.363,16.148 6.618,16.048 7.063 C 15.983 7.352,16.066 7.544,16.434 7.965 C 17.787 9.509,18.282 11.427,17.832 13.380 C 17.676 14.058,17.383 14.731,16.970 15.354 L 16.749 15.689 16.210 15.149 L 15.670 14.610 15.858 14.301 C 16.570 13.129,16.691 11.622,16.178 10.338 C 15.897 9.636,15.311 8.839,14.949 8.667 C 14.542 8.474,14.029 8.733,13.928 9.183 C 13.872 9.435,13.954 9.680,14.186 9.950 C 14.450 10.257,14.529 10.374,14.694 10.702 C 15.094 11.500,15.092 12.482,14.688 13.312 L 14.585 13.524 13.852 12.792 C 13.205 12.146,13.120 12.046,13.120 11.932 C 13.120 11.861,13.083 11.704,13.038 11.583 C 12.897 11.208,12.442 10.880,12.063 10.880 C 11.953 10.880,11.490 10.430,7.720 6.658 C 5.399 4.336,3.446 2.403,3.380 2.362 C 3.234 2.272,2.985 2.235,2.811 2.278 M3.066 6.856 C 2.825 6.946,2.723 7.068,2.499 7.540 C 1.601 9.429,1.293 11.656,1.643 13.720 C 1.742 14.301,1.956 15.117,2.142 15.626 C 2.361 16.223,2.878 17.245,3.222 17.760 C 3.765 18.573,4.502 19.425,4.776 19.558 C 5.226 19.776,5.777 19.496,5.830 19.022 C 5.868 18.685,5.823 18.589,5.412 18.130 C 4.111 16.676,3.379 15.145,3.094 13.280 C 2.997 12.646,2.997 11.354,3.094 10.720 C 3.234 9.803,3.468 9.017,3.847 8.192 C 3.995 7.870,4.055 7.688,4.057 7.560 C 4.065 7.060,3.534 6.683,3.066 6.856 M5.407 9.129 C 5.128 9.189,4.960 9.390,4.830 9.821 C 4.635 10.466,4.569 10.834,4.523 11.540 C 4.392 13.506,5.067 15.464,6.397 16.974 C 6.754 17.380,6.905 17.486,7.155 17.511 C 7.575 17.551,7.922 17.261,7.952 16.845 C 7.974 16.541,7.912 16.413,7.542 16.000 C 6.168 14.466,5.696 12.456,6.226 10.400 C 6.380 9.804,6.379 9.678,6.217 9.431 C 6.055 9.182,5.728 9.060,5.407 9.129 M7.919 11.884 C 7.754 11.980,7.613 12.171,7.556 12.377 C 7.494 12.601,7.650 13.278,7.896 13.849 C 8.102 14.326,8.637 15.055,8.945 15.276 C 9.233 15.483,9.711 15.404,9.932 15.114 C 10.177 14.793,10.134 14.421,9.812 14.050 C 9.409 13.586,9.177 13.130,9.061 12.568 C 8.971 12.133,8.889 12.005,8.612 11.865 C 8.431 11.773,8.094 11.782,7.919 11.884 " fill="#0F172A" stroke="none" fill-rule="evenodd"></path></svg>