<svg width="24" height="24" viewBox="0 0 24 24" fill="none" xmlns="http://www.w3.org/2000/svg"><path d="M17.620 1.612 C 17.396 1.739,17.310 1.922,17.120 2.680 C 16.937 3.412,16.775 3.790,16.506 4.114 C 16.065 4.647,15.644 4.879,14.680 5.120 C 14.317 5.211,13.949 5.325,13.861 5.373 C 13.404 5.624,13.404 6.376,13.861 6.627 C 13.949 6.675,14.317 6.789,14.680 6.880 C 15.412 7.063,15.790 7.225,16.114 7.494 C 16.647 7.935,16.879 8.356,17.120 9.320 C 17.211 9.683,17.325 10.051,17.373 10.139 C 17.624 10.596,18.376 10.596,18.627 10.139 C 18.675 10.051,18.789 9.683,18.880 9.320 C 19.127 8.332,19.390 7.866,19.931 7.456 C 20.285 7.188,20.581 7.066,21.326 6.879 C 21.686 6.788,22.051 6.675,22.139 6.627 C 22.596 6.376,22.596 5.624,22.139 5.373 C 22.051 5.325,21.683 5.211,21.320 5.120 C 20.588 4.937,20.210 4.775,19.886 4.506 C 19.353 4.065,19.121 3.644,18.880 2.680 C 18.789 2.317,18.675 1.949,18.627 1.861 C 18.448 1.535,17.967 1.416,17.620 1.612 M8.633 4.601 C 8.552 4.644,8.448 4.732,8.402 4.797 C 8.353 4.867,8.126 5.583,7.855 6.528 C 7.601 7.415,7.334 8.268,7.261 8.425 C 7.011 8.968,6.649 9.425,6.166 9.808 C 5.667 10.205,5.312 10.347,3.580 10.841 C 2.722 11.086,1.948 11.325,1.861 11.373 C 1.431 11.609,1.395 12.311,1.797 12.598 C 1.867 12.647,2.581 12.873,3.528 13.145 C 4.415 13.399,5.268 13.666,5.425 13.739 C 6.222 14.107,6.893 14.778,7.261 15.575 C 7.334 15.732,7.601 16.585,7.855 17.472 C 8.127 18.419,8.353 19.133,8.402 19.203 C 8.667 19.575,9.333 19.575,9.598 19.203 C 9.647 19.133,9.873 18.419,10.145 17.472 C 10.399 16.585,10.666 15.732,10.739 15.575 C 11.107 14.778,11.778 14.107,12.575 13.739 C 12.732 13.666,13.585 13.399,14.472 13.145 C 15.419 12.873,16.133 12.647,16.203 12.598 C 16.605 12.311,16.569 11.609,16.139 11.373 C 16.052 11.325,15.278 11.086,14.420 10.841 C 12.688 10.347,12.333 10.205,11.834 9.808 C 11.351 9.425,10.989 8.968,10.739 8.425 C 10.666 8.268,10.399 7.415,10.145 6.528 C 9.873 5.581,9.647 4.867,9.598 4.797 C 9.409 4.532,8.943 4.437,8.633 4.601 M16.277 15.036 C 16.108 15.091,15.967 15.199,15.878 15.343 C 15.832 15.417,15.689 15.794,15.560 16.180 C 15.300 16.958,15.239 17.077,14.984 17.312 C 14.748 17.530,14.649 17.576,13.851 17.843 C 13.471 17.970,13.108 18.111,13.044 18.157 C 12.784 18.342,12.687 18.781,12.840 19.079 C 12.965 19.324,13.131 19.419,13.898 19.678 C 14.682 19.944,14.885 20.044,15.075 20.260 C 15.254 20.464,15.363 20.701,15.580 21.360 C 15.815 22.074,15.880 22.205,16.067 22.348 C 16.196 22.447,16.248 22.460,16.500 22.460 C 16.752 22.460,16.804 22.447,16.933 22.348 C 17.120 22.205,17.185 22.074,17.420 21.360 C 17.637 20.701,17.746 20.464,17.925 20.260 C 18.115 20.044,18.318 19.944,19.102 19.678 C 19.869 19.419,20.035 19.324,20.160 19.079 C 20.313 18.781,20.216 18.342,19.956 18.157 C 19.892 18.111,19.529 17.970,19.149 17.843 C 18.351 17.576,18.252 17.530,18.016 17.312 C 17.761 17.077,17.700 16.958,17.440 16.180 C 17.179 15.401,17.099 15.243,16.901 15.120 C 16.750 15.027,16.435 14.985,16.277 15.036 " fill="#0F172A" stroke="none" fill-rule="evenodd"></path></svg>