<svg width="24" height="24" viewBox="0 0 24 24" fill="none" xmlns="http://www.w3.org/2000/svg"><path d="M11.595 2.615 C 11.494 2.643,11.323 2.722,11.215 2.791 C 11.108 2.860,9.985 3.953,8.720 5.219 L 6.420 7.520 5.257 7.520 C 4.229 7.520,4.057 7.529,3.785 7.599 C 2.991 7.802,2.361 8.290,2.015 8.970 C 1.800 9.394,1.589 10.430,1.520 11.397 C 1.451 12.375,1.563 13.519,1.820 14.476 C 2.085 15.459,2.699 16.082,3.701 16.383 C 4.049 16.488,4.098 16.492,5.260 16.509 L 6.460 16.527 8.800 18.861 C 11.480 21.535,11.339 21.421,11.980 21.418 C 12.465 21.416,12.737 21.310,13.041 21.003 C 13.293 20.751,13.413 20.522,13.477 20.180 C 13.538 19.850,13.538 4.151,13.477 3.817 C 13.453 3.687,13.388 3.490,13.334 3.380 C 13.027 2.763,12.275 2.432,11.595 2.615 M18.860 4.940 C 18.424 5.094,18.229 5.677,18.493 6.036 C 18.541 6.101,18.730 6.324,18.914 6.531 C 20.340 8.142,21.066 10.157,20.987 12.280 C 20.910 14.329,20.166 16.117,18.745 17.669 C 18.533 17.900,18.430 18.048,18.399 18.165 C 18.216 18.844,18.985 19.372,19.556 18.958 C 19.875 18.727,20.675 17.732,21.071 17.074 C 21.748 15.947,22.157 14.825,22.383 13.480 C 22.470 12.957,22.503 11.614,22.442 11.017 C 22.260 9.223,21.609 7.571,20.506 6.106 C 20.019 5.458,19.548 4.981,19.340 4.924 C 19.135 4.868,19.056 4.871,18.860 4.940 M16.160 7.605 C 15.815 7.743,15.625 8.219,15.775 8.571 C 15.805 8.642,15.942 8.826,16.079 8.980 C 16.853 9.847,17.240 10.855,17.240 12.000 C 17.240 13.145,16.853 14.153,16.079 15.020 C 15.942 15.174,15.805 15.358,15.775 15.429 C 15.622 15.788,15.817 16.263,16.173 16.397 C 16.328 16.456,16.617 16.451,16.772 16.386 C 16.948 16.312,17.430 15.787,17.722 15.351 C 19.081 13.319,19.081 10.681,17.722 8.649 C 17.453 8.247,16.968 7.707,16.796 7.618 C 16.669 7.552,16.310 7.545,16.160 7.605 " fill="#0F172A" stroke="none" fill-rule="evenodd"></path></svg>