<svg width="24" height="24" viewBox="0 0 24 24" fill="none" xmlns="http://www.w3.org/2000/svg"><path d="M11.595 2.615 C 11.494 2.643,11.323 2.722,11.215 2.791 C 11.108 2.860,9.985 3.953,8.720 5.219 L 6.420 7.520 5.257 7.520 C 4.229 7.520,4.057 7.529,3.785 7.599 C 2.991 7.802,2.361 8.290,2.015 8.970 C 1.800 9.394,1.589 10.430,1.520 11.397 C 1.451 12.375,1.563 13.519,1.820 14.476 C 2.085 15.459,2.699 16.082,3.701 16.383 C 4.049 16.488,4.098 16.492,5.260 16.509 L 6.460 16.527 8.800 18.861 C 11.480 21.535,11.339 21.421,11.980 21.418 C 12.465 21.416,12.737 21.310,13.041 21.003 C 13.293 20.751,13.413 20.522,13.477 20.180 C 13.538 19.850,13.538 4.151,13.477 3.817 C 13.453 3.687,13.388 3.490,13.334 3.380 C 13.027 2.763,12.275 2.432,11.595 2.615 M16.961 9.063 C 16.778 9.143,16.688 9.228,16.596 9.408 C 16.502 9.593,16.497 9.918,16.585 10.092 C 16.621 10.162,17.048 10.620,17.533 11.110 L 18.416 12.000 17.533 12.890 C 17.048 13.380,16.621 13.838,16.585 13.908 C 16.452 14.169,16.533 14.614,16.747 14.808 C 16.858 14.909,17.098 15.000,17.249 14.999 C 17.532 14.997,17.711 14.862,18.619 13.959 L 19.502 13.082 20.321 13.903 C 21.167 14.751,21.396 14.941,21.626 14.984 C 22.200 15.091,22.653 14.491,22.419 13.931 C 22.381 13.840,22.028 13.453,21.471 12.893 L 20.584 12.000 21.471 11.107 C 22.028 10.547,22.381 10.160,22.419 10.069 C 22.653 9.509,22.200 8.909,21.626 9.016 C 21.396 9.059,21.167 9.249,20.321 10.097 L 19.502 10.918 18.619 10.041 C 17.703 9.131,17.531 9.001,17.240 9.002 C 17.163 9.003,17.038 9.030,16.961 9.063 " fill="#0F172A" stroke="none" fill-rule="evenodd"></path></svg>