<svg width="24" height="24" viewBox="0 0 24 24" fill="none" xmlns="http://www.w3.org/2000/svg"><path d="M5.503 3.042 C 4.457 3.220,3.526 4.001,3.181 4.990 C 2.997 5.516,2.996 5.555,3.008 9.920 L 3.020 14.060 3.115 14.340 C 3.512 15.518,4.485 16.352,5.591 16.462 C 5.717 16.475,5.861 16.493,5.910 16.503 L 6.000 16.522 6.000 13.371 C 6.000 9.911,6.009 9.764,6.238 9.078 C 6.466 8.400,6.817 7.832,7.325 7.325 C 7.832 6.817,8.400 6.466,9.078 6.238 C 9.764 6.009,9.911 6.000,13.371 6.000 L 16.522 6.000 16.503 5.910 C 16.493 5.861,16.475 5.717,16.462 5.591 C 16.351 4.475,15.481 3.471,14.314 3.112 L 14.020 3.022 9.860 3.015 C 7.572 3.011,5.611 3.023,5.503 3.042 M9.760 7.601 C 8.699 7.876,7.863 8.719,7.598 9.783 C 7.520 10.098,7.518 10.214,7.529 14.363 C 7.540 18.373,7.545 18.633,7.614 18.838 C 7.960 19.862,8.686 20.581,9.681 20.886 L 9.980 20.978 14.096 20.990 C 18.759 21.004,18.609 21.012,19.260 20.704 C 19.919 20.391,20.357 19.958,20.680 19.300 C 21.016 18.615,21.004 18.813,20.990 14.096 L 20.978 9.980 20.886 9.681 C 20.581 8.686,19.862 7.960,18.838 7.614 C 18.632 7.545,18.377 7.540,14.340 7.532 C 10.217 7.524,10.049 7.526,9.760 7.601 " fill="#0F172A" stroke="none" fill-rule="evenodd"></path></svg>