<svg width="24" height="24" viewBox="0 0 24 24" fill="none" xmlns="http://www.w3.org/2000/svg"><path d="M5.503 3.041 C 4.451 3.225,3.526 4.001,3.181 4.990 C 3.009 5.481,2.994 5.689,3.010 7.282 C 3.028 8.937,3.034 8.983,3.304 9.548 C 3.659 10.293,4.304 10.846,5.140 11.124 C 5.411 11.214,5.472 11.217,6.997 11.231 C 8.802 11.247,8.928 11.233,9.540 10.941 C 10.182 10.635,10.635 10.182,10.941 9.540 C 11.233 8.928,11.247 8.802,11.231 6.997 C 11.217 5.472,11.214 5.411,11.124 5.140 C 10.846 4.304,10.293 3.659,9.548 3.304 C 8.981 3.033,8.944 3.028,7.240 3.017 C 6.393 3.011,5.611 3.022,5.503 3.041 M15.250 3.043 C 14.144 3.235,13.237 4.035,12.875 5.140 C 12.787 5.409,12.782 5.481,12.769 6.975 C 12.753 8.780,12.772 8.948,13.059 9.540 C 13.375 10.190,13.810 10.625,14.460 10.941 C 15.052 11.228,15.220 11.247,17.025 11.231 C 18.519 11.218,18.591 11.213,18.860 11.125 C 19.861 10.797,20.614 10.021,20.903 9.020 C 21.008 8.658,21.036 5.967,20.940 5.453 C 20.769 4.533,20.145 3.720,19.296 3.312 C 18.704 3.027,18.711 3.028,17.000 3.017 C 16.153 3.011,15.365 3.023,15.250 3.043 M5.380 12.820 C 4.267 13.069,3.404 13.891,3.093 15.000 C 3.028 15.232,3.020 15.434,3.020 16.860 C 3.020 18.651,3.023 18.673,3.298 19.260 C 3.710 20.138,4.515 20.766,5.453 20.940 C 5.967 21.036,8.658 21.008,9.020 20.903 C 10.021 20.614,10.797 19.861,11.125 18.860 C 11.213 18.591,11.218 18.519,11.231 17.025 C 11.247 15.220,11.228 15.052,10.941 14.460 C 10.625 13.810,10.190 13.375,9.540 13.059 C 8.965 12.781,8.791 12.760,7.092 12.763 C 6.018 12.766,5.555 12.781,5.380 12.820 M16.580 12.815 C 16.426 12.887,16.299 13.009,16.210 13.171 C 16.148 13.286,16.139 13.453,16.128 14.708 L 16.116 16.116 14.708 16.128 C 13.322 16.140,13.297 16.141,13.139 16.232 C 12.881 16.380,12.780 16.564,12.780 16.883 C 12.780 17.125,12.793 17.168,12.904 17.306 C 13.162 17.625,13.126 17.618,14.710 17.633 L 16.120 17.645 16.120 18.973 C 16.120 19.762,16.137 20.360,16.162 20.449 C 16.217 20.648,16.381 20.835,16.578 20.925 C 17.010 21.121,17.487 20.874,17.597 20.399 C 17.620 20.296,17.638 19.671,17.639 18.930 L 17.640 17.640 18.930 17.639 C 19.671 17.638,20.296 17.620,20.399 17.597 C 20.874 17.487,21.121 17.010,20.925 16.578 C 20.835 16.381,20.648 16.217,20.449 16.162 C 20.360 16.137,19.762 16.120,18.973 16.120 L 17.645 16.120 17.633 14.710 C 17.618 13.128,17.624 13.161,17.309 12.907 C 17.188 12.809,17.114 12.782,16.929 12.772 C 16.790 12.764,16.653 12.781,16.580 12.815 " fill="#0F172A" stroke="none" fill-rule="evenodd"></path></svg>