<svg width="24" height="24" viewBox="0 0 24 24" fill="none" xmlns="http://www.w3.org/2000/svg"><path d="M6.802 4.201 C 4.063 5.675,1.772 6.930,1.710 6.989 C 1.647 7.049,1.571 7.188,1.538 7.300 C 1.486 7.479,1.486 7.527,1.539 7.703 C 1.574 7.824,1.649 7.951,1.729 8.026 C 1.875 8.164,11.540 13.378,11.821 13.471 C 11.979 13.522,12.021 13.522,12.179 13.471 C 12.460 13.378,22.125 8.164,22.272 8.025 C 22.353 7.948,22.426 7.824,22.462 7.699 C 22.514 7.521,22.514 7.473,22.461 7.297 C 22.429 7.187,22.351 7.048,22.289 6.989 C 22.228 6.930,19.937 5.675,17.198 4.201 C 12.334 1.582,12.215 1.520,12.000 1.520 C 11.785 1.520,11.666 1.582,6.802 4.201 M2.525 11.002 C 2.122 11.219,1.766 11.419,1.733 11.446 C 1.617 11.542,1.520 11.795,1.520 12.000 C 1.520 12.261,1.636 12.491,1.831 12.615 C 1.913 12.668,4.185 13.896,6.879 15.345 C 11.679 17.927,11.782 17.980,12.000 17.980 C 12.218 17.980,12.321 17.927,17.238 15.280 C 22.101 12.663,22.257 12.575,22.367 12.402 C 22.455 12.264,22.480 12.177,22.480 12.011 C 22.480 11.795,22.385 11.544,22.267 11.446 C 22.234 11.419,21.878 11.219,21.476 11.002 L 20.743 10.607 20.562 10.700 C 20.462 10.751,18.708 11.693,16.664 12.795 C 14.620 13.896,12.829 14.839,12.684 14.889 C 12.297 15.022,11.648 15.016,11.277 14.875 C 11.133 14.820,9.279 13.842,7.157 12.702 C 5.036 11.562,3.291 10.624,3.279 10.618 C 3.267 10.611,2.928 10.784,2.525 11.002 M2.521 15.503 C 2.137 15.711,1.779 15.922,1.726 15.971 C 1.449 16.226,1.450 16.774,1.727 17.030 C 1.781 17.079,4.065 18.326,6.802 19.800 C 11.666 22.418,11.785 22.480,12.000 22.480 C 12.215 22.480,12.334 22.418,17.198 19.800 C 19.935 18.326,22.219 17.079,22.273 17.030 C 22.561 16.764,22.550 16.207,22.251 15.955 C 22.052 15.788,20.759 15.112,20.689 15.139 C 20.655 15.152,18.916 16.083,16.827 17.209 C 14.737 18.334,12.927 19.295,12.804 19.344 C 12.320 19.538,11.680 19.538,11.197 19.344 C 11.074 19.295,9.246 18.324,7.134 17.187 C 5.022 16.050,3.277 15.121,3.257 15.122 C 3.237 15.123,2.906 15.294,2.521 15.503 " fill="#0F172A" stroke="none" fill-rule="evenodd"></path></svg>