<svg width="24" height="24" viewBox="0 0 24 24" fill="none" xmlns="http://www.w3.org/2000/svg"><path d="M5.503 3.041 C 4.451 3.225,3.526 4.001,3.181 4.990 C 3.009 5.481,2.994 5.689,3.010 7.282 C 3.028 8.937,3.034 8.983,3.304 9.548 C 3.659 10.293,4.304 10.846,5.140 11.124 C 5.411 11.214,5.472 11.217,6.997 11.231 C 8.802 11.247,8.928 11.233,9.540 10.941 C 10.182 10.635,10.635 10.182,10.941 9.540 C 11.233 8.928,11.247 8.802,11.231 6.997 C 11.217 5.472,11.214 5.411,11.124 5.140 C 10.846 4.304,10.293 3.659,9.548 3.304 C 8.981 3.033,8.944 3.028,7.240 3.017 C 6.393 3.011,5.611 3.022,5.503 3.041 M15.340 3.027 C 14.351 3.176,13.477 3.816,13.055 4.700 C 12.780 5.277,12.760 5.437,12.760 7.109 C 12.760 8.794,12.777 8.940,13.039 9.505 C 13.354 10.184,13.813 10.644,14.488 10.958 C 15.078 11.232,15.216 11.247,17.003 11.231 C 18.528 11.217,18.589 11.214,18.860 11.124 C 19.879 10.785,20.608 10.034,20.904 9.020 C 21.007 8.666,21.036 5.903,20.942 5.437 C 20.749 4.485,20.163 3.728,19.296 3.312 C 18.703 3.027,18.712 3.028,17.000 3.018 C 16.153 3.013,15.406 3.017,15.340 3.027 M5.380 12.820 C 4.276 13.067,3.417 13.879,3.096 14.980 C 2.993 15.334,2.964 18.097,3.058 18.563 C 3.306 19.787,4.213 20.694,5.437 20.942 C 5.903 21.036,8.666 21.007,9.020 20.904 C 10.031 20.609,10.790 19.872,11.125 18.860 C 11.214 18.590,11.218 18.524,11.231 17.003 C 11.247 15.198,11.233 15.072,10.941 14.460 C 10.636 13.820,10.192 13.376,9.540 13.059 C 8.965 12.781,8.791 12.760,7.092 12.763 C 6.018 12.766,5.555 12.781,5.380 12.820 M15.101 12.825 C 14.782 12.895,14.335 13.091,14.053 13.285 C 13.592 13.601,13.283 13.970,13.039 14.495 C 12.768 15.077,12.753 15.219,12.769 17.003 C 12.783 18.528,12.786 18.589,12.876 18.860 C 13.215 19.879,13.966 20.608,14.980 20.904 C 15.334 21.007,18.097 21.036,18.563 20.942 C 19.783 20.695,20.695 19.783,20.942 18.563 C 21.036 18.097,21.007 15.334,20.904 14.980 C 20.612 13.977,19.861 13.203,18.860 12.875 C 18.589 12.786,18.528 12.783,16.980 12.773 C 15.668 12.766,15.330 12.775,15.101 12.825 " fill="#0F172A" stroke="none" fill-rule="evenodd"></path></svg>