<svg width="24" height="24" viewBox="0 0 24 24" fill="none" xmlns="http://www.w3.org/2000/svg"><path d="M11.698 2.435 C 11.463 2.496,11.189 2.660,11.040 2.830 C 10.857 3.038,10.862 3.026,9.666 5.900 L 8.700 8.220 5.887 8.446 L 3.074 8.672 2.818 8.798 C 2.433 8.988,2.209 9.291,2.120 9.746 C 2.042 10.142,2.165 10.554,2.449 10.847 C 2.521 10.922,3.501 11.771,4.627 12.735 C 5.754 13.698,6.668 14.508,6.658 14.533 C 6.615 14.656,5.393 19.841,5.373 19.987 C 5.336 20.253,5.483 20.670,5.696 20.907 C 5.958 21.198,6.227 21.330,6.605 21.352 C 6.815 21.364,6.969 21.351,7.088 21.310 C 7.183 21.278,8.328 20.599,9.631 19.803 L 12.000 18.355 14.369 19.803 C 15.672 20.599,16.817 21.278,16.912 21.310 C 17.157 21.394,17.646 21.361,17.869 21.246 C 18.090 21.133,18.306 20.940,18.426 20.751 C 18.556 20.545,18.654 20.146,18.623 19.951 C 18.600 19.806,17.377 14.636,17.341 14.533 C 17.332 14.508,18.246 13.698,19.373 12.735 C 20.499 11.771,21.479 10.922,21.551 10.847 C 21.835 10.554,21.958 10.142,21.880 9.746 C 21.791 9.291,21.567 8.988,21.182 8.798 L 20.926 8.672 18.120 8.446 C 15.831 8.262,15.308 8.209,15.281 8.160 C 15.262 8.127,14.794 7.011,14.240 5.680 C 13.686 4.349,13.186 3.173,13.128 3.066 C 13.006 2.840,12.787 2.640,12.530 2.519 C 12.333 2.427,11.899 2.383,11.698 2.435 " fill="#0F172A" stroke="none" fill-rule="evenodd"></path></svg>