<svg width="24" height="24" viewBox="0 0 24 24" fill="none" xmlns="http://www.w3.org/2000/svg"><path d="M6.760 4.602 C 5.915 4.819,5.199 5.402,4.822 6.180 C 4.476 6.892,4.500 6.466,4.500 12.000 C 4.500 17.534,4.476 17.108,4.822 17.820 C 5.115 18.423,5.577 18.885,6.180 19.178 C 6.892 19.524,6.466 19.500,12.000 19.500 C 17.534 19.500,17.108 19.524,17.820 19.178 C 18.606 18.797,19.194 18.066,19.426 17.180 C 19.496 16.915,19.500 16.629,19.500 12.000 C 19.500 6.466,19.524 6.892,19.178 6.180 C 18.797 5.394,18.080 4.814,17.224 4.599 C 16.916 4.522,16.767 4.520,11.984 4.522 C 7.255 4.524,7.048 4.527,6.760 4.602 " fill="#0F172A" stroke="none" fill-rule="evenodd"></path></svg>