<svg width="24" height="24" viewBox="0 0 24 24" fill="none" xmlns="http://www.w3.org/2000/svg"><path d="M11.340 2.281 C 9.465 2.398,7.649 3.079,6.084 4.252 C 5.583 4.627,4.616 5.596,4.245 6.092 C 3.236 7.444,2.622 8.895,2.353 10.572 C 2.239 11.277,2.230 12.591,2.333 13.300 C 2.582 15.004,3.215 16.530,4.245 17.908 C 4.622 18.412,5.588 19.378,6.092 19.755 C 7.471 20.785,9.000 21.420,10.700 21.666 C 11.033 21.714,11.432 21.736,12.000 21.736 C 13.556 21.736,14.894 21.430,16.260 20.762 C 17.312 20.247,18.030 19.732,18.881 18.881 C 19.732 18.030,20.248 17.311,20.761 16.260 C 22.377 12.955,21.991 9.058,19.755 6.096 C 18.214 4.055,15.834 2.676,13.280 2.345 C 12.683 2.268,11.941 2.243,11.340 2.281 M14.966 8.366 C 15.254 8.501,15.499 8.746,15.634 9.034 L 15.740 9.260 15.740 12.000 L 15.740 14.740 15.649 14.937 C 15.502 15.257,15.306 15.462,15.010 15.608 L 14.742 15.740 12.000 15.740 L 9.258 15.740 8.990 15.608 C 8.694 15.462,8.498 15.257,8.351 14.937 L 8.260 14.740 8.260 12.000 L 8.260 9.260 8.366 9.034 C 8.547 8.649,8.902 8.360,9.294 8.281 C 9.385 8.262,10.648 8.250,12.100 8.254 L 14.740 8.260 14.966 8.366 " fill="#0F172A" stroke="none" fill-rule="evenodd"></path></svg>