<svg width="24" height="24" viewBox="0 0 24 24" fill="none" xmlns="http://www.w3.org/2000/svg"><path d="M11.811 2.278 C 11.639 2.320,11.417 2.493,11.330 2.652 C 11.268 2.765,11.258 2.931,11.247 4.040 C 11.239 4.872,11.249 5.350,11.278 5.448 C 11.368 5.752,11.691 5.998,12.000 5.998 C 12.309 5.998,12.632 5.752,12.722 5.448 C 12.751 5.350,12.761 4.872,12.753 4.040 C 12.741 2.855,12.735 2.772,12.658 2.641 C 12.494 2.361,12.122 2.202,11.811 2.278 M5.386 4.938 C 5.014 5.071,4.817 5.454,4.920 5.844 C 4.961 5.997,5.084 6.138,5.853 6.913 C 6.341 7.404,6.807 7.841,6.888 7.883 C 7.158 8.023,7.514 7.974,7.735 7.767 C 7.965 7.552,8.029 7.171,7.883 6.888 C 7.841 6.807,7.404 6.341,6.913 5.854 C 6.181 5.127,5.991 4.960,5.860 4.924 C 5.656 4.868,5.576 4.871,5.386 4.938 M18.102 4.940 C 17.986 4.981,17.718 5.222,17.070 5.868 C 16.588 6.348,16.160 6.807,16.117 6.888 C 15.971 7.170,16.035 7.552,16.265 7.767 C 16.486 7.974,16.842 8.023,17.112 7.883 C 17.193 7.841,17.659 7.404,18.147 6.913 C 18.916 6.138,19.039 5.997,19.080 5.844 C 19.187 5.440,18.959 5.030,18.569 4.922 C 18.376 4.868,18.294 4.871,18.102 4.940 M11.173 7.579 C 10.332 7.732,9.438 8.204,8.821 8.821 C 8.191 9.451,7.730 10.332,7.579 11.195 C 7.504 11.625,7.504 12.375,7.579 12.805 C 7.896 14.615,9.385 16.104,11.195 16.421 C 11.625 16.496,12.375 16.496,12.805 16.421 C 14.614 16.105,16.105 14.614,16.421 12.805 C 16.542 12.117,16.478 11.198,16.267 10.580 C 15.737 9.028,14.384 7.855,12.805 7.579 C 12.398 7.508,11.567 7.508,11.173 7.579 M2.815 11.277 C 2.485 11.359,2.267 11.648,2.267 12.003 C 2.267 12.281,2.387 12.496,2.627 12.645 C 2.780 12.740,2.781 12.740,4.080 12.740 C 4.795 12.740,5.428 12.727,5.487 12.710 C 5.745 12.638,5.997 12.292,5.999 12.009 C 6.000 11.847,5.905 11.612,5.788 11.487 C 5.579 11.263,5.561 11.261,4.200 11.253 C 3.507 11.249,2.884 11.260,2.815 11.277 M18.565 11.279 C 18.394 11.321,18.245 11.431,18.131 11.598 C 17.818 12.058,18.118 12.670,18.692 12.740 C 18.806 12.755,19.423 12.760,20.063 12.753 L 21.226 12.740 21.388 12.633 C 21.626 12.475,21.733 12.278,21.733 12.000 C 21.733 11.722,21.626 11.525,21.388 11.367 L 21.226 11.260 19.963 11.253 C 19.268 11.249,18.639 11.261,18.565 11.279 M6.880 16.119 C 6.803 16.160,6.341 16.596,5.853 17.087 C 5.088 17.858,4.961 18.004,4.921 18.155 C 4.769 18.726,5.276 19.232,5.845 19.079 C 5.996 19.038,6.145 18.908,6.913 18.146 C 7.405 17.659,7.841 17.193,7.883 17.112 C 8.023 16.842,7.974 16.486,7.767 16.265 C 7.553 16.036,7.156 15.970,6.880 16.119 M16.460 16.097 C 16.311 16.163,16.139 16.344,16.083 16.493 C 16.017 16.667,16.032 16.948,16.117 17.112 C 16.159 17.193,16.596 17.659,17.087 18.147 C 17.858 18.912,18.004 19.039,18.155 19.079 C 18.725 19.230,19.230 18.725,19.079 18.155 C 19.039 18.004,18.912 17.858,18.147 17.087 C 17.659 16.596,17.193 16.159,17.112 16.117 C 16.939 16.027,16.636 16.018,16.460 16.097 M11.698 18.075 C 11.517 18.158,11.335 18.353,11.290 18.513 C 11.273 18.572,11.260 19.205,11.260 19.920 C 11.260 21.219,11.260 21.220,11.355 21.373 C 11.505 21.614,11.719 21.733,12.000 21.733 C 12.281 21.733,12.495 21.614,12.645 21.373 C 12.740 21.220,12.740 21.219,12.740 19.920 C 12.740 19.205,12.727 18.572,12.710 18.513 C 12.637 18.251,12.290 18.002,12.000 18.002 C 11.923 18.002,11.787 18.035,11.698 18.075 " fill="#0F172A" stroke="none" fill-rule="evenodd"></path></svg>