<svg width="24" height="24" viewBox="0 0 24 24" fill="none" xmlns="http://www.w3.org/2000/svg"><path d="M3.800 2.285 C 3.179 2.385,2.610 2.864,2.356 3.500 L 2.260 3.740 2.249 10.611 C 2.238 18.096,2.232 17.869,2.462 18.600 C 3.151 20.782,5.424 22.126,7.637 21.661 C 8.529 21.473,9.280 21.070,9.908 20.443 C 10.480 19.870,10.895 19.156,11.112 18.371 L 11.220 17.980 11.220 10.820 L 11.220 3.660 11.071 3.348 C 10.793 2.765,10.268 2.370,9.656 2.281 C 9.313 2.232,4.110 2.235,3.800 2.285 M13.730 4.298 C 13.464 4.362,13.170 4.514,12.940 4.707 L 12.760 4.857 12.760 11.238 L 12.760 17.620 16.035 14.340 C 17.836 12.536,19.367 10.973,19.439 10.867 C 19.703 10.473,19.815 9.918,19.722 9.469 C 19.696 9.343,19.613 9.118,19.539 8.969 C 19.417 8.727,19.192 8.490,17.332 6.634 C 15.705 5.011,15.215 4.545,15.051 4.464 C 14.619 4.249,14.167 4.192,13.730 4.298 M15.250 17.249 C 12.781 19.718,10.760 21.743,10.760 21.749 C 10.760 21.783,19.936 21.754,20.160 21.719 C 20.944 21.597,21.592 20.948,21.718 20.160 C 21.772 19.819,21.773 14.720,21.719 14.344 C 21.592 13.470,20.797 12.762,19.940 12.761 L 19.740 12.760 15.250 17.249 M7.277 16.268 C 7.812 16.542,8.021 17.209,7.741 17.755 C 7.546 18.139,7.195 18.358,6.775 18.359 C 6.296 18.361,5.963 18.158,5.756 17.738 C 5.640 17.503,5.631 17.456,5.648 17.190 C 5.670 16.860,5.762 16.646,5.966 16.454 C 6.336 16.107,6.825 16.037,7.277 16.268 " fill="#0F172A" stroke="none" fill-rule="evenodd"></path></svg>