<svg width="24" height="24" viewBox="0 0 24 24" fill="none" xmlns="http://www.w3.org/2000/svg"><path d="M2.884 3.823 C 2.179 4.013,1.639 4.623,1.522 5.360 C 1.465 5.720,1.465 18.282,1.522 18.640 C 1.572 18.953,1.750 19.351,1.949 19.593 C 2.137 19.823,2.506 20.060,2.831 20.161 C 3.085 20.239,3.224 20.240,12.000 20.240 C 20.812 20.240,20.914 20.239,21.172 20.160 C 21.487 20.062,21.871 19.813,22.059 19.584 C 22.259 19.340,22.432 18.942,22.478 18.620 C 22.533 18.239,22.533 5.764,22.478 5.380 C 22.396 4.803,22.024 4.256,21.535 3.991 C 21.079 3.745,21.711 3.760,11.982 3.763 C 4.352 3.765,3.070 3.773,2.884 3.823 M11.123 9.117 L 11.240 9.234 11.240 10.114 L 11.240 10.994 11.136 11.117 L 11.033 11.240 7.133 11.240 L 3.234 11.240 3.117 11.123 L 3.000 11.006 3.000 10.132 C 3.000 9.194,3.015 9.120,3.214 9.040 C 3.261 9.021,5.034 9.004,7.153 9.003 L 11.006 9.000 11.123 9.117 M20.889 9.111 C 20.978 9.200,20.980 9.227,20.992 10.102 L 21.004 11.002 20.885 11.121 L 20.766 11.240 16.867 11.240 L 12.967 11.240 12.864 11.117 L 12.760 10.994 12.760 10.114 L 12.760 9.234 12.878 9.116 L 12.995 8.999 16.896 9.009 L 20.798 9.020 20.889 9.111 M11.123 12.877 L 11.240 12.994 11.240 13.880 L 11.240 14.766 11.123 14.883 L 11.006 15.000 7.125 15.000 L 3.244 15.000 3.132 14.904 L 3.020 14.807 3.008 13.903 L 2.996 12.998 3.115 12.879 L 3.234 12.760 7.120 12.760 L 11.006 12.760 11.123 12.877 M20.885 12.879 L 21.004 12.998 20.992 13.903 L 20.980 14.807 20.868 14.904 L 20.756 15.000 16.875 15.000 L 12.994 15.000 12.877 14.883 L 12.760 14.766 12.760 13.880 L 12.760 12.994 12.877 12.877 L 12.994 12.760 16.880 12.760 L 20.766 12.760 20.885 12.879 M11.142 16.618 L 11.240 16.716 11.240 17.616 C 11.240 18.509,11.239 18.516,11.143 18.628 L 11.047 18.740 7.193 18.751 C 4.345 18.759,3.311 18.749,3.228 18.715 C 3.021 18.629,3.000 18.526,3.000 17.605 L 3.000 16.766 3.104 16.643 L 3.207 16.520 7.125 16.520 L 11.044 16.520 11.142 16.618 M20.896 16.643 L 21.000 16.766 21.000 17.605 C 21.000 18.526,20.979 18.629,20.772 18.715 C 20.689 18.749,19.655 18.759,16.807 18.751 L 12.953 18.740 12.857 18.628 C 12.761 18.516,12.760 18.509,12.760 17.616 L 12.760 16.716 12.858 16.618 L 12.956 16.520 16.875 16.520 L 20.793 16.520 20.896 16.643 " fill="#0F172A" stroke="none" fill-rule="evenodd"></path></svg>