<svg width="24" height="24" viewBox="0 0 24 24" fill="none" xmlns="http://www.w3.org/2000/svg"><path d="M4.860 2.282 C 3.810 2.412,2.834 3.172,2.467 4.146 C 2.256 4.705,2.260 4.644,2.260 7.420 C 2.260 10.001,2.261 10.022,2.350 10.332 C 2.454 10.689,2.627 11.051,2.832 11.340 C 2.995 11.571,12.239 20.849,12.778 21.324 C 13.399 21.871,14.021 22.123,14.760 22.128 C 15.426 22.133,15.849 21.977,16.645 21.433 C 18.382 20.246,20.246 18.382,21.433 16.645 C 21.976 15.850,22.132 15.427,22.129 14.760 C 22.125 14.025,21.871 13.400,21.324 12.778 C 20.749 12.125,11.513 2.942,11.280 2.792 C 10.937 2.571,10.659 2.442,10.326 2.350 C 10.031 2.268,9.933 2.264,7.580 2.256 C 6.238 2.251,5.014 2.263,4.860 2.282 M6.880 5.381 C 7.272 5.581,7.478 5.924,7.479 6.382 C 7.483 7.567,5.915 7.922,5.370 6.860 C 5.246 6.618,5.227 6.190,5.329 5.954 C 5.407 5.776,5.642 5.510,5.821 5.399 C 6.106 5.223,6.555 5.216,6.880 5.381 " fill="#0F172A" stroke="none" fill-rule="evenodd"></path></svg>