<svg width="24" height="24" viewBox="0 0 24 24" fill="none" xmlns="http://www.w3.org/2000/svg"><path d="M2.860 4.576 C 2.220 4.780,1.743 5.260,1.575 5.869 C 1.507 6.114,1.500 6.304,1.500 7.860 C 1.500 9.899,1.471 9.767,1.998 10.136 C 2.660 10.600,2.979 11.206,2.979 12.000 C 2.979 12.794,2.662 13.393,1.990 13.871 C 1.470 14.240,1.500 14.101,1.500 16.160 C 1.500 17.731,1.507 17.923,1.573 18.140 C 1.767 18.776,2.250 19.255,2.869 19.425 C 3.130 19.497,3.471 19.500,12.000 19.500 C 20.529 19.500,20.870 19.497,21.131 19.425 C 21.750 19.255,22.233 18.776,22.427 18.140 C 22.493 17.923,22.500 17.731,22.500 16.160 C 22.500 14.098,22.529 14.233,22.002 13.864 C 21.626 13.601,21.400 13.332,21.212 12.929 C 20.939 12.341,20.939 11.659,21.212 11.071 C 21.400 10.668,21.626 10.399,22.002 10.136 C 22.529 9.767,22.500 9.899,22.500 7.860 C 22.500 6.304,22.493 6.114,22.425 5.869 C 22.279 5.339,21.938 4.945,21.400 4.685 L 21.100 4.540 12.060 4.532 C 4.828 4.526,2.988 4.535,2.860 4.576 M16.840 5.342 C 16.977 5.412,17.146 5.597,17.197 5.733 C 17.221 5.795,17.240 6.088,17.240 6.384 C 17.240 6.840,17.228 6.947,17.162 7.077 C 17.031 7.333,16.780 7.490,16.500 7.490 C 16.220 7.490,15.969 7.333,15.838 7.077 C 15.772 6.947,15.760 6.840,15.760 6.380 C 15.760 6.015,15.778 5.795,15.814 5.708 C 15.881 5.548,16.124 5.329,16.271 5.297 C 16.331 5.284,16.398 5.267,16.420 5.260 C 16.485 5.238,16.732 5.287,16.840 5.342 M16.913 9.130 C 17.180 9.307,17.240 9.491,17.239 10.123 C 17.238 10.835,17.157 11.025,16.790 11.178 C 16.383 11.349,15.920 11.137,15.797 10.725 C 15.772 10.641,15.759 10.352,15.767 10.037 C 15.779 9.527,15.786 9.484,15.887 9.333 C 16.109 8.997,16.573 8.906,16.913 9.130 M12.388 11.367 C 12.628 11.526,12.733 11.721,12.733 12.007 C 12.733 12.203,12.714 12.271,12.616 12.409 C 12.552 12.501,12.436 12.613,12.359 12.658 C 12.223 12.738,12.158 12.740,9.460 12.752 C 7.566 12.760,6.653 12.751,6.552 12.721 C 6.249 12.633,6.002 12.309,6.002 12.000 C 6.002 11.707,6.259 11.352,6.513 11.296 C 6.572 11.284,6.638 11.267,6.660 11.259 C 6.682 11.251,7.943 11.248,9.463 11.252 L 12.226 11.260 12.388 11.367 M16.790 12.822 C 17.157 12.975,17.238 13.165,17.239 13.877 C 17.240 14.344,17.229 14.438,17.155 14.590 C 17.029 14.850,16.811 14.980,16.500 14.980 C 16.189 14.980,15.971 14.850,15.845 14.590 C 15.772 14.439,15.760 14.343,15.760 13.886 C 15.760 13.184,15.836 12.993,16.180 12.835 C 16.376 12.745,16.595 12.740,16.790 12.822 M10.120 14.366 C 10.486 14.581,10.595 15.043,10.365 15.405 C 10.152 15.741,10.170 15.738,8.320 15.752 C 7.239 15.760,6.651 15.750,6.552 15.721 C 6.248 15.632,6.002 15.309,6.002 15.000 C 6.002 14.707,6.259 14.352,6.513 14.296 C 6.572 14.284,6.638 14.267,6.660 14.259 C 6.682 14.251,7.429 14.248,8.320 14.252 L 9.940 14.260 10.120 14.366 M16.787 16.563 C 16.939 16.620,17.072 16.749,17.164 16.928 C 17.228 17.053,17.240 17.165,17.240 17.616 C 17.240 17.912,17.221 18.205,17.197 18.267 C 17.104 18.516,16.759 18.758,16.500 18.758 C 16.241 18.758,15.896 18.516,15.803 18.267 C 15.779 18.205,15.760 17.912,15.760 17.616 C 15.760 17.165,15.772 17.053,15.836 16.928 C 15.925 16.755,16.059 16.621,16.200 16.565 C 16.334 16.511,16.649 16.510,16.787 16.563 " fill="#0F172A" stroke="none" fill-rule="evenodd"></path></svg>