<svg width="24" height="24" viewBox="0 0 24 24" fill="none" xmlns="http://www.w3.org/2000/svg"><path d="M9.981 1.563 C 9.390 1.653,8.808 1.948,8.380 2.376 C 7.865 2.891,7.594 3.485,7.513 4.276 L 7.469 4.711 7.185 4.737 C 6.188 4.831,3.901 5.148,3.559 5.240 C 3.355 5.295,3.166 5.458,3.075 5.658 C 2.828 6.201,3.294 6.789,3.899 6.698 L 4.073 6.672 4.097 6.886 C 4.111 7.004,4.337 9.926,4.601 13.380 C 4.865 16.834,5.099 19.783,5.121 19.934 C 5.300 21.131,6.143 22.068,7.350 22.411 L 7.660 22.500 12.000 22.500 L 16.340 22.500 16.650 22.411 C 17.857 22.068,18.700 21.131,18.879 19.934 C 18.901 19.783,19.135 16.834,19.399 13.380 C 19.663 9.926,19.889 7.004,19.903 6.886 L 19.927 6.672 20.101 6.698 C 20.564 6.767,20.998 6.410,20.998 5.960 C 20.998 5.646,20.748 5.323,20.441 5.240 C 20.099 5.148,17.812 4.831,16.815 4.737 L 16.531 4.711 16.487 4.276 C 16.375 3.176,15.815 2.317,14.918 1.869 C 14.260 1.540,14.313 1.546,12.140 1.536 C 11.084 1.531,10.113 1.543,9.981 1.563 M13.961 3.076 C 14.210 3.151,14.533 3.375,14.688 3.580 C 14.864 3.813,14.953 4.048,14.987 4.371 L 15.012 4.602 14.616 4.571 C 14.104 4.531,9.900 4.531,9.390 4.571 L 9.000 4.602 9.000 4.451 C 9.002 4.087,9.222 3.603,9.490 3.378 C 9.752 3.157,9.996 3.068,10.420 3.036 C 10.997 2.994,13.790 3.025,13.961 3.076 M9.606 8.345 C 9.754 8.419,9.955 8.674,9.981 8.819 C 9.993 8.886,10.082 10.996,10.179 13.508 C 10.308 16.875,10.344 18.116,10.313 18.227 C 10.224 18.550,9.819 18.801,9.484 18.741 C 9.270 18.702,9.053 18.542,8.954 18.350 C 8.869 18.185,8.862 18.055,8.689 13.571 C 8.591 11.036,8.523 8.898,8.537 8.820 C 8.565 8.672,8.751 8.429,8.895 8.352 C 9.108 8.237,9.389 8.234,9.606 8.345 M15.084 8.343 C 15.243 8.424,15.433 8.662,15.462 8.817 C 15.476 8.894,15.408 11.032,15.310 13.568 C 15.139 18.013,15.129 18.186,15.047 18.347 C 14.765 18.898,13.967 18.868,13.715 18.297 C 13.643 18.136,13.645 18.032,13.821 13.496 C 13.922 10.893,14.019 8.804,14.042 8.733 C 14.094 8.577,14.358 8.331,14.509 8.298 C 14.570 8.284,14.638 8.267,14.660 8.260 C 14.725 8.238,14.972 8.287,15.084 8.343 " fill="#0F172A" stroke="none" fill-rule="evenodd"></path></svg>