<svg width="24" height="24" viewBox="0 0 24 24" fill="none" xmlns="http://www.w3.org/2000/svg"><path d="M2.860 4.576 C 2.219 4.781,1.743 5.260,1.575 5.869 C 1.504 6.125,1.500 6.349,1.500 9.820 L 1.500 13.500 7.500 13.500 L 13.500 13.500 13.500 9.820 C 13.500 6.349,13.496 6.125,13.425 5.869 C 13.279 5.339,12.938 4.945,12.400 4.685 L 12.100 4.540 7.560 4.532 C 3.966 4.526,2.987 4.535,2.860 4.576 M15.407 6.846 C 15.305 6.896,15.189 6.998,15.127 7.093 L 15.020 7.254 15.010 13.087 C 15.004 16.295,15.013 18.920,15.030 18.920 C 15.047 18.920,15.083 18.826,15.110 18.712 C 15.223 18.237,15.580 17.652,15.981 17.286 C 17.112 16.252,18.888 16.252,20.019 17.286 C 20.545 17.767,20.914 18.491,20.985 19.181 C 21.016 19.492,21.027 19.495,21.433 19.301 C 22.097 18.982,22.518 18.267,22.457 17.560 C 22.325 16.021,22.190 15.173,21.897 14.040 C 21.329 11.848,20.297 9.639,19.009 7.859 C 18.642 7.353,18.423 7.127,18.160 6.984 C 17.805 6.791,17.584 6.760,16.542 6.760 C 15.639 6.760,15.569 6.765,15.407 6.846 M1.528 16.550 L 1.540 18.100 1.689 18.411 C 1.886 18.826,2.175 19.114,2.589 19.311 C 2.876 19.447,2.933 19.460,3.324 19.474 L 3.748 19.488 3.773 19.182 C 3.845 18.340,4.371 17.481,5.112 16.996 C 5.990 16.420,7.145 16.349,8.065 16.813 C 8.997 17.282,9.579 18.099,9.725 19.144 L 9.772 19.480 11.347 19.480 C 12.596 19.480,12.949 19.469,13.051 19.425 C 13.207 19.358,13.380 19.181,13.437 19.027 C 13.465 18.953,13.480 18.243,13.480 16.957 L 13.480 15.000 7.498 15.000 L 1.516 15.000 1.528 16.550 M6.357 18.052 C 5.012 18.434,4.878 20.279,6.151 20.872 C 6.345 20.963,6.435 20.979,6.740 20.979 C 7.062 20.980,7.128 20.966,7.368 20.853 C 7.697 20.697,7.949 20.452,8.103 20.138 C 8.209 19.923,8.220 19.861,8.220 19.500 C 8.220 19.139,8.209 19.077,8.103 18.862 C 7.861 18.368,7.381 18.049,6.832 18.017 C 6.660 18.007,6.465 18.022,6.357 18.052 M17.600 18.061 C 17.151 18.185,16.768 18.540,16.600 18.989 C 16.467 19.343,16.495 19.811,16.671 20.169 C 17.210 21.262,18.790 21.262,19.329 20.169 C 19.503 19.814,19.533 19.343,19.402 18.994 C 19.243 18.570,18.917 18.239,18.520 18.099 C 18.255 18.006,17.859 17.989,17.600 18.061 " fill="#0F172A" stroke="none" fill-rule="evenodd"></path></svg>