<svg width="24" height="24" viewBox="0 0 24 24" fill="none" xmlns="http://www.w3.org/2000/svg"><path d="M2.940 3.058 C 2.364 3.206,1.960 3.536,1.689 4.080 L 1.540 4.380 1.540 10.500 L 1.540 16.620 1.688 16.920 C 1.954 17.461,2.423 17.831,3.000 17.958 C 3.110 17.983,4.451 17.998,6.471 17.999 L 9.762 18.000 9.751 18.750 L 9.740 19.500 7.740 19.520 C 5.766 19.540,5.738 19.541,5.598 19.628 C 5.211 19.869,5.152 20.476,5.487 20.788 C 5.727 21.012,5.349 21.000,12.000 21.000 C 18.651 21.000,18.273 21.012,18.513 20.788 C 18.848 20.476,18.789 19.869,18.402 19.628 C 18.262 19.541,18.234 19.540,16.260 19.520 L 14.260 19.500 14.249 18.750 L 14.238 18.000 17.529 17.999 C 19.549 17.998,20.890 17.983,21.000 17.958 C 21.577 17.831,22.046 17.461,22.312 16.920 L 22.460 16.620 22.460 10.500 L 22.460 4.380 22.312 4.080 C 22.046 3.539,21.577 3.169,21.000 3.042 C 20.884 3.016,17.675 3.003,11.980 3.004 C 4.918 3.006,3.100 3.017,2.940 3.058 M20.883 4.631 L 21.000 4.761 21.000 10.500 L 21.000 16.239 20.883 16.369 L 20.767 16.500 12.000 16.500 L 3.233 16.500 3.117 16.369 L 3.000 16.239 3.000 10.505 L 3.000 4.771 3.086 4.662 C 3.133 4.602,3.209 4.538,3.256 4.519 C 3.302 4.500,7.261 4.488,12.053 4.492 L 20.767 4.500 20.883 4.631 M4.480 10.500 L 4.480 15.000 12.000 15.000 L 19.520 15.000 19.520 10.500 L 19.520 6.000 12.000 6.000 L 4.480 6.000 4.480 10.500 " fill="#0F172A" stroke="none" fill-rule="evenodd"></path></svg>