<svg width="24" height="24" viewBox="0 0 24 24" fill="none" xmlns="http://www.w3.org/2000/svg"><path d="M11.173 1.579 C 10.328 1.733,9.438 2.203,8.815 2.827 C 7.069 4.573,7.072 7.430,8.821 9.179 C 10.381 10.739,12.890 10.935,14.645 9.634 C 16.439 8.304,17.001 5.969,16.011 3.964 C 15.414 2.756,14.148 1.814,12.805 1.579 C 12.398 1.508,11.567 1.508,11.173 1.579 M11.180 12.045 C 7.530 12.392,4.502 15.205,3.879 18.830 C 3.788 19.357,3.737 20.085,3.776 20.295 C 3.812 20.483,4.003 20.700,4.236 20.817 C 4.831 21.116,6.272 21.630,7.200 21.876 C 9.474 22.478,11.985 22.638,14.440 22.337 C 15.886 22.159,17.550 21.724,18.980 21.150 C 19.916 20.775,20.093 20.663,20.197 20.387 C 20.333 20.028,20.149 18.653,19.838 17.700 C 18.904 14.843,16.526 12.736,13.585 12.160 C 12.811 12.009,11.979 11.969,11.180 12.045 " fill="#0F172A" stroke="none" fill-rule="evenodd"></path></svg>