<svg width="24" height="24" viewBox="0 0 24 24" fill="none" xmlns="http://www.w3.org/2000/svg"><path d="M11.540 3.026 C 11.187 3.081,10.722 3.215,10.460 3.336 C 9.274 3.884,8.461 4.974,8.283 6.255 C 8.225 6.676,8.229 6.925,8.301 7.339 C 8.444 8.159,8.779 8.819,9.339 9.382 C 10.066 10.112,10.978 10.492,12.000 10.492 C 13.453 10.492,14.722 9.696,15.360 8.386 C 15.644 7.803,15.736 7.392,15.733 6.720 C 15.730 6.116,15.661 5.782,15.429 5.243 C 14.985 4.216,14.002 3.384,12.920 3.119 C 12.587 3.038,11.800 2.984,11.540 3.026 M4.710 6.801 C 4.236 6.881,3.738 7.115,3.349 7.439 C 1.988 8.577,1.890 10.616,3.137 11.863 C 4.372 13.098,6.422 13.011,7.539 11.677 C 8.299 10.768,8.455 9.519,7.941 8.460 C 7.625 7.810,7.190 7.375,6.540 7.059 C 5.987 6.791,5.325 6.698,4.710 6.801 M18.100 6.823 C 17.737 6.903,17.163 7.183,16.861 7.428 C 15.585 8.463,15.392 10.397,16.439 11.651 C 17.577 13.012,19.616 13.110,20.863 11.863 C 22.110 10.616,22.012 8.577,20.651 7.439 C 20.355 7.193,20.036 7.017,19.660 6.896 C 19.247 6.763,18.526 6.729,18.100 6.823 M11.254 12.044 C 8.666 12.345,6.478 14.095,5.628 16.542 C 5.294 17.504,5.154 18.925,5.326 19.611 C 5.407 19.936,5.766 20.181,6.880 20.672 C 8.519 21.396,10.134 21.729,12.000 21.729 C 13.865 21.729,15.479 21.396,17.120 20.672 C 18.112 20.235,18.494 20.000,18.628 19.744 C 18.787 19.440,18.769 18.188,18.594 17.342 C 18.237 15.615,17.113 14.001,15.609 13.054 C 14.312 12.237,12.734 11.871,11.254 12.044 M4.346 14.363 C 3.504 14.570,2.648 15.160,2.171 15.864 C 1.744 16.493,1.560 17.056,1.530 17.827 C 1.495 18.737,1.530 18.792,2.303 19.037 C 2.587 19.127,3.027 19.243,3.280 19.294 L 3.740 19.386 3.766 18.583 C 3.780 18.136,3.821 17.620,3.857 17.420 C 4.044 16.386,4.366 15.478,4.835 14.664 C 4.948 14.469,5.040 14.302,5.040 14.294 C 5.040 14.254,4.621 14.295,4.346 14.363 M18.960 14.301 C 18.960 14.312,19.005 14.392,19.059 14.478 C 19.236 14.758,19.588 15.491,19.732 15.880 C 20.055 16.747,20.200 17.531,20.234 18.583 L 20.260 19.386 20.720 19.294 C 20.973 19.243,21.413 19.127,21.697 19.037 C 22.470 18.792,22.505 18.737,22.470 17.827 C 22.447 17.240,22.340 16.796,22.114 16.348 C 21.611 15.351,20.693 14.615,19.636 14.361 C 19.322 14.286,18.960 14.254,18.960 14.301 " fill="#0F172A" stroke="none" fill-rule="evenodd"></path></svg>