<svg width="24" height="24" viewBox="0 0 24 24" fill="none" xmlns="http://www.w3.org/2000/svg"><path d="M8.122 2.285 C 7.242 2.387,6.422 2.784,5.751 3.433 C 3.926 5.198,4.128 8.165,6.176 9.688 C 7.834 10.922,10.155 10.724,11.588 9.226 C 12.108 8.683,12.435 8.099,12.628 7.368 C 12.716 7.035,12.731 6.895,12.732 6.380 C 12.732 5.862,12.718 5.728,12.631 5.398 C 12.494 4.884,12.320 4.489,12.062 4.102 C 11.381 3.081,10.292 2.419,9.067 2.283 C 8.639 2.235,8.550 2.235,8.122 2.285 M17.180 5.283 C 15.914 5.453,14.826 6.353,14.426 7.560 C 13.995 8.859,14.411 10.331,15.456 11.206 C 15.783 11.480,16.405 11.799,16.820 11.905 C 17.227 12.010,18.071 12.001,18.485 11.889 C 19.646 11.573,20.573 10.646,20.889 9.485 C 21.001 9.072,21.010 8.227,20.906 7.820 C 20.802 7.415,20.478 6.786,20.205 6.456 C 19.489 5.596,18.296 5.133,17.180 5.283 M7.860 12.044 C 6.753 12.159,5.622 12.575,4.660 13.219 C 3.616 13.919,2.820 14.822,2.262 15.940 C 1.785 16.895,1.565 17.755,1.530 18.808 C 1.510 19.425,1.511 19.438,1.611 19.608 C 1.724 19.800,2.008 19.986,2.788 20.375 C 6.436 22.196,10.785 22.200,14.440 20.384 C 15.463 19.876,15.625 19.752,15.718 19.406 C 15.778 19.183,15.714 18.258,15.600 17.695 C 15.430 16.855,15.018 15.872,14.534 15.153 C 13.062 12.965,10.495 11.769,7.860 12.044 M16.746 13.584 C 16.412 13.644,15.724 13.859,15.620 13.935 C 15.565 13.976,15.591 14.033,15.824 14.381 C 16.535 15.441,17.050 16.863,17.202 18.192 C 17.273 18.812,17.236 19.684,17.127 19.960 C 17.079 20.081,17.040 20.194,17.040 20.210 C 17.040 20.253,18.105 20.245,18.580 20.199 C 19.723 20.088,20.849 19.786,21.842 19.325 C 22.194 19.162,22.365 19.019,22.437 18.827 C 22.461 18.765,22.480 18.529,22.480 18.303 C 22.480 15.999,20.759 13.975,18.465 13.581 C 18.025 13.506,17.172 13.507,16.746 13.584 " fill="#0F172A" stroke="none" fill-rule="evenodd"></path></svg>