<svg width="24" height="24" viewBox="0 0 24 24" fill="none" xmlns="http://www.w3.org/2000/svg"><path d="M11.340 2.281 C 10.094 2.359,8.857 2.691,7.700 3.258 C 6.688 3.755,5.962 4.279,5.119 5.120 C 4.270 5.967,3.753 6.687,3.239 7.740 C 1.912 10.453,1.919 13.564,3.258 16.300 C 4.637 19.117,7.258 21.066,10.420 21.624 C 10.596 21.655,11.023 21.702,11.370 21.728 C 13.009 21.853,14.748 21.505,16.300 20.741 C 19.104 19.362,21.064 16.745,21.605 13.660 C 22.070 11.005,21.403 8.280,19.755 6.096 C 18.214 4.055,15.834 2.676,13.280 2.345 C 12.683 2.268,11.941 2.243,11.340 2.281 M12.948 5.381 C 13.321 5.476,13.825 5.704,14.158 5.931 C 14.392 6.090,14.910 6.608,15.069 6.842 C 15.296 7.176,15.524 7.679,15.627 8.072 C 15.772 8.627,15.772 9.373,15.627 9.928 C 15.525 10.319,15.298 10.820,15.070 11.158 C 14.863 11.465,14.279 12.005,13.928 12.215 C 13.495 12.474,12.923 12.666,12.408 12.727 C 11.626 12.819,10.767 12.631,10.072 12.215 C 9.721 12.005,9.137 11.465,8.930 11.158 C 8.702 10.820,8.475 10.319,8.373 9.928 C 8.228 9.373,8.228 8.627,8.373 8.072 C 8.829 6.328,10.410 5.169,12.200 5.267 C 12.409 5.279,12.746 5.330,12.948 5.381 M12.726 15.042 C 14.640 15.236,16.417 16.148,17.648 17.570 L 17.852 17.804 17.716 17.946 C 17.641 18.024,17.391 18.241,17.160 18.427 C 14.979 20.187,12.046 20.709,9.360 19.816 C 8.855 19.649,8.112 19.296,7.620 18.990 C 7.240 18.754,6.513 18.186,6.284 17.946 L 6.148 17.804 6.352 17.570 C 7.915 15.765,10.345 14.801,12.726 15.042 " fill="#0F172A" stroke="none" fill-rule="evenodd"></path></svg>