<svg width="24" height="24" viewBox="0 0 24 24" fill="none" xmlns="http://www.w3.org/2000/svg"><path d="M9.880 2.285 C 9.453 2.334,8.937 2.490,8.531 2.695 C 7.437 3.245,6.696 4.172,6.370 5.398 C 6.282 5.726,6.268 5.864,6.268 6.380 C 6.268 6.898,6.282 7.033,6.371 7.368 C 6.566 8.101,6.892 8.683,7.412 9.226 C 8.845 10.724,11.166 10.922,12.824 9.688 C 14.869 8.168,15.071 5.196,13.249 3.433 C 12.559 2.765,11.763 2.388,10.820 2.281 C 10.415 2.236,10.306 2.236,9.880 2.285 M18.720 6.805 C 18.591 6.856,18.411 7.028,18.326 7.180 C 18.269 7.283,18.258 7.474,18.247 8.530 L 18.235 9.760 17.040 9.760 C 16.293 9.760,15.803 9.776,15.733 9.803 C 15.460 9.905,15.269 10.193,15.269 10.500 C 15.269 10.807,15.460 11.095,15.733 11.197 C 15.803 11.224,16.293 11.240,17.040 11.240 L 18.235 11.240 18.247 12.470 C 18.261 13.812,18.262 13.816,18.506 14.047 C 18.783 14.309,19.217 14.309,19.494 14.047 C 19.738 13.816,19.739 13.812,19.753 12.470 L 19.765 11.240 20.960 11.240 C 21.707 11.240,22.197 11.224,22.267 11.197 C 22.540 11.095,22.731 10.807,22.731 10.500 C 22.731 10.193,22.540 9.905,22.267 9.803 C 22.197 9.776,21.707 9.760,20.960 9.760 L 19.765 9.760 19.753 8.530 C 19.742 7.474,19.731 7.283,19.674 7.180 C 19.586 7.021,19.407 6.855,19.267 6.803 C 19.129 6.750,18.854 6.751,18.720 6.805 M9.620 12.044 C 7.547 12.262,5.636 13.414,4.466 15.153 C 4.190 15.564,3.769 16.411,3.618 16.860 C 3.451 17.359,3.325 18.024,3.278 18.655 C 3.214 19.512,3.277 19.678,3.773 19.968 C 4.555 20.425,5.624 20.895,6.480 21.158 C 9.707 22.149,13.226 21.866,16.215 20.374 C 16.992 19.985,17.277 19.800,17.390 19.607 C 17.490 19.436,17.491 19.428,17.467 18.787 C 17.433 17.848,17.264 17.098,16.900 16.272 C 16.351 15.024,15.475 13.980,14.340 13.219 C 12.940 12.282,11.285 11.869,9.620 12.044 " fill="#0F172A" stroke="none" fill-rule="evenodd"></path></svg>