<svg width="24" height="24" viewBox="0 0 24 24" fill="none" xmlns="http://www.w3.org/2000/svg"><path d="M4.505 2.298 C 4.222 2.400,4.104 2.561,3.881 3.150 C 1.847 8.502,1.712 14.389,3.499 19.772 C 4.005 21.297,4.146 21.567,4.507 21.705 C 4.960 21.878,5.480 21.507,5.480 21.010 C 5.480 20.907,5.384 20.587,5.220 20.144 C 4.401 17.934,3.949 15.781,3.796 13.360 C 3.745 12.554,3.769 10.671,3.840 9.960 C 4.067 7.662,4.484 5.831,5.245 3.789 C 5.505 3.090,5.527 2.923,5.396 2.652 C 5.250 2.349,4.827 2.181,4.505 2.298 M19.420 2.258 C 19.398 2.266,19.331 2.284,19.271 2.297 C 19.124 2.329,18.881 2.548,18.814 2.708 C 18.734 2.900,18.748 3.111,18.862 3.443 C 19.034 3.944,19.386 5.187,19.534 5.820 C 19.816 7.026,20.022 8.306,20.148 9.640 C 20.246 10.685,20.246 13.315,20.148 14.360 C 19.957 16.386,19.586 18.245,19.001 20.110 C 18.756 20.890,18.726 21.066,18.803 21.267 C 18.895 21.512,19.239 21.757,19.491 21.759 C 19.653 21.760,19.880 21.655,20.031 21.509 C 20.141 21.403,20.202 21.261,20.403 20.646 C 20.791 19.454,21.132 18.073,21.337 16.860 C 22.110 12.276,21.792 7.624,20.416 3.400 C 20.155 2.598,20.084 2.466,19.847 2.344 C 19.730 2.283,19.486 2.234,19.420 2.258 M9.860 7.161 C 9.750 7.177,9.597 7.216,9.520 7.249 C 9.397 7.301,8.232 8.006,7.837 8.267 C 7.326 8.605,7.440 9.409,8.027 9.602 C 8.326 9.701,8.436 9.655,9.548 8.969 C 9.839 8.789,10.084 8.655,10.093 8.671 C 10.102 8.687,10.348 9.417,10.639 10.293 L 11.169 11.886 10.105 13.482 C 8.973 15.181,8.927 15.235,8.560 15.316 C 8.358 15.361,8.167 15.329,7.832 15.197 C 7.257 14.969,6.719 15.348,6.769 15.946 C 6.800 16.319,7.041 16.531,7.660 16.730 C 8.088 16.867,8.707 16.858,9.147 16.707 C 9.507 16.584,9.932 16.310,10.169 16.047 C 10.251 15.956,10.645 15.391,11.046 14.792 L 11.773 13.701 12.143 14.807 C 12.346 15.416,12.562 16.006,12.623 16.119 C 12.962 16.742,13.759 17.024,14.440 16.763 C 14.597 16.703,15.762 16.008,16.163 15.736 C 16.473 15.526,16.577 15.107,16.404 14.767 C 16.252 14.470,15.855 14.296,15.554 14.395 C 15.480 14.420,15.086 14.645,14.680 14.897 C 14.273 15.148,13.929 15.342,13.915 15.327 C 13.901 15.312,13.652 14.583,13.361 13.707 L 12.831 12.114 13.895 10.518 C 15.099 8.711,15.098 8.712,15.556 8.688 C 15.766 8.677,15.875 8.695,16.091 8.777 C 16.410 8.898,16.600 8.905,16.823 8.804 C 17.112 8.673,17.264 8.386,17.231 8.037 C 17.204 7.758,17.054 7.582,16.703 7.415 C 15.990 7.076,15.255 7.084,14.540 7.437 C 14.003 7.702,13.846 7.876,12.992 9.153 L 12.226 10.298 11.857 9.192 C 11.654 8.584,11.438 7.993,11.375 7.879 C 11.187 7.532,10.761 7.228,10.393 7.178 C 10.298 7.166,10.184 7.150,10.140 7.143 C 10.096 7.137,9.970 7.145,9.860 7.161 " fill="#0F172A" stroke="none" fill-rule="evenodd"></path></svg>