<svg width="24" height="24" viewBox="0 0 24 24" fill="none" xmlns="http://www.w3.org/2000/svg"><path d="M2.811 2.278 C 2.638 2.320,2.416 2.494,2.332 2.652 C 2.244 2.817,2.243 3.181,2.329 3.340 C 2.365 3.406,6.495 7.558,11.507 12.567 C 19.840 20.895,20.635 21.678,20.795 21.720 C 21.366 21.869,21.869 21.366,21.720 20.795 C 21.678 20.635,20.897 19.842,12.587 11.528 C 7.589 6.528,3.446 2.403,3.380 2.362 C 3.234 2.272,2.985 2.235,2.811 2.278 M11.720 8.539 L 15.740 12.561 15.752 12.290 C 15.759 12.142,15.758 10.904,15.750 9.540 C 15.736 7.158,15.732 7.048,15.651 6.755 C 15.366 5.733,14.676 5.005,13.640 4.634 L 13.380 4.541 10.540 4.530 L 7.700 4.518 11.720 8.539 M20.694 4.842 C 20.291 4.921,20.159 5.031,18.670 6.513 L 17.240 7.937 17.240 10.999 L 17.240 14.060 19.622 16.440 L 22.005 18.820 22.125 18.680 C 22.192 18.603,22.294 18.450,22.353 18.340 L 22.460 18.140 22.460 12.020 L 22.460 5.900 22.353 5.672 C 22.158 5.256,21.757 4.944,21.288 4.845 C 21.050 4.795,20.935 4.794,20.694 4.842 M2.126 5.677 C 1.906 5.956,1.697 6.392,1.600 6.776 C 1.522 7.084,1.520 7.226,1.520 12.000 C 1.520 16.763,1.522 16.917,1.599 17.224 C 1.868 18.291,2.709 19.132,3.776 19.401 C 4.083 19.478,4.235 19.480,8.616 19.479 C 12.427 19.479,13.184 19.469,13.420 19.420 C 13.955 19.308,14.775 18.812,15.041 18.439 L 15.131 18.312 8.711 11.891 L 2.290 5.470 2.126 5.677 " fill="#0F172A" stroke="none" fill-rule="evenodd"></path></svg>