<svg width="24" height="24" viewBox="0 0 24 24" fill="none" xmlns="http://www.w3.org/2000/svg"><path d="M5.503 3.042 C 4.490 3.212,3.556 3.976,3.202 4.925 C 3.033 5.379,3.001 5.650,3.001 6.677 C 3.000 7.592,3.005 7.666,3.085 7.830 C 3.214 8.097,3.428 8.220,3.763 8.220 C 4.004 8.220,4.049 8.207,4.186 8.097 C 4.482 7.862,4.497 7.792,4.520 6.620 C 4.540 5.588,4.541 5.578,4.649 5.359 C 4.787 5.076,5.076 4.787,5.359 4.649 C 5.578 4.541,5.588 4.540,6.620 4.520 C 7.792 4.497,7.862 4.482,8.097 4.186 C 8.207 4.049,8.220 4.004,8.220 3.763 C 8.220 3.428,8.097 3.214,7.830 3.085 C 7.665 3.005,7.597 3.000,6.677 3.005 C 6.140 3.007,5.611 3.024,5.503 3.042 M16.167 3.084 C 15.692 3.324,15.625 3.985,16.039 4.333 C 16.201 4.469,16.257 4.476,17.360 4.492 C 18.202 4.504,18.322 4.514,18.512 4.590 C 18.920 4.751,19.249 5.080,19.410 5.488 C 19.486 5.678,19.496 5.798,19.508 6.640 C 19.524 7.743,19.531 7.799,19.667 7.961 C 20.017 8.377,20.684 8.307,20.915 7.830 C 20.994 7.667,21.000 7.591,21.000 6.712 C 21.000 5.577,20.953 5.267,20.704 4.740 C 20.398 4.095,19.924 3.614,19.296 3.312 C 18.737 3.043,18.661 3.031,17.440 3.012 C 16.370 2.996,16.335 2.998,16.167 3.084 M11.555 8.279 C 10.769 8.377,10.026 8.724,9.441 9.266 C 8.936 9.733,8.554 10.379,8.373 11.072 C 8.228 11.627,8.228 12.373,8.373 12.928 C 8.476 13.321,8.704 13.824,8.931 14.158 C 9.090 14.392,9.608 14.910,9.842 15.069 C 10.176 15.296,10.679 15.524,11.072 15.627 C 11.627 15.772,12.373 15.772,12.928 15.627 C 13.321 15.524,13.824 15.296,14.158 15.069 C 14.392 14.910,14.910 14.392,15.069 14.158 C 15.296 13.824,15.524 13.321,15.627 12.928 C 15.772 12.373,15.772 11.627,15.627 11.072 C 15.524 10.679,15.296 10.176,15.069 9.842 C 14.910 9.608,14.392 9.090,14.158 8.931 C 13.415 8.426,12.407 8.174,11.555 8.279 M3.407 15.846 C 3.305 15.896,3.189 15.998,3.127 16.093 L 3.020 16.254 3.020 17.357 C 3.020 18.602,3.034 18.698,3.298 19.260 C 3.606 19.918,4.079 20.391,4.740 20.704 C 5.267 20.953,5.577 21.000,6.712 21.000 C 7.591 21.000,7.667 20.994,7.830 20.915 C 8.307 20.684,8.377 20.017,7.961 19.667 C 7.799 19.531,7.743 19.524,6.640 19.508 C 5.798 19.496,5.678 19.486,5.488 19.410 C 5.080 19.248,4.751 18.919,4.590 18.512 C 4.515 18.323,4.504 18.189,4.483 17.257 L 4.460 16.214 4.348 16.066 C 4.121 15.770,3.740 15.681,3.407 15.846 M19.940 15.824 C 19.792 15.905,19.648 16.034,19.586 16.140 C 19.556 16.192,19.532 16.585,19.517 17.260 C 19.496 18.188,19.485 18.323,19.410 18.512 C 19.249 18.919,18.920 19.248,18.512 19.410 C 18.322 19.486,18.202 19.496,17.360 19.508 C 16.257 19.524,16.201 19.531,16.039 19.667 C 15.623 20.017,15.693 20.684,16.170 20.915 C 16.333 20.994,16.409 21.000,17.288 21.000 C 18.423 21.000,18.733 20.953,19.260 20.704 C 19.919 20.391,20.358 19.958,20.680 19.300 C 20.956 18.736,21.000 18.461,21.000 17.288 C 21.000 16.409,20.994 16.333,20.915 16.170 C 20.798 15.928,20.577 15.788,20.286 15.772 C 20.131 15.763,20.022 15.779,19.940 15.824 " fill="#0F172A" stroke="none" fill-rule="evenodd"></path></svg>