<svg width="24" height="24" viewBox="0 0 24 24" fill="none" xmlns="http://www.w3.org/2000/svg"><path d="M3.640 3.817 C 2.930 4.015,2.385 4.628,2.281 5.344 C 2.227 5.720,2.227 18.280,2.281 18.656 C 2.386 19.382,2.936 19.992,3.660 20.186 C 3.813 20.226,4.286 20.239,5.670 20.240 L 7.480 20.240 7.480 12.000 L 7.480 3.760 5.650 3.764 C 4.315 3.766,3.771 3.781,3.640 3.817 M9.000 12.000 L 9.000 20.240 12.000 20.240 L 15.000 20.240 15.000 12.000 L 15.000 3.760 12.000 3.760 L 9.000 3.760 9.000 12.000 M16.520 12.000 L 16.520 20.240 18.330 20.240 C 19.714 20.239,20.187 20.226,20.340 20.186 C 21.064 19.992,21.614 19.382,21.719 18.656 C 21.744 18.482,21.758 16.025,21.758 12.000 C 21.758 7.975,21.744 5.518,21.719 5.344 C 21.614 4.618,21.064 4.008,20.340 3.814 C 20.187 3.774,19.714 3.761,18.330 3.760 L 16.520 3.760 16.520 12.000 " fill="#0F172A" stroke="none" fill-rule="evenodd"></path></svg>