<svg width="24" height="24" viewBox="0 0 24 24" fill="none" xmlns="http://www.w3.org/2000/svg"><path d="M4.680 3.060 C 4.047 3.190,3.609 3.429,3.138 3.899 C 2.863 4.174,2.737 4.337,2.610 4.582 C 2.455 4.883,2.258 5.478,2.287 5.558 C 2.294 5.578,2.417 5.504,2.560 5.395 C 2.913 5.124,3.615 4.785,4.100 4.651 L 4.500 4.540 12.000 4.540 L 19.500 4.540 19.900 4.651 C 20.378 4.783,21.080 5.123,21.440 5.396 C 21.583 5.505,21.705 5.579,21.712 5.561 C 21.742 5.480,21.580 4.988,21.410 4.640 C 21.254 4.320,21.167 4.203,20.862 3.897 C 20.556 3.589,20.441 3.504,20.120 3.347 C 19.389 2.988,20.177 3.021,12.100 3.014 C 6.262 3.008,4.892 3.017,4.680 3.060 M4.680 6.060 C 3.711 6.260,2.921 6.889,2.515 7.785 C 2.410 8.015,2.258 8.551,2.288 8.581 C 2.295 8.588,2.417 8.504,2.560 8.396 C 2.895 8.142,3.493 7.835,3.900 7.709 C 4.598 7.491,4.266 7.500,12.000 7.500 C 19.734 7.500,19.402 7.491,20.100 7.709 C 20.507 7.835,21.105 8.142,21.440 8.396 C 21.583 8.504,21.705 8.588,21.712 8.581 C 21.719 8.575,21.696 8.451,21.663 8.306 C 21.469 7.471,20.869 6.714,20.104 6.339 C 19.392 5.990,20.164 6.021,12.100 6.014 C 6.262 6.008,4.892 6.017,4.680 6.060 M4.680 9.060 C 3.532 9.290,2.626 10.158,2.329 11.311 C 2.266 11.556,2.260 11.888,2.260 15.000 C 2.260 18.112,2.266 18.444,2.329 18.689 C 2.551 19.552,3.123 20.272,3.892 20.656 C 4.598 21.010,3.853 20.980,12.000 20.980 C 20.147 20.980,19.402 21.010,20.108 20.656 C 20.877 20.272,21.449 19.552,21.671 18.689 C 21.734 18.444,21.740 18.112,21.740 15.000 C 21.740 11.888,21.734 11.556,21.671 11.311 C 21.449 10.448,20.877 9.727,20.108 9.344 C 19.451 9.015,19.537 9.025,17.100 9.009 C 15.616 8.999,14.894 9.008,14.792 9.038 C 14.614 9.091,14.419 9.248,14.338 9.403 C 14.306 9.465,14.262 9.687,14.240 9.896 C 14.149 10.777,13.697 11.432,12.940 11.782 C 12.610 11.934,12.326 12.000,12.000 12.000 C 11.674 12.000,11.390 11.934,11.060 11.782 C 10.303 11.432,9.851 10.777,9.760 9.896 C 9.718 9.496,9.668 9.356,9.513 9.212 C 9.286 9.000,9.286 9.000,7.031 9.004 C 5.483 9.007,4.872 9.021,4.680 9.060 " fill="#0F172A" stroke="none" fill-rule="evenodd"></path></svg>