<svg width="24" height="24" viewBox="0 0 24 24" fill="none" xmlns="http://www.w3.org/2000/svg"><path d="M10.980 3.784 C 10.197 3.859,9.863 3.901,9.380 3.985 C 6.543 4.477,3.911 5.784,1.780 7.761 C 1.305 8.201,1.201 8.337,1.172 8.553 C 1.127 8.885,1.178 8.988,1.594 9.414 C 2.268 10.105,2.531 10.131,3.131 9.566 C 5.220 7.603,7.612 6.469,10.460 6.094 C 11.179 5.999,12.781 5.999,13.500 6.094 C 16.364 6.472,18.826 7.646,20.860 9.605 C 21.227 9.959,21.493 10.036,21.820 9.884 C 22.044 9.780,22.695 9.102,22.759 8.905 C 22.826 8.700,22.791 8.430,22.678 8.270 C 22.558 8.100,21.795 7.396,21.340 7.036 C 20.460 6.338,19.701 5.856,18.680 5.346 C 17.060 4.537,15.624 4.104,13.740 3.857 C 13.287 3.798,11.363 3.747,10.980 3.784 M11.280 8.282 C 10.661 8.320,9.928 8.438,9.304 8.600 C 7.631 9.035,5.967 9.967,4.747 11.151 C 4.362 11.524,4.275 11.726,4.362 12.047 C 4.399 12.184,4.493 12.306,4.811 12.629 C 5.254 13.079,5.365 13.139,5.702 13.111 C 5.938 13.092,5.934 13.094,6.526 12.567 C 7.242 11.929,8.343 11.280,9.241 10.967 C 10.707 10.457,12.437 10.376,13.960 10.747 C 15.324 11.079,16.526 11.739,17.693 12.797 C 18.000 13.075,18.090 13.120,18.340 13.120 C 18.616 13.120,18.715 13.061,19.131 12.648 C 19.450 12.332,19.533 12.225,19.580 12.068 C 19.689 11.700,19.609 11.530,19.103 11.051 C 17.659 9.684,15.750 8.746,13.717 8.403 C 13.275 8.328,12.157 8.233,11.880 8.247 C 11.825 8.250,11.555 8.266,11.280 8.282 M11.107 12.820 C 9.854 13.024,8.697 13.592,7.867 14.410 C 7.498 14.773,7.444 15.040,7.661 15.421 C 7.804 15.671,8.403 16.226,8.592 16.282 C 8.848 16.359,9.086 16.302,9.323 16.108 C 9.436 16.015,9.612 15.872,9.714 15.789 C 10.620 15.051,11.951 14.817,13.135 15.186 C 13.676 15.354,13.998 15.547,14.690 16.118 C 14.913 16.302,15.157 16.358,15.408 16.282 C 15.599 16.225,16.194 15.673,16.348 15.410 C 16.477 15.190,16.487 14.916,16.374 14.697 C 16.330 14.611,16.142 14.409,15.957 14.248 C 15.144 13.545,14.257 13.103,13.205 12.877 C 12.694 12.767,11.610 12.738,11.107 12.820 M11.680 17.295 C 10.969 17.453,10.566 17.995,10.780 18.506 C 10.855 18.686,11.404 19.254,11.631 19.388 C 11.752 19.459,11.861 19.489,12.000 19.489 C 12.139 19.489,12.248 19.459,12.369 19.388 C 12.596 19.254,13.145 18.686,13.220 18.506 C 13.440 17.980,13.001 17.420,12.261 17.284 C 11.982 17.232,11.965 17.232,11.680 17.295 " fill="#0F172A" stroke="none" fill-rule="evenodd"></path></svg>