<svg width="24" height="24" viewBox="0 0 24 24" fill="none" xmlns="http://www.w3.org/2000/svg"><path d="M4.680 3.059 C 4.068 3.183,3.581 3.450,3.118 3.916 C 2.836 4.200,2.744 4.326,2.590 4.640 C 2.229 5.376,2.260 4.697,2.260 12.000 C 2.260 19.302,2.230 18.623,2.590 19.360 C 2.747 19.681,2.832 19.796,3.138 20.102 C 3.538 20.501,3.895 20.716,4.440 20.886 L 4.740 20.980 12.000 20.980 L 19.260 20.980 19.560 20.886 C 20.105 20.716,20.462 20.501,20.862 20.102 C 21.168 19.796,21.253 19.681,21.410 19.360 C 21.770 18.623,21.740 19.302,21.740 12.000 C 21.740 4.698,21.770 5.377,21.410 4.640 C 21.253 4.319,21.168 4.204,20.862 3.898 C 20.560 3.597,20.437 3.506,20.120 3.348 C 19.395 2.988,20.180 3.021,12.100 3.014 C 6.325 3.008,4.890 3.017,4.680 3.059 M5.616 5.355 C 5.679 5.391,5.787 5.489,5.856 5.574 C 5.967 5.712,5.980 5.755,5.980 5.997 C 5.980 6.216,5.962 6.292,5.884 6.407 C 5.627 6.782,5.128 6.866,4.781 6.594 C 4.522 6.390,4.440 5.933,4.608 5.633 C 4.802 5.289,5.271 5.159,5.616 5.355 M7.894 5.374 C 8.349 5.625,8.359 6.335,7.912 6.630 C 7.677 6.785,7.324 6.786,7.091 6.632 C 6.806 6.444,6.681 6.026,6.814 5.708 C 6.881 5.548,7.124 5.329,7.271 5.297 C 7.331 5.284,7.398 5.267,7.420 5.260 C 7.501 5.233,7.744 5.292,7.894 5.374 M10.112 5.349 C 10.382 5.476,10.541 5.828,10.480 6.162 C 10.444 6.358,10.343 6.505,10.162 6.629 C 9.508 7.074,8.686 6.252,9.131 5.598 C 9.359 5.263,9.730 5.169,10.112 5.349 M20.231 13.690 L 20.220 18.380 20.114 18.607 C 19.902 19.059,19.526 19.360,19.049 19.462 C 18.647 19.547,5.353 19.547,4.951 19.462 C 4.474 19.360,4.098 19.059,3.886 18.607 L 3.780 18.380 3.769 13.690 L 3.759 9.000 12.000 9.000 L 20.241 9.000 20.231 13.690 " fill="#0F172A" stroke="none" fill-rule="evenodd"></path></svg>