<svg width="24" height="24" viewBox="0 0 24 24" fill="none" xmlns="http://www.w3.org/2000/svg"><path d="M16.320 1.587 C 14.474 1.909,12.880 3.284,12.282 5.068 C 12.043 5.781,12.024 5.926,12.020 7.100 C 12.017 8.215,11.991 8.455,11.834 8.855 C 11.792 8.962,11.704 9.127,11.638 9.223 C 11.559 9.338,10.038 10.614,7.109 13.024 C 4.684 15.019,2.613 16.734,2.506 16.836 C 1.884 17.428,1.515 18.298,1.511 19.180 C 1.507 20.108,1.818 20.862,2.478 21.522 C 3.138 22.182,3.892 22.493,4.820 22.489 C 5.646 22.486,6.429 22.179,7.036 21.621 C 7.132 21.533,8.877 19.437,10.914 16.964 C 14.886 12.141,14.743 12.301,15.265 12.126 C 15.662 11.992,16.080 11.955,16.880 11.983 C 17.460 12.003,17.702 11.995,18.000 11.946 C 19.109 11.763,20.076 11.295,20.847 10.568 C 22.001 9.479,22.607 7.910,22.479 6.340 C 22.437 5.831,22.281 5.169,22.163 5.004 C 21.993 4.766,21.694 4.662,21.371 4.729 C 21.188 4.767,21.106 4.842,19.439 6.504 L 17.698 8.240 17.459 8.179 C 16.655 7.974,16.033 7.351,15.822 6.540 L 15.760 6.302 17.496 4.561 C 19.054 2.999,19.238 2.802,19.280 2.643 C 19.356 2.357,19.249 2.031,19.024 1.862 C 18.642 1.573,17.225 1.429,16.320 1.587 M5.257 18.496 C 5.668 18.737,5.728 19.385,5.366 19.688 C 5.010 19.988,4.505 19.919,4.242 19.534 C 4.004 19.187,4.160 18.621,4.538 18.456 C 4.741 18.368,5.069 18.386,5.257 18.496 " fill="#0F172A" stroke="none" fill-rule="evenodd"></path></svg>