<svg width="24" height="24" viewBox="0 0 24 24" fill="none" xmlns="http://www.w3.org/2000/svg"><path d="M16.320 1.587 C 14.474 1.909,12.880 3.284,12.282 5.068 C 12.043 5.781,12.024 5.926,12.020 7.100 C 12.017 8.215,11.991 8.455,11.834 8.855 C 11.792 8.962,11.704 9.127,11.638 9.223 C 11.559 9.338,10.038 10.614,7.109 13.024 C 4.684 15.019,2.613 16.734,2.506 16.836 C 1.884 17.428,1.515 18.298,1.511 19.180 C 1.507 20.108,1.818 20.862,2.478 21.522 C 3.138 22.182,3.892 22.493,4.820 22.489 C 5.646 22.486,6.429 22.179,7.036 21.621 C 7.132 21.533,8.877 19.437,10.914 16.964 C 14.886 12.141,14.743 12.301,15.265 12.126 C 15.662 11.992,16.080 11.955,16.880 11.983 C 17.460 12.003,17.702 11.995,18.000 11.946 C 19.109 11.763,20.076 11.295,20.847 10.568 C 22.001 9.479,22.607 7.910,22.479 6.340 C 22.437 5.831,22.281 5.169,22.163 5.004 C 21.993 4.766,21.694 4.662,21.371 4.729 C 21.188 4.767,21.106 4.842,19.439 6.504 L 17.698 8.240 17.459 8.179 C 16.655 7.974,16.033 7.351,15.822 6.540 L 15.760 6.302 17.496 4.561 C 19.054 2.999,19.238 2.802,19.280 2.643 C 19.356 2.357,19.249 2.031,19.024 1.862 C 18.642 1.573,17.225 1.429,16.320 1.587 M3.060 1.954 C 2.827 2.065,1.984 2.939,1.921 3.135 C 1.812 3.472,1.826 3.503,3.095 5.618 C 3.775 6.752,4.331 7.636,4.401 7.695 C 4.590 7.854,4.761 7.880,5.640 7.880 L 6.459 7.880 7.485 8.905 L 8.510 9.929 9.275 9.299 C 9.696 8.952,10.040 8.658,10.040 8.644 C 10.040 8.631,9.554 8.134,8.960 7.540 L 7.880 6.461 7.880 5.640 C 7.880 4.761,7.854 4.590,7.695 4.401 C 7.636 4.331,6.751 3.775,5.614 3.093 C 3.795 2.002,3.620 1.905,3.428 1.892 C 3.281 1.882,3.173 1.900,3.060 1.954 M17.720 13.480 C 17.555 13.494,17.087 13.498,16.680 13.489 C 16.122 13.476,15.903 13.485,15.791 13.526 C 15.665 13.571,15.398 13.876,14.097 15.457 L 12.554 17.333 14.667 19.449 C 15.829 20.613,16.918 21.670,17.086 21.798 C 17.424 22.055,17.755 22.225,18.180 22.360 C 18.530 22.471,19.299 22.513,19.702 22.443 C 21.068 22.205,22.132 21.176,22.420 19.815 C 22.494 19.466,22.495 18.779,22.422 18.434 C 22.343 18.058,22.148 17.593,21.932 17.263 C 21.800 17.062,21.233 16.464,19.985 15.210 C 18.528 13.747,18.205 13.441,18.121 13.446 C 18.066 13.450,17.885 13.465,17.720 13.480 M16.832 15.837 C 16.913 15.879,17.441 16.379,18.005 16.947 C 19.107 18.057,19.149 18.115,19.109 18.465 C 19.055 18.949,18.543 19.246,18.089 19.059 C 17.905 18.983,15.951 17.050,15.837 16.832 C 15.697 16.562,15.767 16.146,15.986 15.955 C 16.219 15.751,16.571 15.702,16.832 15.837 M5.257 18.496 C 5.668 18.737,5.728 19.385,5.366 19.688 C 5.010 19.988,4.505 19.919,4.242 19.534 C 4.004 19.187,4.160 18.621,4.538 18.456 C 4.741 18.368,5.069 18.386,5.257 18.496 " fill="#0F172A" stroke="none" fill-rule="evenodd"></path></svg>