<svg width="24" height="24" viewBox="0 0 24 24" fill="none" xmlns="http://www.w3.org/2000/svg"><path d="M11.340 2.281 C 9.465 2.398,7.649 3.079,6.084 4.252 C 5.583 4.627,4.616 5.596,4.245 6.092 C 3.236 7.444,2.622 8.895,2.353 10.572 C 2.239 11.277,2.230 12.591,2.333 13.300 C 2.582 15.004,3.215 16.530,4.245 17.908 C 4.622 18.412,5.588 19.378,6.092 19.755 C 7.471 20.785,9.000 21.420,10.700 21.666 C 11.033 21.714,11.432 21.736,12.000 21.736 C 13.556 21.736,14.894 21.430,16.260 20.762 C 17.312 20.247,18.030 19.732,18.881 18.881 C 19.732 18.030,20.248 17.311,20.761 16.260 C 22.377 12.955,21.991 9.058,19.755 6.096 C 18.214 4.055,15.834 2.676,13.280 2.345 C 12.683 2.268,11.941 2.243,11.340 2.281 M10.031 9.061 C 10.128 9.101,10.499 9.441,11.090 10.031 L 12.000 10.939 12.910 10.031 C 13.836 9.107,13.976 8.999,14.249 9.001 C 14.413 9.002,14.672 9.119,14.788 9.245 C 14.903 9.370,15.000 9.606,15.000 9.760 C 15.000 10.024,14.886 10.171,13.969 11.090 L 13.061 12.000 13.969 12.910 C 14.893 13.836,15.001 13.976,14.999 14.249 C 14.997 14.582,14.699 14.934,14.378 14.982 C 14.004 15.038,13.947 14.999,12.930 13.987 L 12.000 13.062 11.070 13.987 C 10.053 14.999,9.996 15.038,9.622 14.982 C 9.301 14.934,9.003 14.582,9.001 14.249 C 8.999 13.976,9.107 13.836,10.031 12.910 L 10.939 12.000 10.031 11.090 C 9.441 10.499,9.101 10.128,9.061 10.031 C 8.909 9.662,9.080 9.251,9.460 9.076 C 9.656 8.985,9.836 8.981,10.031 9.061 " fill="#0F172A" stroke="none" fill-rule="evenodd"></path></svg>