<svg width="24" height="24" viewBox="0 0 24 24" fill="none" xmlns="http://www.w3.org/2000/svg"><path d="M5.811 5.278 C 5.415 5.375,5.173 5.797,5.280 6.204 C 5.322 6.364,5.588 6.642,8.133 9.190 L 10.939 12.000 8.133 14.810 C 5.600 17.346,5.322 17.637,5.280 17.795 C 5.130 18.366,5.634 18.870,6.205 18.720 C 6.363 18.678,6.654 18.400,9.190 15.867 L 12.000 13.061 14.810 15.867 C 17.346 18.400,17.637 18.678,17.795 18.720 C 18.366 18.870,18.870 18.366,18.720 17.795 C 18.678 17.637,18.400 17.346,15.867 14.810 L 13.061 12.000 15.867 9.190 C 18.400 6.654,18.678 6.363,18.720 6.205 C 18.848 5.715,18.508 5.267,18.008 5.267 C 17.882 5.267,17.735 5.290,17.680 5.318 C 17.625 5.346,16.325 6.622,14.790 8.154 L 12.000 10.939 9.210 8.154 C 7.675 6.622,6.384 5.351,6.340 5.329 C 6.217 5.268,5.955 5.243,5.811 5.278 " fill="#0F172A" stroke="none" fill-rule="evenodd"></path></svg>