<svg width="24" height="24" viewBox="0 0 24 24" fill="none" xmlns="http://www.w3.org/2000/svg"><path d="M10.840 3.194 C 7.691 4.633,4.659 6.343,1.778 8.306 C 0.930 8.884,0.862 8.966,0.861 9.408 C 0.860 9.659,0.868 9.684,0.997 9.817 C 1.156 9.981,1.233 10.011,2.100 10.260 C 2.882 10.485,3.369 10.640,3.412 10.679 C 3.429 10.695,3.416 10.940,3.383 11.224 C 3.229 12.531,3.093 14.413,3.054 15.780 C 3.018 17.030,2.973 16.958,4.104 17.456 C 5.301 17.982,5.440 18.048,5.440 18.090 C 5.440 18.145,5.067 18.747,4.911 18.945 C 4.839 19.036,4.666 19.240,4.528 19.399 C 4.148 19.834,4.109 20.016,4.330 20.344 C 4.587 20.727,4.955 20.868,5.269 20.706 C 5.569 20.551,6.248 19.725,6.614 19.069 L 6.809 18.722 7.194 18.927 C 8.598 19.675,9.929 20.451,11.020 21.158 C 11.781 21.652,11.776 21.649,12.000 21.649 C 12.224 21.649,12.219 21.652,12.980 21.158 C 15.166 19.741,17.675 18.405,20.115 17.359 C 20.989 16.984,20.981 17.000,20.945 15.771 C 20.905 14.386,20.771 12.529,20.617 11.224 C 20.584 10.940,20.571 10.695,20.588 10.679 C 20.631 10.640,21.109 10.487,21.949 10.244 C 22.328 10.134,22.679 10.023,22.729 9.997 C 23.041 9.836,23.238 9.448,23.157 9.151 C 23.098 8.929,22.976 8.818,22.260 8.329 C 19.378 6.363,16.088 4.511,13.046 3.144 C 12.313 2.814,12.163 2.760,11.986 2.762 C 11.812 2.764,11.636 2.830,10.840 3.194 M12.516 4.545 C 13.238 4.867,15.223 5.851,16.020 6.282 C 17.373 7.014,18.558 7.711,19.880 8.552 C 20.703 9.076,20.685 9.060,20.514 9.112 C 18.107 9.856,15.692 10.822,13.249 12.021 L 11.998 12.635 10.929 12.107 C 10.341 11.816,9.604 11.462,9.290 11.322 C 8.976 11.181,8.720 11.055,8.720 11.043 C 8.722 10.989,10.359 10.103,11.879 9.334 C 12.433 9.054,12.598 8.952,12.669 8.844 C 12.855 8.566,12.750 8.104,12.436 7.821 C 12.299 7.697,12.254 7.680,12.067 7.680 C 11.881 7.680,11.767 7.723,11.138 8.034 C 9.944 8.622,8.429 9.444,7.388 10.068 L 6.956 10.327 6.148 10.028 C 5.067 9.627,4.651 9.482,3.947 9.257 C 3.478 9.108,3.365 9.059,3.407 9.021 C 3.479 8.957,4.322 8.417,5.080 7.950 C 6.533 7.056,8.093 6.195,9.740 5.380 C 10.654 4.927,11.941 4.323,11.996 4.321 C 12.005 4.320,12.239 4.421,12.516 4.545 M5.490 11.379 L 6.000 11.570 6.000 12.243 L 6.000 12.915 5.725 13.188 C 5.376 13.533,5.271 13.783,5.271 14.267 C 5.271 14.534,5.291 14.636,5.375 14.821 C 5.504 15.102,5.673 15.319,5.862 15.444 L 6.008 15.540 5.985 16.000 C 5.951 16.709,6.014 16.675,5.327 16.362 C 5.004 16.216,4.692 16.075,4.634 16.050 L 4.527 16.005 4.546 15.593 C 4.636 13.559,4.850 11.141,4.936 11.172 C 4.960 11.181,5.210 11.274,5.490 11.379 M19.155 11.570 C 19.271 12.596,19.409 14.466,19.452 15.594 L 19.468 16.009 19.324 16.069 C 18.869 16.257,17.728 16.794,16.840 17.238 C 15.350 17.982,14.170 18.645,12.730 19.546 L 12.000 20.003 11.270 19.546 C 10.086 18.805,8.787 18.062,7.767 17.541 C 7.366 17.337,7.316 17.300,7.336 17.223 C 7.402 16.960,7.480 16.273,7.480 15.958 L 7.480 15.596 7.718 15.376 C 7.849 15.254,7.999 15.078,8.052 14.984 C 8.409 14.345,8.245 13.518,7.675 13.085 L 7.485 12.940 7.482 12.570 C 7.481 12.305,7.494 12.200,7.529 12.200 C 7.635 12.200,9.488 13.052,10.636 13.629 C 11.555 14.091,11.889 14.240,12.002 14.240 C 12.115 14.240,12.430 14.099,13.286 13.668 C 14.542 13.033,15.584 12.554,16.760 12.069 C 17.483 11.771,19.029 11.168,19.084 11.162 C 19.097 11.161,19.129 11.345,19.155 11.570 " stroke="none" fill-rule="evenodd" fill="black"></path></svg>