<svg width="24" height="24" viewBox="0 0 24 24" fill="none" xmlns="http://www.w3.org/2000/svg"><path d="M8.425 3.823 C 7.876 3.956,7.271 4.442,7.000 4.967 L 6.862 5.235 5.161 5.247 L 3.460 5.260 3.309 5.354 C 3.090 5.490,3.022 5.643,3.022 6.000 C 3.022 6.357,3.090 6.510,3.309 6.646 L 3.460 6.740 5.161 6.753 L 6.862 6.765 7.000 7.033 C 7.174 7.369,7.613 7.814,7.944 7.989 C 8.253 8.153,8.618 8.239,9.000 8.239 C 9.382 8.239,9.747 8.153,10.056 7.989 C 10.388 7.814,10.826 7.369,11.001 7.031 L 11.140 6.762 15.840 6.751 C 20.459 6.740,20.542 6.739,20.673 6.660 C 20.896 6.525,20.980 6.346,20.980 6.000 C 20.980 5.654,20.896 5.475,20.673 5.340 C 20.542 5.261,20.459 5.260,15.840 5.249 L 11.140 5.238 11.001 4.969 C 10.826 4.631,10.388 4.186,10.056 4.011 C 9.601 3.770,8.953 3.696,8.425 3.823 M9.219 5.285 C 9.431 5.343,9.660 5.578,9.719 5.796 C 9.919 6.539,9.017 7.067,8.475 6.525 C 8.085 6.134,8.228 5.483,8.746 5.298 C 8.936 5.231,9.016 5.228,9.219 5.285 M14.425 9.823 C 13.875 9.957,13.271 10.441,12.999 10.969 L 12.860 11.238 8.160 11.249 L 3.460 11.260 3.309 11.354 C 3.090 11.490,3.022 11.643,3.022 12.000 C 3.022 12.357,3.090 12.510,3.309 12.646 L 3.460 12.740 8.160 12.751 L 12.860 12.762 12.999 13.031 C 13.174 13.369,13.612 13.814,13.944 13.989 C 14.574 14.323,15.426 14.323,16.056 13.989 C 16.387 13.814,16.826 13.369,17.000 13.032 L 17.138 12.765 18.839 12.752 C 20.457 12.741,20.546 12.736,20.673 12.660 C 20.896 12.525,20.980 12.346,20.980 12.000 C 20.980 11.654,20.896 11.475,20.673 11.340 C 20.546 11.264,20.457 11.259,18.839 11.248 L 17.138 11.235 17.000 10.968 C 16.826 10.631,16.387 10.186,16.056 10.011 C 15.601 9.770,14.953 9.696,14.425 9.823 M15.219 11.285 C 15.431 11.343,15.660 11.578,15.719 11.796 C 15.919 12.539,15.017 13.067,14.475 12.525 C 14.085 12.134,14.228 11.483,14.746 11.298 C 14.936 11.231,15.016 11.228,15.219 11.285 M8.425 15.823 C 7.876 15.956,7.271 16.442,7.000 16.967 L 6.862 17.235 5.161 17.247 L 3.460 17.260 3.309 17.354 C 3.090 17.490,3.022 17.643,3.022 18.000 C 3.022 18.357,3.090 18.510,3.309 18.646 L 3.460 18.740 5.161 18.753 L 6.862 18.765 7.000 19.033 C 7.174 19.369,7.613 19.814,7.944 19.989 C 8.574 20.323,9.426 20.323,10.056 19.989 C 10.388 19.814,10.826 19.369,11.001 19.031 L 11.140 18.762 15.840 18.751 C 20.459 18.740,20.542 18.739,20.673 18.660 C 20.896 18.525,20.980 18.346,20.980 18.000 C 20.980 17.654,20.896 17.475,20.673 17.340 C 20.542 17.261,20.459 17.260,15.840 17.249 L 11.140 17.238 11.001 16.969 C 10.826 16.631,10.388 16.186,10.056 16.011 C 9.601 15.770,8.953 15.696,8.425 15.823 M9.219 17.285 C 9.431 17.343,9.660 17.578,9.719 17.796 C 9.919 18.539,9.017 19.067,8.475 18.525 C 8.085 18.134,8.228 17.483,8.746 17.298 C 8.936 17.231,9.016 17.228,9.219 17.285 " stroke="none" fill-rule="evenodd" fill="black"></path></svg>