<svg width="24" height="24" viewBox="0 0 24 24" fill="none" xmlns="http://www.w3.org/2000/svg"><path d="M5.718 3.036 C 5.528 3.097,5.448 3.158,5.354 3.309 L 5.260 3.460 5.249 8.160 L 5.238 12.860 4.969 12.999 C 4.631 13.174,4.186 13.612,4.011 13.944 C 3.677 14.574,3.677 15.426,4.011 16.056 C 4.186 16.387,4.631 16.826,4.968 17.000 L 5.235 17.138 5.248 18.839 L 5.260 20.540 5.354 20.691 C 5.490 20.910,5.643 20.978,6.000 20.979 C 6.349 20.980,6.513 20.905,6.653 20.680 C 6.738 20.543,6.740 20.507,6.753 18.839 L 6.765 17.138 7.033 17.000 C 7.369 16.826,7.814 16.387,7.989 16.056 C 8.323 15.426,8.323 14.574,7.989 13.944 C 7.814 13.612,7.369 13.174,7.031 12.999 L 6.762 12.860 6.751 8.160 L 6.740 3.460 6.653 3.320 C 6.605 3.243,6.508 3.146,6.438 3.105 C 6.297 3.022,5.882 2.982,5.718 3.036 M11.718 3.036 C 11.528 3.097,11.448 3.158,11.354 3.309 L 11.260 3.460 11.248 5.161 L 11.235 6.862 10.968 7.000 C 10.631 7.174,10.186 7.613,10.011 7.944 C 9.677 8.574,9.677 9.426,10.011 10.056 C 10.186 10.388,10.631 10.826,10.969 11.001 L 11.238 11.140 11.249 15.840 L 11.260 20.540 11.354 20.691 C 11.490 20.910,11.643 20.978,12.000 20.979 C 12.349 20.980,12.513 20.905,12.653 20.680 L 12.740 20.540 12.751 15.840 L 12.762 11.140 13.031 11.001 C 13.369 10.826,13.814 10.388,13.989 10.056 C 14.323 9.426,14.323 8.574,13.989 7.944 C 13.814 7.613,13.369 7.174,13.033 7.000 L 12.765 6.862 12.753 5.161 C 12.740 3.493,12.738 3.457,12.653 3.320 C 12.605 3.243,12.508 3.146,12.438 3.105 C 12.297 3.022,11.882 2.982,11.718 3.036 M17.718 3.036 C 17.528 3.097,17.448 3.158,17.354 3.309 L 17.260 3.460 17.249 8.160 L 17.238 12.860 16.969 12.999 C 16.631 13.174,16.186 13.612,16.011 13.944 C 15.847 14.253,15.761 14.618,15.761 15.000 C 15.761 15.382,15.847 15.747,16.011 16.056 C 16.186 16.387,16.631 16.826,16.968 17.000 L 17.235 17.138 17.248 18.839 L 17.260 20.540 17.354 20.691 C 17.490 20.910,17.643 20.978,18.000 20.979 C 18.349 20.980,18.513 20.905,18.653 20.680 C 18.738 20.543,18.740 20.507,18.753 18.839 L 18.765 17.138 19.033 17.000 C 19.369 16.826,19.814 16.387,19.989 16.056 C 20.323 15.426,20.323 14.574,19.989 13.944 C 19.814 13.612,19.369 13.174,19.031 12.999 L 18.762 12.860 18.751 8.160 L 18.740 3.460 18.653 3.320 C 18.605 3.243,18.508 3.146,18.438 3.105 C 18.297 3.022,17.882 2.982,17.718 3.036 M12.219 8.285 C 12.431 8.343,12.660 8.578,12.719 8.796 C 12.919 9.539,12.017 10.067,11.475 9.525 C 11.085 9.134,11.228 8.483,11.746 8.298 C 11.936 8.231,12.016 8.228,12.219 8.285 M6.219 14.285 C 6.431 14.343,6.660 14.578,6.719 14.796 C 6.919 15.539,6.017 16.067,5.475 15.525 C 5.085 15.134,5.228 14.483,5.746 14.298 C 5.936 14.231,6.016 14.228,6.219 14.285 M18.219 14.285 C 18.431 14.343,18.660 14.578,18.719 14.796 C 18.919 15.539,18.017 16.067,17.475 15.525 C 17.085 15.134,17.228 14.483,17.746 14.298 C 17.936 14.231,18.016 14.228,18.219 14.285 " stroke="none" fill-rule="evenodd" fill="black"></path></svg>