<svg width="24" height="24" viewBox="0 0 24 24" fill="none" xmlns="http://www.w3.org/2000/svg"><path d="M2.904 3.064 C 2.400 3.186,1.940 3.569,1.688 4.078 L 1.540 4.376 1.528 5.543 C 1.516 6.646,1.520 6.723,1.601 6.963 C 1.705 7.272,1.913 7.593,2.134 7.785 C 2.322 7.949,2.814 8.200,2.945 8.200 C 3.057 8.200,3.022 7.748,3.362 13.600 C 3.594 17.583,3.656 18.476,3.721 18.740 C 3.971 19.757,4.746 20.557,5.800 20.886 L 6.100 20.980 12.000 20.980 L 17.900 20.980 18.200 20.886 C 19.251 20.558,20.030 19.754,20.279 18.740 C 20.344 18.476,20.406 17.583,20.638 13.600 C 20.792 10.949,20.929 8.651,20.942 8.494 L 20.966 8.208 21.111 8.181 C 21.647 8.080,22.198 7.559,22.399 6.963 C 22.480 6.723,22.484 6.646,22.472 5.543 L 22.460 4.376 22.312 4.078 C 22.144 3.738,21.845 3.415,21.538 3.239 C 21.097 2.986,21.686 3.001,11.980 3.004 C 4.468 3.006,3.105 3.015,2.904 3.064 M20.883 4.631 L 21.000 4.761 21.000 5.603 C 21.000 6.541,20.979 6.638,20.755 6.716 C 20.574 6.779,3.426 6.779,3.245 6.716 C 3.021 6.638,3.000 6.541,3.000 5.605 L 3.000 4.766 3.101 4.646 C 3.157 4.579,3.243 4.517,3.291 4.508 C 3.340 4.498,7.292 4.493,12.073 4.495 L 20.767 4.500 20.883 4.631 M19.440 8.416 C 19.440 8.512,19.314 10.740,19.159 13.366 C 18.965 16.658,18.859 18.214,18.818 18.379 C 18.700 18.842,18.362 19.216,17.890 19.407 L 17.660 19.500 12.000 19.500 L 6.340 19.500 6.110 19.407 C 5.638 19.216,5.300 18.842,5.182 18.379 C 5.141 18.214,5.035 16.658,4.841 13.366 C 4.686 10.740,4.560 8.512,4.560 8.416 L 4.560 8.240 12.000 8.240 L 19.440 8.240 19.440 8.416 M11.660 9.806 C 11.507 9.863,11.409 9.949,11.326 10.100 C 11.267 10.207,11.259 10.494,11.248 12.817 L 11.237 15.414 10.328 14.512 C 9.829 14.015,9.358 13.578,9.281 13.539 C 9.205 13.501,9.076 13.469,8.994 13.469 C 8.691 13.469,8.294 13.819,8.222 14.150 C 8.159 14.439,8.203 14.493,9.820 16.120 C 10.662 16.967,11.372 17.702,11.399 17.754 C 11.455 17.864,11.828 18.040,12.004 18.040 C 12.169 18.040,12.550 17.854,12.605 17.747 C 12.629 17.699,13.338 16.967,14.180 16.120 C 15.797 14.493,15.841 14.439,15.778 14.150 C 15.706 13.819,15.309 13.469,15.006 13.469 C 14.924 13.469,14.795 13.501,14.719 13.539 C 14.642 13.578,14.171 14.016,13.670 14.513 L 12.760 15.418 12.758 12.939 C 12.757 11.575,12.741 10.382,12.723 10.286 C 12.683 10.077,12.575 9.921,12.416 9.842 C 12.271 9.769,11.819 9.748,11.660 9.806 " stroke="none" fill-rule="evenodd" fill="black"></path></svg>