<svg width="24" height="24" viewBox="0 0 24 24" fill="none" xmlns="http://www.w3.org/2000/svg"><path d="M14.680 2.267 C 13.140 2.347,11.706 2.926,10.551 3.936 C 9.553 4.808,8.806 6.019,8.475 7.300 C 8.263 8.118,8.270 7.903,8.252 13.737 L 8.236 19.174 5.788 16.731 C 3.099 14.046,3.196 14.129,2.835 14.237 C 2.617 14.302,2.302 14.617,2.237 14.835 C 2.127 15.200,1.983 15.034,5.414 18.480 C 7.133 20.207,8.603 21.654,8.680 21.697 C 8.861 21.796,9.139 21.796,9.320 21.697 C 9.397 21.654,10.867 20.207,12.587 18.480 C 16.020 15.032,15.861 15.215,15.759 14.835 C 15.700 14.618,15.388 14.304,15.165 14.237 C 14.804 14.129,14.902 14.046,12.209 16.733 L 9.758 19.180 9.771 13.700 C 9.782 8.586,9.788 8.200,9.855 7.920 C 10.107 6.871,10.573 6.024,11.299 5.299 C 12.040 4.558,12.927 4.076,13.961 3.853 C 14.438 3.750,15.562 3.750,16.039 3.853 C 17.073 4.076,17.960 4.558,18.701 5.299 C 19.285 5.882,19.694 6.532,19.961 7.300 C 20.205 8.001,20.210 8.047,20.236 10.240 C 20.259 12.164,20.264 12.266,20.340 12.396 C 20.501 12.669,20.818 12.792,21.185 12.723 C 21.404 12.682,21.551 12.581,21.660 12.396 C 21.737 12.265,21.740 12.188,21.740 10.360 C 21.739 8.344,21.723 8.101,21.538 7.360 C 20.937 4.954,19.046 3.063,16.640 2.462 C 16.058 2.317,15.256 2.237,14.680 2.267 " stroke="none" fill-rule="evenodd" fill="black"></path></svg>