<svg width="24" height="24" viewBox="0 0 24 24" fill="none" xmlns="http://www.w3.org/2000/svg"><path d="M11.680 3.795 C 11.506 3.881,4.635 10.770,4.543 10.950 C 4.371 11.291,4.516 11.672,4.913 11.924 C 5.123 12.057,5.299 12.071,5.514 11.973 C 5.606 11.931,6.683 10.887,8.450 9.125 L 11.240 6.342 11.242 12.941 C 11.243 16.571,11.259 19.618,11.277 19.714 C 11.348 20.080,11.548 20.220,12.000 20.220 C 12.452 20.220,12.652 20.080,12.723 19.714 C 12.741 19.618,12.757 16.570,12.758 12.941 L 12.760 6.342 15.550 9.124 C 17.323 10.892,18.393 11.931,18.486 11.974 C 18.566 12.010,18.693 12.040,18.768 12.040 C 18.938 12.040,19.230 11.860,19.382 11.661 C 19.526 11.472,19.561 11.157,19.460 10.957 C 19.356 10.752,12.495 3.881,12.306 3.792 C 12.115 3.703,11.865 3.704,11.680 3.795 " stroke="none" fill-rule="evenodd" fill="black"></path></svg>