<svg width="24" height="24" viewBox="0 0 24 24" fill="none" xmlns="http://www.w3.org/2000/svg"><path d="M11.780 1.513 C 11.602 1.576,11.404 1.761,10.006 3.168 C 9.141 4.039,8.391 4.814,8.339 4.889 C 8.145 5.176,8.183 5.473,8.452 5.754 C 8.718 6.031,9.001 6.103,9.272 5.963 C 9.353 5.920,9.825 5.479,10.320 4.982 L 11.220 4.079 11.240 9.670 C 11.260 15.170,11.261 15.262,11.340 15.396 C 11.449 15.581,11.596 15.682,11.815 15.723 C 12.182 15.792,12.499 15.669,12.660 15.396 C 12.739 15.262,12.740 15.170,12.760 9.670 L 12.780 4.079 13.680 4.982 C 14.175 5.479,14.647 5.920,14.728 5.963 C 14.999 6.103,15.282 6.031,15.548 5.754 C 15.817 5.473,15.855 5.176,15.660 4.889 C 15.609 4.813,14.852 4.033,13.978 3.156 C 12.503 1.674,12.375 1.556,12.188 1.500 C 12.076 1.467,11.984 1.441,11.983 1.441 C 11.981 1.442,11.890 1.474,11.780 1.513 M6.800 7.581 C 6.657 7.612,6.378 7.719,6.180 7.818 C 5.573 8.121,5.120 8.573,4.818 9.180 C 4.506 9.805,4.521 9.503,4.521 15.000 C 4.521 20.497,4.506 20.195,4.818 20.820 C 5.121 21.427,5.573 21.879,6.180 22.182 C 6.805 22.494,6.503 22.479,12.000 22.479 C 17.497 22.479,17.195 22.494,17.820 22.182 C 18.427 21.879,18.879 21.427,19.182 20.820 C 19.494 20.195,19.479 20.497,19.479 15.000 C 19.479 9.503,19.494 9.805,19.182 9.180 C 18.879 8.573,18.427 8.121,17.820 7.818 C 17.270 7.543,17.064 7.514,15.757 7.528 C 14.699 7.539,14.640 7.544,14.533 7.624 C 14.337 7.771,14.267 7.938,14.267 8.260 C 14.267 8.490,14.285 8.579,14.357 8.695 C 14.525 8.967,14.573 8.978,15.780 9.000 C 16.860 9.020,16.860 9.020,17.100 9.132 C 17.415 9.279,17.724 9.587,17.867 9.896 L 17.980 10.140 17.980 15.000 L 17.980 19.860 17.867 20.104 C 17.724 20.413,17.415 20.721,17.100 20.868 L 16.860 20.980 12.000 20.980 L 7.140 20.980 6.896 20.867 C 6.587 20.724,6.279 20.415,6.132 20.100 L 6.020 19.860 6.020 15.000 L 6.020 10.140 6.132 9.900 C 6.279 9.585,6.587 9.276,6.896 9.133 L 7.140 9.020 8.220 9.000 C 9.209 8.982,9.311 8.973,9.433 8.900 C 9.650 8.769,9.729 8.600,9.731 8.263 C 9.733 7.937,9.665 7.772,9.467 7.624 C 9.359 7.544,9.305 7.540,8.207 7.532 C 7.344 7.527,6.996 7.539,6.800 7.581 " stroke="none" fill-rule="evenodd" fill="black"></path></svg>