<svg width="24" height="24" viewBox="0 0 24 24" fill="none" xmlns="http://www.w3.org/2000/svg"><path d="M11.787 2.278 C 11.598 2.316,11.444 2.427,11.340 2.604 C 11.261 2.739,11.260 2.830,11.240 10.950 L 11.220 19.160 8.080 16.017 C 6.331 14.267,4.874 12.840,4.792 12.797 C 4.526 12.659,4.246 12.714,3.986 12.955 C 3.734 13.189,3.654 13.531,3.793 13.790 C 3.880 13.954,11.538 21.624,11.700 21.710 C 11.854 21.792,12.146 21.792,12.300 21.710 C 12.462 21.624,20.120 13.954,20.207 13.790 C 20.346 13.531,20.266 13.189,20.014 12.955 C 19.763 12.722,19.477 12.660,19.228 12.784 C 19.158 12.819,17.674 14.272,15.930 16.014 L 12.760 19.180 12.758 11.080 C 12.757 6.625,12.741 2.902,12.723 2.806 C 12.644 2.398,12.265 2.185,11.787 2.278 " stroke="none" fill-rule="evenodd" fill="black"></path></svg>