<svg width="24" height="24" viewBox="0 0 24 24" fill="none" xmlns="http://www.w3.org/2000/svg"><path d="M11.787 2.278 C 11.598 2.316,11.444 2.427,11.340 2.604 C 11.261 2.739,11.260 2.822,11.249 10.959 L 11.239 19.177 9.929 17.871 C 9.191 17.134,8.568 16.545,8.500 16.519 C 8.337 16.456,8.109 16.463,7.973 16.534 C 7.842 16.603,7.591 16.858,7.522 16.992 C 7.461 17.111,7.460 17.347,7.519 17.500 C 7.576 17.648,11.483 21.589,11.680 21.697 C 11.850 21.791,12.136 21.797,12.300 21.711 C 12.458 21.628,16.359 17.716,16.450 17.550 C 16.529 17.404,16.542 17.118,16.475 16.987 C 16.409 16.857,16.156 16.602,16.027 16.534 C 15.891 16.463,15.663 16.456,15.500 16.519 C 15.432 16.545,14.809 17.134,14.070 17.871 L 12.760 19.178 12.758 11.079 C 12.757 6.625,12.741 2.902,12.723 2.806 C 12.644 2.398,12.265 2.185,11.787 2.278 " stroke="none" fill-rule="evenodd" fill="black"></path></svg>