<svg width="24" height="24" viewBox="0 0 24 24" fill="none" xmlns="http://www.w3.org/2000/svg"><path d="M15.618 5.814 C 15.340 5.940,15.136 6.337,15.170 6.687 C 15.206 7.069,15.204 7.068,17.689 8.020 C 18.893 8.481,19.865 8.870,19.849 8.884 C 19.833 8.899,19.604 9.005,19.340 9.120 C 17.429 9.955,16.276 10.719,14.997 11.997 C 14.324 12.671,13.948 13.121,13.451 13.848 L 13.133 14.314 11.337 12.513 C 10.349 11.522,9.460 10.659,9.362 10.596 C 9.119 10.437,8.881 10.437,8.638 10.596 C 8.399 10.751,1.626 17.544,1.541 17.713 C 1.442 17.912,1.454 18.128,1.576 18.337 C 1.693 18.537,1.950 18.734,2.150 18.778 C 2.453 18.844,2.388 18.903,5.790 15.506 L 9.000 12.301 10.990 14.287 C 13.141 16.435,13.115 16.413,13.437 16.321 C 13.734 16.236,13.844 16.119,14.164 15.545 C 15.139 13.800,16.565 12.331,18.260 11.327 C 18.749 11.037,19.001 10.910,19.710 10.595 C 20.478 10.253,20.530 10.232,20.508 10.268 C 20.446 10.368,18.843 14.605,18.820 14.727 C 18.764 15.022,18.931 15.279,19.280 15.437 C 19.627 15.594,19.962 15.519,20.165 15.240 C 20.205 15.185,20.734 13.846,21.341 12.265 C 21.947 10.683,22.488 9.307,22.542 9.205 C 22.654 8.994,22.672 8.713,22.585 8.506 C 22.512 8.332,22.229 8.094,22.055 8.062 C 21.978 8.047,20.603 7.532,19.000 6.917 C 17.397 6.302,16.008 5.790,15.913 5.779 C 15.809 5.767,15.691 5.781,15.618 5.814 " stroke="none" fill-rule="evenodd" fill="black"></path></svg>