<svg width="24" height="24" viewBox="0 0 24 24" fill="none" xmlns="http://www.w3.org/2000/svg"><path d="M4.220 3.786 C 3.811 4.002,3.617 4.438,3.784 4.772 C 3.819 4.842,6.964 8.018,10.774 11.830 L 17.700 18.760 12.860 18.761 C 8.189 18.762,8.014 18.764,7.852 18.838 C 7.623 18.942,7.520 19.148,7.520 19.500 C 7.520 19.855,7.623 20.060,7.855 20.162 C 8.020 20.235,8.237 20.238,13.875 20.241 L 19.724 20.245 19.900 20.160 C 20.030 20.097,20.097 20.030,20.160 19.900 L 20.245 19.724 20.241 13.875 C 20.238 8.237,20.235 8.020,20.162 7.855 C 20.060 7.623,19.855 7.520,19.500 7.520 C 19.148 7.520,18.942 7.623,18.838 7.852 C 18.764 8.014,18.762 8.189,18.761 12.860 L 18.760 17.700 11.830 10.774 C 8.018 6.964,4.842 3.819,4.772 3.784 C 4.611 3.703,4.376 3.704,4.220 3.786 " stroke="none" fill-rule="evenodd" fill="black"></path></svg>