<svg width="24" height="24" viewBox="0 0 24 24" fill="none" xmlns="http://www.w3.org/2000/svg"><path d="M11.740 2.276 C 11.555 2.361,6.905 6.999,6.792 7.211 C 6.499 7.761,7.214 8.494,7.772 8.216 C 7.842 8.181,8.652 7.403,9.570 6.486 L 11.240 4.820 11.242 10.680 C 11.243 13.903,11.259 16.618,11.277 16.714 C 11.348 17.080,11.548 17.220,12.000 17.220 C 12.452 17.220,12.652 17.080,12.723 16.714 C 12.741 16.618,12.757 13.903,12.758 10.680 L 12.760 4.820 14.430 6.486 C 15.348 7.403,16.158 8.181,16.228 8.216 C 16.484 8.344,16.815 8.262,17.045 8.014 C 17.281 7.760,17.342 7.462,17.208 7.211 C 17.170 7.141,16.078 6.018,14.780 4.716 C 12.421 2.350,12.257 2.202,12.000 2.202 C 11.945 2.202,11.828 2.235,11.740 2.276 M2.660 15.808 C 2.508 15.862,2.409 15.948,2.326 16.100 C 2.268 16.205,2.260 16.399,2.260 17.680 C 2.260 18.937,2.270 19.182,2.331 19.442 C 2.586 20.529,3.471 21.414,4.558 21.669 C 4.841 21.736,5.306 21.740,12.000 21.740 C 18.694 21.740,19.159 21.736,19.442 21.669 C 20.500 21.421,21.362 20.583,21.648 19.526 C 21.721 19.256,21.733 19.072,21.750 17.948 C 21.760 17.249,21.757 16.561,21.741 16.420 C 21.694 15.981,21.509 15.800,21.074 15.768 C 20.833 15.750,20.586 15.809,20.466 15.915 C 20.267 16.089,20.262 16.127,20.240 17.680 L 20.220 19.140 20.112 19.369 C 19.975 19.663,19.663 19.975,19.369 20.112 L 19.140 20.220 12.000 20.220 L 4.860 20.220 4.631 20.112 C 4.337 19.975,4.025 19.663,3.888 19.369 L 3.780 19.140 3.760 17.680 C 3.738 16.127,3.733 16.088,3.534 15.916 C 3.364 15.768,2.927 15.715,2.660 15.808 " stroke="none" fill-rule="evenodd" fill="black"></path></svg>