<svg width="24" height="24" viewBox="0 0 24 24" fill="none" xmlns="http://www.w3.org/2000/svg"><path d="M11.740 2.276 C 11.553 2.363,3.906 9.997,3.793 10.210 C 3.654 10.469,3.734 10.811,3.986 11.045 C 4.246 11.286,4.526 11.341,4.792 11.203 C 4.874 11.160,6.331 9.733,8.080 7.983 L 11.220 4.840 11.240 13.050 C 11.260 21.170,11.261 21.261,11.340 21.396 C 11.501 21.669,11.818 21.792,12.185 21.723 C 12.404 21.682,12.551 21.581,12.660 21.396 C 12.739 21.261,12.740 21.170,12.760 13.050 L 12.780 4.840 15.920 7.983 C 17.669 9.733,19.126 11.160,19.208 11.203 C 19.397 11.301,19.602 11.301,19.792 11.204 C 20.198 10.994,20.386 10.545,20.207 10.210 C 20.094 9.997,12.447 2.363,12.260 2.276 C 12.172 2.235,12.055 2.202,12.000 2.202 C 11.945 2.202,11.828 2.235,11.740 2.276 " stroke="none" fill-rule="evenodd" fill="black"></path></svg>