<svg width="24" height="24" viewBox="0 0 24 24" fill="none" xmlns="http://www.w3.org/2000/svg"><path d="M2.100 5.229 C 1.942 5.270,1.680 5.486,1.576 5.663 C 1.454 5.872,1.442 6.088,1.541 6.287 C 1.626 6.456,8.399 13.249,8.638 13.404 C 8.844 13.538,9.089 13.558,9.292 13.456 C 9.362 13.421,10.305 12.509,11.387 11.430 L 13.354 9.467 13.842 9.944 C 15.035 11.107,15.979 12.548,16.532 14.049 C 16.720 14.560,17.175 16.158,17.142 16.191 C 17.132 16.201,16.211 15.683,15.095 15.038 C 13.370 14.042,13.038 13.864,12.874 13.848 C 12.627 13.825,12.470 13.891,12.319 14.082 C 11.987 14.501,12.004 14.899,12.367 15.171 C 12.440 15.226,13.679 15.951,15.120 16.782 C 16.561 17.613,17.809 18.348,17.893 18.415 C 18.022 18.519,18.087 18.540,18.313 18.553 C 18.561 18.567,18.594 18.558,18.780 18.434 C 18.922 18.339,19.008 18.242,19.077 18.100 C 19.130 17.990,19.843 16.739,20.661 15.320 C 21.479 13.901,22.187 12.664,22.234 12.572 C 22.381 12.282,22.335 11.977,22.114 11.774 C 21.834 11.517,21.437 11.441,21.184 11.598 C 21.013 11.703,21.034 11.669,19.718 13.955 L 18.627 15.849 18.397 15.015 C 17.916 13.268,17.467 12.243,16.623 10.960 C 16.024 10.050,15.308 9.225,14.450 8.458 C 13.675 7.765,13.423 7.625,13.110 7.717 C 12.963 7.760,12.673 8.033,10.970 9.733 L 9.000 11.699 5.810 8.511 C 3.570 6.272,2.576 5.304,2.471 5.261 C 2.321 5.199,2.245 5.193,2.100 5.229 " stroke="none" fill-rule="evenodd" fill="black"></path></svg>