<svg width="24" height="24" viewBox="0 0 24 24" fill="none" xmlns="http://www.w3.org/2000/svg"><path d="M11.660 3.806 C 11.507 3.863,11.409 3.949,11.326 4.100 C 11.266 4.210,11.259 4.787,11.249 10.938 L 11.239 17.657 8.449 14.875 C 6.677 13.107,5.607 12.069,5.514 12.026 C 5.299 11.929,5.122 11.943,4.913 12.076 C 4.516 12.328,4.371 12.709,4.543 13.050 C 4.645 13.250,11.508 20.121,11.694 20.208 C 11.891 20.300,12.109 20.300,12.306 20.208 C 12.495 20.119,19.356 13.248,19.460 13.043 C 19.561 12.843,19.526 12.528,19.382 12.339 C 19.230 12.140,18.938 11.960,18.768 11.960 C 18.693 11.960,18.566 11.990,18.486 12.026 C 18.393 12.069,17.323 13.108,15.550 14.876 L 12.760 17.658 12.758 11.059 C 12.757 7.430,12.741 4.382,12.723 4.286 C 12.683 4.077,12.575 3.921,12.416 3.842 C 12.271 3.769,11.819 3.748,11.660 3.806 " stroke="none" fill-rule="evenodd" fill="black"></path></svg>