<svg width="24" height="24" viewBox="0 0 24 24" fill="none" xmlns="http://www.w3.org/2000/svg"><path d="M10.400 3.783 C 10.257 3.791,9.744 3.817,9.260 3.841 C 8.217 3.892,7.836 3.934,7.414 4.041 C 6.237 4.340,5.184 5.139,4.541 6.220 C 4.082 6.993,3.881 7.783,3.866 8.880 C 3.859 9.371,3.913 9.515,4.151 9.634 C 4.465 9.791,4.917 9.770,5.115 9.588 C 5.271 9.444,5.317 9.275,5.361 8.682 C 5.424 7.852,5.569 7.361,5.902 6.860 C 6.359 6.172,7.045 5.678,7.825 5.479 C 8.922 5.198,15.078 5.198,16.175 5.479 C 16.955 5.678,17.641 6.172,18.098 6.860 C 18.449 7.389,18.582 7.868,18.638 8.812 C 18.661 9.190,18.690 9.644,18.703 9.820 L 18.727 10.140 17.814 9.237 C 16.790 8.226,16.669 8.143,16.355 8.237 C 16.176 8.290,15.867 8.553,15.777 8.726 C 15.701 8.873,15.705 9.135,15.786 9.292 C 15.822 9.362,16.564 10.140,17.435 11.020 C 18.733 12.331,19.055 12.636,19.219 12.709 C 19.330 12.758,19.456 12.798,19.500 12.798 C 19.544 12.798,19.670 12.758,19.781 12.709 C 19.945 12.636,20.267 12.331,21.565 11.020 C 22.436 10.140,23.178 9.362,23.214 9.292 C 23.295 9.135,23.299 8.873,23.223 8.726 C 23.133 8.553,22.824 8.290,22.645 8.237 C 22.329 8.142,22.212 8.222,21.150 9.274 L 20.200 10.214 20.200 10.037 C 20.200 9.940,20.173 9.436,20.141 8.918 C 20.053 7.509,19.926 7.005,19.459 6.221 C 19.047 5.527,18.473 4.953,17.779 4.541 C 17.000 4.078,16.494 3.949,15.102 3.857 C 14.255 3.802,11.009 3.751,10.400 3.783 M4.219 11.291 C 4.055 11.364,3.733 11.669,2.435 12.980 C 1.564 13.860,0.822 14.638,0.786 14.708 C 0.705 14.865,0.701 15.127,0.777 15.274 C 0.867 15.447,1.176 15.710,1.355 15.763 C 1.671 15.858,1.788 15.778,2.850 14.726 L 3.800 13.786 3.800 13.963 C 3.800 14.060,3.827 14.564,3.859 15.082 C 3.947 16.491,4.074 16.995,4.541 17.779 C 4.953 18.473,5.527 19.047,6.220 19.459 C 6.803 19.805,7.372 19.997,8.054 20.077 C 9.687 20.268,14.313 20.268,15.946 20.077 C 16.628 19.997,17.197 19.805,17.780 19.459 C 18.862 18.816,19.660 17.763,19.960 16.584 C 20.136 15.890,20.195 14.801,20.069 14.570 C 19.888 14.239,19.180 14.145,18.885 14.414 C 18.730 14.554,18.684 14.723,18.640 15.307 C 18.573 16.208,18.385 16.772,17.968 17.322 C 17.509 17.927,16.912 18.326,16.173 18.519 C 15.100 18.800,8.928 18.804,7.836 18.524 C 6.679 18.228,5.773 17.325,5.479 16.177 C 5.429 15.979,5.385 15.614,5.360 15.182 C 5.339 14.807,5.310 14.356,5.297 14.180 L 5.273 13.860 6.186 14.763 C 7.210 15.774,7.331 15.857,7.645 15.763 C 7.824 15.710,8.133 15.447,8.223 15.274 C 8.299 15.127,8.295 14.865,8.214 14.708 C 8.178 14.638,7.436 13.860,6.565 12.980 C 5.267 11.669,4.945 11.364,4.781 11.291 C 4.670 11.242,4.544 11.202,4.500 11.202 C 4.456 11.202,4.330 11.242,4.219 11.291 " stroke="none" fill-rule="evenodd" fill="black"></path></svg>