<svg width="24" height="24" viewBox="0 0 24 24" fill="none" xmlns="http://www.w3.org/2000/svg"><path d="M7.112 2.281 C 6.736 2.326,6.422 2.423,6.120 2.588 C 5.347 3.008,4.805 3.690,4.600 4.496 C 4.521 4.807,4.520 4.938,4.520 12.000 C 4.520 19.062,4.521 19.193,4.600 19.504 C 4.810 20.330,5.376 21.027,6.175 21.440 C 6.767 21.746,6.675 21.740,10.500 21.740 C 14.325 21.740,14.233 21.746,14.825 21.440 C 15.628 21.024,16.190 20.329,16.403 19.488 C 16.478 19.191,16.481 19.055,16.471 16.910 C 16.460 14.679,16.459 14.644,16.376 14.533 C 16.228 14.335,16.064 14.267,15.737 14.269 C 15.507 14.270,15.414 14.290,15.301 14.359 C 15.012 14.538,15.022 14.448,14.999 16.900 C 14.977 19.295,14.986 19.200,14.735 19.582 C 14.581 19.818,14.356 20.010,14.089 20.133 L 13.900 20.220 10.500 20.220 L 7.100 20.220 6.911 20.133 C 6.647 20.011,6.425 19.822,6.263 19.584 C 5.981 19.167,6.000 19.701,6.000 12.000 C 6.000 4.299,5.981 4.833,6.263 4.416 C 6.425 4.178,6.647 3.989,6.911 3.867 L 7.100 3.780 10.500 3.780 L 13.900 3.780 14.089 3.867 C 14.356 3.990,14.581 4.182,14.735 4.418 C 14.986 4.800,14.977 4.705,14.999 7.100 C 15.022 9.552,15.012 9.462,15.301 9.641 C 15.414 9.710,15.507 9.730,15.737 9.731 C 16.064 9.733,16.228 9.665,16.376 9.467 C 16.459 9.356,16.460 9.321,16.471 7.090 C 16.481 4.945,16.478 4.809,16.403 4.512 C 16.143 3.483,15.318 2.637,14.297 2.352 C 13.983 2.264,13.954 2.263,10.680 2.256 C 8.865 2.252,7.260 2.263,7.112 2.281 M11.761 8.263 C 11.554 8.353,8.405 11.489,8.291 11.720 C 8.076 12.152,8.094 12.176,10.020 14.086 C 11.822 15.872,11.802 15.857,12.165 15.759 C 12.386 15.699,12.699 15.386,12.759 15.165 C 12.852 14.820,12.810 14.758,11.769 13.711 L 10.825 12.762 16.423 12.751 C 21.938 12.740,22.022 12.739,22.156 12.660 C 22.407 12.512,22.460 12.398,22.460 12.000 C 22.460 11.602,22.407 11.488,22.156 11.340 C 22.022 11.261,21.938 11.260,16.423 11.249 L 10.825 11.238 11.769 10.289 C 12.802 9.250,12.851 9.178,12.762 8.848 C 12.708 8.646,12.481 8.387,12.267 8.284 C 12.065 8.186,11.951 8.181,11.761 8.263 " stroke="none" fill-rule="evenodd" fill="black"></path></svg>