<svg width="24" height="24" viewBox="0 0 24 24" fill="none" xmlns="http://www.w3.org/2000/svg"><path d="M7.112 2.281 C 6.736 2.326,6.422 2.423,6.120 2.588 C 5.347 3.008,4.805 3.690,4.600 4.496 C 4.521 4.807,4.520 4.938,4.520 12.000 C 4.520 19.062,4.521 19.193,4.600 19.504 C 4.810 20.330,5.376 21.027,6.175 21.440 C 6.767 21.746,6.675 21.740,10.500 21.740 C 14.325 21.740,14.233 21.746,14.825 21.440 C 15.628 21.024,16.190 20.329,16.403 19.488 C 16.478 19.191,16.481 19.055,16.471 16.910 C 16.460 14.679,16.459 14.644,16.376 14.533 C 16.228 14.335,16.064 14.267,15.737 14.269 C 15.507 14.270,15.414 14.290,15.301 14.359 C 15.012 14.538,15.022 14.448,14.999 16.900 C 14.977 19.295,14.986 19.200,14.735 19.582 C 14.581 19.818,14.356 20.010,14.089 20.133 L 13.900 20.220 10.500 20.220 L 7.100 20.220 6.911 20.133 C 6.647 20.011,6.425 19.822,6.263 19.584 C 5.981 19.167,6.000 19.701,6.000 12.000 C 6.000 4.299,5.981 4.833,6.263 4.416 C 6.425 4.178,6.647 3.989,6.911 3.867 L 7.100 3.780 10.500 3.780 L 13.900 3.780 14.089 3.867 C 14.356 3.990,14.581 4.182,14.735 4.418 C 14.986 4.800,14.977 4.705,14.999 7.100 C 15.022 9.552,15.012 9.462,15.301 9.641 C 15.414 9.710,15.507 9.730,15.737 9.731 C 16.064 9.733,16.228 9.665,16.376 9.467 C 16.459 9.356,16.460 9.321,16.471 7.090 C 16.481 4.945,16.478 4.809,16.403 4.512 C 16.143 3.483,15.318 2.637,14.297 2.352 C 13.983 2.264,13.954 2.263,10.680 2.256 C 8.865 2.252,7.260 2.263,7.112 2.281 M18.520 8.262 C 18.231 8.391,17.960 8.748,17.960 9.000 C 17.960 9.068,17.995 9.190,18.037 9.272 C 18.080 9.353,18.521 9.825,19.018 10.320 L 19.921 11.220 14.330 11.240 C 8.830 11.260,8.738 11.261,8.604 11.340 C 8.331 11.501,8.208 11.818,8.277 12.185 C 8.318 12.404,8.419 12.551,8.604 12.660 C 8.738 12.739,8.830 12.740,14.330 12.760 L 19.921 12.780 19.018 13.680 C 18.521 14.175,18.080 14.647,18.037 14.728 C 17.897 14.999,17.969 15.282,18.246 15.548 C 18.527 15.817,18.824 15.855,19.111 15.661 C 19.352 15.496,22.408 12.427,22.466 12.291 C 22.496 12.220,22.520 12.089,22.520 12.000 C 22.520 11.911,22.496 11.780,22.466 11.709 C 22.408 11.572,19.351 8.503,19.108 8.337 C 18.922 8.211,18.698 8.183,18.520 8.262 " stroke="none" fill-rule="evenodd" fill="black"></path></svg>