<svg width="24" height="24" viewBox="0 0 24 24" fill="none" xmlns="http://www.w3.org/2000/svg"><path d="M6.580 7.492 C 6.441 7.525,6.158 7.790,4.400 9.535 C 2.074 11.843,2.080 11.836,2.275 12.260 C 2.360 12.443,6.235 16.333,6.450 16.450 C 6.596 16.529,6.882 16.542,7.013 16.475 C 7.140 16.410,7.398 16.157,7.463 16.032 C 7.530 15.904,7.537 15.651,7.478 15.493 C 7.454 15.431,6.848 14.791,6.129 14.071 L 4.823 12.761 13.041 12.751 C 21.178 12.740,21.261 12.739,21.396 12.660 C 21.669 12.499,21.792 12.182,21.723 11.815 C 21.682 11.596,21.581 11.449,21.396 11.340 C 21.261 11.261,21.178 11.260,13.041 11.249 L 4.823 11.239 6.129 9.929 C 6.848 9.209,7.454 8.569,7.478 8.507 C 7.537 8.349,7.530 8.096,7.463 7.966 C 7.381 7.807,7.063 7.527,6.932 7.498 C 6.871 7.484,6.802 7.469,6.780 7.464 C 6.758 7.458,6.668 7.471,6.580 7.492 " stroke="none" fill-rule="evenodd" fill="black"></path></svg>