<svg width="24" height="24" viewBox="0 0 24 24" fill="none" xmlns="http://www.w3.org/2000/svg"><path d="M19.220 3.786 C 19.154 3.820,15.982 6.965,12.170 10.774 L 5.240 17.700 5.239 12.860 C 5.238 8.189,5.236 8.014,5.162 7.852 C 5.058 7.623,4.852 7.520,4.500 7.520 C 4.145 7.520,3.940 7.623,3.838 7.855 C 3.765 8.020,3.762 8.237,3.759 13.875 L 3.755 19.724 3.840 19.900 C 3.903 20.030,3.970 20.097,4.100 20.160 L 4.276 20.245 10.125 20.241 C 15.763 20.238,15.980 20.235,16.145 20.162 C 16.377 20.060,16.480 19.855,16.480 19.500 C 16.480 19.148,16.377 18.942,16.148 18.838 C 15.986 18.764,15.811 18.762,11.140 18.761 L 6.300 18.760 13.226 11.830 C 17.036 8.018,20.181 4.842,20.216 4.772 C 20.491 4.220,19.766 3.502,19.220 3.786 " stroke="none" fill-rule="evenodd" fill="black"></path></svg>