<svg width="24" height="24" viewBox="0 0 24 24" fill="none" xmlns="http://www.w3.org/2000/svg"><path d="M13.220 3.786 C 12.798 4.009,12.615 4.442,12.797 4.792 C 12.840 4.874,14.267 6.331,16.017 8.080 L 19.160 11.220 10.950 11.240 C 2.830 11.260,2.739 11.261,2.604 11.340 C 2.331 11.501,2.208 11.818,2.277 12.185 C 2.318 12.404,2.419 12.551,2.604 12.660 C 2.739 12.739,2.830 12.740,10.950 12.760 L 19.160 12.780 16.017 15.920 C 14.267 17.669,12.840 19.126,12.797 19.208 C 12.699 19.397,12.699 19.602,12.796 19.792 C 13.006 20.198,13.455 20.386,13.790 20.207 C 13.954 20.120,21.624 12.462,21.710 12.300 C 21.745 12.234,21.774 12.099,21.774 12.000 C 21.774 11.901,21.745 11.766,21.710 11.700 C 21.624 11.538,13.954 3.880,13.790 3.793 C 13.628 3.706,13.378 3.703,13.220 3.786 " stroke="none" fill-rule="evenodd" fill="black"></path></svg>