<svg width="24" height="24" viewBox="0 0 24 24" fill="none" xmlns="http://www.w3.org/2000/svg"><path d="M11.720 2.291 C 11.497 2.402,7.590 6.316,7.519 6.500 C 7.456 6.663,7.462 6.890,7.534 7.027 C 7.602 7.156,7.857 7.409,7.987 7.475 C 8.098 7.532,8.360 7.533,8.507 7.478 C 8.569 7.454,9.209 6.848,9.929 6.129 L 11.239 4.823 11.249 13.041 C 11.260 21.178,11.261 21.261,11.340 21.396 C 11.501 21.669,11.818 21.792,12.185 21.723 C 12.404 21.682,12.551 21.581,12.660 21.396 C 12.739 21.261,12.740 21.178,12.751 13.041 L 12.761 4.823 14.071 6.129 C 14.791 6.848,15.431 7.454,15.493 7.478 C 15.640 7.533,15.902 7.532,16.013 7.475 C 16.140 7.410,16.398 7.157,16.463 7.032 C 16.541 6.884,16.535 6.605,16.450 6.450 C 16.333 6.235,12.443 2.360,12.260 2.275 C 12.050 2.179,11.938 2.182,11.720 2.291 " stroke="none" fill-rule="evenodd" fill="black"></path></svg>