<svg width="24" height="24" viewBox="0 0 24 24" fill="none" xmlns="http://www.w3.org/2000/svg"><path d="M12.600 4.490 C 12.407 4.541,12.213 4.697,12.076 4.913 C 11.943 5.122,11.929 5.299,12.026 5.514 C 12.069 5.607,13.108 6.677,14.876 8.450 L 17.658 11.240 11.059 11.242 C 7.430 11.243,4.382 11.259,4.286 11.277 C 3.920 11.348,3.780 11.548,3.780 12.000 C 3.780 12.452,3.920 12.652,4.286 12.723 C 4.382 12.741,7.430 12.757,11.059 12.758 L 17.658 12.760 14.876 15.550 C 13.108 17.323,12.069 18.393,12.026 18.486 C 11.990 18.566,11.960 18.693,11.960 18.768 C 11.960 18.938,12.140 19.230,12.339 19.382 C 12.528 19.526,12.843 19.561,13.043 19.460 C 13.248 19.356,20.119 12.495,20.208 12.306 C 20.300 12.109,20.300 11.891,20.208 11.694 C 20.130 11.528,13.263 4.653,13.081 4.559 C 12.921 4.476,12.750 4.451,12.600 4.490 " stroke="none" fill-rule="evenodd" fill="black"></path></svg>