<svg width="24" height="24" viewBox="0 0 24 24" fill="none" xmlns="http://www.w3.org/2000/svg"><path d="M14.729 2.285 C 14.520 2.388,14.294 2.645,14.233 2.848 C 14.129 3.194,14.060 3.113,16.731 5.788 L 19.174 8.236 13.737 8.252 C 7.903 8.270,8.118 8.263,7.300 8.475 C 6.019 8.806,4.808 9.553,3.936 10.551 C 3.064 11.548,2.505 12.770,2.320 14.080 C 2.258 14.517,2.258 15.483,2.320 15.920 C 2.705 18.651,4.699 20.873,7.360 21.538 C 8.101 21.723,8.344 21.739,10.360 21.740 C 12.188 21.740,12.265 21.737,12.396 21.660 C 12.581 21.551,12.682 21.404,12.723 21.185 C 12.792 20.818,12.669 20.501,12.396 20.340 C 12.266 20.264,12.164 20.259,10.240 20.236 C 8.047 20.210,8.001 20.205,7.300 19.961 C 6.532 19.694,5.882 19.285,5.299 18.701 C 4.558 17.960,4.076 17.073,3.853 16.039 C 3.750 15.562,3.750 14.438,3.853 13.961 C 4.076 12.927,4.558 12.040,5.299 11.299 C 6.024 10.573,6.871 10.107,7.920 9.855 C 8.200 9.788,8.586 9.782,13.700 9.771 L 19.180 9.758 16.733 12.209 C 14.046 14.902,14.129 14.804,14.237 15.165 C 14.304 15.388,14.618 15.700,14.835 15.759 C 15.215 15.861,15.032 16.020,18.480 12.587 C 20.207 10.867,21.654 9.397,21.697 9.320 C 21.797 9.139,21.796 8.861,21.697 8.680 C 21.572 8.455,15.408 2.335,15.231 2.262 C 15.033 2.179,14.933 2.184,14.729 2.285 " stroke="none" fill-rule="evenodd" fill="black"></path></svg>