<svg width="24" height="24" viewBox="0 0 24 24" fill="none" xmlns="http://www.w3.org/2000/svg"><path d="M13.640 3.760 C 8.284 3.779,7.932 3.784,7.810 3.851 C 7.622 3.954,7.520 4.181,7.520 4.500 C 7.520 4.852,7.623 5.058,7.852 5.162 C 8.014 5.236,8.189 5.238,12.860 5.239 L 17.700 5.240 10.774 12.170 C 6.964 15.982,3.819 19.158,3.784 19.228 C 3.656 19.484,3.738 19.815,3.986 20.045 C 4.237 20.278,4.523 20.340,4.772 20.216 C 4.842 20.181,8.018 17.036,11.830 13.226 L 18.760 6.300 18.761 11.140 C 18.762 15.811,18.764 15.986,18.838 16.148 C 18.942 16.377,19.148 16.480,19.500 16.480 C 19.855 16.480,20.060 16.377,20.162 16.145 C 20.235 15.980,20.238 15.763,20.241 10.125 L 20.245 4.276 20.160 4.100 C 20.091 3.957,20.033 3.903,19.860 3.822 C 19.723 3.757,19.589 3.724,19.492 3.730 C 19.409 3.735,16.775 3.748,13.640 3.760 " stroke="none" fill-rule="evenodd" fill="black"></path></svg>