<svg width="24" height="24" viewBox="0 0 24 24" fill="none" xmlns="http://www.w3.org/2000/svg"><path d="M11.603 1.588 C 11.424 1.682,11.319 1.830,11.277 2.046 C 11.259 2.142,11.243 4.685,11.242 7.698 L 11.240 13.176 10.290 12.232 C 9.236 11.186,9.166 11.138,8.835 11.237 C 8.617 11.302,8.302 11.617,8.237 11.835 C 8.132 12.184,8.126 12.175,9.914 13.980 C 10.808 14.882,11.603 15.655,11.680 15.697 C 11.861 15.796,12.139 15.796,12.320 15.697 C 12.397 15.655,13.192 14.882,14.086 13.980 C 15.872 12.178,15.857 12.198,15.759 11.835 C 15.700 11.618,15.388 11.304,15.165 11.237 C 14.834 11.138,14.763 11.186,13.711 12.232 L 12.762 13.175 12.751 7.577 C 12.740 2.062,12.739 1.978,12.660 1.844 C 12.521 1.608,12.392 1.542,12.047 1.528 C 11.811 1.519,11.708 1.533,11.603 1.588 M6.800 7.581 C 6.657 7.612,6.378 7.719,6.180 7.818 C 5.573 8.121,5.120 8.573,4.818 9.180 C 4.506 9.805,4.521 9.503,4.521 15.000 C 4.521 20.497,4.506 20.195,4.818 20.820 C 5.121 21.427,5.573 21.879,6.180 22.182 C 6.805 22.494,6.503 22.479,12.000 22.479 C 17.497 22.479,17.195 22.494,17.820 22.182 C 18.427 21.879,18.879 21.427,19.182 20.820 C 19.494 20.195,19.479 20.497,19.479 15.000 C 19.479 9.503,19.494 9.805,19.182 9.180 C 18.879 8.573,18.427 8.121,17.820 7.818 C 17.270 7.543,17.064 7.514,15.757 7.528 C 14.699 7.539,14.640 7.544,14.533 7.624 C 14.337 7.771,14.267 7.938,14.267 8.260 C 14.267 8.490,14.285 8.579,14.357 8.695 C 14.525 8.967,14.573 8.978,15.780 9.000 C 16.860 9.020,16.860 9.020,17.100 9.132 C 17.415 9.279,17.724 9.587,17.867 9.896 L 17.980 10.140 17.980 15.000 L 17.980 19.860 17.867 20.104 C 17.724 20.413,17.415 20.721,17.100 20.868 L 16.860 20.980 12.000 20.980 L 7.140 20.980 6.896 20.867 C 6.587 20.724,6.279 20.415,6.132 20.100 L 6.020 19.860 6.020 15.000 L 6.020 10.140 6.132 9.900 C 6.279 9.585,6.587 9.276,6.896 9.133 L 7.140 9.020 8.220 9.000 C 9.209 8.982,9.311 8.973,9.433 8.900 C 9.650 8.769,9.729 8.600,9.731 8.263 C 9.733 7.937,9.665 7.772,9.467 7.624 C 9.359 7.544,9.305 7.540,8.207 7.532 C 7.344 7.527,6.996 7.539,6.800 7.581 " stroke="none" fill-rule="evenodd" fill="black"></path></svg>