<svg width="24" height="24" viewBox="0 0 24 24" fill="none" xmlns="http://www.w3.org/2000/svg"><path d="M4.118 3.832 C 3.968 3.903,3.906 3.963,3.840 4.100 L 3.755 4.276 3.759 10.125 C 3.762 15.763,3.765 15.980,3.838 16.145 C 3.940 16.377,4.145 16.480,4.500 16.480 C 4.852 16.480,5.058 16.377,5.162 16.148 C 5.236 15.986,5.238 15.811,5.239 11.140 L 5.240 6.300 12.170 13.226 C 15.982 17.036,19.158 20.181,19.228 20.216 C 19.484 20.344,19.815 20.262,20.045 20.014 C 20.278 19.763,20.340 19.477,20.216 19.228 C 20.181 19.158,17.036 15.982,13.226 12.170 L 6.300 5.240 11.140 5.239 C 15.811 5.238,15.986 5.236,16.148 5.162 C 16.377 5.058,16.480 4.852,16.480 4.500 C 16.480 4.145,16.377 3.940,16.145 3.838 C 15.981 3.765,15.754 3.762,10.143 3.751 L 4.312 3.740 4.118 3.832 " stroke="none" fill-rule="evenodd" fill="black"></path></svg>