<svg width="24" height="24" viewBox="0 0 24 24" fill="none" xmlns="http://www.w3.org/2000/svg"><path d="M11.320 2.280 C 9.441 2.407,7.648 3.082,6.084 4.252 C 5.591 4.620,4.620 5.591,4.252 6.084 C 3.226 7.456,2.607 8.935,2.357 10.608 C 2.238 11.410,2.238 12.590,2.357 13.392 C 2.607 15.065,3.226 16.544,4.252 17.916 C 4.620 18.409,5.591 19.380,6.084 19.748 C 7.457 20.775,8.938 21.395,10.608 21.642 C 11.784 21.817,13.262 21.739,14.412 21.442 C 15.680 21.115,16.841 20.553,17.916 19.748 C 18.409 19.379,19.379 18.409,19.748 17.916 C 20.773 16.548,21.395 15.063,21.642 13.392 C 21.761 12.591,21.761 11.409,21.642 10.608 C 21.395 8.937,20.773 7.452,19.748 6.084 C 19.379 5.591,18.409 4.621,17.916 4.252 C 16.786 3.406,15.392 2.757,14.120 2.486 C 13.247 2.300,12.184 2.222,11.320 2.280 M13.180 3.838 C 14.600 4.049,15.862 4.579,17.009 5.445 C 17.434 5.766,18.234 6.566,18.555 6.991 C 20.636 9.747,20.811 13.444,18.999 16.366 C 18.375 17.371,17.371 18.375,16.366 18.999 C 13.687 20.661,10.313 20.661,7.634 18.999 C 6.629 18.375,5.625 17.371,5.001 16.366 C 3.491 13.931,3.342 10.873,4.609 8.343 C 5.042 7.479,5.477 6.878,6.177 6.177 C 7.056 5.299,8.001 4.686,9.125 4.266 C 10.372 3.800,11.867 3.642,13.180 3.838 M11.101 8.229 C 10.931 8.272,10.697 8.487,9.170 10.006 C 8.163 11.008,7.567 11.631,7.530 11.720 C 7.457 11.893,7.457 12.109,7.532 12.285 C 7.591 12.427,10.638 15.490,10.889 15.661 C 11.176 15.855,11.473 15.817,11.754 15.548 C 12.031 15.282,12.103 14.999,11.963 14.728 C 11.920 14.647,11.479 14.175,10.982 13.680 L 10.079 12.780 13.050 12.760 C 15.929 12.741,16.024 12.738,16.156 12.660 C 16.407 12.512,16.460 12.398,16.460 12.000 C 16.460 11.602,16.407 11.488,16.156 11.340 C 16.024 11.262,15.929 11.259,13.050 11.240 L 10.079 11.220 10.982 10.320 C 11.479 9.825,11.920 9.353,11.963 9.272 C 12.103 9.001,12.031 8.718,11.754 8.452 C 11.544 8.251,11.319 8.174,11.101 8.229 " stroke="none" fill-rule="evenodd" fill="black"></path></svg>