<svg width="24" height="24" viewBox="0 0 24 24" fill="none" xmlns="http://www.w3.org/2000/svg"><path d="M11.140 4.480 C 11.074 4.494,10.975 4.529,10.920 4.558 C 10.736 4.653,3.870 11.528,3.792 11.694 C 3.700 11.891,3.700 12.109,3.792 12.306 C 3.881 12.495,10.752 19.356,10.957 19.460 C 11.157 19.561,11.472 19.526,11.661 19.382 C 11.860 19.230,12.040 18.938,12.040 18.768 C 12.040 18.693,12.010 18.566,11.974 18.486 C 11.931 18.393,10.892 17.323,9.124 15.550 L 6.342 12.760 12.941 12.758 C 16.570 12.757,19.618 12.741,19.714 12.723 C 20.080 12.652,20.220 12.452,20.220 12.000 C 20.220 11.548,20.080 11.348,19.714 11.277 C 19.618 11.259,16.571 11.243,12.941 11.242 L 6.342 11.240 9.125 8.450 C 10.887 6.683,11.931 5.606,11.973 5.514 C 12.071 5.299,12.057 5.123,11.924 4.913 C 11.724 4.597,11.408 4.423,11.140 4.480 " stroke="none" fill-rule="evenodd" fill="black"></path></svg>