<svg width="24" height="24" viewBox="0 0 24 24" fill="none" xmlns="http://www.w3.org/2000/svg"><path d="M10.210 3.793 C 9.997 3.906,2.363 11.553,2.276 11.740 C 2.182 11.942,2.182 12.058,2.276 12.260 C 2.363 12.447,9.997 20.094,10.210 20.207 C 10.545 20.386,10.994 20.198,11.204 19.792 C 11.301 19.602,11.301 19.397,11.203 19.208 C 11.160 19.126,9.733 17.669,7.983 15.920 L 4.840 12.780 13.050 12.760 C 21.170 12.740,21.261 12.739,21.396 12.660 C 21.669 12.499,21.792 12.182,21.723 11.815 C 21.682 11.596,21.581 11.449,21.396 11.340 C 21.261 11.261,21.170 11.260,13.050 11.240 L 4.840 11.220 7.983 8.080 C 9.733 6.331,11.160 4.874,11.203 4.792 C 11.301 4.603,11.301 4.398,11.204 4.208 C 10.994 3.802,10.545 3.614,10.210 3.793 " stroke="none" fill-rule="evenodd" fill="black"></path></svg>