<svg width="24" height="24" viewBox="0 0 24 24" fill="none" xmlns="http://www.w3.org/2000/svg"><path d="M14.720 2.291 C 14.590 2.355,13.673 3.251,11.414 5.520 C 7.983 8.966,8.127 8.800,8.237 9.165 C 8.304 9.388,8.618 9.700,8.835 9.759 C 9.211 9.860,9.098 9.955,11.791 7.267 L 14.242 4.820 14.229 10.300 C 14.218 15.414,14.212 15.800,14.145 16.080 C 13.893 17.129,13.427 17.976,12.701 18.701 C 11.960 19.442,11.073 19.924,10.039 20.147 C 9.562 20.250,8.438 20.250,7.961 20.147 C 6.927 19.924,6.040 19.442,5.299 18.701 C 4.715 18.118,4.306 17.468,4.039 16.700 C 3.795 15.999,3.790 15.953,3.764 13.760 C 3.741 11.836,3.736 11.734,3.660 11.604 C 3.551 11.419,3.404 11.318,3.185 11.277 C 2.818 11.208,2.501 11.331,2.340 11.604 C 2.263 11.735,2.260 11.812,2.260 13.640 C 2.261 15.656,2.277 15.899,2.462 16.640 C 3.063 19.046,4.956 20.939,7.360 21.537 C 7.925 21.678,8.354 21.728,9.000 21.728 C 9.646 21.728,10.075 21.678,10.640 21.537 C 13.018 20.945,14.913 19.069,15.525 16.700 C 15.737 15.882,15.730 16.097,15.748 10.263 L 15.764 4.826 18.212 7.270 C 20.902 9.955,20.789 9.860,21.165 9.759 C 21.386 9.699,21.699 9.386,21.759 9.165 C 21.861 8.785,22.020 8.968,18.587 5.520 C 15.429 2.348,15.269 2.201,15.000 2.201 C 14.945 2.201,14.819 2.241,14.720 2.291 " stroke="none" fill-rule="evenodd" fill="black"></path></svg>