<svg width="24" height="24" viewBox="0 0 24 24" fill="none" xmlns="http://www.w3.org/2000/svg"><path d="M3.500 3.023 C 3.333 3.109,3.095 3.348,3.021 3.503 C 2.942 3.669,2.943 3.851,3.024 4.012 C 3.059 4.082,4.009 5.063,5.134 6.190 L 7.179 8.240 5.819 8.242 C 5.072 8.243,4.382 8.259,4.286 8.277 C 3.920 8.348,3.780 8.548,3.780 9.000 C 3.780 9.452,3.921 9.653,4.286 9.722 C 4.382 9.740,5.525 9.758,6.826 9.760 C 9.105 9.766,9.197 9.763,9.346 9.687 C 9.523 9.597,9.602 9.515,9.698 9.326 C 9.760 9.205,9.765 8.977,9.760 6.826 C 9.758 5.525,9.740 4.382,9.722 4.286 C 9.653 3.921,9.452 3.780,9.000 3.780 C 8.548 3.780,8.348 3.920,8.277 4.286 C 8.259 4.382,8.243 5.072,8.242 5.819 L 8.240 7.179 6.190 5.134 C 5.062 4.009,4.082 3.059,4.012 3.024 C 3.850 2.943,3.655 2.943,3.500 3.023 M19.960 3.041 C 19.883 3.088,18.907 4.039,17.790 5.153 L 15.760 7.180 15.758 5.820 C 15.757 5.072,15.741 4.382,15.723 4.286 C 15.652 3.920,15.452 3.780,15.000 3.780 C 14.548 3.780,14.347 3.921,14.278 4.286 C 14.260 4.382,14.242 5.524,14.239 6.824 C 14.232 9.114,14.234 9.192,14.312 9.344 C 14.403 9.522,14.484 9.602,14.674 9.698 C 14.795 9.760,15.023 9.765,17.174 9.760 C 18.475 9.758,19.618 9.740,19.714 9.722 C 20.079 9.653,20.220 9.452,20.220 9.000 C 20.220 8.548,20.080 8.348,19.714 8.277 C 19.618 8.259,18.928 8.243,18.181 8.242 L 16.821 8.240 18.866 6.190 C 19.991 5.063,20.943 4.079,20.980 4.003 C 21.122 3.721,20.999 3.406,20.629 3.107 C 20.432 2.947,20.158 2.920,19.960 3.041 M6.560 14.239 C 4.488 14.258,4.206 14.268,4.100 14.326 C 3.848 14.464,3.740 14.707,3.768 15.074 C 3.797 15.465,3.951 15.658,4.286 15.723 C 4.382 15.741,5.072 15.757,5.819 15.758 L 7.179 15.760 5.134 17.810 C 4.009 18.938,3.057 19.921,3.020 19.997 C 2.878 20.279,3.001 20.594,3.369 20.892 C 3.554 21.041,3.810 21.077,4.003 20.980 C 4.079 20.943,5.063 19.991,6.190 18.866 L 8.240 16.821 8.242 18.181 C 8.243 18.928,8.259 19.618,8.277 19.714 C 8.348 20.080,8.548 20.220,9.000 20.220 C 9.452 20.220,9.653 20.079,9.722 19.714 C 9.740 19.618,9.758 18.475,9.760 17.174 C 9.766 14.895,9.763 14.803,9.687 14.654 C 9.644 14.569,9.575 14.469,9.534 14.432 C 9.419 14.329,9.112 14.201,9.000 14.210 C 8.945 14.214,7.847 14.227,6.560 14.239 M14.703 14.292 C 14.494 14.386,14.410 14.464,14.312 14.656 C 14.234 14.808,14.232 14.886,14.239 17.176 C 14.242 18.476,14.260 19.618,14.278 19.714 C 14.347 20.079,14.548 20.220,15.000 20.220 C 15.452 20.220,15.652 20.080,15.723 19.714 C 15.741 19.618,15.757 18.928,15.758 18.181 L 15.760 16.821 17.810 18.866 C 18.938 19.991,19.921 20.943,19.997 20.980 C 20.190 21.077,20.446 21.041,20.631 20.892 C 20.999 20.594,21.122 20.279,20.980 19.997 C 20.943 19.921,19.991 18.938,18.866 17.810 L 16.821 15.760 18.181 15.758 C 18.928 15.757,19.618 15.741,19.714 15.723 C 20.080 15.652,20.220 15.452,20.220 15.000 C 20.220 14.505,20.050 14.306,19.589 14.262 C 19.452 14.249,18.333 14.234,17.102 14.229 C 15.019 14.221,14.853 14.225,14.703 14.292 " stroke="none" fill-rule="evenodd" fill="black"></path></svg>