<svg width="24" height="24" viewBox="0 0 24 24" fill="none" xmlns="http://www.w3.org/2000/svg"><path d="M3.380 3.080 C 3.212 3.164,3.164 3.215,3.078 3.400 L 2.975 3.620 2.998 6.080 C 3.019 8.461,3.023 8.544,3.101 8.679 C 3.231 8.898,3.409 8.980,3.760 8.980 C 4.114 8.980,4.268 8.907,4.396 8.678 C 4.477 8.534,4.480 8.477,4.480 7.065 C 4.480 6.259,4.493 5.600,4.509 5.600 C 4.525 5.600,5.466 6.526,6.599 7.657 C 8.864 9.917,8.793 9.859,9.165 9.759 C 9.386 9.699,9.699 9.386,9.759 9.165 C 9.859 8.793,9.917 8.864,7.657 6.599 C 6.526 5.466,5.600 4.525,5.600 4.509 C 5.600 4.493,6.259 4.480,7.065 4.480 C 8.477 4.480,8.534 4.477,8.678 4.396 C 8.868 4.289,8.960 4.132,8.987 3.869 C 9.030 3.451,8.854 3.129,8.536 3.045 C 8.440 3.020,7.465 2.999,5.980 2.992 L 3.580 2.980 3.380 3.080 M17.780 2.999 C 15.539 3.019,15.455 3.023,15.321 3.101 C 15.102 3.231,15.020 3.409,15.020 3.760 C 15.020 4.114,15.093 4.268,15.322 4.396 C 15.466 4.477,15.523 4.480,16.935 4.480 C 17.741 4.480,18.400 4.493,18.400 4.509 C 18.400 4.525,17.475 5.466,16.344 6.599 C 14.083 8.865,14.130 8.808,14.237 9.165 C 14.304 9.388,14.618 9.700,14.835 9.759 C 15.207 9.859,15.136 9.917,17.401 7.657 C 18.534 6.526,19.475 5.600,19.491 5.600 C 19.507 5.600,19.520 6.259,19.520 7.065 C 19.520 8.477,19.523 8.534,19.604 8.678 C 19.732 8.907,19.886 8.980,20.240 8.980 C 20.591 8.980,20.769 8.898,20.899 8.679 C 20.977 8.544,20.981 8.461,21.002 6.080 L 21.025 3.620 20.922 3.400 C 20.834 3.211,20.789 3.165,20.603 3.070 C 20.464 3.000,20.334 2.963,20.243 2.969 C 20.164 2.974,19.056 2.988,17.780 2.999 M8.760 14.263 C 8.672 14.301,7.867 15.075,6.579 16.362 C 5.457 17.483,4.526 18.400,4.509 18.400 C 4.493 18.400,4.480 17.741,4.480 16.935 C 4.480 15.523,4.477 15.466,4.396 15.322 C 4.268 15.093,4.114 15.020,3.760 15.020 C 3.409 15.020,3.231 15.102,3.101 15.321 C 3.023 15.456,3.019 15.539,2.998 17.920 L 2.975 20.380 3.078 20.600 C 3.168 20.794,3.206 20.832,3.400 20.922 L 3.620 21.025 6.080 21.002 C 8.461 20.981,8.544 20.977,8.679 20.899 C 8.898 20.769,8.980 20.591,8.980 20.240 C 8.980 19.886,8.907 19.732,8.678 19.604 C 8.534 19.523,8.477 19.520,7.065 19.520 C 6.259 19.520,5.600 19.507,5.600 19.491 C 5.600 19.475,6.526 18.534,7.657 17.401 C 9.475 15.579,9.719 15.320,9.758 15.170 C 9.818 14.944,9.762 14.743,9.580 14.531 C 9.429 14.354,9.154 14.199,8.997 14.202 C 8.944 14.202,8.837 14.230,8.760 14.263 M14.729 14.285 C 14.520 14.388,14.294 14.645,14.233 14.848 C 14.130 15.190,14.096 15.148,16.344 17.401 C 17.475 18.534,18.400 19.475,18.400 19.491 C 18.400 19.507,17.741 19.520,16.935 19.520 C 15.523 19.520,15.466 19.523,15.322 19.604 C 15.093 19.732,15.020 19.886,15.020 20.240 C 15.020 20.591,15.102 20.769,15.321 20.899 C 15.456 20.977,15.539 20.981,17.920 21.002 L 20.380 21.025 20.600 20.922 C 20.794 20.832,20.832 20.794,20.922 20.600 L 21.025 20.380 21.002 17.920 C 20.981 15.539,20.977 15.456,20.899 15.321 C 20.769 15.102,20.591 15.020,20.240 15.020 C 19.886 15.020,19.732 15.093,19.604 15.322 C 19.523 15.466,19.520 15.523,19.520 16.935 C 19.520 17.741,19.507 18.400,19.491 18.400 C 19.474 18.400,18.543 17.483,17.421 16.362 C 16.016 14.959,15.334 14.304,15.231 14.262 C 15.033 14.179,14.933 14.184,14.729 14.285 " stroke="none" fill-rule="evenodd" fill="black"></path></svg>