<svg width="24" height="24" viewBox="0 0 24 24" fill="none" xmlns="http://www.w3.org/2000/svg"><path d="M11.787 2.278 C 11.598 2.316,11.444 2.427,11.340 2.604 C 11.261 2.738,11.260 2.822,11.249 8.697 L 11.238 14.655 9.569 12.993 C 7.726 11.158,7.696 11.135,7.355 11.237 C 7.176 11.290,6.867 11.553,6.777 11.726 C 6.701 11.873,6.705 12.134,6.785 12.292 C 6.887 12.492,11.511 17.123,11.694 17.208 C 11.891 17.300,12.109 17.300,12.306 17.208 C 12.489 17.123,17.113 12.492,17.215 12.292 C 17.295 12.134,17.299 11.873,17.223 11.726 C 17.133 11.553,16.824 11.290,16.645 11.237 C 16.304 11.135,16.275 11.158,14.430 12.994 L 12.760 14.656 12.758 8.818 C 12.757 5.607,12.741 2.902,12.723 2.806 C 12.644 2.398,12.265 2.185,11.787 2.278 M2.660 15.808 C 2.508 15.862,2.409 15.948,2.326 16.100 C 2.268 16.205,2.260 16.399,2.260 17.680 C 2.260 18.937,2.270 19.182,2.331 19.442 C 2.586 20.529,3.471 21.414,4.558 21.669 C 4.841 21.736,5.306 21.740,12.000 21.740 C 18.694 21.740,19.159 21.736,19.442 21.669 C 20.500 21.421,21.362 20.583,21.648 19.526 C 21.721 19.256,21.733 19.072,21.750 17.948 C 21.760 17.249,21.757 16.561,21.741 16.420 C 21.694 15.981,21.509 15.800,21.074 15.768 C 20.833 15.750,20.586 15.809,20.466 15.915 C 20.267 16.089,20.262 16.127,20.240 17.680 L 20.220 19.140 20.112 19.369 C 19.975 19.663,19.663 19.975,19.369 20.112 L 19.140 20.220 12.000 20.220 L 4.860 20.220 4.631 20.112 C 4.337 19.975,4.025 19.663,3.888 19.369 L 3.780 19.140 3.760 17.680 C 3.738 16.127,3.733 16.088,3.534 15.916 C 3.364 15.768,2.927 15.715,2.660 15.808 " stroke="none" fill-rule="evenodd" fill="black"></path></svg>