<svg width="24" height="24" viewBox="0 0 24 24" fill="none" xmlns="http://www.w3.org/2000/svg"><path d="M16.280 2.264 C 16.117 2.334,15.858 2.573,15.777 2.728 C 15.701 2.872,15.705 3.134,15.785 3.292 C 15.821 3.362,16.598 4.171,17.513 5.090 L 19.177 6.760 13.221 6.760 C 7.289 6.760,7.265 6.760,7.095 6.842 C 6.638 7.064,6.638 7.936,7.095 8.158 C 7.265 8.240,7.289 8.240,13.221 8.240 L 19.177 8.240 17.513 9.910 C 16.598 10.829,15.821 11.638,15.785 11.708 C 15.705 11.866,15.701 12.127,15.777 12.274 C 15.867 12.447,16.176 12.710,16.355 12.763 C 16.705 12.868,16.664 12.903,19.260 10.324 C 21.216 8.381,21.635 7.946,21.709 7.780 C 21.758 7.670,21.798 7.544,21.798 7.500 C 21.798 7.456,21.758 7.330,21.709 7.220 C 21.635 7.054,21.217 6.619,19.278 4.692 C 16.636 2.065,16.672 2.094,16.280 2.264 M7.242 11.283 C 7.108 11.344,6.481 11.942,4.722 13.692 C 2.783 15.619,2.365 16.054,2.291 16.220 C 2.242 16.330,2.202 16.456,2.202 16.500 C 2.202 16.544,2.242 16.670,2.291 16.780 C 2.365 16.946,2.784 17.381,4.740 19.324 C 7.336 21.903,7.295 21.868,7.645 21.763 C 7.824 21.710,8.133 21.447,8.223 21.274 C 8.299 21.127,8.295 20.866,8.215 20.708 C 8.179 20.638,7.402 19.829,6.487 18.910 L 4.823 17.240 10.779 17.240 C 16.711 17.240,16.735 17.240,16.905 17.158 C 17.127 17.050,17.240 16.828,17.240 16.500 C 17.240 16.172,17.127 15.950,16.905 15.842 C 16.735 15.760,16.711 15.760,10.779 15.760 L 4.823 15.760 6.487 14.090 C 7.402 13.172,8.179 12.362,8.215 12.292 C 8.295 12.134,8.299 11.872,8.223 11.728 C 8.094 11.482,7.700 11.198,7.491 11.201 C 7.452 11.201,7.340 11.238,7.242 11.283 " stroke="none" fill-rule="evenodd" fill="black"></path></svg>