<svg width="24" height="24" viewBox="0 0 24 24" fill="none" xmlns="http://www.w3.org/2000/svg"><path d="M11.340 3.024 C 10.437 3.117,9.866 3.233,9.160 3.465 C 6.429 4.367,4.210 6.638,3.401 9.364 C 3.254 9.859,3.246 10.097,3.370 10.284 C 3.558 10.568,4.124 10.709,4.430 10.547 C 4.592 10.461,4.664 10.318,4.892 9.634 C 6.193 5.730,10.387 3.605,14.300 4.868 C 14.860 5.049,15.271 5.230,15.755 5.510 C 16.502 5.941,16.983 6.353,18.380 7.756 L 19.219 8.600 17.536 8.600 C 15.748 8.600,15.670 8.607,15.470 8.793 C 15.160 9.081,15.238 9.815,15.598 9.999 C 15.740 10.071,15.881 10.075,18.508 10.083 L 21.270 10.091 21.435 9.998 C 21.547 9.935,21.627 9.849,21.685 9.729 C 21.770 9.555,21.770 9.533,21.764 6.847 C 21.757 4.142,21.757 4.140,21.668 3.961 C 21.545 3.709,21.377 3.622,21.020 3.622 C 20.705 3.622,20.530 3.697,20.384 3.893 C 20.302 4.003,20.300 4.048,20.289 5.768 L 20.278 7.530 19.129 6.394 C 17.972 5.250,17.567 4.896,16.928 4.468 C 16.522 4.196,15.607 3.736,15.120 3.558 C 14.648 3.387,13.820 3.176,13.320 3.100 C 12.913 3.039,11.666 2.991,11.340 3.024 M19.660 13.420 C 19.572 13.451,19.462 13.524,19.416 13.582 C 19.370 13.639,19.248 13.945,19.145 14.261 C 17.701 18.683,12.759 20.766,8.625 18.695 C 7.716 18.240,7.348 17.945,5.900 16.511 L 4.780 15.402 6.464 15.401 C 8.242 15.400,8.331 15.392,8.524 15.213 C 8.838 14.922,8.763 14.185,8.402 14.001 C 8.260 13.929,8.119 13.925,5.492 13.917 L 2.730 13.909 2.565 14.002 C 2.453 14.065,2.373 14.151,2.315 14.271 C 2.230 14.445,2.230 14.467,2.236 17.153 C 2.243 19.858,2.243 19.860,2.332 20.039 C 2.455 20.291,2.623 20.378,2.980 20.378 C 3.295 20.378,3.470 20.303,3.616 20.107 C 3.698 19.997,3.700 19.952,3.711 18.232 L 3.722 16.470 4.871 17.606 C 6.397 19.115,6.900 19.509,7.980 20.042 C 8.648 20.371,9.043 20.519,9.740 20.701 C 10.571 20.918,11.065 20.978,12.000 20.977 C 12.909 20.976,13.421 20.916,14.204 20.720 C 17.261 19.951,19.751 17.566,20.617 14.578 C 20.747 14.132,20.750 13.897,20.630 13.716 C 20.459 13.458,19.971 13.309,19.660 13.420 " stroke="none" fill-rule="evenodd" fill="black"></path></svg>