<svg width="24" height="24" viewBox="0 0 24 24" fill="none" xmlns="http://www.w3.org/2000/svg"><path d="M7.220 2.291 C 7.054 2.365,6.619 2.784,4.676 4.740 C 2.097 7.336,2.132 7.295,2.237 7.645 C 2.290 7.824,2.553 8.133,2.726 8.223 C 2.873 8.299,3.134 8.295,3.292 8.215 C 3.362 8.179,4.171 7.402,5.090 6.487 L 6.760 4.823 6.760 10.779 C 6.760 16.711,6.760 16.735,6.842 16.905 C 7.064 17.362,7.936 17.362,8.158 16.905 C 8.240 16.735,8.240 16.711,8.240 10.779 L 8.240 4.823 9.910 6.487 C 10.829 7.402,11.638 8.179,11.708 8.215 C 11.866 8.295,12.127 8.299,12.274 8.223 C 12.447 8.133,12.710 7.824,12.763 7.645 C 12.868 7.295,12.903 7.336,10.324 4.740 C 8.381 2.784,7.946 2.365,7.780 2.291 C 7.670 2.242,7.544 2.202,7.500 2.202 C 7.456 2.202,7.330 2.242,7.220 2.291 M16.092 6.843 C 15.972 6.903,15.901 6.975,15.842 7.096 C 15.760 7.264,15.760 7.298,15.760 13.221 L 15.760 19.177 14.090 17.513 C 13.171 16.598,12.362 15.821,12.292 15.785 C 12.134 15.705,11.873 15.701,11.726 15.777 C 11.553 15.867,11.290 16.176,11.237 16.355 C 11.132 16.705,11.097 16.664,13.676 19.260 C 16.392 21.995,16.300 21.922,16.780 21.709 C 16.946 21.635,17.381 21.216,19.324 19.260 C 21.903 16.664,21.868 16.705,21.763 16.355 C 21.710 16.176,21.447 15.867,21.274 15.777 C 21.127 15.701,20.866 15.705,20.708 15.785 C 20.638 15.821,19.829 16.598,18.910 17.513 L 17.240 19.177 17.240 13.221 C 17.240 7.289,17.240 7.265,17.158 7.095 C 17.003 6.777,16.478 6.652,16.092 6.843 " stroke="none" fill-rule="evenodd" fill="black"></path></svg>