<svg width="24" height="24" viewBox="0 0 24 24" fill="none" xmlns="http://www.w3.org/2000/svg"><path d="M17.220 7.463 C 17.198 7.469,17.129 7.484,17.068 7.498 C 16.935 7.527,16.619 7.807,16.534 7.971 C 16.463 8.110,16.456 8.337,16.519 8.500 C 16.545 8.568,17.134 9.191,17.871 9.929 L 19.177 11.239 10.959 11.249 C 2.822 11.260,2.739 11.261,2.604 11.340 C 2.419 11.449,2.318 11.596,2.277 11.815 C 2.208 12.182,2.331 12.499,2.604 12.660 C 2.739 12.739,2.822 12.740,10.959 12.751 L 19.177 12.761 17.871 14.071 C 17.134 14.809,16.545 15.432,16.519 15.500 C 16.456 15.663,16.463 15.891,16.534 16.027 C 16.602 16.156,16.857 16.409,16.987 16.475 C 17.118 16.542,17.404 16.529,17.550 16.450 C 17.716 16.359,21.628 12.458,21.711 12.300 C 21.797 12.136,21.791 11.850,21.697 11.680 C 21.655 11.603,20.711 10.638,19.600 9.536 C 17.847 7.797,17.559 7.527,17.420 7.493 C 17.332 7.471,17.242 7.458,17.220 7.463 " stroke="none" fill-rule="evenodd" fill="black"></path></svg>