<svg width="24" height="24" viewBox="0 0 24 24" fill="none" xmlns="http://www.w3.org/2000/svg"><path d="M18.180 2.239 L 15.460 2.260 15.309 2.354 C 15.090 2.490,15.022 2.643,15.022 3.000 C 15.022 3.357,15.090 3.510,15.309 3.646 L 15.460 3.740 17.317 3.753 L 19.175 3.765 13.011 9.933 C 9.621 13.325,6.819 16.158,6.784 16.228 C 6.656 16.484,6.738 16.815,6.986 17.045 C 7.237 17.278,7.523 17.340,7.772 17.216 C 7.842 17.181,10.675 14.379,14.068 10.988 L 20.236 4.825 20.248 6.682 L 20.260 8.540 20.354 8.691 C 20.490 8.910,20.643 8.978,21.000 8.979 C 21.346 8.980,21.525 8.897,21.660 8.673 C 21.737 8.544,21.741 8.450,21.760 5.740 C 21.771 4.200,21.766 2.884,21.750 2.815 C 21.697 2.599,21.550 2.425,21.323 2.310 C 21.203 2.249,21.059 2.204,21.003 2.209 C 20.946 2.214,19.676 2.227,18.180 2.239 M4.872 5.282 C 3.646 5.425,2.615 6.348,2.331 7.558 C 2.265 7.840,2.260 8.242,2.260 13.500 C 2.260 18.758,2.265 19.160,2.331 19.442 C 2.586 20.529,3.471 21.414,4.558 21.669 C 4.840 21.735,5.242 21.740,10.500 21.740 C 15.758 21.740,16.160 21.735,16.442 21.669 C 17.499 21.421,18.350 20.595,18.652 19.526 C 18.737 19.223,18.738 19.183,18.752 14.940 C 18.759 12.586,18.754 10.548,18.740 10.411 C 18.695 9.982,18.507 9.800,18.074 9.768 C 17.707 9.740,17.464 9.848,17.326 10.100 C 17.266 10.209,17.258 10.637,17.240 14.680 L 17.220 19.140 17.112 19.369 C 16.975 19.663,16.663 19.975,16.369 20.112 L 16.140 20.220 10.500 20.220 L 4.860 20.220 4.631 20.112 C 4.337 19.975,4.025 19.663,3.888 19.369 L 3.780 19.140 3.780 13.500 L 3.780 7.860 3.888 7.631 C 4.025 7.337,4.337 7.025,4.631 6.888 L 4.860 6.780 9.320 6.760 C 13.363 6.742,13.791 6.734,13.900 6.674 C 14.152 6.536,14.260 6.293,14.232 5.926 C 14.203 5.535,14.049 5.342,13.714 5.277 C 13.496 5.235,5.237 5.239,4.872 5.282 " stroke="none" fill-rule="evenodd" fill="black"></path></svg>