<svg width="24" height="24" viewBox="0 0 24 24" fill="none" xmlns="http://www.w3.org/2000/svg"><path d="M10.092 0.843 C 9.972 0.903,9.901 0.975,9.842 1.096 C 9.761 1.264,9.760 1.301,9.760 6.833 C 9.760 9.895,9.746 12.400,9.730 12.400 C 9.713 12.400,9.303 12.003,8.820 11.518 C 8.336 11.033,7.881 10.600,7.810 10.555 C 7.521 10.374,7.160 10.486,6.868 10.848 C 6.715 11.038,6.678 11.323,6.781 11.523 C 6.819 11.599,7.572 12.389,8.455 13.280 C 10.096 14.936,10.212 15.036,10.500 15.036 C 10.789 15.036,10.904 14.936,12.545 13.280 C 13.427 12.389,14.181 11.599,14.219 11.523 C 14.322 11.323,14.285 11.038,14.132 10.848 C 13.840 10.486,13.479 10.374,13.190 10.555 C 13.119 10.600,12.664 11.033,12.180 11.518 C 11.697 12.003,11.287 12.400,11.270 12.400 C 11.254 12.400,11.240 9.895,11.240 6.833 C 11.240 1.293,11.240 1.264,11.158 1.095 C 11.003 0.777,10.478 0.652,10.092 0.843 M6.168 6.805 C 5.176 6.970,4.256 7.785,3.892 8.820 L 3.780 9.140 3.780 13.500 L 3.780 17.860 3.892 18.180 C 4.054 18.642,4.290 19.017,4.637 19.363 C 5.143 19.870,5.765 20.169,6.427 20.224 L 6.749 20.251 6.776 20.573 C 6.831 21.235,7.130 21.857,7.637 22.363 C 7.983 22.710,8.358 22.946,8.820 23.108 L 9.140 23.220 13.500 23.220 L 17.860 23.220 18.180 23.108 C 18.642 22.946,19.017 22.710,19.363 22.363 C 19.710 22.017,19.946 21.642,20.108 21.180 L 20.220 20.860 20.220 16.500 L 20.220 12.140 20.108 11.820 C 19.946 11.358,19.710 10.983,19.363 10.637 C 18.857 10.130,18.235 9.831,17.573 9.776 L 17.251 9.749 17.224 9.427 C 17.169 8.765,16.870 8.143,16.363 7.637 C 16.014 7.288,15.637 7.051,15.180 6.895 C 14.885 6.795,14.800 6.785,14.072 6.769 C 13.325 6.752,13.275 6.755,13.105 6.838 C 12.872 6.950,12.760 7.166,12.760 7.500 C 12.760 7.791,12.869 8.032,13.049 8.140 C 13.161 8.208,13.284 8.223,13.880 8.245 C 14.374 8.264,14.633 8.290,14.760 8.337 C 15.156 8.481,15.526 8.857,15.669 9.260 C 15.735 9.446,15.740 9.732,15.740 13.480 C 15.740 16.821,15.730 17.533,15.684 17.694 C 15.610 17.946,15.335 18.318,15.103 18.478 C 14.695 18.759,15.021 18.740,10.520 18.740 C 6.733 18.740,6.447 18.735,6.260 18.669 C 5.848 18.523,5.477 18.152,5.331 17.740 C 5.265 17.553,5.260 17.267,5.260 13.500 C 5.260 9.733,5.265 9.447,5.331 9.260 C 5.474 8.857,5.844 8.481,6.240 8.337 C 6.367 8.290,6.626 8.264,7.120 8.245 C 7.716 8.223,7.839 8.208,7.951 8.140 C 8.364 7.892,8.335 7.050,7.905 6.842 C 7.752 6.768,7.665 6.760,7.057 6.765 C 6.685 6.767,6.285 6.785,6.168 6.805 M17.760 11.344 C 18.142 11.467,18.524 11.853,18.669 12.260 C 18.735 12.446,18.740 12.732,18.740 16.480 C 18.740 19.821,18.730 20.533,18.684 20.694 C 18.610 20.946,18.335 21.318,18.103 21.478 C 17.695 21.759,18.021 21.740,13.520 21.740 C 8.987 21.740,9.277 21.758,8.870 21.459 C 8.534 21.212,8.329 20.860,8.259 20.412 L 8.233 20.243 11.547 20.232 L 14.860 20.220 15.180 20.108 C 15.642 19.946,16.017 19.710,16.363 19.363 C 16.710 19.017,16.946 18.642,17.108 18.180 L 17.220 17.860 17.232 14.547 L 17.243 11.233 17.412 11.259 C 17.504 11.274,17.661 11.312,17.760 11.344 " stroke="none" fill-rule="evenodd" fill="black"></path></svg>