<svg width="24" height="24" viewBox="0 0 24 24" fill="none" xmlns="http://www.w3.org/2000/svg"><path d="M11.320 2.280 C 9.441 2.407,7.648 3.082,6.084 4.252 C 5.591 4.620,4.620 5.591,4.252 6.084 C 3.226 7.456,2.607 8.935,2.357 10.608 C 2.238 11.410,2.238 12.590,2.357 13.392 C 2.607 15.065,3.226 16.544,4.252 17.916 C 4.620 18.409,5.591 19.380,6.084 19.748 C 7.457 20.775,8.938 21.395,10.608 21.642 C 11.784 21.817,13.262 21.739,14.412 21.442 C 15.680 21.115,16.841 20.553,17.916 19.748 C 18.409 19.379,19.379 18.409,19.748 17.916 C 20.773 16.548,21.395 15.063,21.642 13.392 C 21.761 12.591,21.761 11.409,21.642 10.608 C 21.395 8.937,20.773 7.452,19.748 6.084 C 19.379 5.591,18.409 4.621,17.916 4.252 C 16.786 3.406,15.392 2.757,14.120 2.486 C 13.247 2.300,12.184 2.222,11.320 2.280 M13.180 3.838 C 14.600 4.049,15.862 4.579,17.009 5.445 C 17.434 5.766,18.234 6.566,18.555 6.991 C 20.636 9.747,20.811 13.444,18.999 16.366 C 18.375 17.371,17.371 18.375,16.366 18.999 C 13.687 20.661,10.313 20.661,7.634 18.999 C 6.629 18.375,5.625 17.371,5.001 16.366 C 3.491 13.931,3.342 10.873,4.609 8.343 C 5.042 7.479,5.477 6.878,6.177 6.177 C 7.056 5.299,8.001 4.686,9.125 4.266 C 10.372 3.800,11.867 3.642,13.180 3.838 M12.520 8.262 C 12.231 8.391,11.960 8.748,11.960 9.000 C 11.960 9.068,11.995 9.190,12.037 9.272 C 12.080 9.353,12.521 9.825,13.018 10.320 L 13.921 11.220 10.950 11.240 C 8.071 11.259,7.976 11.262,7.844 11.340 C 7.593 11.488,7.540 11.602,7.540 12.000 C 7.540 12.398,7.593 12.512,7.844 12.660 C 7.976 12.738,8.071 12.741,10.950 12.760 L 13.921 12.780 13.018 13.680 C 12.521 14.175,12.080 14.647,12.037 14.728 C 11.897 14.999,11.969 15.282,12.246 15.548 C 12.527 15.817,12.824 15.855,13.111 15.661 C 13.352 15.496,16.408 12.427,16.466 12.291 C 16.496 12.220,16.520 12.089,16.520 12.000 C 16.520 11.911,16.496 11.780,16.466 11.709 C 16.408 11.572,13.351 8.503,13.108 8.337 C 12.922 8.211,12.698 8.183,12.520 8.262 " stroke="none" fill-rule="evenodd" fill="black"></path></svg>