<svg width="24" height="24" viewBox="0 0 24 24" fill="none" xmlns="http://www.w3.org/2000/svg"><path d="M8.760 2.264 C 8.671 2.302,7.490 3.449,5.500 5.432 C 2.349 8.571,2.201 8.731,2.201 9.000 C 2.201 9.269,2.348 9.429,5.520 12.587 C 8.968 16.020,8.785 15.861,9.165 15.759 C 9.386 15.699,9.699 15.386,9.759 15.165 C 9.860 14.789,9.955 14.902,7.267 12.209 L 4.820 9.758 10.300 9.771 C 15.414 9.782,15.800 9.788,16.080 9.855 C 17.129 10.107,17.976 10.573,18.701 11.299 C 19.442 12.040,19.924 12.927,20.147 13.961 C 20.250 14.438,20.250 15.562,20.147 16.039 C 19.924 17.073,19.442 17.960,18.701 18.701 C 18.118 19.285,17.468 19.694,16.700 19.961 C 15.999 20.205,15.953 20.210,13.760 20.236 C 11.836 20.259,11.734 20.264,11.604 20.340 C 11.419 20.449,11.318 20.596,11.277 20.815 C 11.208 21.182,11.331 21.499,11.604 21.660 C 11.735 21.737,11.812 21.740,13.640 21.740 C 15.656 21.739,15.899 21.723,16.640 21.538 C 19.046 20.937,20.939 19.044,21.537 16.640 C 21.678 16.075,21.728 15.646,21.728 15.000 C 21.728 14.354,21.678 13.925,21.537 13.360 C 20.945 10.982,19.069 9.087,16.700 8.475 C 15.882 8.263,16.097 8.270,10.263 8.252 L 4.826 8.236 7.270 5.788 C 9.440 3.614,9.719 3.321,9.758 3.170 C 9.818 2.944,9.762 2.743,9.580 2.531 C 9.429 2.354,9.154 2.199,8.997 2.202 C 8.944 2.202,8.837 2.230,8.760 2.264 " stroke="none" fill-rule="evenodd" fill="black"></path></svg>