<svg width="24" height="24" viewBox="0 0 24 24" fill="none" xmlns="http://www.w3.org/2000/svg"><path d="M11.320 2.280 C 9.441 2.407,7.648 3.082,6.084 4.252 C 5.591 4.620,4.620 5.591,4.252 6.084 C 3.226 7.456,2.607 8.935,2.357 10.608 C 2.238 11.410,2.238 12.590,2.357 13.392 C 2.607 15.065,3.226 16.544,4.252 17.916 C 4.620 18.409,5.591 19.380,6.084 19.748 C 7.457 20.775,8.938 21.395,10.608 21.642 C 11.784 21.817,13.262 21.739,14.412 21.442 C 15.680 21.115,16.841 20.553,17.916 19.748 C 18.409 19.379,19.379 18.409,19.748 17.916 C 20.773 16.548,21.395 15.063,21.642 13.392 C 21.761 12.591,21.761 11.409,21.642 10.608 C 21.395 8.937,20.773 7.452,19.748 6.084 C 19.379 5.591,18.409 4.621,17.916 4.252 C 16.786 3.406,15.392 2.757,14.120 2.486 C 13.247 2.300,12.184 2.222,11.320 2.280 M13.180 3.838 C 14.600 4.049,15.862 4.579,17.009 5.445 C 17.434 5.766,18.234 6.566,18.555 6.991 C 20.636 9.747,20.811 13.444,18.999 16.366 C 18.375 17.371,17.371 18.375,16.366 18.999 C 13.687 20.661,10.313 20.661,7.634 18.999 C 6.629 18.375,5.625 17.371,5.001 16.366 C 3.491 13.931,3.342 10.873,4.609 8.343 C 5.042 7.479,5.477 6.878,6.177 6.177 C 7.056 5.299,8.001 4.686,9.125 4.266 C 10.372 3.800,11.867 3.642,13.180 3.838 M11.603 7.588 C 11.424 7.682,11.319 7.830,11.277 8.046 C 11.259 8.142,11.243 9.507,11.242 11.080 L 11.240 13.939 10.310 13.014 C 9.799 12.504,9.322 12.059,9.252 12.024 C 8.999 11.898,8.709 11.978,8.452 12.246 C 8.183 12.527,8.145 12.824,8.339 13.111 C 8.504 13.352,11.573 16.408,11.709 16.466 C 11.873 16.535,12.127 16.535,12.291 16.466 C 12.427 16.408,15.496 13.352,15.661 13.111 C 15.855 12.824,15.817 12.527,15.548 12.246 C 15.282 11.969,14.999 11.897,14.728 12.037 C 14.647 12.080,14.175 12.521,13.680 13.018 L 12.780 13.921 12.760 10.950 C 12.741 8.071,12.738 7.976,12.660 7.844 C 12.521 7.608,12.392 7.542,12.047 7.528 C 11.811 7.519,11.708 7.533,11.603 7.588 " stroke="none" fill-rule="evenodd" fill="black"></path></svg>