<svg width="24" height="24" viewBox="0 0 24 24" fill="none" xmlns="http://www.w3.org/2000/svg"><path d="M11.320 2.280 C 9.441 2.407,7.648 3.082,6.084 4.252 C 5.591 4.620,4.620 5.591,4.252 6.084 C 3.202 7.488,2.579 9.003,2.337 10.740 C 2.238 11.449,2.247 12.654,2.357 13.392 C 2.606 15.064,3.226 16.544,4.252 17.916 C 4.620 18.409,5.591 19.380,6.084 19.748 C 7.456 20.774,8.935 21.393,10.608 21.643 C 11.783 21.818,13.257 21.740,14.412 21.442 C 16.010 21.029,17.493 20.216,18.658 19.114 C 19.199 18.601,19.275 18.346,18.999 17.965 C 18.823 17.722,18.593 17.585,18.363 17.585 C 18.141 17.585,18.039 17.647,17.600 18.054 C 16.071 19.470,14.098 20.240,12.000 20.240 C 10.677 20.240,9.460 19.953,8.289 19.365 C 7.471 18.954,6.869 18.514,6.177 17.823 C 5.486 17.131,5.046 16.529,4.635 15.711 C 4.047 14.540,3.760 13.323,3.760 12.000 C 3.760 10.677,4.041 9.477,4.626 8.309 C 5.044 7.473,5.479 6.876,6.177 6.177 C 6.869 5.486,7.471 5.046,8.289 4.635 C 9.460 4.047,10.677 3.760,12.000 3.760 C 13.842 3.760,15.531 4.330,17.020 5.453 C 17.435 5.767,18.237 6.570,18.555 6.991 C 19.639 8.426,20.240 10.176,20.240 11.895 C 20.240 12.755,20.050 13.328,19.607 13.807 C 19.083 14.374,18.463 14.394,17.940 13.863 C 17.664 13.582,17.484 13.267,17.355 12.840 C 17.268 12.548,17.265 12.478,17.243 10.240 C 17.217 7.658,17.229 7.758,16.921 7.600 C 16.703 7.489,16.295 7.490,16.075 7.602 C 15.889 7.698,15.762 7.928,15.761 8.175 L 15.760 8.330 15.584 8.168 C 13.495 6.242,10.300 6.300,8.300 8.300 C 7.302 9.298,6.760 10.600,6.760 12.000 C 6.760 13.400,7.302 14.702,8.300 15.700 C 10.319 17.719,13.542 17.755,15.635 15.783 C 15.860 15.571,16.274 15.060,16.454 14.772 L 16.559 14.604 16.870 14.912 C 17.353 15.389,17.844 15.643,18.420 15.715 C 19.032 15.791,19.677 15.635,20.191 15.286 C 20.688 14.949,21.187 14.300,21.443 13.661 C 21.661 13.115,21.731 12.678,21.728 11.880 C 21.722 9.797,21.048 7.822,19.748 6.084 C 19.380 5.591,18.409 4.620,17.916 4.252 C 16.782 3.404,15.391 2.757,14.120 2.486 C 13.247 2.300,12.184 2.222,11.320 2.280 M12.860 8.357 C 13.565 8.529,14.131 8.846,14.642 9.358 C 15.372 10.088,15.734 10.964,15.734 12.000 C 15.734 13.036,15.372 13.912,14.642 14.642 C 13.912 15.372,13.036 15.734,12.000 15.734 C 10.964 15.734,10.088 15.372,9.358 14.642 C 8.628 13.912,8.266 13.036,8.266 12.000 C 8.266 10.964,8.628 10.088,9.358 9.358 C 9.969 8.747,10.680 8.403,11.620 8.264 C 11.857 8.229,12.546 8.281,12.860 8.357 " stroke="none" fill-rule="evenodd" fill="black"></path></svg>