<svg width="24" height="24" viewBox="0 0 24 24" fill="none" xmlns="http://www.w3.org/2000/svg"><path d="M9.826 6.844 C 9.697 6.863,9.499 6.921,9.386 6.973 C 9.089 7.109,2.182 11.061,1.918 11.245 C 1.470 11.558,1.201 12.044,1.170 12.597 C 1.134 13.213,1.297 13.661,1.698 14.060 C 1.913 14.274,2.348 14.533,5.640 16.409 C 7.675 17.569,9.421 18.547,9.520 18.582 C 9.805 18.685,10.301 18.703,10.582 18.622 C 11.233 18.434,11.655 18.041,11.912 17.384 C 11.964 17.249,11.980 16.974,11.998 15.850 L 12.020 14.480 15.420 16.425 C 17.290 17.495,18.953 18.433,19.117 18.509 C 20.100 18.971,21.248 18.475,21.649 17.417 L 21.739 17.180 21.752 12.980 C 21.760 10.185,21.750 8.673,21.722 8.461 C 21.555 7.204,20.232 6.464,19.100 6.995 C 18.968 7.057,17.341 7.976,15.484 9.037 C 13.627 10.099,12.084 10.976,12.054 10.988 C 12.009 11.005,12.000 10.793,11.999 9.754 C 11.999 8.383,11.973 8.161,11.770 7.789 C 11.551 7.387,11.051 6.995,10.620 6.888 C 10.361 6.823,10.076 6.807,9.826 6.844 M10.372 8.416 C 10.428 8.468,10.486 8.572,10.499 8.646 C 10.512 8.720,10.518 10.620,10.512 12.869 L 10.500 16.958 10.400 17.058 C 10.171 17.287,10.385 17.391,6.440 15.140 C 4.449 14.004,2.779 13.030,2.730 12.975 C 2.588 12.818,2.628 12.558,2.813 12.440 C 2.861 12.410,4.500 11.470,6.456 10.352 C 9.122 8.828,10.043 8.320,10.140 8.320 C 10.220 8.320,10.307 8.356,10.372 8.416 M20.117 8.424 L 20.240 8.527 20.240 12.726 C 20.240 15.530,20.226 16.951,20.199 17.002 C 20.142 17.109,19.930 17.211,19.822 17.184 C 19.663 17.144,12.583 13.081,12.490 12.977 C 12.381 12.854,12.371 12.643,12.470 12.526 C 12.508 12.480,14.160 11.516,16.140 10.384 C 18.741 8.896,19.775 8.324,19.867 8.322 C 19.948 8.321,20.039 8.358,20.117 8.424 " stroke="none" fill-rule="evenodd" fill="black"></path></svg>