<svg width="24" height="24" viewBox="0 0 24 24" fill="none" xmlns="http://www.w3.org/2000/svg"><path d="M9.720 3.817 C 9.227 3.955,9.283 3.905,5.695 7.494 C 2.566 10.624,2.280 10.921,2.166 11.160 C 1.910 11.696,1.910 12.304,2.166 12.840 C 2.280 13.079,2.564 13.374,5.695 16.503 C 9.362 20.168,9.271 20.086,9.800 20.198 C 9.963 20.233,11.328 20.242,15.060 20.233 L 20.100 20.220 20.420 20.111 C 20.896 19.949,21.217 19.743,21.622 19.340 C 21.924 19.039,22.014 18.917,22.173 18.600 C 22.498 17.949,22.479 18.361,22.479 12.000 C 22.479 5.639,22.498 6.051,22.173 5.400 C 22.014 5.083,21.924 4.961,21.622 4.660 C 21.217 4.257,20.896 4.051,20.420 3.889 L 20.100 3.780 15.000 3.773 C 10.991 3.768,9.861 3.777,9.720 3.817 M20.048 5.352 C 20.461 5.519,20.806 5.902,20.939 6.343 C 21.029 6.640,21.029 17.360,20.939 17.657 C 20.806 18.098,20.461 18.481,20.048 18.648 L 19.820 18.740 15.040 18.752 C 11.859 18.760,10.213 18.750,10.120 18.723 C 10.011 18.691,9.265 17.967,6.730 15.430 L 3.480 12.178 3.480 12.000 L 3.480 11.822 6.710 8.587 C 8.487 6.808,9.994 5.327,10.060 5.297 C 10.160 5.251,10.987 5.244,15.000 5.251 L 19.820 5.260 20.048 5.352 M11.740 9.026 C 11.409 9.200,11.170 9.570,11.220 9.833 C 11.235 9.912,11.284 10.032,11.329 10.099 C 11.374 10.165,11.809 10.620,12.295 11.110 L 13.179 12.000 12.295 12.890 C 11.809 13.380,11.374 13.835,11.329 13.901 C 11.145 14.173,11.189 14.479,11.452 14.754 C 11.709 15.022,11.999 15.102,12.252 14.976 C 12.322 14.941,12.798 14.496,13.309 13.988 L 14.238 13.063 15.189 14.006 C 16.196 15.004,16.293 15.074,16.590 15.026 C 16.908 14.974,17.280 14.570,17.280 14.276 C 17.280 14.193,17.261 14.075,17.238 14.013 C 17.214 13.951,16.769 13.473,16.249 12.950 L 15.302 12.000 16.249 11.050 C 16.769 10.527,17.214 10.049,17.238 9.987 C 17.261 9.925,17.280 9.807,17.280 9.725 C 17.280 9.426,16.913 9.026,16.590 8.974 C 16.293 8.926,16.196 8.996,15.189 9.994 L 14.238 10.937 13.309 10.012 C 12.798 9.504,12.322 9.059,12.252 9.024 C 12.091 8.944,11.895 8.945,11.740 9.026 " stroke="none" fill-rule="evenodd" fill="black"></path></svg>