<svg width="24" height="24" viewBox="0 0 24 24" fill="none" xmlns="http://www.w3.org/2000/svg"><path d="M2.910 3.803 C 2.329 3.941,1.804 4.434,1.603 5.031 C 1.521 5.276,1.520 5.319,1.520 10.500 C 1.520 15.681,1.521 15.724,1.603 15.969 C 1.775 16.479,2.090 16.828,2.600 17.075 L 2.900 17.220 11.860 17.232 C 18.614 17.241,20.874 17.233,21.040 17.197 C 21.665 17.064,22.188 16.591,22.397 15.969 C 22.479 15.724,22.480 15.681,22.480 10.500 C 22.480 5.319,22.479 5.276,22.397 5.031 C 22.227 4.526,21.886 4.152,21.374 3.910 L 21.100 3.780 12.080 3.774 C 6.936 3.770,2.996 3.783,2.910 3.803 M19.525 5.466 C 19.596 6.044,20.119 6.611,20.662 6.699 C 20.749 6.713,20.861 6.733,20.910 6.743 L 21.000 6.762 21.000 10.500 L 21.000 14.238 20.910 14.257 C 20.861 14.267,20.749 14.287,20.662 14.301 C 20.119 14.389,19.596 14.956,19.525 15.534 L 19.500 15.740 12.000 15.740 L 4.500 15.740 4.475 15.534 C 4.404 14.956,3.881 14.389,3.338 14.301 C 3.251 14.287,3.139 14.267,3.090 14.257 L 3.000 14.238 3.000 10.500 L 3.000 6.762 3.090 6.743 C 3.139 6.733,3.251 6.713,3.338 6.699 C 3.864 6.614,4.406 6.042,4.467 5.507 C 4.478 5.415,4.494 5.317,4.502 5.290 C 4.514 5.250,6.035 5.242,12.009 5.250 L 19.500 5.260 19.525 5.466 M11.386 6.799 C 9.711 7.103,8.439 8.461,8.285 10.110 C 8.176 11.276,8.551 12.344,9.347 13.130 C 9.828 13.605,10.334 13.907,10.989 14.107 C 11.309 14.205,11.398 14.214,12.000 14.214 C 12.602 14.214,12.691 14.205,13.011 14.107 C 13.666 13.907,14.172 13.605,14.653 13.130 C 15.449 12.344,15.824 11.276,15.715 10.110 C 15.635 9.257,15.264 8.474,14.653 7.870 C 14.317 7.538,14.072 7.360,13.671 7.157 C 13.153 6.894,12.745 6.795,12.120 6.778 C 11.823 6.770,11.493 6.780,11.386 6.799 M12.453 8.299 C 12.973 8.409,13.381 8.660,13.752 9.097 C 14.110 9.520,14.261 10.000,14.229 10.620 C 14.197 11.248,14.021 11.647,13.588 12.076 C 13.191 12.468,12.846 12.643,12.295 12.728 C 12.073 12.763,11.927 12.763,11.705 12.728 C 11.154 12.643,10.809 12.468,10.412 12.076 C 9.979 11.647,9.803 11.248,9.771 10.620 C 9.730 9.823,10.000 9.231,10.635 8.721 C 11.140 8.316,11.804 8.162,12.453 8.299 M5.660 9.806 C 5.379 9.910,5.267 10.109,5.267 10.505 C 5.267 10.976,5.456 11.202,5.878 11.232 C 6.208 11.256,6.379 11.216,6.536 11.079 C 6.856 10.798,6.821 10.128,6.473 9.868 C 6.345 9.773,5.851 9.735,5.660 9.806 M17.660 9.806 C 17.379 9.910,17.267 10.109,17.267 10.505 C 17.267 10.976,17.456 11.202,17.878 11.232 C 18.208 11.256,18.379 11.216,18.536 11.079 C 18.856 10.798,18.821 10.128,18.473 9.868 C 18.345 9.773,17.851 9.735,17.660 9.806 M1.939 18.040 C 1.790 18.086,1.662 18.202,1.576 18.367 C 1.482 18.549,1.510 19.074,1.623 19.227 C 1.802 19.473,1.852 19.480,3.487 19.521 C 5.192 19.563,6.031 19.606,7.348 19.719 C 10.621 20.000,13.808 20.543,17.089 21.378 C 18.210 21.664,18.396 21.684,18.843 21.567 C 19.493 21.397,20.009 20.879,20.186 20.220 C 20.249 19.981,20.260 18.655,20.200 18.438 C 20.038 17.854,18.962 17.854,18.800 18.438 C 18.778 18.516,18.760 18.859,18.760 19.200 C 18.759 19.899,18.736 19.983,18.513 20.092 L 18.367 20.163 17.354 19.903 C 13.460 18.902,9.192 18.263,5.200 18.082 C 3.816 18.020,2.076 17.997,1.939 18.040 " stroke="none" fill-rule="evenodd" fill="black"></path></svg>