<svg width="24" height="24" viewBox="0 0 24 24" fill="none" xmlns="http://www.w3.org/2000/svg"><path d="M3.540 8.277 C 3.172 8.339,3.022 8.549,3.022 9.000 C 3.022 9.357,3.090 9.510,3.309 9.646 L 3.460 9.740 12.000 9.740 L 20.540 9.740 20.680 9.653 C 20.904 9.513,20.980 9.349,20.980 9.000 C 20.980 8.651,20.904 8.487,20.680 8.347 L 20.540 8.260 12.120 8.255 C 7.489 8.252,3.628 8.262,3.540 8.277 M3.420 15.060 C 3.122 15.166,2.971 15.465,3.013 15.869 C 3.040 16.132,3.132 16.289,3.322 16.396 L 3.471 16.480 12.000 16.480 L 20.529 16.480 20.678 16.396 C 20.907 16.268,20.980 16.114,20.980 15.760 C 20.980 15.409,20.898 15.231,20.679 15.101 C 20.540 15.020,20.509 15.020,12.060 15.012 C 4.821 15.004,3.557 15.011,3.420 15.060 " stroke="none" fill-rule="evenodd" fill="black"></path></svg>