<svg width="24" height="24" viewBox="0 0 24 24" fill="none" xmlns="http://www.w3.org/2000/svg"><path d="M3.316 4.605 C 3.092 4.735,3.020 4.889,3.020 5.240 C 3.020 5.591,3.102 5.769,3.321 5.899 C 3.460 5.980,3.483 5.980,12.000 5.980 C 20.517 5.980,20.540 5.980,20.679 5.899 C 20.898 5.769,20.980 5.591,20.980 5.240 C 20.980 4.886,20.907 4.732,20.678 4.604 L 20.529 4.520 11.995 4.521 L 3.460 4.522 3.316 4.605 M3.420 9.060 C 3.122 9.166,2.971 9.465,3.013 9.869 C 3.040 10.132,3.132 10.289,3.322 10.396 L 3.471 10.480 12.000 10.480 L 20.529 10.480 20.678 10.396 C 20.907 10.268,20.980 10.114,20.980 9.760 C 20.980 9.409,20.898 9.231,20.679 9.101 C 20.540 9.020,20.509 9.020,12.060 9.012 C 4.821 9.004,3.557 9.011,3.420 9.060 M3.316 13.605 C 3.092 13.735,3.020 13.889,3.020 14.240 C 3.020 14.591,3.102 14.769,3.321 14.899 C 3.460 14.980,3.483 14.980,12.000 14.980 C 20.517 14.980,20.540 14.980,20.679 14.899 C 20.898 14.769,20.980 14.591,20.980 14.240 C 20.980 13.886,20.907 13.732,20.678 13.604 L 20.529 13.520 11.995 13.521 L 3.460 13.522 3.316 13.605 M3.420 18.060 C 3.122 18.166,2.971 18.465,3.013 18.869 C 3.040 19.132,3.132 19.289,3.322 19.396 L 3.471 19.480 12.000 19.480 L 20.529 19.480 20.678 19.396 C 20.907 19.268,20.980 19.114,20.980 18.760 C 20.980 18.409,20.898 18.231,20.679 18.101 C 20.540 18.020,20.509 18.020,12.060 18.012 C 4.821 18.004,3.557 18.011,3.420 18.060 " stroke="none" fill-rule="evenodd" fill="black"></path></svg>