<svg width="24" height="24" viewBox="0 0 24 24" fill="none" xmlns="http://www.w3.org/2000/svg"><path d="M2.660 3.808 C 2.383 3.906,2.267 4.109,2.267 4.500 C 2.267 4.900,2.383 5.096,2.676 5.194 C 2.854 5.254,17.347 5.260,17.562 5.200 C 18.146 5.038,18.146 3.962,17.562 3.800 C 17.359 3.744,2.822 3.752,2.660 3.808 M17.040 8.254 C 16.963 8.282,16.873 8.321,16.840 8.342 C 16.688 8.438,12.841 12.356,12.780 12.477 C 12.682 12.670,12.716 12.954,12.858 13.141 C 13.156 13.532,13.552 13.636,13.864 13.404 C 13.950 13.340,14.569 12.737,15.240 12.064 C 15.911 11.391,16.473 10.840,16.489 10.840 C 16.506 10.840,16.524 13.206,16.530 16.097 L 16.540 21.354 16.624 21.467 C 16.770 21.663,16.938 21.733,17.260 21.733 C 17.594 21.733,17.768 21.651,17.900 21.433 C 17.979 21.302,17.980 21.211,18.000 16.070 L 18.020 10.839 19.240 12.064 C 19.911 12.738,20.540 13.341,20.638 13.404 C 20.870 13.555,21.105 13.560,21.345 13.419 C 21.538 13.306,21.735 13.047,21.778 12.850 C 21.842 12.557,21.819 12.529,19.805 10.496 C 18.757 9.439,17.851 8.518,17.792 8.451 C 17.691 8.337,17.385 8.198,17.243 8.202 C 17.208 8.203,17.117 8.226,17.040 8.254 M2.787 8.278 C 2.445 8.345,2.268 8.592,2.268 9.000 C 2.268 9.462,2.475 9.693,2.931 9.739 C 3.068 9.753,5.394 9.759,8.100 9.752 C 12.937 9.740,13.022 9.739,13.156 9.660 C 13.407 9.512,13.460 9.398,13.460 9.000 C 13.460 8.602,13.407 8.488,13.156 8.340 C 13.022 8.261,12.943 8.260,7.980 8.254 C 5.208 8.251,2.871 8.262,2.787 8.278 M2.660 12.808 C 2.383 12.906,2.267 13.109,2.267 13.500 C 2.267 13.900,2.383 14.096,2.676 14.194 C 2.852 14.253,8.351 14.259,8.562 14.200 C 9.146 14.038,9.146 12.962,8.562 12.800 C 8.362 12.744,2.820 12.752,2.660 12.808 " stroke="none" fill-rule="evenodd" fill="black"></path></svg>