<svg width="24" height="24" viewBox="0 0 24 24" fill="none" xmlns="http://www.w3.org/2000/svg"><path d="M3.420 6.060 C 3.122 6.166,2.971 6.465,3.013 6.869 C 3.040 7.132,3.132 7.289,3.322 7.396 L 3.471 7.480 12.000 7.480 L 20.529 7.480 20.678 7.396 C 20.907 7.268,20.980 7.114,20.980 6.760 C 20.980 6.409,20.898 6.231,20.679 6.101 C 20.540 6.020,20.509 6.020,12.060 6.012 C 4.821 6.004,3.557 6.011,3.420 6.060 M3.540 11.277 C 3.172 11.339,3.022 11.549,3.022 12.000 C 3.022 12.357,3.090 12.510,3.309 12.646 L 3.460 12.740 12.000 12.740 L 20.540 12.740 20.680 12.653 C 20.904 12.513,20.980 12.349,20.980 12.000 C 20.980 11.651,20.904 11.487,20.680 11.347 L 20.540 11.260 12.120 11.255 C 7.489 11.252,3.628 11.262,3.540 11.277 M3.316 16.605 C 3.092 16.736,3.020 16.889,3.020 17.240 C 3.020 17.591,3.102 17.769,3.321 17.899 C 3.459 17.979,3.506 17.980,7.880 17.980 L 12.300 17.980 12.440 17.893 C 12.656 17.758,12.729 17.600,12.731 17.261 C 12.733 16.937,12.665 16.772,12.467 16.624 L 12.354 16.540 7.907 16.531 L 3.460 16.521 3.316 16.605 " stroke="none" fill-rule="evenodd" fill="black"></path></svg>