<svg width="24" height="24" viewBox="0 0 24 24" fill="none" xmlns="http://www.w3.org/2000/svg"><path d="M3.420 6.060 C 3.122 6.166,2.971 6.465,3.013 6.869 C 3.040 7.132,3.132 7.289,3.322 7.396 L 3.471 7.480 12.000 7.480 L 20.529 7.480 20.678 7.396 C 20.907 7.268,20.980 7.114,20.980 6.760 C 20.980 6.409,20.898 6.231,20.679 6.101 C 20.540 6.020,20.509 6.020,12.060 6.012 C 4.821 6.004,3.557 6.011,3.420 6.060 M3.540 11.277 C 3.172 11.339,3.022 11.549,3.022 12.000 C 3.022 12.357,3.090 12.510,3.309 12.646 L 3.460 12.740 12.000 12.740 L 20.540 12.740 20.680 12.653 C 20.904 12.513,20.980 12.349,20.980 12.000 C 20.980 11.651,20.904 11.487,20.680 11.347 L 20.540 11.260 12.120 11.255 C 7.489 11.252,3.628 11.262,3.540 11.277 M11.603 16.590 C 11.421 16.683,11.319 16.829,11.276 17.060 C 11.207 17.430,11.329 17.777,11.574 17.911 C 11.691 17.975,12.010 17.980,16.120 17.980 C 20.494 17.980,20.541 17.979,20.679 17.899 C 20.898 17.769,20.980 17.591,20.980 17.240 C 20.980 16.886,20.907 16.732,20.678 16.604 C 20.529 16.520,20.521 16.520,16.135 16.520 C 12.030 16.520,11.731 16.525,11.603 16.590 " stroke="none" fill-rule="evenodd" fill="black"></path></svg>