<svg width="24" height="24" viewBox="0 0 24 24" fill="none" xmlns="http://www.w3.org/2000/svg"><path d="M2.660 3.808 C 2.383 3.906,2.267 4.109,2.267 4.500 C 2.267 4.900,2.383 5.096,2.676 5.194 C 2.854 5.254,17.347 5.260,17.562 5.200 C 18.146 5.038,18.146 3.962,17.562 3.800 C 17.359 3.744,2.822 3.752,2.660 3.808 M2.787 8.278 C 2.445 8.345,2.268 8.592,2.268 9.000 C 2.268 9.462,2.475 9.693,2.931 9.739 C 3.068 9.753,5.394 9.759,8.100 9.752 C 12.937 9.740,13.022 9.739,13.156 9.660 C 13.407 9.512,13.460 9.398,13.460 9.000 C 13.460 8.602,13.407 8.488,13.156 8.340 C 13.022 8.261,12.943 8.260,7.980 8.254 C 5.208 8.251,2.871 8.262,2.787 8.278 M17.027 8.278 C 16.831 8.317,16.678 8.431,16.590 8.603 C 16.525 8.731,16.520 9.069,16.520 13.950 C 16.520 16.816,16.506 19.160,16.490 19.160 C 16.473 19.160,15.893 18.592,15.200 17.898 C 14.507 17.204,13.881 16.600,13.810 16.555 C 13.521 16.374,13.160 16.486,12.868 16.848 C 12.716 17.038,12.679 17.322,12.780 17.523 C 12.863 17.687,16.728 21.592,16.900 21.685 C 16.966 21.721,17.079 21.763,17.150 21.778 C 17.332 21.818,17.656 21.702,17.791 21.550 C 17.851 21.482,18.757 20.561,19.805 19.504 C 21.819 17.471,21.842 17.443,21.778 17.150 C 21.706 16.819,21.309 16.469,21.006 16.469 C 20.924 16.469,20.795 16.501,20.719 16.539 C 20.642 16.577,20.000 17.187,19.291 17.893 L 18.001 19.177 17.991 13.939 L 17.980 8.700 17.893 8.560 C 17.845 8.483,17.755 8.391,17.693 8.354 C 17.554 8.274,17.232 8.237,17.027 8.278 M2.660 12.808 C 2.383 12.906,2.267 13.109,2.267 13.500 C 2.267 13.900,2.383 14.096,2.676 14.194 C 2.775 14.228,4.190 14.240,7.896 14.239 C 12.807 14.238,12.986 14.236,13.148 14.162 C 13.377 14.058,13.480 13.852,13.480 13.500 C 13.480 13.148,13.377 12.942,13.148 12.838 C 12.986 12.764,12.810 12.762,7.880 12.764 C 4.422 12.766,2.741 12.780,2.660 12.808 " stroke="none" fill-rule="evenodd" fill="black"></path></svg>