<svg width="24" height="24" viewBox="0 0 24 24" fill="none" xmlns="http://www.w3.org/2000/svg"><path d="M3.168 6.805 C 2.176 6.970,1.256 7.785,0.892 8.820 L 0.780 9.140 0.768 12.600 C 0.755 16.525,0.749 16.423,1.060 17.060 C 1.321 17.593,1.731 18.034,2.266 18.357 C 2.602 18.561,2.973 18.675,3.454 18.723 C 3.716 18.749,6.582 18.759,11.540 18.751 L 19.220 18.739 19.526 18.652 C 20.648 18.333,21.523 17.385,21.682 16.316 C 21.778 15.676,21.757 15.722,21.983 15.645 C 22.563 15.450,23.062 14.904,23.198 14.315 C 23.221 14.216,23.238 13.543,23.239 12.758 C 23.240 11.259,23.222 11.099,23.013 10.715 C 22.894 10.495,22.561 10.151,22.334 10.013 C 22.249 9.962,22.086 9.889,21.971 9.853 C 21.766 9.787,21.763 9.784,21.742 9.603 C 21.685 9.116,21.632 8.862,21.540 8.631 C 21.273 7.964,20.668 7.334,19.998 7.024 C 19.388 6.743,19.947 6.759,11.232 6.765 C 6.913 6.767,3.285 6.785,3.168 6.805 M19.021 8.284 C 19.440 8.361,19.796 8.605,20.029 8.975 C 20.246 9.319,20.243 9.247,20.231 12.828 L 20.220 16.140 20.112 16.369 C 19.975 16.663,19.663 16.975,19.369 17.112 L 19.140 17.220 11.326 17.230 C 2.861 17.242,3.329 17.253,2.975 17.029 C 2.617 16.803,2.371 16.453,2.285 16.048 C 2.226 15.769,2.222 9.787,2.281 9.477 C 2.392 8.889,2.874 8.395,3.445 8.283 C 3.716 8.230,18.733 8.230,19.021 8.284 M4.092 9.843 C 3.972 9.903,3.901 9.975,3.841 10.098 C 3.760 10.266,3.758 10.310,3.769 12.784 C 3.781 15.519,3.774 15.440,4.006 15.611 C 4.064 15.654,4.190 15.704,4.286 15.723 C 4.513 15.767,17.967 15.767,18.194 15.723 C 18.404 15.682,18.553 15.578,18.660 15.396 C 18.738 15.264,18.740 15.188,18.740 12.740 C 18.740 10.475,18.733 10.208,18.674 10.100 C 18.588 9.943,18.491 9.862,18.324 9.806 C 18.224 9.772,16.337 9.760,11.224 9.760 L 4.260 9.760 4.092 9.843 M17.240 12.740 L 17.240 14.240 11.240 14.240 L 5.240 14.240 5.240 12.740 L 5.240 11.240 11.240 11.240 L 17.240 11.240 17.240 12.740 " stroke="none" fill-rule="evenodd" fill="black"></path></svg>