<svg width="24" height="24" viewBox="0 0 24 24" fill="none" xmlns="http://www.w3.org/2000/svg"><path d="M11.400 2.267 C 10.769 2.283,9.607 2.363,9.145 2.422 C 8.442 2.512,8.258 2.666,8.262 3.162 C 8.266 3.611,8.505 3.920,8.847 3.920 L 9.002 3.920 8.991 6.550 L 8.980 9.180 8.868 9.423 C 8.767 9.641,8.523 9.898,6.575 11.843 C 1.841 16.568,1.826 16.584,1.600 17.188 C 1.164 18.355,1.474 19.651,2.370 20.403 C 2.880 20.831,3.199 20.956,4.200 21.122 C 9.236 21.953,15.043 21.938,20.059 21.080 C 20.794 20.955,21.162 20.796,21.630 20.403 C 22.697 19.506,22.911 17.876,22.120 16.664 C 21.895 16.319,21.434 15.845,17.786 12.203 C 15.504 9.925,15.233 9.641,15.132 9.423 L 15.020 9.180 15.009 6.550 L 14.998 3.920 15.153 3.920 C 15.495 3.920,15.734 3.611,15.738 3.162 C 15.742 2.711,15.562 2.525,15.040 2.443 C 14.381 2.339,12.374 2.242,11.400 2.267 M13.274 3.786 L 13.520 3.811 13.521 6.516 C 13.521 9.516,13.523 9.532,13.780 10.074 C 13.858 10.238,13.987 10.463,14.068 10.576 C 14.149 10.688,15.140 11.709,16.270 12.844 L 18.325 14.908 17.912 14.997 C 17.132 15.164,16.637 15.210,15.840 15.188 C 14.551 15.152,13.639 14.927,12.327 14.323 C 10.734 13.590,9.544 13.314,7.948 13.310 L 7.276 13.309 8.511 12.064 C 9.190 11.380,9.820 10.721,9.910 10.600 C 10.001 10.479,10.139 10.244,10.217 10.079 C 10.478 9.531,10.479 9.519,10.479 6.512 L 10.480 3.805 10.650 3.789 C 10.953 3.762,13.021 3.759,13.274 3.786 M9.240 14.893 C 10.105 15.046,10.765 15.259,11.673 15.677 C 13.102 16.335,14.092 16.594,15.500 16.677 C 16.582 16.741,17.570 16.631,18.867 16.304 L 19.554 16.131 20.215 16.796 C 21.007 17.593,21.097 17.742,21.099 18.261 C 21.100 18.544,21.084 18.613,20.969 18.847 C 20.732 19.330,20.427 19.509,19.626 19.638 C 18.119 19.881,16.711 20.040,14.940 20.168 C 13.967 20.238,10.033 20.238,9.060 20.168 C 7.296 20.041,5.922 19.886,4.374 19.639 C 3.564 19.510,3.242 19.313,3.005 18.802 C 2.922 18.622,2.902 18.520,2.902 18.260 C 2.902 17.699,2.942 17.642,4.270 16.311 L 5.416 15.162 5.938 15.039 C 6.780 14.841,7.162 14.802,8.080 14.818 C 8.563 14.827,9.040 14.858,9.240 14.893 " stroke="none" fill-rule="evenodd" fill="black"></path></svg>