<svg width="24" height="24" viewBox="0 0 24 24" fill="none" xmlns="http://www.w3.org/2000/svg"><path d="M2.731 2.284 C 2.451 2.423,2.200 2.766,2.200 3.012 C 2.200 3.065,2.241 3.183,2.290 3.275 C 2.369 3.422,8.324 9.404,18.500 19.558 C 20.873 21.926,20.792 21.859,21.165 21.759 C 21.386 21.699,21.699 21.386,21.759 21.165 C 21.858 20.798,21.884 20.832,19.989 18.932 C 18.883 17.822,18.286 17.196,18.323 17.184 C 18.354 17.174,18.551 17.118,18.760 17.060 C 19.371 16.891,20.566 16.485,20.739 16.388 C 21.040 16.219,21.139 15.954,21.038 15.590 C 21.014 15.504,20.848 15.255,20.652 15.010 C 19.620 13.721,19.042 12.395,18.826 10.820 C 18.793 10.578,18.756 9.921,18.744 9.360 C 18.721 8.322,18.674 7.875,18.525 7.300 C 17.920 4.958,16.038 3.076,13.700 2.475 C 12.735 2.227,11.584 2.200,10.595 2.401 C 9.417 2.641,8.232 3.275,7.309 4.157 C 6.970 4.482,6.541 4.990,6.404 5.229 C 6.370 5.290,6.152 5.089,4.872 3.812 C 3.154 2.099,3.134 2.084,2.731 2.284 M13.080 3.860 C 14.088 4.085,14.973 4.570,15.701 5.299 C 16.285 5.882,16.694 6.532,16.961 7.300 C 17.170 7.899,17.203 8.144,17.242 9.400 C 17.291 10.973,17.394 11.702,17.706 12.689 C 17.968 13.516,18.405 14.433,18.862 15.114 C 18.959 15.259,19.025 15.391,19.009 15.407 C 18.971 15.445,18.118 15.691,17.500 15.843 L 17.020 15.960 12.230 11.170 L 7.440 6.380 7.663 6.046 C 8.453 4.866,9.784 4.029,11.235 3.800 C 11.582 3.746,12.731 3.783,13.080 3.860 M5.660 9.526 C 5.364 9.636,5.286 9.798,5.218 10.441 C 5.029 12.245,4.459 13.628,3.323 15.041 C 2.905 15.561,2.817 15.876,3.011 16.163 C 3.144 16.360,3.329 16.449,4.200 16.737 C 5.359 17.120,6.650 17.447,7.680 17.619 C 8.321 17.726,8.288 17.713,8.262 17.834 C 8.231 17.975,8.305 18.669,8.383 18.975 C 8.573 19.712,9.100 20.499,9.719 20.969 C 10.032 21.207,10.687 21.532,11.025 21.618 C 12.005 21.866,13.056 21.726,13.884 21.238 C 14.554 20.843,15.014 20.341,15.366 19.624 C 15.529 19.291,15.560 19.191,15.560 18.999 C 15.560 18.715,15.454 18.544,15.200 18.415 C 14.841 18.232,14.515 18.253,14.311 18.471 C 14.254 18.531,14.131 18.742,14.036 18.940 C 13.899 19.227,13.807 19.357,13.578 19.582 C 13.119 20.034,12.616 20.240,11.974 20.240 C 11.365 20.240,10.869 20.030,10.420 19.580 C 9.995 19.156,9.760 18.633,9.760 18.113 L 9.760 17.898 10.170 17.933 C 10.396 17.953,11.174 17.972,11.900 17.975 L 13.220 17.980 13.396 17.880 C 13.653 17.734,13.727 17.572,13.712 17.193 C 13.699 16.863,13.644 16.746,13.426 16.583 C 13.321 16.505,13.257 16.501,12.068 16.494 C 9.959 16.482,8.223 16.275,6.380 15.815 C 5.815 15.675,5.026 15.440,4.987 15.402 C 4.968 15.384,5.015 15.282,5.091 15.175 C 5.465 14.646,5.950 13.686,6.199 12.980 C 6.492 12.148,6.719 10.969,6.720 10.276 C 6.720 9.886,6.648 9.728,6.408 9.587 C 6.251 9.496,5.834 9.461,5.660 9.526 " stroke="none" fill-rule="evenodd" fill="black"></path></svg>