<svg width="24" height="24" viewBox="0 0 24 24" fill="none" xmlns="http://www.w3.org/2000/svg"><path d="M5.117 2.238 C 4.938 2.292,4.819 2.392,4.555 2.711 C 3.572 3.895,2.924 5.149,2.566 6.560 C 2.386 7.267,2.346 7.559,2.401 7.762 C 2.485 8.075,2.763 8.240,3.205 8.240 C 3.612 8.240,3.778 8.048,3.899 7.440 C 4.174 6.054,4.718 4.894,5.611 3.793 C 5.999 3.314,6.080 3.176,6.080 2.998 C 6.080 2.719,5.755 2.327,5.454 2.243 C 5.280 2.195,5.260 2.195,5.117 2.238 M18.505 2.258 C 18.207 2.366,17.920 2.730,17.920 2.998 C 17.920 3.176,18.001 3.314,18.389 3.793 C 19.289 4.902,19.788 5.965,20.099 7.430 C 20.236 8.074,20.380 8.240,20.803 8.240 C 21.235 8.240,21.516 8.073,21.598 7.766 C 21.634 7.632,21.631 7.521,21.581 7.229 C 21.350 5.875,20.741 4.449,19.906 3.300 C 19.593 2.870,19.173 2.385,19.051 2.313 C 18.884 2.214,18.680 2.194,18.505 2.258 M11.680 2.267 C 10.140 2.347,8.706 2.926,7.551 3.936 C 6.553 4.808,5.805 6.020,5.475 7.300 C 5.327 7.870,5.279 8.321,5.257 9.340 C 5.244 9.890,5.207 10.547,5.175 10.800 C 4.970 12.375,4.367 13.756,3.322 15.040 C 2.945 15.503,2.918 15.552,2.913 15.784 C 2.909 15.996,3.055 16.239,3.276 16.388 C 3.438 16.498,4.761 16.937,5.580 17.154 C 6.274 17.337,7.136 17.528,7.680 17.619 C 8.321 17.726,8.288 17.713,8.262 17.834 C 8.231 17.975,8.305 18.669,8.383 18.975 C 8.573 19.712,9.100 20.499,9.719 20.969 C 10.032 21.207,10.687 21.532,11.025 21.618 C 11.624 21.769,12.376 21.769,12.975 21.618 C 13.313 21.532,13.968 21.207,14.281 20.969 C 14.900 20.499,15.427 19.712,15.617 18.975 C 15.695 18.669,15.769 17.975,15.738 17.834 C 15.712 17.713,15.679 17.726,16.320 17.619 C 16.864 17.528,17.726 17.337,18.420 17.154 C 19.182 16.952,20.531 16.507,20.739 16.389 C 21.041 16.217,21.139 15.954,21.038 15.590 C 21.014 15.504,20.848 15.255,20.652 15.010 C 19.620 13.721,19.042 12.395,18.826 10.820 C 18.793 10.578,18.756 9.921,18.744 9.360 C 18.721 8.322,18.674 7.875,18.525 7.300 C 17.914 4.932,16.020 3.057,13.640 2.462 C 13.058 2.317,12.256 2.237,11.680 2.267 M13.080 3.860 C 14.088 4.085,14.973 4.570,15.701 5.299 C 16.285 5.882,16.694 6.532,16.961 7.300 C 17.170 7.899,17.203 8.144,17.242 9.400 C 17.291 10.973,17.394 11.702,17.706 12.689 C 17.968 13.516,18.405 14.433,18.862 15.114 C 18.959 15.259,19.026 15.390,19.009 15.406 C 18.973 15.441,18.160 15.681,17.620 15.815 C 15.764 16.278,14.018 16.487,12.000 16.487 C 9.982 16.487,8.236 16.278,6.380 15.815 C 5.840 15.681,5.027 15.441,4.991 15.406 C 4.974 15.390,5.041 15.259,5.138 15.114 C 5.595 14.433,6.032 13.516,6.294 12.689 C 6.606 11.704,6.708 10.979,6.758 9.400 C 6.798 8.144,6.830 7.898,7.039 7.300 C 7.491 6.000,8.470 4.888,9.687 4.293 C 10.196 4.044,10.585 3.926,11.360 3.784 C 11.588 3.743,12.789 3.796,13.080 3.860 M12.000 17.971 C 12.781 17.971,13.605 17.954,13.830 17.934 L 14.240 17.898 14.240 18.113 C 14.240 18.633,14.005 19.156,13.580 19.580 C 13.124 20.036,12.636 20.240,12.000 20.240 C 11.364 20.240,10.876 20.036,10.420 19.580 C 9.995 19.156,9.760 18.633,9.760 18.113 L 9.760 17.898 10.170 17.934 C 10.396 17.954,11.219 17.971,12.000 17.971 " stroke="none" fill-rule="evenodd" fill="black"></path></svg>