<svg width="24" height="24" viewBox="0 0 24 24" fill="none" xmlns="http://www.w3.org/2000/svg"><path d="M13.940 1.555 C 13.771 1.660,13.699 1.736,8.158 7.673 C 5.420 10.606,3.140 13.080,3.090 13.169 C 2.878 13.554,3.061 14.095,3.438 14.200 C 3.527 14.225,4.970 14.240,7.290 14.240 C 9.496 14.240,11.000 14.255,11.000 14.276 C 11.000 14.297,10.550 15.963,10.000 17.981 C 9.450 19.998,9.000 21.701,9.000 21.766 C 9.000 22.149,9.374 22.520,9.760 22.520 C 9.994 22.520,10.095 22.454,10.502 22.034 C 11.714 20.784,20.836 10.965,20.910 10.831 C 21.122 10.446,20.939 9.905,20.562 9.800 C 20.473 9.775,19.030 9.760,16.710 9.760 C 14.065 9.760,13.000 9.748,13.000 9.717 C 13.000 9.693,13.450 8.023,14.000 6.006 C 14.550 3.990,15.000 2.290,15.000 2.229 C 15.000 2.084,14.899 1.846,14.788 1.727 C 14.567 1.490,14.173 1.410,13.940 1.555 M11.995 7.661 C 11.598 9.113,11.264 10.392,11.252 10.504 C 11.222 10.784,11.315 10.970,11.555 11.111 L 11.740 11.220 15.127 11.240 L 18.514 11.260 14.907 15.126 C 12.923 17.252,11.296 18.988,11.291 18.984 C 11.286 18.979,11.614 17.754,12.021 16.263 C 12.427 14.771,12.760 13.487,12.760 13.411 C 12.760 13.191,12.650 13.009,12.445 12.889 L 12.260 12.780 8.873 12.760 L 5.486 12.740 9.093 8.874 C 11.077 6.748,12.704 5.011,12.708 5.015 C 12.712 5.019,12.392 6.210,11.995 7.661 " stroke="none" fill-rule="evenodd" fill="black"></path></svg>