<svg width="24" height="24" viewBox="0 0 24 24" fill="none" xmlns="http://www.w3.org/2000/svg"><path d="M13.940 1.556 C 13.774 1.660,13.489 1.959,10.920 4.720 C 9.682 6.051,8.617 7.194,8.554 7.259 L 8.440 7.379 5.890 4.833 C 3.089 2.036,3.197 2.128,2.835 2.237 C 2.617 2.302,2.302 2.617,2.237 2.835 C 2.123 3.213,1.395 2.449,11.473 12.527 C 19.777 20.831,20.676 21.719,20.830 21.759 C 21.085 21.825,21.288 21.755,21.522 21.522 C 21.756 21.288,21.825 21.084,21.758 20.830 C 21.719 20.679,21.429 20.375,19.149 18.092 L 16.585 15.523 16.803 15.292 C 18.709 13.273,20.840 10.958,20.910 10.831 C 21.122 10.446,20.939 9.905,20.562 9.800 C 20.473 9.775,19.030 9.760,16.710 9.760 C 14.065 9.760,13.000 9.748,13.000 9.717 C 13.000 9.693,13.450 8.023,14.000 6.006 C 14.550 3.990,15.000 2.290,15.000 2.229 C 15.000 2.084,14.899 1.846,14.788 1.727 C 14.567 1.489,14.172 1.410,13.940 1.556 M12.013 7.601 C 11.627 9.020,11.303 10.188,11.294 10.198 C 11.269 10.225,9.518 8.467,9.531 8.428 C 9.543 8.391,12.696 5.004,12.708 5.015 C 12.712 5.019,12.400 6.183,12.013 7.601 M6.100 9.955 C 5.959 10.043,5.666 10.345,4.238 11.873 C 3.656 12.496,3.139 13.079,3.090 13.169 C 2.856 13.594,3.091 14.157,3.528 14.219 C 3.623 14.233,5.026 14.238,6.647 14.232 C 9.552 14.220,9.596 14.219,9.705 14.138 C 9.935 13.965,9.980 13.862,9.980 13.500 C 9.980 13.138,9.935 13.035,9.705 12.862 C 9.597 12.782,9.536 12.779,7.540 12.760 L 5.486 12.740 6.264 11.906 C 6.692 11.448,7.078 11.003,7.121 10.918 C 7.232 10.700,7.221 10.529,7.081 10.307 C 6.844 9.934,6.394 9.772,6.100 9.955 M18.297 11.490 C 17.167 12.713,15.543 14.440,15.524 14.440 C 15.510 14.440,14.780 13.720,13.900 12.840 L 12.300 11.240 15.414 11.240 L 18.529 11.240 18.297 11.490 M11.139 14.922 C 10.976 14.970,10.845 15.099,10.758 15.296 C 10.621 15.608,9.000 21.641,9.000 21.839 C 9.000 22.083,9.122 22.270,9.359 22.390 C 9.604 22.514,9.938 22.514,10.124 22.389 C 10.274 22.288,13.975 18.349,14.144 18.111 C 14.403 17.745,14.268 17.325,13.800 17.044 C 13.592 16.919,13.332 16.931,13.136 17.073 C 13.050 17.136,12.602 17.593,12.140 18.090 C 11.678 18.586,11.296 18.989,11.291 18.984 C 11.286 18.979,11.479 18.250,11.721 17.365 C 11.994 16.362,12.160 15.682,12.160 15.563 C 12.160 15.315,12.037 15.128,11.800 15.014 C 11.587 14.911,11.307 14.872,11.139 14.922 " stroke="none" fill-rule="evenodd" fill="black"></path></svg>