<svg width="24" height="24" viewBox="0 0 24 24" fill="none" xmlns="http://www.w3.org/2000/svg"><path d="M2.731 2.284 C 2.451 2.423,2.200 2.766,2.200 3.012 C 2.200 3.065,2.241 3.183,2.290 3.275 C 2.347 3.382,5.393 6.460,10.640 11.715 C 15.183 16.264,18.918 20.005,18.940 20.029 C 18.962 20.052,19.359 20.441,19.822 20.892 C 20.751 21.798,20.830 21.849,21.165 21.759 C 21.386 21.699,21.699 21.386,21.759 21.165 C 21.848 20.832,21.791 20.740,20.976 19.919 L 20.241 19.177 20.231 12.058 C 20.220 5.344,20.216 4.926,20.148 4.700 C 19.909 3.902,19.336 3.212,18.620 2.859 C 18.230 2.667,17.981 2.612,17.083 2.521 C 13.703 2.180,10.208 2.180,6.940 2.522 C 6.522 2.566,6.090 2.619,5.980 2.641 C 5.606 2.716,4.863 3.129,4.623 3.396 L 4.546 3.482 3.961 2.903 C 3.234 2.181,3.087 2.107,2.731 2.284 M15.260 3.857 C 16.815 3.977,17.612 4.071,17.865 4.165 C 18.176 4.281,18.514 4.619,18.646 4.947 L 18.740 5.180 18.751 11.440 L 18.761 17.700 12.179 11.120 L 5.596 4.540 5.761 4.392 C 6.018 4.161,6.274 4.087,7.115 4.001 C 7.809 3.930,9.312 3.817,10.000 3.785 C 10.821 3.746,14.470 3.797,15.260 3.857 M4.174 8.041 C 4.013 8.091,3.811 8.321,3.781 8.489 C 3.768 8.561,3.762 11.465,3.769 14.943 L 3.780 21.266 3.892 21.434 C 4.040 21.659,4.213 21.760,4.449 21.760 C 4.619 21.760,5.019 21.570,8.320 19.920 L 12.001 18.080 12.930 18.547 C 13.744 18.956,13.886 19.014,14.067 19.017 C 14.315 19.021,14.441 18.942,14.628 18.666 C 14.849 18.339,14.837 17.991,14.594 17.762 C 14.542 17.713,13.983 17.413,13.350 17.096 C 12.329 16.584,12.178 16.520,12.000 16.520 C 11.816 16.520,11.533 16.653,8.560 18.140 C 6.778 19.031,5.302 19.760,5.281 19.760 C 5.254 19.760,5.237 17.805,5.230 14.083 C 5.220 8.420,5.220 8.406,5.138 8.295 C 4.983 8.089,4.866 8.031,4.574 8.016 C 4.423 8.009,4.243 8.020,4.174 8.041 " stroke="none" fill-rule="evenodd" fill="black"></path></svg>