<svg width="24" height="24" viewBox="0 0 24 24" fill="none" xmlns="http://www.w3.org/2000/svg"><path d="M10.520 2.284 C 8.851 2.330,6.420 2.528,5.897 2.661 C 4.952 2.901,4.123 3.736,3.852 4.720 C 3.784 4.966,3.780 5.420,3.780 13.123 L 3.780 21.266 3.892 21.434 C 4.040 21.659,4.213 21.760,4.449 21.760 C 4.619 21.760,5.019 21.570,8.319 19.920 L 12.000 18.080 15.650 19.906 C 19.271 21.718,19.302 21.733,19.542 21.731 C 19.914 21.730,20.112 21.599,20.198 21.300 C 20.232 21.181,20.241 19.040,20.232 13.040 C 20.221 5.379,20.216 4.927,20.148 4.700 C 19.851 3.710,19.038 2.899,18.103 2.661 C 17.836 2.593,16.710 2.473,15.480 2.381 C 14.786 2.329,11.989 2.229,11.740 2.247 C 11.696 2.250,11.147 2.267,10.520 2.284 M15.260 3.857 C 16.815 3.977,17.612 4.071,17.865 4.165 C 18.176 4.281,18.514 4.619,18.646 4.947 L 18.740 5.180 18.751 12.470 C 18.758 17.397,18.748 19.760,18.721 19.760 C 18.698 19.760,17.222 19.031,15.440 18.140 C 12.468 16.654,12.184 16.520,12.000 16.520 C 11.816 16.520,11.532 16.654,8.560 18.140 C 6.778 19.031,5.302 19.760,5.279 19.760 C 5.252 19.760,5.242 17.397,5.249 12.470 L 5.260 5.180 5.354 4.947 C 5.486 4.620,5.824 4.281,6.135 4.165 C 6.454 4.046,8.297 3.865,10.000 3.785 C 10.821 3.746,14.470 3.797,15.260 3.857 " stroke="none" fill-rule="evenodd" fill="black"></path></svg>