<svg width="24" height="24" viewBox="0 0 24 24" fill="none" xmlns="http://www.w3.org/2000/svg"><path d="M5.499 3.043 C 4.375 3.233,3.426 4.083,3.112 5.178 L 3.020 5.500 3.020 12.000 L 3.020 18.500 3.112 18.822 C 3.391 19.796,4.204 20.609,5.178 20.888 L 5.500 20.980 12.000 20.980 L 18.500 20.980 18.822 20.888 C 18.999 20.837,19.269 20.726,19.422 20.641 C 20.129 20.248,20.672 19.574,20.888 18.822 L 20.980 18.500 20.980 12.000 L 20.980 5.500 20.888 5.178 C 20.613 4.217,19.836 3.430,18.861 3.121 L 18.540 3.020 12.120 3.014 C 8.589 3.011,5.609 3.024,5.499 3.043 M6.760 10.620 L 6.780 16.740 6.892 16.930 C 7.036 17.176,7.261 17.299,7.505 17.265 C 7.616 17.250,8.433 16.864,9.838 16.161 L 11.999 15.080 14.161 16.160 C 16.150 17.154,16.339 17.240,16.529 17.240 C 16.789 17.240,17.037 17.123,17.141 16.951 C 17.219 16.822,17.220 16.708,17.240 10.660 L 17.260 4.500 17.782 4.505 C 18.239 4.510,18.336 4.523,18.551 4.610 C 18.942 4.768,19.227 5.052,19.395 5.452 L 19.500 5.700 19.500 12.000 L 19.500 18.300 19.395 18.548 C 19.228 18.946,18.946 19.228,18.548 19.395 L 18.300 19.500 12.000 19.500 L 5.700 19.500 5.452 19.395 C 5.054 19.228,4.772 18.946,4.605 18.548 L 4.500 18.300 4.489 12.202 C 4.482 8.554,4.493 5.995,4.516 5.833 C 4.565 5.475,4.706 5.184,4.945 4.945 C 5.292 4.598,5.650 4.484,6.360 4.494 L 6.740 4.500 6.760 10.620 M15.750 9.890 C 15.756 12.855,15.751 15.280,15.740 15.280 C 15.729 15.280,14.928 14.884,13.960 14.400 C 12.370 13.605,12.181 13.520,12.000 13.520 C 11.819 13.520,11.630 13.605,10.040 14.400 C 9.072 14.884,8.271 15.280,8.260 15.280 C 8.229 15.280,8.236 4.537,8.267 4.506 C 8.282 4.492,9.969 4.484,12.017 4.490 L 15.740 4.500 15.750 9.890 " stroke="none" fill-rule="evenodd" fill="black"></path></svg>