<svg width="24" height="24" viewBox="0 0 24 24" fill="none" xmlns="http://www.w3.org/2000/svg"><path d="M5.460 3.026 C 4.673 3.073,3.836 3.221,3.105 3.444 C 2.638 3.587,2.432 3.706,2.331 3.890 C 2.264 4.013,2.260 4.403,2.260 11.400 C 2.260 18.773,2.260 18.780,2.342 18.920 C 2.541 19.258,2.904 19.327,3.500 19.140 C 4.911 18.697,6.567 18.638,7.932 18.981 C 9.166 19.292,10.619 20.035,11.295 20.700 C 11.803 21.200,12.197 21.200,12.705 20.700 C 13.381 20.035,14.834 19.292,16.068 18.981 C 17.433 18.638,19.089 18.697,20.500 19.140 C 21.096 19.327,21.459 19.258,21.658 18.920 C 21.740 18.780,21.740 18.773,21.740 11.400 C 21.740 4.403,21.736 4.013,21.669 3.890 C 21.569 3.706,21.362 3.587,20.900 3.446 C 18.730 2.785,16.395 2.878,14.360 3.709 C 13.635 4.005,12.789 4.473,12.270 4.866 C 12.143 4.962,12.022 5.040,12.000 5.040 C 11.978 5.040,11.857 4.962,11.730 4.866 C 11.211 4.473,10.365 4.005,9.640 3.709 C 8.331 3.174,6.903 2.941,5.460 3.026 M6.980 4.564 C 8.411 4.730,9.779 5.282,10.970 6.174 L 11.240 6.376 11.240 12.568 C 11.240 15.974,11.233 18.760,11.224 18.760 C 11.215 18.760,11.093 18.690,10.953 18.605 C 9.882 17.954,8.511 17.491,7.140 17.318 C 6.374 17.221,4.746 17.285,4.120 17.438 C 4.043 17.457,3.931 17.483,3.870 17.497 L 3.760 17.522 3.760 11.164 L 3.760 4.807 4.190 4.707 C 5.070 4.503,6.033 4.454,6.980 4.564 M18.960 4.563 C 19.169 4.585,19.543 4.648,19.790 4.704 L 20.240 4.806 20.240 11.164 L 20.240 17.522 20.130 17.497 C 20.070 17.483,19.957 17.457,19.880 17.438 C 19.254 17.285,17.626 17.221,16.860 17.318 C 15.489 17.491,14.118 17.954,13.047 18.605 C 12.907 18.690,12.785 18.760,12.776 18.760 C 12.767 18.760,12.760 15.974,12.760 12.568 L 12.760 6.376 13.030 6.174 C 14.770 4.872,16.756 4.332,18.960 4.563 " stroke="none" fill-rule="evenodd" fill="black"></path></svg>