<svg width="24" height="24" viewBox="0 0 24 24" fill="none" xmlns="http://www.w3.org/2000/svg"><path d="M10.112 2.280 C 9.734 2.327,9.421 2.424,9.120 2.588 C 8.140 3.122,7.520 4.105,7.520 5.128 C 7.520 5.344,7.504 5.448,7.470 5.460 C 7.442 5.469,7.204 5.496,6.940 5.521 C 6.324 5.577,4.720 5.786,4.460 5.843 C 4.163 5.909,3.569 6.209,3.331 6.413 C 2.897 6.786,2.558 7.277,2.402 7.760 C 2.255 8.214,2.233 8.671,2.251 10.865 C 2.270 13.183,2.270 13.184,2.558 13.780 C 2.643 13.956,2.778 14.184,2.857 14.288 L 3.000 14.475 3.001 16.568 C 3.003 18.860,3.017 19.042,3.231 19.551 C 3.576 20.372,4.384 21.072,5.200 21.256 C 5.751 21.381,7.992 21.599,9.580 21.682 C 10.661 21.739,13.339 21.739,14.420 21.682 C 16.008 21.599,18.249 21.381,18.800 21.256 C 19.616 21.072,20.424 20.372,20.769 19.551 C 20.983 19.042,20.997 18.859,20.999 16.572 L 21.000 14.484 21.181 14.224 C 21.402 13.908,21.578 13.529,21.671 13.169 C 21.733 12.929,21.740 12.649,21.740 10.580 C 21.740 8.440,21.734 8.238,21.665 7.980 C 21.509 7.395,21.147 6.823,20.680 6.422 C 20.433 6.210,19.842 5.910,19.540 5.843 C 19.280 5.786,17.676 5.577,17.060 5.521 C 16.796 5.496,16.558 5.469,16.530 5.460 C 16.496 5.448,16.480 5.344,16.480 5.128 C 16.480 3.891,15.538 2.694,14.297 2.353 C 13.996 2.271,13.888 2.266,12.180 2.257 C 11.190 2.251,10.260 2.262,10.112 2.280 M14.089 3.867 C 14.613 4.109,15.000 4.679,15.000 5.208 C 15.000 5.347,14.991 5.360,14.910 5.341 C 14.861 5.330,14.185 5.303,13.410 5.281 C 12.108 5.243,9.350 5.282,9.090 5.341 C 9.009 5.360,9.000 5.347,9.000 5.208 C 9.000 4.725,9.351 4.160,9.800 3.920 C 10.079 3.770,10.180 3.764,12.060 3.772 C 13.858 3.780,13.904 3.782,14.089 3.867 M14.545 6.820 C 16.434 6.931,18.858 7.198,19.321 7.348 C 19.601 7.438,19.958 7.767,20.108 8.073 L 20.220 8.300 20.232 10.500 C 20.241 12.121,20.231 12.747,20.196 12.880 C 20.129 13.127,19.976 13.383,19.833 13.485 C 19.767 13.532,19.672 13.611,19.622 13.662 C 19.381 13.903,16.921 14.535,15.360 14.757 C 14.036 14.945,13.561 14.976,12.000 14.976 C 10.439 14.976,9.964 14.945,8.640 14.757 C 7.079 14.535,4.619 13.903,4.378 13.662 C 4.328 13.611,4.233 13.532,4.167 13.485 C 4.024 13.383,3.871 13.127,3.804 12.880 C 3.769 12.747,3.759 12.121,3.768 10.500 L 3.780 8.300 3.892 8.073 C 4.043 7.765,4.398 7.439,4.683 7.346 C 5.196 7.179,7.831 6.902,10.000 6.787 C 10.766 6.746,13.632 6.767,14.545 6.820 M11.660 12.059 C 11.572 12.092,11.497 12.119,11.493 12.119 C 11.489 12.120,11.445 12.176,11.396 12.245 C 11.222 12.491,11.211 12.966,11.376 13.210 C 11.510 13.410,11.681 13.487,11.993 13.489 C 12.522 13.493,12.740 13.280,12.740 12.760 C 12.740 12.412,12.658 12.230,12.447 12.107 C 12.272 12.005,11.869 11.980,11.660 12.059 M4.697 15.399 C 4.753 15.420,5.092 15.518,5.450 15.615 C 6.860 16.000,7.948 16.200,9.660 16.388 C 10.170 16.444,10.645 16.459,12.000 16.459 C 13.355 16.459,13.830 16.444,14.340 16.388 C 16.052 16.200,17.140 16.000,18.550 15.615 C 18.908 15.518,19.247 15.420,19.303 15.399 C 19.532 15.312,19.520 15.233,19.520 16.850 C 19.519 18.376,19.494 18.727,19.361 19.027 C 19.268 19.238,18.994 19.537,18.782 19.660 C 18.556 19.791,18.398 19.825,17.600 19.919 C 13.948 20.349,10.052 20.349,6.400 19.919 C 5.602 19.825,5.444 19.791,5.218 19.660 C 5.006 19.537,4.732 19.238,4.639 19.027 C 4.506 18.727,4.481 18.376,4.480 16.850 C 4.480 15.233,4.468 15.312,4.697 15.399 " stroke="none" fill-rule="evenodd" fill="black"></path></svg>