<svg width="24" height="24" viewBox="0 0 24 24" fill="none" xmlns="http://www.w3.org/2000/svg"><path d="M7.729 1.565 C 7.372 1.794,6.868 3.048,6.813 3.847 C 6.790 4.171,6.795 4.205,6.894 4.373 C 6.951 4.471,7.170 4.713,7.380 4.910 L 7.761 5.267 7.704 5.430 C 7.593 5.744,7.520 6.268,7.520 6.751 C 7.520 7.514,7.618 7.839,7.964 8.217 C 8.237 8.515,8.560 8.676,9.056 8.759 C 9.278 8.796,9.459 8.843,9.457 8.863 C 9.456 8.884,9.384 9.048,9.297 9.229 C 9.158 9.521,9.128 9.559,9.033 9.559 C 8.693 9.561,6.850 9.195,5.868 8.931 L 5.311 8.781 5.338 8.441 C 5.375 7.971,5.463 7.296,5.585 6.549 C 5.647 6.169,5.678 5.862,5.662 5.778 C 5.606 5.480,5.247 5.240,4.855 5.240 C 4.550 5.240,4.307 5.430,4.220 5.739 C 4.073 6.260,3.851 8.034,3.816 8.960 C 3.795 9.540,3.799 9.588,3.876 9.710 C 3.993 9.894,4.153 9.981,4.676 10.145 C 5.721 10.473,7.207 10.809,8.354 10.976 C 8.713 11.029,9.021 11.087,9.038 11.106 C 9.055 11.125,9.090 11.227,9.116 11.334 C 9.142 11.441,9.226 11.653,9.303 11.806 C 9.380 11.958,9.434 12.098,9.422 12.116 C 9.411 12.134,9.262 12.161,9.091 12.177 C 7.689 12.303,5.566 12.787,3.900 13.361 C 3.340 13.554,3.192 13.653,3.099 13.897 C 3.035 14.065,3.035 14.123,3.098 14.861 C 3.248 16.626,3.597 18.434,4.105 20.078 C 4.342 20.844,4.475 21.000,4.888 21.000 C 5.159 20.999,5.475 20.856,5.603 20.675 C 5.745 20.476,5.727 20.210,5.526 19.582 C 5.108 18.274,4.717 16.333,4.617 15.070 L 4.589 14.720 4.725 14.665 C 4.945 14.574,6.038 14.265,6.061 14.287 C 6.072 14.298,6.059 14.445,6.033 14.614 C 5.979 14.965,6.033 15.962,6.140 16.580 C 6.641 19.476,8.448 21.719,10.788 22.349 C 11.148 22.446,11.246 22.455,11.980 22.457 C 12.698 22.460,12.817 22.450,13.140 22.365 C 15.336 21.788,17.053 19.874,17.717 17.260 C 17.925 16.441,18.044 15.184,17.966 14.632 C 17.941 14.453,17.929 14.298,17.940 14.287 C 17.962 14.264,19.050 14.575,19.269 14.666 L 19.411 14.725 19.383 15.073 C 19.284 16.326,18.890 18.280,18.475 19.580 C 18.273 20.210,18.254 20.476,18.397 20.675 C 18.525 20.856,18.841 20.999,19.112 21.000 C 19.525 21.000,19.658 20.844,19.895 20.078 C 20.357 18.584,20.704 16.873,20.856 15.340 C 20.975 14.146,20.977 14.069,20.889 13.872 C 20.784 13.634,20.664 13.556,20.098 13.361 C 18.453 12.793,16.360 12.314,14.940 12.180 C 14.499 12.138,14.514 12.166,14.706 11.775 C 14.799 11.585,14.886 11.360,14.901 11.275 C 14.915 11.190,14.946 11.109,14.969 11.095 C 14.991 11.081,15.300 11.027,15.655 10.975 C 16.793 10.809,18.283 10.472,19.324 10.145 C 20.094 9.903,20.200 9.793,20.200 9.237 C 20.200 8.572,19.986 6.708,19.816 5.902 C 19.696 5.333,19.367 5.135,18.811 5.300 C 18.569 5.372,18.377 5.568,18.336 5.785 C 18.319 5.878,18.347 6.158,18.415 6.558 C 18.517 7.161,18.680 8.470,18.680 8.682 C 18.680 8.779,18.654 8.791,18.128 8.932 C 17.149 9.195,15.307 9.561,14.967 9.559 C 14.872 9.559,14.842 9.521,14.703 9.229 C 14.616 9.048,14.544 8.884,14.543 8.863 C 14.541 8.843,14.722 8.796,14.944 8.759 C 15.761 8.622,16.283 8.162,16.435 7.448 C 16.538 6.965,16.465 5.909,16.297 5.432 L 16.241 5.272 16.643 4.890 C 17.164 4.394,17.218 4.290,17.187 3.841 C 17.131 3.040,16.623 1.785,16.265 1.563 C 15.988 1.392,15.484 1.523,15.253 1.826 C 15.072 2.063,15.082 2.274,15.295 2.708 C 15.394 2.910,15.522 3.223,15.579 3.404 L 15.683 3.732 15.594 3.826 L 15.506 3.920 15.313 3.703 C 14.747 3.069,13.840 2.552,12.942 2.353 C 12.437 2.240,11.563 2.240,11.058 2.353 C 10.160 2.552,9.253 3.069,8.687 3.703 L 8.494 3.920 8.406 3.826 L 8.317 3.732 8.421 3.404 C 8.478 3.223,8.606 2.910,8.705 2.708 C 8.918 2.274,8.928 2.063,8.747 1.826 C 8.515 1.522,8.002 1.390,7.729 1.565 M12.704 3.841 C 14.063 4.188,14.999 5.382,15.000 6.770 C 15.000 7.214,14.969 7.251,14.536 7.316 C 13.027 7.545,10.973 7.545,9.464 7.316 C 9.031 7.251,9.000 7.214,9.000 6.770 C 9.001 5.390,9.932 4.196,11.281 3.843 C 11.693 3.735,12.285 3.734,12.704 3.841 M12.454 9.075 C 13.520 9.426,13.840 10.763,13.049 11.555 C 12.755 11.849,12.401 11.999,12.000 11.999 C 11.599 11.999,11.245 11.849,10.951 11.555 C 10.496 11.100,10.383 10.455,10.654 9.861 C 10.964 9.185,11.749 8.842,12.454 9.075 M12.840 13.521 C 14.389 13.585,15.434 13.714,15.758 13.879 C 15.980 13.992,16.224 14.218,16.339 14.417 C 16.477 14.654,16.510 14.916,16.475 15.501 C 16.317 18.137,14.817 20.371,12.860 20.882 C 11.067 21.350,9.235 20.311,8.238 18.260 C 7.959 17.687,7.801 17.221,7.663 16.568 C 7.542 15.995,7.474 15.095,7.528 14.791 C 7.624 14.255,8.062 13.860,8.693 13.741 C 9.140 13.656,10.223 13.556,11.038 13.522 C 11.446 13.506,11.807 13.490,11.840 13.487 C 11.873 13.484,12.323 13.499,12.840 13.521 " stroke="none" fill-rule="evenodd" fill="black"></path></svg>