<svg width="24" height="24" viewBox="0 0 24 24" fill="none" xmlns="http://www.w3.org/2000/svg"><path d="M4.267 2.279 C 3.954 2.339,3.796 2.543,3.768 2.926 C 3.731 3.416,3.914 3.663,4.370 3.739 L 4.520 3.764 4.520 11.996 L 4.520 20.229 3.983 20.249 C 3.520 20.267,3.427 20.282,3.302 20.359 C 3.090 20.490,3.022 20.646,3.022 21.000 C 3.022 21.357,3.090 21.510,3.309 21.646 L 3.460 21.740 12.000 21.740 L 20.540 21.740 20.680 21.653 C 20.904 21.513,20.980 21.349,20.980 21.000 C 20.980 20.761,20.962 20.671,20.893 20.560 C 20.739 20.313,20.611 20.268,20.012 20.248 L 19.480 20.230 19.480 11.997 L 19.480 3.764 19.630 3.739 C 20.086 3.663,20.269 3.416,20.232 2.926 C 20.203 2.535,20.049 2.342,19.714 2.277 C 19.501 2.236,4.481 2.237,4.267 2.279 M18.000 12.000 L 18.000 20.240 16.880 20.240 L 15.760 20.240 15.760 18.910 C 15.760 18.178,15.741 17.463,15.719 17.320 C 15.607 16.609,15.009 15.962,14.315 15.802 C 14.080 15.748,9.920 15.748,9.685 15.802 C 8.991 15.962,8.393 16.609,8.281 17.320 C 8.259 17.463,8.240 18.178,8.240 18.910 L 8.240 20.240 7.120 20.240 L 6.000 20.240 6.000 12.000 L 6.000 3.760 12.000 3.760 L 18.000 3.760 18.000 12.000 M8.718 6.038 C 8.392 6.137,8.267 6.332,8.267 6.740 C 8.267 7.062,8.337 7.229,8.533 7.376 C 8.640 7.456,8.701 7.461,9.701 7.472 C 10.707 7.483,10.764 7.480,10.921 7.400 C 11.122 7.297,11.238 7.071,11.239 6.780 C 11.240 6.379,11.102 6.145,10.804 6.045 C 10.649 5.994,8.884 5.987,8.718 6.038 M13.180 6.047 C 12.896 6.149,12.760 6.388,12.761 6.780 C 12.762 7.071,12.878 7.297,13.079 7.400 C 13.236 7.480,13.293 7.483,14.299 7.472 C 15.299 7.461,15.360 7.456,15.467 7.376 C 15.665 7.228,15.733 7.063,15.731 6.739 C 15.729 6.400,15.656 6.242,15.440 6.107 C 15.307 6.024,15.251 6.020,14.300 6.012 C 13.665 6.007,13.256 6.020,13.180 6.047 M8.718 9.038 C 8.392 9.137,8.267 9.332,8.267 9.740 C 8.267 10.062,8.337 10.229,8.533 10.376 C 8.640 10.456,8.701 10.461,9.701 10.472 C 10.707 10.483,10.764 10.480,10.921 10.400 C 11.122 10.297,11.238 10.071,11.239 9.780 C 11.240 9.379,11.102 9.145,10.804 9.045 C 10.649 8.994,8.884 8.987,8.718 9.038 M13.180 9.047 C 12.896 9.149,12.760 9.388,12.761 9.780 C 12.762 10.071,12.878 10.297,13.079 10.400 C 13.236 10.480,13.293 10.483,14.299 10.472 C 15.299 10.461,15.360 10.456,15.467 10.376 C 15.665 10.228,15.733 10.063,15.731 9.739 C 15.729 9.400,15.656 9.242,15.440 9.107 C 15.307 9.024,15.251 9.020,14.300 9.012 C 13.665 9.007,13.256 9.020,13.180 9.047 M8.718 12.038 C 8.392 12.137,8.267 12.332,8.267 12.740 C 8.267 13.062,8.337 13.229,8.533 13.376 C 8.640 13.456,8.701 13.461,9.701 13.472 C 10.707 13.483,10.764 13.480,10.921 13.400 C 11.122 13.297,11.238 13.071,11.239 12.780 C 11.240 12.379,11.102 12.145,10.804 12.045 C 10.649 11.994,8.884 11.987,8.718 12.038 M13.180 12.047 C 12.896 12.149,12.760 12.388,12.761 12.780 C 12.762 13.071,12.878 13.297,13.079 13.400 C 13.236 13.480,13.293 13.483,14.299 13.472 C 15.299 13.461,15.360 13.456,15.467 13.376 C 15.665 13.228,15.733 13.063,15.731 12.739 C 15.729 12.400,15.656 12.242,15.440 12.107 C 15.307 12.024,15.251 12.020,14.300 12.012 C 13.665 12.007,13.256 12.020,13.180 12.047 M14.018 17.297 C 14.093 17.328,14.173 17.390,14.197 17.434 C 14.225 17.487,14.240 17.978,14.240 18.877 L 14.240 20.240 12.000 20.240 L 9.760 20.240 9.760 18.877 C 9.760 17.979,9.775 17.487,9.803 17.434 C 9.901 17.250,9.983 17.243,11.991 17.242 C 13.534 17.240,13.908 17.250,14.018 17.297 " stroke="none" fill-rule="evenodd" fill="black"></path></svg>