<svg width="24" height="24" viewBox="0 0 24 24" fill="none" xmlns="http://www.w3.org/2000/svg"><path d="M11.739 2.315 C 11.520 2.414,2.574 8.377,2.409 8.533 C 2.122 8.805,2.157 9.175,2.507 9.562 C 2.666 9.739,2.875 9.815,3.085 9.773 C 3.168 9.756,4.904 8.623,7.590 6.833 C 9.994 5.231,11.978 3.920,12.000 3.920 C 12.022 3.920,14.007 5.231,16.411 6.834 C 19.307 8.764,20.830 9.757,20.924 9.774 C 21.197 9.826,21.475 9.661,21.659 9.340 C 21.843 9.018,21.821 8.751,21.591 8.533 C 21.426 8.377,12.480 2.414,12.261 2.315 C 12.058 2.223,11.942 2.223,11.739 2.315 M11.660 6.059 C 11.572 6.092,11.497 6.119,11.493 6.119 C 11.489 6.120,11.445 6.176,11.396 6.245 C 11.222 6.491,11.211 6.966,11.376 7.210 C 11.510 7.410,11.681 7.487,11.993 7.489 C 12.522 7.493,12.740 7.280,12.740 6.760 C 12.740 6.412,12.658 6.230,12.447 6.107 C 12.272 6.005,11.869 5.980,11.660 6.059 M10.500 9.024 C 8.522 9.100,6.695 9.260,5.000 9.504 C 4.244 9.613,4.007 9.694,3.862 9.893 C 3.780 10.005,3.780 10.034,3.770 15.118 L 3.759 20.229 3.245 20.248 C 2.687 20.268,2.548 20.313,2.390 20.525 C 2.222 20.751,2.222 21.249,2.390 21.475 C 2.433 21.533,2.529 21.616,2.604 21.660 C 2.739 21.739,2.812 21.740,12.000 21.740 C 21.188 21.740,21.261 21.739,21.396 21.660 C 21.471 21.616,21.567 21.533,21.610 21.475 C 21.778 21.249,21.778 20.751,21.610 20.525 C 21.452 20.313,21.313 20.268,20.755 20.248 L 20.241 20.229 20.230 15.118 C 20.220 10.034,20.220 10.005,20.138 9.893 C 19.978 9.673,19.777 9.615,18.660 9.464 C 16.507 9.173,14.768 9.051,12.420 9.026 C 11.562 9.018,10.698 9.016,10.500 9.024 M14.680 10.583 C 15.771 10.643,17.359 10.790,18.240 10.912 L 18.740 10.981 18.750 15.610 L 18.760 20.240 17.620 20.240 L 16.480 20.240 16.480 16.355 C 16.480 12.487,16.480 12.470,16.396 12.322 C 16.268 12.093,16.114 12.020,15.760 12.020 C 15.409 12.020,15.231 12.102,15.101 12.321 C 15.021 12.458,15.020 12.519,15.009 16.350 L 14.998 20.240 13.881 20.240 L 12.763 20.240 12.751 16.350 L 12.740 12.460 12.653 12.320 C 12.513 12.095,12.349 12.020,12.000 12.021 C 11.643 12.022,11.490 12.090,11.354 12.309 L 11.260 12.460 11.249 16.350 L 11.238 20.240 10.120 20.240 L 9.002 20.240 8.991 16.350 C 8.980 12.519,8.979 12.458,8.899 12.321 C 8.769 12.102,8.591 12.020,8.240 12.020 C 7.886 12.020,7.732 12.093,7.604 12.322 C 7.520 12.470,7.520 12.487,7.520 16.355 L 7.520 20.240 6.380 20.240 L 5.240 20.240 5.250 15.610 L 5.260 10.980 5.760 10.911 C 8.453 10.537,11.700 10.418,14.680 10.583 " stroke="none" fill-rule="evenodd" fill="black"></path></svg>