<svg width="24" height="24" viewBox="0 0 24 24" fill="none" xmlns="http://www.w3.org/2000/svg"><path d="M5.014 2.282 C 4.424 2.359,4.133 2.559,3.118 3.588 C 2.112 4.605,1.895 4.920,1.652 5.708 C 1.553 6.031,1.544 6.116,1.543 6.740 C 1.543 7.276,1.558 7.475,1.615 7.680 C 1.797 8.336,2.156 8.946,2.644 9.430 C 2.805 9.590,2.950 9.720,2.968 9.720 C 2.986 9.720,3.000 12.084,3.000 14.974 L 3.000 20.229 2.543 20.249 C 1.916 20.277,1.714 20.403,1.637 20.815 C 1.568 21.182,1.691 21.499,1.964 21.660 C 2.099 21.739,2.172 21.740,12.000 21.740 C 21.828 21.740,21.901 21.739,22.036 21.660 C 22.309 21.499,22.432 21.182,22.363 20.815 C 22.286 20.403,22.084 20.277,21.457 20.249 L 21.000 20.229 21.000 14.978 C 21.000 11.544,21.014 9.722,21.040 9.713 C 21.144 9.678,21.671 9.105,21.860 8.820 C 22.083 8.484,22.312 7.972,22.405 7.600 C 22.441 7.455,22.459 7.154,22.458 6.720 C 22.455 6.118,22.445 6.028,22.345 5.702 C 22.204 5.242,21.961 4.776,21.676 4.421 C 21.552 4.267,21.109 3.803,20.693 3.392 C 19.994 2.702,19.908 2.631,19.597 2.482 C 19.360 2.368,19.171 2.308,18.960 2.281 C 18.596 2.234,5.376 2.235,5.014 2.282 M18.938 3.822 C 19.113 3.905,20.561 5.373,20.694 5.603 C 20.869 5.906,20.964 6.235,20.987 6.620 C 21.026 7.273,20.809 7.857,20.360 8.303 C 20.152 8.510,20.010 8.607,19.600 8.823 C 19.421 8.918,19.029 9.000,18.762 8.999 C 18.177 8.998,17.652 8.785,17.193 8.362 C 16.842 8.039,16.700 7.960,16.471 7.960 C 16.271 7.960,16.190 8.008,15.857 8.323 C 15.333 8.819,14.936 8.980,14.240 8.978 C 13.866 8.977,13.732 8.960,13.525 8.886 C 13.206 8.773,12.907 8.584,12.700 8.364 C 12.449 8.099,12.214 7.960,12.016 7.960 C 11.763 7.960,11.672 8.009,11.351 8.318 C 10.834 8.818,10.292 9.027,9.620 8.987 C 9.023 8.951,8.629 8.776,8.167 8.342 C 7.849 8.043,7.700 7.960,7.479 7.960 C 7.266 7.960,7.220 7.987,6.832 8.340 C 6.339 8.789,5.833 8.998,5.238 8.999 C 4.971 9.000,4.579 8.918,4.400 8.823 C 3.990 8.607,3.848 8.510,3.640 8.303 C 2.941 7.608,2.801 6.476,3.306 5.603 C 3.435 5.381,4.881 3.909,5.055 3.823 C 5.166 3.769,5.947 3.762,11.994 3.761 C 18.050 3.760,18.822 3.767,18.938 3.822 M7.706 9.884 C 7.956 10.056,8.410 10.260,8.784 10.369 C 9.057 10.447,9.190 10.460,9.760 10.460 C 10.277 10.459,10.472 10.444,10.660 10.388 C 11.067 10.266,11.390 10.127,11.701 9.938 L 12.000 9.757 12.299 9.938 C 12.610 10.127,12.933 10.266,13.340 10.388 C 13.528 10.444,13.723 10.459,14.240 10.460 C 14.810 10.460,14.943 10.447,15.216 10.369 C 15.592 10.260,16.044 10.056,16.297 9.882 L 16.480 9.756 16.780 9.939 C 17.465 10.355,18.059 10.500,18.950 10.471 L 19.520 10.452 19.520 15.346 L 19.520 20.240 19.140 20.240 L 18.760 20.240 18.759 16.890 C 18.759 15.047,18.742 13.425,18.722 13.285 C 18.654 12.820,18.341 12.375,17.935 12.167 C 17.627 12.011,17.382 11.994,15.600 12.007 L 13.900 12.020 13.640 12.143 C 13.321 12.294,13.042 12.566,12.893 12.870 L 12.780 13.100 12.769 16.670 L 12.758 20.240 8.619 20.240 L 4.480 20.240 4.480 15.348 L 4.480 10.456 5.070 10.472 C 5.839 10.492,6.264 10.411,6.850 10.129 C 7.075 10.021,7.305 9.894,7.360 9.847 C 7.490 9.738,7.494 9.738,7.706 9.884 M6.375 12.055 C 5.786 12.201,5.362 12.690,5.274 13.323 C 5.251 13.490,5.240 14.430,5.247 15.594 L 5.260 17.580 5.387 17.848 C 5.549 18.189,5.811 18.451,6.152 18.613 L 6.420 18.740 8.406 18.753 C 10.490 18.766,10.837 18.747,11.140 18.600 C 11.389 18.479,11.684 18.203,11.808 17.974 C 11.995 17.629,12.006 17.457,11.993 15.220 L 11.980 13.140 11.868 12.900 C 11.721 12.585,11.413 12.276,11.104 12.133 L 10.860 12.020 8.720 12.012 C 7.106 12.007,6.530 12.017,6.375 12.055 M10.510 15.370 L 10.521 17.240 8.640 17.240 L 6.760 17.240 6.760 15.360 L 6.760 13.479 8.630 13.490 L 10.500 13.500 10.510 15.370 M17.240 16.860 L 17.240 20.240 15.740 20.240 L 14.240 20.240 14.240 16.887 C 14.240 15.042,14.252 13.521,14.267 13.507 C 14.281 13.492,14.956 13.480,15.767 13.480 L 17.240 13.480 17.240 16.860 " stroke="none" fill-rule="evenodd" fill="black"></path></svg>