<svg width="24" height="24" viewBox="0 0 24 24" fill="none" xmlns="http://www.w3.org/2000/svg"><path d="M2.787 2.279 C 2.448 2.344,2.268 2.592,2.268 2.994 C 2.268 3.375,2.436 3.645,2.706 3.701 C 2.758 3.711,2.845 3.729,2.900 3.741 L 3.000 3.762 3.000 11.995 L 3.000 20.229 2.485 20.248 C 1.923 20.268,1.788 20.313,1.624 20.533 C 1.553 20.628,1.540 20.702,1.540 21.000 C 1.540 21.398,1.593 21.512,1.844 21.660 C 1.979 21.739,2.052 21.740,12.000 21.740 C 21.948 21.740,22.021 21.739,22.156 21.660 C 22.407 21.512,22.460 21.398,22.460 21.000 C 22.460 20.702,22.447 20.628,22.376 20.533 C 22.212 20.313,22.077 20.268,21.515 20.248 L 21.000 20.229 21.000 14.240 L 21.000 8.251 21.155 8.230 C 21.363 8.202,21.516 8.123,21.611 7.994 C 21.778 7.768,21.784 7.267,21.623 7.028 C 21.449 6.769,21.615 6.781,18.150 6.769 L 15.000 6.759 15.000 5.260 L 15.000 3.762 15.100 3.741 C 15.155 3.729,15.242 3.711,15.294 3.701 C 15.564 3.645,15.732 3.375,15.732 2.994 C 15.732 2.583,15.555 2.347,15.194 2.277 C 14.981 2.236,3.001 2.237,2.787 2.279 M13.520 12.000 L 13.520 20.240 12.760 20.240 L 12.000 20.240 12.000 18.842 C 12.000 17.951,11.984 17.367,11.955 17.232 C 11.813 16.569,11.263 15.988,10.622 15.822 C 10.273 15.732,7.727 15.732,7.378 15.822 C 6.736 15.988,6.183 16.572,6.045 17.232 C 6.017 17.365,6.000 17.968,6.000 18.842 L 6.000 20.240 5.240 20.240 L 4.480 20.240 4.480 12.000 L 4.480 3.760 9.000 3.760 L 13.520 3.760 13.520 12.000 M6.420 6.060 C 6.122 6.166,5.971 6.464,6.013 6.869 C 6.040 7.132,6.132 7.289,6.322 7.396 C 6.456 7.472,6.535 7.480,7.117 7.480 C 7.690 7.480,7.781 7.471,7.925 7.398 C 8.122 7.297,8.238 7.069,8.239 6.780 C 8.240 6.379,8.102 6.145,7.804 6.045 C 7.606 5.979,6.619 5.990,6.420 6.060 M10.180 6.046 C 9.896 6.150,9.760 6.388,9.761 6.780 C 9.762 7.069,9.878 7.297,10.075 7.398 C 10.219 7.471,10.310 7.480,10.883 7.480 C 11.607 7.480,11.751 7.439,11.904 7.186 C 12.014 7.004,12.011 6.513,11.899 6.321 C 11.746 6.061,11.620 6.021,10.920 6.011 C 10.550 6.006,10.252 6.020,10.180 6.046 M19.510 14.250 L 19.520 20.240 17.260 20.240 L 15.000 20.240 15.000 14.240 L 15.000 8.239 17.250 8.250 L 19.500 8.260 19.510 14.250 M6.420 9.060 C 6.122 9.166,5.971 9.464,6.013 9.869 C 6.040 10.132,6.132 10.289,6.322 10.396 C 6.456 10.472,6.535 10.480,7.117 10.480 C 7.690 10.480,7.781 10.471,7.925 10.398 C 8.122 10.297,8.238 10.069,8.239 9.780 C 8.240 9.379,8.102 9.145,7.804 9.045 C 7.606 8.979,6.619 8.990,6.420 9.060 M10.180 9.046 C 9.896 9.150,9.760 9.388,9.761 9.780 C 9.762 10.069,9.878 10.297,10.075 10.398 C 10.219 10.471,10.310 10.480,10.883 10.480 C 11.607 10.480,11.751 10.439,11.904 10.186 C 12.014 10.004,12.011 9.513,11.899 9.321 C 11.746 9.061,11.620 9.021,10.920 9.011 C 10.550 9.006,10.252 9.020,10.180 9.046 M16.843 10.590 C 16.613 10.707,16.542 10.843,16.526 11.197 C 16.508 11.605,16.594 11.791,16.862 11.921 C 17.017 11.996,17.092 12.007,17.327 11.990 C 17.776 11.958,17.958 11.776,17.990 11.327 C 18.016 10.964,17.911 10.718,17.677 10.599 C 17.475 10.495,17.038 10.491,16.843 10.590 M6.420 12.060 C 6.122 12.166,5.971 12.464,6.013 12.869 C 6.040 13.132,6.132 13.289,6.322 13.396 C 6.456 13.472,6.535 13.480,7.117 13.480 C 7.690 13.480,7.781 13.471,7.925 13.398 C 8.122 13.297,8.238 13.069,8.239 12.780 C 8.240 12.379,8.102 12.145,7.804 12.045 C 7.606 11.979,6.619 11.990,6.420 12.060 M10.180 12.046 C 9.896 12.150,9.760 12.388,9.761 12.780 C 9.762 13.069,9.878 13.297,10.075 13.398 C 10.219 13.471,10.310 13.480,10.883 13.480 C 11.607 13.480,11.751 13.439,11.904 13.186 C 12.014 13.004,12.011 12.513,11.899 12.321 C 11.746 12.061,11.620 12.021,10.920 12.011 C 10.550 12.006,10.252 12.020,10.180 12.046 M16.843 13.590 C 16.613 13.707,16.542 13.843,16.526 14.197 C 16.508 14.605,16.594 14.791,16.862 14.921 C 17.017 14.996,17.092 15.007,17.327 14.990 C 17.776 14.958,17.958 14.776,17.990 14.327 C 18.016 13.964,17.911 13.718,17.677 13.599 C 17.475 13.495,17.038 13.491,16.843 13.590 M16.843 16.590 C 16.613 16.707,16.542 16.843,16.526 17.197 C 16.508 17.605,16.594 17.791,16.862 17.921 C 17.017 17.996,17.092 18.007,17.327 17.990 C 17.776 17.958,17.958 17.776,17.990 17.327 C 18.016 16.964,17.911 16.718,17.677 16.599 C 17.475 16.495,17.038 16.491,16.843 16.590 M10.280 17.291 C 10.335 17.319,10.411 17.404,10.450 17.481 C 10.512 17.605,10.520 17.763,10.520 18.930 L 10.520 20.240 8.998 20.240 L 7.476 20.240 7.488 18.864 C 7.499 17.554,7.504 17.484,7.580 17.399 C 7.624 17.351,7.696 17.296,7.740 17.278 C 7.877 17.222,10.165 17.234,10.280 17.291 " stroke="none" fill-rule="evenodd" fill="black"></path></svg>