<svg width="24" height="24" viewBox="0 0 24 24" fill="none" xmlns="http://www.w3.org/2000/svg"><path d="M8.809 2.084 C 8.630 2.137,8.160 2.590,8.024 2.840 C 7.739 3.363,7.900 3.985,8.408 4.320 C 8.613 4.455,8.633 4.460,9.000 4.460 C 9.346 4.460,9.395 4.450,9.547 4.351 C 9.760 4.213,9.903 4.062,10.012 3.860 C 10.139 3.625,10.135 3.129,10.004 2.882 C 9.897 2.678,9.525 2.274,9.343 2.162 C 9.185 2.065,8.975 2.034,8.809 2.084 M11.809 2.084 C 11.630 2.137,11.160 2.590,11.024 2.840 C 10.739 3.363,10.900 3.985,11.408 4.320 C 11.613 4.455,11.633 4.460,12.000 4.460 C 12.346 4.460,12.395 4.450,12.547 4.351 C 12.760 4.213,12.903 4.062,13.012 3.860 C 13.139 3.625,13.135 3.129,13.004 2.882 C 12.897 2.678,12.525 2.274,12.343 2.162 C 12.185 2.065,11.975 2.034,11.809 2.084 M14.809 2.084 C 14.630 2.137,14.160 2.590,14.024 2.840 C 13.739 3.363,13.900 3.985,14.408 4.320 C 14.613 4.455,14.633 4.460,15.000 4.460 C 15.346 4.460,15.395 4.450,15.547 4.351 C 15.760 4.213,15.903 4.062,16.012 3.860 C 16.139 3.625,16.135 3.129,16.004 2.882 C 15.897 2.678,15.525 2.274,15.343 2.162 C 15.185 2.065,14.975 2.034,14.809 2.084 M8.718 6.036 C 8.529 6.097,8.448 6.158,8.355 6.307 C 8.273 6.440,8.262 6.517,8.247 7.046 L 8.230 7.637 8.045 7.658 C 7.077 7.769,6.437 8.092,5.920 8.732 C 5.666 9.046,5.469 9.420,5.358 9.801 C 5.280 10.069,5.269 10.223,5.251 11.286 L 5.230 12.472 5.005 12.499 C 4.350 12.578,3.846 12.767,3.405 13.101 C 2.926 13.464,2.495 14.116,2.335 14.721 C 2.274 14.951,2.264 15.293,2.251 17.794 C 2.240 19.674,2.249 20.703,2.278 20.894 C 2.371 21.511,2.785 22.064,3.359 22.336 L 3.620 22.460 12.000 22.460 L 20.380 22.460 20.641 22.336 C 21.215 22.064,21.629 21.511,21.722 20.894 C 21.751 20.703,21.760 19.674,21.749 17.794 C 21.736 15.293,21.726 14.951,21.665 14.721 C 21.457 13.934,20.852 13.170,20.161 12.820 C 19.898 12.688,19.490 12.570,19.106 12.516 L 18.770 12.469 18.749 11.285 C 18.731 10.223,18.720 10.069,18.642 9.801 C 18.403 8.981,17.825 8.297,17.067 7.937 C 16.793 7.807,16.406 7.710,15.955 7.658 L 15.771 7.637 15.752 7.043 C 15.735 6.532,15.721 6.431,15.649 6.315 C 15.513 6.095,15.347 6.020,15.000 6.021 C 14.644 6.022,14.490 6.090,14.356 6.306 C 14.276 6.436,14.263 6.519,14.247 7.012 L 14.229 7.571 13.929 7.545 C 13.763 7.531,13.435 7.520,13.200 7.520 L 12.771 7.520 12.751 6.985 C 12.728 6.383,12.684 6.259,12.440 6.107 C 12.259 5.994,11.769 5.984,11.574 6.090 C 11.328 6.223,11.268 6.388,11.248 6.986 L 11.230 7.520 10.801 7.520 C 10.565 7.520,10.237 7.531,10.072 7.545 L 9.772 7.571 9.751 7.009 C 9.729 6.383,9.682 6.249,9.438 6.105 C 9.297 6.022,8.882 5.982,8.718 6.036 M13.980 9.040 C 15.279 9.099,15.992 9.157,16.244 9.226 C 16.660 9.340,17.049 9.733,17.180 10.171 C 17.226 10.328,17.240 10.594,17.240 11.332 L 17.240 12.290 17.044 12.264 C 16.479 12.189,14.717 12.077,13.443 12.035 C 12.326 11.998,11.674 11.998,10.557 12.035 C 9.283 12.077,7.521 12.189,6.956 12.264 L 6.760 12.290 6.760 11.332 C 6.760 10.594,6.774 10.328,6.820 10.171 C 6.950 9.733,7.340 9.340,7.756 9.226 C 8.391 9.052,11.906 8.947,13.980 9.040 M14.360 13.564 C 16.100 13.645,18.720 13.919,19.287 14.080 C 19.656 14.185,20.060 14.607,20.181 15.015 C 20.216 15.135,20.240 15.379,20.240 15.627 L 20.240 16.040 19.594 16.363 C 19.221 16.550,18.822 16.719,18.648 16.763 C 18.045 16.917,17.401 16.843,16.753 16.546 C 15.621 16.026,14.379 16.026,13.247 16.546 C 12.390 16.939,11.610 16.939,10.753 16.546 C 9.621 16.026,8.379 16.026,7.247 16.546 C 6.599 16.843,5.955 16.917,5.352 16.763 C 5.178 16.719,4.779 16.550,4.406 16.363 L 3.760 16.040 3.760 15.627 C 3.760 15.379,3.784 15.135,3.819 15.015 C 3.940 14.607,4.344 14.185,4.713 14.080 C 4.918 14.022,5.764 13.900,6.640 13.802 C 9.228 13.514,11.665 13.438,14.360 13.564 M9.760 17.772 C 9.925 17.827,10.213 17.936,10.400 18.014 C 10.842 18.198,11.120 18.269,11.604 18.319 C 12.288 18.389,12.942 18.289,13.600 18.014 C 14.695 17.556,15.223 17.533,16.110 17.901 C 16.948 18.249,17.324 18.334,18.020 18.331 C 18.717 18.329,19.169 18.223,19.870 17.897 L 20.240 17.725 20.240 19.246 L 20.240 20.766 20.123 20.883 L 20.006 21.000 12.000 21.000 L 3.994 21.000 3.877 20.883 L 3.760 20.766 3.760 19.246 L 3.760 17.725 4.130 17.897 C 4.840 18.227,5.288 18.330,6.000 18.330 C 6.686 18.330,7.037 18.255,7.755 17.952 C 8.354 17.700,8.638 17.636,9.080 17.656 C 9.340 17.668,9.555 17.704,9.760 17.772 " stroke="none" fill-rule="evenodd" fill="black"></path></svg>