<svg width="24" height="24" viewBox="0 0 24 24" fill="none" xmlns="http://www.w3.org/2000/svg"><path d="M9.920 1.545 C 8.641 1.605,6.468 1.793,6.000 1.885 C 5.676 1.948,5.147 2.210,4.840 2.457 C 4.511 2.723,4.239 3.075,4.034 3.500 C 3.741 4.107,3.758 3.564,3.769 12.280 L 3.780 20.100 3.889 20.420 C 4.051 20.896,4.257 21.217,4.660 21.622 C 4.961 21.924,5.083 22.014,5.400 22.173 C 6.051 22.498,5.639 22.479,12.000 22.479 C 18.361 22.479,17.949 22.498,18.600 22.173 C 18.917 22.014,19.039 21.924,19.340 21.622 C 19.743 21.217,19.949 20.896,20.111 20.420 L 20.220 20.100 20.231 12.280 C 20.243 3.563,20.259 4.107,19.966 3.500 C 19.599 2.739,19.025 2.224,18.241 1.953 C 17.980 1.863,17.023 1.749,15.580 1.635 C 14.750 1.570,14.104 1.552,12.380 1.542 C 11.192 1.536,10.085 1.537,9.920 1.545 M13.980 3.040 C 15.690 3.120,17.449 3.280,17.780 3.385 C 18.264 3.538,18.614 3.954,18.718 4.501 C 18.752 4.676,18.761 6.750,18.752 12.280 L 18.740 19.820 18.647 20.050 C 18.518 20.371,18.217 20.687,17.888 20.849 L 17.622 20.980 12.000 20.980 L 6.378 20.980 6.112 20.849 C 5.783 20.687,5.482 20.371,5.353 20.050 L 5.260 19.820 5.260 12.120 L 5.260 4.420 5.352 4.220 C 5.555 3.777,5.837 3.506,6.220 3.385 C 6.534 3.285,8.343 3.117,9.900 3.043 C 10.864 2.997,13.032 2.995,13.980 3.040 M8.027 5.278 C 7.831 5.317,7.678 5.430,7.590 5.603 C 7.527 5.726,7.520 5.886,7.520 7.135 C 7.520 8.476,7.523 8.535,7.604 8.678 C 7.650 8.760,7.744 8.862,7.814 8.904 C 7.936 8.977,8.075 8.980,12.000 8.980 C 15.925 8.980,16.064 8.977,16.186 8.904 C 16.256 8.862,16.351 8.759,16.398 8.676 C 16.481 8.528,16.483 8.490,16.471 7.085 C 16.460 5.694,16.457 5.642,16.376 5.533 C 16.330 5.471,16.231 5.384,16.156 5.340 C 16.023 5.262,15.942 5.260,12.100 5.254 C 9.944 5.251,8.111 5.262,8.027 5.278 M15.000 7.140 L 15.000 7.520 12.000 7.520 L 9.000 7.520 9.000 7.140 L 9.000 6.760 12.000 6.760 L 15.000 6.760 15.000 7.140 M7.843 10.590 C 7.613 10.707,7.542 10.843,7.526 11.197 C 7.508 11.605,7.594 11.791,7.862 11.921 C 8.017 11.996,8.092 12.007,8.327 11.990 C 8.776 11.958,8.958 11.776,8.990 11.327 C 9.016 10.964,8.911 10.718,8.677 10.599 C 8.475 10.495,8.038 10.491,7.843 10.590 M10.316 10.603 C 10.125 10.717,10.036 10.877,10.011 11.157 C 9.974 11.562,10.142 11.878,10.438 11.960 C 10.844 12.073,11.271 11.947,11.410 11.672 C 11.512 11.472,11.513 11.004,11.412 10.831 C 11.279 10.604,11.149 10.541,10.787 10.529 C 10.512 10.519,10.437 10.531,10.316 10.603 M12.843 10.590 C 12.618 10.705,12.543 10.844,12.527 11.177 C 12.506 11.585,12.599 11.794,12.858 11.919 C 13.017 11.996,13.091 12.007,13.327 11.990 C 13.777 11.958,13.968 11.767,13.993 11.324 C 14.014 10.954,13.913 10.719,13.685 10.603 C 13.475 10.495,13.041 10.489,12.843 10.590 M15.316 10.603 C 15.124 10.718,15.036 10.878,15.010 11.163 C 14.986 11.433,15.065 11.697,15.211 11.828 C 15.523 12.111,16.218 12.030,16.414 11.689 C 16.518 11.506,16.519 11.014,16.414 10.835 C 16.279 10.604,16.151 10.541,15.787 10.529 C 15.512 10.519,15.437 10.531,15.316 10.603 M7.852 12.836 C 7.621 12.944,7.520 13.148,7.520 13.508 C 7.520 14.010,7.702 14.209,8.181 14.234 C 8.764 14.263,9.031 13.999,8.990 13.433 C 8.969 13.135,8.909 13.015,8.705 12.863 C 8.546 12.744,8.081 12.729,7.852 12.836 M10.380 12.816 C 10.111 12.936,9.976 13.222,10.011 13.603 C 10.053 14.067,10.300 14.260,10.819 14.234 C 11.300 14.209,11.483 14.014,11.485 13.522 C 11.486 13.147,11.401 12.971,11.162 12.850 C 10.955 12.746,10.575 12.730,10.380 12.816 M12.852 12.838 C 12.623 12.942,12.520 13.148,12.520 13.500 C 12.520 14.010,12.750 14.240,13.260 14.240 C 13.765 14.240,13.997 14.008,13.999 13.503 C 14.000 13.172,13.888 12.951,13.665 12.842 C 13.444 12.735,13.082 12.733,12.852 12.838 M15.424 12.802 C 15.134 12.888,14.970 13.217,15.012 13.629 C 15.037 13.867,15.111 14.000,15.295 14.138 C 15.388 14.206,15.465 14.220,15.760 14.220 C 16.155 14.220,16.273 14.167,16.414 13.925 C 16.519 13.746,16.518 13.254,16.414 13.071 C 16.266 12.814,15.803 12.688,15.424 12.802 M7.939 15.042 C 7.641 15.129,7.507 15.377,7.526 15.803 C 7.542 16.149,7.609 16.282,7.835 16.414 C 8.014 16.519,8.506 16.518,8.689 16.414 C 9.020 16.223,9.110 15.537,8.844 15.224 C 8.684 15.036,8.257 14.950,7.939 15.042 M10.427 15.055 C 10.343 15.087,10.241 15.143,10.199 15.181 C 9.915 15.438,9.952 16.175,10.258 16.375 C 10.498 16.532,11.019 16.531,11.232 16.372 C 11.417 16.234,11.484 16.075,11.485 15.767 C 11.486 15.434,11.392 15.218,11.199 15.105 C 11.031 15.007,10.628 14.981,10.427 15.055 M12.934 15.044 C 12.770 15.091,12.571 15.320,12.537 15.501 C 12.492 15.743,12.537 16.110,12.627 16.231 C 12.770 16.423,12.931 16.489,13.260 16.489 C 13.629 16.489,13.783 16.411,13.910 16.161 C 14.066 15.854,14.017 15.385,13.810 15.193 C 13.616 15.013,13.254 14.951,12.934 15.044 M15.420 15.058 C 15.222 15.131,15.096 15.272,15.039 15.482 C 15.011 15.587,15.000 16.105,15.008 16.972 C 15.021 18.454,15.024 18.469,15.301 18.641 C 15.414 18.710,15.507 18.730,15.737 18.731 C 16.063 18.733,16.228 18.665,16.376 18.467 C 16.457 18.358,16.460 18.306,16.471 16.915 C 16.483 15.510,16.481 15.472,16.398 15.324 C 16.351 15.241,16.258 15.141,16.192 15.101 C 16.029 15.005,15.624 14.982,15.420 15.058 M8.027 17.278 C 7.692 17.345,7.520 17.587,7.520 17.991 C 7.520 18.274,7.584 18.460,7.725 18.584 C 7.987 18.817,8.513 18.815,8.792 18.581 C 9.106 18.316,9.049 17.550,8.700 17.355 C 8.553 17.273,8.233 17.236,8.027 17.278 M10.520 17.276 C 10.190 17.344,10.038 17.548,10.011 17.960 C 9.990 18.280,10.102 18.533,10.320 18.659 C 10.514 18.771,11.005 18.774,11.186 18.664 C 11.389 18.541,11.486 18.326,11.485 18.001 C 11.484 17.646,11.392 17.459,11.160 17.341 C 11.028 17.273,10.696 17.240,10.520 17.276 M13.027 17.278 C 12.692 17.345,12.520 17.587,12.520 17.991 C 12.520 18.273,12.584 18.459,12.725 18.585 C 13.026 18.854,13.652 18.795,13.890 18.475 C 14.049 18.262,14.022 17.669,13.845 17.466 C 13.700 17.300,13.335 17.216,13.027 17.278 " stroke="none" fill-rule="evenodd" fill="black"></path></svg>