<svg width="24" height="24" viewBox="0 0 24 24" fill="none" xmlns="http://www.w3.org/2000/svg"><path d="M6.540 2.276 C 6.336 2.311,6.174 2.418,6.088 2.576 C 6.031 2.680,6.018 2.846,6.007 3.610 L 5.995 4.520 5.404 4.520 C 4.736 4.520,4.362 4.592,3.932 4.802 C 3.171 5.174,2.523 5.977,2.334 6.785 C 2.264 7.084,2.260 7.405,2.260 13.120 C 2.260 18.742,2.265 19.160,2.331 19.442 C 2.586 20.529,3.471 21.414,4.558 21.669 C 4.841 21.736,5.306 21.740,12.000 21.740 C 18.694 21.740,19.159 21.736,19.442 21.669 C 20.529 21.414,21.414 20.529,21.669 19.442 C 21.735 19.160,21.740 18.742,21.740 13.120 C 21.740 7.405,21.736 7.084,21.666 6.785 C 21.476 5.972,20.820 5.163,20.058 4.799 C 19.615 4.588,19.261 4.520,18.596 4.520 L 18.005 4.520 17.993 3.610 C 17.981 2.756,17.975 2.691,17.893 2.560 C 17.757 2.342,17.593 2.267,17.258 2.267 C 16.938 2.267,16.770 2.337,16.624 2.533 C 16.546 2.638,16.539 2.710,16.520 3.573 L 16.500 4.500 12.000 4.500 L 7.500 4.500 7.480 3.573 C 7.461 2.710,7.454 2.638,7.376 2.533 C 7.212 2.313,6.895 2.216,6.540 2.276 M19.163 6.065 C 19.585 6.190,19.944 6.504,20.133 6.911 C 20.211 7.081,20.221 7.179,20.233 7.870 L 20.246 8.639 19.995 8.521 C 19.408 8.243,19.926 8.260,12.000 8.260 C 4.074 8.260,4.592 8.243,4.005 8.521 L 3.754 8.639 3.767 7.870 C 3.779 7.179,3.789 7.081,3.867 6.911 C 4.052 6.511,4.392 6.205,4.795 6.076 C 5.008 6.008,5.387 6.004,11.983 6.002 C 18.276 6.000,18.966 6.006,19.163 6.065 M19.369 9.888 C 19.663 10.025,19.975 10.337,20.112 10.631 L 20.220 10.860 20.220 15.000 L 20.220 19.140 20.112 19.369 C 19.975 19.663,19.663 19.975,19.369 20.112 L 19.140 20.220 12.000 20.220 L 4.860 20.220 4.631 20.112 C 4.337 19.975,4.025 19.663,3.888 19.369 L 3.780 19.140 3.769 15.063 C 3.757 10.569,3.745 10.818,4.006 10.423 C 4.166 10.181,4.423 9.975,4.709 9.857 L 4.940 9.761 12.040 9.771 L 19.140 9.780 19.369 9.888 M11.660 12.059 C 11.572 12.092,11.497 12.119,11.493 12.119 C 11.489 12.120,11.445 12.176,11.396 12.245 C 11.222 12.491,11.211 12.966,11.376 13.210 C 11.510 13.410,11.681 13.487,11.993 13.489 C 12.522 13.493,12.740 13.280,12.740 12.760 C 12.740 12.412,12.658 12.230,12.447 12.107 C 12.272 12.005,11.869 11.980,11.660 12.059 M13.939 12.042 C 13.641 12.129,13.507 12.377,13.526 12.803 C 13.542 13.149,13.609 13.282,13.835 13.414 C 14.014 13.519,14.506 13.518,14.689 13.414 C 15.020 13.223,15.110 12.537,14.844 12.224 C 14.684 12.036,14.257 11.950,13.939 12.042 M16.180 12.046 C 16.005 12.110,15.845 12.275,15.800 12.438 C 15.691 12.829,15.813 13.265,16.071 13.414 C 16.254 13.518,16.746 13.519,16.925 13.414 C 17.167 13.273,17.220 13.155,17.220 12.760 C 17.220 12.379,17.178 12.277,16.951 12.107 C 16.827 12.015,16.365 11.978,16.180 12.046 M7.267 14.278 C 6.915 14.348,6.780 14.555,6.780 15.027 C 6.780 15.297,6.795 15.374,6.864 15.467 C 7.128 15.821,7.795 15.858,8.079 15.536 C 8.216 15.379,8.256 15.208,8.232 14.878 C 8.213 14.614,8.128 14.463,7.936 14.354 C 7.794 14.273,7.473 14.236,7.267 14.278 M9.540 14.276 C 9.172 14.339,9.022 14.549,9.021 15.000 C 9.019 15.530,9.230 15.740,9.760 15.740 C 10.278 15.740,10.487 15.527,10.487 15.000 C 10.487 14.652,10.391 14.458,10.160 14.341 C 10.026 14.273,9.736 14.243,9.540 14.276 M11.787 14.278 C 11.447 14.345,11.268 14.592,11.268 14.995 C 11.268 15.522,11.483 15.740,12.000 15.740 C 12.351 15.740,12.529 15.658,12.659 15.439 C 12.779 15.233,12.774 14.755,12.649 14.554 C 12.506 14.324,12.144 14.208,11.787 14.278 M14.027 14.278 C 13.692 14.345,13.520 14.587,13.520 14.991 C 13.520 15.274,13.584 15.460,13.725 15.584 C 13.987 15.817,14.513 15.815,14.792 15.581 C 15.106 15.316,15.049 14.550,14.700 14.355 C 14.553 14.273,14.233 14.236,14.027 14.278 M16.267 14.278 C 15.915 14.348,15.780 14.555,15.780 15.027 C 15.780 15.297,15.795 15.374,15.864 15.467 C 16.128 15.821,16.795 15.858,17.079 15.536 C 17.216 15.379,17.256 15.208,17.232 14.878 C 17.213 14.614,17.128 14.463,16.936 14.354 C 16.794 14.273,16.473 14.236,16.267 14.278 M7.067 16.604 C 6.847 16.720,6.747 16.961,6.767 17.324 C 6.792 17.767,6.983 17.958,7.433 17.990 C 7.999 18.031,8.263 17.764,8.234 17.181 C 8.217 16.843,8.142 16.705,7.917 16.590 C 7.720 16.490,7.269 16.497,7.067 16.604 M9.316 16.603 C 9.124 16.718,9.036 16.878,9.010 17.163 C 8.986 17.433,9.065 17.697,9.211 17.828 C 9.523 18.111,10.218 18.030,10.414 17.689 C 10.518 17.506,10.519 17.014,10.414 16.835 C 10.279 16.604,10.151 16.541,9.787 16.529 C 9.512 16.519,9.437 16.531,9.316 16.603 M11.601 16.590 C 11.524 16.629,11.423 16.718,11.376 16.788 C 11.220 17.021,11.221 17.503,11.377 17.742 C 11.522 17.962,11.967 18.061,12.328 17.953 C 12.882 17.787,12.913 16.806,12.371 16.575 C 12.187 16.497,11.771 16.505,11.601 16.590 M13.843 16.590 C 13.613 16.707,13.542 16.843,13.526 17.197 C 13.508 17.605,13.594 17.791,13.862 17.921 C 14.017 17.996,14.092 18.007,14.327 17.990 C 14.776 17.958,14.958 17.776,14.990 17.327 C 15.016 16.964,14.911 16.718,14.677 16.599 C 14.475 16.495,14.038 16.491,13.843 16.590 " stroke="none" fill-rule="evenodd" fill="black"></path></svg>