<svg width="24" height="24" viewBox="0 0 24 24" fill="none" xmlns="http://www.w3.org/2000/svg"><path d="M6.540 2.276 C 6.336 2.311,6.174 2.418,6.088 2.576 C 6.031 2.680,6.018 2.846,6.007 3.610 L 5.995 4.520 5.404 4.520 C 4.736 4.520,4.362 4.592,3.932 4.802 C 3.171 5.174,2.523 5.977,2.334 6.785 C 2.264 7.084,2.260 7.405,2.260 13.120 C 2.260 18.742,2.265 19.160,2.331 19.442 C 2.586 20.529,3.471 21.414,4.558 21.669 C 4.841 21.736,5.306 21.740,12.000 21.740 C 18.694 21.740,19.159 21.736,19.442 21.669 C 20.529 21.414,21.414 20.529,21.669 19.442 C 21.735 19.160,21.740 18.742,21.740 13.120 C 21.740 7.405,21.736 7.084,21.666 6.785 C 21.476 5.972,20.820 5.163,20.058 4.799 C 19.615 4.588,19.261 4.520,18.596 4.520 L 18.005 4.520 17.993 3.610 C 17.981 2.756,17.975 2.691,17.893 2.560 C 17.757 2.342,17.593 2.267,17.258 2.267 C 16.938 2.267,16.770 2.337,16.624 2.533 C 16.546 2.638,16.539 2.710,16.520 3.573 L 16.500 4.500 12.000 4.500 L 7.500 4.500 7.480 3.573 C 7.461 2.710,7.454 2.638,7.376 2.533 C 7.212 2.313,6.895 2.216,6.540 2.276 M19.163 6.065 C 19.585 6.190,19.944 6.504,20.133 6.911 C 20.211 7.081,20.221 7.179,20.233 7.870 L 20.246 8.639 19.995 8.521 C 19.408 8.243,19.926 8.260,12.000 8.260 C 4.074 8.260,4.592 8.243,4.005 8.521 L 3.754 8.639 3.767 7.870 C 3.779 7.179,3.789 7.081,3.867 6.911 C 4.052 6.511,4.392 6.205,4.795 6.076 C 5.008 6.008,5.387 6.004,11.983 6.002 C 18.276 6.000,18.966 6.006,19.163 6.065 M19.369 9.888 C 19.663 10.025,19.975 10.337,20.112 10.631 L 20.220 10.860 20.220 15.000 L 20.220 19.140 20.112 19.369 C 19.975 19.663,19.663 19.975,19.369 20.112 L 19.140 20.220 12.000 20.220 L 4.860 20.220 4.631 20.112 C 4.337 19.975,4.025 19.663,3.888 19.369 L 3.780 19.140 3.769 15.063 C 3.757 10.569,3.745 10.818,4.006 10.423 C 4.166 10.181,4.423 9.975,4.709 9.857 L 4.940 9.761 12.040 9.771 L 19.140 9.780 19.369 9.888 " stroke="none" fill-rule="evenodd" fill="black"></path></svg>