<svg width="24" height="24" viewBox="0 0 24 24" fill="none" xmlns="http://www.w3.org/2000/svg"><path d="M10.029 3.043 C 8.860 3.094,8.472 3.188,7.912 3.556 C 7.470 3.845,7.187 4.179,6.636 5.067 C 6.365 5.503,6.072 5.937,5.986 6.030 C 5.716 6.324,5.433 6.431,4.574 6.565 C 4.159 6.630,3.721 6.711,3.600 6.745 C 2.645 7.014,1.850 7.842,1.597 8.831 C 1.523 9.121,1.520 9.320,1.520 13.764 C 1.520 18.839,1.513 18.682,1.759 19.223 C 2.064 19.897,2.593 20.420,3.293 20.739 C 3.857 20.996,3.265 20.980,12.000 20.980 C 20.735 20.980,20.143 20.996,20.707 20.739 C 21.593 20.335,22.212 19.592,22.415 18.692 C 22.473 18.436,22.480 17.898,22.480 13.769 C 22.480 9.320,22.477 9.121,22.403 8.831 C 22.212 8.086,21.681 7.382,21.020 7.001 C 20.697 6.815,20.266 6.694,19.520 6.582 C 18.731 6.463,18.492 6.397,18.256 6.236 C 18.006 6.066,17.890 5.913,17.357 5.054 C 16.958 4.410,16.804 4.199,16.542 3.940 C 15.981 3.382,15.446 3.147,14.583 3.078 C 13.881 3.022,10.998 3.000,10.029 3.043 M14.243 4.557 C 15.226 4.608,15.380 4.720,16.146 5.944 C 16.853 7.075,17.104 7.339,17.794 7.680 C 18.151 7.857,18.421 7.927,19.160 8.038 C 20.143 8.186,20.288 8.242,20.629 8.615 C 20.778 8.778,20.850 8.902,20.915 9.107 L 21.002 9.380 20.991 13.860 C 20.981 17.912,20.974 18.356,20.914 18.512 C 20.762 18.908,20.429 19.238,20.010 19.407 L 19.780 19.500 12.000 19.500 L 4.220 19.500 3.990 19.407 C 3.542 19.226,3.218 18.889,3.075 18.454 C 3.004 18.238,3.000 18.015,3.000 13.795 L 3.000 9.362 3.087 9.096 C 3.150 8.904,3.229 8.771,3.372 8.614 C 3.712 8.242,3.857 8.185,4.840 8.038 C 5.579 7.927,5.849 7.857,6.206 7.680 C 6.897 7.338,7.149 7.073,7.851 5.947 C 8.170 5.437,8.430 5.065,8.543 4.961 C 8.748 4.773,9.062 4.614,9.300 4.578 C 9.841 4.498,12.852 4.485,14.243 4.557 M11.100 7.582 C 10.132 7.745,9.126 8.252,8.405 8.940 C 7.331 9.965,6.763 11.285,6.761 12.760 C 6.758 15.018,8.203 17.005,10.379 17.736 C 10.883 17.905,11.353 17.974,12.000 17.974 C 12.645 17.974,13.113 17.906,13.621 17.737 C 15.787 17.018,17.243 15.012,17.239 12.752 C 17.238 12.130,17.119 11.445,16.921 10.930 C 16.236 9.146,14.691 7.876,12.840 7.576 C 12.418 7.507,11.526 7.510,11.100 7.582 M12.900 9.114 C 13.630 9.316,14.077 9.565,14.594 10.057 C 15.219 10.652,15.609 11.435,15.721 12.320 C 15.945 14.088,14.789 15.838,13.068 16.337 C 10.731 17.014,8.421 15.383,8.256 12.940 C 8.200 12.108,8.496 11.158,9.022 10.480 C 9.632 9.694,10.496 9.187,11.500 9.026 C 11.767 8.983,12.622 9.037,12.900 9.114 M18.424 9.802 C 18.134 9.888,17.970 10.217,18.012 10.629 C 18.037 10.867,18.111 11.000,18.295 11.138 C 18.388 11.206,18.465 11.220,18.760 11.220 C 19.155 11.220,19.273 11.167,19.414 10.925 C 19.519 10.746,19.518 10.254,19.414 10.071 C 19.266 9.814,18.803 9.688,18.424 9.802 " stroke="none" fill-rule="evenodd" fill="black"></path></svg>