<svg width="24" height="24" viewBox="0 0 24 24" fill="none" xmlns="http://www.w3.org/2000/svg"><path d="M5.499 3.043 C 4.375 3.233,3.426 4.083,3.112 5.178 L 3.020 5.500 3.020 12.000 L 3.020 18.500 3.112 18.822 C 3.391 19.796,4.204 20.609,5.178 20.888 L 5.500 20.980 12.000 20.980 L 18.500 20.980 18.822 20.888 C 18.999 20.837,19.269 20.726,19.422 20.641 C 20.129 20.248,20.672 19.574,20.888 18.822 L 20.980 18.500 20.980 12.000 L 20.980 5.500 20.888 5.178 C 20.613 4.217,19.836 3.430,18.861 3.121 L 18.540 3.020 12.120 3.014 C 8.589 3.011,5.609 3.024,5.499 3.043 M18.548 4.605 C 18.946 4.772,19.228 5.054,19.395 5.452 L 19.500 5.700 19.500 12.000 L 19.500 18.300 19.395 18.548 C 19.228 18.946,18.946 19.228,18.548 19.395 L 18.300 19.500 12.000 19.500 L 5.700 19.500 5.452 19.395 C 5.054 19.228,4.772 18.946,4.605 18.548 L 4.500 18.300 4.489 12.202 C 4.482 8.554,4.493 5.995,4.516 5.833 C 4.536 5.684,4.597 5.467,4.651 5.351 C 4.846 4.932,5.310 4.589,5.774 4.520 C 5.887 4.503,8.752 4.491,12.140 4.495 L 18.300 4.500 18.548 4.605 M16.092 6.843 C 15.972 6.903,15.901 6.975,15.842 7.096 C 15.761 7.264,15.760 7.308,15.760 12.000 C 15.760 16.699,15.761 16.736,15.842 16.905 C 16.064 17.362,16.936 17.362,17.158 16.905 C 17.239 16.736,17.240 16.699,17.240 12.000 C 17.240 7.301,17.239 7.264,17.158 7.095 C 17.003 6.777,16.478 6.652,16.092 6.843 M13.180 9.048 C 13.007 9.109,12.846 9.274,12.800 9.438 C 12.775 9.527,12.760 10.925,12.760 13.157 C 12.760 16.688,12.761 16.737,12.842 16.905 C 12.950 17.127,13.172 17.240,13.500 17.240 C 13.828 17.240,14.050 17.127,14.158 16.905 C 14.239 16.737,14.240 16.688,14.240 13.157 C 14.240 10.925,14.225 9.527,14.200 9.438 C 14.103 9.090,13.606 8.900,13.180 9.048 M10.267 11.278 C 10.183 11.294,10.066 11.344,10.007 11.388 C 9.774 11.560,9.781 11.478,9.769 14.216 C 9.758 16.694,9.759 16.734,9.842 16.903 C 9.950 17.127,10.171 17.240,10.500 17.240 C 10.828 17.240,11.050 17.127,11.158 16.905 C 11.238 16.739,11.240 16.677,11.240 14.273 C 11.240 11.756,11.233 11.638,11.084 11.466 C 10.941 11.300,10.575 11.216,10.267 11.278 M7.067 13.604 C 6.963 13.659,6.890 13.739,6.838 13.853 C 6.768 14.006,6.762 14.130,6.761 15.377 C 6.760 16.667,6.764 16.743,6.842 16.905 C 6.950 17.127,7.172 17.240,7.500 17.240 C 7.828 17.240,8.050 17.127,8.158 16.905 C 8.236 16.743,8.240 16.667,8.239 15.377 C 8.238 14.130,8.232 14.006,8.162 13.852 C 8.057 13.620,7.853 13.519,7.492 13.522 C 7.299 13.523,7.175 13.547,7.067 13.604 " stroke="none" fill-rule="evenodd" fill="black"></path></svg>