<svg width="24" height="24" viewBox="0 0 24 24" fill="none" xmlns="http://www.w3.org/2000/svg"><path d="M17.280 2.285 C 16.608 2.394,15.958 3.010,15.802 3.685 C 15.747 3.927,15.747 20.073,15.802 20.315 C 15.962 21.009,16.609 21.607,17.320 21.719 C 17.650 21.770,19.812 21.771,20.168 21.720 C 20.567 21.662,20.855 21.509,21.182 21.182 C 21.509 20.855,21.662 20.567,21.720 20.168 C 21.772 19.805,21.772 4.195,21.720 3.832 C 21.662 3.433,21.509 3.145,21.182 2.818 C 20.855 2.491,20.567 2.338,20.168 2.280 C 19.837 2.232,17.581 2.236,17.280 2.285 M20.128 3.867 L 20.240 3.975 20.240 12.000 L 20.240 20.025 20.128 20.133 L 20.016 20.240 18.765 20.240 C 17.946 20.240,17.487 20.225,17.434 20.197 C 17.231 20.088,17.240 20.462,17.240 12.000 C 17.240 3.580,17.232 3.918,17.426 3.805 C 17.474 3.777,17.938 3.762,18.758 3.761 L 20.016 3.760 20.128 3.867 M10.360 6.824 C 9.719 6.996,9.169 7.595,9.042 8.260 C 9.008 8.435,8.999 10.092,9.008 14.400 L 9.020 20.300 9.114 20.533 C 9.321 21.047,9.815 21.516,10.312 21.669 C 10.512 21.731,10.717 21.740,12.000 21.740 C 13.283 21.740,13.488 21.731,13.688 21.669 C 14.185 21.516,14.679 21.047,14.886 20.533 L 14.980 20.300 14.992 14.400 C 15.001 10.146,14.991 8.434,14.959 8.265 C 14.829 7.587,14.277 6.991,13.622 6.822 C 13.283 6.734,10.689 6.736,10.360 6.824 M13.280 8.291 C 13.335 8.319,13.411 8.404,13.450 8.481 C 13.516 8.611,13.520 8.968,13.520 14.205 C 13.520 17.277,13.509 19.846,13.495 19.914 C 13.481 19.983,13.425 20.084,13.370 20.139 L 13.269 20.240 12.000 20.240 L 10.731 20.240 10.627 20.136 C 10.564 20.073,10.515 19.969,10.500 19.866 C 10.487 19.775,10.482 17.177,10.488 14.094 C 10.500 8.553,10.501 8.487,10.580 8.399 C 10.624 8.351,10.696 8.296,10.740 8.278 C 10.877 8.222,13.165 8.234,13.280 8.291 M3.796 11.283 C 3.438 11.335,3.134 11.502,2.818 11.818 C 2.491 12.145,2.338 12.433,2.280 12.832 C 2.229 13.188,2.229 19.812,2.280 20.168 C 2.338 20.567,2.491 20.855,2.818 21.182 C 3.145 21.509,3.433 21.662,3.832 21.720 C 4.188 21.771,6.350 21.770,6.680 21.719 C 7.391 21.607,8.038 21.009,8.198 20.315 C 8.253 20.076,8.253 12.924,8.198 12.685 C 8.038 11.991,7.391 11.393,6.680 11.281 C 6.375 11.234,4.123 11.235,3.796 11.283 M6.566 12.803 C 6.761 12.908,6.760 12.884,6.760 16.500 C 6.760 20.116,6.761 20.092,6.566 20.197 C 6.513 20.225,6.054 20.240,5.235 20.240 L 3.984 20.240 3.872 20.133 L 3.760 20.025 3.760 16.505 L 3.760 12.984 3.867 12.872 L 3.975 12.760 5.230 12.760 C 6.053 12.760,6.513 12.775,6.566 12.803 " stroke="none" fill-rule="evenodd" fill="black"></path></svg>