<svg width="24" height="24" viewBox="0 0 24 24" fill="none" xmlns="http://www.w3.org/2000/svg"><path d="M13.267 2.278 C 13.183 2.295,13.066 2.344,13.007 2.388 C 12.768 2.565,12.781 2.336,12.769 6.716 C 12.759 10.709,12.759 10.733,12.842 10.904 C 12.902 11.029,12.971 11.098,13.096 11.158 C 13.267 11.241,13.291 11.241,17.284 11.231 C 21.660 11.219,21.436 11.231,21.611 10.995 C 21.737 10.825,21.763 10.562,21.718 9.928 C 21.629 8.675,21.308 7.582,20.715 6.509 C 19.473 4.263,17.196 2.688,14.696 2.345 C 14.156 2.271,13.470 2.239,13.267 2.278 M15.060 3.940 C 17.525 4.521,19.479 6.475,20.060 8.940 C 20.112 9.160,20.166 9.434,20.181 9.550 L 20.208 9.760 17.224 9.760 L 14.240 9.760 14.240 6.776 L 14.240 3.792 14.450 3.819 C 14.566 3.834,14.840 3.888,15.060 3.940 M9.857 5.279 C 6.055 5.555,2.922 8.481,2.339 12.301 C 2.248 12.896,2.248 14.104,2.339 14.699 C 2.891 18.317,5.683 21.109,9.301 21.661 C 9.896 21.752,11.104 21.752,11.699 21.661 C 14.572 21.223,16.957 19.374,18.100 16.698 C 18.454 15.868,18.649 15.041,18.718 14.072 C 18.763 13.438,18.737 13.175,18.611 13.005 C 18.437 12.770,18.614 12.781,14.770 12.769 L 11.240 12.759 11.240 9.285 C 11.240 6.789,11.227 5.774,11.194 5.676 C 11.067 5.296,10.783 5.212,9.857 5.279 M9.760 10.267 C 9.760 13.687,9.761 13.737,9.842 13.905 C 9.902 14.029,9.971 14.098,10.095 14.158 C 10.263 14.239,10.313 14.240,13.736 14.240 L 17.208 14.240 17.181 14.450 C 17.029 15.651,16.421 16.973,15.583 17.928 C 14.277 19.416,12.464 20.240,10.500 20.240 C 7.736 20.240,5.251 18.558,4.240 16.005 C 3.382 13.837,3.673 11.472,5.035 9.541 C 5.324 9.131,6.131 8.324,6.541 8.035 C 7.203 7.568,7.893 7.233,8.640 7.015 C 8.977 6.917,9.496 6.811,9.670 6.804 L 9.760 6.800 9.760 10.267 " stroke="none" fill-rule="evenodd" fill="black"></path></svg>