<svg width="24" height="24" viewBox="0 0 24 24" fill="none" xmlns="http://www.w3.org/2000/svg"><path d="M11.160 2.267 C 9.522 2.291,7.278 2.456,5.600 2.677 C 4.626 2.805,4.455 2.837,4.119 2.953 C 2.944 3.359,1.977 4.421,1.632 5.683 L 1.540 6.020 1.540 9.740 L 1.540 13.460 1.630 13.800 C 1.804 14.457,2.145 15.056,2.640 15.575 C 3.199 16.162,3.877 16.543,4.610 16.682 C 4.963 16.749,6.635 16.954,7.360 17.020 C 8.209 17.097,8.408 17.138,8.567 17.272 C 8.635 17.329,9.302 18.294,10.050 19.418 C 10.798 20.541,11.465 21.519,11.533 21.591 C 11.671 21.737,11.899 21.816,12.069 21.776 C 12.130 21.762,12.257 21.707,12.352 21.653 C 12.503 21.566,12.686 21.310,13.917 19.465 C 14.683 18.316,15.365 17.329,15.433 17.272 C 15.592 17.138,15.791 17.097,16.640 17.020 C 17.365 16.954,19.037 16.749,19.390 16.682 C 20.123 16.543,20.801 16.162,21.360 15.575 C 21.855 15.056,22.196 14.457,22.370 13.800 L 22.460 13.460 22.460 9.740 L 22.460 6.020 22.367 5.680 C 22.011 4.384,21.017 3.319,19.800 2.928 C 19.461 2.819,19.246 2.782,18.120 2.641 C 15.938 2.368,13.445 2.234,11.160 2.267 M14.560 3.821 C 16.244 3.917,18.762 4.186,19.260 4.324 C 19.833 4.482,20.436 4.997,20.718 5.569 C 21.004 6.149,20.999 6.066,20.999 9.764 C 21.000 12.938,20.997 13.080,20.920 13.384 C 20.796 13.873,20.625 14.175,20.260 14.545 C 19.923 14.887,19.643 15.060,19.238 15.175 C 18.965 15.253,17.771 15.410,16.462 15.540 C 15.338 15.652,15.251 15.670,14.865 15.872 C 14.376 16.127,14.262 16.265,13.099 18.014 C 12.506 18.907,12.011 19.638,12.000 19.638 C 11.989 19.638,11.494 18.907,10.901 18.014 C 9.738 16.265,9.624 16.127,9.135 15.872 C 8.749 15.670,8.662 15.652,7.538 15.540 C 6.229 15.410,5.035 15.253,4.762 15.175 C 4.357 15.060,4.077 14.887,3.739 14.545 C 3.502 14.305,3.380 14.142,3.273 13.920 C 2.995 13.347,3.000 13.421,3.001 9.752 C 3.001 6.067,2.996 6.149,3.282 5.569 C 3.564 4.997,4.167 4.482,4.740 4.324 C 5.206 4.195,7.775 3.915,9.324 3.824 C 10.600 3.749,13.269 3.747,14.560 3.821 " stroke="none" fill-rule="evenodd" fill="black"></path></svg>