<svg width="24" height="24" viewBox="0 0 24 24" fill="none" xmlns="http://www.w3.org/2000/svg"><path d="M11.080 3.045 C 8.612 3.262,6.353 4.324,4.700 6.044 C 2.575 8.256,1.782 11.249,2.543 14.191 C 2.871 15.458,3.612 16.779,4.598 17.856 C 5.148 18.457,5.226 18.661,5.078 19.107 C 5.028 19.257,4.947 19.470,4.898 19.580 C 4.817 19.763,4.744 19.879,4.307 20.514 C 4.143 20.753,4.112 20.991,4.219 21.198 C 4.319 21.391,4.588 21.591,4.814 21.639 C 5.208 21.724,5.962 21.758,6.520 21.716 C 7.482 21.644,8.152 21.457,9.032 21.015 L 9.605 20.728 10.112 20.822 C 11.829 21.140,13.745 21.000,15.388 20.435 C 18.377 19.407,20.639 17.095,21.437 14.252 C 21.838 12.821,21.838 11.179,21.437 9.748 C 20.239 5.477,15.833 2.625,11.080 3.045 M12.560 4.521 C 16.016 4.755,18.910 6.854,19.897 9.840 C 20.168 10.661,20.217 10.994,20.217 12.000 C 20.217 13.006,20.168 13.339,19.897 14.160 C 18.792 17.502,15.280 19.713,11.453 19.476 C 10.798 19.435,10.598 19.406,9.915 19.253 C 9.616 19.186,9.402 19.158,9.313 19.175 C 9.238 19.189,9.033 19.291,8.858 19.402 C 8.116 19.873,7.351 20.142,6.528 20.222 L 6.236 20.251 6.331 20.035 C 6.538 19.566,6.615 19.239,6.618 18.820 C 6.622 18.060,6.414 17.627,5.619 16.740 C 4.620 15.625,4.041 14.405,3.817 12.940 C 3.726 12.344,3.756 11.236,3.879 10.664 C 4.425 8.124,6.220 6.089,8.791 5.095 C 9.767 4.718,10.476 4.579,11.900 4.486 C 11.944 4.484,12.241 4.499,12.560 4.521 " stroke="none" fill-rule="evenodd" fill="black"></path></svg>