<svg width="24" height="24" viewBox="0 0 24 24" fill="none" xmlns="http://www.w3.org/2000/svg"><path d="M11.160 2.267 C 9.522 2.291,7.278 2.456,5.600 2.677 C 4.626 2.805,4.455 2.837,4.119 2.953 C 2.944 3.359,1.977 4.421,1.632 5.683 L 1.540 6.020 1.540 9.740 L 1.540 13.460 1.630 13.800 C 1.804 14.457,2.145 15.056,2.640 15.575 C 3.199 16.162,3.877 16.543,4.610 16.682 C 4.865 16.730,6.567 16.948,6.940 16.980 C 7.094 16.993,7.287 17.014,7.369 17.025 L 7.518 17.047 7.529 19.200 C 7.540 21.319,7.541 21.356,7.624 21.467 C 7.762 21.652,7.935 21.730,8.212 21.732 C 8.349 21.733,8.505 21.711,8.560 21.683 C 8.615 21.654,9.651 20.643,10.862 19.436 C 12.072 18.228,13.089 17.240,13.122 17.239 C 14.727 17.215,18.214 16.905,19.392 16.682 C 20.123 16.543,20.801 16.162,21.360 15.575 C 21.855 15.056,22.196 14.457,22.370 13.800 L 22.460 13.460 22.460 9.740 L 22.460 6.020 22.367 5.680 C 22.011 4.384,21.017 3.319,19.800 2.928 C 19.461 2.819,19.246 2.782,18.120 2.641 C 15.938 2.368,13.445 2.234,11.160 2.267 M14.560 3.821 C 16.244 3.917,18.762 4.186,19.260 4.324 C 19.833 4.482,20.436 4.997,20.718 5.569 C 21.004 6.149,20.999 6.066,20.999 9.764 C 21.000 12.938,20.997 13.080,20.920 13.384 C 20.796 13.873,20.625 14.175,20.260 14.545 C 19.746 15.067,19.466 15.178,18.260 15.337 C 16.814 15.528,15.432 15.646,13.760 15.720 C 12.342 15.784,12.506 15.686,10.552 17.631 L 9.004 19.172 8.992 17.616 C 8.981 16.167,8.975 16.051,8.904 15.934 C 8.753 15.685,8.620 15.646,7.533 15.539 C 6.236 15.411,5.035 15.253,4.762 15.175 C 4.357 15.060,4.077 14.887,3.739 14.545 C 3.502 14.305,3.380 14.142,3.273 13.920 C 2.995 13.347,3.000 13.421,3.001 9.752 C 3.001 6.067,2.996 6.149,3.282 5.569 C 3.564 4.997,4.167 4.482,4.740 4.324 C 5.206 4.195,7.775 3.915,9.324 3.824 C 10.600 3.749,13.269 3.747,14.560 3.821 M7.780 8.735 C 7.375 8.927,7.148 9.286,7.146 9.735 C 7.143 10.398,7.602 10.857,8.265 10.854 C 9.457 10.849,9.788 9.240,8.701 8.734 C 8.423 8.605,8.054 8.606,7.780 8.735 M11.560 8.723 C 11.165 8.901,10.920 9.253,10.889 9.685 C 10.873 9.908,10.886 9.985,10.969 10.165 C 11.107 10.467,11.248 10.619,11.509 10.746 C 11.825 10.901,12.175 10.901,12.491 10.746 C 12.752 10.619,12.893 10.467,13.031 10.165 C 13.114 9.985,13.127 9.908,13.111 9.685 C 13.067 9.078,12.603 8.642,12.000 8.642 C 11.824 8.642,11.682 8.668,11.560 8.723 M15.299 8.734 C 14.731 8.999,14.476 9.672,14.735 10.220 C 14.927 10.625,15.286 10.852,15.735 10.854 C 16.395 10.857,16.859 10.396,16.858 9.738 C 16.857 9.423,16.768 9.201,16.547 8.965 C 16.245 8.643,15.708 8.544,15.299 8.734 " stroke="none" fill-rule="evenodd" fill="black"></path></svg>