<svg width="24" height="24" viewBox="0 0 24 24" fill="none" xmlns="http://www.w3.org/2000/svg"><path d="M10.360 2.267 C 8.341 2.301,5.192 2.563,4.404 2.764 C 3.231 3.062,2.175 4.043,1.746 5.232 C 1.515 5.871,1.516 5.852,1.529 9.904 L 1.542 13.620 1.633 13.940 C 1.891 14.846,2.519 15.727,3.256 16.215 C 3.547 16.409,4.071 16.650,4.380 16.733 C 4.578 16.787,5.778 16.960,5.949 16.960 C 5.986 16.960,6.000 17.458,6.009 19.130 C 6.021 21.548,6.011 21.462,6.299 21.639 C 6.482 21.753,6.878 21.764,7.080 21.662 C 7.157 21.623,8.093 20.721,9.160 19.656 L 11.101 17.720 11.240 17.760 C 11.464 17.825,12.718 17.913,14.120 17.963 L 15.420 18.009 16.820 19.398 C 17.590 20.162,18.283 20.831,18.360 20.884 C 18.544 21.010,18.991 21.021,19.185 20.904 C 19.455 20.741,19.458 20.727,19.480 19.220 L 19.500 17.860 19.800 17.831 C 20.245 17.788,20.581 17.694,20.927 17.514 C 21.465 17.234,21.965 16.701,22.240 16.112 C 22.474 15.613,22.479 15.548,22.479 12.736 C 22.480 10.333,22.475 10.154,22.403 9.871 C 22.220 9.157,21.700 8.436,21.121 8.094 L 21.009 8.028 20.989 7.004 C 20.973 6.142,20.957 5.929,20.887 5.660 C 20.545 4.336,19.586 3.261,18.378 2.848 C 17.393 2.512,13.334 2.218,10.360 2.267 M13.480 3.801 C 15.277 3.894,17.386 4.108,17.810 4.241 C 18.695 4.518,19.355 5.341,19.478 6.321 C 19.501 6.506,19.520 6.881,19.520 7.155 L 19.520 7.652 19.210 7.627 C 17.062 7.457,12.360 7.515,11.320 7.725 C 10.157 7.959,9.236 8.929,9.042 10.123 C 9.017 10.280,9.000 11.288,9.000 12.725 C 9.000 14.655,9.011 15.132,9.061 15.422 C 9.153 15.949,9.297 16.255,9.740 16.865 C 9.770 16.907,9.517 17.182,8.660 18.040 C 8.044 18.656,7.527 19.160,7.510 19.160 C 7.494 19.160,7.480 18.457,7.480 17.598 C 7.480 16.125,7.476 16.028,7.401 15.883 C 7.272 15.629,7.118 15.582,6.020 15.462 C 5.492 15.404,4.952 15.329,4.820 15.295 C 4.164 15.128,3.591 14.659,3.286 14.039 C 2.995 13.449,3.001 13.549,3.001 9.748 C 3.000 5.986,2.995 6.059,3.263 5.495 C 3.352 5.308,3.495 5.106,3.679 4.909 C 4.221 4.329,4.520 4.210,5.810 4.064 C 6.795 3.952,7.974 3.853,8.920 3.804 C 9.835 3.756,12.583 3.754,13.480 3.801 M17.740 9.040 C 19.020 9.098,19.752 9.158,19.985 9.224 C 20.440 9.354,20.812 9.739,20.938 10.210 C 20.997 10.433,21.003 10.724,20.992 12.860 L 20.980 15.260 20.874 15.487 C 20.727 15.800,20.478 16.057,20.185 16.198 C 19.929 16.321,19.823 16.339,18.990 16.398 C 18.419 16.439,18.232 16.509,18.096 16.734 C 18.030 16.844,18.018 16.957,18.007 17.635 L 17.994 18.410 17.107 17.530 C 16.619 17.046,16.164 16.622,16.095 16.587 C 15.992 16.534,15.713 16.515,14.555 16.482 C 13.777 16.459,12.789 16.414,12.360 16.381 C 11.599 16.324,11.573 16.319,11.289 16.178 C 10.953 16.012,10.742 15.780,10.593 15.410 C 10.501 15.181,10.501 15.175,10.488 12.944 C 10.475 10.636,10.492 10.304,10.636 9.982 C 10.744 9.738,11.044 9.431,11.290 9.310 C 11.592 9.162,11.952 9.126,14.060 9.026 C 14.695 8.997,16.956 9.005,17.740 9.040 " stroke="none" fill-rule="evenodd" fill="black"></path></svg>