<svg width="24" height="24" viewBox="0 0 24 24" fill="none" xmlns="http://www.w3.org/2000/svg"><path d="M11.160 2.267 C 9.522 2.291,7.278 2.456,5.600 2.677 C 4.626 2.805,4.455 2.837,4.119 2.953 C 2.944 3.359,1.977 4.421,1.632 5.683 L 1.540 6.020 1.540 9.740 L 1.540 13.460 1.630 13.800 C 1.804 14.457,2.145 15.056,2.640 15.575 C 3.199 16.162,3.877 16.543,4.610 16.682 C 4.865 16.730,6.567 16.948,6.940 16.980 C 7.094 16.993,7.287 17.014,7.369 17.025 L 7.518 17.047 7.529 19.200 C 7.540 21.319,7.541 21.356,7.624 21.467 C 7.762 21.652,7.935 21.730,8.212 21.732 C 8.349 21.733,8.505 21.711,8.560 21.683 C 8.615 21.655,9.623 20.671,10.800 19.497 C 12.317 17.985,12.985 17.345,13.094 17.300 C 13.205 17.254,13.479 17.225,14.074 17.198 C 15.882 17.117,18.375 16.874,19.392 16.682 C 20.123 16.543,20.801 16.162,21.360 15.575 C 21.855 15.056,22.196 14.457,22.370 13.800 L 22.460 13.460 22.460 9.740 L 22.460 6.020 22.367 5.680 C 22.011 4.384,21.017 3.319,19.800 2.928 C 19.461 2.819,19.246 2.782,18.120 2.641 C 15.938 2.368,13.445 2.234,11.160 2.267 M14.560 3.821 C 16.244 3.917,18.762 4.186,19.260 4.324 C 19.833 4.482,20.436 4.997,20.718 5.569 C 21.004 6.149,20.999 6.066,20.999 9.764 C 21.000 12.938,20.997 13.080,20.920 13.384 C 20.796 13.873,20.625 14.175,20.260 14.545 C 19.746 15.067,19.466 15.178,18.260 15.337 C 16.811 15.528,15.832 15.614,14.140 15.700 C 12.316 15.792,12.505 15.689,10.512 17.672 L 9.004 19.173 8.992 17.617 C 8.981 16.167,8.975 16.051,8.904 15.934 C 8.753 15.685,8.620 15.646,7.533 15.539 C 6.236 15.411,5.035 15.253,4.762 15.175 C 4.357 15.060,4.077 14.887,3.739 14.545 C 3.502 14.305,3.380 14.142,3.273 13.920 C 2.995 13.347,3.000 13.421,3.001 9.752 C 3.001 6.067,2.996 6.149,3.282 5.569 C 3.564 4.997,4.167 4.482,4.740 4.324 C 5.206 4.195,7.775 3.915,9.324 3.824 C 10.600 3.749,13.269 3.747,14.560 3.821 " stroke="none" fill-rule="evenodd" fill="black"></path></svg>