<svg width="24" height="24" viewBox="0 0 24 24" fill="none" xmlns="http://www.w3.org/2000/svg"><path d="M11.160 2.267 C 9.522 2.291,7.278 2.456,5.600 2.677 C 4.626 2.805,4.455 2.837,4.119 2.953 C 2.944 3.359,1.977 4.421,1.632 5.683 L 1.540 6.020 1.540 9.740 L 1.540 13.460 1.630 13.800 C 1.804 14.457,2.145 15.056,2.640 15.575 C 3.196 16.159,3.877 16.543,4.601 16.680 C 5.000 16.756,6.376 16.925,7.378 17.021 C 8.097 17.091,8.445 17.140,8.509 17.182 C 8.560 17.216,9.233 18.192,10.005 19.351 C 10.778 20.511,11.465 21.519,11.533 21.591 C 11.671 21.737,11.899 21.816,12.069 21.776 C 12.130 21.762,12.257 21.707,12.352 21.653 C 12.503 21.566,12.690 21.304,13.961 19.399 C 14.752 18.213,15.440 17.216,15.491 17.182 C 15.555 17.140,15.903 17.091,16.622 17.021 C 17.624 16.925,19.000 16.756,19.399 16.680 C 20.123 16.543,20.804 16.159,21.360 15.575 C 21.855 15.056,22.196 14.457,22.370 13.800 L 22.460 13.460 22.460 9.740 L 22.460 6.020 22.367 5.680 C 22.011 4.384,21.017 3.319,19.800 2.928 C 19.461 2.819,19.246 2.782,18.120 2.641 C 15.938 2.368,13.445 2.234,11.160 2.267 M14.560 3.821 C 16.244 3.917,18.762 4.186,19.260 4.324 C 19.833 4.482,20.436 4.997,20.718 5.569 C 21.004 6.149,20.999 6.066,20.999 9.764 C 21.000 12.938,20.997 13.080,20.920 13.384 C 20.796 13.873,20.625 14.175,20.260 14.545 C 19.923 14.887,19.643 15.060,19.238 15.175 C 18.961 15.254,17.412 15.452,16.221 15.561 C 15.613 15.617,15.230 15.671,15.088 15.721 C 14.805 15.820,14.522 16.004,14.333 16.213 C 14.249 16.306,13.694 17.114,13.100 18.010 C 12.506 18.905,12.011 19.638,12.000 19.638 C 11.989 19.638,11.494 18.905,10.900 18.010 C 10.306 17.114,9.751 16.306,9.667 16.213 C 9.478 16.004,9.195 15.820,8.912 15.721 C 8.770 15.671,8.387 15.617,7.779 15.561 C 6.588 15.452,5.039 15.254,4.762 15.175 C 4.357 15.060,4.077 14.887,3.739 14.545 C 3.502 14.305,3.380 14.142,3.273 13.920 C 2.995 13.347,3.000 13.421,3.001 9.752 C 3.001 6.067,2.996 6.149,3.282 5.569 C 3.564 4.997,4.167 4.482,4.740 4.324 C 5.206 4.195,7.775 3.915,9.324 3.824 C 10.600 3.749,13.269 3.747,14.560 3.821 M7.067 7.604 C 6.878 7.704,6.762 7.938,6.761 8.220 C 6.760 8.621,6.898 8.855,7.196 8.955 C 7.390 9.019,16.610 9.019,16.804 8.955 C 17.102 8.855,17.240 8.621,17.239 8.220 C 17.238 7.931,17.122 7.703,16.925 7.602 C 16.764 7.521,16.731 7.520,11.992 7.522 C 7.284 7.524,7.218 7.525,7.067 7.604 M7.067 10.604 C 6.717 10.789,6.644 11.491,6.943 11.803 C 7.132 12.000,7.197 12.004,9.840 11.992 C 12.218 11.980,12.304 11.977,12.433 11.900 C 12.650 11.769,12.729 11.600,12.731 11.263 C 12.733 10.936,12.665 10.772,12.467 10.624 C 12.355 10.541,12.327 10.540,9.787 10.531 C 7.275 10.523,7.217 10.524,7.067 10.604 " stroke="none" fill-rule="evenodd" fill="black"></path></svg>