<svg width="24" height="24" viewBox="0 0 24 24" fill="none" xmlns="http://www.w3.org/2000/svg"><path d="M11.080 3.045 C 8.612 3.262,6.353 4.324,4.700 6.044 C 2.981 7.833,2.118 10.156,2.281 12.550 C 2.421 14.598,3.216 16.383,4.678 17.932 C 5.184 18.469,5.224 18.552,5.139 18.891 C 5.010 19.405,4.802 19.841,4.491 20.249 C 4.263 20.548,4.200 20.708,4.200 20.984 C 4.200 21.366,4.361 21.537,4.817 21.639 C 5.190 21.723,5.962 21.758,6.520 21.716 C 7.482 21.644,8.152 21.457,9.032 21.015 L 9.605 20.728 10.112 20.822 C 11.829 21.140,13.745 21.000,15.388 20.435 C 18.377 19.407,20.639 17.095,21.437 14.252 C 21.838 12.821,21.838 11.179,21.437 9.748 C 20.239 5.477,15.833 2.625,11.080 3.045 M12.560 4.521 C 16.016 4.755,18.910 6.854,19.897 9.840 C 20.168 10.661,20.217 10.994,20.217 12.000 C 20.217 13.006,20.168 13.339,19.897 14.160 C 18.792 17.502,15.280 19.713,11.453 19.476 C 10.798 19.435,10.598 19.406,9.915 19.253 C 9.616 19.186,9.402 19.158,9.313 19.175 C 9.238 19.189,9.033 19.291,8.858 19.402 C 8.117 19.873,7.351 20.142,6.530 20.222 L 6.240 20.250 6.338 20.035 C 6.489 19.703,6.641 19.131,6.667 18.800 C 6.714 18.196,6.478 17.655,5.901 17.044 C 4.781 15.858,4.191 14.773,3.873 13.315 C 3.794 12.953,3.783 12.786,3.783 12.000 C 3.783 11.214,3.794 11.047,3.873 10.685 C 4.434 8.112,6.211 6.092,8.791 5.095 C 9.767 4.718,10.476 4.579,11.900 4.486 C 11.944 4.484,12.241 4.499,12.560 4.521 M7.772 10.999 C 7.353 11.211,7.146 11.542,7.144 12.003 C 7.144 12.210,7.167 12.313,7.254 12.491 C 7.381 12.752,7.533 12.893,7.835 13.031 C 8.015 13.114,8.092 13.127,8.315 13.111 C 8.922 13.067,9.358 12.603,9.358 12.000 C 9.358 11.388,8.919 10.928,8.300 10.890 C 8.047 10.875,7.996 10.886,7.772 10.999 M11.601 10.949 C 11.354 11.037,11.033 11.365,10.947 11.617 C 10.800 12.049,10.896 12.461,11.217 12.783 C 11.672 13.237,12.328 13.237,12.783 12.783 C 13.237 12.328,13.237 11.672,12.783 11.217 C 12.462 10.897,12.028 10.799,11.601 10.949 M15.440 10.917 C 14.966 11.061,14.642 11.502,14.642 12.000 C 14.642 12.603,15.078 13.067,15.685 13.111 C 15.908 13.127,15.985 13.114,16.165 13.031 C 16.456 12.898,16.602 12.767,16.741 12.513 C 16.841 12.330,16.857 12.257,16.857 12.000 C 16.855 11.532,16.657 11.215,16.232 11.002 C 15.981 10.877,15.680 10.844,15.440 10.917 " stroke="none" fill-rule="evenodd" fill="black"></path></svg>