<svg width="24" height="24" viewBox="0 0 24 24" fill="none" xmlns="http://www.w3.org/2000/svg"><path d="M19.220 4.519 C 19.176 4.537,19.098 4.592,19.047 4.640 C 18.997 4.688,17.028 7.618,14.674 11.149 L 10.393 17.571 7.626 14.810 C 4.684 11.874,4.737 11.921,4.410 11.974 C 4.087 12.026,3.720 12.426,3.720 12.725 C 3.720 12.807,3.739 12.925,3.762 12.987 C 3.806 13.104,9.859 19.199,10.136 19.404 C 10.359 19.570,10.642 19.568,10.874 19.400 C 11.008 19.303,11.937 17.934,15.595 12.447 C 18.101 8.689,20.180 5.558,20.215 5.489 C 20.345 5.238,20.252 4.886,20.005 4.690 C 19.769 4.503,19.433 4.429,19.220 4.519 " stroke="none" fill-rule="evenodd" fill="black"></path></svg>