<svg width="24" height="24" viewBox="0 0 24 24" fill="none" xmlns="http://www.w3.org/2000/svg"><path d="M11.835 7.496 C 11.756 7.524,11.639 7.585,11.575 7.631 C 11.341 7.801,3.846 15.345,3.780 15.477 C 3.630 15.776,3.768 16.140,4.130 16.403 C 4.259 16.496,4.334 16.520,4.497 16.520 C 4.620 16.520,4.742 16.494,4.801 16.455 C 4.855 16.419,6.498 14.794,8.450 12.845 L 12.000 9.300 15.550 12.845 C 17.503 14.794,19.145 16.419,19.199 16.455 C 19.258 16.494,19.380 16.520,19.503 16.520 C 20.005 16.520,20.432 15.899,20.220 15.477 C 20.131 15.299,12.550 7.704,12.340 7.582 C 12.122 7.456,12.006 7.436,11.835 7.496 " stroke="none" fill-rule="evenodd" fill="black"></path></svg>