<svg width="24" height="24" viewBox="0 0 24 24" fill="none" xmlns="http://www.w3.org/2000/svg"><path d="M12.400 3.833 C 12.153 3.995,4.625 11.546,4.539 11.717 C 4.443 11.909,4.456 12.133,4.575 12.332 C 4.705 12.551,12.298 20.131,12.477 20.220 C 12.776 20.370,13.140 20.232,13.403 19.870 C 13.496 19.741,13.520 19.666,13.520 19.503 C 13.520 19.380,13.494 19.258,13.455 19.199 C 13.419 19.145,11.794 17.503,9.845 15.550 L 6.300 12.000 9.845 8.450 C 11.794 6.498,13.419 4.855,13.455 4.801 C 13.494 4.742,13.520 4.620,13.520 4.497 C 13.520 4.334,13.496 4.259,13.403 4.130 C 13.216 3.872,13.026 3.749,12.787 3.730 C 12.609 3.716,12.554 3.731,12.400 3.833 M18.400 3.833 C 18.153 3.995,10.625 11.546,10.539 11.717 C 10.443 11.909,10.456 12.133,10.575 12.332 C 10.705 12.551,18.298 20.131,18.477 20.220 C 18.776 20.370,19.140 20.232,19.403 19.870 C 19.496 19.741,19.520 19.666,19.520 19.503 C 19.520 19.380,19.494 19.258,19.455 19.199 C 19.419 19.145,17.794 17.503,15.845 15.550 L 12.300 12.000 15.845 8.450 C 17.794 6.498,19.419 4.855,19.455 4.801 C 19.494 4.742,19.520 4.620,19.520 4.497 C 19.520 4.334,19.496 4.259,19.403 4.130 C 19.216 3.872,19.026 3.749,18.787 3.730 C 18.609 3.716,18.554 3.731,18.400 3.833 " stroke="none" fill-rule="evenodd" fill="black"></path></svg>