<svg width="24" height="24" viewBox="0 0 24 24" fill="none" xmlns="http://www.w3.org/2000/svg"><path d="M15.400 3.833 C 15.153 3.995,7.625 11.546,7.539 11.717 C 7.443 11.909,7.456 12.133,7.575 12.332 C 7.705 12.551,15.298 20.131,15.477 20.220 C 15.776 20.370,16.140 20.232,16.403 19.870 C 16.496 19.741,16.520 19.666,16.520 19.503 C 16.520 19.380,16.494 19.258,16.455 19.199 C 16.419 19.145,14.794 17.503,12.845 15.550 L 9.300 12.000 12.845 8.450 C 14.794 6.498,16.419 4.855,16.455 4.801 C 16.494 4.742,16.520 4.620,16.520 4.497 C 16.520 4.334,16.496 4.259,16.403 4.130 C 16.216 3.872,16.026 3.749,15.787 3.730 C 15.609 3.716,15.554 3.731,15.400 3.833 " stroke="none" fill-rule="evenodd" fill="black"></path></svg>