<svg width="24" height="24" viewBox="0 0 24 24" fill="none" xmlns="http://www.w3.org/2000/svg"><path d="M4.371 4.482 C 4.213 4.516,3.999 4.674,3.855 4.863 C 3.716 5.045,3.683 5.332,3.780 5.523 C 3.865 5.695,11.396 13.247,11.638 13.404 C 11.881 13.563,12.119 13.563,12.362 13.404 C 12.604 13.247,20.134 5.695,20.220 5.523 C 20.373 5.219,20.230 4.854,19.852 4.587 C 19.676 4.462,19.406 4.433,19.234 4.521 C 19.182 4.547,17.534 6.173,15.570 8.134 L 12.000 11.699 8.410 8.112 C 5.699 5.403,4.791 4.519,4.700 4.499 C 4.634 4.485,4.562 4.469,4.540 4.463 C 4.518 4.458,4.442 4.466,4.371 4.482 M4.371 10.482 C 4.213 10.516,3.999 10.674,3.855 10.863 C 3.716 11.045,3.683 11.332,3.780 11.523 C 3.865 11.695,11.396 19.247,11.638 19.404 C 11.881 19.563,12.119 19.563,12.362 19.404 C 12.604 19.247,20.134 11.695,20.220 11.523 C 20.373 11.219,20.230 10.854,19.852 10.587 C 19.676 10.462,19.406 10.433,19.234 10.521 C 19.182 10.547,17.534 12.173,15.570 14.134 L 12.000 17.699 8.410 14.112 C 5.699 11.403,4.791 10.519,4.700 10.499 C 4.634 10.485,4.562 10.469,4.540 10.463 C 4.518 10.458,4.442 10.466,4.371 10.482 " stroke="none" fill-rule="evenodd" fill="black"></path></svg>