<svg width="24" height="24" viewBox="0 0 24 24" fill="none" xmlns="http://www.w3.org/2000/svg"><path d="M4.980 3.783 C 4.579 3.991,4.362 4.455,4.521 4.766 C 4.547 4.818,6.173 6.466,8.134 8.430 L 11.699 12.000 8.134 15.570 C 6.173 17.534,4.547 19.182,4.521 19.234 C 4.433 19.406,4.462 19.676,4.587 19.852 C 4.854 20.230,5.219 20.373,5.523 20.220 C 5.695 20.134,13.247 12.604,13.404 12.362 C 13.563 12.119,13.563 11.881,13.404 11.638 C 13.252 11.403,5.698 3.867,5.532 3.784 C 5.370 3.703,5.135 3.702,4.980 3.783 M10.980 3.783 C 10.579 3.991,10.362 4.455,10.521 4.766 C 10.547 4.818,12.173 6.466,14.134 8.430 L 17.699 12.000 14.134 15.570 C 12.173 17.534,10.547 19.182,10.521 19.234 C 10.433 19.406,10.462 19.676,10.587 19.852 C 10.854 20.230,11.219 20.373,11.523 20.220 C 11.695 20.134,19.247 12.604,19.404 12.362 C 19.563 12.119,19.563 11.881,19.404 11.638 C 19.252 11.403,11.698 3.867,11.532 3.784 C 11.370 3.703,11.135 3.702,10.980 3.783 " stroke="none" fill-rule="evenodd" fill="black"></path></svg>