<svg width="24" height="24" viewBox="0 0 24 24" fill="none" xmlns="http://www.w3.org/2000/svg"><path d="M11.835 4.496 C 11.756 4.524,11.639 4.585,11.575 4.631 C 11.341 4.801,3.846 12.345,3.780 12.477 C 3.630 12.776,3.768 13.140,4.130 13.403 C 4.259 13.496,4.334 13.520,4.497 13.520 C 4.620 13.520,4.742 13.494,4.801 13.455 C 4.855 13.419,6.498 11.794,8.450 9.845 L 12.000 6.300 15.550 9.845 C 17.503 11.794,19.145 13.419,19.199 13.455 C 19.258 13.494,19.380 13.520,19.503 13.520 C 20.005 13.520,20.432 12.899,20.220 12.477 C 20.131 12.299,12.550 4.704,12.340 4.582 C 12.122 4.456,12.006 4.436,11.835 4.496 M11.835 10.496 C 11.756 10.524,11.639 10.585,11.575 10.631 C 11.341 10.801,3.846 18.345,3.780 18.477 C 3.630 18.776,3.768 19.140,4.130 19.403 C 4.259 19.496,4.334 19.520,4.497 19.520 C 4.620 19.520,4.742 19.494,4.801 19.455 C 4.855 19.419,6.498 17.794,8.450 15.845 L 12.000 12.300 15.550 15.845 C 17.503 17.794,19.145 19.419,19.199 19.455 C 19.258 19.494,19.380 19.520,19.503 19.520 C 20.005 19.520,20.432 18.899,20.220 18.477 C 20.131 18.299,12.550 10.704,12.340 10.582 C 12.122 10.456,12.006 10.436,11.835 10.496 " stroke="none" fill-rule="evenodd" fill="black"></path></svg>