<svg width="24" height="24" viewBox="0 0 24 24" fill="none" xmlns="http://www.w3.org/2000/svg"><path d="M7.980 3.783 C 7.579 3.991,7.362 4.455,7.521 4.766 C 7.547 4.818,9.173 6.466,11.134 8.430 L 14.699 12.000 11.134 15.570 C 9.173 17.534,7.547 19.182,7.521 19.234 C 7.433 19.406,7.462 19.676,7.587 19.852 C 7.854 20.230,8.219 20.373,8.523 20.220 C 8.695 20.134,16.247 12.604,16.404 12.362 C 16.563 12.119,16.563 11.881,16.404 11.638 C 16.252 11.403,8.698 3.867,8.532 3.784 C 8.370 3.703,8.135 3.702,7.980 3.783 " stroke="none" fill-rule="evenodd" fill="black"></path></svg>