<svg width="24" height="24" viewBox="0 0 24 24" fill="none" xmlns="http://www.w3.org/2000/svg"><path d="M11.835 4.496 C 11.756 4.524,11.639 4.585,11.575 4.631 C 11.346 4.797,7.607 8.583,7.540 8.717 C 7.442 8.911,7.456 9.132,7.578 9.341 C 7.694 9.537,7.952 9.735,8.150 9.778 C 8.442 9.842,8.482 9.809,10.290 8.006 L 12.000 6.301 13.710 8.006 C 15.518 9.809,15.558 9.842,15.850 9.778 C 16.047 9.735,16.306 9.538,16.419 9.345 C 16.560 9.105,16.555 8.870,16.404 8.638 C 16.256 8.409,12.459 4.627,12.300 4.550 C 12.107 4.456,11.990 4.442,11.835 4.496 M8.100 14.229 C 7.942 14.270,7.680 14.486,7.576 14.663 C 7.454 14.872,7.442 15.088,7.542 15.287 C 7.627 15.457,11.401 19.251,11.638 19.404 C 11.844 19.538,12.089 19.558,12.292 19.456 C 12.458 19.372,16.253 15.595,16.404 15.362 C 16.555 15.130,16.560 14.895,16.419 14.655 C 16.306 14.462,16.047 14.265,15.850 14.222 C 15.558 14.158,15.518 14.191,13.710 15.994 L 12.000 17.699 10.310 16.011 C 8.473 14.176,8.435 14.145,8.100 14.229 " stroke="none" fill-rule="evenodd" fill="black"></path></svg>