<svg width="24" height="24" viewBox="0 0 24 24" fill="none" xmlns="http://www.w3.org/2000/svg"><path d="M10.760 1.545 C 8.564 1.740,6.856 2.209,5.435 3.009 C 4.078 3.772,3.221 4.815,3.043 5.920 C 2.984 6.280,2.984 17.720,3.043 18.080 C 3.221 19.185,4.078 20.228,5.435 20.991 C 6.691 21.698,8.178 22.147,10.060 22.388 C 10.862 22.490,13.138 22.490,13.940 22.388 C 15.055 22.245,15.918 22.056,16.805 21.760 C 19.065 21.005,20.490 19.819,20.910 18.344 C 20.975 18.117,20.980 17.674,20.980 12.000 C 20.980 6.326,20.975 5.883,20.910 5.656 C 20.386 3.817,18.225 2.390,15.040 1.780 C 14.124 1.605,13.523 1.554,12.220 1.542 C 11.516 1.535,10.859 1.536,10.760 1.545 M13.900 3.117 C 16.061 3.410,17.722 4.040,18.717 4.946 C 19.557 5.710,19.710 6.483,19.179 7.281 C 18.858 7.764,18.281 8.221,17.499 8.611 C 14.464 10.126,9.536 10.126,6.501 8.611 C 4.682 7.703,4.059 6.492,4.855 5.411 C 5.295 4.814,6.071 4.281,7.101 3.867 C 8.225 3.416,9.389 3.165,11.000 3.024 C 11.497 2.981,13.324 3.039,13.900 3.117 M4.952 9.444 C 6.258 10.318,7.991 10.885,10.160 11.148 C 10.979 11.247,13.021 11.247,13.840 11.148 C 16.009 10.885,17.742 10.318,19.048 9.444 C 19.282 9.288,19.486 9.160,19.502 9.160 C 19.518 9.160,19.522 9.434,19.510 9.770 C 19.494 10.263,19.474 10.423,19.404 10.604 C 18.896 11.933,16.685 13.035,13.798 13.398 C 12.842 13.518,11.158 13.518,10.202 13.398 C 7.313 13.035,5.105 11.934,4.596 10.604 C 4.526 10.423,4.506 10.263,4.490 9.770 C 4.478 9.434,4.482 9.160,4.498 9.160 C 4.514 9.160,4.718 9.288,4.952 9.444 M4.750 13.054 C 5.231 13.417,5.894 13.768,6.689 14.080 C 9.767 15.290,14.209 15.291,17.311 14.081 C 18.075 13.784,18.890 13.345,19.328 12.997 C 19.409 12.933,19.485 12.880,19.498 12.880 C 19.536 12.880,19.522 13.806,19.480 14.060 C 19.346 14.883,18.457 15.718,17.097 16.300 C 16.139 16.710,15.183 16.958,13.840 17.147 C 13.444 17.202,13.061 17.217,12.000 17.217 C 10.632 17.217,10.295 17.192,9.320 17.015 C 6.687 16.539,4.728 15.333,4.520 14.060 C 4.480 13.816,4.464 12.880,4.500 12.880 C 4.510 12.880,4.623 12.958,4.750 13.054 M4.751 16.808 C 5.760 17.554,7.302 18.156,9.020 18.475 C 10.873 18.820,13.127 18.820,14.980 18.475 C 16.698 18.156,18.240 17.554,19.249 16.808 C 19.374 16.716,19.486 16.640,19.498 16.640 C 19.534 16.640,19.521 17.521,19.481 17.797 C 19.423 18.202,19.238 18.528,18.843 18.922 C 18.330 19.434,17.769 19.784,16.899 20.133 C 15.926 20.523,14.922 20.762,13.560 20.928 C 13.004 20.996,10.996 20.996,10.440 20.928 C 9.078 20.762,8.074 20.523,7.101 20.133 C 6.231 19.784,5.670 19.434,5.157 18.922 C 4.762 18.528,4.577 18.202,4.519 17.797 C 4.479 17.521,4.466 16.640,4.502 16.640 C 4.514 16.640,4.626 16.716,4.751 16.808 " stroke="none" fill-rule="evenodd" fill="black"></path></svg>