<svg width="24" height="24" viewBox="0 0 24 24" fill="none" xmlns="http://www.w3.org/2000/svg"><path d="M12.735 1.598 C 12.016 1.790,11.297 2.327,10.936 2.944 C 10.837 3.112,10.833 3.114,10.568 3.137 C 9.777 3.206,9.440 3.289,8.998 3.524 C 8.552 3.762,8.050 4.299,7.789 4.820 C 7.598 5.202,7.552 5.426,7.525 6.112 L 7.500 6.764 6.060 6.761 C 4.878 6.759,4.577 6.770,4.380 6.821 C 3.735 6.989,3.183 7.572,3.045 8.232 C 3.013 8.383,3.000 10.234,3.001 14.632 C 3.001 21.420,2.990 21.104,3.239 21.538 C 3.415 21.845,3.738 22.144,4.078 22.312 L 4.376 22.460 9.758 22.460 L 15.140 22.460 15.420 22.323 C 15.792 22.142,16.142 21.792,16.323 21.420 L 16.460 21.140 16.473 19.955 L 16.485 18.771 17.493 18.749 C 18.362 18.730,18.541 18.715,18.799 18.641 C 19.309 18.494,19.698 18.264,20.084 17.881 C 20.597 17.373,20.858 16.875,20.960 16.214 C 20.989 16.029,20.999 14.260,20.991 10.760 C 20.978 4.959,21.002 5.430,20.681 4.780 C 20.315 4.037,19.623 3.461,18.860 3.265 C 18.728 3.231,18.404 3.183,18.140 3.158 C 17.876 3.134,17.658 3.111,17.656 3.107 C 17.654 3.103,17.600 3.010,17.537 2.900 C 17.374 2.616,16.869 2.124,16.540 1.930 C 16.386 1.839,16.116 1.714,15.940 1.652 L 15.620 1.540 14.320 1.531 C 13.152 1.523,12.991 1.530,12.735 1.598 M15.650 3.155 C 15.943 3.303,16.185 3.535,16.321 3.802 C 16.408 3.973,16.523 4.435,16.492 4.490 C 16.483 4.506,15.468 4.520,14.238 4.520 L 12.000 4.520 12.000 4.413 C 12.000 4.289,12.056 4.099,12.171 3.831 C 12.267 3.609,12.553 3.307,12.780 3.190 C 13.123 3.012,13.209 3.002,14.320 3.011 L 15.380 3.020 15.650 3.155 M10.520 5.120 C 10.542 5.632,10.595 5.771,10.815 5.905 C 10.935 5.977,11.077 5.980,14.240 5.980 C 17.487 5.980,17.542 5.979,17.679 5.899 C 17.917 5.758,17.978 5.603,17.994 5.087 L 18.009 4.634 18.214 4.662 C 18.512 4.703,18.707 4.782,18.927 4.949 C 19.153 5.122,19.289 5.306,19.412 5.605 L 19.500 5.820 19.511 10.740 C 19.523 15.857,19.518 16.052,19.355 16.389 C 19.221 16.668,18.942 16.944,18.648 17.089 L 18.382 17.220 17.436 17.232 L 16.490 17.244 16.469 16.312 C 16.448 15.373,16.404 14.988,16.236 14.260 C 15.458 10.885,12.806 8.098,9.460 7.137 L 9.020 7.011 9.020 6.375 C 9.020 5.772,9.025 5.729,9.125 5.515 C 9.252 5.245,9.474 4.990,9.698 4.859 C 9.887 4.748,10.254 4.640,10.400 4.652 C 10.499 4.660,10.500 4.664,10.520 5.120 M7.183 8.373 C 7.959 8.629,8.585 9.249,8.871 10.047 C 8.973 10.332,8.977 10.373,9.000 11.560 C 9.022 12.664,9.032 12.801,9.108 13.007 C 9.296 13.516,9.729 13.950,10.244 14.147 C 10.388 14.201,10.643 14.218,11.640 14.240 C 12.815 14.266,12.872 14.271,13.183 14.373 C 13.957 14.627,14.580 15.244,14.873 16.047 L 14.980 16.340 14.992 18.545 L 15.004 20.750 14.879 20.875 L 14.754 21.000 9.758 21.000 L 4.761 21.000 4.631 20.883 L 4.500 20.767 4.500 14.627 C 4.500 8.545,4.501 8.488,4.580 8.399 C 4.624 8.351,4.696 8.295,4.740 8.276 C 4.784 8.257,5.279 8.247,5.840 8.253 C 6.820 8.265,6.873 8.270,7.183 8.373 M10.448 9.124 C 11.712 9.760,12.897 10.821,13.671 12.009 C 13.853 12.289,14.320 13.158,14.320 13.217 C 14.320 13.231,14.235 13.199,14.130 13.146 C 13.935 13.049,13.559 12.918,13.240 12.837 C 13.140 12.811,12.543 12.780,11.891 12.766 L 10.722 12.740 10.611 12.629 L 10.500 12.518 10.475 11.329 C 10.445 9.958,10.427 9.859,10.053 9.010 C 10.017 8.926,10.107 8.953,10.448 9.124 " stroke="none" fill-rule="evenodd" fill="black"></path></svg>