<svg width="24" height="24" viewBox="0 0 24 24" fill="none" xmlns="http://www.w3.org/2000/svg"><path d="M9.735 1.599 C 9.001 1.792,8.277 2.341,7.916 2.982 L 7.801 3.184 7.051 3.255 C 6.057 3.349,5.813 3.402,5.360 3.626 C 5.044 3.782,4.923 3.871,4.640 4.157 C 4.257 4.544,4.048 4.872,3.889 5.340 L 3.780 5.660 3.780 12.880 L 3.780 20.100 3.889 20.420 C 4.051 20.896,4.257 21.217,4.660 21.622 C 4.961 21.924,5.083 22.014,5.400 22.173 C 6.051 22.498,5.639 22.479,12.000 22.479 C 18.361 22.479,17.949 22.498,18.600 22.173 C 18.917 22.014,19.039 21.924,19.340 21.622 C 19.743 21.217,19.949 20.896,20.111 20.420 L 20.220 20.100 20.220 12.880 L 20.220 5.660 20.111 5.340 C 19.952 4.872,19.743 4.544,19.360 4.157 C 19.077 3.871,18.956 3.782,18.640 3.626 C 18.187 3.402,17.943 3.349,16.949 3.255 L 16.199 3.184 16.084 2.982 C 15.722 2.340,14.990 1.787,14.256 1.599 C 13.969 1.525,13.811 1.520,11.984 1.522 C 10.200 1.524,9.994 1.531,9.735 1.599 M14.121 3.148 C 14.413 3.292,14.690 3.544,14.808 3.776 C 14.893 3.942,15.000 4.313,15.000 4.442 C 15.000 4.519,14.948 4.520,12.000 4.520 C 9.052 4.520,9.000 4.519,9.000 4.442 C 9.000 4.313,9.107 3.942,9.192 3.776 C 9.347 3.474,9.722 3.174,10.091 3.057 C 10.223 3.015,10.651 3.006,12.061 3.012 L 13.862 3.020 14.121 3.148 M7.520 4.758 C 7.520 4.780,7.557 4.897,7.603 5.019 C 7.777 5.483,8.193 5.850,8.656 5.947 C 9.008 6.021,14.992 6.021,15.344 5.947 C 15.807 5.850,16.223 5.483,16.397 5.019 C 16.443 4.897,16.480 4.780,16.480 4.758 C 16.480 4.707,16.572 4.710,17.178 4.781 C 17.769 4.850,18.015 4.941,18.290 5.195 C 18.511 5.399,18.660 5.672,18.718 5.980 C 18.752 6.155,18.761 8.065,18.752 13.020 L 18.740 19.820 18.647 20.050 C 18.518 20.371,18.217 20.687,17.888 20.849 L 17.622 20.980 12.000 20.980 L 6.378 20.980 6.112 20.849 C 5.783 20.687,5.482 20.371,5.353 20.050 L 5.260 19.820 5.248 13.020 C 5.239 8.065,5.248 6.155,5.282 5.980 C 5.369 5.516,5.670 5.132,6.098 4.936 C 6.387 4.803,7.520 4.662,7.520 4.758 " stroke="none" fill-rule="evenodd" fill="black"></path></svg>