<svg width="24" height="24" viewBox="0 0 24 24" fill="none" xmlns="http://www.w3.org/2000/svg"><path d="M12.735 1.598 C 12.016 1.790,11.297 2.327,10.936 2.944 C 10.837 3.112,10.833 3.114,10.568 3.137 C 9.777 3.206,9.440 3.289,8.998 3.524 C 8.552 3.762,8.050 4.299,7.789 4.820 C 7.570 5.257,7.549 5.391,7.524 6.480 L 7.500 7.500 5.938 7.520 L 4.376 7.540 4.078 7.688 C 3.560 7.944,3.185 8.400,3.062 8.923 C 2.970 9.311,2.970 20.689,3.062 21.077 C 3.185 21.600,3.560 22.056,4.078 22.312 L 4.376 22.460 9.758 22.460 L 15.140 22.460 15.420 22.323 C 15.792 22.142,16.142 21.791,16.323 21.420 L 16.459 21.140 16.479 20.320 L 16.500 19.500 17.560 19.476 C 18.673 19.450,18.803 19.432,19.220 19.243 C 19.894 18.937,20.419 18.408,20.736 17.714 C 20.994 17.148,20.980 17.523,20.980 11.300 C 20.980 4.928,21.003 5.431,20.682 4.780 C 20.314 4.036,19.623 3.461,18.860 3.265 C 18.728 3.231,18.404 3.183,18.140 3.158 C 17.876 3.134,17.658 3.111,17.656 3.107 C 17.654 3.103,17.600 3.010,17.537 2.900 C 17.374 2.616,16.869 2.124,16.540 1.930 C 16.386 1.839,16.116 1.714,15.940 1.652 L 15.620 1.540 14.320 1.531 C 13.152 1.523,12.991 1.530,12.735 1.598 M15.650 3.155 C 15.943 3.303,16.185 3.535,16.321 3.802 C 16.408 3.973,16.523 4.435,16.492 4.490 C 16.483 4.506,15.468 4.520,14.238 4.520 L 12.000 4.520 12.000 4.413 C 12.000 4.289,12.056 4.099,12.171 3.831 C 12.267 3.609,12.553 3.307,12.780 3.190 C 13.123 3.012,13.209 3.002,14.320 3.011 L 15.380 3.020 15.650 3.155 M10.521 4.730 C 10.522 4.873,10.697 5.259,10.843 5.443 C 11.046 5.700,11.390 5.904,11.711 5.958 C 11.897 5.990,12.735 6.000,14.420 5.992 L 16.860 5.980 17.100 5.868 C 17.527 5.669,17.883 5.235,17.955 4.826 L 17.984 4.660 18.190 4.671 C 18.748 4.701,19.228 5.082,19.428 5.654 C 19.496 5.848,19.500 6.169,19.500 11.320 L 19.500 16.780 19.407 17.010 C 19.238 17.430,18.907 17.764,18.512 17.913 C 18.376 17.965,18.147 17.981,17.411 17.992 L 16.482 18.005 16.471 13.433 L 16.460 8.860 16.323 8.580 C 16.142 8.208,15.792 7.858,15.420 7.677 L 15.140 7.540 12.067 7.529 L 8.995 7.518 9.007 6.629 C 9.020 5.765,9.023 5.734,9.125 5.515 C 9.322 5.095,9.645 4.821,10.081 4.704 C 10.413 4.615,10.520 4.621,10.521 4.730 M14.877 9.123 L 15.000 9.246 15.000 15.000 L 15.000 20.754 14.877 20.877 L 14.754 21.000 9.758 21.000 L 4.761 21.000 4.631 20.883 L 4.500 20.767 4.500 15.000 L 4.500 9.233 4.631 9.117 L 4.761 9.000 9.758 9.000 L 14.754 9.000 14.877 9.123 M11.674 12.806 C 11.576 12.863,11.103 13.422,10.237 14.505 L 8.946 16.118 8.400 15.585 C 7.823 15.020,7.678 14.930,7.410 14.974 C 7.087 15.026,6.720 15.426,6.720 15.725 C 6.720 15.807,6.739 15.925,6.763 15.987 C 6.819 16.137,8.538 17.865,8.728 17.963 C 9.000 18.104,9.287 18.030,9.545 17.754 C 9.728 17.557,12.531 14.042,12.652 13.857 C 12.857 13.543,12.826 13.272,12.556 13.006 C 12.265 12.720,11.947 12.648,11.674 12.806 " stroke="none" fill-rule="evenodd" fill="black"></path></svg>