<svg width="24" height="24" viewBox="0 0 24 24" fill="none" xmlns="http://www.w3.org/2000/svg"><path d="M11.320 2.280 C 9.441 2.407,7.648 3.082,6.084 4.252 C 5.591 4.620,4.620 5.591,4.252 6.084 C 3.226 7.456,2.607 8.935,2.357 10.608 C 2.238 11.410,2.238 12.590,2.357 13.392 C 2.607 15.065,3.226 16.544,4.252 17.916 C 4.620 18.409,5.591 19.380,6.084 19.748 C 7.457 20.775,8.938 21.395,10.608 21.642 C 11.784 21.817,13.262 21.739,14.412 21.442 C 15.680 21.115,16.841 20.553,17.916 19.748 C 18.409 19.379,19.379 18.409,19.748 17.916 C 20.773 16.548,21.395 15.063,21.642 13.392 C 21.761 12.591,21.761 11.409,21.642 10.608 C 21.395 8.937,20.773 7.452,19.748 6.084 C 19.379 5.591,18.409 4.621,17.916 4.252 C 16.786 3.406,15.392 2.757,14.120 2.486 C 13.247 2.300,12.184 2.222,11.320 2.280 M13.180 3.838 C 14.600 4.049,15.862 4.579,17.009 5.445 C 17.434 5.766,18.234 6.566,18.555 6.991 C 20.636 9.747,20.811 13.444,18.999 16.366 C 18.375 17.371,17.371 18.375,16.366 18.999 C 13.687 20.661,10.313 20.661,7.634 18.999 C 6.629 18.375,5.625 17.371,5.001 16.366 C 3.491 13.931,3.342 10.873,4.609 8.343 C 5.042 7.479,5.477 6.878,6.177 6.177 C 7.056 5.299,8.001 4.686,9.125 4.266 C 10.372 3.800,11.867 3.642,13.180 3.838 M11.787 5.278 C 11.598 5.316,11.444 5.427,11.340 5.604 C 11.262 5.736,11.260 5.824,11.247 8.780 C 11.241 10.452,11.246 11.932,11.261 12.069 C 11.290 12.357,11.394 12.537,11.600 12.658 C 11.736 12.738,11.804 12.740,14.040 12.753 C 15.305 12.760,16.452 12.754,16.589 12.740 C 17.051 12.692,17.220 12.494,17.220 12.000 C 17.220 11.548,17.080 11.348,16.714 11.277 C 16.618 11.259,15.690 11.243,14.650 11.242 L 12.760 11.240 12.758 8.610 C 12.757 7.163,12.741 5.902,12.723 5.806 C 12.644 5.398,12.265 5.185,11.787 5.278 " stroke="none" fill-rule="evenodd" fill="black"></path></svg>