<svg width="24" height="24" viewBox="0 0 24 24" fill="none" xmlns="http://www.w3.org/2000/svg"><path d="M9.640 3.817 C 8.281 4.031,7.117 4.629,6.198 5.585 C 5.098 6.731,4.523 8.144,4.521 9.706 L 4.520 10.233 4.187 10.420 C 3.719 10.682,3.392 10.937,2.998 11.346 C 2.292 12.079,1.833 12.919,1.618 13.866 C 1.521 14.298,1.498 15.377,1.577 15.858 C 1.743 16.870,2.234 17.856,2.940 18.595 C 3.622 19.310,4.481 19.828,5.380 20.065 C 6.038 20.238,6.045 20.239,12.365 20.239 C 18.987 20.240,18.699 20.250,19.460 19.996 C 20.070 19.792,20.606 19.466,21.091 19.004 C 21.999 18.139,22.480 17.018,22.480 15.769 C 22.480 14.786,22.250 14.020,21.711 13.214 C 21.443 12.813,20.904 12.275,20.520 12.025 L 20.220 11.830 20.217 11.225 C 20.213 10.539,20.144 10.202,19.901 9.689 C 19.427 8.688,18.641 8.007,17.560 7.660 C 17.278 7.570,17.123 7.548,16.649 7.530 L 16.077 7.509 15.940 7.212 C 15.170 5.545,13.536 4.253,11.720 3.875 C 11.225 3.772,10.124 3.741,9.640 3.817 M11.060 5.281 C 12.078 5.426,12.896 5.827,13.643 6.547 C 14.180 7.065,14.528 7.619,14.764 8.331 C 14.924 8.811,15.043 9.013,15.215 9.095 C 15.394 9.180,15.524 9.177,15.927 9.080 C 16.769 8.879,17.485 9.076,18.083 9.676 C 18.711 10.304,18.886 11.031,18.633 11.957 C 18.476 12.531,18.566 12.696,19.210 13.014 C 19.457 13.136,19.772 13.328,19.908 13.441 C 20.183 13.668,20.538 14.112,20.691 14.420 C 21.053 15.146,21.092 16.071,20.794 16.866 C 20.606 17.369,20.046 18.020,19.534 18.331 C 19.403 18.411,19.126 18.536,18.918 18.608 L 18.540 18.740 12.600 18.753 C 8.280 18.762,6.562 18.753,6.300 18.719 C 5.096 18.565,4.041 17.850,3.466 16.797 C 3.132 16.187,3.022 15.733,3.025 14.980 C 3.028 14.285,3.098 13.956,3.359 13.410 C 3.562 12.984,3.708 12.775,4.056 12.408 C 4.489 11.953,4.925 11.671,5.545 11.444 C 5.691 11.390,5.845 11.298,5.925 11.215 C 6.055 11.080,6.060 11.065,6.056 10.768 C 6.054 10.599,6.039 10.235,6.021 9.959 C 5.960 9.007,6.205 8.104,6.753 7.260 C 6.975 6.918,7.653 6.232,7.980 6.019 C 8.902 5.418,10.063 5.140,11.060 5.281 " stroke="none" fill-rule="evenodd" fill="black"></path></svg>