<svg width="24" height="24" viewBox="0 0 24 24" fill="none" xmlns="http://www.w3.org/2000/svg"><path d="M13.842 3.086 C 13.766 3.138,13.673 3.235,13.634 3.301 C 13.521 3.494,9.000 20.120,9.000 20.342 C 9.000 20.717,9.279 20.957,9.756 20.990 C 9.985 21.005,10.038 20.995,10.158 20.914 C 10.234 20.862,10.327 20.765,10.366 20.699 C 10.479 20.506,15.000 3.880,15.000 3.658 C 15.000 3.283,14.721 3.043,14.244 3.010 C 14.015 2.995,13.962 3.005,13.842 3.086 M6.480 6.027 C 6.316 6.104,0.930 11.468,0.804 11.680 C 0.703 11.849,0.695 12.114,0.785 12.292 C 0.861 12.443,6.051 17.660,6.334 17.869 C 6.607 18.071,6.833 18.089,7.085 17.927 C 7.357 17.752,7.490 17.557,7.511 17.304 C 7.524 17.155,7.508 17.053,7.460 16.957 C 7.422 16.881,6.309 15.736,4.986 14.410 L 2.582 12.000 4.986 9.590 C 6.309 8.264,7.422 7.119,7.460 7.043 C 7.508 6.947,7.524 6.845,7.511 6.696 C 7.490 6.443,7.356 6.246,7.087 6.076 C 6.878 5.943,6.691 5.928,6.480 6.027 M16.915 6.073 C 16.515 6.330,16.371 6.708,16.543 7.050 C 16.580 7.121,17.691 8.264,19.014 9.590 L 21.418 12.000 19.014 14.410 C 17.691 15.736,16.579 16.880,16.542 16.953 C 16.366 17.301,16.529 17.701,16.946 17.946 C 17.197 18.093,17.409 18.065,17.690 17.847 C 18.006 17.602,23.141 12.439,23.215 12.292 C 23.298 12.128,23.298 11.872,23.215 11.708 C 23.139 11.557,17.949 6.340,17.666 6.131 C 17.393 5.929,17.167 5.911,16.915 6.073 " stroke="none" fill-rule="evenodd" fill="black"></path></svg>