<svg width="24" height="24" viewBox="0 0 24 24" fill="none" xmlns="http://www.w3.org/2000/svg"><path d="M5.499 3.043 C 4.375 3.233,3.426 4.083,3.112 5.178 L 3.020 5.500 3.020 12.000 L 3.020 18.500 3.112 18.822 C 3.391 19.796,4.204 20.609,5.178 20.888 L 5.500 20.980 12.000 20.980 L 18.500 20.980 18.822 20.888 C 18.999 20.837,19.269 20.726,19.422 20.641 C 20.129 20.248,20.672 19.574,20.888 18.822 L 20.980 18.500 20.980 12.000 L 20.980 5.500 20.888 5.178 C 20.613 4.217,19.836 3.430,18.861 3.121 L 18.540 3.020 12.120 3.014 C 8.589 3.011,5.609 3.024,5.499 3.043 M18.548 4.605 C 18.946 4.772,19.228 5.054,19.395 5.452 L 19.500 5.700 19.500 12.000 L 19.500 18.300 19.395 18.548 C 19.228 18.946,18.946 19.228,18.548 19.395 L 18.300 19.500 12.000 19.500 L 5.700 19.500 5.452 19.395 C 5.054 19.228,4.772 18.946,4.605 18.548 L 4.500 18.300 4.489 12.202 C 4.482 8.554,4.493 5.995,4.516 5.833 C 4.536 5.684,4.597 5.467,4.651 5.351 C 4.846 4.932,5.310 4.589,5.774 4.520 C 5.887 4.503,8.752 4.491,12.140 4.495 L 18.300 4.500 18.548 4.605 M9.480 9.028 C 9.317 9.105,6.927 11.473,6.804 11.680 C 6.702 11.850,6.695 12.114,6.785 12.292 C 6.864 12.447,9.060 14.667,9.334 14.869 C 9.608 15.071,9.833 15.089,10.085 14.927 C 10.357 14.752,10.490 14.557,10.511 14.304 C 10.524 14.154,10.509 14.054,10.459 13.957 C 10.420 13.881,9.983 13.410,9.487 12.910 L 8.585 12.000 9.487 11.090 C 9.983 10.590,10.420 10.119,10.459 10.043 C 10.509 9.946,10.524 9.846,10.511 9.696 C 10.490 9.443,10.356 9.246,10.087 9.076 C 9.877 8.943,9.691 8.928,9.480 9.028 M13.915 9.073 C 13.514 9.331,13.370 9.710,13.545 10.050 C 13.581 10.121,14.017 10.590,14.513 11.090 L 15.415 12.000 14.513 12.910 C 14.017 13.410,13.581 13.880,13.543 13.953 C 13.365 14.299,13.529 14.701,13.946 14.946 C 14.197 15.093,14.409 15.065,14.690 14.847 C 14.995 14.612,17.137 12.443,17.215 12.292 C 17.298 12.128,17.298 11.872,17.215 11.708 C 17.136 11.553,14.940 9.333,14.666 9.131 C 14.392 8.929,14.167 8.911,13.915 9.073 " stroke="none" fill-rule="evenodd" fill="black"></path></svg>