<svg width="24" height="24" viewBox="0 0 24 24" fill="none" xmlns="http://www.w3.org/2000/svg"><path d="M11.146 2.284 C 10.538 2.373,9.935 2.856,9.722 3.424 C 9.676 3.547,9.594 3.898,9.541 4.203 C 9.487 4.509,9.425 4.794,9.402 4.836 C 9.301 5.025,8.998 5.159,8.790 5.106 C 8.741 5.093,8.493 4.936,8.240 4.757 C 7.693 4.368,7.451 4.253,7.075 4.199 C 6.711 4.148,6.346 4.205,6.001 4.367 C 5.785 4.469,5.633 4.597,5.116 5.115 C 4.593 5.638,4.469 5.785,4.356 6.018 C 4.233 6.272,4.219 6.336,4.206 6.726 C 4.184 7.378,4.208 7.437,4.973 8.554 C 5.139 8.795,5.158 8.946,5.050 9.157 C 4.935 9.382,4.825 9.432,4.214 9.539 C 3.542 9.657,3.268 9.752,3.005 9.960 C 2.595 10.284,2.352 10.693,2.282 11.181 C 2.230 11.540,2.230 12.460,2.282 12.820 C 2.377 13.483,2.863 14.082,3.482 14.301 C 3.580 14.335,3.912 14.408,4.220 14.462 C 4.825 14.568,4.936 14.619,5.050 14.843 C 5.155 15.049,5.138 15.205,4.987 15.426 C 4.914 15.533,4.738 15.791,4.595 16.000 C 4.253 16.502,4.187 16.718,4.206 17.274 C 4.219 17.664,4.233 17.728,4.356 17.982 C 4.469 18.215,4.593 18.362,5.116 18.885 C 5.633 19.403,5.785 19.531,6.001 19.633 C 6.346 19.795,6.711 19.852,7.075 19.801 C 7.451 19.747,7.693 19.632,8.240 19.243 C 8.493 19.064,8.741 18.907,8.790 18.894 C 8.998 18.841,9.301 18.975,9.402 19.164 C 9.425 19.206,9.487 19.491,9.541 19.797 C 9.657 20.458,9.753 20.733,9.960 20.995 C 10.284 21.405,10.693 21.648,11.181 21.718 C 11.538 21.770,12.458 21.770,12.820 21.719 C 13.475 21.626,14.084 21.132,14.301 20.518 C 14.335 20.420,14.409 20.079,14.463 19.760 C 14.558 19.209,14.570 19.174,14.698 19.052 C 14.838 18.921,15.052 18.854,15.210 18.894 C 15.259 18.907,15.507 19.064,15.760 19.243 C 16.307 19.632,16.549 19.747,16.925 19.801 C 17.289 19.852,17.654 19.795,17.999 19.633 C 18.215 19.531,18.367 19.402,18.885 18.885 C 19.411 18.358,19.531 18.216,19.645 17.980 C 19.777 17.706,19.780 17.689,19.780 17.180 C 19.780 16.693,19.773 16.646,19.669 16.435 C 19.608 16.311,19.414 16.005,19.238 15.755 C 19.061 15.505,18.907 15.259,18.894 15.210 C 18.854 15.052,18.921 14.838,19.052 14.698 C 19.174 14.570,19.209 14.558,19.760 14.463 C 20.079 14.409,20.420 14.335,20.518 14.301 C 20.946 14.150,21.345 13.784,21.559 13.347 C 21.705 13.049,21.758 12.694,21.758 12.000 C 21.758 11.306,21.705 10.951,21.559 10.653 C 21.345 10.216,20.946 9.850,20.518 9.699 C 20.420 9.665,20.088 9.592,19.780 9.538 C 19.175 9.432,19.064 9.381,18.950 9.157 C 18.842 8.946,18.861 8.795,19.027 8.554 C 19.793 7.434,19.819 7.373,19.792 6.726 C 19.776 6.347,19.760 6.269,19.642 6.020 C 19.529 5.781,19.418 5.648,18.885 5.115 C 18.367 4.598,18.215 4.469,17.999 4.367 C 17.654 4.205,17.289 4.148,16.925 4.199 C 16.549 4.253,16.307 4.368,15.760 4.757 C 15.507 4.936,15.259 5.093,15.210 5.106 C 15.052 5.146,14.838 5.079,14.698 4.948 C 14.570 4.826,14.558 4.791,14.463 4.240 C 14.409 3.921,14.335 3.580,14.301 3.482 C 14.082 2.863,13.483 2.377,12.820 2.282 C 12.488 2.234,11.478 2.235,11.146 2.284 M12.796 3.870 C 12.889 3.964,12.916 4.045,12.976 4.420 C 13.121 5.326,13.234 5.601,13.617 5.984 C 14.019 6.387,14.533 6.600,15.097 6.600 C 15.660 6.599,15.877 6.512,16.596 6.003 C 17.233 5.551,17.203 5.547,17.828 6.172 C 18.453 6.797,18.449 6.767,17.997 7.404 C 17.488 8.123,17.401 8.340,17.400 8.903 C 17.400 9.467,17.613 9.981,18.016 10.383 C 18.399 10.766,18.674 10.879,19.580 11.024 C 19.955 11.084,20.036 11.111,20.130 11.204 L 20.240 11.314 20.240 12.000 L 20.240 12.686 20.130 12.796 C 20.036 12.889,19.955 12.916,19.580 12.976 C 18.674 13.121,18.399 13.234,18.016 13.617 C 17.613 14.019,17.400 14.533,17.400 15.097 C 17.401 15.660,17.488 15.877,17.997 16.596 C 18.449 17.233,18.453 17.203,17.828 17.828 C 17.203 18.453,17.233 18.449,16.596 17.997 C 15.877 17.488,15.660 17.401,15.097 17.400 C 14.533 17.400,14.019 17.613,13.617 18.016 C 13.234 18.399,13.121 18.674,12.976 19.580 C 12.916 19.955,12.889 20.036,12.796 20.130 L 12.686 20.240 12.000 20.240 L 11.314 20.240 11.205 20.130 C 11.110 20.034,11.084 19.951,11.009 19.500 C 10.897 18.827,10.834 18.626,10.648 18.337 C 10.271 17.754,9.611 17.399,8.903 17.400 C 8.340 17.401,8.123 17.488,7.404 17.997 C 6.767 18.449,6.797 18.453,6.172 17.828 C 5.542 17.199,5.547 17.243,6.039 16.542 C 6.236 16.260,6.437 15.929,6.485 15.805 C 6.607 15.492,6.634 14.897,6.541 14.578 C 6.386 14.046,6.085 13.625,5.663 13.352 C 5.374 13.166,5.173 13.103,4.500 12.991 C 4.049 12.916,3.966 12.890,3.870 12.795 L 3.760 12.686 3.760 12.000 L 3.760 11.314 3.870 11.205 C 3.966 11.110,4.049 11.084,4.500 11.009 C 5.173 10.897,5.374 10.834,5.663 10.648 C 6.085 10.375,6.386 9.954,6.541 9.422 C 6.634 9.103,6.607 8.508,6.485 8.195 C 6.437 8.071,6.236 7.740,6.039 7.458 C 5.547 6.757,5.542 6.801,6.172 6.172 C 6.797 5.547,6.767 5.551,7.404 6.003 C 8.123 6.512,8.340 6.599,8.903 6.600 C 9.611 6.601,10.271 6.246,10.648 5.663 C 10.834 5.374,10.897 5.173,11.009 4.500 C 11.084 4.049,11.110 3.966,11.205 3.870 L 11.314 3.760 12.000 3.760 L 12.686 3.760 12.796 3.870 M11.595 8.282 C 10.585 8.392,9.634 8.924,9.031 9.719 C 8.793 10.032,8.468 10.687,8.382 11.025 C 8.231 11.624,8.231 12.376,8.382 12.975 C 8.468 13.313,8.793 13.968,9.031 14.281 C 9.397 14.763,9.848 15.118,10.452 15.400 C 11.040 15.675,11.707 15.785,12.365 15.717 C 12.846 15.668,13.150 15.586,13.548 15.400 C 14.403 15.001,14.954 14.460,15.361 13.620 C 15.584 13.161,15.664 12.879,15.717 12.365 C 15.785 11.707,15.675 11.040,15.400 10.452 C 14.960 9.510,14.272 8.867,13.293 8.485 C 12.852 8.312,12.122 8.225,11.595 8.282 M12.574 9.823 C 12.950 9.920,13.271 10.110,13.580 10.420 C 14.036 10.876,14.240 11.364,14.240 12.000 C 14.240 12.636,14.036 13.124,13.580 13.580 C 13.124 14.036,12.636 14.240,12.000 14.240 C 11.364 14.240,10.876 14.036,10.420 13.580 C 9.964 13.124,9.760 12.636,9.760 12.000 C 9.760 11.364,9.964 10.876,10.420 10.420 C 10.879 9.962,11.336 9.768,11.974 9.763 C 12.177 9.761,12.434 9.787,12.574 9.823 " stroke="none" fill-rule="evenodd" fill="black"></path></svg>