<svg width="24" height="24" viewBox="0 0 24 24" fill="none" xmlns="http://www.w3.org/2000/svg"><path d="M10.411 2.283 C 9.706 2.374,9.047 2.987,8.886 3.700 C 8.861 3.810,8.795 4.174,8.740 4.510 C 8.684 4.845,8.618 5.165,8.592 5.221 C 8.541 5.333,8.154 5.586,7.945 5.644 C 7.831 5.675,7.729 5.649,7.216 5.455 C 6.343 5.125,6.180 5.081,5.834 5.080 C 5.492 5.080,5.145 5.171,4.867 5.334 C 4.526 5.533,4.291 5.853,3.592 7.063 C 3.225 7.699,2.878 8.322,2.821 8.446 C 2.565 9.007,2.649 9.779,3.023 10.291 C 3.099 10.395,3.436 10.708,3.771 10.986 C 4.106 11.264,4.407 11.529,4.440 11.576 C 4.482 11.635,4.500 11.762,4.500 12.000 C 4.500 12.238,4.482 12.365,4.440 12.424 C 4.407 12.471,4.106 12.736,3.771 13.014 C 3.436 13.292,3.099 13.605,3.023 13.709 C 2.650 14.219,2.565 14.994,2.819 15.549 C 2.874 15.670,3.221 16.292,3.590 16.931 C 4.291 18.148,4.525 18.466,4.867 18.666 C 5.145 18.829,5.492 18.920,5.834 18.920 C 6.180 18.919,6.343 18.875,7.216 18.545 C 7.740 18.347,7.829 18.324,7.951 18.358 C 8.163 18.416,8.521 18.647,8.582 18.765 C 8.612 18.822,8.683 19.146,8.739 19.485 C 8.795 19.823,8.861 20.190,8.886 20.300 C 9.051 21.032,9.700 21.622,10.447 21.720 C 10.827 21.769,13.173 21.769,13.553 21.720 C 14.300 21.622,14.949 21.032,15.114 20.300 C 15.139 20.190,15.205 19.823,15.261 19.485 C 15.317 19.146,15.388 18.822,15.418 18.765 C 15.479 18.647,15.837 18.416,16.049 18.358 C 16.171 18.324,16.260 18.347,16.784 18.545 C 17.657 18.875,17.820 18.919,18.166 18.920 C 18.508 18.920,18.855 18.829,19.133 18.666 C 19.475 18.466,19.709 18.148,20.410 16.931 C 20.779 16.292,21.126 15.670,21.181 15.549 C 21.435 14.994,21.350 14.219,20.977 13.709 C 20.901 13.605,20.564 13.292,20.229 13.014 C 19.894 12.736,19.593 12.471,19.560 12.424 C 19.477 12.307,19.477 11.693,19.560 11.576 C 19.593 11.529,19.894 11.264,20.229 10.986 C 20.564 10.708,20.901 10.395,20.977 10.291 C 21.351 9.779,21.435 9.007,21.179 8.446 C 21.122 8.322,20.775 7.699,20.408 7.063 C 19.709 5.853,19.474 5.533,19.133 5.334 C 18.855 5.171,18.508 5.080,18.166 5.080 C 17.820 5.081,17.657 5.125,16.784 5.455 C 16.271 5.649,16.169 5.675,16.055 5.644 C 15.846 5.586,15.459 5.333,15.408 5.221 C 15.382 5.165,15.316 4.845,15.260 4.510 C 15.205 4.174,15.139 3.810,15.114 3.700 C 14.949 2.968,14.300 2.378,13.553 2.280 C 13.202 2.235,10.764 2.237,10.411 2.283 M13.541 3.850 C 13.637 3.933,13.658 4.010,13.784 4.760 C 13.900 5.445,13.945 5.627,14.060 5.864 C 14.233 6.219,14.528 6.518,14.960 6.775 C 15.527 7.112,15.994 7.219,16.483 7.123 C 16.619 7.096,17.042 6.958,17.424 6.817 C 17.805 6.676,18.153 6.560,18.198 6.560 C 18.242 6.560,18.333 6.610,18.398 6.670 C 18.522 6.784,19.782 8.933,19.824 9.103 C 19.875 9.305,19.807 9.391,19.190 9.902 C 18.548 10.433,18.375 10.616,18.213 10.935 C 17.929 11.494,17.930 12.509,18.216 13.071 C 18.375 13.384,18.551 13.569,19.190 14.098 C 19.807 14.609,19.875 14.695,19.824 14.897 C 19.782 15.067,18.522 17.216,18.398 17.330 C 18.333 17.391,18.244 17.440,18.201 17.440 C 18.159 17.440,17.810 17.324,17.426 17.183 C 16.616 16.884,16.334 16.820,15.982 16.852 C 15.648 16.884,15.353 16.991,14.960 17.225 C 14.528 17.482,14.233 17.781,14.060 18.136 C 13.945 18.373,13.900 18.555,13.784 19.240 C 13.658 19.990,13.637 20.067,13.541 20.150 C 13.436 20.240,13.433 20.240,12.000 20.240 C 10.567 20.240,10.564 20.240,10.459 20.150 C 10.363 20.067,10.342 19.990,10.216 19.240 C 10.100 18.555,10.055 18.373,9.940 18.136 C 9.767 17.781,9.472 17.482,9.040 17.225 C 8.647 16.991,8.352 16.884,8.018 16.852 C 7.666 16.820,7.384 16.884,6.574 17.183 C 6.190 17.324,5.841 17.440,5.799 17.440 C 5.756 17.440,5.667 17.390,5.602 17.330 C 5.478 17.216,4.218 15.067,4.176 14.897 C 4.125 14.695,4.193 14.609,4.810 14.098 C 5.452 13.567,5.625 13.384,5.787 13.065 C 6.071 12.506,6.070 11.491,5.784 10.929 C 5.625 10.616,5.449 10.431,4.810 9.902 C 4.192 9.390,4.125 9.306,4.176 9.101 C 4.219 8.930,5.477 6.785,5.602 6.670 C 5.667 6.610,5.758 6.560,5.802 6.560 C 5.847 6.560,6.195 6.676,6.576 6.817 C 6.958 6.958,7.381 7.096,7.517 7.123 C 8.006 7.219,8.473 7.112,9.040 6.775 C 9.472 6.518,9.767 6.219,9.940 5.864 C 10.055 5.627,10.100 5.445,10.216 4.760 C 10.342 4.010,10.363 3.933,10.459 3.850 C 10.564 3.760,10.567 3.760,12.000 3.760 C 13.433 3.760,13.436 3.760,13.541 3.850 M11.595 8.282 C 10.585 8.392,9.634 8.924,9.031 9.719 C 8.793 10.032,8.468 10.687,8.382 11.025 C 8.231 11.624,8.231 12.376,8.382 12.975 C 8.468 13.313,8.793 13.968,9.031 14.281 C 9.397 14.763,9.848 15.118,10.452 15.400 C 11.040 15.675,11.707 15.785,12.365 15.717 C 12.846 15.668,13.150 15.586,13.548 15.400 C 14.403 15.001,14.954 14.460,15.361 13.620 C 15.584 13.161,15.664 12.879,15.717 12.365 C 15.785 11.707,15.675 11.040,15.400 10.452 C 14.960 9.510,14.272 8.867,13.293 8.485 C 12.852 8.312,12.122 8.225,11.595 8.282 M12.574 9.823 C 12.950 9.920,13.271 10.110,13.580 10.420 C 14.036 10.876,14.240 11.364,14.240 12.000 C 14.240 12.636,14.036 13.124,13.580 13.580 C 13.124 14.036,12.636 14.240,12.000 14.240 C 11.364 14.240,10.876 14.036,10.420 13.580 C 9.964 13.124,9.760 12.636,9.760 12.000 C 9.760 11.364,9.964 10.876,10.420 10.420 C 10.879 9.962,11.336 9.768,11.974 9.763 C 12.177 9.761,12.434 9.787,12.574 9.823 " stroke="none" fill-rule="evenodd" fill="black"></path></svg>