<svg width="24" height="24" viewBox="0 0 24 24" fill="none" xmlns="http://www.w3.org/2000/svg"><path d="M10.100 2.460 C 9.898 2.531,9.732 2.714,9.697 2.902 C 9.673 3.027,9.752 3.669,9.826 3.949 C 9.844 4.021,9.817 4.041,9.614 4.100 C 9.485 4.137,9.203 4.238,8.986 4.324 C 8.769 4.410,8.576 4.480,8.558 4.480 C 8.539 4.480,8.449 4.349,8.357 4.190 C 7.984 3.540,7.875 3.440,7.540 3.441 C 7.392 3.441,7.287 3.471,7.134 3.559 C 6.844 3.725,6.740 3.884,6.740 4.160 C 6.740 4.356,6.767 4.427,6.980 4.800 C 7.112 5.031,7.220 5.230,7.220 5.243 C 7.220 5.256,7.040 5.411,6.820 5.589 C 6.600 5.766,6.376 5.958,6.323 6.016 C 6.270 6.073,6.210 6.120,6.191 6.120 C 6.171 6.120,6.008 5.996,5.828 5.845 C 5.429 5.511,5.296 5.440,5.068 5.440 C 4.743 5.440,4.371 5.811,4.330 6.177 C 4.302 6.431,4.436 6.636,4.855 6.980 C 5.043 7.134,5.197 7.272,5.198 7.288 C 5.199 7.303,5.104 7.474,4.986 7.668 C 4.868 7.861,4.721 8.119,4.661 8.240 C 4.600 8.361,4.546 8.465,4.541 8.471 C 4.536 8.477,4.326 8.408,4.076 8.318 C 3.517 8.116,3.277 8.113,3.074 8.303 C 2.904 8.463,2.789 8.734,2.786 8.987 C 2.781 9.337,2.960 9.507,3.554 9.720 C 3.746 9.789,3.927 9.860,3.957 9.878 C 4.001 9.905,3.995 9.985,3.927 10.325 C 3.882 10.553,3.832 10.853,3.817 10.990 L 3.790 11.240 3.365 11.241 C 2.697 11.243,2.486 11.319,2.330 11.619 C 2.240 11.794,2.248 12.237,2.344 12.402 C 2.509 12.684,2.718 12.755,3.390 12.758 C 3.796 12.760,3.800 12.761,3.800 12.856 C 3.800 12.936,3.854 13.264,3.989 14.005 C 4.007 14.104,3.990 14.116,3.662 14.235 C 3.230 14.391,3.089 14.462,2.949 14.593 C 2.680 14.845,2.741 15.379,3.076 15.697 C 3.276 15.887,3.517 15.884,4.076 15.682 C 4.326 15.592,4.536 15.523,4.541 15.529 C 4.546 15.535,4.600 15.639,4.661 15.760 C 4.721 15.881,4.868 16.139,4.986 16.332 C 5.104 16.526,5.199 16.697,5.198 16.712 C 5.196 16.728,5.042 16.866,4.854 17.020 C 4.436 17.364,4.302 17.569,4.330 17.823 C 4.371 18.189,4.743 18.560,5.068 18.560 C 5.296 18.560,5.429 18.489,5.828 18.155 C 6.008 18.004,6.171 17.880,6.191 17.880 C 6.210 17.880,6.270 17.927,6.323 17.984 C 6.376 18.042,6.600 18.234,6.820 18.411 C 7.040 18.589,7.220 18.744,7.220 18.757 C 7.220 18.770,7.112 18.969,6.980 19.200 C 6.767 19.573,6.740 19.644,6.740 19.840 C 6.740 20.116,6.844 20.275,7.134 20.441 C 7.287 20.529,7.392 20.559,7.540 20.559 C 7.875 20.560,7.984 20.460,8.357 19.810 C 8.449 19.651,8.540 19.520,8.561 19.520 C 8.582 19.520,8.774 19.590,8.989 19.675 C 9.204 19.760,9.485 19.860,9.614 19.897 C 9.820 19.956,9.845 19.975,9.826 20.049 C 9.750 20.338,9.673 20.972,9.698 21.103 C 9.756 21.412,10.066 21.599,10.520 21.600 C 10.947 21.600,11.103 21.407,11.218 20.740 C 11.255 20.520,11.294 20.313,11.303 20.280 C 11.316 20.230,11.429 20.220,12.000 20.220 C 12.571 20.220,12.684 20.230,12.699 20.280 C 12.708 20.313,12.746 20.511,12.781 20.720 C 12.898 21.407,13.051 21.600,13.480 21.600 C 13.934 21.599,14.244 21.412,14.302 21.103 C 14.326 20.974,14.243 20.269,14.175 20.032 C 14.160 19.978,14.204 19.950,14.388 19.897 C 14.516 19.860,14.798 19.759,15.015 19.673 C 15.232 19.587,15.427 19.522,15.447 19.529 C 15.467 19.536,15.597 19.730,15.736 19.961 C 16.034 20.456,16.159 20.560,16.456 20.560 C 16.608 20.559,16.712 20.529,16.866 20.441 C 17.156 20.275,17.260 20.116,17.260 19.840 C 17.260 19.644,17.233 19.573,17.020 19.200 C 16.888 18.969,16.780 18.770,16.780 18.757 C 16.780 18.744,16.960 18.589,17.180 18.411 C 17.400 18.234,17.624 18.042,17.677 17.984 C 17.730 17.927,17.790 17.880,17.809 17.880 C 17.829 17.880,17.992 18.004,18.172 18.155 C 18.571 18.489,18.704 18.560,18.932 18.560 C 19.257 18.560,19.629 18.189,19.670 17.823 C 19.699 17.567,19.562 17.358,19.145 17.018 C 18.957 16.865,18.803 16.728,18.802 16.712 C 18.801 16.697,18.896 16.526,19.014 16.332 C 19.132 16.139,19.279 15.881,19.339 15.760 C 19.400 15.639,19.454 15.535,19.459 15.529 C 19.464 15.523,19.674 15.592,19.924 15.682 C 20.483 15.884,20.724 15.887,20.924 15.697 C 21.259 15.379,21.320 14.845,21.051 14.593 C 20.911 14.462,20.770 14.391,20.338 14.235 C 20.010 14.116,19.993 14.104,20.011 14.005 C 20.146 13.264,20.200 12.936,20.200 12.856 C 20.200 12.761,20.204 12.760,20.610 12.758 C 21.282 12.755,21.491 12.684,21.656 12.402 C 21.762 12.221,21.761 11.783,21.653 11.576 C 21.524 11.326,21.351 11.264,20.735 11.246 L 20.209 11.231 20.182 10.986 C 20.167 10.850,20.118 10.553,20.073 10.325 C 20.005 9.985,19.999 9.905,20.043 9.878 C 20.073 9.860,20.254 9.789,20.446 9.720 C 21.040 9.507,21.219 9.337,21.214 8.987 C 21.211 8.734,21.096 8.463,20.926 8.303 C 20.723 8.113,20.483 8.116,19.924 8.318 C 19.674 8.408,19.464 8.477,19.459 8.471 C 19.454 8.465,19.392 8.344,19.321 8.203 C 19.250 8.062,19.104 7.805,18.996 7.633 C 18.888 7.462,18.801 7.307,18.802 7.290 C 18.804 7.274,18.958 7.134,19.146 6.980 C 19.564 6.636,19.698 6.431,19.670 6.177 C 19.629 5.811,19.257 5.440,18.932 5.440 C 18.704 5.440,18.571 5.511,18.172 5.845 C 17.992 5.996,17.834 6.120,17.820 6.120 C 17.807 6.120,17.648 5.989,17.468 5.829 C 17.288 5.669,17.054 5.477,16.949 5.402 C 16.844 5.327,16.763 5.255,16.769 5.242 C 16.775 5.230,16.888 5.031,17.020 4.800 C 17.233 4.427,17.260 4.356,17.260 4.160 C 17.260 3.884,17.156 3.725,16.866 3.559 C 16.713 3.471,16.608 3.441,16.460 3.441 C 16.125 3.440,16.016 3.540,15.643 4.190 C 15.551 4.350,15.459 4.480,15.439 4.480 C 15.418 4.480,15.252 4.419,15.070 4.344 C 14.889 4.269,14.609 4.168,14.449 4.119 C 14.220 4.050,14.161 4.017,14.176 3.966 C 14.243 3.729,14.326 3.026,14.302 2.897 C 14.244 2.588,13.934 2.401,13.480 2.400 C 13.051 2.400,12.898 2.593,12.781 3.280 C 12.746 3.489,12.708 3.687,12.699 3.720 C 12.684 3.770,12.571 3.780,12.000 3.780 C 11.429 3.780,11.316 3.770,11.303 3.720 C 11.294 3.687,11.255 3.480,11.218 3.260 C 11.101 2.582,10.948 2.399,10.500 2.402 C 10.368 2.403,10.188 2.429,10.100 2.460 M12.980 5.323 C 15.153 5.638,17.056 7.029,18.058 9.034 C 18.337 9.592,18.564 10.309,18.659 10.930 L 18.706 11.240 15.563 11.239 L 12.420 11.238 10.885 8.574 C 10.040 7.109,9.347 5.884,9.345 5.852 C 9.339 5.781,9.694 5.640,10.280 5.481 C 10.644 5.383,10.923 5.335,11.560 5.263 C 11.771 5.239,12.662 5.277,12.980 5.323 M9.560 9.268 C 10.407 10.735,11.100 11.964,11.100 11.999 C 11.100 12.086,8.029 17.400,7.978 17.400 C 7.956 17.400,7.776 17.259,7.578 17.087 C 6.516 16.159,5.804 15.001,5.462 13.640 C 5.312 13.044,5.267 12.668,5.267 12.000 C 5.267 10.288,5.826 8.819,6.978 7.503 C 7.237 7.207,7.909 6.600,7.978 6.600 C 8.001 6.600,8.713 7.801,9.560 9.268 M18.659 13.070 C 18.427 14.497,17.793 15.731,16.762 16.762 C 15.708 17.816,14.446 18.450,12.940 18.683 C 12.528 18.747,11.472 18.747,11.060 18.683 C 10.331 18.571,9.336 18.259,9.345 18.146 C 9.348 18.113,10.041 16.888,10.885 15.424 L 12.420 12.762 15.564 12.761 L 18.709 12.760 18.659 13.070 " stroke="none" fill-rule="evenodd" fill="black"></path></svg>