<svg width="24" height="24" viewBox="0 0 24 24" fill="none" xmlns="http://www.w3.org/2000/svg"><path d="M4.730 3.044 C 4.120 3.146,3.607 3.423,3.119 3.916 C 2.732 4.306,2.506 4.692,2.352 5.222 L 2.260 5.540 2.260 12.000 L 2.260 18.460 2.352 18.778 C 2.506 19.308,2.732 19.694,3.119 20.084 C 3.621 20.590,4.114 20.852,4.763 20.958 C 5.120 21.016,18.880 21.016,19.237 20.958 C 19.886 20.852,20.379 20.590,20.881 20.084 C 21.268 19.694,21.494 19.308,21.648 18.778 L 21.740 18.460 21.740 12.000 L 21.740 5.540 21.648 5.222 C 21.494 4.692,21.268 4.306,20.881 3.916 C 20.379 3.410,19.886 3.148,19.237 3.042 C 18.918 2.990,5.041 2.992,4.730 3.044 M18.960 4.522 C 19.472 4.603,19.892 4.920,20.113 5.391 L 20.220 5.620 20.220 12.001 L 20.220 18.382 20.089 18.648 C 19.864 19.105,19.467 19.397,18.960 19.478 C 18.602 19.535,5.401 19.535,5.040 19.478 C 4.528 19.397,4.108 19.080,3.887 18.609 L 3.780 18.380 3.780 12.000 L 3.780 5.620 3.887 5.391 C 4.101 4.935,4.528 4.603,5.000 4.525 C 5.319 4.473,18.631 4.470,18.960 4.522 M6.460 6.783 C 6.278 6.878,6.170 6.994,6.060 7.215 C 5.939 7.458,5.934 7.593,6.041 7.802 C 6.106 7.930,6.355 8.136,7.301 8.846 C 7.950 9.332,8.479 9.741,8.478 9.755 C 8.478 9.769,7.981 10.149,7.375 10.600 C 6.770 11.051,6.213 11.486,6.139 11.568 C 5.884 11.847,5.913 12.170,6.224 12.515 C 6.441 12.758,6.630 12.827,6.882 12.759 C 6.993 12.730,7.524 12.357,8.572 11.573 C 9.412 10.944,10.160 10.374,10.234 10.305 C 10.522 10.035,10.603 9.657,10.430 9.396 C 10.331 9.248,7.291 6.935,7.017 6.800 C 6.823 6.704,6.623 6.698,6.460 6.783 M11.027 11.278 C 10.666 11.350,10.510 11.591,10.528 12.047 C 10.542 12.392,10.608 12.521,10.844 12.660 C 10.975 12.737,11.052 12.740,12.760 12.740 C 14.520 12.740,14.542 12.739,14.680 12.653 C 14.904 12.513,14.980 12.349,14.980 12.000 C 14.980 11.651,14.904 11.487,14.680 11.347 C 14.542 11.261,14.511 11.260,12.860 11.253 C 11.936 11.250,11.111 11.261,11.027 11.278 " stroke="none" fill-rule="evenodd" fill="black"></path></svg>