<svg width="24" height="24" viewBox="0 0 24 24" fill="none" xmlns="http://www.w3.org/2000/svg"><path d="M4.872 2.281 C 3.644 2.427,2.615 3.349,2.331 4.558 C 2.265 4.839,2.260 5.227,2.260 10.160 L 2.260 15.460 2.352 15.778 C 2.506 16.308,2.732 16.694,3.119 17.084 C 3.621 17.590,4.114 17.852,4.763 17.958 C 4.911 17.982,5.704 18.000,6.630 18.000 L 8.240 18.000 8.240 18.292 C 8.240 18.965,8.059 19.335,7.391 20.027 C 6.801 20.639,6.720 20.755,6.720 20.993 C 6.720 21.194,6.763 21.290,6.935 21.473 C 7.205 21.762,6.803 21.739,11.820 21.752 C 14.306 21.759,16.452 21.753,16.589 21.739 C 17.010 21.696,17.197 21.509,17.232 21.094 C 17.261 20.750,17.198 20.640,16.626 20.046 C 16.072 19.471,15.938 19.266,15.820 18.815 C 15.787 18.687,15.760 18.452,15.760 18.292 L 15.760 18.000 17.370 18.000 C 18.296 18.000,19.089 17.982,19.237 17.958 C 19.886 17.852,20.379 17.590,20.881 17.084 C 21.268 16.694,21.494 16.308,21.648 15.778 L 21.740 15.460 21.740 10.160 C 21.740 5.227,21.735 4.839,21.669 4.558 C 21.421 3.502,20.597 2.652,19.526 2.348 L 19.220 2.261 12.180 2.255 C 8.308 2.252,5.020 2.264,4.872 2.281 M19.369 3.888 C 19.663 4.025,19.975 4.337,20.112 4.631 L 20.220 4.860 20.220 8.621 L 20.220 12.382 20.089 12.648 C 19.864 13.105,19.467 13.397,18.960 13.478 C 18.602 13.535,5.401 13.535,5.040 13.478 C 4.528 13.397,4.108 13.080,3.887 12.609 L 3.780 12.380 3.769 8.682 C 3.758 4.608,3.746 4.816,4.006 4.423 C 4.166 4.181,4.423 3.975,4.709 3.857 L 4.940 3.761 12.040 3.771 L 19.140 3.780 19.369 3.888 M4.500 14.908 C 4.764 14.976,5.181 14.980,12.000 14.980 C 18.819 14.980,19.236 14.976,19.500 14.908 C 19.654 14.869,19.885 14.785,20.014 14.723 L 20.247 14.610 20.234 14.996 C 20.222 15.336,20.204 15.414,20.089 15.648 C 19.864 16.105,19.467 16.397,18.960 16.478 C 18.602 16.535,5.401 16.535,5.040 16.478 C 4.528 16.397,4.108 16.080,3.887 15.609 C 3.800 15.422,3.778 15.310,3.767 14.995 L 3.753 14.610 3.986 14.723 C 4.115 14.785,4.346 14.869,4.500 14.908 M14.259 18.390 C 14.302 19.027,14.458 19.560,14.791 20.210 C 14.800 20.227,13.544 20.240,12.000 20.240 C 10.456 20.240,9.200 20.227,9.209 20.210 C 9.542 19.560,9.698 19.027,9.741 18.390 L 9.767 18.000 12.000 18.000 L 14.233 18.000 14.259 18.390 " stroke="none" fill-rule="evenodd" fill="black"></path></svg>