<svg width="24" height="24" viewBox="0 0 24 24" fill="none" xmlns="http://www.w3.org/2000/svg"><path d="M8.033 2.277 C 7.851 2.314,7.702 2.409,7.611 2.549 C 7.555 2.633,7.536 2.772,7.520 3.198 L 7.500 3.740 6.820 3.764 C 6.041 3.792,5.727 3.872,5.220 4.169 C 4.861 4.379,4.379 4.861,4.169 5.220 C 3.872 5.727,3.792 6.041,3.764 6.820 L 3.740 7.500 3.193 7.520 C 2.587 7.542,2.498 7.576,2.343 7.839 C 2.228 8.036,2.236 8.499,2.357 8.695 C 2.505 8.934,2.627 8.976,3.230 8.993 L 3.760 9.008 3.760 10.119 L 3.760 11.229 3.245 11.248 C 2.687 11.268,2.548 11.313,2.390 11.525 C 2.222 11.751,2.222 12.249,2.390 12.475 C 2.548 12.687,2.687 12.732,3.245 12.752 L 3.760 12.771 3.760 13.881 L 3.760 14.992 3.230 15.007 C 2.627 15.024,2.505 15.066,2.357 15.305 C 2.236 15.501,2.228 15.964,2.343 16.161 C 2.498 16.424,2.587 16.458,3.193 16.480 L 3.740 16.500 3.764 17.180 C 3.792 17.959,3.872 18.273,4.169 18.780 C 4.379 19.139,4.861 19.621,5.220 19.831 C 5.727 20.128,6.041 20.208,6.820 20.236 L 7.500 20.260 7.520 20.807 C 7.537 21.282,7.551 21.369,7.624 21.467 C 7.770 21.663,7.938 21.733,8.258 21.733 C 8.593 21.733,8.757 21.658,8.893 21.440 C 8.969 21.318,8.982 21.231,8.994 20.770 L 9.008 20.240 10.119 20.240 L 11.229 20.240 11.248 20.755 C 11.268 21.313,11.313 21.452,11.525 21.610 C 11.751 21.778,12.249 21.778,12.475 21.610 C 12.687 21.452,12.732 21.313,12.752 20.755 L 12.771 20.240 13.881 20.240 L 14.992 20.240 15.007 20.770 C 15.024 21.371,15.066 21.495,15.301 21.641 C 15.496 21.761,15.968 21.770,16.161 21.656 C 16.424 21.502,16.458 21.413,16.480 20.807 L 16.500 20.260 17.180 20.236 C 17.959 20.208,18.273 20.128,18.780 19.831 C 19.139 19.621,19.621 19.139,19.831 18.780 C 20.128 18.273,20.208 17.959,20.236 17.180 L 20.260 16.500 20.807 16.480 C 21.413 16.458,21.502 16.424,21.656 16.161 C 21.766 15.974,21.761 15.496,21.647 15.312 C 21.496 15.068,21.364 15.022,20.770 15.006 L 20.240 14.992 20.240 13.881 L 20.240 12.771 20.755 12.752 C 21.313 12.732,21.452 12.687,21.610 12.475 C 21.716 12.333,21.765 12.042,21.723 11.815 C 21.682 11.597,21.581 11.449,21.401 11.343 C 21.296 11.282,21.167 11.263,20.755 11.248 L 20.240 11.229 20.240 10.119 L 20.240 9.008 20.770 8.994 C 21.364 8.978,21.496 8.932,21.647 8.688 C 21.761 8.504,21.766 8.026,21.656 7.839 C 21.502 7.576,21.413 7.542,20.807 7.520 L 20.260 7.500 20.236 6.820 C 20.208 6.041,20.128 5.727,19.831 5.220 C 19.621 4.861,19.139 4.379,18.780 4.169 C 18.273 3.872,17.959 3.792,17.180 3.764 L 16.500 3.740 16.480 3.193 C 16.458 2.587,16.424 2.498,16.161 2.344 C 15.968 2.230,15.496 2.239,15.301 2.359 C 15.066 2.505,15.024 2.629,15.007 3.230 L 14.992 3.760 13.881 3.760 L 12.771 3.760 12.752 3.245 C 12.737 2.833,12.718 2.704,12.657 2.599 C 12.551 2.419,12.403 2.318,12.185 2.277 C 11.958 2.235,11.667 2.284,11.525 2.390 C 11.313 2.548,11.268 2.687,11.248 3.245 L 11.229 3.760 10.119 3.760 L 9.008 3.760 8.994 3.230 C 8.979 2.645,8.925 2.489,8.693 2.354 C 8.555 2.275,8.232 2.236,8.033 2.277 M17.760 5.331 C 18.167 5.492,18.527 5.861,18.669 6.260 C 18.736 6.448,18.740 6.795,18.740 11.980 C 18.740 16.612,18.731 17.531,18.684 17.694 C 18.570 18.086,18.173 18.502,17.750 18.672 C 17.593 18.735,17.172 18.740,12.020 18.740 C 6.797 18.740,6.448 18.736,6.260 18.669 C 5.861 18.527,5.492 18.167,5.331 17.760 C 5.264 17.591,5.259 17.249,5.249 12.144 C 5.242 8.569,5.252 6.631,5.279 6.486 C 5.389 5.893,5.869 5.397,6.445 5.283 C 6.541 5.264,9.086 5.251,12.100 5.254 C 17.254 5.260,17.591 5.264,17.760 5.331 M7.092 6.843 C 6.972 6.903,6.901 6.975,6.842 7.096 C 6.761 7.264,6.760 7.308,6.760 12.000 C 6.760 16.699,6.761 16.736,6.842 16.905 C 6.902 17.029,6.971 17.098,7.095 17.158 C 7.264 17.239,7.301 17.240,12.000 17.240 C 16.699 17.240,16.736 17.239,16.905 17.158 C 17.029 17.098,17.098 17.029,17.158 16.905 C 17.239 16.736,17.240 16.699,17.240 12.000 C 17.240 7.301,17.239 7.264,17.158 7.095 C 17.098 6.971,17.029 6.902,16.905 6.842 C 16.736 6.761,16.699 6.760,11.997 6.760 C 7.281 6.760,7.259 6.760,7.092 6.843 M15.760 12.000 L 15.760 15.760 12.000 15.760 L 8.240 15.760 8.240 12.000 L 8.240 8.240 12.000 8.240 L 15.760 8.240 15.760 12.000 " stroke="none" fill-rule="evenodd" fill="black"></path></svg>