<svg width="24" height="24" viewBox="0 0 24 24" fill="none" xmlns="http://www.w3.org/2000/svg"><path d="M3.860 3.819 C 2.989 4.012,2.227 4.607,1.824 5.408 C 1.503 6.048,1.521 5.644,1.521 12.000 C 1.521 18.361,1.502 17.949,1.827 18.600 C 1.986 18.917,2.076 19.039,2.378 19.340 C 2.783 19.743,3.104 19.949,3.580 20.111 L 3.900 20.220 12.000 20.220 L 20.100 20.220 20.420 20.111 C 20.896 19.949,21.217 19.743,21.622 19.340 C 21.924 19.039,22.014 18.917,22.173 18.600 C 22.498 17.949,22.479 18.361,22.479 12.000 C 22.479 5.639,22.498 6.051,22.173 5.400 C 22.014 5.083,21.924 4.961,21.622 4.660 C 21.217 4.257,20.896 4.051,20.420 3.889 L 20.100 3.780 12.100 3.773 C 5.569 3.767,4.056 3.776,3.860 3.819 M20.048 5.352 C 20.314 5.460,20.640 5.738,20.781 5.978 C 20.951 6.267,20.999 6.501,21.000 7.030 L 21.000 7.520 11.996 7.520 L 2.992 7.520 3.006 6.950 C 3.019 6.432,3.030 6.359,3.127 6.151 C 3.333 5.711,3.753 5.372,4.202 5.283 C 4.301 5.264,7.784 5.251,12.100 5.254 L 19.820 5.260 20.048 5.352 M21.000 13.610 C 20.999 17.784,21.006 17.637,20.781 18.022 C 20.640 18.262,20.314 18.540,20.048 18.648 L 19.820 18.740 12.000 18.740 L 4.180 18.740 3.950 18.647 C 3.629 18.518,3.313 18.217,3.151 17.888 L 3.020 17.622 3.009 13.691 L 2.998 9.760 11.999 9.760 L 21.000 9.760 21.000 13.610 M4.843 13.590 C 4.613 13.707,4.542 13.843,4.526 14.200 C 4.514 14.466,4.525 14.538,4.600 14.671 C 4.648 14.757,4.744 14.862,4.814 14.904 C 4.935 14.977,5.063 14.980,8.240 14.980 C 11.487 14.980,11.542 14.979,11.679 14.899 C 11.898 14.769,11.980 14.591,11.980 14.240 C 11.980 13.886,11.907 13.732,11.678 13.604 C 11.530 13.521,11.504 13.520,8.255 13.520 C 5.216 13.520,4.970 13.525,4.843 13.590 M4.852 15.838 C 4.623 15.942,4.520 16.148,4.520 16.500 C 4.520 16.852,4.623 17.058,4.852 17.162 C 5.009 17.233,5.135 17.238,6.720 17.239 C 7.719 17.239,8.479 17.223,8.562 17.200 C 9.146 17.038,9.146 15.962,8.562 15.800 C 8.479 15.777,7.719 15.761,6.720 15.761 C 5.135 15.762,5.009 15.767,4.852 15.838 " stroke="none" fill-rule="evenodd" fill="black"></path></svg>