<svg width="24" height="24" viewBox="0 0 24 24" fill="none" xmlns="http://www.w3.org/2000/svg"><path d="M11.860 1.519 C 11.699 1.555,12.064 1.347,7.240 4.160 C 4.875 5.540,2.851 6.707,2.741 6.756 C 2.497 6.863,2.414 6.937,2.314 7.132 C 2.238 7.280,2.236 7.407,2.239 11.884 C 2.241 14.883,2.256 16.551,2.283 16.677 C 2.309 16.797,2.369 16.915,2.442 16.990 C 2.507 17.056,4.544 18.267,6.970 19.680 C 9.395 21.094,11.416 22.282,11.460 22.321 C 11.609 22.451,11.795 22.520,12.000 22.520 C 12.205 22.520,12.391 22.451,12.540 22.321 C 12.584 22.282,14.605 21.094,17.030 19.680 C 19.456 18.267,21.493 17.056,21.558 16.990 C 21.631 16.915,21.691 16.797,21.717 16.677 C 21.744 16.551,21.759 14.883,21.761 11.884 C 21.764 7.407,21.762 7.280,21.686 7.132 C 21.586 6.937,21.503 6.863,21.259 6.756 C 21.149 6.707,19.125 5.539,16.760 4.160 C 14.395 2.781,12.406 1.625,12.340 1.592 C 12.181 1.512,12.007 1.485,11.860 1.519 M15.735 5.293 C 17.778 6.486,19.449 7.480,19.448 7.501 C 19.446 7.523,17.770 8.517,15.723 9.712 L 12.000 11.883 8.270 9.707 C 6.219 8.511,4.542 7.516,4.545 7.497 C 4.549 7.466,11.952 3.123,12.000 3.123 C 12.011 3.123,13.692 4.100,15.735 5.293 M7.526 11.007 L 11.240 13.173 11.240 16.809 C 11.240 19.708,11.230 20.438,11.190 20.414 C 11.162 20.396,9.484 19.416,7.460 18.235 L 3.780 16.088 3.770 12.464 C 3.764 10.471,3.771 8.840,3.785 8.840 C 3.800 8.840,5.483 9.815,7.526 11.007 M20.230 12.464 L 20.220 16.088 16.540 18.235 C 14.516 19.416,12.838 20.396,12.810 20.414 C 12.770 20.438,12.760 19.708,12.760 16.809 L 12.760 13.173 16.470 11.008 C 18.511 9.817,20.194 8.842,20.210 8.841 C 20.227 8.840,20.236 10.471,20.230 12.464 " stroke="none" fill-rule="evenodd" fill="black"></path></svg>