<svg width="24" height="24" viewBox="0 0 24 24" fill="none" xmlns="http://www.w3.org/2000/svg"><path d="M11.860 1.519 C 11.707 1.554,11.741 1.535,10.440 2.292 C 9.105 3.069,9.128 3.053,9.036 3.256 C 8.933 3.483,8.941 3.589,9.083 3.873 C 9.274 4.256,9.536 4.404,9.861 4.315 C 9.949 4.291,10.466 4.011,11.010 3.694 L 12.000 3.117 12.990 3.694 C 13.535 4.011,14.051 4.291,14.139 4.315 C 14.469 4.405,14.729 4.254,14.924 3.859 C 15.023 3.656,15.045 3.569,15.027 3.455 C 14.975 3.134,14.889 3.066,13.595 2.315 C 12.927 1.927,12.344 1.592,12.300 1.570 C 12.177 1.510,11.992 1.489,11.860 1.519 M5.018 5.475 C 4.930 5.515,4.426 5.800,3.898 6.109 C 3.371 6.417,2.851 6.708,2.741 6.756 C 2.495 6.864,2.414 6.937,2.310 7.139 C 2.233 7.290,2.229 7.364,2.236 8.499 C 2.243 9.863,2.257 10.034,2.376 10.212 C 2.514 10.418,2.690 10.486,3.047 10.472 C 3.392 10.458,3.522 10.391,3.658 10.158 C 3.723 10.047,3.739 9.928,3.753 9.430 C 3.766 8.965,3.781 8.840,3.822 8.855 C 3.850 8.866,4.122 9.021,4.427 9.199 C 5.051 9.564,5.205 9.623,5.426 9.582 C 5.768 9.518,6.109 8.948,6.008 8.610 C 5.942 8.391,5.774 8.251,5.125 7.872 C 4.809 7.687,4.552 7.519,4.554 7.498 C 4.556 7.477,4.815 7.310,5.129 7.126 C 5.443 6.943,5.759 6.736,5.831 6.668 C 6.097 6.413,6.090 6.061,5.809 5.694 C 5.589 5.406,5.329 5.334,5.018 5.475 M18.455 5.458 C 18.297 5.526,18.053 5.842,17.997 6.052 C 17.890 6.449,18.056 6.654,18.871 7.128 C 19.185 7.311,19.444 7.477,19.446 7.498 C 19.448 7.519,19.191 7.686,18.875 7.870 C 18.056 8.346,17.890 8.550,17.997 8.948 C 18.055 9.164,18.299 9.475,18.464 9.544 C 18.738 9.659,18.863 9.618,19.636 9.163 C 19.901 9.006,20.143 8.869,20.174 8.857 C 20.220 8.839,20.233 8.940,20.247 9.430 C 20.261 9.928,20.277 10.047,20.342 10.158 C 20.478 10.391,20.608 10.458,20.953 10.472 C 21.310 10.486,21.486 10.418,21.624 10.212 C 21.743 10.034,21.757 9.863,21.764 8.499 C 21.771 7.364,21.767 7.290,21.690 7.139 C 21.586 6.937,21.505 6.864,21.259 6.756 C 21.149 6.708,20.629 6.417,20.102 6.109 C 19.574 5.800,19.070 5.515,18.982 5.475 C 18.790 5.388,18.627 5.383,18.455 5.458 M9.507 10.698 C 9.299 10.772,9.220 10.852,9.080 11.133 C 8.940 11.412,8.933 11.517,9.038 11.749 C 9.127 11.944,9.150 11.959,10.387 12.677 L 11.233 13.168 11.247 14.214 C 11.259 15.174,11.267 15.271,11.340 15.396 C 11.449 15.581,11.596 15.682,11.815 15.723 C 12.182 15.792,12.499 15.669,12.660 15.396 C 12.733 15.271,12.741 15.174,12.753 14.214 L 12.767 13.168 13.789 12.574 C 14.876 11.942,14.976 11.859,15.027 11.545 C 15.045 11.431,15.023 11.344,14.924 11.141 C 14.729 10.746,14.469 10.595,14.139 10.685 C 14.051 10.709,13.535 10.989,12.990 11.306 L 12.000 11.883 11.010 11.306 C 10.180 10.822,9.801 10.633,9.680 10.642 C 9.669 10.643,9.591 10.668,9.507 10.698 M2.603 13.588 C 2.424 13.682,2.319 13.830,2.277 14.046 C 2.228 14.300,2.232 16.439,2.282 16.673 C 2.309 16.797,2.368 16.914,2.443 16.990 C 2.576 17.127,4.846 18.463,5.098 18.554 C 5.351 18.645,5.545 18.591,5.750 18.371 C 6.083 18.014,6.116 17.605,5.831 17.332 C 5.759 17.263,5.268 16.955,4.740 16.647 L 3.780 16.088 3.760 15.034 C 3.742 14.073,3.733 13.968,3.660 13.844 C 3.521 13.608,3.392 13.542,3.047 13.528 C 2.811 13.519,2.708 13.533,2.603 13.588 M20.641 13.563 C 20.507 13.619,20.405 13.715,20.326 13.860 C 20.272 13.959,20.258 14.162,20.241 15.034 L 20.220 16.088 19.260 16.646 C 18.691 16.977,18.240 17.266,18.153 17.357 C 17.900 17.621,17.911 17.939,18.185 18.298 C 18.404 18.585,18.652 18.663,18.949 18.539 C 19.234 18.420,21.441 17.109,21.558 16.990 C 21.745 16.798,21.768 16.592,21.753 15.209 C 21.741 14.065,21.734 13.971,21.660 13.844 C 21.520 13.607,21.393 13.542,21.047 13.531 C 20.878 13.525,20.695 13.540,20.641 13.563 M11.660 18.808 C 11.336 18.922,11.271 19.081,11.243 19.825 L 11.220 20.431 10.640 20.089 C 9.969 19.695,9.777 19.622,9.559 19.680 C 9.341 19.739,9.220 19.852,9.083 20.127 C 8.941 20.411,8.933 20.517,9.036 20.744 C 9.128 20.946,9.116 20.938,10.360 21.659 C 10.921 21.985,11.416 22.282,11.460 22.321 C 11.702 22.532,12.080 22.583,12.359 22.441 C 12.445 22.397,12.525 22.345,12.537 22.325 C 12.549 22.306,13.065 21.995,13.685 21.635 C 14.883 20.938,14.975 20.863,15.027 20.545 C 15.045 20.431,15.023 20.344,14.924 20.141 C 14.782 19.854,14.662 19.740,14.441 19.680 C 14.223 19.622,14.031 19.695,13.360 20.089 L 12.780 20.431 12.757 19.825 C 12.733 19.201,12.698 19.058,12.534 18.916 C 12.364 18.768,11.927 18.715,11.660 18.808 " stroke="none" fill-rule="evenodd" fill="black"></path></svg>