<svg width="24" height="24" viewBox="0 0 24 24" fill="none" xmlns="http://www.w3.org/2000/svg"><path d="M11.320 2.280 C 9.441 2.407,7.648 3.082,6.084 4.252 C 5.591 4.620,4.620 5.591,4.252 6.084 C 3.226 7.456,2.607 8.935,2.357 10.608 C 2.238 11.410,2.238 12.590,2.357 13.392 C 2.607 15.065,3.226 16.544,4.252 17.916 C 4.620 18.409,5.591 19.380,6.084 19.748 C 7.457 20.775,8.938 21.395,10.608 21.642 C 11.784 21.817,13.262 21.739,14.412 21.442 C 15.680 21.115,16.841 20.553,17.916 19.748 C 18.409 19.379,19.379 18.409,19.748 17.916 C 20.773 16.548,21.395 15.063,21.642 13.392 C 21.761 12.591,21.761 11.409,21.642 10.608 C 21.395 8.937,20.773 7.452,19.748 6.084 C 19.379 5.591,18.409 4.621,17.916 4.252 C 16.786 3.406,15.392 2.757,14.120 2.486 C 13.247 2.300,12.184 2.222,11.320 2.280 M13.180 3.838 C 14.600 4.049,15.862 4.579,17.009 5.445 C 17.434 5.766,18.234 6.566,18.555 6.991 C 20.636 9.747,20.811 13.444,18.999 16.366 C 18.375 17.371,17.371 18.375,16.366 18.999 C 13.687 20.661,10.313 20.661,7.634 18.999 C 6.629 18.375,5.625 17.371,5.001 16.366 C 3.491 13.931,3.342 10.873,4.609 8.343 C 5.042 7.479,5.477 6.878,6.177 6.177 C 7.056 5.299,8.001 4.686,9.125 4.266 C 10.372 3.800,11.867 3.642,13.180 3.838 M8.739 6.792 C 8.355 6.973,8.157 7.301,8.244 7.617 C 8.268 7.701,8.806 8.550,9.441 9.502 L 10.596 11.233 9.668 11.246 C 8.826 11.259,8.727 11.267,8.604 11.340 C 8.331 11.501,8.208 11.818,8.277 12.185 C 8.318 12.404,8.419 12.551,8.604 12.660 C 8.731 12.735,8.825 12.741,9.990 12.753 L 11.240 12.766 11.240 13.500 L 11.240 14.234 9.990 14.247 C 8.825 14.259,8.731 14.265,8.604 14.340 C 8.331 14.501,8.208 14.818,8.277 15.185 C 8.318 15.404,8.419 15.551,8.604 15.660 C 8.731 15.735,8.825 15.741,9.986 15.753 L 11.232 15.766 11.246 16.653 C 11.259 17.502,11.264 17.546,11.354 17.691 C 11.490 17.910,11.643 17.978,12.000 17.979 C 12.346 17.980,12.526 17.897,12.659 17.673 C 12.730 17.553,12.740 17.450,12.754 16.653 L 12.769 15.766 14.014 15.753 C 15.175 15.741,15.269 15.735,15.396 15.660 C 15.669 15.499,15.792 15.182,15.723 14.815 C 15.682 14.596,15.581 14.449,15.396 14.340 C 15.269 14.265,15.175 14.259,14.010 14.247 L 12.760 14.234 12.760 13.500 L 12.760 12.766 14.010 12.753 C 15.175 12.741,15.269 12.735,15.396 12.660 C 15.581 12.551,15.682 12.404,15.723 12.185 C 15.792 11.818,15.669 11.501,15.396 11.340 C 15.273 11.267,15.174 11.259,14.333 11.246 L 13.405 11.233 14.561 9.498 C 15.201 8.537,15.734 7.696,15.757 7.611 C 15.818 7.386,15.746 7.172,15.550 6.991 C 15.248 6.712,14.870 6.648,14.611 6.832 C 14.548 6.877,13.940 7.751,13.259 8.775 C 12.577 9.800,12.011 10.638,12.000 10.638 C 11.989 10.638,11.423 9.800,10.741 8.775 C 10.045 7.728,9.452 6.877,9.386 6.830 C 9.224 6.715,8.940 6.698,8.739 6.792 " stroke="none" fill-rule="evenodd" fill="black"></path></svg>