<svg width="24" height="24" viewBox="0 0 24 24" fill="none" xmlns="http://www.w3.org/2000/svg"><path d="M11.320 2.280 C 9.441 2.407,7.648 3.082,6.084 4.252 C 5.591 4.620,4.620 5.591,4.252 6.084 C 3.226 7.456,2.607 8.935,2.357 10.608 C 2.238 11.410,2.238 12.590,2.357 13.392 C 2.607 15.065,3.226 16.544,4.252 17.916 C 4.620 18.409,5.591 19.380,6.084 19.748 C 7.457 20.775,8.938 21.395,10.608 21.642 C 11.784 21.817,13.262 21.739,14.412 21.442 C 15.680 21.115,16.841 20.553,17.916 19.748 C 18.409 19.379,19.379 18.409,19.748 17.916 C 20.773 16.548,21.395 15.063,21.642 13.392 C 21.761 12.591,21.761 11.409,21.642 10.608 C 21.395 8.937,20.773 7.452,19.748 6.084 C 19.379 5.591,18.409 4.621,17.916 4.252 C 16.786 3.406,15.392 2.757,14.120 2.486 C 13.247 2.300,12.184 2.222,11.320 2.280 M13.180 3.838 C 14.600 4.049,15.862 4.579,17.009 5.445 C 17.434 5.766,18.234 6.566,18.555 6.991 C 20.636 9.747,20.811 13.444,18.999 16.366 C 18.375 17.371,17.371 18.375,16.366 18.999 C 13.687 20.661,10.313 20.661,7.634 18.999 C 6.629 18.375,5.625 17.371,5.001 16.366 C 3.491 13.931,3.342 10.873,4.609 8.343 C 5.042 7.479,5.477 6.878,6.177 6.177 C 7.056 5.299,8.001 4.686,9.125 4.266 C 10.372 3.800,11.867 3.642,13.180 3.838 M8.603 7.590 C 8.421 7.683,8.319 7.829,8.276 8.060 C 8.207 8.430,8.329 8.777,8.574 8.911 C 8.681 8.969,8.867 8.983,9.840 9.002 C 10.879 9.023,11.001 9.032,11.217 9.112 C 11.728 9.300,12.179 9.673,12.458 10.138 C 12.707 10.554,12.883 10.516,10.623 10.529 C 8.684 10.540,8.644 10.542,8.533 10.624 C 8.337 10.770,8.267 10.938,8.267 11.260 C 8.267 11.490,8.285 11.579,8.357 11.695 C 8.537 11.987,8.472 11.979,10.650 11.991 C 12.006 11.999,12.600 12.016,12.600 12.046 C 12.600 12.069,12.542 12.199,12.470 12.333 C 12.304 12.644,11.886 13.064,11.579 13.226 C 11.119 13.469,11.000 13.489,9.840 13.509 C 8.817 13.527,8.774 13.531,8.617 13.621 C 8.436 13.726,8.265 13.955,8.222 14.151 C 8.158 14.441,8.197 14.487,9.935 16.233 C 10.840 17.142,11.647 17.920,11.728 17.963 C 11.916 18.061,12.083 18.061,12.272 17.964 C 12.597 17.796,12.830 17.431,12.780 17.166 C 12.738 16.942,12.579 16.753,11.683 15.860 C 11.219 15.399,10.840 15.009,10.840 14.996 C 10.840 14.982,10.950 14.958,11.083 14.943 C 11.635 14.880,12.356 14.560,12.862 14.153 C 13.151 13.921,13.496 13.529,13.698 13.205 C 13.844 12.971,14.056 12.469,14.117 12.214 L 14.166 12.007 14.733 11.994 C 15.368 11.978,15.494 11.936,15.647 11.688 C 15.761 11.504,15.766 11.026,15.656 10.839 C 15.500 10.572,15.417 10.542,14.771 10.520 L 14.188 10.500 14.081 10.160 C 13.969 9.805,13.800 9.447,13.624 9.188 C 13.567 9.105,13.520 9.029,13.520 9.021 C 13.520 9.012,13.921 9.000,14.410 8.993 C 15.216 8.981,15.313 8.972,15.433 8.900 C 15.650 8.769,15.729 8.600,15.731 8.263 C 15.733 7.936,15.665 7.772,15.467 7.624 C 15.355 7.540,15.339 7.540,12.047 7.530 C 8.959 7.520,8.731 7.524,8.603 7.590 " stroke="none" fill-rule="evenodd" fill="black"></path></svg>