<svg width="24" height="24" viewBox="0 0 24 24" fill="none" xmlns="http://www.w3.org/2000/svg"><path d="M11.320 2.280 C 9.441 2.407,7.648 3.082,6.084 4.252 C 5.591 4.620,4.620 5.591,4.252 6.084 C 3.226 7.456,2.607 8.935,2.357 10.608 C 2.238 11.410,2.238 12.590,2.357 13.392 C 2.607 15.065,3.226 16.544,4.252 17.916 C 4.620 18.409,5.591 19.380,6.084 19.748 C 7.457 20.775,8.938 21.395,10.608 21.642 C 11.784 21.817,13.262 21.739,14.412 21.442 C 15.680 21.115,16.841 20.553,17.916 19.748 C 18.409 19.379,19.379 18.409,19.748 17.916 C 20.773 16.548,21.395 15.063,21.642 13.392 C 21.761 12.591,21.761 11.409,21.642 10.608 C 21.395 8.937,20.773 7.452,19.748 6.084 C 19.379 5.591,18.409 4.621,17.916 4.252 C 16.786 3.406,15.392 2.757,14.120 2.486 C 13.247 2.300,12.184 2.222,11.320 2.280 M13.180 3.838 C 14.600 4.049,15.862 4.579,17.009 5.445 C 17.434 5.766,18.234 6.566,18.555 6.991 C 20.636 9.747,20.811 13.444,18.999 16.366 C 18.375 17.371,17.371 18.375,16.366 18.999 C 13.687 20.661,10.313 20.661,7.634 18.999 C 6.629 18.375,5.625 17.371,5.001 16.366 C 3.491 13.931,3.342 10.873,4.609 8.343 C 5.042 7.479,5.477 6.878,6.177 6.177 C 7.056 5.299,8.001 4.686,9.125 4.266 C 10.372 3.800,11.867 3.642,13.180 3.838 M8.500 6.553 C 8.269 6.639,8.006 6.770,7.789 6.907 C 7.466 7.110,7.396 7.434,7.589 7.827 C 7.818 8.295,8.135 8.377,8.690 8.112 L 9.000 7.964 9.000 8.862 L 9.000 9.760 8.510 9.761 C 7.910 9.762,7.731 9.824,7.602 10.075 C 7.489 10.297,7.489 10.703,7.602 10.925 C 7.731 11.176,7.910 11.238,8.510 11.239 L 9.000 11.240 9.000 13.692 C 9.000 16.364,9.002 16.392,9.231 16.814 C 9.461 17.237,9.899 17.539,10.620 17.772 C 12.769 18.468,15.097 17.464,16.063 15.425 C 16.430 14.649,16.520 13.994,16.317 13.573 C 16.190 13.311,15.887 13.018,15.609 12.888 C 15.394 12.787,15.339 12.779,14.713 12.767 C 14.116 12.755,14.028 12.762,13.866 12.833 C 13.623 12.941,13.520 13.139,13.520 13.500 C 13.520 13.852,13.623 14.058,13.852 14.162 C 13.983 14.222,14.114 14.238,14.450 14.239 C 14.941 14.240,14.929 14.227,14.794 14.586 C 14.531 15.289,13.933 15.921,13.234 16.236 C 12.466 16.581,11.540 16.577,10.752 16.225 C 10.555 16.137,10.521 16.105,10.501 15.991 C 10.488 15.919,10.482 14.825,10.489 13.560 L 10.500 11.260 13.280 11.240 C 16.401 11.218,16.240 11.234,16.400 10.921 C 16.510 10.705,16.510 10.295,16.400 10.079 C 16.240 9.766,16.401 9.782,13.280 9.760 L 10.500 9.740 10.480 8.640 C 10.461 7.618,10.454 7.527,10.373 7.351 C 10.250 7.084,9.942 6.773,9.661 6.629 C 9.455 6.523,9.368 6.503,9.060 6.492 C 8.782 6.481,8.655 6.495,8.500 6.553 " stroke="none" fill-rule="evenodd" fill="black"></path></svg>