<svg width="24" height="24" viewBox="0 0 24 24" fill="none" xmlns="http://www.w3.org/2000/svg"><path d="M11.320 2.280 C 9.441 2.407,7.648 3.082,6.084 4.252 C 5.591 4.620,4.620 5.591,4.252 6.084 C 3.226 7.456,2.607 8.935,2.357 10.608 C 2.238 11.410,2.238 12.590,2.357 13.392 C 2.607 15.065,3.226 16.544,4.252 17.916 C 4.620 18.409,5.591 19.380,6.084 19.748 C 7.457 20.775,8.938 21.395,10.608 21.642 C 11.784 21.817,13.262 21.739,14.412 21.442 C 15.680 21.115,16.841 20.553,17.916 19.748 C 18.409 19.379,19.379 18.409,19.748 17.916 C 20.773 16.548,21.395 15.063,21.642 13.392 C 21.761 12.591,21.761 11.409,21.642 10.608 C 21.395 8.937,20.773 7.452,19.748 6.084 C 19.379 5.591,18.409 4.621,17.916 4.252 C 16.786 3.406,15.392 2.757,14.120 2.486 C 13.247 2.300,12.184 2.222,11.320 2.280 M13.180 3.838 C 14.600 4.049,15.862 4.579,17.009 5.445 C 17.434 5.766,18.234 6.566,18.555 6.991 C 20.636 9.747,20.811 13.444,18.999 16.366 C 18.375 17.371,17.371 18.375,16.366 18.999 C 13.687 20.661,10.313 20.661,7.634 18.999 C 6.629 18.375,5.625 17.371,5.001 16.366 C 3.491 13.931,3.342 10.873,4.609 8.343 C 5.042 7.479,5.477 6.878,6.177 6.177 C 7.056 5.299,8.001 4.686,9.125 4.266 C 10.372 3.800,11.867 3.642,13.180 3.838 M11.787 5.278 C 11.599 5.315,11.444 5.427,11.343 5.601 C 11.279 5.709,11.262 5.833,11.247 6.286 C 11.231 6.809,11.225 6.840,11.149 6.840 C 11.004 6.840,10.506 7.006,10.220 7.150 C 9.295 7.615,8.705 8.301,8.500 9.149 C 8.397 9.574,8.431 10.242,8.574 10.615 C 8.789 11.174,9.180 11.679,9.663 12.024 C 9.991 12.258,10.589 12.536,10.950 12.622 L 11.240 12.691 11.240 14.170 L 11.240 15.650 11.110 15.624 C 10.851 15.572,10.489 15.365,9.934 14.949 C 9.276 14.458,9.176 14.400,8.977 14.400 C 8.671 14.400,8.336 14.711,8.235 15.089 C 8.192 15.250,8.196 15.286,8.278 15.455 C 8.355 15.615,8.468 15.718,9.023 16.134 C 9.847 16.753,10.337 17.004,10.980 17.137 L 11.220 17.187 11.244 17.729 C 11.269 18.315,11.313 18.452,11.525 18.610 C 11.751 18.778,12.249 18.778,12.475 18.610 C 12.690 18.450,12.733 18.314,12.752 17.731 C 12.764 17.382,12.786 17.190,12.815 17.182 C 12.840 17.176,12.992 17.140,13.153 17.102 C 14.269 16.836,15.197 16.083,15.582 15.131 C 15.784 14.631,15.782 13.912,15.577 13.367 C 15.226 12.434,14.202 11.620,13.070 11.374 L 12.760 11.306 12.760 9.830 L 12.760 8.355 12.850 8.382 C 13.085 8.452,13.292 8.571,13.660 8.848 C 14.305 9.333,14.441 9.371,14.770 9.162 C 15.111 8.946,15.290 8.488,15.143 8.208 C 15.017 7.968,14.360 7.451,13.840 7.183 C 13.504 7.010,13.011 6.840,12.846 6.840 C 12.764 6.840,12.760 6.822,12.758 6.410 C 12.755 5.726,12.684 5.507,12.416 5.354 C 12.272 5.273,11.989 5.239,11.787 5.278 M11.240 9.759 L 11.240 11.159 11.030 11.077 C 10.592 10.905,10.224 10.594,10.034 10.234 C 9.902 9.984,9.902 9.536,10.035 9.266 C 10.190 8.953,10.615 8.585,10.996 8.436 C 11.097 8.396,11.193 8.363,11.210 8.362 C 11.227 8.361,11.240 8.990,11.240 9.759 M13.140 12.965 C 13.554 13.119,13.992 13.492,14.146 13.820 C 14.258 14.060,14.268 14.343,14.173 14.623 C 14.046 15.001,13.363 15.534,12.890 15.625 L 12.760 15.650 12.760 14.242 L 12.760 12.835 12.850 12.862 C 12.900 12.878,13.030 12.924,13.140 12.965 " stroke="none" fill-rule="evenodd" fill="black"></path></svg>