<svg width="24" height="24" viewBox="0 0 24 24" fill="none" xmlns="http://www.w3.org/2000/svg"><path d="M11.320 2.280 C 9.441 2.407,7.648 3.082,6.084 4.252 C 5.591 4.620,4.620 5.591,4.252 6.084 C 3.226 7.456,2.607 8.935,2.357 10.608 C 2.238 11.410,2.238 12.590,2.357 13.392 C 2.607 15.065,3.226 16.544,4.252 17.916 C 4.620 18.409,5.591 19.380,6.084 19.748 C 7.457 20.775,8.938 21.395,10.608 21.642 C 11.784 21.817,13.262 21.739,14.412 21.442 C 15.680 21.115,16.841 20.553,17.916 19.748 C 18.409 19.379,19.379 18.409,19.748 17.916 C 20.773 16.548,21.395 15.063,21.642 13.392 C 21.761 12.591,21.761 11.409,21.642 10.608 C 21.395 8.937,20.773 7.452,19.748 6.084 C 19.379 5.591,18.409 4.621,17.916 4.252 C 16.786 3.406,15.392 2.757,14.120 2.486 C 13.247 2.300,12.184 2.222,11.320 2.280 M13.180 3.838 C 14.600 4.049,15.862 4.579,17.009 5.445 C 17.434 5.766,18.234 6.566,18.555 6.991 C 20.636 9.747,20.811 13.444,18.999 16.366 C 18.375 17.371,17.371 18.375,16.366 18.999 C 13.687 20.661,10.313 20.661,7.634 18.999 C 6.629 18.375,5.625 17.371,5.001 16.366 C 3.491 13.931,3.342 10.873,4.609 8.343 C 5.042 7.479,5.477 6.878,6.177 6.177 C 7.056 5.299,8.001 4.686,9.125 4.266 C 10.372 3.800,11.867 3.642,13.180 3.838 M11.600 6.023 C 11.545 6.033,11.392 6.060,11.260 6.084 C 10.048 6.302,8.916 7.261,8.492 8.430 C 8.262 9.063,8.226 9.647,8.360 10.540 C 8.472 11.284,8.486 11.226,8.181 11.258 C 7.693 11.311,7.508 11.534,7.528 12.047 C 7.548 12.553,7.725 12.710,8.318 12.748 C 8.517 12.761,8.680 12.774,8.680 12.777 C 8.680 12.780,8.716 13.034,8.759 13.341 C 8.923 14.493,8.848 15.066,8.411 16.000 C 8.253 16.340,8.235 16.404,8.249 16.610 C 8.262 16.797,8.287 16.863,8.380 16.960 C 8.534 17.120,8.790 17.240,8.980 17.240 C 9.066 17.240,9.545 17.105,10.054 16.936 C 11.204 16.556,11.252 16.553,12.077 16.816 C 12.832 17.056,13.201 17.110,13.670 17.048 C 14.123 16.988,14.337 16.913,14.983 16.589 C 15.341 16.409,15.548 16.279,15.637 16.177 C 15.761 16.036,15.768 16.013,15.753 15.778 C 15.734 15.479,15.574 15.188,15.363 15.064 C 15.121 14.923,14.928 14.959,14.303 15.264 C 13.781 15.518,13.727 15.536,13.423 15.551 C 13.126 15.566,13.055 15.553,12.531 15.384 C 12.217 15.283,11.830 15.180,11.671 15.156 C 11.334 15.103,10.842 15.130,10.504 15.219 C 10.375 15.254,10.264 15.277,10.258 15.271 C 10.253 15.265,10.265 15.161,10.286 15.040 C 10.345 14.699,10.333 13.786,10.263 13.303 C 10.228 13.063,10.200 12.844,10.200 12.817 C 10.200 12.779,10.445 12.764,11.230 12.753 C 12.174 12.741,12.271 12.733,12.396 12.660 C 12.581 12.551,12.682 12.404,12.723 12.185 C 12.792 11.818,12.669 11.501,12.396 11.340 C 12.270 11.266,12.175 11.259,11.114 11.247 L 9.969 11.234 9.926 10.947 C 9.754 9.782,9.743 9.645,9.793 9.351 C 9.892 8.774,10.277 8.195,10.788 7.856 C 11.591 7.323,12.752 7.410,13.471 8.056 C 13.757 8.313,13.919 8.400,14.112 8.400 C 14.451 8.400,14.834 8.067,14.900 7.714 C 14.999 7.184,13.955 6.366,12.840 6.101 C 12.580 6.039,11.789 5.989,11.600 6.023 " stroke="none" fill-rule="evenodd" fill="black"></path></svg>