<svg width="24" height="24" viewBox="0 0 24 24" fill="none" xmlns="http://www.w3.org/2000/svg"><path d="M11.320 2.280 C 9.441 2.407,7.648 3.082,6.084 4.252 C 5.591 4.620,4.620 5.591,4.252 6.084 C 3.226 7.456,2.607 8.935,2.357 10.608 C 2.238 11.410,2.238 12.590,2.357 13.392 C 2.607 15.065,3.226 16.544,4.252 17.916 C 4.620 18.409,5.591 19.380,6.084 19.748 C 7.457 20.775,8.938 21.395,10.608 21.642 C 11.784 21.817,13.262 21.739,14.412 21.442 C 15.680 21.115,16.841 20.553,17.916 19.748 C 18.409 19.379,19.379 18.409,19.748 17.916 C 20.773 16.548,21.395 15.063,21.642 13.392 C 21.761 12.591,21.761 11.409,21.642 10.608 C 21.395 8.937,20.773 7.452,19.748 6.084 C 19.379 5.591,18.409 4.621,17.916 4.252 C 16.786 3.406,15.392 2.757,14.120 2.486 C 13.247 2.300,12.184 2.222,11.320 2.280 M13.180 3.838 C 14.600 4.049,15.862 4.579,17.009 5.445 C 17.434 5.766,18.234 6.566,18.555 6.991 C 20.636 9.747,20.811 13.444,18.999 16.366 C 18.375 17.371,17.371 18.375,16.366 18.999 C 13.687 20.661,10.313 20.661,7.634 18.999 C 6.629 18.375,5.625 17.371,5.001 16.366 C 3.491 13.931,3.342 10.873,4.609 8.343 C 5.042 7.479,5.477 6.878,6.177 6.177 C 7.056 5.299,8.001 4.686,9.125 4.266 C 10.372 3.800,11.867 3.642,13.180 3.838 M11.830 6.839 C 10.265 7.125,8.993 8.027,8.180 9.430 L 7.989 9.760 7.627 9.760 C 7.002 9.760,6.760 9.967,6.760 10.500 C 6.760 10.944,7.017 11.240,7.403 11.240 L 7.540 11.240 7.540 12.000 L 7.540 12.760 7.403 12.760 C 7.017 12.760,6.760 13.056,6.760 13.500 C 6.760 14.033,7.002 14.240,7.627 14.240 L 7.989 14.240 8.180 14.570 C 8.461 15.055,8.756 15.429,9.157 15.811 C 9.939 16.554,10.792 16.978,11.889 17.165 C 12.990 17.354,14.429 17.137,14.850 16.719 C 14.990 16.580,15.000 16.553,15.000 16.332 C 15.000 15.876,14.700 15.480,14.355 15.480 C 14.270 15.480,14.008 15.534,13.772 15.600 C 12.996 15.818,12.243 15.795,11.491 15.528 C 10.953 15.338,10.589 15.104,10.142 14.660 L 9.740 14.260 11.400 14.240 C 12.889 14.222,13.073 14.213,13.190 14.149 C 13.378 14.046,13.480 13.819,13.480 13.500 C 13.480 13.148,13.377 12.942,13.148 12.838 C 12.990 12.766,12.860 12.762,11.031 12.761 L 9.082 12.760 9.051 12.650 C 9.011 12.507,9.011 11.493,9.051 11.350 L 9.082 11.240 11.031 11.239 C 12.860 11.238,12.990 11.234,13.148 11.162 C 13.377 11.058,13.480 10.852,13.480 10.500 C 13.480 10.181,13.378 9.954,13.190 9.851 C 13.073 9.787,12.889 9.778,11.400 9.760 L 9.740 9.740 10.142 9.340 C 10.607 8.877,11.009 8.627,11.580 8.443 C 12.342 8.197,13.073 8.189,13.851 8.417 C 14.043 8.474,14.270 8.520,14.355 8.520 C 14.700 8.520,15.000 8.124,15.000 7.668 C 15.000 7.447,14.990 7.420,14.850 7.281 C 14.554 6.987,13.845 6.804,12.900 6.778 C 12.382 6.764,12.178 6.776,11.830 6.839 " stroke="none" fill-rule="evenodd" fill="black"></path></svg>