<svg width="24" height="24" viewBox="0 0 24 24" fill="none" xmlns="http://www.w3.org/2000/svg"><path d="M7.580 0.825 C 7.215 0.902,6.637 1.187,6.359 1.427 C 5.708 1.989,5.371 2.603,5.281 3.389 C 5.227 3.857,5.227 20.079,5.280 20.587 C 5.327 21.034,5.445 21.408,5.643 21.734 C 5.966 22.269,6.407 22.679,6.940 22.939 C 7.578 23.251,7.396 23.240,12.000 23.240 C 16.604 23.240,16.422 23.251,17.060 22.939 C 17.593 22.679,18.034 22.269,18.357 21.734 C 18.555 21.408,18.673 21.034,18.720 20.587 C 18.772 20.092,18.772 3.908,18.720 3.413 C 18.636 2.615,18.299 1.996,17.641 1.427 C 17.351 1.177,16.781 0.901,16.392 0.822 C 15.943 0.732,8.013 0.734,7.580 0.825 M9.767 2.770 C 9.781 3.343,9.818 3.472,10.006 3.611 C 10.064 3.654,10.190 3.704,10.286 3.723 C 10.513 3.767,13.487 3.767,13.714 3.723 C 13.810 3.704,13.936 3.654,13.994 3.611 C 14.182 3.472,14.219 3.343,14.233 2.770 L 14.246 2.240 15.016 2.240 C 15.858 2.240,16.162 2.279,16.438 2.420 C 16.774 2.593,17.073 2.952,17.183 3.314 C 17.267 3.593,17.267 20.407,17.183 20.686 C 17.023 21.211,16.568 21.615,16.021 21.716 C 15.693 21.777,8.307 21.777,7.979 21.716 C 7.432 21.615,6.977 21.211,6.817 20.686 C 6.733 20.407,6.733 3.593,6.817 3.314 C 6.924 2.963,7.222 2.597,7.540 2.429 C 7.814 2.284,8.098 2.247,8.947 2.243 L 9.754 2.240 9.767 2.770 M10.067 19.604 C 9.878 19.704,9.762 19.938,9.761 20.220 C 9.760 20.621,9.898 20.855,10.196 20.955 C 10.385 21.018,13.615 21.018,13.804 20.955 C 14.102 20.855,14.240 20.621,14.239 20.220 C 14.238 19.931,14.122 19.703,13.925 19.602 C 13.769 19.523,13.703 19.520,11.992 19.522 C 10.293 19.523,10.214 19.527,10.067 19.604 " stroke="none" fill-rule="evenodd" fill="black"></path></svg>