<svg width="24" height="24" viewBox="0 0 24 24" fill="none" xmlns="http://www.w3.org/2000/svg"><path d="M6.040 1.582 C 5.897 1.612,5.609 1.722,5.400 1.827 C 5.083 1.985,4.960 2.077,4.660 2.378 C 4.257 2.783,4.051 3.104,3.889 3.580 L 3.780 3.900 3.780 12.000 L 3.780 20.100 3.889 20.420 C 4.051 20.896,4.257 21.217,4.660 21.622 C 4.961 21.924,5.083 22.014,5.400 22.173 C 6.051 22.498,5.639 22.479,12.000 22.479 C 18.361 22.479,17.949 22.498,18.600 22.173 C 18.917 22.014,19.039 21.924,19.340 21.622 C 19.743 21.217,19.949 20.896,20.111 20.420 L 20.220 20.100 20.220 12.000 L 20.220 3.900 20.111 3.580 C 19.949 3.104,19.743 2.783,19.340 2.378 C 19.039 2.076,18.917 1.986,18.600 1.827 C 17.948 1.502,18.364 1.521,11.980 1.524 C 7.303 1.526,6.254 1.536,6.040 1.582 M17.888 3.151 C 18.217 3.313,18.518 3.629,18.647 3.950 L 18.740 4.180 18.740 12.000 L 18.740 19.820 18.647 20.050 C 18.518 20.371,18.217 20.687,17.888 20.849 L 17.622 20.980 12.000 20.980 L 6.378 20.980 6.112 20.849 C 5.783 20.687,5.482 20.371,5.353 20.050 L 5.260 19.820 5.260 12.000 L 5.260 4.180 5.352 3.952 C 5.515 3.550,5.908 3.191,6.331 3.058 C 6.468 3.015,7.541 3.006,12.061 3.012 L 17.622 3.020 17.888 3.151 M10.092 18.843 C 9.638 19.068,9.640 19.937,10.095 20.158 C 10.259 20.237,10.330 20.240,12.000 20.240 C 13.670 20.240,13.741 20.237,13.905 20.158 C 14.127 20.050,14.240 19.828,14.240 19.500 C 14.240 19.172,14.127 18.950,13.905 18.842 C 13.741 18.763,13.670 18.760,11.997 18.760 C 10.319 18.760,10.254 18.763,10.092 18.843 " stroke="none" fill-rule="evenodd" fill="black"></path></svg>