<svg width="24" height="24" viewBox="0 0 24 24" fill="none" xmlns="http://www.w3.org/2000/svg"><path d="M8.891 1.559 C 8.426 1.669,7.909 2.104,7.677 2.580 L 7.540 2.860 7.520 4.439 L 7.500 6.019 6.120 6.007 C 5.244 5.999,4.660 6.011,4.520 6.038 C 3.785 6.183,3.179 6.788,3.041 7.516 C 3.014 7.657,3.000 9.989,3.001 14.275 C 3.001 21.455,2.990 21.102,3.239 21.538 C 3.415 21.845,3.738 22.144,4.078 22.312 L 4.376 22.460 9.758 22.460 L 15.140 22.460 15.420 22.323 C 15.792 22.142,16.142 21.792,16.323 21.420 L 16.460 21.140 16.472 19.570 L 16.484 18.000 17.877 18.000 C 18.656 18.000,19.364 17.982,19.484 17.959 C 20.219 17.820,20.825 17.207,20.963 16.465 C 20.992 16.307,21.000 15.276,20.989 13.266 C 20.972 10.162,20.969 10.099,20.781 9.200 C 20.041 5.652,17.231 2.724,13.698 1.819 C 12.738 1.573,12.157 1.519,10.485 1.524 C 9.679 1.526,8.962 1.542,8.891 1.559 M11.700 3.131 C 12.482 3.393,13.125 4.053,13.386 4.859 C 13.486 5.167,13.491 5.230,13.515 6.402 L 13.540 7.624 13.688 7.922 C 13.920 8.391,14.359 8.779,14.820 8.922 C 14.923 8.954,15.408 8.981,16.180 8.999 C 17.337 9.024,17.392 9.029,17.700 9.132 C 18.477 9.391,19.115 10.042,19.390 10.859 L 19.499 11.180 19.499 13.702 C 19.500 16.539,19.515 16.395,19.204 16.479 C 19.097 16.508,17.488 16.518,14.140 16.511 L 9.233 16.500 9.117 16.369 L 9.000 16.239 9.000 9.742 L 9.000 3.246 9.126 3.120 L 9.252 2.994 10.316 3.009 C 11.345 3.023,11.390 3.027,11.700 3.131 M14.964 3.882 C 16.202 4.507,17.365 5.548,18.140 6.724 C 18.405 7.127,18.824 7.910,18.791 7.942 C 18.781 7.953,18.675 7.917,18.556 7.863 C 18.437 7.809,18.178 7.716,17.980 7.656 C 17.634 7.552,17.573 7.547,16.427 7.524 L 15.233 7.500 15.117 7.369 L 15.000 7.239 15.000 6.349 C 15.000 5.860,14.980 5.298,14.956 5.100 C 14.908 4.707,14.765 4.207,14.615 3.911 C 14.563 3.808,14.520 3.714,14.520 3.702 C 14.520 3.673,14.674 3.736,14.964 3.882 M7.120 7.514 L 7.500 7.540 7.520 12.082 L 7.540 16.624 7.688 16.922 C 7.856 17.262,8.155 17.585,8.462 17.761 C 8.874 17.997,8.900 17.999,12.090 17.999 L 15.000 18.000 15.000 19.377 L 15.000 20.754 14.877 20.877 L 14.754 21.000 9.758 21.000 L 4.761 21.000 4.631 20.883 L 4.500 20.767 4.500 14.272 C 4.500 8.146,4.504 7.770,4.570 7.669 C 4.609 7.610,4.699 7.545,4.770 7.525 C 4.916 7.482,6.539 7.475,7.120 7.514 " stroke="none" fill-rule="evenodd" fill="black"></path></svg>