<svg width="24" height="24" viewBox="0 0 24 24" fill="none" xmlns="http://www.w3.org/2000/svg"><path d="M5.022 1.605 C 4.518 1.778,4.170 2.094,3.925 2.600 L 3.780 2.900 3.780 12.000 L 3.780 21.100 3.910 21.374 C 4.152 21.886,4.526 22.227,5.031 22.397 C 5.277 22.480,5.301 22.480,12.000 22.480 C 18.699 22.480,18.723 22.480,18.969 22.397 C 19.591 22.188,20.063 21.666,20.198 21.040 C 20.234 20.874,20.242 19.509,20.231 15.520 C 20.215 9.665,20.229 10.002,19.953 8.880 C 19.221 5.908,17.032 3.386,14.180 2.226 C 13.333 1.882,12.583 1.688,11.680 1.580 C 11.278 1.532,10.605 1.520,8.220 1.521 C 5.344 1.523,5.253 1.525,5.022 1.605 M10.953 3.127 C 11.756 3.420,12.373 4.043,12.627 4.817 C 12.729 5.128,12.734 5.185,12.760 6.360 C 12.782 7.365,12.798 7.611,12.854 7.758 C 13.060 8.299,13.525 8.736,14.100 8.931 C 14.166 8.954,14.769 8.984,15.440 8.998 C 16.624 9.023,16.669 9.027,16.953 9.129 C 17.749 9.415,18.365 10.035,18.630 10.817 L 18.740 11.140 18.752 15.860 C 18.761 19.189,18.751 20.624,18.721 20.730 C 18.636 21.021,19.168 21.000,12.000 21.000 C 4.908 21.000,5.376 21.017,5.284 20.755 C 5.221 20.575,5.221 3.426,5.284 3.245 C 5.372 2.993,5.282 3.000,8.100 3.011 L 10.660 3.020 10.953 3.127 M14.211 3.885 C 15.042 4.301,15.729 4.811,16.421 5.527 C 17.059 6.187,17.493 6.791,17.876 7.552 C 18.047 7.893,18.074 7.983,17.990 7.947 C 17.143 7.574,17.038 7.554,15.700 7.525 C 14.916 7.508,14.513 7.484,14.457 7.452 C 14.263 7.341,14.261 7.333,14.236 6.104 C 14.209 4.816,14.180 4.632,13.904 3.994 C 13.830 3.821,13.776 3.680,13.785 3.680 C 13.794 3.680,13.986 3.772,14.211 3.885 M14.787 11.278 C 14.598 11.316,14.444 11.427,14.340 11.604 C 14.262 11.737,14.260 11.812,14.260 14.640 L 14.260 17.540 14.354 17.691 C 14.490 17.910,14.643 17.978,15.000 17.979 C 15.346 17.980,15.525 17.897,15.660 17.673 C 15.738 17.544,15.740 17.457,15.753 14.860 C 15.760 13.386,15.754 12.068,15.740 11.931 C 15.698 11.526,15.496 11.311,15.120 11.269 C 15.021 11.257,14.871 11.262,14.787 11.278 M11.601 13.588 C 11.400 13.692,11.291 13.879,11.260 14.171 C 11.246 14.308,11.240 15.122,11.247 15.980 C 11.260 17.536,11.260 17.540,11.354 17.691 C 11.490 17.910,11.643 17.978,12.000 17.979 C 12.349 17.980,12.513 17.905,12.653 17.680 C 12.739 17.542,12.740 17.520,12.740 15.760 C 12.740 14.052,12.737 13.975,12.660 13.844 C 12.521 13.608,12.392 13.542,12.047 13.528 C 11.812 13.519,11.708 13.533,11.601 13.588 M8.660 15.806 C 8.507 15.863,8.409 15.949,8.326 16.100 C 8.272 16.198,8.260 16.342,8.260 16.880 C 8.260 17.503,8.265 17.548,8.354 17.691 C 8.490 17.910,8.643 17.978,9.000 17.979 C 9.230 17.980,9.331 17.961,9.433 17.900 C 9.663 17.761,9.723 17.615,9.748 17.129 C 9.791 16.327,9.702 15.981,9.419 15.842 C 9.270 15.769,8.819 15.748,8.660 15.806 " stroke="none" fill-rule="evenodd" fill="black"></path></svg>