<svg width="24" height="24" viewBox="0 0 24 24" fill="none" xmlns="http://www.w3.org/2000/svg"><path d="M5.022 1.605 C 4.518 1.778,4.170 2.094,3.925 2.600 L 3.780 2.900 3.769 11.500 C 3.762 17.263,3.772 20.164,3.799 20.293 C 3.949 20.996,4.599 21.605,5.320 21.719 C 5.677 21.775,18.323 21.775,18.680 21.719 C 19.402 21.605,20.050 20.997,20.201 20.291 C 20.229 20.161,20.239 18.483,20.230 15.158 C 20.215 9.705,20.228 9.996,19.953 8.880 C 19.221 5.908,17.032 3.386,14.180 2.226 C 13.333 1.882,12.583 1.688,11.680 1.580 C 11.278 1.532,10.605 1.520,8.220 1.521 C 5.344 1.523,5.253 1.525,5.022 1.605 M10.953 3.127 C 11.756 3.420,12.373 4.043,12.627 4.817 C 12.729 5.128,12.734 5.185,12.760 6.360 C 12.782 7.365,12.798 7.611,12.854 7.758 C 13.060 8.299,13.525 8.736,14.100 8.931 C 14.166 8.954,14.769 8.984,15.440 8.998 C 16.624 9.023,16.669 9.027,16.953 9.129 C 17.749 9.415,18.365 10.035,18.630 10.817 L 18.740 11.140 18.752 15.460 C 18.758 17.836,18.753 19.841,18.739 19.914 C 18.726 19.988,18.672 20.092,18.619 20.144 L 18.524 20.240 12.019 20.240 C 7.436 20.240,5.491 20.227,5.434 20.197 C 5.231 20.088,5.240 20.491,5.240 11.627 C 5.240 5.699,5.252 3.336,5.284 3.245 C 5.372 2.993,5.282 3.000,8.100 3.011 L 10.660 3.020 10.953 3.127 M14.211 3.885 C 15.042 4.301,15.729 4.811,16.421 5.527 C 17.059 6.187,17.493 6.791,17.876 7.552 C 18.047 7.893,18.074 7.983,17.990 7.947 C 17.143 7.574,17.038 7.554,15.700 7.525 C 14.916 7.508,14.513 7.484,14.457 7.452 C 14.263 7.341,14.261 7.333,14.236 6.104 C 14.209 4.816,14.180 4.632,13.904 3.994 C 13.830 3.821,13.776 3.680,13.785 3.680 C 13.794 3.680,13.986 3.772,14.211 3.885 M10.900 10.584 C 9.662 10.859,8.684 11.812,8.358 13.060 C 8.241 13.508,8.241 14.253,8.358 14.700 C 8.694 15.982,9.690 16.918,10.999 17.182 C 11.700 17.324,12.565 17.197,13.184 16.860 L 13.429 16.728 14.004 17.307 C 14.594 17.900,14.784 18.040,15.000 18.040 C 15.387 18.040,15.847 17.524,15.780 17.166 C 15.741 16.957,15.583 16.756,15.009 16.186 L 14.492 15.673 14.648 15.353 C 15.555 13.503,14.607 11.307,12.620 10.654 C 12.350 10.566,12.213 10.547,11.740 10.536 C 11.336 10.526,11.102 10.539,10.900 10.584 M12.099 12.061 C 12.534 12.175,12.926 12.459,13.198 12.860 C 13.855 13.828,13.389 15.218,12.269 15.634 C 11.277 16.002,10.151 15.448,9.836 14.436 C 9.682 13.941,9.767 13.285,10.039 12.873 C 10.500 12.178,11.315 11.857,12.099 12.061 " stroke="none" fill-rule="evenodd" fill="black"></path></svg>