<svg width="24" height="24" viewBox="0 0 24 24" fill="none" xmlns="http://www.w3.org/2000/svg"><path d="M5.022 1.605 C 4.518 1.778,4.170 2.094,3.925 2.600 L 3.780 2.900 3.780 12.000 L 3.780 21.100 3.910 21.374 C 4.152 21.886,4.526 22.227,5.031 22.397 C 5.277 22.480,5.301 22.480,12.000 22.480 C 18.699 22.480,18.723 22.480,18.969 22.397 C 19.591 22.188,20.063 21.666,20.198 21.040 C 20.234 20.874,20.242 19.509,20.231 15.520 C 20.215 9.665,20.229 10.002,19.953 8.880 C 19.221 5.908,17.032 3.386,14.180 2.226 C 13.333 1.882,12.583 1.688,11.680 1.580 C 11.278 1.532,10.605 1.520,8.220 1.521 C 5.344 1.523,5.253 1.525,5.022 1.605 M10.953 3.127 C 11.756 3.420,12.373 4.043,12.627 4.817 C 12.729 5.128,12.734 5.185,12.760 6.360 C 12.782 7.365,12.798 7.611,12.854 7.758 C 13.060 8.299,13.525 8.736,14.100 8.931 C 14.166 8.954,14.769 8.984,15.440 8.998 C 16.624 9.023,16.669 9.027,16.953 9.129 C 17.749 9.415,18.365 10.035,18.630 10.817 L 18.740 11.140 18.752 15.860 C 18.761 19.189,18.751 20.624,18.721 20.730 C 18.636 21.021,19.168 21.000,12.000 21.000 C 4.908 21.000,5.376 21.017,5.284 20.755 C 5.221 20.575,5.221 3.426,5.284 3.245 C 5.372 2.993,5.282 3.000,8.100 3.011 L 10.660 3.020 10.953 3.127 M14.211 3.885 C 15.042 4.301,15.729 4.811,16.421 5.527 C 17.059 6.187,17.493 6.791,17.876 7.552 C 18.047 7.893,18.074 7.983,17.990 7.947 C 17.143 7.574,17.038 7.554,15.700 7.525 C 14.916 7.508,14.513 7.484,14.457 7.452 C 14.263 7.341,14.261 7.333,14.236 6.104 C 14.209 4.816,14.180 4.632,13.904 3.994 C 13.830 3.821,13.776 3.680,13.785 3.680 C 13.794 3.680,13.986 3.772,14.211 3.885 M8.027 14.278 C 7.667 14.349,7.510 14.591,7.528 15.047 C 7.542 15.392,7.608 15.521,7.844 15.660 C 7.978 15.739,8.052 15.740,12.000 15.740 C 15.948 15.740,16.022 15.739,16.156 15.660 C 16.407 15.512,16.460 15.398,16.460 15.000 C 16.460 14.602,16.407 14.488,16.156 14.340 C 16.023 14.262,15.942 14.260,12.100 14.254 C 9.944 14.251,8.111 14.262,8.027 14.278 M8.027 17.278 C 7.666 17.350,7.510 17.591,7.528 18.047 C 7.542 18.392,7.608 18.521,7.844 18.660 C 7.975 18.737,8.052 18.740,10.120 18.740 C 12.188 18.740,12.265 18.737,12.396 18.660 C 12.581 18.551,12.682 18.404,12.723 18.185 C 12.792 17.818,12.669 17.501,12.396 17.340 C 12.265 17.263,12.182 17.260,10.220 17.254 C 9.098 17.250,8.111 17.261,8.027 17.278 " stroke="none" fill-rule="evenodd" fill="black"></path></svg>