<svg width="24" height="24" viewBox="0 0 24 24" fill="none" xmlns="http://www.w3.org/2000/svg"><path d="M11.516 4.577 C 11.153 4.716,10.811 5.028,10.638 5.380 C 10.553 5.554,10.540 5.635,10.540 6.000 C 10.540 6.385,10.550 6.439,10.657 6.651 C 10.796 6.924,11.102 7.226,11.380 7.362 C 11.554 7.447,11.635 7.460,12.000 7.460 C 12.365 7.460,12.446 7.447,12.620 7.362 C 12.898 7.226,13.204 6.924,13.343 6.651 C 13.450 6.439,13.460 6.385,13.460 6.000 C 13.460 5.635,13.447 5.554,13.362 5.380 C 13.226 5.103,12.925 4.796,12.653 4.658 C 12.455 4.558,12.371 4.541,12.042 4.532 C 11.789 4.525,11.611 4.540,11.516 4.577 M11.516 10.577 C 11.153 10.716,10.811 11.028,10.638 11.380 C 10.553 11.554,10.540 11.635,10.540 12.000 C 10.540 12.385,10.550 12.439,10.657 12.651 C 10.796 12.924,11.102 13.226,11.380 13.362 C 11.554 13.447,11.635 13.460,12.000 13.460 C 12.365 13.460,12.446 13.447,12.620 13.362 C 12.898 13.226,13.204 12.924,13.343 12.651 C 13.450 12.439,13.460 12.385,13.460 12.000 C 13.460 11.635,13.447 11.554,13.362 11.380 C 13.226 11.103,12.925 10.796,12.653 10.658 C 12.455 10.558,12.371 10.541,12.042 10.532 C 11.789 10.525,11.611 10.540,11.516 10.577 M11.516 16.577 C 11.153 16.716,10.811 17.028,10.638 17.380 C 10.553 17.554,10.540 17.635,10.540 18.000 C 10.540 18.385,10.550 18.439,10.657 18.651 C 10.796 18.924,11.102 19.226,11.380 19.362 C 11.554 19.447,11.635 19.460,12.000 19.460 C 12.365 19.460,12.446 19.447,12.620 19.362 C 12.898 19.226,13.204 18.924,13.343 18.651 C 13.450 18.439,13.460 18.385,13.460 18.000 C 13.460 17.635,13.447 17.554,13.362 17.380 C 13.226 17.103,12.925 16.796,12.653 16.658 C 12.455 16.558,12.371 16.541,12.042 16.532 C 11.789 16.525,11.611 16.540,11.516 16.577 " stroke="none" fill-rule="evenodd" fill="black"></path></svg>