<svg width="24" height="24" viewBox="0 0 24 24" fill="none" xmlns="http://www.w3.org/2000/svg"><path d="M5.516 10.577 C 5.153 10.716,4.811 11.028,4.638 11.380 C 4.553 11.554,4.540 11.635,4.540 12.000 C 4.540 12.385,4.550 12.439,4.657 12.651 C 4.796 12.924,5.102 13.226,5.380 13.362 C 5.554 13.447,5.635 13.460,6.000 13.460 C 6.365 13.460,6.446 13.447,6.620 13.362 C 6.898 13.226,7.204 12.924,7.343 12.651 C 7.450 12.439,7.460 12.385,7.460 12.000 C 7.460 11.635,7.447 11.554,7.362 11.380 C 7.226 11.103,6.925 10.796,6.653 10.658 C 6.455 10.558,6.371 10.541,6.042 10.532 C 5.789 10.525,5.611 10.540,5.516 10.577 M11.516 10.577 C 11.153 10.716,10.811 11.028,10.638 11.380 C 10.553 11.554,10.540 11.635,10.540 12.000 C 10.540 12.385,10.550 12.439,10.657 12.651 C 10.796 12.924,11.102 13.226,11.380 13.362 C 11.554 13.447,11.635 13.460,12.000 13.460 C 12.365 13.460,12.446 13.447,12.620 13.362 C 12.898 13.226,13.204 12.924,13.343 12.651 C 13.450 12.439,13.460 12.385,13.460 12.000 C 13.460 11.635,13.447 11.554,13.362 11.380 C 13.226 11.103,12.925 10.796,12.653 10.658 C 12.455 10.558,12.371 10.541,12.042 10.532 C 11.789 10.525,11.611 10.540,11.516 10.577 M17.516 10.577 C 17.153 10.716,16.811 11.028,16.638 11.380 C 16.553 11.554,16.540 11.635,16.540 12.000 C 16.540 12.385,16.550 12.439,16.657 12.651 C 16.796 12.924,17.102 13.226,17.380 13.362 C 17.554 13.447,17.635 13.460,18.000 13.460 C 18.365 13.460,18.446 13.447,18.620 13.362 C 18.898 13.226,19.204 12.924,19.343 12.651 C 19.450 12.439,19.460 12.385,19.460 12.000 C 19.460 11.635,19.447 11.554,19.362 11.380 C 19.226 11.103,18.925 10.796,18.653 10.658 C 18.455 10.558,18.371 10.541,18.042 10.532 C 17.789 10.525,17.611 10.540,17.516 10.577 " stroke="none" fill-rule="evenodd" fill="black"></path></svg>