<svg width="24" height="24" viewBox="0 0 24 24" fill="none" xmlns="http://www.w3.org/2000/svg"><path d="M11.320 2.280 C 9.441 2.407,7.648 3.082,6.084 4.252 C 5.591 4.620,4.620 5.591,4.252 6.084 C 3.226 7.456,2.607 8.935,2.357 10.608 C 2.238 11.410,2.238 12.590,2.357 13.392 C 2.607 15.065,3.226 16.544,4.252 17.916 C 4.620 18.409,5.591 19.380,6.084 19.748 C 7.457 20.775,8.938 21.395,10.608 21.642 C 11.784 21.817,13.262 21.739,14.412 21.442 C 15.680 21.115,16.841 20.553,17.916 19.748 C 18.409 19.379,19.379 18.409,19.748 17.916 C 20.773 16.548,21.395 15.063,21.642 13.392 C 21.761 12.591,21.761 11.409,21.642 10.608 C 21.395 8.937,20.773 7.452,19.748 6.084 C 19.379 5.591,18.409 4.621,17.916 4.252 C 16.786 3.406,15.392 2.757,14.120 2.486 C 13.247 2.300,12.184 2.222,11.320 2.280 M13.180 3.838 C 14.600 4.049,15.862 4.579,17.009 5.445 C 17.434 5.766,18.234 6.566,18.555 6.991 C 20.636 9.747,20.811 13.444,18.999 16.366 C 18.375 17.371,17.371 18.375,16.366 18.999 C 13.687 20.661,10.313 20.661,7.634 18.999 C 6.629 18.375,5.625 17.371,5.001 16.366 C 3.491 13.931,3.342 10.873,4.609 8.343 C 5.042 7.479,5.477 6.878,6.177 6.177 C 7.056 5.299,8.001 4.686,9.125 4.266 C 10.372 3.800,11.867 3.642,13.180 3.838 M7.772 10.999 C 7.353 11.211,7.146 11.542,7.144 12.003 C 7.144 12.210,7.167 12.313,7.254 12.491 C 7.381 12.752,7.533 12.893,7.835 13.031 C 8.015 13.114,8.092 13.127,8.315 13.111 C 8.922 13.067,9.358 12.603,9.358 12.000 C 9.358 11.388,8.919 10.928,8.300 10.890 C 8.047 10.875,7.996 10.886,7.772 10.999 M11.601 10.949 C 11.354 11.037,11.033 11.365,10.947 11.617 C 10.800 12.049,10.896 12.461,11.217 12.783 C 11.672 13.237,12.328 13.237,12.783 12.783 C 13.237 12.328,13.237 11.672,12.783 11.217 C 12.462 10.897,12.028 10.799,11.601 10.949 M15.440 10.917 C 14.966 11.061,14.642 11.502,14.642 12.000 C 14.642 12.603,15.078 13.067,15.685 13.111 C 15.908 13.127,15.985 13.114,16.165 13.031 C 16.456 12.898,16.602 12.767,16.741 12.513 C 16.841 12.330,16.857 12.257,16.857 12.000 C 16.855 11.532,16.657 11.215,16.232 11.002 C 15.981 10.877,15.680 10.844,15.440 10.917 " stroke="none" fill-rule="evenodd" fill="black"></path></svg>