<svg width="24" height="24" viewBox="0 0 24 24" fill="none" xmlns="http://www.w3.org/2000/svg"><path d="M11.580 1.846 C 11.426 1.865,11.190 1.918,11.055 1.962 C 10.842 2.033,3.632 5.878,2.980 6.269 C 2.287 6.685,1.792 7.344,1.599 8.113 C 1.524 8.409,1.521 8.617,1.521 14.160 C 1.521 20.592,1.504 20.190,1.818 20.820 C 2.121 21.427,2.573 21.879,3.180 22.182 C 3.818 22.501,3.163 22.479,12.000 22.479 C 20.837 22.479,20.182 22.501,20.820 22.182 C 21.427 21.879,21.879 21.427,22.182 20.820 C 22.496 20.190,22.479 20.588,22.479 14.193 C 22.480 7.838,22.494 8.183,22.205 7.580 C 21.927 7.002,21.555 6.590,21.020 6.269 C 20.360 5.874,13.157 2.033,12.945 1.963 C 12.715 1.887,12.120 1.794,11.941 1.805 C 11.896 1.808,11.734 1.826,11.580 1.846 M12.461 3.387 C 12.738 3.481,20.265 7.540,20.465 7.703 C 20.676 7.874,20.856 8.158,20.940 8.451 C 20.994 8.639,21.004 8.827,20.993 9.471 L 20.980 10.260 20.853 10.529 C 20.781 10.680,20.647 10.874,20.547 10.971 C 20.410 11.104,19.628 11.543,17.229 12.835 L 14.089 14.525 13.632 14.283 C 13.063 13.981,12.824 13.899,12.364 13.843 C 11.940 13.791,11.408 13.840,11.049 13.964 C 10.926 14.006,10.619 14.150,10.368 14.283 L 9.911 14.525 6.771 12.835 C 4.372 11.543,3.590 11.104,3.453 10.971 C 3.353 10.874,3.219 10.680,3.147 10.529 L 3.020 10.260 3.007 9.471 C 2.996 8.827,3.006 8.639,3.060 8.451 C 3.144 8.158,3.324 7.874,3.535 7.703 C 3.718 7.554,11.268 3.475,11.533 3.382 C 11.761 3.303,12.221 3.305,12.461 3.387 M5.678 13.945 C 7.133 14.728,8.318 15.375,8.312 15.381 C 8.305 15.388,7.508 15.820,6.540 16.341 C 5.572 16.862,4.738 17.327,4.686 17.374 C 4.466 17.575,4.423 17.851,4.563 18.160 C 4.732 18.534,5.019 18.714,5.332 18.642 C 5.416 18.623,6.505 18.059,7.752 17.388 C 9.000 16.718,10.101 16.132,10.200 16.085 C 10.299 16.038,10.470 15.944,10.580 15.875 C 10.690 15.807,10.958 15.659,11.176 15.548 C 11.538 15.363,11.601 15.343,11.902 15.328 C 12.147 15.315,12.285 15.329,12.445 15.382 C 12.663 15.454,13.393 15.836,13.664 16.020 C 13.745 16.075,13.830 16.120,13.852 16.120 C 13.875 16.120,14.933 16.680,16.204 17.364 C 17.476 18.048,18.584 18.623,18.668 18.642 C 18.981 18.714,19.268 18.534,19.437 18.160 C 19.577 17.851,19.534 17.575,19.314 17.374 C 19.262 17.327,18.428 16.862,17.460 16.341 C 16.492 15.820,15.695 15.388,15.688 15.381 C 15.677 15.370,20.952 12.520,20.985 12.520 C 20.994 12.520,20.997 14.172,20.991 16.190 L 20.980 19.860 20.867 20.104 C 20.724 20.413,20.415 20.721,20.100 20.868 L 19.860 20.980 12.000 20.980 L 4.140 20.980 3.896 20.867 C 3.587 20.724,3.279 20.415,3.132 20.100 L 3.020 19.860 3.009 16.190 C 3.003 14.172,3.006 12.520,3.015 12.520 C 3.024 12.520,4.222 13.161,5.678 13.945 " stroke="none" fill-rule="evenodd" fill="black"></path></svg>