<svg width="24" height="24" viewBox="0 0 24 24" fill="none" xmlns="http://www.w3.org/2000/svg"><path d="M11.320 1.584 C 10.758 1.706,10.087 2.120,9.712 2.574 C 9.471 2.867,2.015 15.760,1.849 16.171 C 1.642 16.683,1.599 17.422,1.743 17.993 C 1.826 18.322,2.126 18.904,2.348 19.169 C 2.738 19.633,3.294 19.989,3.880 20.149 C 4.125 20.216,4.593 20.220,12.000 20.220 C 19.407 20.220,19.875 20.216,20.120 20.149 C 20.706 19.989,21.262 19.633,21.652 19.169 C 21.874 18.904,22.174 18.322,22.257 17.993 C 22.400 17.424,22.358 16.683,22.152 16.175 C 21.988 15.768,14.527 2.867,14.288 2.575 C 13.904 2.107,13.237 1.703,12.647 1.581 C 12.290 1.507,11.671 1.508,11.320 1.584 M12.579 3.121 C 13.067 3.307,12.890 3.026,16.985 10.133 C 19.037 13.694,20.745 16.694,20.780 16.800 C 20.921 17.224,20.836 17.745,20.565 18.124 C 20.394 18.362,20.215 18.504,19.900 18.648 L 19.700 18.740 12.000 18.740 L 4.300 18.740 4.100 18.648 C 3.785 18.504,3.606 18.362,3.435 18.124 C 3.143 17.716,3.071 17.172,3.250 16.730 C 3.358 16.464,10.670 3.770,10.837 3.560 C 11.238 3.053,11.939 2.877,12.579 3.121 M11.787 8.278 C 11.598 8.316,11.444 8.427,11.340 8.604 C 11.263 8.735,11.260 8.812,11.260 10.880 C 11.260 12.948,11.263 13.025,11.340 13.156 C 11.488 13.407,11.602 13.460,12.000 13.460 C 12.398 13.460,12.512 13.407,12.660 13.156 C 12.736 13.026,12.741 12.936,12.753 11.100 C 12.767 8.977,12.756 8.745,12.627 8.554 C 12.469 8.319,12.137 8.210,11.787 8.278 M11.660 15.059 C 11.572 15.092,11.497 15.119,11.493 15.119 C 11.489 15.120,11.445 15.176,11.396 15.245 C 11.222 15.491,11.211 15.966,11.376 16.210 C 11.512 16.412,11.680 16.487,11.996 16.487 C 12.528 16.487,12.740 16.280,12.740 15.760 C 12.740 15.412,12.658 15.230,12.447 15.107 C 12.272 15.005,11.869 14.980,11.660 15.059 " stroke="none" fill-rule="evenodd" fill="black"></path></svg>