<svg width="24" height="24" viewBox="0 0 24 24" fill="none" xmlns="http://www.w3.org/2000/svg"><path d="M11.320 2.280 C 9.441 2.407,7.648 3.082,6.084 4.252 C 5.591 4.620,4.620 5.591,4.252 6.084 C 3.226 7.456,2.607 8.935,2.357 10.608 C 2.238 11.410,2.238 12.590,2.357 13.392 C 2.607 15.065,3.226 16.544,4.252 17.916 C 4.620 18.409,5.591 19.380,6.084 19.748 C 7.457 20.775,8.938 21.395,10.608 21.642 C 11.784 21.817,13.262 21.739,14.412 21.442 C 15.680 21.115,16.841 20.553,17.916 19.748 C 18.409 19.379,19.379 18.409,19.748 17.916 C 20.773 16.548,21.395 15.063,21.642 13.392 C 21.761 12.591,21.761 11.409,21.642 10.608 C 21.395 8.937,20.773 7.452,19.748 6.084 C 19.379 5.591,18.409 4.621,17.916 4.252 C 16.786 3.406,15.392 2.757,14.120 2.486 C 13.247 2.300,12.184 2.222,11.320 2.280 M13.180 3.838 C 14.600 4.049,15.862 4.579,17.009 5.445 C 17.434 5.766,18.234 6.566,18.555 6.991 C 20.636 9.747,20.811 13.444,18.999 16.366 C 18.375 17.371,17.371 18.375,16.366 18.999 C 13.687 20.661,10.313 20.661,7.634 18.999 C 6.629 18.375,5.625 17.371,5.001 16.366 C 3.491 13.931,3.342 10.873,4.609 8.343 C 5.042 7.479,5.477 6.878,6.177 6.177 C 7.056 5.299,8.001 4.686,9.125 4.266 C 10.372 3.800,11.867 3.642,13.180 3.838 M11.787 8.278 C 11.598 8.316,11.444 8.427,11.340 8.604 C 11.263 8.735,11.260 8.812,11.260 10.880 C 11.260 12.948,11.263 13.025,11.340 13.156 C 11.488 13.407,11.602 13.460,12.000 13.460 C 12.398 13.460,12.512 13.407,12.660 13.156 C 12.736 13.026,12.741 12.936,12.753 11.100 C 12.767 8.977,12.756 8.745,12.627 8.554 C 12.469 8.319,12.137 8.210,11.787 8.278 M11.660 15.059 C 11.572 15.092,11.497 15.119,11.493 15.119 C 11.489 15.120,11.445 15.176,11.396 15.245 C 11.222 15.491,11.211 15.966,11.376 16.210 C 11.510 16.410,11.681 16.487,11.993 16.489 C 12.522 16.493,12.740 16.280,12.740 15.760 C 12.740 15.412,12.658 15.230,12.447 15.107 C 12.272 15.005,11.869 14.980,11.660 15.059 " stroke="none" fill-rule="evenodd" fill="black"></path></svg>