<svg width="24" height="24" viewBox="0 0 24 24" fill="none" xmlns="http://www.w3.org/2000/svg"><path d="M2.729 2.283 C 2.519 2.389,2.293 2.646,2.233 2.848 C 2.124 3.211,1.431 2.485,11.473 12.527 C 19.777 20.831,20.676 21.719,20.830 21.759 C 21.085 21.825,21.288 21.755,21.522 21.522 C 21.756 21.288,21.825 21.084,21.758 20.830 C 21.719 20.682,21.533 20.479,20.321 19.260 L 18.929 17.860 19.267 17.580 C 20.189 16.817,21.123 15.695,21.763 14.580 C 22.258 13.720,22.800 12.371,22.800 12.002 C 22.800 11.721,22.423 10.684,22.054 9.948 C 21.237 8.324,19.808 6.698,18.306 5.684 C 15.893 4.056,12.976 3.433,10.060 3.923 C 8.903 4.118,7.817 4.487,6.777 5.040 L 6.335 5.275 4.897 3.836 C 4.107 3.044,3.405 2.362,3.338 2.320 C 3.140 2.196,2.927 2.183,2.729 2.283 M13.176 5.323 C 14.491 5.482,15.825 5.937,16.980 6.621 C 18.897 7.756,20.470 9.669,21.183 11.732 L 21.276 12.004 21.155 12.352 C 20.631 13.847,19.548 15.389,18.261 16.468 L 17.862 16.802 16.499 15.439 L 15.135 14.075 15.341 13.664 C 15.573 13.201,15.663 12.888,15.718 12.361 C 15.785 11.707,15.674 11.038,15.400 10.452 C 15.001 9.597,14.460 9.046,13.620 8.639 C 13.161 8.416,12.879 8.336,12.365 8.283 C 11.656 8.209,10.986 8.334,10.336 8.659 L 9.925 8.865 8.680 7.620 L 7.435 6.375 7.868 6.172 C 8.935 5.671,10.026 5.378,11.184 5.282 C 11.667 5.242,12.676 5.262,13.176 5.323 M3.684 7.507 C 3.433 7.634,2.658 8.665,2.199 9.482 C 1.699 10.371,1.200 11.629,1.200 12.000 C 1.200 12.239,1.437 12.936,1.761 13.652 C 2.584 15.468,4.051 17.207,5.694 18.316 C 7.878 19.790,10.546 20.458,13.146 20.181 C 13.808 20.111,14.020 20.074,14.689 19.914 C 15.211 19.790,15.390 19.704,15.535 19.509 C 15.703 19.282,15.596 18.721,15.339 18.479 C 15.194 18.343,14.873 18.329,14.445 18.438 C 11.927 19.084,9.256 18.703,7.020 17.379 C 5.735 16.618,4.582 15.493,3.743 14.180 C 3.459 13.736,3.009 12.818,2.845 12.350 L 2.722 12.000 2.844 11.650 C 3.135 10.812,3.794 9.640,4.379 8.920 C 4.692 8.535,4.760 8.406,4.760 8.196 C 4.760 7.714,4.103 7.293,3.684 7.507 M12.574 9.823 C 12.950 9.920,13.271 10.110,13.580 10.420 C 14.036 10.876,14.240 11.364,14.240 12.000 C 14.240 12.181,14.211 12.439,14.177 12.573 C 14.055 13.043,14.201 13.141,12.537 11.477 C 11.655 10.595,11.057 9.967,11.078 9.946 C 11.097 9.927,11.227 9.878,11.367 9.838 C 11.690 9.746,12.247 9.739,12.574 9.823 " stroke="none" fill-rule="evenodd" fill="black"></path></svg>