<svg width="24" height="24" viewBox="0 0 24 24" fill="none" xmlns="http://www.w3.org/2000/svg"><path d="M18.005 1.579 C 17.198 1.762,16.496 2.158,16.000 2.710 C 15.480 3.287,15.287 3.704,14.931 5.018 L 14.665 6.000 13.263 6.001 C 11.981 6.002,11.846 6.008,11.700 6.076 C 11.536 6.152,10.613 7.059,10.522 7.234 C 10.459 7.354,10.459 7.646,10.522 7.766 C 10.549 7.818,10.824 8.117,11.134 8.431 L 11.698 9.001 7.575 13.131 C 4.935 15.775,3.415 17.326,3.348 17.444 C 3.178 17.744,3.039 18.213,3.015 18.571 C 2.974 19.172,2.947 19.221,2.240 19.940 C 1.894 20.292,1.579 20.642,1.541 20.717 C 1.453 20.888,1.454 21.114,1.543 21.287 C 1.633 21.464,2.413 22.260,2.638 22.405 C 2.845 22.539,3.091 22.557,3.292 22.455 C 3.362 22.419,3.708 22.106,4.060 21.760 C 4.779 21.053,4.828 21.026,5.429 20.985 C 5.809 20.959,6.286 20.813,6.580 20.631 C 6.701 20.556,8.406 18.884,10.890 16.404 L 15.000 12.301 15.550 12.845 C 15.852 13.144,16.145 13.418,16.199 13.454 C 16.258 13.494,16.380 13.520,16.503 13.520 C 16.666 13.520,16.740 13.497,16.864 13.404 C 17.141 13.199,17.875 12.425,17.938 12.271 C 17.990 12.147,18.000 11.892,18.000 10.727 L 18.000 9.331 18.710 9.143 C 19.990 8.804,20.444 8.637,20.849 8.356 C 21.558 7.864,22.089 7.135,22.346 6.298 C 22.447 5.968,22.456 5.887,22.457 5.260 C 22.457 4.725,22.442 4.525,22.386 4.320 C 22.025 3.020,21.027 2.007,19.740 1.634 C 19.366 1.525,18.379 1.494,18.005 1.579 M19.276 3.061 C 20.068 3.248,20.754 3.940,20.944 4.745 C 21.033 5.123,21.001 5.646,20.866 6.015 C 20.681 6.525,20.284 6.979,19.799 7.238 C 19.643 7.320,19.126 7.480,18.236 7.718 C 17.484 7.920,16.862 8.108,16.803 8.151 C 16.746 8.193,16.660 8.287,16.610 8.360 C 16.520 8.491,16.520 8.499,16.520 10.066 C 16.520 10.932,16.507 11.640,16.490 11.640 C 16.451 11.640,12.360 7.549,12.360 7.510 C 12.360 7.494,13.068 7.480,13.934 7.480 C 15.501 7.480,15.509 7.480,15.640 7.390 C 15.713 7.341,15.806 7.254,15.848 7.199 C 15.889 7.143,16.084 6.498,16.281 5.765 C 16.519 4.881,16.681 4.354,16.763 4.200 C 17.082 3.602,17.718 3.135,18.360 3.028 C 18.592 2.989,19.038 3.005,19.276 3.061 M13.360 10.660 L 13.939 11.240 9.940 15.244 C 7.740 17.445,5.872 19.291,5.788 19.345 C 5.681 19.415,5.539 19.455,5.308 19.483 C 5.128 19.505,4.845 19.547,4.680 19.577 C 4.515 19.606,4.376 19.627,4.371 19.622 C 4.366 19.618,4.380 19.553,4.402 19.477 C 4.424 19.402,4.459 19.163,4.480 18.947 C 4.502 18.730,4.538 18.478,4.562 18.387 C 4.601 18.239,5.062 17.763,8.673 14.150 C 10.909 11.912,12.749 10.080,12.760 10.080 C 12.772 10.080,13.042 10.341,13.360 10.660 " stroke="none" fill-rule="evenodd" fill="black"></path></svg>