<svg width="24" height="24" viewBox="0 0 24 24" fill="none" xmlns="http://www.w3.org/2000/svg"><path d="M11.240 3.783 C 11.163 3.792,10.902 3.819,10.660 3.843 C 9.895 3.919,8.830 4.177,8.027 4.480 C 6.537 5.044,5.213 5.904,4.058 7.058 C 2.913 8.204,2.041 9.542,1.491 10.998 C 1.156 11.888,1.156 12.112,1.491 13.002 C 2.042 14.461,2.913 15.800,4.057 16.943 C 5.854 18.741,8.163 19.867,10.660 20.165 C 11.241 20.235,12.737 20.235,13.320 20.165 C 15.840 19.866,18.136 18.748,19.942 16.942 C 21.097 15.787,21.908 14.542,22.497 13.020 C 22.847 12.115,22.848 11.898,22.509 10.998 C 21.958 9.539,21.087 8.200,19.943 7.057 C 18.183 5.296,15.927 4.176,13.500 3.857 C 13.075 3.801,11.525 3.750,11.240 3.783 M13.180 5.323 C 15.278 5.576,17.233 6.515,18.793 8.018 C 19.792 8.981,20.691 10.357,21.140 11.612 L 21.280 12.004 21.137 12.392 C 20.812 13.272,20.214 14.326,19.600 15.100 C 19.288 15.493,18.524 16.260,18.120 16.585 C 16.724 17.710,14.944 18.459,13.140 18.684 C 12.624 18.748,11.373 18.747,10.860 18.683 C 8.310 18.364,6.025 17.101,4.415 15.120 C 3.801 14.365,3.172 13.259,2.861 12.390 L 2.721 12.000 2.862 11.610 C 3.065 11.043,3.515 10.162,3.872 9.629 C 4.861 8.155,6.134 7.034,7.698 6.262 C 8.859 5.688,10.051 5.372,11.460 5.264 C 11.750 5.242,12.807 5.278,13.180 5.323 M11.595 8.282 C 10.585 8.392,9.634 8.924,9.031 9.719 C 8.793 10.032,8.468 10.687,8.382 11.025 C 8.231 11.624,8.231 12.376,8.382 12.975 C 8.468 13.313,8.793 13.968,9.031 14.281 C 9.397 14.763,9.848 15.118,10.452 15.400 C 11.040 15.675,11.707 15.785,12.365 15.717 C 12.846 15.668,13.150 15.586,13.548 15.400 C 14.403 15.001,14.954 14.460,15.361 13.620 C 15.584 13.161,15.664 12.879,15.717 12.365 C 15.785 11.707,15.675 11.040,15.400 10.452 C 14.960 9.510,14.272 8.867,13.293 8.485 C 12.852 8.312,12.122 8.225,11.595 8.282 M12.574 9.823 C 12.950 9.920,13.271 10.110,13.580 10.420 C 14.036 10.876,14.240 11.364,14.240 12.000 C 14.240 12.636,14.036 13.124,13.580 13.580 C 13.124 14.036,12.636 14.240,12.000 14.240 C 11.364 14.240,10.876 14.036,10.420 13.580 C 9.964 13.124,9.760 12.636,9.760 12.000 C 9.760 11.364,9.964 10.876,10.420 10.420 C 10.879 9.962,11.336 9.768,11.974 9.763 C 12.177 9.761,12.434 9.787,12.574 9.823 " stroke="none" fill-rule="evenodd" fill="black"></path></svg>