<svg width="24" height="24" viewBox="0 0 24 24" fill="none" xmlns="http://www.w3.org/2000/svg"><path d="M11.320 2.280 C 9.441 2.407,7.648 3.082,6.084 4.252 C 5.591 4.620,4.620 5.591,4.252 6.084 C 3.226 7.456,2.607 8.935,2.357 10.608 C 2.238 11.410,2.238 12.590,2.357 13.392 C 2.607 15.065,3.226 16.544,4.252 17.916 C 4.620 18.409,5.591 19.380,6.084 19.748 C 7.457 20.775,8.938 21.395,10.608 21.642 C 11.784 21.817,13.262 21.739,14.412 21.442 C 15.680 21.115,16.841 20.553,17.916 19.748 C 18.409 19.379,19.379 18.409,19.748 17.916 C 20.773 16.548,21.395 15.063,21.642 13.392 C 21.761 12.591,21.761 11.409,21.642 10.608 C 21.395 8.937,20.773 7.452,19.748 6.084 C 19.379 5.591,18.409 4.621,17.916 4.252 C 16.786 3.406,15.392 2.757,14.120 2.486 C 13.247 2.300,12.184 2.222,11.320 2.280 M13.180 3.838 C 14.600 4.049,15.862 4.579,17.009 5.445 C 17.434 5.766,18.234 6.566,18.555 6.991 C 20.636 9.747,20.811 13.444,18.999 16.366 C 18.375 17.371,17.371 18.375,16.366 18.999 C 13.687 20.661,10.313 20.661,7.634 18.999 C 6.629 18.375,5.625 17.371,5.001 16.366 C 3.491 13.931,3.342 10.873,4.609 8.343 C 5.042 7.479,5.477 6.878,6.177 6.177 C 7.056 5.299,8.001 4.686,9.125 4.266 C 10.372 3.800,11.867 3.642,13.180 3.838 M9.240 8.268 C 8.733 8.348,8.363 8.807,8.280 9.459 C 8.157 10.432,8.656 11.240,9.380 11.239 C 9.863 11.238,10.250 10.889,10.421 10.303 C 10.525 9.946,10.491 9.297,10.352 8.995 C 10.118 8.484,9.681 8.198,9.240 8.268 M14.440 8.278 C 14.116 8.342,13.827 8.604,13.648 8.995 C 13.509 9.297,13.475 9.946,13.579 10.303 C 13.750 10.889,14.137 11.238,14.620 11.239 C 15.458 11.241,15.975 10.151,15.635 9.100 C 15.448 8.520,14.950 8.177,14.440 8.278 M8.540 14.466 C 8.127 14.684,7.939 15.115,8.105 15.466 C 8.243 15.756,9.039 16.381,9.680 16.701 C 11.101 17.412,12.899 17.412,14.320 16.701 C 14.961 16.381,15.757 15.756,15.895 15.466 C 16.063 15.112,15.869 14.675,15.452 14.465 C 15.170 14.322,14.925 14.397,14.554 14.740 C 13.836 15.402,12.982 15.734,12.000 15.734 C 11.016 15.734,10.205 15.419,9.445 14.742 C 9.310 14.620,9.146 14.494,9.081 14.461 C 8.931 14.383,8.693 14.386,8.540 14.466 " stroke="none" fill-rule="evenodd" fill="black"></path></svg>