<svg width="24" height="24" viewBox="0 0 24 24" fill="none" xmlns="http://www.w3.org/2000/svg"><path d="M2.910 3.803 C 2.329 3.941,1.804 4.434,1.603 5.031 C 1.520 5.277,1.520 5.301,1.520 12.000 C 1.520 18.699,1.520 18.723,1.603 18.969 C 1.775 19.479,2.090 19.828,2.600 20.075 L 2.900 20.220 11.860 20.232 C 18.614 20.241,20.874 20.233,21.040 20.197 C 21.665 20.064,22.188 19.591,22.397 18.969 C 22.480 18.723,22.480 18.699,22.480 12.000 C 22.480 5.301,22.480 5.277,22.397 5.031 C 22.227 4.526,21.886 4.152,21.374 3.910 L 21.100 3.780 12.080 3.774 C 6.936 3.770,2.996 3.783,2.910 3.803 M5.018 5.297 C 5.093 5.328,5.173 5.390,5.197 5.434 C 5.224 5.485,5.240 5.840,5.240 6.392 L 5.240 7.269 5.136 7.373 C 4.999 7.511,4.842 7.529,3.965 7.513 L 3.233 7.500 3.117 7.369 L 3.000 7.239 3.000 6.401 C 3.000 5.481,3.019 5.383,3.219 5.296 C 3.397 5.218,4.833 5.219,5.018 5.297 M17.018 5.297 C 17.093 5.328,17.173 5.390,17.197 5.434 C 17.227 5.490,17.240 6.371,17.240 8.265 L 17.240 11.016 17.133 11.128 L 17.025 11.240 12.000 11.240 L 6.975 11.240 6.867 11.128 L 6.760 11.016 6.760 8.265 C 6.760 6.374,6.773 5.490,6.803 5.434 C 6.908 5.238,6.766 5.243,11.991 5.242 C 16.121 5.240,16.904 5.249,17.018 5.297 M20.755 5.284 C 20.979 5.362,21.000 5.459,21.000 6.397 L 21.000 7.239 20.883 7.369 L 20.767 7.500 20.035 7.513 C 19.158 7.529,19.001 7.511,18.864 7.373 L 18.760 7.269 18.760 6.392 C 18.760 5.841,18.776 5.485,18.803 5.434 C 18.889 5.273,19.055 5.243,19.864 5.242 C 20.324 5.241,20.679 5.258,20.755 5.284 M5.123 9.117 L 5.240 9.234 5.240 10.125 L 5.240 11.016 5.133 11.128 L 5.025 11.240 4.129 11.240 L 3.234 11.240 3.117 11.123 L 3.000 11.006 3.000 10.126 L 3.000 9.246 3.123 9.123 L 3.246 9.000 4.126 9.000 L 5.006 9.000 5.123 9.117 M20.877 9.123 L 21.000 9.246 21.000 10.126 L 21.000 11.006 20.883 11.123 L 20.766 11.240 19.875 11.240 L 18.984 11.240 18.872 11.133 L 18.760 11.025 18.760 10.129 L 18.760 9.234 18.877 9.117 L 18.994 9.000 19.874 9.000 L 20.754 9.000 20.877 9.123 M5.133 12.872 L 5.240 12.984 5.240 13.875 L 5.240 14.766 5.123 14.883 L 5.006 15.000 4.126 15.000 L 3.246 15.000 3.123 14.877 L 3.000 14.754 3.000 13.874 L 3.000 12.994 3.117 12.877 L 3.234 12.760 4.129 12.760 L 5.025 12.760 5.133 12.872 M17.133 12.872 L 17.240 12.984 17.240 15.735 C 17.240 17.629,17.227 18.510,17.197 18.566 C 17.090 18.765,17.230 18.760,12.000 18.760 C 6.770 18.760,6.910 18.765,6.803 18.566 C 6.773 18.510,6.760 17.629,6.760 15.735 L 6.760 12.984 6.867 12.872 L 6.975 12.760 12.000 12.760 L 17.025 12.760 17.133 12.872 M20.883 12.877 L 21.000 12.994 21.000 13.874 L 21.000 14.754 20.877 14.877 L 20.754 15.000 19.874 15.000 L 18.994 15.000 18.877 14.883 L 18.760 14.766 18.760 13.875 L 18.760 12.984 18.867 12.872 L 18.975 12.760 19.871 12.760 L 20.766 12.760 20.883 12.877 M4.914 16.505 C 4.983 16.519,5.084 16.575,5.139 16.630 L 5.240 16.731 5.240 17.608 C 5.240 18.160,5.224 18.515,5.197 18.566 C 5.110 18.727,4.931 18.760,4.127 18.760 C 3.678 18.760,3.320 18.742,3.245 18.716 C 3.021 18.638,3.000 18.541,3.000 17.605 L 3.000 16.766 3.101 16.646 C 3.157 16.579,3.243 16.517,3.291 16.508 C 3.435 16.480,4.779 16.478,4.914 16.505 M20.883 16.631 L 21.000 16.761 21.000 17.603 C 21.000 18.541,20.979 18.638,20.755 18.716 C 20.680 18.742,20.322 18.760,19.873 18.760 C 19.069 18.760,18.890 18.727,18.803 18.566 C 18.776 18.515,18.760 18.160,18.760 17.608 L 18.760 16.731 18.863 16.628 C 18.920 16.571,19.005 16.516,19.053 16.506 C 19.101 16.496,19.506 16.491,19.953 16.494 L 20.767 16.500 20.883 16.631 " stroke="none" fill-rule="evenodd" fill="black"></path></svg>