<svg width="24" height="24" viewBox="0 0 24 24" fill="none" xmlns="http://www.w3.org/2000/svg"><path d="M11.380 2.283 C 10.268 2.360,9.340 2.616,8.320 3.128 C 7.376 3.602,7.079 3.859,7.081 4.199 C 7.083 4.516,7.385 4.921,7.678 5.000 C 7.890 5.057,8.001 5.025,8.380 4.798 C 9.553 4.097,10.485 3.815,11.764 3.772 C 12.530 3.747,12.862 3.779,13.560 3.943 C 15.310 4.357,16.824 5.457,17.767 7.000 C 18.008 7.395,18.055 7.489,18.264 8.010 C 18.684 9.056,18.804 9.967,18.723 11.520 C 18.596 13.972,18.219 15.767,17.282 18.380 C 17.135 18.788,17.134 18.994,17.275 19.193 C 17.404 19.375,17.728 19.520,18.005 19.520 C 18.395 19.520,18.512 19.370,18.851 18.440 C 19.438 16.828,19.848 15.135,20.060 13.440 C 20.222 12.147,20.284 10.457,20.199 9.640 C 19.843 6.206,17.362 3.347,14.006 2.502 C 13.211 2.302,12.254 2.222,11.380 2.283 M5.576 5.601 C 5.507 5.616,5.405 5.662,5.348 5.704 C 5.098 5.889,4.525 6.920,4.249 7.682 C 3.923 8.581,3.814 9.191,3.760 10.400 C 3.690 11.979,3.479 12.732,2.721 14.112 C 2.627 14.282,2.560 14.458,2.560 14.533 C 2.560 14.920,3.096 15.338,3.497 15.263 C 3.577 15.248,3.705 15.180,3.783 15.112 C 4.055 14.873,4.580 13.857,4.833 13.080 C 5.107 12.235,5.190 11.732,5.239 10.610 C 5.260 10.142,5.306 9.584,5.342 9.370 C 5.475 8.585,5.832 7.623,6.211 7.032 C 6.478 6.614,6.530 6.483,6.511 6.278 C 6.488 6.045,6.369 5.872,6.136 5.736 C 5.920 5.609,5.741 5.566,5.576 5.601 M11.560 6.024 C 11.483 6.034,11.277 6.070,11.102 6.104 C 9.316 6.452,7.875 7.928,7.583 9.710 C 7.551 9.902,7.514 10.348,7.500 10.700 C 7.400 13.280,6.581 15.432,4.980 17.320 C 4.822 17.507,4.662 17.718,4.626 17.788 C 4.485 18.061,4.586 18.407,4.873 18.634 C 5.314 18.984,5.611 18.903,6.120 18.293 C 7.942 16.109,8.890 13.656,8.983 10.880 C 9.017 9.878,9.127 9.418,9.458 8.901 C 9.874 8.250,10.578 7.747,11.311 7.576 C 11.660 7.494,12.340 7.494,12.689 7.576 C 13.598 7.788,14.433 8.499,14.782 9.357 C 14.981 9.847,15.010 10.127,14.982 11.300 C 14.957 12.346,14.959 12.384,15.039 12.512 C 15.154 12.696,15.397 12.798,15.724 12.799 C 16.026 12.800,16.203 12.711,16.330 12.493 C 16.478 12.239,16.538 10.383,16.420 9.704 C 16.182 8.342,15.299 7.148,14.059 6.514 C 13.638 6.298,13.339 6.192,12.903 6.102 C 12.584 6.036,11.822 5.992,11.560 6.024 M11.660 9.808 C 11.325 9.926,11.276 10.061,11.237 10.980 C 11.219 11.400,11.176 11.974,11.141 12.257 C 10.815 14.899,9.736 17.423,8.045 19.499 C 7.652 19.982,7.567 20.171,7.637 20.405 C 7.743 20.758,8.187 21.079,8.500 21.028 C 8.704 20.995,8.851 20.874,9.198 20.455 C 11.388 17.811,12.674 14.321,12.728 10.880 C 12.739 10.183,12.717 10.074,12.534 9.916 C 12.364 9.768,11.927 9.715,11.660 9.808 M14.746 14.920 C 14.606 14.963,14.490 15.065,14.417 15.207 C 14.386 15.265,14.238 15.688,14.086 16.147 C 13.590 17.647,13.060 18.767,12.190 20.153 C 11.993 20.468,11.813 20.785,11.790 20.858 C 11.698 21.158,11.879 21.477,12.245 21.663 C 12.480 21.782,12.696 21.787,12.876 21.677 C 13.058 21.566,13.105 21.505,13.480 20.912 C 14.375 19.491,14.996 18.173,15.549 16.520 C 15.799 15.772,15.841 15.432,15.706 15.231 C 15.559 15.013,15.012 14.836,14.746 14.920 " stroke="none" fill-rule="evenodd" fill="black"></path></svg>