<svg width="24" height="24" viewBox="0 0 24 24" fill="none" xmlns="http://www.w3.org/2000/svg"><path d="M12.088 2.027 C 11.923 2.108,11.403 2.564,10.972 3.004 C 9.735 4.269,8.794 6.051,8.461 7.760 C 8.425 7.947,8.382 8.152,8.367 8.215 L 8.340 8.330 8.020 8.070 C 7.621 7.747,7.090 7.197,6.782 6.788 C 6.408 6.291,6.046 6.146,5.703 6.358 C 5.553 6.451,5.120 6.932,4.776 7.388 C 4.031 8.376,3.428 9.730,3.185 10.960 C 2.603 13.910,3.464 16.849,5.538 18.992 C 7.002 20.505,8.782 21.395,10.920 21.683 C 11.107 21.708,11.593 21.729,12.000 21.729 C 13.582 21.729,14.896 21.400,16.280 20.658 C 17.101 20.218,17.772 19.706,18.462 18.992 C 19.792 17.618,20.616 15.950,20.907 14.040 C 20.991 13.489,21.001 12.182,20.926 11.600 C 20.598 9.054,19.149 6.708,17.024 5.281 C 16.850 5.164,16.367 4.892,15.951 4.675 C 15.117 4.241,14.644 3.947,14.220 3.599 C 13.875 3.315,13.330 2.755,13.031 2.376 C 12.904 2.216,12.745 2.063,12.667 2.026 C 12.491 1.943,12.258 1.943,12.088 2.027 M12.736 4.270 C 13.451 4.962,14.077 5.397,15.080 5.900 C 16.386 6.555,17.238 7.241,17.984 8.240 C 18.894 9.458,19.379 10.758,19.476 12.240 C 19.596 14.057,19.078 15.800,17.986 17.260 C 17.678 17.671,16.911 18.438,16.500 18.746 C 15.183 19.731,13.651 20.240,12.000 20.240 C 10.349 20.240,8.817 19.731,7.500 18.746 C 7.088 18.437,6.320 17.670,6.015 17.260 C 4.926 15.799,4.400 14.051,4.522 12.296 C 4.563 11.708,4.610 11.397,4.725 10.940 C 4.950 10.054,5.371 9.131,5.873 8.429 L 6.009 8.238 6.475 8.689 C 7.131 9.326,7.805 9.817,8.547 10.199 C 9.077 10.471,9.414 10.406,9.631 9.988 C 9.714 9.829,9.736 9.710,9.766 9.268 C 9.874 7.669,10.386 6.223,11.300 4.940 C 11.532 4.614,12.214 3.840,12.269 3.840 C 12.281 3.840,12.491 4.034,12.736 4.270 M12.191 9.849 C 12.033 9.923,11.479 10.476,11.184 10.854 C 10.734 11.431,10.350 12.135,10.128 12.790 L 10.016 13.119 9.725 12.980 C 9.565 12.903,9.269 12.733,9.067 12.603 C 8.617 12.312,8.508 12.268,8.307 12.302 C 8.113 12.335,7.854 12.560,7.756 12.780 C 7.541 13.265,7.456 14.347,7.579 15.045 C 7.854 16.618,9.016 17.980,10.520 18.492 C 11.031 18.666,11.416 18.727,12.000 18.727 C 13.248 18.727,14.304 18.292,15.177 17.420 C 16.035 16.561,16.480 15.476,16.480 14.240 C 16.480 13.291,16.234 12.477,15.718 11.718 C 15.506 11.405,15.004 10.880,14.686 10.638 C 14.358 10.389,13.642 10.034,13.240 9.922 C 12.860 9.815,12.340 9.779,12.191 9.849 M13.113 11.465 C 13.672 11.686,14.252 12.180,14.573 12.709 C 15.227 13.785,15.118 15.182,14.304 16.163 C 13.937 16.605,13.489 16.915,12.940 17.106 C 12.643 17.210,12.575 17.218,12.000 17.218 C 11.424 17.218,11.357 17.210,11.060 17.106 C 10.118 16.776,9.417 16.053,9.126 15.109 C 9.047 14.853,8.967 14.320,9.008 14.320 C 9.018 14.320,9.205 14.393,9.423 14.481 C 9.859 14.658,10.479 14.840,10.649 14.840 C 10.709 14.840,10.831 14.811,10.920 14.775 C 11.139 14.688,11.250 14.483,11.359 13.965 C 11.456 13.501,11.632 12.973,11.802 12.637 C 12.066 12.113,12.636 11.365,12.773 11.362 C 12.813 11.361,12.966 11.407,13.113 11.465 " stroke="none" fill-rule="evenodd" fill="black"></path></svg>