<svg width="24" height="24" viewBox="0 0 24 24" fill="none" xmlns="http://www.w3.org/2000/svg"><path d="M2.787 2.278 C 2.598 2.316,2.444 2.427,2.340 2.604 C 2.261 2.739,2.260 2.812,2.260 12.000 C 2.260 21.188,2.261 21.261,2.340 21.396 C 2.501 21.669,2.818 21.792,3.185 21.723 C 3.404 21.682,3.551 21.581,3.660 21.396 C 3.738 21.264,3.740 21.177,3.751 18.418 L 3.763 15.576 5.091 15.249 C 6.593 14.879,7.102 14.800,7.972 14.800 C 9.277 14.801,10.322 15.051,11.708 15.695 C 12.804 16.203,13.597 16.457,14.620 16.627 C 15.246 16.731,16.994 16.731,17.600 16.628 C 18.372 16.496,21.553 15.729,21.721 15.635 C 21.827 15.575,21.908 15.487,21.966 15.367 L 22.052 15.190 21.967 14.265 C 21.795 12.418,21.781 12.062,21.780 9.760 C 21.780 7.462,21.796 7.079,21.964 5.272 C 22.025 4.609,22.034 4.367,22.002 4.246 C 21.944 4.033,21.741 3.860,21.482 3.804 C 21.250 3.754,21.331 3.739,19.380 4.200 C 17.251 4.703,17.073 4.732,16.100 4.732 C 14.802 4.732,13.745 4.483,12.400 3.860 C 11.355 3.375,10.771 3.171,9.948 3.000 C 9.223 2.850,8.874 2.820,7.900 2.822 C 6.752 2.825,6.463 2.867,4.888 3.258 C 4.310 3.402,3.820 3.520,3.798 3.520 C 3.777 3.520,3.759 3.399,3.758 3.250 C 3.755 2.733,3.664 2.495,3.416 2.354 C 3.272 2.273,2.989 2.239,2.787 2.278 M9.160 4.380 C 10.045 4.520,10.708 4.730,11.668 5.174 C 12.401 5.513,12.618 5.603,13.080 5.754 C 14.569 6.241,16.180 6.360,17.745 6.097 C 17.946 6.063,18.630 5.914,19.265 5.764 C 19.900 5.615,20.423 5.494,20.427 5.497 C 20.431 5.499,20.409 5.870,20.377 6.321 C 20.282 7.669,20.243 9.648,20.283 11.073 C 20.317 12.274,20.407 13.862,20.465 14.267 C 20.493 14.466,20.685 14.397,18.980 14.796 C 17.253 15.201,17.137 15.218,16.100 15.217 C 15.170 15.216,14.886 15.183,14.074 14.978 C 13.522 14.839,13.093 14.680,12.394 14.356 C 11.675 14.023,11.345 13.889,10.880 13.742 C 9.438 13.287,7.774 13.179,6.281 13.443 C 5.920 13.507,4.177 13.920,3.830 14.024 C 3.764 14.044,3.760 13.813,3.760 9.564 L 3.760 5.083 3.910 5.043 C 5.298 4.671,6.691 4.368,7.300 4.305 C 7.630 4.270,8.755 4.316,9.160 4.380 " stroke="none" fill-rule="evenodd" fill="black"></path></svg>