<svg width="24" height="24" viewBox="0 0 24 24" fill="none" xmlns="http://www.w3.org/2000/svg"><path d="M4.100 3.025 C 4.056 3.034,3.921 3.060,3.800 3.084 C 3.502 3.144,2.972 3.395,2.691 3.612 C 2.115 4.055,1.717 4.668,1.579 5.323 C 1.490 5.747,1.490 18.253,1.579 18.677 C 1.801 19.730,2.712 20.653,3.800 20.925 C 4.128 21.007,19.872 21.007,20.200 20.925 C 21.076 20.706,21.871 20.044,22.239 19.227 C 22.489 18.672,22.480 18.886,22.480 13.505 C 22.480 8.142,22.487 8.319,22.244 7.783 C 21.943 7.119,21.419 6.592,20.746 6.277 C 20.184 6.014,20.361 6.027,16.940 6.001 C 15.224 5.987,13.813 5.973,13.805 5.968 C 13.796 5.964,13.211 5.388,12.505 4.689 C 11.379 3.574,11.184 3.398,10.930 3.267 C 10.416 2.999,10.438 3.001,7.140 3.005 C 5.512 3.008,4.144 3.016,4.100 3.025 M10.200 4.575 C 10.277 4.616,10.898 5.203,11.580 5.880 C 12.839 7.130,12.918 7.194,13.417 7.394 C 13.561 7.451,13.944 7.461,16.680 7.480 L 19.780 7.500 20.010 7.593 C 20.442 7.767,20.811 8.146,20.931 8.538 C 21.002 8.773,21.002 18.227,20.931 18.462 C 20.811 18.854,20.442 19.233,20.010 19.407 L 19.780 19.500 12.000 19.500 L 4.220 19.500 3.990 19.407 C 3.542 19.226,3.218 18.889,3.075 18.454 C 3.003 18.237,3.000 17.974,3.000 12.024 C 3.001 5.475,2.997 5.634,3.178 5.284 C 3.365 4.923,3.859 4.585,4.294 4.519 C 4.407 4.503,5.751 4.491,7.280 4.494 C 9.913 4.500,10.067 4.504,10.200 4.575 M11.660 9.806 C 11.507 9.863,11.409 9.949,11.326 10.100 C 11.267 10.207,11.259 10.468,11.248 12.435 L 11.236 14.651 10.328 13.751 C 9.829 13.256,9.362 12.822,9.292 12.786 C 9.135 12.705,8.873 12.701,8.726 12.777 C 8.553 12.867,8.290 13.176,8.237 13.355 C 8.136 13.693,8.166 13.731,9.937 15.519 C 10.991 16.584,11.593 17.162,11.694 17.209 C 11.891 17.299,12.109 17.299,12.306 17.209 C 12.407 17.162,13.009 16.584,14.063 15.519 C 15.834 13.731,15.864 13.693,15.763 13.355 C 15.710 13.176,15.447 12.867,15.274 12.777 C 15.127 12.701,14.865 12.705,14.708 12.786 C 14.638 12.822,14.171 13.257,13.670 13.753 L 12.760 14.655 12.758 12.557 C 12.757 11.404,12.741 10.382,12.723 10.286 C 12.683 10.077,12.575 9.921,12.416 9.842 C 12.271 9.769,11.819 9.748,11.660 9.806 " stroke="none" fill-rule="evenodd" fill="black"></path></svg>