<svg width="24" height="24" viewBox="0 0 24 24" fill="none" xmlns="http://www.w3.org/2000/svg"><path d="M4.100 3.025 C 4.056 3.034,3.921 3.060,3.800 3.084 C 3.502 3.144,2.972 3.395,2.691 3.612 C 2.115 4.055,1.717 4.668,1.579 5.323 C 1.490 5.747,1.490 18.253,1.579 18.677 C 1.801 19.730,2.712 20.653,3.800 20.925 C 4.128 21.007,19.872 21.007,20.200 20.925 C 21.076 20.706,21.871 20.044,22.239 19.227 C 22.489 18.672,22.480 18.886,22.480 13.505 C 22.480 8.142,22.487 8.319,22.244 7.783 C 21.943 7.119,21.419 6.592,20.746 6.277 C 20.184 6.014,20.361 6.027,16.940 6.001 C 15.224 5.987,13.813 5.973,13.805 5.968 C 13.796 5.964,13.211 5.388,12.505 4.689 C 11.379 3.574,11.184 3.398,10.930 3.267 C 10.416 2.999,10.438 3.001,7.140 3.005 C 5.512 3.008,4.144 3.016,4.100 3.025 M10.200 4.575 C 10.277 4.616,10.898 5.203,11.580 5.880 C 12.839 7.130,12.918 7.194,13.417 7.394 C 13.561 7.451,13.944 7.461,16.680 7.480 L 19.780 7.500 20.010 7.593 C 20.431 7.763,20.770 8.099,20.910 8.488 C 20.944 8.583,20.981 8.826,20.991 9.030 L 21.010 9.399 20.715 9.265 C 20.142 9.003,20.747 9.020,12.000 9.020 C 3.260 9.020,3.857 9.003,3.290 9.262 L 3.000 9.395 3.000 7.607 C 3.001 5.748,3.012 5.605,3.178 5.284 C 3.365 4.923,3.859 4.585,4.294 4.519 C 4.407 4.503,5.751 4.491,7.280 4.494 C 9.913 4.500,10.067 4.504,10.200 4.575 M20.010 10.593 C 20.442 10.767,20.811 11.146,20.931 11.538 C 21.002 11.772,21.002 18.228,20.931 18.462 C 20.811 18.854,20.442 19.233,20.010 19.407 L 19.780 19.500 12.000 19.500 L 4.220 19.500 3.990 19.407 C 3.542 19.226,3.218 18.889,3.075 18.454 C 3.004 18.240,3.000 18.045,3.000 15.024 C 3.001 11.663,3.003 11.622,3.178 11.284 C 3.365 10.923,3.860 10.584,4.294 10.520 C 4.407 10.503,7.938 10.492,12.140 10.495 L 19.780 10.500 20.010 10.593 " stroke="none" fill-rule="evenodd" fill="black"></path></svg>