<svg width="24" height="24" viewBox="0 0 24 24" fill="none" xmlns="http://www.w3.org/2000/svg"><path d="M5.499 3.043 C 4.391 3.229,3.462 4.048,3.123 5.139 C 3.024 5.459,3.023 5.468,3.009 7.333 L 2.995 9.206 2.850 9.267 C 2.096 9.582,1.397 10.422,1.176 11.280 C 1.046 11.783,1.075 12.109,1.555 15.460 C 1.801 17.176,2.039 18.706,2.085 18.860 C 2.377 19.852,3.181 20.630,4.200 20.909 C 4.445 20.976,4.900 20.980,12.000 20.980 C 19.111 20.980,19.555 20.976,19.800 20.909 C 20.394 20.746,20.971 20.378,21.348 19.922 C 21.595 19.624,21.851 19.130,21.939 18.785 C 21.972 18.655,22.199 17.152,22.444 15.445 C 22.923 12.111,22.953 11.778,22.824 11.280 C 22.603 10.424,21.904 9.582,21.154 9.269 L 21.013 9.209 20.988 8.835 C 20.904 7.555,20.077 6.501,18.861 6.123 L 18.540 6.023 16.180 5.999 C 14.882 5.986,13.813 5.972,13.805 5.968 C 13.796 5.963,13.211 5.388,12.505 4.689 C 11.379 3.574,11.184 3.398,10.930 3.267 C 10.431 3.007,10.362 3.001,7.900 3.005 C 6.690 3.008,5.609 3.025,5.499 3.043 M10.200 4.575 C 10.277 4.616,10.898 5.203,11.580 5.880 C 12.615 6.907,12.861 7.131,13.070 7.236 C 13.553 7.478,13.575 7.480,15.858 7.481 C 17.003 7.481,18.052 7.498,18.190 7.518 C 18.863 7.615,19.389 8.131,19.477 8.782 L 19.507 9.000 11.993 9.000 L 4.480 9.000 4.481 7.530 C 4.481 6.721,4.498 5.948,4.518 5.810 C 4.614 5.143,5.126 4.617,5.774 4.519 C 5.887 4.502,6.898 4.491,8.020 4.494 C 9.930 4.500,10.069 4.505,10.200 4.575 M20.132 10.522 C 20.636 10.615,21.029 10.905,21.244 11.342 C 21.459 11.778,21.458 11.788,20.983 15.120 C 20.750 16.759,20.538 18.190,20.514 18.300 C 20.372 18.933,19.879 19.388,19.235 19.482 C 18.897 19.530,5.103 19.530,4.765 19.482 C 4.121 19.388,3.628 18.933,3.486 18.300 C 3.462 18.190,3.250 16.759,3.017 15.120 C 2.542 11.788,2.541 11.778,2.756 11.342 C 2.893 11.064,3.192 10.761,3.437 10.652 C 3.815 10.484,3.672 10.487,11.963 10.483 C 17.337 10.481,19.979 10.494,20.132 10.522 " stroke="none" fill-rule="evenodd" fill="black"></path></svg>