<svg width="24" height="24" viewBox="0 0 24 24" fill="none" xmlns="http://www.w3.org/2000/svg"><path d="M3.820 6.844 C 3.058 6.954,2.395 7.633,2.282 8.420 C 2.228 8.796,2.227 16.721,2.281 17.096 C 2.456 18.303,3.784 19.025,4.883 18.509 C 5.047 18.433,6.710 17.495,8.580 16.425 L 11.980 14.480 12.001 15.850 C 12.020 17.131,12.027 17.234,12.107 17.430 C 12.367 18.068,12.768 18.432,13.420 18.622 C 13.699 18.703,14.195 18.685,14.480 18.582 C 14.579 18.547,16.325 17.569,18.360 16.409 C 21.652 14.533,22.087 14.274,22.302 14.060 C 22.672 13.693,22.838 13.285,22.839 12.740 C 22.840 12.106,22.556 11.568,22.031 11.208 C 21.791 11.044,14.865 7.088,14.619 6.975 C 13.788 6.593,12.674 6.972,12.230 7.789 C 12.027 8.161,12.001 8.383,12.001 9.754 C 12.000 10.793,11.991 11.005,11.946 10.988 C 11.916 10.976,10.382 10.104,8.536 9.049 C 6.690 7.994,5.090 7.086,4.979 7.030 C 4.624 6.850,4.226 6.786,3.820 6.844 M7.850 10.381 C 9.836 11.515,11.492 12.480,11.530 12.526 C 11.629 12.643,11.619 12.854,11.510 12.977 C 11.417 13.081,4.337 17.144,4.178 17.184 C 4.070 17.211,3.858 17.109,3.801 17.002 C 3.774 16.951,3.760 15.530,3.760 12.726 L 3.760 8.527 3.883 8.424 C 3.954 8.364,4.056 8.320,4.123 8.320 C 4.205 8.320,5.344 8.950,7.850 10.381 M17.544 10.352 C 19.500 11.470,21.139 12.410,21.187 12.440 C 21.372 12.558,21.412 12.818,21.270 12.975 C 21.221 13.030,19.551 14.004,17.560 15.140 C 13.615 17.391,13.829 17.287,13.600 17.058 L 13.500 16.958 13.488 12.869 C 13.482 10.620,13.488 8.720,13.501 8.646 C 13.533 8.467,13.696 8.320,13.860 8.320 C 13.957 8.320,14.878 8.828,17.544 10.352 " stroke="none" fill-rule="evenodd" fill="black"></path></svg>