<svg width="24" height="24" viewBox="0 0 24 24" fill="none" xmlns="http://www.w3.org/2000/svg"><path d="M10.960 2.265 C 9.039 2.306,6.923 2.481,4.940 2.764 C 3.447 2.978,3.228 3.049,2.817 3.458 C 2.329 3.943,2.212 4.387,2.252 5.600 C 2.283 6.556,2.373 6.891,2.752 7.480 C 2.838 7.612,4.061 8.871,5.823 10.640 C 7.433 12.257,8.782 13.640,8.819 13.714 C 9.001 14.076,8.999 14.027,9.000 17.685 L 9.000 21.151 9.112 21.365 C 9.260 21.648,9.428 21.760,9.703 21.760 C 9.899 21.760,10.047 21.694,11.668 20.884 C 12.631 20.403,13.531 19.934,13.668 19.843 C 14.060 19.579,14.451 19.131,14.660 18.705 C 14.974 18.065,14.971 18.093,14.999 15.980 C 15.024 14.097,15.031 14.012,15.179 13.718 C 15.218 13.642,16.567 12.257,18.177 10.640 C 19.939 8.871,21.162 7.612,21.248 7.480 C 21.627 6.891,21.717 6.556,21.748 5.600 C 21.788 4.387,21.671 3.943,21.183 3.458 C 20.772 3.049,20.553 2.977,19.060 2.764 C 16.428 2.388,13.545 2.211,10.960 2.265 M15.280 3.856 C 16.638 3.961,17.466 4.049,18.688 4.221 C 19.923 4.395,20.048 4.423,20.153 4.544 C 20.244 4.650,20.246 4.663,20.233 5.436 C 20.220 6.206,20.218 6.224,20.104 6.460 C 20.003 6.670,19.620 7.070,17.019 9.680 C 14.337 12.372,14.034 12.689,13.885 12.960 C 13.541 13.584,13.548 13.532,13.520 15.720 C 13.497 17.617,13.494 17.665,13.405 17.891 C 13.348 18.036,13.230 18.213,13.091 18.363 C 12.883 18.588,12.798 18.638,11.716 19.181 C 11.082 19.500,10.544 19.760,10.521 19.760 C 10.493 19.760,10.480 18.845,10.479 16.890 C 10.479 13.749,10.476 13.712,10.243 13.214 C 10.178 13.075,10.067 12.876,9.997 12.771 C 9.926 12.666,8.549 11.257,6.937 9.640 C 4.329 7.025,3.992 6.673,3.892 6.460 C 3.783 6.227,3.780 6.198,3.767 5.436 C 3.754 4.663,3.756 4.650,3.847 4.544 C 3.952 4.423,4.077 4.395,5.312 4.221 C 6.663 4.031,7.808 3.915,9.060 3.841 C 9.456 3.818,9.879 3.792,10.000 3.784 C 10.616 3.745,14.518 3.798,15.280 3.856 " stroke="none" fill-rule="evenodd" fill="black"></path></svg>