<svg width="24" height="24" viewBox="0 0 24 24" fill="none" xmlns="http://www.w3.org/2000/svg"><path d="M3.860 3.819 C 2.989 4.012,2.227 4.607,1.824 5.408 C 1.503 6.048,1.521 5.644,1.521 12.000 C 1.521 18.361,1.502 17.949,1.827 18.600 C 1.986 18.917,2.076 19.039,2.378 19.340 C 2.783 19.743,3.104 19.949,3.580 20.111 L 3.900 20.220 12.000 20.220 L 20.100 20.220 20.420 20.111 C 20.896 19.949,21.217 19.743,21.622 19.340 C 21.924 19.039,22.014 18.917,22.173 18.600 C 22.498 17.949,22.479 18.361,22.479 12.000 C 22.479 5.639,22.498 6.051,22.173 5.400 C 22.014 5.083,21.924 4.961,21.622 4.660 C 21.217 4.257,20.896 4.051,20.420 3.889 L 20.100 3.780 12.100 3.773 C 5.569 3.767,4.056 3.776,3.860 3.819 M20.048 5.352 C 20.461 5.519,20.806 5.902,20.939 6.343 C 21.029 6.640,21.029 17.360,20.939 17.657 C 20.806 18.098,20.461 18.481,20.048 18.648 L 19.820 18.740 12.000 18.740 L 4.180 18.740 3.950 18.647 C 3.629 18.518,3.313 18.217,3.151 17.888 L 3.020 17.622 3.020 12.001 L 3.020 6.380 3.127 6.151 C 3.334 5.711,3.753 5.372,4.202 5.283 C 4.301 5.264,7.784 5.251,12.100 5.254 L 19.820 5.260 20.048 5.352 M7.160 7.615 C 6.995 7.664,6.779 7.747,6.680 7.798 C 5.577 8.369,4.771 9.640,4.563 11.136 C 4.539 11.306,4.520 11.695,4.520 12.000 C 4.520 12.939,4.663 13.647,4.994 14.339 C 5.523 15.446,6.267 16.139,7.206 16.399 C 7.536 16.490,8.100 16.508,8.448 16.437 C 8.763 16.373,9.425 16.036,9.713 15.793 C 10.026 15.529,10.432 15.023,10.462 14.861 C 10.474 14.795,10.479 14.044,10.472 13.193 C 10.460 11.692,10.457 11.642,10.376 11.533 C 10.330 11.471,10.231 11.384,10.156 11.340 C 10.030 11.266,9.948 11.260,9.000 11.260 C 8.052 11.260,7.970 11.266,7.844 11.340 C 7.593 11.488,7.540 11.602,7.540 12.000 C 7.540 12.298,7.553 12.372,7.624 12.467 C 7.788 12.687,7.923 12.732,8.485 12.752 L 9.000 12.771 9.000 13.602 L 9.000 14.433 8.810 14.602 C 8.510 14.869,8.237 14.980,7.880 14.980 C 7.634 14.980,7.540 14.960,7.357 14.871 C 7.078 14.733,6.801 14.464,6.557 14.091 C 5.819 12.963,5.819 11.037,6.557 9.909 C 6.932 9.336,7.334 9.048,7.810 9.011 C 8.267 8.976,8.687 9.204,9.077 9.700 C 9.327 10.018,9.481 10.120,9.712 10.120 C 9.970 10.120,10.298 9.930,10.443 9.696 C 10.542 9.535,10.543 9.262,10.445 9.070 C 10.328 8.840,9.965 8.414,9.700 8.194 C 9.419 7.961,8.752 7.625,8.448 7.563 C 8.085 7.489,7.499 7.513,7.160 7.615 M12.316 7.603 C 12.237 7.650,12.138 7.745,12.096 7.814 C 12.023 7.936,12.020 8.082,12.020 12.000 C 12.020 15.925,12.023 16.064,12.096 16.186 C 12.138 16.256,12.243 16.352,12.329 16.400 C 12.462 16.475,12.534 16.486,12.800 16.474 C 13.157 16.458,13.293 16.387,13.410 16.157 C 13.475 16.029,13.480 15.748,13.480 12.000 C 13.480 8.252,13.475 7.971,13.410 7.843 C 13.290 7.608,13.158 7.541,12.787 7.529 C 12.512 7.519,12.437 7.531,12.316 7.603 M15.316 7.605 C 15.237 7.651,15.138 7.745,15.096 7.814 C 15.023 7.936,15.020 8.082,15.020 12.000 C 15.020 15.925,15.023 16.064,15.096 16.186 C 15.138 16.256,15.243 16.352,15.329 16.400 C 15.540 16.519,16.052 16.505,16.227 16.377 C 16.479 16.192,16.480 16.185,16.480 14.394 L 16.480 12.768 17.370 12.754 C 18.173 12.741,18.273 12.732,18.396 12.660 C 18.669 12.499,18.792 12.182,18.723 11.815 C 18.682 11.596,18.581 11.449,18.396 11.340 C 18.273 11.268,18.173 11.259,17.370 11.246 L 16.480 11.232 16.480 10.118 L 16.480 9.004 17.770 8.992 C 19.223 8.978,19.228 8.978,19.400 8.671 C 19.519 8.460,19.505 7.948,19.377 7.773 C 19.191 7.519,19.202 7.520,17.240 7.521 C 15.509 7.522,15.456 7.524,15.316 7.605 " stroke="none" fill-rule="evenodd" fill="black"></path></svg>