<svg width="24" height="24" viewBox="0 0 24 24" fill="none" xmlns="http://www.w3.org/2000/svg"><path d="M3.240 3.063 C 2.474 3.228,1.781 3.896,1.581 4.662 C 1.527 4.869,1.520 5.751,1.520 12.000 C 1.520 19.834,1.503 19.310,1.771 19.817 C 1.946 20.148,2.391 20.586,2.720 20.751 C 3.245 21.014,2.683 20.999,12.000 20.999 C 21.317 20.999,20.755 21.014,21.280 20.751 C 21.609 20.586,22.054 20.148,22.229 19.817 C 22.497 19.310,22.480 19.834,22.480 12.000 C 22.480 4.166,22.497 4.690,22.229 4.183 C 22.054 3.852,21.609 3.414,21.280 3.249 C 20.755 2.986,21.320 3.001,11.980 3.004 C 4.858 3.006,3.458 3.015,3.240 3.063 M11.240 5.768 L 11.240 7.056 11.110 6.932 C 10.808 6.645,10.238 6.367,9.783 6.283 C 9.450 6.223,8.832 6.231,8.500 6.300 C 8.346 6.332,8.049 6.443,7.840 6.546 C 7.516 6.705,7.403 6.790,7.076 7.116 C 6.750 7.443,6.665 7.556,6.506 7.880 C 6.281 8.336,6.201 8.685,6.201 9.220 C 6.201 9.917,6.380 10.475,6.768 10.990 L 6.957 11.240 4.978 11.240 L 3.000 11.240 3.001 8.170 C 3.002 5.271,3.006 5.091,3.076 4.940 C 3.116 4.852,3.196 4.737,3.254 4.684 C 3.469 4.486,3.479 4.486,7.490 4.483 L 11.240 4.480 11.240 5.768 M20.399 4.524 C 20.643 4.576,20.825 4.720,20.925 4.938 C 20.994 5.091,20.998 5.278,20.999 8.170 L 21.000 11.240 19.002 11.240 L 17.003 11.240 17.192 10.990 C 17.580 10.475,17.759 9.917,17.759 9.220 C 17.759 8.689,17.679 8.335,17.462 7.900 C 17.159 7.293,16.707 6.841,16.100 6.538 C 15.665 6.321,15.311 6.241,14.780 6.241 C 14.083 6.241,13.525 6.420,13.010 6.808 L 12.760 6.997 12.760 5.738 L 12.760 4.480 16.478 4.480 C 19.009 4.480,20.261 4.494,20.399 4.524 M9.803 7.866 C 10.162 8.035,10.442 8.331,10.664 8.780 C 10.935 9.330,11.120 10.182,11.120 10.890 L 11.120 11.160 10.862 11.160 C 10.473 11.160,9.732 11.053,9.343 10.940 C 8.600 10.724,8.039 10.317,7.817 9.831 C 7.718 9.614,7.702 9.531,7.702 9.220 C 7.701 8.910,7.717 8.827,7.813 8.620 C 8.170 7.849,9.052 7.515,9.803 7.866 M15.381 7.855 C 15.694 7.998,16.003 8.305,16.147 8.616 C 16.245 8.826,16.260 8.909,16.260 9.220 C 16.260 9.533,16.245 9.613,16.144 9.831 C 15.919 10.318,15.359 10.725,14.617 10.940 C 14.228 11.053,13.487 11.160,13.098 11.160 L 12.840 11.160 12.840 10.902 C 12.840 10.513,12.947 9.772,13.060 9.383 C 13.308 8.527,13.756 7.981,14.380 7.774 C 14.637 7.688,15.097 7.726,15.381 7.855 M10.456 12.970 C 10.419 13.261,10.269 13.769,10.126 14.086 C 9.736 14.955,8.915 15.766,8.040 16.145 C 7.592 16.339,7.202 16.432,6.579 16.492 C 5.950 16.553,5.844 16.596,5.718 16.845 C 5.631 17.015,5.612 17.401,5.683 17.587 C 5.750 17.765,5.911 17.907,6.108 17.962 C 6.467 18.063,7.610 17.904,8.287 17.660 C 9.437 17.245,10.549 16.347,11.133 15.360 L 11.239 15.180 11.240 17.350 L 11.240 19.520 7.522 19.520 C 4.991 19.520,3.739 19.506,3.601 19.476 C 3.357 19.424,3.175 19.280,3.075 19.062 C 3.006 18.909,3.002 18.722,3.001 15.830 L 3.000 12.760 6.741 12.760 L 10.483 12.760 10.456 12.970 M20.999 15.830 C 20.998 18.722,20.994 18.909,20.925 19.062 C 20.825 19.280,20.643 19.424,20.399 19.476 C 20.261 19.506,19.009 19.520,16.478 19.520 L 12.760 19.520 12.760 17.380 C 12.760 16.203,12.766 15.240,12.774 15.240 C 12.782 15.240,12.862 15.353,12.951 15.490 C 13.691 16.633,14.949 17.510,16.320 17.838 C 16.829 17.960,17.665 18.026,17.892 17.962 C 18.089 17.907,18.250 17.765,18.317 17.587 C 18.380 17.421,18.369 17.065,18.295 16.880 C 18.186 16.606,18.067 16.553,17.424 16.493 C 16.486 16.406,15.804 16.160,15.165 15.679 C 14.288 15.018,13.681 14.005,13.541 12.970 L 13.512 12.760 17.256 12.760 L 21.000 12.760 20.999 15.830 " stroke="none" fill-rule="evenodd" fill="black"></path></svg>