<svg width="24" height="24" viewBox="0 0 24 24" fill="none" xmlns="http://www.w3.org/2000/svg"><path d="M8.660 1.579 C 6.509 2.054,5.389 4.415,6.375 6.398 L 6.553 6.756 4.726 6.768 L 2.900 6.780 2.600 6.925 C 2.088 7.173,1.775 7.521,1.601 8.037 C 1.520 8.277,1.516 8.354,1.528 9.457 L 1.540 10.624 1.688 10.922 C 1.924 11.400,2.383 11.799,2.830 11.918 L 3.000 11.963 3.000 15.812 C 3.000 18.304,3.015 19.752,3.043 19.920 C 3.162 20.662,3.802 21.391,4.560 21.651 L 4.820 21.740 12.140 21.752 C 17.137 21.760,19.568 21.750,19.800 21.721 C 20.772 21.599,21.592 20.791,21.719 19.827 C 21.745 19.631,21.760 18.101,21.760 15.738 L 21.760 11.962 21.870 11.935 C 22.269 11.837,22.755 11.463,22.988 11.074 C 23.210 10.704,23.240 10.501,23.240 9.380 C 23.240 8.291,23.211 8.078,23.014 7.716 C 22.882 7.473,22.527 7.118,22.284 6.986 C 21.881 6.766,21.802 6.760,19.532 6.760 C 18.381 6.760,17.440 6.749,17.440 6.736 C 17.440 6.723,17.474 6.665,17.515 6.606 C 17.633 6.438,17.833 5.953,17.899 5.675 C 18.310 3.939,17.332 2.214,15.620 1.655 C 15.185 1.513,14.448 1.479,13.957 1.578 C 13.310 1.709,12.757 2.002,12.271 2.472 L 12.000 2.733 11.729 2.472 C 11.251 2.010,10.693 1.711,10.072 1.583 C 9.701 1.507,8.996 1.505,8.660 1.579 M9.862 3.062 C 10.455 3.217,10.978 3.720,11.161 4.313 C 11.232 4.541,11.240 4.686,11.240 5.667 L 11.240 6.767 10.110 6.752 C 9.036 6.737,8.968 6.732,8.740 6.642 C 7.743 6.251,7.248 5.159,7.628 4.188 C 7.768 3.830,8.140 3.409,8.479 3.224 C 8.880 3.006,9.409 2.944,9.862 3.062 M15.099 3.061 C 15.534 3.175,15.926 3.459,16.198 3.860 C 16.857 4.832,16.398 6.196,15.260 6.642 C 15.032 6.732,14.964 6.737,13.890 6.752 L 12.760 6.767 12.760 5.667 C 12.760 4.445,12.791 4.249,13.039 3.873 C 13.500 3.178,14.315 2.857,15.099 3.061 M11.240 9.381 L 11.240 10.522 7.237 10.511 L 3.233 10.500 3.117 10.369 L 3.000 10.239 3.000 9.401 C 3.000 8.481,3.019 8.383,3.219 8.296 C 3.316 8.253,4.112 8.243,7.290 8.242 L 11.240 8.240 11.240 9.381 M21.629 8.371 L 21.740 8.482 21.751 9.331 C 21.762 10.276,21.750 10.334,21.519 10.450 C 21.389 10.515,21.093 10.520,17.070 10.520 L 12.760 10.520 12.760 9.379 L 12.760 8.239 17.139 8.249 L 21.518 8.260 21.629 8.371 M11.240 16.120 L 11.240 20.240 8.163 20.240 C 6.086 20.240,5.049 20.226,4.973 20.197 C 4.833 20.145,4.654 19.979,4.566 19.820 C 4.506 19.711,4.499 19.350,4.489 15.850 L 4.478 12.000 7.859 12.000 L 11.240 12.000 11.240 16.120 M20.240 15.842 C 20.240 19.532,20.237 19.689,20.164 19.832 C 20.078 20.001,19.994 20.083,19.812 20.175 C 19.697 20.233,19.334 20.240,16.222 20.240 L 12.760 20.240 12.760 16.120 L 12.760 12.000 16.500 12.000 L 20.240 12.000 20.240 15.842 " stroke="none" fill-rule="evenodd" fill="black"></path></svg>