<svg width="24" height="24" viewBox="0 0 24 24" fill="none" xmlns="http://www.w3.org/2000/svg"><path d="M11.320 2.282 C 9.456 2.402,7.649 3.081,6.084 4.252 C 5.591 4.620,4.620 5.591,4.252 6.084 C 3.226 7.456,2.606 8.936,2.357 10.608 C 2.253 11.312,2.242 12.531,2.334 13.243 C 2.604 15.319,3.537 17.264,4.979 18.756 C 6.988 20.833,9.724 21.897,12.590 21.718 C 14.574 21.594,16.349 20.935,17.927 19.736 C 18.416 19.364,19.364 18.428,19.696 17.988 C 19.825 17.817,19.983 17.621,20.046 17.554 C 20.108 17.487,20.160 17.413,20.160 17.389 C 20.160 17.366,20.266 17.166,20.395 16.944 C 20.997 15.910,21.384 14.891,21.574 13.840 C 21.806 12.554,21.785 11.144,21.514 9.880 C 20.976 7.371,19.327 5.060,17.101 3.698 C 15.715 2.849,14.275 2.392,12.640 2.281 C 12.011 2.238,11.999 2.238,11.320 2.282 M12.014 3.830 C 12.024 3.869,12.045 3.971,12.060 4.058 C 12.090 4.237,12.243 4.557,12.392 4.752 C 12.447 4.824,12.795 5.136,13.165 5.444 C 14.032 6.167,14.022 6.130,13.548 6.840 C 13.122 7.477,12.963 7.616,12.432 7.815 C 11.887 8.018,11.546 8.314,11.315 8.784 C 11.056 9.309,11.064 9.907,11.335 10.441 C 11.485 10.737,11.510 10.870,11.438 11.003 C 11.413 11.050,10.832 11.364,10.005 11.777 C 9.240 12.160,8.557 12.522,8.486 12.581 C 8.162 12.854,8.164 13.043,8.500 13.893 C 8.654 14.282,8.750 14.579,8.735 14.619 C 8.704 14.699,8.545 14.767,8.463 14.736 C 8.431 14.723,8.221 14.468,7.996 14.169 C 7.507 13.518,7.387 13.400,7.020 13.217 C 6.647 13.031,6.292 12.973,5.912 13.036 C 5.244 13.146,4.794 13.504,4.437 14.210 C 4.318 14.446,4.209 14.640,4.195 14.640 C 4.156 14.640,3.961 13.914,3.875 13.448 C 3.756 12.805,3.729 11.607,3.819 10.944 C 3.979 9.751,4.374 8.645,5.001 7.634 C 5.625 6.629,6.629 5.625,7.634 5.001 C 8.842 4.252,10.380 3.776,11.627 3.764 C 11.945 3.760,11.997 3.769,12.014 3.830 M14.640 4.183 C 14.871 4.259,15.294 4.436,15.580 4.577 C 17.265 5.402,18.572 6.696,19.381 8.340 C 19.976 9.551,20.240 10.667,20.240 11.979 C 20.240 13.120,20.011 14.293,19.615 15.187 L 19.512 15.420 19.366 15.258 C 18.998 14.848,18.391 14.477,17.873 14.344 C 17.747 14.312,17.456 14.273,17.224 14.258 L 16.804 14.229 16.580 14.040 C 16.137 13.665,15.740 13.520,15.160 13.520 C 14.753 13.520,14.435 13.596,14.104 13.771 C 13.799 13.933,13.415 14.309,13.241 14.616 C 12.966 15.102,12.890 15.151,12.060 15.384 C 11.366 15.578,11.149 15.685,10.855 15.978 C 10.389 16.443,10.227 16.944,10.315 17.648 C 10.429 18.557,10.707 19.011,11.341 19.323 C 11.520 19.412,11.678 19.452,11.961 19.482 C 12.535 19.543,12.826 19.679,13.059 19.998 C 13.151 20.124,13.154 20.140,13.093 20.174 C 12.987 20.234,11.588 20.255,11.124 20.205 C 9.192 19.993,7.410 19.116,6.057 17.712 C 5.675 17.315,5.196 16.715,5.055 16.455 C 4.989 16.334,4.990 16.327,5.090 16.195 C 5.146 16.121,5.355 15.732,5.555 15.332 C 5.758 14.926,5.953 14.585,5.997 14.562 C 6.040 14.539,6.138 14.520,6.215 14.520 C 6.375 14.520,6.433 14.580,7.008 15.336 C 7.524 16.015,7.879 16.219,8.540 16.220 C 8.939 16.220,9.177 16.151,9.472 15.951 C 9.735 15.771,9.909 15.579,10.035 15.328 C 10.308 14.788,10.293 14.293,9.982 13.552 C 9.958 13.495,10.138 13.391,11.083 12.918 C 12.097 12.411,12.237 12.329,12.448 12.119 C 12.728 11.839,12.897 11.501,12.964 11.090 C 13.029 10.691,12.970 10.357,12.758 9.931 L 12.593 9.600 12.667 9.453 C 12.732 9.323,12.783 9.289,13.115 9.157 C 13.546 8.985,13.953 8.721,14.209 8.447 C 14.432 8.210,15.097 7.219,15.231 6.928 C 15.355 6.656,15.397 6.120,15.319 5.795 C 15.195 5.280,15.015 5.040,14.302 4.444 C 13.982 4.177,13.720 3.951,13.720 3.942 C 13.720 3.913,14.223 4.044,14.640 4.183 M15.520 8.276 C 15.330 8.315,15.169 8.427,15.094 8.572 C 15.060 8.638,15.017 8.865,14.998 9.076 C 14.937 9.771,14.778 10.126,14.296 10.640 C 13.998 10.957,13.960 11.026,13.960 11.250 C 13.960 11.595,14.382 12.040,14.709 12.040 C 15.116 12.040,15.783 11.362,16.144 10.581 C 16.381 10.066,16.457 9.723,16.459 9.153 C 16.460 8.594,16.425 8.496,16.176 8.354 C 16.037 8.274,15.713 8.236,15.520 8.276 M15.384 15.042 C 15.444 15.064,15.616 15.199,15.766 15.340 C 16.167 15.718,16.198 15.730,16.920 15.759 C 17.496 15.783,17.556 15.793,17.773 15.901 C 18.080 16.052,18.406 16.404,18.518 16.703 L 18.602 16.930 18.433 17.155 C 18.185 17.484,17.432 18.224,17.040 18.524 C 16.400 19.013,15.790 19.362,15.059 19.657 C 14.864 19.736,14.692 19.800,14.676 19.800 C 14.660 19.800,14.582 19.669,14.504 19.510 C 14.233 18.962,13.818 18.554,13.260 18.285 C 12.893 18.108,12.706 18.058,12.268 18.018 C 11.899 17.985,11.872 17.957,11.804 17.554 C 11.756 17.268,11.780 17.145,11.905 17.034 C 11.946 16.997,12.267 16.884,12.618 16.782 C 12.969 16.680,13.376 16.533,13.524 16.455 C 13.862 16.278,14.200 15.944,14.408 15.582 C 14.606 15.239,14.703 15.126,14.860 15.056 C 15.006 14.992,15.236 14.985,15.384 15.042 " stroke="none" fill-rule="evenodd" fill="black"></path></svg>