<svg width="24" height="24" viewBox="0 0 24 24" fill="none" xmlns="http://www.w3.org/2000/svg"><path d="M11.348 2.283 C 9.073 2.419,6.923 3.369,5.254 4.972 C 3.713 6.454,2.717 8.343,2.380 10.426 C 2.222 11.405,2.232 12.701,2.405 13.666 C 2.452 13.927,2.502 14.233,2.517 14.346 C 2.531 14.459,2.563 14.576,2.586 14.606 C 2.610 14.636,2.669 14.794,2.718 14.959 C 3.214 16.616,4.344 18.301,5.740 19.466 C 7.535 20.963,9.648 21.726,12.000 21.726 C 14.419 21.726,16.540 20.938,18.380 19.356 C 19.730 18.196,20.798 16.577,21.282 14.959 C 21.331 14.794,21.390 14.636,21.414 14.606 C 21.437 14.576,21.469 14.459,21.483 14.346 C 21.498 14.233,21.549 13.924,21.596 13.661 C 21.836 12.324,21.751 10.631,21.380 9.340 C 20.645 6.785,18.933 4.662,16.596 3.407 C 15.643 2.896,14.658 2.560,13.597 2.384 C 13.285 2.332,11.954 2.226,11.880 2.246 C 11.869 2.249,11.630 2.266,11.348 2.283 M12.543 3.857 C 12.900 3.986,13.171 4.180,13.550 4.575 C 13.920 4.960,14.120 5.244,14.418 5.808 C 14.881 6.685,15.289 7.919,15.494 9.064 L 15.516 9.189 15.168 9.295 C 14.182 9.597,13.184 9.735,12.000 9.735 C 10.816 9.735,9.818 9.597,8.832 9.295 L 8.484 9.189 8.506 9.064 C 8.766 7.608,9.336 6.078,9.967 5.149 C 10.185 4.829,10.708 4.286,10.978 4.100 C 11.474 3.758,12.032 3.671,12.543 3.857 M8.480 4.690 C 7.966 5.545,7.449 6.902,7.181 8.100 C 7.122 8.364,7.067 8.587,7.059 8.595 C 7.011 8.643,5.632 7.808,5.260 7.505 L 5.141 7.408 5.278 7.214 C 5.846 6.412,6.699 5.599,7.540 5.059 C 7.745 4.928,8.554 4.483,8.593 4.481 C 8.601 4.480,8.550 4.574,8.480 4.690 M16.376 5.010 C 17.274 5.571,18.181 6.426,18.719 7.217 L 18.853 7.413 18.736 7.508 C 18.368 7.808,16.989 8.642,16.941 8.595 C 16.933 8.587,16.878 8.364,16.819 8.100 C 16.551 6.902,16.075 5.648,15.540 4.728 L 15.393 4.476 15.722 4.641 C 15.903 4.732,16.198 4.898,16.376 5.010 M4.923 9.101 C 5.420 9.434,6.092 9.818,6.535 10.019 L 6.850 10.163 6.825 10.371 C 6.811 10.486,6.788 11.032,6.774 11.585 C 6.747 12.656,6.789 13.476,6.921 14.439 C 6.961 14.736,6.988 14.985,6.980 14.993 C 6.961 15.012,6.778 14.954,6.171 14.737 C 5.520 14.504,5.295 14.408,4.553 14.051 L 3.925 13.750 3.882 13.485 C 3.789 12.920,3.762 12.598,3.762 12.020 C 3.761 11.352,3.805 10.884,3.921 10.326 C 4.073 9.596,4.370 8.737,4.453 8.788 C 4.479 8.804,4.690 8.944,4.923 9.101 M19.713 9.075 C 20.080 10.035,20.239 10.922,20.240 12.008 C 20.240 12.546,20.167 13.323,20.088 13.620 C 20.051 13.760,19.768 13.923,18.880 14.316 C 18.216 14.609,17.058 15.031,17.020 14.993 C 17.012 14.985,17.039 14.736,17.079 14.439 C 17.211 13.476,17.253 12.656,17.226 11.585 C 17.212 11.032,17.190 10.488,17.176 10.375 L 17.151 10.171 17.645 9.928 C 18.210 9.651,18.890 9.248,19.276 8.962 C 19.421 8.854,19.552 8.764,19.566 8.763 C 19.581 8.761,19.647 8.902,19.713 9.075 M8.726 10.819 C 9.878 11.125,10.633 11.216,12.000 11.216 C 13.367 11.216,14.122 11.125,15.274 10.819 C 15.479 10.765,15.662 10.720,15.679 10.720 C 15.697 10.720,15.724 11.034,15.740 11.418 C 15.786 12.519,15.675 13.999,15.463 15.096 C 15.429 15.270,15.397 15.416,15.391 15.422 C 15.362 15.448,13.999 15.642,13.540 15.685 C 12.871 15.748,11.129 15.748,10.460 15.685 C 10.001 15.642,8.638 15.448,8.609 15.422 C 8.603 15.416,8.571 15.270,8.537 15.096 C 8.325 13.999,8.214 12.519,8.260 11.418 C 8.276 11.034,8.303 10.720,8.321 10.720 C 8.338 10.720,8.521 10.765,8.726 10.819 M6.193 16.335 C 6.494 16.433,6.887 16.552,7.066 16.600 L 7.392 16.687 7.439 16.871 C 7.582 17.442,8.136 18.736,8.484 19.317 L 8.614 19.533 8.186 19.310 C 7.106 18.745,6.140 17.924,5.402 16.943 C 5.141 16.596,4.680 15.863,4.680 15.796 C 4.680 15.781,4.897 15.856,5.163 15.963 C 5.428 16.070,5.892 16.237,6.193 16.335 M19.135 16.139 C 18.399 17.427,17.168 18.603,15.815 19.309 L 15.389 19.532 15.538 19.276 C 15.907 18.640,16.418 17.439,16.561 16.871 L 16.608 16.688 17.062 16.563 C 17.617 16.410,18.410 16.140,18.920 15.929 C 19.129 15.843,19.307 15.778,19.315 15.785 C 19.324 15.792,19.243 15.951,19.135 16.139 M10.000 17.143 C 11.224 17.279,13.148 17.258,14.413 17.095 C 14.674 17.061,14.896 17.042,14.906 17.053 C 14.966 17.113,14.346 18.390,14.033 18.851 C 13.815 19.171,13.292 19.714,13.023 19.900 C 12.372 20.348,11.628 20.348,10.977 19.900 C 10.708 19.714,10.185 19.171,9.967 18.851 C 9.684 18.434,9.080 17.212,9.080 17.057 C 9.080 17.042,9.165 17.041,9.270 17.056 C 9.375 17.071,9.703 17.110,10.000 17.143 " stroke="none" fill-rule="evenodd" fill="black"></path></svg>