<svg width="24" height="24" viewBox="0 0 24 24" fill="none" xmlns="http://www.w3.org/2000/svg"><path d="M11.620 2.266 C 10.877 2.296,9.912 2.453,9.228 2.656 C 9.048 2.709,8.846 2.763,8.780 2.777 C 8.714 2.790,8.570 2.845,8.460 2.899 C 8.350 2.953,8.066 3.087,7.828 3.197 C 5.341 4.349,3.364 6.687,2.624 9.351 C 2.171 10.980,2.147 12.822,2.558 14.412 C 2.885 15.679,3.445 16.837,4.252 17.916 C 4.620 18.409,5.591 19.380,6.084 19.748 C 7.457 20.775,8.939 21.395,10.608 21.642 C 11.268 21.740,12.533 21.760,13.140 21.683 C 15.398 21.394,17.303 20.461,18.901 18.862 C 19.980 17.781,20.740 16.567,21.218 15.160 C 21.613 13.997,21.719 13.323,21.724 11.960 C 21.731 9.816,21.070 7.849,19.748 6.084 C 19.379 5.591,18.409 4.621,17.916 4.252 C 16.786 3.406,15.392 2.757,14.120 2.486 C 13.356 2.323,12.365 2.236,11.620 2.266 M13.180 3.838 C 14.600 4.049,15.862 4.579,17.009 5.445 C 17.434 5.766,18.234 6.566,18.555 6.991 C 19.240 7.898,19.733 8.921,20.001 9.995 C 20.114 10.445,20.241 11.271,20.239 11.532 L 20.237 11.660 20.154 11.560 C 20.108 11.505,19.803 10.924,19.475 10.270 C 18.860 9.040,18.716 8.821,18.432 8.676 C 17.989 8.450,17.561 8.504,17.072 8.849 C 17.018 8.887,16.873 8.859,16.312 8.698 C 15.701 8.523,15.576 8.500,15.240 8.500 C 14.897 8.500,14.835 8.512,14.600 8.624 C 13.938 8.941,13.609 9.490,13.648 10.216 C 13.679 10.815,13.918 11.164,14.624 11.645 C 15.047 11.932,15.154 12.068,15.099 12.243 C 15.083 12.292,14.949 12.473,14.801 12.645 C 14.361 13.153,14.243 13.502,14.241 14.289 C 14.240 14.501,14.215 14.712,14.176 14.829 C 14.140 14.934,13.781 15.570,13.377 16.243 C 12.603 17.534,12.451 17.729,12.097 17.885 C 11.859 17.991,11.543 18.026,11.421 17.960 C 11.368 17.932,11.307 17.862,11.285 17.805 C 11.262 17.747,11.237 17.313,11.228 16.840 C 11.210 15.882,11.178 15.707,10.932 15.206 C 10.542 14.416,10.021 14.001,8.789 13.501 C 8.282 13.294,7.998 13.003,7.842 12.529 C 7.744 12.230,7.739 12.018,7.821 11.701 C 8.025 10.920,8.639 10.402,9.363 10.400 C 9.486 10.400,9.899 10.463,10.280 10.540 C 11.064 10.698,11.405 10.714,11.751 10.606 C 12.202 10.465,12.652 10.091,12.859 9.682 C 12.916 9.570,13.028 9.258,13.108 8.989 C 13.236 8.563,13.254 8.446,13.255 8.080 C 13.256 7.739,13.239 7.618,13.167 7.435 C 12.956 6.901,12.594 6.566,11.835 6.201 C 11.227 5.908,11.068 5.920,10.643 6.291 C 10.239 6.644,9.926 6.760,9.382 6.760 C 8.996 6.760,8.584 6.908,8.320 7.142 C 8.145 7.297,8.063 7.323,7.966 7.256 C 7.919 7.223,7.880 7.168,7.880 7.135 C 7.880 7.102,8.228 6.493,8.654 5.783 C 9.079 5.073,9.462 4.408,9.504 4.306 C 9.570 4.143,9.603 4.113,9.760 4.063 C 10.659 3.776,12.118 3.680,13.180 3.838 M6.903 5.795 C 6.519 6.432,6.430 6.645,6.409 6.981 C 6.351 7.885,6.911 8.604,7.801 8.770 C 8.254 8.854,8.709 8.727,9.144 8.395 C 9.331 8.252,9.368 8.240,9.604 8.240 C 10.159 8.239,10.773 8.060,11.179 7.781 L 11.377 7.645 11.535 7.732 C 11.630 7.786,11.714 7.872,11.748 7.953 C 11.799 8.074,11.793 8.121,11.684 8.507 C 11.471 9.254,11.465 9.257,10.591 9.081 C 9.724 8.907,9.424 8.876,9.032 8.921 C 8.143 9.022,7.361 9.505,6.856 10.264 C 6.452 10.872,6.279 11.426,6.281 12.114 C 6.282 12.752,6.468 13.312,6.860 13.863 C 7.217 14.362,7.619 14.647,8.445 14.985 C 9.145 15.271,9.376 15.445,9.580 15.840 C 9.727 16.125,9.759 16.357,9.760 17.162 C 9.760 18.020,9.800 18.267,9.989 18.594 C 10.150 18.871,10.482 19.176,10.786 19.326 C 11.027 19.445,11.099 19.460,11.466 19.474 C 11.995 19.493,12.368 19.412,12.852 19.170 C 13.154 19.021,13.282 18.925,13.560 18.644 C 13.868 18.333,13.969 18.186,14.606 17.120 C 14.994 16.471,15.368 15.826,15.438 15.686 C 15.621 15.321,15.715 14.903,15.746 14.325 L 15.773 13.820 16.025 13.540 C 16.164 13.386,16.325 13.173,16.384 13.066 C 16.749 12.396,16.643 11.492,16.134 10.929 C 16.049 10.835,15.801 10.637,15.583 10.489 C 15.132 10.183,15.070 10.113,15.166 10.017 C 15.225 9.957,15.289 9.969,15.965 10.165 C 16.600 10.350,16.746 10.378,17.040 10.378 C 17.301 10.377,17.424 10.357,17.571 10.290 L 17.762 10.204 18.226 11.132 C 18.481 11.642,18.765 12.177,18.858 12.320 C 18.950 12.463,19.263 12.826,19.554 13.126 L 20.082 13.673 20.043 13.846 C 19.725 15.245,18.984 16.614,17.963 17.689 C 15.494 20.290,11.536 20.990,8.343 19.391 C 7.479 18.958,6.878 18.523,6.177 17.823 C 5.477 17.122,5.042 16.521,4.609 15.657 C 3.478 13.399,3.470 10.638,4.587 8.382 C 4.993 7.561,5.619 6.703,6.286 6.052 C 6.597 5.748,7.126 5.313,7.153 5.339 C 7.161 5.348,7.049 5.553,6.903 5.795 " stroke="none" fill-rule="evenodd" fill="black"></path></svg>