<svg width="24" height="24" viewBox="0 0 24 24" fill="none" xmlns="http://www.w3.org/2000/svg"><path d="M11.297 2.282 C 9.374 2.408,7.672 3.074,5.880 4.400 C 5.592 4.613,4.836 5.370,4.461 5.820 C 3.564 6.896,2.812 8.432,2.500 9.825 C 2.252 10.930,2.197 12.312,2.357 13.392 C 2.606 15.064,3.226 16.544,4.252 17.916 C 4.620 18.409,5.591 19.380,6.084 19.748 C 7.457 20.775,8.938 21.395,10.608 21.642 C 11.784 21.817,13.262 21.739,14.412 21.442 C 15.680 21.115,16.841 20.553,17.916 19.748 C 18.409 19.379,19.379 18.409,19.748 17.916 C 21.186 15.996,21.866 13.745,21.717 11.393 C 21.611 9.719,21.177 8.342,20.303 6.906 C 18.908 4.612,16.497 2.930,13.904 2.441 C 13.094 2.288,12.113 2.228,11.297 2.282 M13.068 3.821 C 13.951 3.934,14.850 4.204,15.611 4.582 C 16.268 4.909,16.235 4.861,16.005 5.166 C 15.701 5.567,15.326 5.884,14.496 6.442 C 14.075 6.724,13.684 7.011,13.626 7.081 C 13.432 7.310,13.435 7.515,13.638 7.949 C 13.705 8.092,13.760 8.216,13.760 8.224 C 13.760 8.275,13.593 8.214,13.184 8.014 C 12.745 7.800,12.705 7.788,12.346 7.769 C 12.038 7.753,11.918 7.765,11.694 7.833 C 11.062 8.026,10.503 8.569,10.311 9.176 C 10.250 9.369,10.237 9.508,10.248 9.840 C 10.267 10.421,10.380 10.659,10.885 11.181 C 11.314 11.625,11.632 11.808,12.112 11.888 C 12.383 11.934,12.461 11.928,13.184 11.808 C 13.885 11.693,13.975 11.686,14.075 11.737 C 14.280 11.843,15.540 12.920,15.585 13.029 C 15.635 13.147,15.575 13.415,15.361 14.023 C 14.952 15.185,14.335 16.103,13.232 17.190 C 12.599 17.814,12.571 17.829,12.281 17.681 C 12.010 17.542,12.000 17.508,11.999 16.721 C 11.999 15.920,11.948 15.629,11.750 15.283 C 11.670 15.142,11.325 14.758,10.811 14.236 C 10.118 13.532,10.000 13.394,10.000 13.291 C 10.000 13.225,10.107 12.954,10.238 12.688 C 10.368 12.422,10.487 12.142,10.502 12.065 C 10.557 11.770,10.494 11.686,9.322 10.500 C 8.499 9.667,8.158 9.293,7.992 9.040 C 7.468 8.242,7.291 7.725,7.060 6.320 C 7.004 5.979,6.949 5.652,6.937 5.594 C 6.917 5.495,6.951 5.463,7.408 5.157 C 8.431 4.471,9.654 4.004,10.910 3.821 C 11.409 3.748,12.504 3.748,13.068 3.821 M17.885 6.230 C 19.429 7.818,20.240 9.806,20.240 12.000 C 20.240 13.835,19.668 15.535,18.555 17.009 C 18.234 17.434,17.434 18.234,17.009 18.555 C 14.253 20.636,10.556 20.811,7.634 18.999 C 6.629 18.375,5.625 17.371,5.001 16.366 C 4.181 15.044,3.761 13.577,3.760 12.039 C 3.760 10.683,4.012 9.579,4.598 8.380 C 4.898 7.766,5.562 6.735,5.614 6.804 C 5.620 6.813,5.673 7.063,5.730 7.360 C 5.908 8.277,6.223 9.079,6.681 9.780 C 6.995 10.260,7.140 10.426,8.028 11.322 L 8.844 12.144 8.701 12.444 C 8.442 12.990,8.443 13.586,8.705 14.117 C 8.833 14.376,8.955 14.519,9.676 15.251 L 10.500 16.088 10.520 16.934 L 10.540 17.780 10.689 18.091 C 11.185 19.131,12.480 19.548,13.480 18.990 C 13.729 18.851,14.711 17.882,15.192 17.301 C 15.978 16.351,16.589 15.192,16.964 13.940 C 17.188 13.191,17.138 12.653,16.795 12.121 C 16.698 11.971,16.421 11.712,15.820 11.212 C 14.522 10.131,14.397 10.090,13.068 10.315 C 12.698 10.377,12.353 10.420,12.300 10.410 C 12.248 10.400,12.096 10.278,11.962 10.139 C 11.757 9.926,11.720 9.865,11.720 9.742 C 11.720 9.625,11.753 9.565,11.899 9.419 C 12.028 9.290,12.110 9.240,12.193 9.240 C 12.256 9.240,12.509 9.339,12.755 9.459 C 13.043 9.601,13.291 9.693,13.452 9.719 C 14.136 9.828,14.796 9.476,15.097 8.840 C 15.209 8.603,15.220 8.543,15.222 8.163 L 15.224 7.745 15.758 7.388 C 16.344 6.996,16.838 6.548,17.185 6.095 C 17.310 5.933,17.424 5.800,17.439 5.800 C 17.455 5.800,17.655 5.994,17.885 6.230 " stroke="none" fill-rule="evenodd" fill="black"></path></svg>