<svg width="24" height="24" viewBox="0 0 24 24" fill="none" xmlns="http://www.w3.org/2000/svg"><path d="M13.804 1.566 C 13.609 1.622,13.282 1.841,13.124 2.021 C 13.049 2.107,12.942 2.276,12.886 2.398 C 12.791 2.603,12.781 2.680,12.756 3.380 C 12.696 5.080,12.344 5.698,11.000 6.459 C 9.901 7.082,9.089 7.761,8.231 8.774 C 7.861 9.210,7.468 9.560,7.282 9.619 C 7.226 9.637,7.157 9.590,7.018 9.442 C 6.915 9.332,6.729 9.191,6.605 9.130 L 6.380 9.020 5.460 9.021 C 4.433 9.022,4.256 9.050,3.729 9.300 C 3.008 9.640,2.605 10.115,2.268 11.020 C 1.519 13.032,1.316 15.511,1.722 17.700 C 1.854 18.410,2.073 19.197,2.229 19.520 C 2.439 19.953,2.934 20.438,3.400 20.668 C 3.958 20.943,4.136 20.975,5.120 20.978 L 5.980 20.980 6.206 20.869 C 6.632 20.660,6.926 20.226,6.981 19.724 L 7.009 19.468 7.513 19.495 C 7.790 19.510,8.135 19.549,8.278 19.582 C 8.422 19.615,9.350 19.911,10.340 20.239 C 11.330 20.567,12.302 20.868,12.500 20.908 C 12.825 20.973,13.108 20.980,15.420 20.980 C 18.270 20.980,18.182 20.987,18.780 20.699 C 19.177 20.508,19.498 20.229,19.849 19.772 C 20.982 18.294,21.783 16.592,22.179 14.821 C 22.378 13.932,22.445 13.361,22.468 12.340 C 22.511 10.435,22.357 9.786,21.700 9.117 C 21.435 8.846,21.141 8.640,20.815 8.496 C 20.326 8.280,20.233 8.271,18.281 8.244 C 16.615 8.222,16.460 8.214,16.448 8.152 C 16.441 8.115,16.491 7.958,16.559 7.803 C 17.025 6.740,17.280 5.433,17.229 4.360 C 17.189 3.527,16.948 2.989,16.340 2.378 C 16.039 2.076,15.917 1.986,15.600 1.827 C 15.390 1.722,15.095 1.612,14.940 1.579 C 14.625 1.514,14.010 1.507,13.804 1.566 M14.907 3.160 C 15.377 3.392,15.679 3.837,15.742 4.389 C 15.809 4.981,15.590 6.192,15.275 6.968 C 15.000 7.647,14.963 7.770,14.961 8.005 L 14.960 8.229 14.465 8.248 C 13.923 8.269,13.786 8.316,13.624 8.533 C 13.553 8.628,13.540 8.702,13.540 9.000 C 13.540 9.398,13.593 9.512,13.844 9.660 C 13.976 9.738,14.071 9.741,17.000 9.760 C 19.990 9.780,20.022 9.781,20.207 9.866 C 20.459 9.983,20.734 10.244,20.838 10.464 C 21.026 10.865,21.048 12.536,20.880 13.655 C 20.686 14.944,20.209 16.351,19.592 17.452 C 19.163 18.218,18.531 19.095,18.290 19.259 C 17.932 19.502,17.961 19.500,15.400 19.500 C 13.598 19.500,13.005 19.488,12.820 19.447 C 12.688 19.417,11.743 19.117,10.720 18.779 C 9.697 18.442,8.707 18.135,8.520 18.098 C 8.302 18.055,7.865 18.022,7.302 18.005 L 6.423 17.980 6.332 17.689 C 6.092 16.921,5.980 16.014,6.013 15.100 C 6.057 13.871,6.321 12.804,6.839 11.759 C 7.115 11.202,7.103 11.216,7.383 11.147 C 8.015 10.991,8.695 10.540,9.184 9.952 C 9.913 9.078,10.748 8.343,11.540 7.880 C 12.569 7.278,13.042 6.904,13.412 6.404 C 13.940 5.689,14.240 4.648,14.240 3.524 L 14.240 2.989 14.450 3.014 C 14.565 3.027,14.771 3.093,14.907 3.160 M5.793 10.511 C 5.786 10.529,5.678 10.740,5.554 10.981 C 5.090 11.880,4.821 12.697,4.633 13.780 C 4.554 14.232,4.542 14.440,4.542 15.380 C 4.541 16.541,4.589 16.963,4.821 17.851 C 4.941 18.310,5.218 19.128,5.295 19.249 C 5.326 19.299,5.365 19.383,5.380 19.436 L 5.409 19.532 4.935 19.510 C 4.365 19.483,4.073 19.389,3.810 19.147 C 3.589 18.943,3.549 18.865,3.406 18.354 C 3.166 17.501,3.047 16.695,3.012 15.700 C 2.963 14.272,3.220 12.716,3.723 11.403 C 3.921 10.886,4.249 10.606,4.755 10.521 C 5.002 10.479,5.810 10.472,5.793 10.511 " stroke="none" fill-rule="evenodd" fill="black"></path></svg>