<svg width="24" height="24" viewBox="0 0 24 24" fill="none" xmlns="http://www.w3.org/2000/svg"><path d="M11.140 0.801 C 10.475 0.933,9.841 1.437,9.529 2.080 C 9.449 2.245,9.379 2.387,9.373 2.396 C 9.367 2.404,9.249 2.379,9.111 2.340 C 8.808 2.255,8.232 2.245,7.920 2.319 C 7.513 2.415,7.204 2.597,6.858 2.940 C 6.308 3.487,6.162 3.886,6.161 4.846 L 6.160 5.393 5.950 5.334 C 5.626 5.243,4.958 5.254,4.640 5.355 C 3.853 5.605,3.224 6.290,3.057 7.076 C 3.011 7.293,3.001 8.120,3.001 11.706 C 3.000 14.475,3.015 16.223,3.042 16.486 C 3.219 18.230,3.965 19.801,5.202 21.038 C 6.434 22.270,7.957 23.002,9.702 23.201 C 10.317 23.271,13.200 23.230,13.626 23.146 C 14.545 22.964,15.460 22.548,16.212 21.971 C 16.512 21.742,18.106 20.180,18.624 19.609 C 19.246 18.923,19.661 18.222,19.941 17.384 C 20.182 16.666,20.208 16.443,20.228 14.924 L 20.247 13.548 20.407 13.347 C 20.603 13.098,20.731 12.850,20.824 12.538 C 20.925 12.199,20.915 11.548,20.804 11.197 C 20.630 10.646,20.164 10.107,19.632 9.841 C 19.228 9.638,18.957 9.585,18.460 9.611 C 17.983 9.636,17.749 9.703,17.392 9.919 C 17.245 10.007,17.114 10.080,17.102 10.080 C 17.090 10.080,17.080 8.761,17.080 7.148 C 17.080 3.901,17.087 3.992,16.817 3.480 C 16.553 2.977,16.016 2.525,15.483 2.355 C 15.149 2.249,14.446 2.239,14.140 2.336 C 14.030 2.371,13.922 2.399,13.900 2.399 C 13.878 2.400,13.826 2.314,13.784 2.210 C 13.508 1.527,12.793 0.928,12.103 0.803 C 11.834 0.754,11.378 0.753,11.140 0.801 M11.849 2.282 C 12.018 2.329,12.197 2.467,12.330 2.653 L 12.420 2.780 12.440 7.160 L 12.460 11.540 12.554 11.691 C 12.690 11.910,12.843 11.978,13.200 11.979 C 13.549 11.980,13.713 11.905,13.853 11.680 L 13.940 11.540 13.960 7.913 L 13.980 4.287 14.100 4.116 C 14.277 3.866,14.518 3.750,14.826 3.769 C 15.145 3.788,15.357 3.927,15.499 4.212 L 15.600 4.416 15.600 9.364 L 15.600 14.312 15.340 14.357 C 14.719 14.465,13.832 14.847,13.308 15.231 C 12.648 15.716,12.389 16.024,12.393 16.319 C 12.397 16.610,12.652 16.937,12.971 17.059 C 13.233 17.159,13.392 17.100,13.801 16.754 C 14.579 16.095,15.193 15.839,16.188 15.758 C 16.689 15.717,16.828 15.666,16.976 15.467 C 17.055 15.361,17.061 15.289,17.086 14.207 C 17.109 13.226,17.125 13.014,17.196 12.744 C 17.303 12.339,17.436 12.052,17.656 11.745 C 18.111 11.113,18.484 10.950,18.948 11.181 C 19.216 11.315,19.368 11.533,19.391 11.818 C 19.415 12.100,19.356 12.262,19.125 12.550 C 18.780 12.980,18.786 12.945,18.758 14.600 C 18.732 16.164,18.710 16.359,18.492 17.000 C 18.205 17.841,17.962 18.164,16.563 19.563 C 15.164 20.962,14.841 21.206,14.000 21.492 C 13.366 21.708,13.190 21.728,11.789 21.749 C 9.658 21.780,9.002 21.675,7.860 21.121 C 6.429 20.427,5.330 19.181,4.826 17.680 C 4.645 17.140,4.566 16.748,4.520 16.145 C 4.466 15.460,4.468 7.659,4.522 7.409 C 4.602 7.034,4.940 6.763,5.327 6.761 C 5.564 6.760,5.674 6.802,5.858 6.963 C 6.155 7.225,6.138 7.060,6.160 9.820 C 6.182 12.513,6.175 12.441,6.406 12.611 C 6.632 12.778,7.133 12.784,7.372 12.623 C 7.634 12.447,7.618 12.696,7.640 8.320 C 7.662 3.883,7.638 4.230,7.942 3.963 C 8.126 3.802,8.236 3.760,8.473 3.761 C 8.867 3.763,9.203 4.038,9.276 4.418 C 9.298 4.529,9.330 5.997,9.348 7.680 C 9.379 10.620,9.384 10.746,9.460 10.900 C 9.605 11.191,10.032 11.318,10.448 11.193 C 10.633 11.137,10.782 10.974,10.837 10.768 C 10.863 10.672,10.864 9.765,10.840 8.160 C 10.819 6.807,10.802 5.070,10.802 4.300 C 10.802 3.021,10.808 2.886,10.876 2.740 C 11.052 2.360,11.451 2.171,11.849 2.282 " stroke="none" fill-rule="evenodd" fill="black"></path></svg>