<svg width="24" height="24" viewBox="0 0 24 24" fill="none" xmlns="http://www.w3.org/2000/svg"><path d="M6.100 3.027 C 5.370 3.136,4.742 3.491,4.288 4.054 C 3.073 5.557,2.190 7.424,1.786 9.343 C 1.571 10.363,1.540 10.693,1.541 12.020 C 1.541 13.432,1.579 13.724,1.826 14.228 C 2.076 14.736,2.550 15.197,3.094 15.458 C 3.640 15.721,3.707 15.729,5.719 15.756 C 7.385 15.778,7.540 15.786,7.552 15.848 C 7.559 15.885,7.509 16.042,7.441 16.197 C 6.975 17.259,6.722 18.559,6.771 19.640 C 6.808 20.468,7.051 21.010,7.660 21.622 C 7.961 21.923,8.083 22.014,8.400 22.173 C 8.880 22.413,9.246 22.492,9.780 22.472 C 10.106 22.460,10.216 22.439,10.376 22.359 C 10.684 22.204,10.941 21.948,11.088 21.650 C 11.217 21.388,11.218 21.379,11.244 20.623 C 11.303 18.918,11.654 18.302,13.000 17.541 C 14.099 16.919,14.949 16.199,15.900 15.085 C 16.076 14.879,16.304 14.649,16.406 14.574 L 16.593 14.438 16.637 14.645 C 16.733 15.089,17.012 15.436,17.435 15.635 C 17.657 15.739,17.670 15.740,18.540 15.737 C 19.558 15.734,19.782 15.695,20.320 15.430 C 20.590 15.297,20.731 15.192,21.002 14.921 C 21.403 14.522,21.544 14.274,21.810 13.500 C 22.506 11.481,22.670 9.195,22.275 7.040 C 22.162 6.426,21.940 5.591,21.818 5.325 C 21.467 4.557,20.755 4.010,19.857 3.820 C 19.486 3.741,18.207 3.738,17.952 3.815 C 17.686 3.894,17.424 4.092,17.273 4.326 L 17.140 4.531 16.560 4.505 C 16.241 4.491,15.863 4.452,15.720 4.419 C 15.577 4.385,14.670 4.095,13.705 3.775 C 12.739 3.454,11.785 3.154,11.585 3.109 C 11.239 3.030,11.088 3.025,8.720 3.018 C 7.345 3.013,6.166 3.018,6.100 3.027 M11.280 4.575 C 11.423 4.612,12.350 4.911,13.340 5.239 C 14.330 5.567,15.302 5.866,15.500 5.904 C 15.702 5.942,16.175 5.982,16.579 5.996 L 17.298 6.020 17.451 6.414 C 17.630 6.870,17.808 7.530,17.907 8.100 C 18.012 8.704,18.002 10.137,17.888 10.760 C 17.790 11.299,17.655 11.777,17.445 12.337 L 17.294 12.740 17.060 12.769 C 16.189 12.879,15.446 13.302,14.822 14.043 C 14.063 14.944,13.266 15.645,12.460 16.119 C 11.642 16.601,11.417 16.755,11.092 17.058 C 10.682 17.440,10.482 17.703,10.255 18.158 C 9.929 18.813,9.760 19.601,9.760 20.476 L 9.760 21.011 9.550 20.986 C 9.063 20.929,8.541 20.520,8.355 20.050 C 8.275 19.850,8.264 19.751,8.266 19.300 C 8.271 18.465,8.439 17.696,8.809 16.820 C 8.969 16.441,9.015 16.280,9.031 16.055 L 9.050 15.770 9.540 15.752 C 10.076 15.731,10.214 15.684,10.376 15.467 C 10.447 15.372,10.460 15.298,10.460 15.000 C 10.460 14.602,10.407 14.488,10.156 14.340 C 10.024 14.262,9.929 14.259,7.000 14.240 C 4.010 14.220,3.978 14.219,3.793 14.134 C 3.541 14.017,3.266 13.756,3.162 13.536 C 2.974 13.135,2.952 11.464,3.120 10.345 C 3.403 8.467,4.159 6.685,5.325 5.153 C 5.647 4.730,5.869 4.586,6.300 4.518 C 6.410 4.501,7.517 4.492,8.760 4.497 C 10.728 4.506,11.054 4.516,11.280 4.575 M19.678 5.316 C 20.036 5.428,20.280 5.622,20.436 5.920 C 20.535 6.108,20.738 6.909,20.837 7.500 C 21.155 9.404,21.007 11.206,20.379 13.055 C 20.181 13.638,20.066 13.829,19.811 13.998 C 19.500 14.203,19.312 14.244,18.722 14.231 L 18.193 14.220 18.278 14.111 C 18.457 13.885,18.957 12.657,19.136 12.007 C 19.400 11.049,19.460 10.560,19.460 9.380 C 19.460 7.879,19.290 6.967,18.776 5.708 C 18.679 5.471,18.600 5.268,18.600 5.258 C 18.600 5.248,18.787 5.240,19.016 5.240 C 19.314 5.240,19.503 5.262,19.678 5.316 " stroke="none" fill-rule="evenodd" fill="black"></path></svg>