<svg width="24" height="24" viewBox="0 0 24 24" fill="none" xmlns="http://www.w3.org/2000/svg"><path d="M10.687 1.519 C 10.516 1.560,10.335 1.734,10.274 1.917 C 10.247 1.995,9.980 3.284,9.681 4.780 L 9.136 7.500 7.011 7.520 C 4.941 7.539,4.883 7.542,4.773 7.623 C 4.596 7.753,4.520 7.942,4.520 8.255 C 4.520 8.575,4.614 8.783,4.814 8.904 C 4.933 8.976,5.053 8.981,6.890 8.991 L 8.841 9.003 8.820 9.091 C 8.798 9.180,7.640 14.970,7.640 14.988 C 7.640 14.993,6.700 15.002,5.550 15.009 C 3.531 15.020,3.455 15.023,3.321 15.101 C 3.102 15.231,3.020 15.409,3.020 15.760 C 3.020 16.114,3.093 16.268,3.322 16.396 C 3.467 16.478,3.516 16.480,5.395 16.480 C 6.889 16.480,7.320 16.491,7.320 16.529 C 7.320 16.556,7.085 17.755,6.798 19.193 C 6.431 21.029,6.283 21.845,6.303 21.934 C 6.370 22.249,6.552 22.410,6.918 22.480 C 7.308 22.554,7.620 22.401,7.726 22.083 C 7.753 22.005,8.020 20.716,8.319 19.220 L 8.864 16.500 11.092 16.490 C 12.839 16.482,13.320 16.490,13.320 16.529 C 13.320 16.556,13.085 17.755,12.798 19.193 C 12.431 21.029,12.283 21.845,12.303 21.934 C 12.370 22.249,12.552 22.410,12.918 22.480 C 13.308 22.554,13.620 22.401,13.726 22.083 C 13.753 22.005,14.020 20.716,14.319 19.220 L 14.864 16.500 16.989 16.480 C 19.059 16.461,19.117 16.458,19.227 16.377 C 19.404 16.247,19.480 16.058,19.480 15.745 C 19.480 15.425,19.386 15.217,19.186 15.096 C 19.067 15.024,18.947 15.019,17.110 15.009 L 15.159 14.997 15.180 14.909 C 15.202 14.820,16.360 9.030,16.360 9.012 C 16.360 9.007,17.300 8.998,18.450 8.991 C 20.469 8.980,20.545 8.977,20.679 8.899 C 20.898 8.769,20.980 8.591,20.980 8.240 C 20.980 7.886,20.907 7.732,20.678 7.604 C 20.533 7.522,20.484 7.520,18.605 7.520 C 17.111 7.520,16.680 7.509,16.680 7.471 C 16.680 7.444,16.914 6.250,17.200 4.817 C 17.570 2.966,17.713 2.173,17.695 2.076 C 17.633 1.753,17.454 1.591,17.082 1.520 C 16.692 1.446,16.380 1.599,16.274 1.917 C 16.247 1.995,15.980 3.284,15.681 4.780 L 15.136 7.500 12.908 7.510 C 11.161 7.518,10.680 7.510,10.680 7.471 C 10.680 7.444,10.915 6.247,11.202 4.810 C 11.566 2.988,11.716 2.158,11.698 2.064 C 11.684 1.990,11.640 1.876,11.600 1.810 C 11.469 1.595,10.998 1.445,10.687 1.519 M14.820 9.090 C 14.797 9.184,13.640 14.970,13.640 14.989 C 13.640 14.995,12.632 15.000,11.399 15.000 L 9.158 15.000 9.180 14.910 C 9.203 14.816,10.360 9.030,10.360 9.011 C 10.360 9.005,11.368 9.000,12.601 9.000 L 14.842 9.000 14.820 9.090 " stroke="none" fill-rule="evenodd" fill="black"></path></svg>