<svg width="24" height="24" viewBox="0 0 24 24" fill="none" xmlns="http://www.w3.org/2000/svg"><path d="M7.060 3.041 C 4.771 3.302,2.872 4.953,2.385 7.106 C 2.227 7.807,2.233 8.901,2.400 9.881 C 3.016 13.492,5.793 17.088,10.260 20.060 C 10.634 20.309,11.128 20.618,11.359 20.746 C 11.729 20.953,11.803 20.980,12.000 20.980 C 12.197 20.980,12.271 20.953,12.641 20.746 C 12.872 20.618,13.372 20.305,13.754 20.051 C 18.196 17.099,20.985 13.483,21.600 9.881 C 21.765 8.912,21.773 7.793,21.619 7.129 C 21.324 5.856,20.566 4.746,19.480 3.994 C 18.096 3.035,16.312 2.757,14.660 3.243 C 14.506 3.288,14.146 3.440,13.860 3.581 C 13.182 3.915,12.694 4.282,12.170 4.853 L 12.000 5.038 11.830 4.853 C 11.306 4.282,10.818 3.915,10.140 3.581 C 9.346 3.190,8.782 3.049,7.900 3.021 C 7.614 3.012,7.236 3.021,7.060 3.041 M8.493 4.584 C 9.673 4.808,10.715 5.593,11.251 6.660 C 11.329 6.814,11.434 6.980,11.486 7.028 C 11.716 7.242,12.151 7.306,12.388 7.161 C 12.471 7.111,12.571 6.981,12.668 6.796 C 12.939 6.285,13.189 5.942,13.529 5.615 C 14.295 4.880,15.221 4.511,16.300 4.513 C 17.308 4.514,18.204 4.839,18.948 5.474 C 19.475 5.923,19.856 6.501,20.085 7.200 C 20.191 7.525,20.212 7.658,20.230 8.120 C 20.265 9.048,20.132 9.897,19.795 10.900 C 18.971 13.353,17.133 15.652,14.180 17.920 C 13.624 18.347,12.184 19.312,12.055 19.345 C 11.940 19.374,11.758 19.269,10.840 18.646 C 6.672 15.818,4.190 12.455,3.796 9.103 C 3.731 8.547,3.770 7.660,3.876 7.300 C 4.449 5.352,6.423 4.191,8.493 4.584 " stroke="none" fill-rule="evenodd" fill="black"></path></svg>