<svg width="24" height="24" viewBox="0 0 24 24" fill="none" xmlns="http://www.w3.org/2000/svg"><path d="M11.570 2.018 C 11.054 2.135,11.132 2.065,7.400 5.786 C 2.445 10.725,1.618 11.562,1.540 11.717 C 1.389 12.016,1.522 12.407,1.853 12.636 C 2.270 12.922,2.463 12.847,3.179 12.124 C 3.465 11.836,3.713 11.600,3.729 11.600 C 3.746 11.600,3.760 13.522,3.761 15.870 C 3.762 18.602,3.777 20.203,3.802 20.315 C 3.965 21.020,4.619 21.617,5.340 21.719 C 5.516 21.744,8.000 21.758,12.000 21.758 C 16.000 21.758,18.484 21.744,18.660 21.719 C 19.381 21.617,20.035 21.020,20.198 20.315 C 20.223 20.203,20.238 18.602,20.239 15.870 C 20.240 13.522,20.254 11.600,20.271 11.600 C 20.287 11.600,20.535 11.836,20.821 12.124 C 21.537 12.847,21.730 12.922,22.147 12.636 C 22.516 12.381,22.622 11.973,22.405 11.638 C 22.241 11.385,13.292 2.456,13.018 2.272 C 12.623 2.006,12.058 1.907,11.570 2.018 M15.469 6.769 L 18.760 10.059 18.760 14.971 C 18.760 20.232,18.765 20.090,18.566 20.197 C 18.512 20.226,17.915 20.240,16.744 20.240 L 15.004 20.240 14.992 17.970 L 14.980 15.700 14.886 15.467 C 14.679 14.953,14.185 14.484,13.688 14.331 C 13.488 14.269,13.283 14.260,12.000 14.260 C 10.717 14.260,10.512 14.269,10.312 14.331 C 9.815 14.484,9.321 14.953,9.114 15.467 L 9.020 15.700 9.008 17.970 L 8.996 20.240 7.256 20.240 C 6.085 20.240,5.488 20.226,5.434 20.197 C 5.235 20.090,5.240 20.232,5.240 14.971 L 5.240 10.059 8.531 6.769 L 11.822 3.480 12.000 3.480 L 12.178 3.480 15.469 6.769 M13.370 15.861 C 13.425 15.916,13.481 16.017,13.495 16.086 C 13.509 16.154,13.520 17.117,13.520 18.225 L 13.520 20.240 12.000 20.240 L 10.480 20.240 10.480 18.225 C 10.480 17.117,10.491 16.154,10.505 16.086 C 10.519 16.017,10.575 15.916,10.630 15.861 L 10.731 15.760 12.000 15.760 L 13.269 15.760 13.370 15.861 " stroke="none" fill-rule="evenodd" fill="black"></path></svg>