<svg width="24" height="24" viewBox="0 0 24 24" fill="none" xmlns="http://www.w3.org/2000/svg"><path d="M3.540 2.276 C 3.336 2.311,3.174 2.419,3.088 2.576 C 3.027 2.688,3.018 2.954,3.000 5.319 L 2.980 7.938 2.410 8.146 C 2.097 8.260,1.789 8.391,1.725 8.436 C 1.457 8.628,1.416 8.997,1.619 9.398 C 1.813 9.781,2.092 9.846,2.670 9.642 L 3.000 9.526 3.000 14.878 L 3.000 20.229 2.485 20.248 C 1.923 20.268,1.788 20.313,1.624 20.533 C 1.553 20.628,1.540 20.702,1.540 21.000 C 1.540 21.398,1.593 21.512,1.844 21.660 C 1.979 21.739,2.052 21.740,12.000 21.740 C 21.948 21.740,22.021 21.739,22.156 21.660 C 22.407 21.512,22.460 21.398,22.460 21.000 C 22.460 20.702,22.447 20.628,22.376 20.533 C 22.212 20.313,22.077 20.268,21.515 20.248 L 21.000 20.229 21.000 16.010 C 21.000 12.237,21.006 11.794,21.061 11.815 C 21.391 11.942,21.709 12.008,21.909 11.991 C 22.103 11.975,22.151 11.953,22.264 11.830 C 22.398 11.684,22.520 11.358,22.520 11.149 C 22.520 10.955,22.403 10.765,22.216 10.655 C 22.120 10.599,21.137 10.252,20.031 9.883 L 18.020 9.213 18.020 6.638 L 18.020 4.062 18.590 3.854 C 18.903 3.740,19.211 3.609,19.275 3.564 C 19.543 3.372,19.584 3.003,19.381 2.602 C 19.255 2.353,19.087 2.241,18.840 2.240 C 18.681 2.239,17.499 2.626,16.760 2.921 C 16.521 3.017,7.640 6.247,7.551 6.270 C 7.487 6.287,7.482 6.167,7.471 4.467 C 7.460 2.687,7.458 2.643,7.376 2.533 C 7.330 2.471,7.231 2.384,7.156 2.340 C 7.026 2.264,6.942 2.260,5.360 2.254 C 4.447 2.250,3.628 2.260,3.540 2.276 M5.990 5.304 L 5.980 6.848 5.280 7.103 C 4.895 7.244,4.558 7.359,4.530 7.359 C 4.491 7.360,4.480 6.974,4.480 5.560 L 4.480 3.760 5.240 3.760 L 6.001 3.760 5.990 5.304 M16.519 12.440 L 16.520 20.240 15.001 20.240 L 13.482 20.240 13.471 17.930 L 13.460 15.620 13.336 15.359 C 13.070 14.797,12.513 14.374,11.920 14.281 C 11.583 14.229,9.417 14.229,9.080 14.281 C 8.487 14.374,7.930 14.797,7.664 15.359 L 7.540 15.620 7.529 17.930 L 7.518 20.240 5.999 20.240 L 4.480 20.240 4.490 14.610 L 4.500 8.980 5.400 8.650 C 5.895 8.469,6.480 8.257,6.700 8.179 C 6.920 8.102,9.188 7.275,11.740 6.343 C 14.292 5.411,16.411 4.647,16.449 4.644 C 16.514 4.640,16.518 5.076,16.519 12.440 M18.780 11.053 L 19.500 11.300 19.510 15.770 L 19.520 20.240 18.760 20.240 L 18.000 20.240 18.000 15.520 C 18.000 12.924,18.014 10.801,18.030 10.803 C 18.047 10.804,18.384 10.917,18.780 11.053 M11.883 15.877 L 12.000 15.994 12.000 18.117 L 12.000 20.240 10.500 20.240 L 9.000 20.240 9.000 18.117 L 9.000 15.994 9.117 15.877 L 9.234 15.760 10.500 15.760 L 11.766 15.760 11.883 15.877 " stroke="none" fill-rule="evenodd" fill="black"></path></svg>