<svg width="24" height="24" viewBox="0 0 24 24" fill="none" xmlns="http://www.w3.org/2000/svg"><path d="M3.860 3.819 C 2.989 4.012,2.227 4.607,1.824 5.408 C 1.503 6.048,1.521 5.644,1.521 12.000 C 1.521 18.361,1.502 17.949,1.827 18.600 C 1.986 18.917,2.076 19.039,2.378 19.340 C 2.783 19.743,3.104 19.949,3.580 20.111 L 3.900 20.220 12.000 20.220 L 20.100 20.220 20.420 20.111 C 20.896 19.949,21.217 19.743,21.622 19.340 C 21.924 19.039,22.014 18.917,22.173 18.600 C 22.498 17.949,22.479 18.361,22.479 12.000 C 22.479 5.639,22.498 6.051,22.173 5.400 C 22.014 5.083,21.924 4.961,21.622 4.660 C 21.217 4.257,20.896 4.051,20.420 3.889 L 20.100 3.780 12.100 3.773 C 5.569 3.767,4.056 3.776,3.860 3.819 M20.048 5.352 C 20.461 5.519,20.806 5.902,20.939 6.343 C 21.029 6.640,21.029 17.360,20.939 17.657 C 20.806 18.098,20.461 18.481,20.048 18.648 L 19.820 18.740 12.000 18.740 L 4.180 18.740 3.950 18.647 C 3.629 18.518,3.313 18.217,3.151 17.888 L 3.020 17.622 3.020 12.001 L 3.020 6.380 3.127 6.151 C 3.334 5.711,3.753 5.372,4.202 5.283 C 4.301 5.264,7.784 5.251,12.100 5.254 L 19.820 5.260 20.048 5.352 M8.020 6.820 C 7.143 7.015,6.369 7.755,6.095 8.660 C 5.989 9.007,5.997 9.807,6.109 10.147 C 6.374 10.956,7.044 11.626,7.853 11.891 C 8.193 12.003,8.993 12.011,9.340 11.905 C 10.092 11.678,10.754 11.088,11.052 10.378 C 11.331 9.716,11.299 8.856,10.972 8.200 C 10.858 7.973,10.734 7.812,10.461 7.539 C 10.049 7.127,9.688 6.918,9.220 6.820 C 8.877 6.748,8.342 6.748,8.020 6.820 M9.097 8.356 C 9.561 8.565,9.835 9.119,9.718 9.611 C 9.463 10.677,8.034 10.810,7.591 9.809 C 7.327 9.211,7.709 8.442,8.350 8.281 C 8.551 8.231,8.896 8.266,9.097 8.356 M14.787 8.278 C 14.445 8.346,14.268 8.592,14.268 9.000 C 14.268 9.462,14.475 9.692,14.931 9.740 C 15.068 9.754,16.044 9.760,17.100 9.753 C 18.936 9.741,19.026 9.736,19.156 9.660 C 19.407 9.512,19.460 9.398,19.460 9.000 C 19.460 8.602,19.407 8.488,19.156 8.340 C 19.025 8.263,18.942 8.260,16.980 8.254 C 15.858 8.250,14.871 8.261,14.787 8.278 M14.787 11.278 C 14.445 11.346,14.268 11.592,14.268 12.000 C 14.268 12.462,14.475 12.692,14.931 12.740 C 15.068 12.754,16.044 12.760,17.100 12.753 C 18.936 12.741,19.026 12.736,19.156 12.660 C 19.407 12.512,19.460 12.398,19.460 12.000 C 19.460 11.602,19.407 11.488,19.156 11.340 C 19.025 11.263,18.942 11.260,16.980 11.254 C 15.858 11.250,14.871 11.261,14.787 11.278 M7.881 12.821 C 6.822 13.013,5.827 13.655,5.232 14.531 C 5.022 14.841,4.735 15.454,4.701 15.667 C 4.666 15.881,4.779 16.151,4.954 16.276 C 5.157 16.420,5.790 16.705,6.247 16.859 C 8.065 17.467,10.077 17.349,11.799 16.534 C 12.300 16.297,12.422 16.207,12.505 16.011 C 12.589 15.815,12.571 15.650,12.427 15.296 C 12.064 14.400,11.345 13.631,10.452 13.184 C 9.691 12.802,8.732 12.667,7.881 12.821 M8.971 14.281 C 9.336 14.334,9.690 14.457,9.978 14.632 C 10.265 14.805,10.789 15.307,10.737 15.358 C 10.681 15.411,10.063 15.588,9.693 15.656 C 9.176 15.752,8.586 15.776,8.058 15.722 C 7.585 15.673,6.770 15.490,6.575 15.387 L 6.474 15.335 6.756 15.050 C 7.163 14.638,7.696 14.362,8.235 14.283 C 8.551 14.236,8.662 14.236,8.971 14.281 M14.787 14.278 C 14.445 14.346,14.268 14.592,14.268 15.000 C 14.268 15.462,14.475 15.692,14.931 15.740 C 15.068 15.754,16.044 15.760,17.100 15.753 C 18.936 15.741,19.026 15.736,19.156 15.660 C 19.407 15.512,19.460 15.398,19.460 15.000 C 19.460 14.602,19.407 14.488,19.156 14.340 C 19.025 14.263,18.942 14.260,16.980 14.254 C 15.858 14.250,14.871 14.261,14.787 14.278 " stroke="none" fill-rule="evenodd" fill="black"></path></svg>