<svg width="24" height="24" viewBox="0 0 24 24" fill="none" xmlns="http://www.w3.org/2000/svg"><path d="M11.787 2.278 C 11.598 2.316,11.444 2.427,11.340 2.604 C 11.262 2.737,11.260 2.823,11.249 6.078 L 11.237 9.415 10.329 8.512 C 9.829 8.015,9.358 7.578,9.281 7.539 C 9.205 7.501,9.076 7.469,8.994 7.469 C 8.691 7.469,8.294 7.819,8.222 8.150 C 8.159 8.439,8.203 8.493,9.820 10.120 C 10.662 10.967,11.372 11.702,11.399 11.754 C 11.455 11.864,11.828 12.040,12.004 12.040 C 12.169 12.040,12.550 11.854,12.605 11.747 C 12.629 11.699,13.338 10.967,14.180 10.120 C 15.797 8.493,15.841 8.439,15.778 8.150 C 15.706 7.819,15.309 7.469,15.006 7.469 C 14.924 7.469,14.795 7.501,14.719 7.539 C 14.642 7.578,14.171 8.016,13.670 8.513 L 12.760 9.418 12.758 6.199 C 12.757 4.428,12.741 2.902,12.723 2.806 C 12.644 2.398,12.265 2.185,11.787 2.278 M6.340 3.059 C 5.452 3.229,4.684 3.799,4.263 4.600 C 4.165 4.786,3.717 6.172,2.831 9.025 L 1.542 13.180 1.530 15.780 C 1.517 18.639,1.521 18.700,1.758 19.222 C 2.064 19.897,2.593 20.419,3.293 20.739 C 3.857 20.996,3.265 20.980,12.000 20.980 C 20.745 20.980,20.142 20.997,20.714 20.736 C 21.598 20.332,22.219 19.583,22.417 18.680 C 22.475 18.415,22.481 18.073,22.470 15.780 L 22.458 13.180 21.169 9.025 C 20.296 6.214,19.834 4.784,19.740 4.605 C 19.445 4.044,18.968 3.585,18.381 3.298 C 17.835 3.031,17.743 3.020,16.140 3.020 C 14.528 3.020,14.534 3.019,14.357 3.305 C 14.285 3.421,14.267 3.510,14.267 3.740 C 14.267 4.062,14.337 4.229,14.533 4.376 C 14.641 4.456,14.704 4.461,16.013 4.483 C 17.273 4.503,17.396 4.512,17.589 4.588 C 18.002 4.753,18.305 5.041,18.462 5.419 C 18.519 5.555,20.642 12.418,20.706 12.670 L 20.729 12.760 19.168 12.760 C 17.525 12.760,17.248 12.783,16.820 12.952 C 16.432 13.105,16.100 13.332,15.760 13.676 C 15.465 13.975,15.384 14.089,15.147 14.547 C 14.841 15.136,14.690 15.334,14.411 15.513 C 14.045 15.748,13.925 15.760,12.000 15.760 C 10.075 15.760,9.955 15.748,9.589 15.513 C 9.310 15.334,9.159 15.136,8.853 14.547 C 8.616 14.089,8.535 13.975,8.240 13.676 C 7.900 13.332,7.568 13.105,7.180 12.952 C 6.752 12.783,6.475 12.760,4.832 12.760 L 3.271 12.760 3.294 12.670 C 3.358 12.418,5.481 5.555,5.538 5.419 C 5.695 5.041,5.998 4.753,6.411 4.588 C 6.604 4.512,6.727 4.503,7.987 4.483 C 9.296 4.461,9.359 4.456,9.467 4.376 C 9.665 4.228,9.733 4.063,9.731 3.737 C 9.729 3.400,9.650 3.231,9.433 3.100 C 9.308 3.025,9.222 3.020,7.960 3.013 C 6.978 3.007,6.545 3.020,6.340 3.059 M6.651 14.353 C 7.042 14.511,7.299 14.789,7.614 15.392 C 8.043 16.212,8.412 16.604,9.060 16.922 C 9.671 17.223,9.643 17.220,12.000 17.220 C 14.332 17.220,14.319 17.221,14.900 16.944 C 15.554 16.633,15.942 16.228,16.379 15.401 C 16.695 14.804,16.926 14.548,17.310 14.368 L 17.540 14.260 19.271 14.248 L 21.003 14.236 20.991 16.288 C 20.981 18.081,20.972 18.362,20.914 18.512 C 20.762 18.908,20.429 19.238,20.010 19.407 L 19.780 19.500 12.000 19.500 L 4.220 19.500 3.990 19.407 C 3.542 19.226,3.218 18.889,3.075 18.454 C 3.006 18.245,3.000 18.073,3.000 16.232 L 3.000 14.237 4.710 14.248 C 6.396 14.260,6.423 14.261,6.651 14.353 " stroke="none" fill-rule="evenodd" fill="black"></path></svg>