<svg width="24" height="24" viewBox="0 0 24 24" fill="none" xmlns="http://www.w3.org/2000/svg"><path d="M6.340 3.059 C 5.454 3.228,4.684 3.799,4.263 4.600 C 4.165 4.786,3.717 6.172,2.831 9.025 L 1.542 13.180 1.530 15.780 C 1.517 18.639,1.521 18.700,1.758 19.222 C 2.064 19.897,2.593 20.419,3.293 20.739 C 3.857 20.996,3.265 20.980,12.000 20.980 C 20.745 20.980,20.142 20.997,20.714 20.736 C 21.598 20.332,22.219 19.583,22.417 18.680 C 22.475 18.415,22.481 18.073,22.470 15.780 L 22.458 13.180 21.169 9.025 C 20.296 6.214,19.834 4.784,19.740 4.605 C 19.445 4.043,18.968 3.585,18.381 3.298 C 17.770 3.000,18.249 3.022,12.120 3.014 C 7.689 3.008,6.566 3.017,6.340 3.059 M17.275 4.518 C 17.771 4.590,18.231 4.917,18.421 5.332 C 18.496 5.494,20.605 12.270,20.706 12.670 L 20.729 12.760 19.168 12.760 C 17.525 12.760,17.248 12.783,16.820 12.952 C 16.432 13.105,16.100 13.332,15.760 13.676 C 15.465 13.975,15.384 14.089,15.147 14.547 C 14.841 15.136,14.690 15.334,14.411 15.513 C 14.045 15.748,13.925 15.760,12.000 15.760 C 10.075 15.760,9.955 15.748,9.589 15.513 C 9.310 15.334,9.159 15.136,8.853 14.547 C 8.616 14.089,8.535 13.975,8.240 13.676 C 7.900 13.332,7.568 13.105,7.180 12.952 C 6.752 12.783,6.475 12.760,4.832 12.760 L 3.271 12.760 3.294 12.670 C 3.395 12.270,5.504 5.494,5.579 5.332 C 5.762 4.932,6.234 4.587,6.689 4.521 C 6.994 4.476,16.968 4.474,17.275 4.518 M6.651 14.353 C 7.042 14.511,7.299 14.789,7.614 15.392 C 8.043 16.212,8.412 16.604,9.060 16.922 C 9.671 17.223,9.643 17.220,12.000 17.220 C 14.332 17.220,14.319 17.221,14.900 16.944 C 15.554 16.633,15.942 16.228,16.379 15.401 C 16.695 14.804,16.926 14.548,17.310 14.368 L 17.540 14.260 19.271 14.248 L 21.003 14.236 20.991 16.288 C 20.981 18.081,20.972 18.362,20.914 18.512 C 20.762 18.908,20.429 19.238,20.010 19.407 L 19.780 19.500 12.000 19.500 L 4.220 19.500 3.990 19.407 C 3.542 19.226,3.218 18.889,3.075 18.454 C 3.006 18.245,3.000 18.073,3.000 16.232 L 3.000 14.237 4.710 14.248 C 6.396 14.260,6.423 14.261,6.651 14.353 " stroke="none" fill-rule="evenodd" fill="black"></path></svg>