<svg width="24" height="24" viewBox="0 0 24 24" fill="none" xmlns="http://www.w3.org/2000/svg"><path d="M7.380 3.028 C 6.898 3.097,6.357 3.324,5.962 3.623 C 5.647 3.862,2.195 7.869,1.908 8.329 C 1.776 8.541,1.695 8.736,1.622 9.017 C 1.522 9.403,1.520 9.431,1.520 10.902 C 1.520 12.546,1.540 12.741,1.759 13.224 C 1.825 13.370,1.942 13.577,2.020 13.685 C 2.097 13.792,2.160 13.891,2.160 13.904 C 2.160 13.917,2.079 14.018,1.980 14.128 C 1.881 14.239,1.741 14.448,1.670 14.594 L 1.540 14.860 1.528 16.615 C 1.515 18.553,1.529 18.718,1.758 19.222 C 2.064 19.897,2.593 20.419,3.293 20.739 C 3.857 20.996,3.265 20.980,12.000 20.980 C 20.735 20.980,20.143 20.996,20.707 20.739 C 21.598 20.332,22.216 19.588,22.417 18.679 C 22.475 18.419,22.482 18.143,22.472 16.619 L 22.460 14.860 22.330 14.594 C 22.259 14.448,22.119 14.239,22.020 14.128 C 21.921 14.018,21.840 13.917,21.840 13.904 C 21.840 13.891,21.903 13.792,21.980 13.685 C 22.174 13.415,22.338 13.037,22.418 12.677 C 22.476 12.414,22.483 12.162,22.470 10.797 C 22.456 9.242,22.454 9.216,22.355 8.900 C 22.299 8.724,22.170 8.450,22.068 8.292 C 21.966 8.133,21.076 7.062,20.089 5.911 C 18.190 3.696,18.049 3.553,17.500 3.298 C 16.867 3.003,17.262 3.024,12.120 3.017 C 9.579 3.014,7.446 3.019,7.380 3.028 M16.696 4.574 C 16.804 4.614,16.955 4.686,17.031 4.734 C 17.107 4.781,17.827 5.585,18.631 6.520 L 20.092 8.220 18.296 8.243 C 16.623 8.265,16.478 8.273,16.186 8.353 C 15.480 8.546,14.897 8.979,14.401 9.679 C 14.112 10.086,13.871 10.291,13.520 10.428 C 13.361 10.490,13.184 10.499,12.000 10.499 C 10.816 10.499,10.639 10.490,10.480 10.428 C 10.129 10.291,9.888 10.086,9.599 9.679 C 9.103 8.980,8.520 8.546,7.814 8.353 C 7.519 8.272,7.390 8.265,5.710 8.250 C 4.726 8.241,3.920 8.225,3.920 8.216 C 3.920 8.153,6.815 4.840,6.942 4.758 C 7.139 4.630,7.290 4.569,7.520 4.523 C 7.620 4.504,9.663 4.490,12.100 4.494 C 16.268 4.500,16.510 4.504,16.696 4.574 M7.660 9.892 C 7.951 10.028,8.138 10.203,8.419 10.604 C 8.799 11.144,9.127 11.430,9.671 11.698 C 10.218 11.966,10.331 11.980,12.000 11.980 C 13.669 11.980,13.782 11.966,14.329 11.698 C 14.873 11.430,15.201 11.144,15.581 10.604 C 15.862 10.203,16.049 10.028,16.340 9.892 L 16.580 9.780 18.792 9.769 L 21.004 9.758 20.992 11.049 C 20.982 12.131,20.969 12.368,20.914 12.512 C 20.762 12.908,20.429 13.238,20.010 13.407 L 19.780 13.500 12.000 13.500 L 4.220 13.500 3.990 13.407 C 3.542 13.226,3.218 12.889,3.075 12.454 C 3.008 12.253,3.000 12.091,3.000 10.993 L 3.000 9.758 5.210 9.769 L 7.420 9.780 7.660 9.892 M7.777 15.510 C 8.394 16.501,8.669 16.902,8.876 17.110 C 9.246 17.482,9.727 17.755,10.283 17.909 C 10.507 17.971,10.725 17.980,12.000 17.980 C 13.659 17.980,13.711 17.973,14.340 17.662 C 15.001 17.335,15.246 17.070,16.000 15.864 L 16.540 15.000 18.647 15.000 L 20.754 15.000 20.879 15.125 L 21.003 15.250 20.992 16.795 C 20.982 18.116,20.970 18.365,20.914 18.512 C 20.762 18.908,20.429 19.238,20.010 19.407 L 19.780 19.500 12.000 19.500 L 4.220 19.500 3.990 19.407 C 3.542 19.226,3.218 18.889,3.075 18.454 C 3.007 18.249,3.000 18.085,3.000 16.737 L 3.000 15.246 3.123 15.123 L 3.246 15.000 5.353 15.000 L 7.460 15.000 7.777 15.510 M14.715 15.090 C 14.575 15.355,14.153 15.963,14.020 16.092 C 13.815 16.291,13.510 16.434,13.182 16.485 C 13.021 16.511,12.470 16.521,11.806 16.511 C 10.578 16.492,10.522 16.482,10.127 16.212 C 9.962 16.099,9.847 15.965,9.622 15.623 C 9.462 15.379,9.310 15.139,9.284 15.090 L 9.237 15.000 12.000 15.000 L 14.763 15.000 14.715 15.090 " stroke="none" fill-rule="evenodd" fill="black"></path></svg>