<svg width="24" height="24" viewBox="0 0 24 24" fill="none" xmlns="http://www.w3.org/2000/svg"><path d="M11.320 2.280 C 9.441 2.407,7.648 3.082,6.084 4.252 C 5.591 4.620,4.620 5.591,4.252 6.084 C 3.226 7.456,2.607 8.935,2.357 10.608 C 2.238 11.410,2.238 12.590,2.357 13.392 C 2.607 15.065,3.226 16.544,4.252 17.916 C 4.620 18.409,5.591 19.380,6.084 19.748 C 7.457 20.775,8.938 21.395,10.608 21.642 C 11.784 21.817,13.262 21.739,14.412 21.442 C 15.680 21.115,16.841 20.553,17.916 19.748 C 18.409 19.379,19.379 18.409,19.748 17.916 C 20.773 16.548,21.395 15.063,21.642 13.392 C 21.761 12.591,21.761 11.409,21.642 10.608 C 21.395 8.937,20.773 7.452,19.748 6.084 C 19.379 5.591,18.409 4.621,17.916 4.252 C 16.786 3.406,15.392 2.757,14.120 2.486 C 13.247 2.300,12.184 2.222,11.320 2.280 M13.180 3.838 C 14.600 4.049,15.862 4.579,17.009 5.445 C 17.434 5.766,18.234 6.566,18.555 6.991 C 20.636 9.747,20.811 13.444,18.999 16.366 C 18.375 17.371,17.371 18.375,16.366 18.999 C 13.687 20.661,10.313 20.661,7.634 18.999 C 6.629 18.375,5.625 17.371,5.001 16.366 C 3.491 13.931,3.342 10.873,4.609 8.343 C 5.042 7.479,5.477 6.878,6.177 6.177 C 7.056 5.299,8.001 4.686,9.125 4.266 C 10.372 3.800,11.867 3.642,13.180 3.838 M11.601 7.590 C 11.524 7.629,11.423 7.718,11.376 7.788 C 11.220 8.021,11.221 8.503,11.377 8.742 C 11.522 8.962,11.967 9.061,12.328 8.953 C 12.882 8.787,12.913 7.806,12.371 7.575 C 12.187 7.497,11.771 7.505,11.601 7.590 M11.270 10.441 C 10.896 10.535,10.553 10.794,10.495 11.025 C 10.461 11.163,10.498 11.401,10.581 11.576 C 10.774 11.984,11.111 12.113,11.530 11.940 C 11.571 11.923,11.600 11.929,11.600 11.955 C 11.600 11.978,11.438 12.648,11.240 13.442 C 10.860 14.966,10.834 15.147,10.943 15.523 C 11.208 16.441,12.307 16.878,13.123 16.388 C 13.483 16.173,13.594 15.908,13.473 15.556 C 13.400 15.342,13.237 15.121,13.103 15.050 C 12.960 14.976,12.652 14.969,12.523 15.039 C 12.473 15.065,12.424 15.077,12.412 15.065 C 12.400 15.053,12.555 14.381,12.756 13.572 C 12.978 12.675,13.121 12.021,13.121 11.897 C 13.118 11.107,12.501 10.460,11.710 10.418 C 11.550 10.410,11.352 10.420,11.270 10.441 " stroke="none" fill-rule="evenodd" fill="black"></path></svg>