<svg width="24" height="24" viewBox="0 0 24 24" fill="none" xmlns="http://www.w3.org/2000/svg"><path d="M14.742 1.582 C 13.632 1.768,12.683 2.157,11.782 2.795 C 11.170 3.229,10.384 4.083,9.992 4.740 C 9.173 6.113,8.885 7.532,9.077 9.245 C 9.171 10.091,9.561 9.606,5.581 13.600 C 3.437 15.752,2.079 17.146,1.987 17.287 C 1.799 17.577,1.692 17.825,1.596 18.196 C 1.527 18.466,1.520 18.650,1.520 20.256 C 1.520 22.200,1.519 22.191,1.773 22.377 C 1.884 22.459,1.923 22.460,4.120 22.460 C 6.329 22.460,6.355 22.459,6.467 22.376 C 6.720 22.187,6.739 22.108,6.754 21.130 L 6.768 20.240 7.594 20.240 C 8.048 20.240,8.484 20.222,8.562 20.200 C 8.732 20.153,8.892 19.991,8.955 19.804 C 8.983 19.720,9.000 19.350,9.000 18.834 L 9.000 18.000 9.821 18.000 C 10.472 18.000,10.673 17.987,10.791 17.938 C 10.891 17.896,11.421 17.397,12.400 16.421 C 13.709 15.118,13.879 14.962,14.040 14.919 C 14.221 14.871,14.320 14.874,15.180 14.962 C 15.657 15.010,16.297 14.987,16.841 14.901 C 19.084 14.546,21.038 13.020,21.936 10.920 C 22.714 9.100,22.663 6.997,21.800 5.280 C 21.441 4.566,21.095 4.081,20.549 3.525 C 19.502 2.460,18.212 1.804,16.729 1.581 C 16.231 1.507,15.189 1.507,14.742 1.582 M16.520 3.060 C 17.999 3.282,19.314 4.128,20.147 5.393 C 20.269 5.578,20.428 5.859,20.500 6.018 C 21.322 7.821,21.109 9.841,19.934 11.403 C 19.120 12.484,17.984 13.178,16.629 13.424 C 16.243 13.493,15.379 13.504,14.980 13.444 C 14.580 13.383,14.022 13.391,13.724 13.461 C 13.144 13.598,13.022 13.694,11.538 15.167 L 10.175 16.520 9.078 16.520 C 7.482 16.520,7.549 16.465,7.520 17.813 L 7.500 18.740 6.600 18.760 C 5.630 18.782,5.542 18.800,5.389 19.006 C 5.270 19.166,5.244 19.389,5.242 20.230 L 5.240 21.000 4.120 21.000 L 3.000 21.000 3.000 19.867 C 3.000 18.640,3.021 18.478,3.228 18.144 C 3.284 18.054,4.872 16.432,6.758 14.540 C 9.918 11.369,10.198 11.078,10.333 10.815 C 10.610 10.274,10.645 9.878,10.525 8.620 C 10.506 8.418,10.506 8.068,10.525 7.824 C 10.764 4.811,13.533 2.611,16.520 3.060 M15.316 4.602 C 15.091 4.738,15.020 4.890,15.020 5.240 C 15.020 5.775,15.199 5.947,15.810 5.999 C 16.014 6.017,16.261 6.053,16.360 6.079 C 17.048 6.263,17.737 6.952,17.921 7.640 C 17.947 7.739,17.983 7.986,18.001 8.190 C 18.053 8.801,18.225 8.980,18.760 8.980 C 19.117 8.980,19.268 8.907,19.402 8.668 C 19.485 8.520,19.490 8.476,19.467 8.025 C 19.454 7.758,19.416 7.440,19.382 7.317 C 19.022 6.004,17.997 4.980,16.683 4.617 C 16.560 4.584,16.235 4.547,15.960 4.536 C 15.499 4.517,15.449 4.522,15.316 4.602 " stroke="none" fill-rule="evenodd" fill="black"></path></svg>