<svg width="24" height="24" viewBox="0 0 24 24" fill="none" xmlns="http://www.w3.org/2000/svg"><path d="M8.787 2.278 C 8.598 2.316,8.444 2.427,8.340 2.604 C 8.268 2.727,8.259 2.827,8.246 3.630 L 8.232 4.520 7.878 4.520 C 6.708 4.520,3.203 4.795,2.704 4.926 C 2.499 4.979,2.338 5.145,2.280 5.361 C 2.190 5.694,2.330 6.134,2.572 6.281 C 2.736 6.382,2.928 6.381,3.853 6.281 C 5.851 6.063,7.615 5.982,9.709 6.012 C 10.595 6.024,11.335 6.044,11.354 6.056 C 11.374 6.068,11.321 6.299,11.238 6.569 C 10.825 7.902,10.333 9.028,9.648 10.200 C 9.468 10.508,9.078 11.121,9.013 11.198 C 8.994 11.220,8.916 11.110,8.645 10.680 C 8.214 9.996,7.737 9.090,7.394 8.301 C 7.124 7.678,7.004 7.560,6.648 7.560 C 6.434 7.561,6.107 7.698,5.973 7.845 C 5.746 8.092,5.760 8.292,6.050 8.960 C 6.541 10.093,7.326 11.484,7.973 12.368 L 8.052 12.477 7.910 12.648 C 6.653 14.168,4.770 15.699,2.980 16.658 C 2.351 16.995,2.240 17.117,2.240 17.468 C 2.241 17.607,2.273 17.717,2.359 17.866 C 2.562 18.221,2.806 18.339,3.134 18.241 C 3.482 18.137,4.776 17.373,5.626 16.770 C 6.613 16.069,7.800 15.021,8.548 14.189 C 8.781 13.930,8.987 13.723,9.005 13.729 C 9.023 13.735,9.230 13.947,9.465 14.200 C 9.700 14.453,9.948 14.701,10.015 14.751 C 10.300 14.962,10.584 14.944,10.874 14.696 C 11.173 14.440,11.269 14.137,11.138 13.862 C 11.104 13.790,10.902 13.544,10.688 13.315 C 10.475 13.086,10.223 12.805,10.128 12.691 L 9.956 12.484 10.373 11.852 C 11.450 10.219,12.203 8.610,12.718 6.840 C 12.811 6.521,12.894 6.236,12.903 6.208 C 12.921 6.149,13.028 6.155,14.190 6.284 C 15.307 6.407,15.466 6.382,15.635 6.051 C 15.878 5.573,15.716 5.035,15.296 4.926 C 14.784 4.792,11.357 4.522,10.150 4.520 L 9.760 4.520 9.758 3.750 C 9.756 2.908,9.730 2.685,9.610 2.526 C 9.452 2.313,9.119 2.213,8.787 2.278 M15.527 9.001 C 15.342 9.043,15.193 9.199,15.040 9.513 C 14.598 10.418,9.793 20.753,9.756 20.879 C 9.659 21.202,9.817 21.497,10.178 21.665 C 10.560 21.843,10.892 21.765,11.094 21.452 C 11.148 21.368,11.457 20.728,11.782 20.030 L 12.372 18.760 15.755 18.770 L 19.138 18.780 19.723 20.033 C 20.419 21.522,20.453 21.584,20.614 21.683 C 20.845 21.824,21.231 21.767,21.529 21.547 C 21.691 21.428,21.760 21.280,21.760 21.052 C 21.760 20.882,21.457 20.212,19.094 15.147 C 17.627 12.004,16.390 9.376,16.344 9.306 C 16.201 9.090,15.799 8.940,15.527 9.001 M17.102 14.415 C 17.819 15.951,18.398 17.216,18.389 17.224 C 18.380 17.233,17.184 17.236,15.732 17.230 L 13.091 17.220 14.412 14.389 C 15.139 12.831,15.748 11.572,15.766 11.590 C 15.784 11.608,16.385 12.879,17.102 14.415 " stroke="none" fill-rule="evenodd" fill="black"></path></svg>