<svg width="24" height="24" viewBox="0 0 24 24" fill="none" xmlns="http://www.w3.org/2000/svg"><path d="M11.348 2.283 C 8.332 2.464,5.573 4.070,3.862 6.640 C 2.911 8.068,2.385 9.658,2.283 11.410 C 2.078 14.933,3.699 18.180,6.640 20.138 C 8.068 21.089,9.658 21.615,11.410 21.717 C 14.935 21.922,18.148 20.319,20.139 17.361 C 21.286 15.658,21.842 13.559,21.717 11.410 C 21.633 9.965,21.293 8.729,20.636 7.483 C 19.202 4.765,16.601 2.881,13.597 2.384 C 13.285 2.332,11.954 2.226,11.880 2.246 C 11.869 2.249,11.630 2.266,11.348 2.283 M12.940 3.802 C 13.705 3.889,14.471 4.089,15.182 4.387 C 15.368 4.464,15.520 4.542,15.520 4.560 C 15.520 4.578,14.959 5.265,14.274 6.086 C 13.197 7.377,13.014 7.579,12.924 7.575 C 12.867 7.573,12.635 7.553,12.410 7.531 C 12.140 7.505,11.860 7.505,11.590 7.531 C 11.364 7.553,11.133 7.573,11.076 7.575 C 10.986 7.579,10.803 7.377,9.726 6.086 C 9.041 5.265,8.480 4.578,8.480 4.560 C 8.480 4.517,9.069 4.273,9.533 4.124 C 9.953 3.990,10.577 3.855,11.013 3.804 C 11.430 3.755,12.522 3.754,12.940 3.802 M8.341 6.760 C 8.952 7.497,9.477 8.128,9.506 8.163 C 9.553 8.219,9.534 8.245,9.349 8.372 C 9.085 8.554,8.562 9.078,8.372 9.350 C 8.231 9.552,8.226 9.555,8.142 9.488 C 8.094 9.451,7.441 8.908,6.691 8.283 L 5.326 7.146 5.511 6.903 C 5.751 6.588,6.547 5.789,6.880 5.529 C 7.077 5.374,7.151 5.337,7.184 5.373 C 7.209 5.399,7.729 6.023,8.341 6.760 M17.822 6.178 C 18.087 6.443,18.388 6.769,18.489 6.903 L 18.674 7.146 17.309 8.283 C 16.559 8.908,15.906 9.451,15.858 9.488 C 15.774 9.555,15.769 9.552,15.628 9.350 C 15.439 9.078,14.915 8.554,14.652 8.373 C 14.447 8.232,14.444 8.227,14.512 8.142 C 14.549 8.095,15.092 7.441,15.717 6.691 L 16.854 5.326 17.097 5.511 C 17.231 5.612,17.557 5.913,17.822 6.178 M6.086 9.726 C 7.377 10.803,7.579 10.986,7.575 11.076 C 7.573 11.133,7.553 11.365,7.531 11.590 C 7.505 11.860,7.505 12.140,7.531 12.410 C 7.553 12.636,7.573 12.867,7.575 12.924 C 7.579 13.014,7.377 13.197,6.086 14.274 C 5.265 14.959,4.578 15.520,4.560 15.520 C 4.517 15.520,4.273 14.931,4.124 14.467 C 3.718 13.198,3.644 11.676,3.923 10.305 C 4.051 9.675,4.468 8.480,4.560 8.480 C 4.578 8.480,5.265 9.041,6.086 9.726 M19.613 8.818 C 20.248 10.333,20.411 12.052,20.077 13.695 C 19.949 14.325,19.532 15.520,19.440 15.520 C 19.422 15.520,18.735 14.959,17.914 14.274 C 16.623 13.197,16.421 13.014,16.425 12.924 C 16.427 12.867,16.447 12.636,16.469 12.410 C 16.495 12.140,16.495 11.860,16.469 11.590 C 16.447 11.365,16.427 11.133,16.425 11.076 C 16.421 10.986,16.623 10.803,17.914 9.726 C 18.735 9.041,19.422 8.480,19.440 8.480 C 19.458 8.480,19.536 8.632,19.613 8.818 M12.600 9.062 C 14.019 9.395,14.999 10.595,14.999 12.000 C 14.999 13.632,13.632 14.999,12.000 14.999 C 10.799 14.999,9.669 14.234,9.227 13.120 C 8.853 12.180,8.949 11.206,9.499 10.360 C 10.156 9.349,11.473 8.798,12.600 9.062 M8.381 14.664 C 8.571 14.932,9.093 15.452,9.348 15.627 C 9.553 15.768,9.556 15.773,9.488 15.858 C 9.451 15.905,8.908 16.559,8.283 17.309 L 7.146 18.674 6.903 18.489 C 6.590 18.251,5.749 17.410,5.511 17.097 L 5.326 16.854 6.772 15.650 C 7.568 14.987,8.224 14.450,8.230 14.457 C 8.237 14.463,8.304 14.557,8.381 14.664 M17.309 15.717 L 18.674 16.854 18.487 17.097 C 18.246 17.410,17.410 18.246,17.097 18.487 L 16.854 18.674 15.717 17.309 C 15.092 16.559,14.549 15.906,14.512 15.858 C 14.445 15.774,14.448 15.769,14.650 15.628 C 14.922 15.439,15.446 14.915,15.627 14.652 C 15.768 14.447,15.773 14.444,15.858 14.512 C 15.905 14.549,16.559 15.092,17.309 15.717 M11.651 16.477 C 11.846 16.494,12.185 16.490,12.411 16.469 C 12.636 16.447,12.867 16.427,12.924 16.425 C 13.014 16.421,13.197 16.623,14.274 17.914 C 14.959 18.735,15.520 19.422,15.520 19.440 C 15.520 19.483,14.931 19.727,14.467 19.876 C 13.198 20.282,11.676 20.356,10.305 20.077 C 9.570 19.927,8.456 19.521,8.496 19.417 C 8.507 19.388,9.070 18.697,9.748 17.881 L 10.980 16.397 11.140 16.422 C 11.228 16.436,11.458 16.461,11.651 16.477 " stroke="none" fill-rule="evenodd" fill="black"></path></svg>