<svg width="24" height="24" viewBox="0 0 24 24" fill="none" xmlns="http://www.w3.org/2000/svg"><path d="M11.240 0.785 C 10.075 0.926,9.216 1.173,8.302 1.630 C 6.221 2.670,4.616 4.639,4.037 6.860 C 3.866 7.516,3.798 7.989,3.773 8.700 C 3.721 10.109,3.977 11.340,4.579 12.580 C 5.296 14.059,6.328 15.187,7.800 16.101 C 8.009 16.231,8.280 16.437,8.403 16.559 C 8.819 16.971,8.957 17.278,8.999 17.881 C 9.032 18.362,9.092 18.511,9.301 18.641 C 9.496 18.761,9.968 18.770,10.161 18.656 C 10.417 18.507,10.459 18.405,10.474 17.894 C 10.490 17.321,10.421 17.002,10.170 16.484 C 9.842 15.810,9.386 15.330,8.620 14.850 C 7.371 14.067,6.563 13.203,5.963 12.010 C 5.237 10.566,5.064 8.951,5.463 7.353 C 5.765 6.147,6.341 5.135,7.238 4.238 C 8.294 3.182,9.551 2.550,11.060 2.317 C 11.472 2.253,12.528 2.253,12.940 2.317 C 14.449 2.550,15.706 3.182,16.762 4.238 C 17.660 5.136,18.233 6.143,18.538 7.360 C 18.936 8.945,18.762 10.559,18.038 12.004 C 17.434 13.210,16.633 14.065,15.362 14.860 C 14.612 15.330,14.158 15.811,13.830 16.484 C 13.579 17.002,13.510 17.321,13.526 17.894 C 13.541 18.405,13.583 18.507,13.839 18.657 C 14.022 18.764,14.493 18.764,14.675 18.657 C 14.900 18.524,14.967 18.364,15.001 17.886 C 15.057 17.071,15.356 16.630,16.211 16.095 C 17.677 15.180,18.706 14.053,19.421 12.580 C 19.856 11.684,20.098 10.829,20.203 9.811 C 20.261 9.245,20.231 8.224,20.141 7.680 C 19.556 4.166,16.847 1.456,13.320 0.858 C 12.955 0.796,11.553 0.747,11.240 0.785 M10.119 11.873 C 9.915 11.979,9.760 12.301,9.760 12.617 C 9.760 13.079,9.962 13.232,10.761 13.375 L 11.237 13.460 11.248 15.860 C 11.260 18.177,11.263 18.265,11.340 18.396 C 11.449 18.581,11.596 18.682,11.815 18.723 C 12.182 18.792,12.499 18.669,12.660 18.396 C 12.737 18.265,12.740 18.177,12.752 15.860 L 12.763 13.460 13.239 13.375 C 14.037 13.232,14.240 13.078,14.239 12.620 C 14.239 12.331,14.106 12.013,13.940 11.904 C 13.765 11.789,13.572 11.785,13.099 11.886 C 12.489 12.017,11.490 12.017,10.904 11.888 C 10.422 11.781,10.299 11.779,10.119 11.873 M9.380 19.355 C 9.168 19.452,9.037 19.686,9.010 20.016 C 8.971 20.508,9.176 20.702,9.860 20.816 C 10.638 20.945,11.053 20.976,12.000 20.976 C 12.947 20.976,13.362 20.945,14.140 20.816 C 14.825 20.701,15.029 20.509,14.990 20.014 C 14.961 19.660,14.821 19.430,14.577 19.337 C 14.398 19.269,14.374 19.269,13.786 19.357 C 12.583 19.536,11.383 19.538,10.253 19.362 C 9.615 19.263,9.582 19.263,9.380 19.355 M10.080 21.766 C 9.882 21.900,9.760 22.161,9.760 22.452 C 9.760 22.911,9.942 23.091,10.483 23.169 C 10.931 23.233,13.069 23.233,13.520 23.168 C 13.886 23.116,14.004 23.055,14.150 22.840 C 14.349 22.548,14.225 21.972,13.920 21.766 C 13.782 21.674,13.771 21.673,13.180 21.706 C 12.850 21.725,12.319 21.740,12.000 21.740 C 11.681 21.740,11.150 21.725,10.820 21.706 C 10.229 21.673,10.218 21.674,10.080 21.766 " stroke="none" fill-rule="evenodd" fill="black"></path></svg>