<svg width="24" height="24" viewBox="0 0 24 24" fill="none" xmlns="http://www.w3.org/2000/svg"><path d="M16.380 1.578 C 15.532 1.733,14.765 2.061,14.100 2.554 C 13.781 2.791,8.943 7.616,8.638 8.001 C 8.187 8.571,7.857 9.238,7.670 9.960 C 7.514 10.565,7.475 11.440,7.576 12.079 C 7.802 13.503,8.625 14.791,9.832 15.607 C 10.492 16.054,10.902 16.172,11.186 15.997 C 11.442 15.838,11.637 15.367,11.562 15.088 C 11.511 14.897,11.379 14.773,11.000 14.561 C 10.239 14.135,9.723 13.593,9.362 12.837 C 9.093 12.275,9.027 11.959,9.026 11.240 C 9.026 10.683,9.037 10.584,9.133 10.260 C 9.277 9.779,9.530 9.282,9.806 8.940 C 10.077 8.604,14.733 3.957,15.022 3.734 C 15.302 3.518,15.831 3.261,16.260 3.133 C 16.584 3.037,16.683 3.026,17.240 3.026 C 17.959 3.027,18.275 3.093,18.837 3.362 C 20.104 3.968,20.911 5.168,20.987 6.560 C 21.027 7.291,20.848 8.019,20.471 8.661 C 20.287 8.974,20.115 9.167,19.131 10.163 C 18.015 11.292,17.880 11.459,17.880 11.700 C 17.880 11.855,18.014 12.087,18.199 12.255 C 18.469 12.498,18.685 12.541,18.952 12.404 C 19.033 12.362,19.605 11.817,20.222 11.194 C 21.390 10.015,21.621 9.731,21.939 9.089 C 22.305 8.346,22.439 7.808,22.469 6.959 C 22.494 6.212,22.427 5.712,22.218 5.087 C 21.607 3.260,20.001 1.887,18.120 1.582 C 17.665 1.508,16.775 1.506,16.380 1.578 M12.813 7.998 C 12.563 8.150,12.364 8.636,12.438 8.912 C 12.489 9.103,12.621 9.227,13.000 9.439 C 13.757 9.862,14.279 10.412,14.638 11.163 C 14.907 11.725,14.973 12.041,14.974 12.760 C 14.974 13.317,14.963 13.416,14.867 13.740 C 14.733 14.189,14.499 14.661,14.243 15.000 C 14.134 15.143,12.915 16.386,11.533 17.761 C 9.192 20.092,8.995 20.277,8.661 20.472 C 8.016 20.849,7.290 21.027,6.560 20.987 C 5.166 20.911,3.969 20.106,3.362 18.837 C 3.093 18.275,3.027 17.959,3.026 17.240 C 3.026 16.683,3.037 16.584,3.133 16.260 C 3.261 15.831,3.518 15.302,3.734 15.022 C 3.820 14.911,4.364 14.343,4.943 13.760 C 5.988 12.709,6.120 12.544,6.120 12.300 C 6.120 12.145,5.986 11.913,5.801 11.745 C 5.531 11.502,5.315 11.459,5.048 11.597 C 4.871 11.689,2.810 13.757,2.555 14.100 C 2.153 14.640,1.844 15.290,1.670 15.960 C 1.514 16.565,1.475 17.440,1.576 18.079 C 1.879 19.993,3.244 21.602,5.087 22.218 C 5.712 22.427,6.212 22.494,6.959 22.469 C 7.808 22.439,8.346 22.305,9.089 21.939 C 9.817 21.579,9.918 21.489,12.573 18.844 C 13.955 17.467,15.181 16.223,15.299 16.080 C 15.772 15.504,16.139 14.778,16.330 14.040 C 16.486 13.435,16.525 12.560,16.424 11.921 C 16.198 10.497,15.375 9.209,14.168 8.393 C 13.514 7.950,13.093 7.827,12.813 7.998 " stroke="none" fill-rule="evenodd" fill="black"></path></svg>