<svg width="24" height="24" viewBox="0 0 24 24" fill="none" xmlns="http://www.w3.org/2000/svg"><path d="M3.299 5.734 C 2.731 5.999,2.476 6.672,2.735 7.220 C 2.927 7.625,3.286 7.852,3.735 7.854 C 4.398 7.857,4.857 7.398,4.854 6.735 C 4.853 6.415,4.767 6.200,4.547 5.965 C 4.245 5.643,3.708 5.544,3.299 5.734 M7.939 6.042 C 7.641 6.129,7.507 6.377,7.526 6.803 C 7.542 7.157,7.613 7.293,7.843 7.410 C 7.972 7.476,8.360 7.480,14.255 7.480 L 20.529 7.480 20.678 7.396 C 20.907 7.268,20.980 7.114,20.980 6.760 C 20.980 6.409,20.898 6.231,20.679 6.101 C 20.541 6.021,20.498 6.020,14.300 6.013 C 10.760 6.010,8.008 6.022,7.939 6.042 M3.440 10.917 C 2.966 11.061,2.642 11.502,2.642 12.000 C 2.642 12.603,3.078 13.067,3.685 13.111 C 3.908 13.127,3.985 13.114,4.165 13.031 C 4.467 12.893,4.619 12.752,4.746 12.491 C 4.943 12.089,4.879 11.601,4.585 11.252 C 4.414 11.051,4.033 10.879,3.764 10.883 C 3.641 10.885,3.495 10.901,3.440 10.917 M8.027 11.278 C 7.667 11.349,7.510 11.591,7.528 12.047 C 7.542 12.392,7.608 12.521,7.844 12.660 C 7.978 12.739,8.052 12.740,14.260 12.740 C 20.469 12.740,20.541 12.739,20.673 12.660 C 20.896 12.525,20.980 12.346,20.980 12.000 C 20.980 11.654,20.896 11.475,20.673 11.340 C 20.542 11.261,20.464 11.260,14.360 11.254 C 10.961 11.251,8.111 11.262,8.027 11.278 M3.493 16.160 C 3.001 16.263,2.642 16.718,2.641 17.240 C 2.640 17.873,3.126 18.359,3.760 18.359 C 4.199 18.359,4.551 18.137,4.763 17.725 C 4.885 17.488,4.890 17.057,4.773 16.796 C 4.558 16.319,4.018 16.050,3.493 16.160 M7.843 16.590 C 7.613 16.707,7.542 16.843,7.526 17.200 C 7.514 17.466,7.525 17.538,7.600 17.671 C 7.648 17.757,7.744 17.862,7.814 17.904 C 7.937 17.978,8.110 17.980,14.240 17.980 C 20.504 17.980,20.541 17.980,20.679 17.899 C 20.898 17.769,20.980 17.591,20.980 17.240 C 20.980 16.886,20.907 16.732,20.678 16.604 L 20.529 16.520 14.255 16.520 C 8.360 16.520,7.972 16.524,7.843 16.590 " stroke="none" fill-rule="evenodd" fill="black"></path></svg>