<svg width="24" height="24" viewBox="0 0 24 24" fill="none" xmlns="http://www.w3.org/2000/svg"><path d="M11.100 1.582 C 10.132 1.745,9.126 2.252,8.405 2.940 C 7.690 3.622,7.172 4.481,6.935 5.380 C 6.784 5.952,6.761 6.301,6.761 8.044 L 6.760 9.748 6.432 9.776 C 5.765 9.831,5.144 10.129,4.637 10.637 C 4.290 10.983,4.054 11.358,3.892 11.820 L 3.780 12.140 3.780 16.120 L 3.780 20.100 3.889 20.420 C 4.051 20.896,4.257 21.217,4.660 21.622 C 4.961 21.924,5.083 22.014,5.400 22.173 C 6.051 22.498,5.639 22.479,12.000 22.479 C 18.361 22.479,17.949 22.498,18.600 22.173 C 18.917 22.014,19.039 21.924,19.340 21.622 C 19.743 21.217,19.949 20.896,20.111 20.420 L 20.220 20.100 20.220 16.120 L 20.220 12.140 20.108 11.820 C 19.946 11.358,19.710 10.983,19.363 10.637 C 18.856 10.129,18.235 9.831,17.568 9.776 L 17.240 9.748 17.239 8.044 C 17.238 6.055,17.197 5.649,16.921 4.930 C 16.236 3.146,14.691 1.876,12.840 1.576 C 12.418 1.507,11.526 1.510,11.100 1.582 M12.900 3.114 C 13.630 3.316,14.077 3.565,14.594 4.057 C 15.023 4.465,15.316 4.914,15.523 5.481 C 15.728 6.044,15.760 6.398,15.760 8.170 L 15.760 9.760 12.000 9.760 L 8.240 9.760 8.240 8.150 C 8.240 6.367,8.268 6.054,8.479 5.476 C 8.857 4.441,9.673 3.615,10.688 3.242 C 10.908 3.162,11.292 3.059,11.500 3.026 C 11.767 2.983,12.622 3.037,12.900 3.114 M17.760 11.331 C 18.167 11.492,18.527 11.861,18.669 12.260 C 18.735 12.446,18.740 12.717,18.740 16.140 L 18.740 19.820 18.647 20.050 C 18.518 20.371,18.217 20.687,17.888 20.849 L 17.622 20.980 12.000 20.980 L 6.378 20.980 6.112 20.849 C 5.783 20.687,5.482 20.371,5.353 20.050 L 5.260 19.820 5.249 16.266 C 5.241 13.947,5.252 12.634,5.279 12.488 C 5.389 11.893,5.868 11.398,6.445 11.283 C 6.541 11.264,9.086 11.251,12.100 11.254 C 17.254 11.260,17.591 11.264,17.760 11.331 " stroke="none" fill-rule="evenodd" fill="black"></path></svg>