<svg width="24" height="24" viewBox="0 0 24 24" fill="none" xmlns="http://www.w3.org/2000/svg"><path d="M17.100 1.582 C 16.132 1.745,15.126 2.252,14.405 2.940 C 13.690 3.622,13.170 4.485,12.936 5.379 C 12.780 5.972,12.761 6.259,12.761 8.029 L 12.760 9.758 7.950 9.769 L 3.140 9.780 2.820 9.892 C 2.358 10.054,1.983 10.290,1.637 10.637 C 1.290 10.983,1.054 11.358,0.892 11.820 L 0.780 12.140 0.780 16.120 L 0.780 20.100 0.889 20.420 C 1.051 20.896,1.257 21.217,1.660 21.622 C 1.961 21.924,2.083 22.014,2.400 22.173 C 3.051 22.498,2.639 22.479,9.000 22.479 C 15.361 22.479,14.949 22.498,15.600 22.173 C 15.917 22.014,16.039 21.924,16.340 21.622 C 16.743 21.217,16.949 20.896,17.111 20.420 L 17.220 20.100 17.220 16.120 L 17.220 12.140 17.108 11.820 C 16.946 11.358,16.710 10.983,16.363 10.637 C 15.856 10.129,15.235 9.831,14.568 9.776 L 14.240 9.748 14.240 8.144 C 14.240 6.367,14.268 6.053,14.479 5.476 C 14.857 4.441,15.673 3.615,16.688 3.242 C 17.185 3.060,17.404 3.023,18.000 3.023 C 18.597 3.023,18.810 3.059,19.320 3.245 C 20.319 3.609,21.146 4.449,21.523 5.481 C 21.738 6.071,21.760 6.360,21.760 8.657 C 21.760 10.673,21.762 10.740,21.842 10.905 C 22.064 11.362,22.936 11.362,23.158 10.905 C 23.238 10.739,23.240 10.675,23.239 8.537 C 23.238 6.009,23.210 5.682,22.921 4.930 C 22.236 3.146,20.691 1.876,18.840 1.576 C 18.418 1.507,17.526 1.510,17.100 1.582 M14.760 11.331 C 15.167 11.492,15.527 11.861,15.669 12.260 C 15.735 12.446,15.740 12.717,15.740 16.140 L 15.740 19.820 15.647 20.050 C 15.518 20.371,15.217 20.687,14.888 20.849 L 14.622 20.980 9.000 20.980 L 3.378 20.980 3.112 20.849 C 2.783 20.687,2.482 20.371,2.353 20.050 L 2.260 19.820 2.249 16.266 C 2.241 13.947,2.252 12.634,2.279 12.488 C 2.389 11.893,2.868 11.398,3.445 11.283 C 3.541 11.264,6.086 11.251,9.100 11.254 C 14.254 11.260,14.591 11.264,14.760 11.331 " stroke="none" fill-rule="evenodd" fill="black"></path></svg>