<svg width="24" height="24" viewBox="0 0 24 24" fill="none" xmlns="http://www.w3.org/2000/svg"><path d="M9.857 2.280 C 6.064 2.546,2.922 5.481,2.339 9.301 C 2.248 9.896,2.248 11.104,2.339 11.699 C 2.777 14.568,4.632 16.964,7.293 18.097 C 9.305 18.953,11.698 18.954,13.698 18.100 C 14.375 17.811,15.129 17.363,15.680 16.923 L 15.780 16.843 18.220 19.278 C 20.901 21.954,20.789 21.860,21.165 21.759 C 21.386 21.699,21.699 21.386,21.759 21.165 C 21.860 20.789,21.954 20.901,19.278 18.220 L 16.843 15.780 16.923 15.680 C 17.363 15.129,17.811 14.375,18.100 13.698 C 18.952 11.702,18.952 9.298,18.100 7.302 C 17.210 5.217,15.569 3.627,13.461 2.802 C 12.385 2.382,11.089 2.194,9.857 2.280 M11.449 3.821 C 13.942 4.196,15.971 5.842,16.838 8.195 C 17.679 10.476,17.190 13.098,15.583 14.928 C 14.277 16.416,12.464 17.240,10.500 17.240 C 7.736 17.240,5.251 15.558,4.240 13.005 C 3.382 10.837,3.673 8.472,5.035 6.541 C 5.324 6.131,6.131 5.324,6.541 5.035 C 7.444 4.398,8.442 3.990,9.500 3.825 C 9.996 3.748,10.948 3.746,11.449 3.821 M7.092 9.843 C 6.638 10.068,6.640 10.937,7.095 11.158 C 7.263 11.239,7.316 11.240,10.500 11.240 C 13.684 11.240,13.737 11.239,13.905 11.158 C 14.127 11.050,14.240 10.828,14.240 10.500 C 14.240 10.172,14.127 9.950,13.905 9.842 C 13.737 9.761,13.685 9.760,10.497 9.760 C 7.300 9.760,7.258 9.761,7.092 9.843 " stroke="none" fill-rule="evenodd" fill="black"></path></svg>