<svg width="24" height="24" viewBox="0 0 24 24" fill="none" xmlns="http://www.w3.org/2000/svg"><path d="M11.320 2.280 C 9.441 2.407,7.648 3.082,6.084 4.252 C 5.591 4.620,4.620 5.591,4.252 6.084 C 3.226 7.456,2.607 8.935,2.357 10.608 C 2.238 11.410,2.238 12.590,2.357 13.392 C 2.607 15.065,3.226 16.544,4.252 17.916 C 4.620 18.409,5.591 19.380,6.084 19.748 C 7.457 20.775,8.938 21.395,10.608 21.642 C 11.784 21.817,13.262 21.739,14.412 21.442 C 15.680 21.115,16.841 20.553,17.916 19.748 C 18.409 19.379,19.379 18.409,19.748 17.916 C 20.773 16.548,21.395 15.063,21.642 13.392 C 21.761 12.591,21.761 11.409,21.642 10.608 C 21.395 8.937,20.773 7.452,19.748 6.084 C 19.379 5.591,18.409 4.621,17.916 4.252 C 16.786 3.406,15.392 2.757,14.120 2.486 C 13.247 2.300,12.184 2.222,11.320 2.280 M13.180 3.838 C 14.600 4.049,15.862 4.579,17.009 5.445 C 17.434 5.766,18.234 6.566,18.555 6.991 C 20.636 9.747,20.811 13.444,18.999 16.366 C 18.375 17.371,17.371 18.375,16.366 18.999 C 13.687 20.661,10.313 20.661,7.634 18.999 C 6.629 18.375,5.625 17.371,5.001 16.366 C 3.491 13.931,3.342 10.873,4.609 8.343 C 5.042 7.479,5.477 6.878,6.177 6.177 C 7.056 5.299,8.001 4.686,9.125 4.266 C 10.372 3.800,11.867 3.642,13.180 3.838 M10.040 6.842 C 8.399 7.197,7.178 8.432,6.838 10.080 C 6.730 10.604,6.747 11.345,6.878 11.880 C 6.981 12.296,7.324 13.010,7.590 13.360 C 8.151 14.097,8.949 14.626,9.860 14.865 C 10.200 14.954,10.347 14.970,10.840 14.972 C 11.680 14.976,12.282 14.823,12.937 14.439 L 13.215 14.277 14.297 15.356 C 14.893 15.950,15.431 16.454,15.493 16.478 C 15.640 16.533,15.902 16.532,16.013 16.475 C 16.140 16.410,16.398 16.157,16.463 16.032 C 16.530 15.904,16.537 15.651,16.478 15.493 C 16.454 15.431,15.950 14.893,15.356 14.297 L 14.277 13.215 14.439 12.937 C 14.823 12.282,14.976 11.680,14.972 10.840 C 14.970 10.347,14.954 10.200,14.865 9.860 C 14.626 8.949,14.097 8.151,13.360 7.590 C 13.010 7.324,12.297 6.981,11.880 6.878 C 11.366 6.751,10.536 6.735,10.040 6.842 M11.392 8.301 C 11.901 8.402,12.321 8.635,12.723 9.037 C 13.268 9.582,13.484 10.105,13.485 10.880 C 13.486 11.640,13.264 12.174,12.719 12.719 C 12.175 13.263,11.641 13.486,10.880 13.486 C 10.108 13.486,9.582 13.268,9.037 12.723 C 8.761 12.448,8.661 12.313,8.528 12.040 C 8.017 10.990,8.206 9.849,9.027 9.027 C 9.676 8.379,10.503 8.125,11.392 8.301 " stroke="none" fill-rule="evenodd" fill="black"></path></svg>