<svg width="24" height="24" viewBox="0 0 24 24" fill="none" xmlns="http://www.w3.org/2000/svg"><path d="M11.360 2.281 C 10.289 2.363,9.381 2.613,8.380 3.099 C 6.362 4.079,4.866 5.800,4.161 7.954 C 3.689 9.395,3.634 11.083,4.002 12.800 C 4.733 16.211,7.241 19.528,10.934 21.967 C 11.581 22.395,11.773 22.489,12.000 22.489 C 12.227 22.489,12.419 22.395,13.066 21.967 C 16.759 19.527,19.262 16.217,19.998 12.800 C 20.207 11.826,20.290 10.582,20.204 9.704 C 19.863 6.228,17.389 3.354,14.006 2.502 C 13.218 2.304,12.182 2.217,11.360 2.281 M12.960 3.822 C 15.019 4.156,16.713 5.276,17.767 7.000 C 18.216 7.734,18.524 8.576,18.661 9.440 C 18.928 11.128,18.566 13.114,17.662 14.916 C 16.605 17.023,14.684 19.090,12.310 20.675 L 12.000 20.882 11.690 20.675 C 8.961 18.853,6.890 16.456,5.935 14.014 C 5.100 11.878,5.030 9.767,5.736 8.010 C 5.945 7.489,5.992 7.395,6.233 7.000 C 7.140 5.516,8.626 4.406,10.280 3.977 C 11.121 3.759,12.191 3.697,12.960 3.822 M11.386 6.799 C 9.711 7.103,8.439 8.461,8.285 10.110 C 8.176 11.276,8.551 12.344,9.347 13.130 C 9.828 13.605,10.334 13.907,10.989 14.107 C 11.309 14.205,11.398 14.214,12.000 14.214 C 12.602 14.214,12.691 14.205,13.011 14.107 C 13.666 13.907,14.172 13.605,14.653 13.130 C 15.449 12.344,15.824 11.276,15.715 10.110 C 15.635 9.257,15.264 8.474,14.653 7.870 C 14.317 7.538,14.072 7.360,13.671 7.157 C 13.153 6.894,12.745 6.795,12.120 6.778 C 11.823 6.770,11.493 6.780,11.386 6.799 M12.453 8.299 C 12.973 8.409,13.381 8.660,13.752 9.097 C 14.110 9.520,14.261 10.000,14.229 10.620 C 14.197 11.248,14.021 11.647,13.588 12.076 C 13.191 12.468,12.846 12.643,12.295 12.728 C 12.073 12.763,11.927 12.763,11.705 12.728 C 11.154 12.643,10.809 12.468,10.412 12.076 C 9.979 11.647,9.803 11.248,9.771 10.620 C 9.730 9.823,10.000 9.231,10.635 8.721 C 11.140 8.316,11.804 8.162,12.453 8.299 " stroke="none" fill-rule="evenodd" fill="black"></path></svg>