<svg width="24" height="24" viewBox="0 0 24 24" fill="none" xmlns="http://www.w3.org/2000/svg"><path d="M8.440 2.476 C 8.319 2.515,7.060 3.128,5.641 3.839 C 3.130 5.096,3.056 5.137,2.811 5.382 C 2.510 5.682,2.340 6.017,2.282 6.420 C 2.227 6.799,2.227 19.075,2.281 19.460 C 2.367 20.063,2.739 20.567,3.309 20.849 C 3.624 21.005,3.677 21.019,4.034 21.033 C 4.351 21.045,4.466 21.033,4.673 20.963 C 4.812 20.916,5.825 20.428,6.923 19.879 C 8.021 19.329,8.956 18.880,9.000 18.880 C 9.044 18.880,10.247 19.463,11.672 20.176 C 13.098 20.889,14.361 21.501,14.479 21.536 C 14.756 21.618,15.245 21.618,15.522 21.536 C 15.641 21.500,16.908 20.886,18.338 20.171 C 20.871 18.903,20.944 18.864,21.189 18.618 C 21.490 18.318,21.660 17.983,21.718 17.580 C 21.773 17.201,21.773 4.925,21.719 4.540 C 21.633 3.937,21.261 3.433,20.692 3.152 C 20.382 2.998,20.321 2.982,19.982 2.967 C 19.713 2.955,19.548 2.969,19.380 3.018 C 19.253 3.055,18.233 3.543,17.114 4.103 C 15.996 4.662,15.044 5.120,15.000 5.120 C 14.956 5.120,13.753 4.537,12.328 3.824 C 10.902 3.111,9.639 2.499,9.521 2.464 C 9.234 2.379,8.722 2.384,8.440 2.476 M11.672 5.176 C 13.098 5.889,14.361 6.501,14.479 6.536 C 14.755 6.618,15.245 6.618,15.521 6.536 C 15.639 6.501,16.653 6.013,17.774 5.453 C 19.997 4.341,19.972 4.350,20.158 4.587 C 20.240 4.691,20.240 4.706,20.240 11.056 C 20.240 16.803,20.234 17.431,20.177 17.513 C 20.105 17.615,15.132 20.120,15.000 20.120 C 14.956 20.120,13.753 19.537,12.328 18.824 C 10.902 18.111,9.639 17.499,9.521 17.464 C 9.245 17.382,8.755 17.382,8.479 17.464 C 8.361 17.499,7.347 17.987,6.226 18.547 C 4.003 19.659,4.028 19.650,3.842 19.413 C 3.760 19.309,3.760 19.294,3.760 12.944 C 3.760 7.197,3.766 6.569,3.823 6.487 C 3.897 6.382,8.848 3.886,8.990 3.882 C 9.040 3.881,10.247 4.463,11.672 5.176 M8.718 6.036 C 8.528 6.097,8.448 6.158,8.354 6.309 L 8.260 6.460 8.260 10.860 C 8.260 15.188,8.261 15.262,8.340 15.396 C 8.449 15.581,8.596 15.682,8.815 15.723 C 9.182 15.792,9.499 15.669,9.660 15.396 C 9.739 15.262,9.740 15.188,9.740 10.860 L 9.740 6.460 9.653 6.320 C 9.605 6.243,9.508 6.146,9.438 6.105 C 9.297 6.022,8.882 5.982,8.718 6.036 M14.787 8.278 C 14.598 8.316,14.444 8.427,14.340 8.604 C 14.261 8.738,14.260 8.812,14.260 13.140 L 14.260 17.540 14.354 17.691 C 14.490 17.910,14.643 17.978,15.000 17.979 C 15.349 17.980,15.513 17.905,15.653 17.680 L 15.740 17.540 15.752 13.360 C 15.759 11.061,15.753 9.068,15.739 8.931 C 15.698 8.526,15.497 8.311,15.120 8.269 C 15.021 8.257,14.871 8.262,14.787 8.278 " stroke="none" fill-rule="evenodd" fill="black"></path></svg>