<svg width="24" height="24" viewBox="0 0 24 24" fill="none" xmlns="http://www.w3.org/2000/svg"><path d="M18.550 2.297 C 18.053 2.474,17.934 2.795,18.140 3.400 C 18.195 3.562,18.240 3.706,18.240 3.721 C 18.240 3.754,17.694 4.009,17.100 4.252 C 15.424 4.940,13.722 5.420,11.984 5.698 C 10.695 5.903,10.037 5.957,8.300 5.999 C 7.508 6.018,6.749 6.053,6.613 6.077 C 5.024 6.358,3.621 7.378,2.862 8.806 C 2.246 9.963,2.096 11.440,2.465 12.713 C 2.858 14.070,3.826 15.250,5.075 15.895 C 5.509 16.119,5.770 16.217,6.260 16.339 L 6.620 16.429 6.672 16.625 C 6.965 17.729,7.388 18.960,7.797 19.896 C 8.184 20.784,8.352 20.989,8.897 21.244 C 9.248 21.409,9.769 21.449,10.142 21.342 C 10.576 21.217,11.444 20.684,11.714 20.377 C 12.046 20.001,12.182 19.562,12.150 18.982 C 12.132 18.673,12.104 18.561,11.960 18.220 C 11.723 17.656,11.392 16.755,11.414 16.732 C 11.425 16.722,11.619 16.742,11.847 16.778 C 13.822 17.085,15.879 17.692,17.692 18.502 C 17.957 18.620,18.190 18.734,18.211 18.755 C 18.236 18.780,18.211 18.904,18.145 19.097 C 17.950 19.662,18.026 19.949,18.422 20.143 C 18.707 20.282,19.025 20.296,19.187 20.176 C 19.361 20.048,19.453 19.886,19.610 19.435 C 20.237 17.637,20.662 15.734,20.854 13.875 L 20.910 13.331 21.102 13.095 C 21.333 12.813,21.574 12.313,21.664 11.936 C 21.751 11.565,21.749 10.901,21.659 10.539 C 21.565 10.161,21.358 9.735,21.113 9.415 L 20.910 9.150 20.856 8.625 C 20.665 6.776,20.208 4.739,19.605 3.049 C 19.427 2.551,19.330 2.388,19.159 2.299 C 19.018 2.227,18.751 2.225,18.550 2.297 M18.858 5.806 C 19.134 6.967,19.382 8.529,19.419 9.345 C 19.428 9.540,19.452 10.051,19.473 10.480 C 19.497 10.968,19.497 11.545,19.473 12.020 C 19.453 12.438,19.428 12.942,19.419 13.140 C 19.381 13.921,19.168 15.323,18.919 16.420 C 18.759 17.126,18.716 17.280,18.679 17.280 C 18.661 17.280,18.371 17.161,18.034 17.016 C 16.057 16.166,13.927 15.563,11.900 15.279 C 10.834 15.130,10.954 15.173,10.894 14.920 C 10.556 13.499,10.421 11.212,10.579 9.620 C 10.671 8.703,10.880 7.483,10.965 7.376 C 10.985 7.351,11.130 7.319,11.289 7.305 C 11.698 7.267,12.718 7.099,13.398 6.958 C 15.000 6.625,16.797 6.042,18.300 5.366 C 18.498 5.278,18.672 5.204,18.687 5.202 C 18.701 5.201,18.778 5.473,18.858 5.806 M9.360 7.519 C 9.360 7.540,9.315 7.832,9.261 8.169 C 8.917 10.292,8.931 12.661,9.299 14.580 C 9.332 14.756,9.360 14.928,9.360 14.963 C 9.360 15.057,7.298 15.025,6.779 14.922 C 5.464 14.661,4.401 13.738,3.960 12.472 C 3.798 12.008,3.747 11.625,3.771 11.060 C 3.850 9.221,5.270 7.719,7.115 7.523 C 7.564 7.475,9.360 7.472,9.360 7.519 M9.652 16.554 C 9.756 16.579,9.778 16.622,9.937 17.101 C 10.146 17.729,10.231 17.958,10.490 18.576 C 10.701 19.082,10.719 19.247,10.577 19.404 C 10.491 19.498,9.747 19.920,9.666 19.920 C 9.549 19.920,9.409 19.831,9.360 19.726 C 9.183 19.346,8.886 18.626,8.731 18.200 C 8.543 17.685,8.202 16.614,8.201 16.536 C 8.200 16.488,9.440 16.504,9.652 16.554 " stroke="none" fill-rule="evenodd" fill="black"></path></svg>