<svg width="24" height="24" viewBox="0 0 24 24" fill="none" xmlns="http://www.w3.org/2000/svg"><path d="M11.386 0.799 C 9.981 1.054,8.849 2.045,8.425 3.392 C 8.246 3.959,8.234 4.331,8.250 8.960 C 8.266 13.614,8.258 13.435,8.482 14.035 C 8.903 15.161,9.854 16.035,11.020 16.369 C 11.295 16.447,11.432 16.460,12.000 16.460 C 12.568 16.460,12.705 16.447,12.980 16.369 C 14.144 16.036,15.098 15.158,15.518 14.035 C 15.742 13.435,15.734 13.614,15.750 8.960 C 15.759 6.136,15.750 4.499,15.722 4.192 C 15.638 3.258,15.287 2.497,14.653 1.870 C 14.317 1.538,14.072 1.360,13.671 1.157 C 13.153 0.894,12.745 0.795,12.120 0.778 C 11.823 0.770,11.493 0.780,11.386 0.799 M12.453 2.299 C 13.295 2.478,13.968 3.117,14.179 3.938 C 14.271 4.298,14.271 12.942,14.179 13.302 C 13.869 14.509,12.651 15.231,11.440 14.925 C 11.019 14.818,10.736 14.653,10.401 14.318 C 10.121 14.037,9.918 13.688,9.819 13.320 C 9.730 12.982,9.731 4.289,9.821 3.938 C 9.946 3.451,10.202 3.068,10.635 2.721 C 11.140 2.316,11.804 2.162,12.453 2.299 M5.603 10.588 C 5.290 10.752,5.244 10.929,5.243 11.960 C 5.242 13.658,5.400 14.541,5.899 15.620 C 6.439 16.786,7.402 17.853,8.520 18.525 C 9.265 18.973,10.234 19.318,11.030 19.421 L 11.240 19.448 11.240 20.604 L 11.240 21.760 9.630 21.761 C 8.134 21.762,8.008 21.767,7.852 21.838 C 7.623 21.942,7.520 22.148,7.520 22.500 C 7.520 22.852,7.623 23.058,7.852 23.162 C 8.014 23.235,8.173 23.238,12.000 23.238 C 15.827 23.238,15.986 23.235,16.148 23.162 C 16.377 23.058,16.480 22.852,16.480 22.500 C 16.480 22.148,16.377 21.942,16.148 21.838 C 15.992 21.767,15.866 21.762,14.370 21.761 L 12.760 21.760 12.760 20.604 L 12.760 19.448 12.970 19.421 C 13.085 19.406,13.360 19.352,13.580 19.300 C 16.085 18.710,18.077 16.662,18.597 14.140 C 18.710 13.597,18.771 12.656,18.754 11.740 C 18.742 11.067,18.731 10.964,18.660 10.844 C 18.512 10.593,18.398 10.540,18.000 10.540 C 17.602 10.540,17.488 10.593,17.340 10.844 C 17.266 10.970,17.258 11.078,17.234 12.260 C 17.207 13.635,17.192 13.754,16.962 14.440 C 16.469 15.913,15.273 17.144,13.830 17.667 C 12.609 18.109,11.391 18.109,10.170 17.667 C 8.740 17.149,7.564 15.947,7.046 14.474 C 6.815 13.815,6.794 13.645,6.766 12.260 C 6.742 11.078,6.734 10.970,6.660 10.844 C 6.521 10.608,6.392 10.542,6.047 10.528 C 5.811 10.519,5.708 10.533,5.603 10.588 " stroke="none" fill-rule="evenodd" fill="black"></path></svg>