<svg width="24" height="24" viewBox="0 0 24 24" fill="none" xmlns="http://www.w3.org/2000/svg"><path d="M8.400 1.698 C 6.199 2.707,4.428 4.425,3.344 6.602 C 2.678 7.941,2.371 9.117,2.281 10.673 C 2.108 13.685,3.190 16.515,5.338 18.662 C 7.485 20.810,10.315 21.892,13.327 21.719 C 14.883 21.629,16.059 21.322,17.398 20.656 C 19.477 19.621,21.132 17.964,22.160 15.888 C 22.536 15.129,22.584 14.927,22.455 14.655 C 22.386 14.509,22.143 14.342,21.905 14.276 C 21.739 14.231,21.658 14.249,20.880 14.515 C 20.201 14.747,19.709 14.859,19.008 14.941 C 16.661 15.215,14.234 14.512,12.366 13.015 C 11.938 12.673,11.327 12.062,10.985 11.634 C 10.133 10.572,9.486 9.216,9.203 7.908 C 8.829 6.172,8.985 4.309,9.644 2.650 C 9.851 2.130,9.781 1.831,9.406 1.627 C 9.107 1.464,8.874 1.481,8.400 1.698 M7.720 3.836 C 7.720 3.855,7.694 4.013,7.661 4.186 C 7.519 4.952,7.476 6.222,7.563 7.103 C 7.725 8.731,8.319 10.389,9.234 11.762 C 9.700 12.461,10.028 12.864,10.582 13.418 C 11.136 13.972,11.539 14.300,12.238 14.766 C 13.619 15.686,15.236 16.263,16.928 16.439 C 17.758 16.526,18.986 16.482,19.814 16.337 C 20.009 16.303,20.176 16.283,20.186 16.292 C 20.227 16.333,19.578 17.138,19.176 17.545 C 17.677 19.062,15.792 19.975,13.687 20.202 C 13.120 20.263,11.845 20.231,11.321 20.141 C 7.462 19.483,4.517 16.538,3.859 12.679 C 3.769 12.154,3.737 10.880,3.798 10.313 C 4.070 7.816,5.320 5.598,7.323 4.063 C 7.662 3.803,7.720 3.770,7.720 3.836 " stroke="none" fill-rule="evenodd" fill="black"></path></svg>