<svg width="24" height="24" viewBox="0 0 24 24" fill="none" xmlns="http://www.w3.org/2000/svg"><path d="M13.960 3.047 C 9.930 4.202,8.629 4.590,8.530 4.665 C 8.238 4.888,8.262 4.402,8.240 10.480 L 8.220 15.940 8.114 16.167 C 7.980 16.451,7.740 16.714,7.492 16.850 C 7.386 16.907,6.724 17.118,6.020 17.319 C 4.469 17.762,4.197 17.881,3.786 18.293 C 3.346 18.735,3.131 19.156,3.036 19.766 C 2.895 20.677,3.326 21.669,4.093 22.195 C 4.584 22.533,5.050 22.660,5.687 22.630 C 6.041 22.614,6.224 22.576,6.960 22.363 C 7.438 22.226,7.950 22.051,8.112 21.970 C 8.849 21.601,9.445 20.862,9.666 20.039 C 9.731 19.800,9.737 19.382,9.750 14.671 L 9.763 9.563 10.031 9.483 C 10.611 9.313,18.720 7.000,18.740 7.000 C 18.751 7.000,18.760 8.273,18.759 9.830 C 18.759 12.879,18.755 12.936,18.549 13.289 C 18.409 13.527,18.153 13.777,17.944 13.878 C 17.850 13.924,17.217 14.121,16.537 14.317 C 15.856 14.513,15.222 14.702,15.126 14.737 C 14.546 14.946,13.997 15.476,13.722 16.093 C 13.557 16.464,13.506 16.777,13.530 17.271 C 13.553 17.729,13.646 18.051,13.863 18.422 C 14.141 18.896,14.707 19.347,15.245 19.523 C 15.501 19.607,15.612 19.620,16.080 19.617 L 16.620 19.614 17.460 19.367 C 18.564 19.043,18.870 18.891,19.324 18.441 C 19.826 17.944,20.100 17.436,20.200 16.823 C 20.225 16.670,20.240 13.889,20.240 9.307 C 20.241 2.214,20.239 2.029,20.164 1.859 C 20.108 1.732,20.043 1.663,19.925 1.603 C 19.586 1.430,19.699 1.403,13.960 3.047 M18.760 4.337 C 18.760 5.348,18.754 5.436,18.690 5.456 C 18.652 5.467,16.658 6.036,14.260 6.720 C 11.862 7.404,9.869 7.973,9.830 7.984 C 9.765 8.004,9.760 7.934,9.760 6.908 L 9.760 5.811 14.230 4.530 C 16.688 3.825,18.713 3.246,18.730 3.244 C 18.747 3.242,18.760 3.734,18.760 4.337 M18.751 15.890 C 18.737 16.530,18.724 16.648,18.645 16.850 C 18.533 17.133,18.215 17.491,17.959 17.621 C 17.670 17.767,16.256 18.160,16.019 18.160 C 15.612 18.160,15.194 17.842,15.056 17.429 C 14.904 16.972,15.133 16.401,15.556 16.182 C 15.616 16.151,16.262 15.954,16.993 15.744 C 17.725 15.534,18.408 15.318,18.511 15.264 C 18.615 15.210,18.715 15.165,18.734 15.163 C 18.752 15.161,18.760 15.489,18.751 15.890 M8.200 19.667 C 8.114 20.068,7.750 20.502,7.362 20.669 C 7.078 20.790,5.710 21.160,5.544 21.160 C 5.014 21.160,4.530 20.700,4.510 20.177 C 4.493 19.747,4.730 19.336,5.089 19.171 C 5.183 19.128,5.818 18.935,6.500 18.742 C 7.182 18.548,7.848 18.342,7.980 18.283 L 8.220 18.175 8.233 18.818 C 8.240 19.193,8.226 19.546,8.200 19.667 " stroke="none" fill-rule="evenodd" fill="black"></path></svg>