<svg width="24" height="24" viewBox="0 0 24 24" fill="none" xmlns="http://www.w3.org/2000/svg"><path d="M3.720 3.044 C 3.423 3.102,3.048 3.312,2.800 3.560 C 2.501 3.859,2.333 4.200,2.278 4.620 C 2.250 4.836,2.240 7.153,2.249 11.720 L 2.262 18.500 2.353 18.799 C 2.514 19.323,2.740 19.702,3.119 20.084 C 3.621 20.590,4.114 20.852,4.763 20.958 C 5.120 21.016,18.880 21.016,19.237 20.958 C 19.886 20.852,20.379 20.590,20.881 20.084 C 21.260 19.702,21.486 19.322,21.646 18.799 L 21.737 18.500 21.750 13.561 C 21.759 10.218,21.750 8.531,21.721 8.341 C 21.611 7.613,21.018 6.964,20.315 6.802 C 20.215 6.779,19.521 6.762,18.690 6.761 L 17.240 6.760 17.240 5.688 C 17.240 4.853,17.226 4.564,17.178 4.378 C 17.012 3.736,16.428 3.183,15.768 3.045 C 15.509 2.990,3.999 2.989,3.720 3.044 M15.519 4.550 C 15.596 4.589,15.681 4.665,15.709 4.720 C 15.748 4.799,15.759 6.254,15.759 11.572 C 15.760 18.997,15.749 18.646,16.002 19.194 C 16.067 19.334,16.120 19.465,16.120 19.484 C 16.120 19.536,5.368 19.530,5.040 19.478 C 4.528 19.397,4.108 19.080,3.887 18.609 L 3.780 18.380 3.770 11.556 L 3.759 4.732 3.863 4.628 C 3.920 4.571,4.005 4.517,4.053 4.508 C 4.101 4.499,6.669 4.488,9.760 4.486 C 15.037 4.480,15.389 4.484,15.519 4.550 M5.660 6.808 C 5.508 6.862,5.409 6.948,5.326 7.100 C 5.267 7.206,5.260 7.422,5.260 9.000 C 5.260 10.910,5.260 10.906,5.466 11.084 C 5.632 11.229,5.781 11.240,7.500 11.240 C 9.219 11.240,9.368 11.229,9.534 11.084 C 9.740 10.906,9.740 10.910,9.740 9.000 C 9.740 7.422,9.733 7.206,9.674 7.100 C 9.588 6.943,9.491 6.862,9.324 6.806 C 9.144 6.745,5.833 6.748,5.660 6.808 M11.660 6.808 C 11.383 6.906,11.267 7.109,11.267 7.500 C 11.267 7.900,11.383 8.096,11.676 8.194 C 11.763 8.224,12.159 8.240,12.773 8.240 C 13.662 8.240,13.748 8.234,13.905 8.158 C 14.127 8.050,14.240 7.828,14.240 7.500 C 14.240 7.172,14.127 6.950,13.905 6.842 C 13.747 6.766,13.666 6.760,12.757 6.763 C 12.185 6.765,11.730 6.784,11.660 6.808 M8.240 9.000 L 8.240 9.760 7.500 9.760 L 6.760 9.760 6.760 9.000 L 6.760 8.240 7.500 8.240 L 8.240 8.240 8.240 9.000 M20.018 8.297 C 20.093 8.328,20.173 8.390,20.197 8.435 C 20.228 8.493,20.238 9.941,20.230 13.449 L 20.220 18.382 20.089 18.648 C 19.869 19.094,19.463 19.399,18.992 19.472 C 18.194 19.596,17.454 19.082,17.285 18.288 C 17.253 18.138,17.240 16.647,17.240 13.158 L 17.240 8.240 18.561 8.240 C 19.610 8.240,19.911 8.252,20.018 8.297 M11.660 9.808 C 11.383 9.906,11.267 10.109,11.267 10.500 C 11.267 10.900,11.383 11.096,11.676 11.194 C 11.763 11.224,12.159 11.240,12.773 11.240 C 13.662 11.240,13.748 11.234,13.905 11.158 C 14.127 11.050,14.240 10.828,14.240 10.500 C 14.240 10.172,14.127 9.950,13.905 9.842 C 13.747 9.766,13.666 9.760,12.757 9.763 C 12.185 9.765,11.730 9.784,11.660 9.808 M5.660 12.808 C 5.383 12.906,5.267 13.109,5.267 13.500 C 5.267 13.900,5.383 14.096,5.676 14.194 C 5.774 14.227,6.911 14.240,9.773 14.240 C 13.692 14.240,13.737 14.239,13.905 14.158 C 14.362 13.936,14.362 13.064,13.905 12.842 C 13.736 12.761,13.695 12.760,9.757 12.763 C 7.087 12.765,5.741 12.780,5.660 12.808 M5.660 15.808 C 5.383 15.906,5.267 16.109,5.267 16.500 C 5.267 16.900,5.383 17.096,5.676 17.194 C 5.774 17.227,6.911 17.240,9.773 17.240 C 13.692 17.240,13.737 17.239,13.905 17.158 C 14.362 16.936,14.362 16.064,13.905 15.842 C 13.736 15.761,13.695 15.760,9.757 15.763 C 7.087 15.765,5.741 15.780,5.660 15.808 " stroke="none" fill-rule="evenodd" fill="black"></path></svg>