<svg width="24" height="24" viewBox="0 0 24 24" fill="none" xmlns="http://www.w3.org/2000/svg"><path d="M11.320 2.280 C 9.441 2.407,7.648 3.082,6.084 4.252 C 5.591 4.620,4.620 5.591,4.252 6.084 C 3.202 7.488,2.579 9.003,2.337 10.740 C 2.238 11.449,2.247 12.654,2.357 13.392 C 2.606 15.064,3.226 16.544,4.252 17.916 C 4.620 18.409,5.591 19.380,6.084 19.748 C 7.456 20.774,8.935 21.393,10.608 21.643 C 11.783 21.818,13.257 21.740,14.412 21.442 C 15.679 21.115,16.837 20.555,17.916 19.748 C 18.409 19.380,19.380 18.409,19.748 17.916 C 20.774 16.544,21.393 15.065,21.643 13.392 C 21.762 12.590,21.762 11.410,21.643 10.608 C 21.393 8.935,20.774 7.456,19.748 6.084 C 19.380 5.591,18.409 4.620,17.916 4.252 C 16.782 3.404,15.391 2.757,14.120 2.486 C 13.247 2.300,12.184 2.222,11.320 2.280 M13.089 3.822 C 14.521 4.018,15.848 4.569,17.020 5.453 C 17.435 5.767,18.237 6.570,18.555 6.991 C 19.665 8.461,20.240 10.169,20.240 12.000 C 20.240 13.803,19.685 15.483,18.612 16.930 C 18.469 17.122,18.349 17.280,18.346 17.280 C 18.343 17.280,15.724 14.664,12.527 11.467 L 6.713 5.653 7.067 5.392 C 8.200 4.556,9.416 4.049,10.800 3.838 C 11.400 3.746,12.481 3.739,13.089 3.822 M11.473 12.533 L 17.287 18.347 16.933 18.609 C 15.482 19.686,13.805 20.240,12.000 20.240 C 10.158 20.240,8.469 19.670,6.980 18.547 C 6.569 18.236,5.764 17.431,5.453 17.020 C 4.755 16.094,4.276 15.101,4.002 14.009 C 3.681 12.732,3.675 11.321,3.986 10.040 C 4.173 9.268,4.584 8.288,4.985 7.651 C 5.111 7.452,5.637 6.720,5.654 6.720 C 5.657 6.720,8.276 9.336,11.473 12.533 " stroke="none" fill-rule="evenodd" fill="black"></path></svg>