<svg width="24" height="24" viewBox="0 0 24 24" fill="none" xmlns="http://www.w3.org/2000/svg"><path d="M20.140 1.555 C 19.855 1.630,19.503 1.851,16.639 3.759 C 12.906 6.247,12.857 6.281,11.960 7.065 C 10.124 8.667,8.685 10.649,7.645 13.006 C 7.532 13.262,7.440 13.487,7.440 13.506 C 7.440 13.525,7.129 13.541,6.750 13.542 C 6.115 13.545,6.031 13.554,5.700 13.655 C 4.152 14.128,3.111 15.447,3.016 17.058 C 2.976 17.725,2.846 18.043,2.479 18.373 C 2.206 18.619,1.918 18.722,1.431 18.750 C 0.995 18.774,0.850 18.835,0.721 19.048 C 0.613 19.225,0.579 19.492,0.639 19.694 C 0.781 20.176,1.628 21.137,2.310 21.590 C 3.230 22.202,4.145 22.480,5.240 22.480 C 5.858 22.480,6.373 22.399,6.920 22.216 C 8.239 21.775,9.360 20.788,9.960 19.540 C 10.356 18.716,10.460 18.247,10.460 17.277 L 10.460 16.575 10.740 16.462 C 11.914 15.990,13.231 15.243,14.400 14.385 C 15.677 13.449,17.016 12.080,17.986 10.720 C 18.545 9.936,22.261 4.323,22.355 4.121 C 22.447 3.922,22.457 3.851,22.459 3.398 C 22.460 2.897,22.460 2.895,22.310 2.592 C 22.113 2.193,21.808 1.888,21.409 1.690 C 21.122 1.549,21.083 1.540,20.683 1.532 C 20.450 1.528,20.206 1.538,20.140 1.555 M20.864 3.136 C 20.960 3.232,21.000 3.308,21.000 3.395 C 21.000 3.492,20.544 4.203,18.924 6.634 C 17.782 8.347,16.699 9.945,16.518 10.184 C 15.671 11.303,14.573 12.393,13.486 13.196 C 13.251 13.370,13.185 13.402,13.156 13.356 C 13.135 13.325,13.079 13.237,13.032 13.160 C 12.570 12.418,11.574 11.424,10.823 10.958 C 10.736 10.904,10.648 10.848,10.626 10.834 C 10.604 10.819,10.681 10.679,10.802 10.514 C 11.460 9.614,12.568 8.469,13.500 7.724 C 13.798 7.486,15.398 6.389,17.250 5.154 C 19.782 3.465,20.507 3.000,20.604 3.000 C 20.692 3.000,20.768 3.040,20.864 3.136 M10.015 12.219 C 10.670 12.638,11.362 13.330,11.781 13.984 C 11.912 14.188,11.918 14.212,11.857 14.257 C 11.732 14.349,10.662 14.874,10.277 15.032 L 9.895 15.190 9.663 14.895 C 9.535 14.733,9.323 14.514,9.192 14.410 C 9.060 14.305,8.919 14.193,8.877 14.160 C 8.804 14.102,8.811 14.079,9.058 13.520 C 9.292 12.988,9.751 12.080,9.784 12.080 C 9.792 12.080,9.896 12.142,10.015 12.219 M7.471 15.129 C 8.147 15.369,8.655 15.880,8.889 16.556 C 9.018 16.930,9.017 17.671,8.886 18.160 C 8.184 20.778,5.134 21.848,2.984 20.232 C 2.740 20.049,2.716 20.019,2.780 19.982 C 3.594 19.510,4.133 18.890,4.362 18.162 C 4.408 18.012,4.460 17.683,4.483 17.382 C 4.505 17.095,4.551 16.762,4.585 16.642 C 4.813 15.837,5.479 15.215,6.300 15.039 C 6.600 14.974,7.155 15.017,7.471 15.129 " stroke="none" fill-rule="evenodd" fill="black"></path></svg>