<svg width="24" height="24" viewBox="0 0 24 24" fill="none" xmlns="http://www.w3.org/2000/svg"><path d="M3.120 2.401 C 2.939 2.433,2.765 2.526,2.643 2.656 C 2.572 2.732,2.542 2.819,2.528 2.982 C 2.511 3.186,2.621 3.566,3.862 7.602 L 5.215 12.000 3.901 16.270 C 3.179 18.619,2.571 20.612,2.550 20.700 C 2.473 21.036,2.646 21.438,2.932 21.586 C 3.116 21.681,3.351 21.640,4.320 21.340 C 9.340 19.788,13.813 17.770,18.220 15.067 C 19.704 14.157,21.916 12.660,22.075 12.457 C 22.208 12.288,22.293 12.020,22.263 11.861 C 22.222 11.641,22.048 11.479,21.285 10.943 C 16.096 7.307,10.330 4.492,4.300 2.654 C 3.468 2.401,3.312 2.367,3.120 2.401 M7.100 5.179 C 10.648 6.494,14.018 8.127,17.280 10.113 C 18.206 10.676,20.160 11.957,20.160 12.000 C 20.160 12.043,18.206 13.324,17.280 13.887 C 15.722 14.836,14.609 15.450,12.920 16.294 C 10.354 17.576,8.125 18.500,5.330 19.442 C 4.819 19.614,4.400 19.752,4.401 19.748 C 4.401 19.743,4.884 18.174,5.473 16.260 L 6.545 12.780 10.162 12.760 C 14.071 12.738,13.899 12.748,14.084 12.534 C 14.290 12.297,14.290 11.703,14.084 11.466 C 13.899 11.252,14.071 11.262,10.162 11.240 L 6.545 11.220 5.473 7.740 C 4.884 5.826,4.401 4.256,4.401 4.251 C 4.399 4.234,6.449 4.938,7.100 5.179 " stroke="none" fill-rule="evenodd" fill="black"></path></svg>