<svg width="24" height="24" viewBox="0 0 24 24" fill="none" xmlns="http://www.w3.org/2000/svg"><path d="M16.700 1.563 C 16.239 1.640,15.606 1.913,15.184 2.218 C 15.050 2.315,12.337 5.001,9.156 8.187 C 4.176 13.174,3.340 14.028,3.146 14.324 C 2.561 15.217,2.275 16.158,2.272 17.200 C 2.270 17.809,2.323 18.224,2.467 18.720 C 3.000 20.565,4.528 21.975,6.441 22.387 C 6.919 22.490,8.081 22.490,8.559 22.387 C 9.293 22.229,10.026 21.902,10.617 21.468 C 10.998 21.188,18.862 13.363,19.045 13.082 C 19.232 12.794,19.187 12.514,18.906 12.206 C 18.711 11.993,18.386 11.907,18.133 12.002 C 18.070 12.026,16.222 13.839,13.940 16.116 C 9.569 20.477,9.625 20.426,8.933 20.708 C 8.010 21.085,7.017 21.090,6.099 20.722 C 4.896 20.241,3.995 19.113,3.797 17.840 C 3.725 17.378,3.770 16.654,3.896 16.228 C 4.022 15.803,4.221 15.392,4.458 15.064 C 4.555 14.930,7.214 12.243,10.367 9.094 C 16.020 3.448,16.104 3.366,16.400 3.228 C 17.057 2.921,17.712 2.921,18.360 3.229 C 18.748 3.413,19.208 3.864,19.394 4.242 C 19.532 4.524,19.639 4.958,19.639 5.240 C 19.639 5.534,19.531 5.960,19.376 6.280 C 19.234 6.572,19.086 6.725,13.605 12.211 C 9.763 16.057,7.928 17.867,7.817 17.921 C 7.252 18.196,6.660 17.701,6.778 17.053 C 6.803 16.916,7.229 16.476,10.878 12.820 C 15.216 8.474,15.080 8.623,15.026 8.290 C 14.973 7.964,14.574 7.600,14.268 7.600 C 14.182 7.600,14.055 7.627,13.986 7.660 C 13.916 7.693,12.012 9.570,9.755 11.830 C 5.420 16.172,5.489 16.097,5.338 16.620 C 5.244 16.944,5.244 17.542,5.337 17.860 C 5.555 18.606,6.183 19.231,6.899 19.418 C 7.204 19.498,7.796 19.498,8.101 19.418 C 8.681 19.267,8.403 19.528,14.545 13.385 C 17.672 10.258,20.303 7.601,20.392 7.480 C 20.618 7.175,20.854 6.687,20.984 6.260 C 21.085 5.931,21.094 5.844,21.094 5.260 C 21.094 4.727,21.079 4.566,21.006 4.300 C 20.627 2.912,19.488 1.844,18.102 1.579 C 17.772 1.516,17.032 1.507,16.700 1.563 " stroke="none" fill-rule="evenodd" fill="black"></path></svg>