<svg width="24" height="24" viewBox="0 0 24 24" fill="none" xmlns="http://www.w3.org/2000/svg"><path d="M11.320 2.280 C 9.441 2.407,7.648 3.082,6.084 4.252 C 5.591 4.620,4.620 5.591,4.252 6.084 C 3.226 7.456,2.607 8.935,2.357 10.608 C 2.238 11.410,2.238 12.590,2.357 13.392 C 2.607 15.065,3.226 16.544,4.252 17.916 C 4.620 18.409,5.591 19.380,6.084 19.748 C 7.457 20.775,8.938 21.395,10.608 21.642 C 11.784 21.817,13.262 21.739,14.412 21.442 C 15.680 21.115,16.841 20.553,17.916 19.748 C 18.409 19.379,19.379 18.409,19.748 17.916 C 20.773 16.548,21.395 15.063,21.642 13.392 C 21.761 12.591,21.761 11.409,21.642 10.608 C 21.395 8.937,20.773 7.452,19.748 6.084 C 19.379 5.591,18.409 4.621,17.916 4.252 C 16.786 3.406,15.392 2.757,14.120 2.486 C 13.247 2.300,12.184 2.222,11.320 2.280 M13.180 3.838 C 14.600 4.049,15.862 4.579,17.009 5.445 C 17.434 5.766,18.234 6.566,18.555 6.991 C 20.636 9.747,20.811 13.444,18.999 16.366 C 18.375 17.371,17.371 18.375,16.366 18.999 C 13.687 20.661,10.313 20.661,7.634 18.999 C 6.629 18.375,5.625 17.371,5.001 16.366 C 3.491 13.931,3.342 10.873,4.609 8.343 C 5.042 7.479,5.477 6.878,6.177 6.177 C 7.056 5.299,8.001 4.686,9.125 4.266 C 10.372 3.800,11.867 3.642,13.180 3.838 M9.538 8.276 C 9.329 8.311,9.145 8.443,9.075 8.609 C 9.030 8.717,9.020 9.319,9.020 12.020 C 9.020 15.683,9.002 15.456,9.301 15.641 C 9.414 15.710,9.507 15.730,9.737 15.731 C 10.064 15.733,10.228 15.665,10.376 15.467 C 10.460 15.354,10.460 15.347,10.460 12.000 C 10.460 8.653,10.460 8.646,10.376 8.533 C 10.212 8.313,9.896 8.216,9.538 8.276 M14.027 8.278 C 13.831 8.317,13.678 8.431,13.590 8.603 C 13.524 8.731,13.520 8.959,13.530 12.047 C 13.540 15.339,13.540 15.355,13.624 15.467 C 13.770 15.663,13.938 15.733,14.258 15.733 C 14.593 15.733,14.757 15.658,14.893 15.440 L 14.980 15.300 14.980 12.000 L 14.980 8.700 14.893 8.560 C 14.845 8.483,14.755 8.391,14.693 8.354 C 14.554 8.274,14.232 8.237,14.027 8.278 " stroke="none" fill-rule="evenodd" fill="black"></path></svg>