<svg width="24" height="24" viewBox="0 0 24 24" fill="none" xmlns="http://www.w3.org/2000/svg"><path d="M7.843 4.590 C 7.767 4.629,7.668 4.711,7.623 4.773 L 7.540 4.886 7.530 11.953 C 7.520 18.621,7.524 19.028,7.590 19.157 C 7.708 19.387,7.843 19.458,8.200 19.474 C 8.466 19.486,8.538 19.475,8.671 19.400 C 8.757 19.352,8.862 19.256,8.904 19.186 C 8.978 19.063,8.980 18.878,8.980 12.000 C 8.980 5.122,8.978 4.937,8.904 4.814 C 8.783 4.614,8.575 4.520,8.255 4.520 C 8.072 4.520,7.934 4.544,7.843 4.590 M15.316 4.603 C 15.237 4.650,15.138 4.745,15.096 4.814 C 15.022 4.937,15.020 5.134,15.020 12.000 C 15.020 18.878,15.022 19.063,15.096 19.186 C 15.138 19.256,15.243 19.352,15.329 19.400 C 15.462 19.475,15.534 19.486,15.800 19.474 C 16.157 19.458,16.293 19.387,16.410 19.157 C 16.476 19.028,16.480 18.604,16.480 12.000 C 16.480 5.396,16.476 4.972,16.410 4.843 C 16.290 4.608,16.158 4.541,15.787 4.529 C 15.512 4.519,15.437 4.531,15.316 4.603 " stroke="none" fill-rule="evenodd" fill="black"></path></svg>