<svg width="24" height="24" viewBox="0 0 24 24" fill="none" xmlns="http://www.w3.org/2000/svg"><path d="M19.165 1.602 C 18.505 1.774,19.049 1.261,10.795 9.515 C 2.731 17.578,3.048 17.247,2.658 18.038 C 2.462 18.437,2.369 18.715,1.881 20.357 C 1.479 21.711,1.460 21.845,1.620 22.161 C 1.751 22.418,1.969 22.540,2.238 22.507 C 2.410 22.485,4.413 21.903,5.240 21.633 C 5.708 21.481,6.202 21.241,6.622 20.962 C 6.882 20.789,8.326 19.365,14.485 13.205 C 22.762 4.929,22.227 5.495,22.400 4.820 C 22.497 4.442,22.505 3.853,22.420 3.490 C 22.207 2.585,21.415 1.793,20.510 1.580 C 20.156 1.497,19.528 1.507,19.165 1.602 M20.340 3.101 C 20.545 3.200,20.801 3.456,20.896 3.657 C 21.012 3.902,21.024 4.258,20.925 4.520 C 20.853 4.708,20.745 4.836,20.170 5.410 L 19.499 6.080 18.710 5.290 L 17.920 4.499 18.591 3.829 C 19.359 3.062,19.475 2.991,19.920 3.012 C 20.072 3.019,20.247 3.056,20.340 3.101 M12.190 13.384 C 6.792 18.778,5.898 19.654,5.635 19.815 C 5.254 20.049,4.996 20.150,4.140 20.403 C 3.766 20.514,3.438 20.612,3.412 20.620 C 3.386 20.629,3.371 20.614,3.380 20.588 C 3.388 20.562,3.486 20.234,3.597 19.860 C 3.850 19.004,3.951 18.746,4.185 18.365 C 4.346 18.102,5.222 17.208,10.615 11.810 L 16.859 5.560 17.650 6.350 L 18.441 7.140 12.190 13.384 " stroke="none" fill-rule="evenodd" fill="black"></path></svg>