<svg width="24" height="24" viewBox="0 0 24 24" fill="none" xmlns="http://www.w3.org/2000/svg"><path d="M19.165 1.602 C 18.513 1.772,18.859 1.451,12.747 7.555 C 9.529 10.769,7.056 13.270,6.923 13.445 C 6.415 14.114,6.275 14.449,5.700 16.380 C 5.386 17.433,5.271 17.876,5.272 18.029 C 5.275 18.431,5.559 18.760,5.902 18.760 C 6.107 18.760,8.991 17.909,9.466 17.708 C 9.858 17.543,10.333 17.260,10.660 16.998 C 10.792 16.892,13.404 14.298,16.465 11.233 C 22.565 5.125,22.229 5.487,22.400 4.820 C 22.497 4.442,22.505 3.853,22.420 3.490 C 22.207 2.585,21.415 1.793,20.510 1.580 C 20.156 1.497,19.528 1.507,19.165 1.602 M20.340 3.101 C 20.545 3.200,20.801 3.456,20.896 3.657 C 21.012 3.902,21.024 4.258,20.925 4.520 C 20.853 4.708,20.745 4.836,20.170 5.410 L 19.499 6.080 18.710 5.290 L 17.920 4.499 18.591 3.829 C 19.359 3.062,19.475 2.991,19.920 3.012 C 20.072 3.019,20.247 3.056,20.340 3.101 M4.872 5.281 C 3.642 5.428,2.615 6.349,2.331 7.558 C 2.265 7.840,2.260 8.242,2.260 13.500 C 2.260 18.758,2.265 19.160,2.331 19.442 C 2.586 20.529,3.471 21.414,4.558 21.669 C 4.840 21.735,5.242 21.740,10.500 21.740 C 15.758 21.740,16.160 21.735,16.442 21.669 C 17.529 21.414,18.414 20.529,18.669 19.442 C 18.733 19.169,18.740 18.884,18.740 16.440 C 18.740 13.812,18.738 13.736,18.660 13.604 C 18.499 13.331,18.182 13.208,17.815 13.277 C 17.596 13.318,17.449 13.419,17.340 13.604 C 17.263 13.735,17.259 13.831,17.240 16.440 L 17.220 19.140 17.112 19.369 C 16.975 19.663,16.663 19.975,16.369 20.112 L 16.140 20.220 10.500 20.220 L 4.860 20.220 4.631 20.112 C 4.337 19.975,4.025 19.663,3.888 19.369 L 3.780 19.140 3.780 13.500 L 3.780 7.860 3.888 7.631 C 4.025 7.337,4.337 7.025,4.631 6.888 L 4.860 6.780 7.560 6.760 C 10.169 6.741,10.265 6.737,10.396 6.660 C 10.669 6.499,10.792 6.182,10.723 5.815 C 10.682 5.596,10.581 5.449,10.396 5.340 C 10.264 5.262,10.183 5.260,7.700 5.254 C 6.292 5.251,5.020 5.263,4.872 5.281 M14.130 11.452 C 9.529 16.056,9.507 16.077,8.863 16.334 C 8.590 16.443,7.153 16.887,7.134 16.867 C 7.129 16.862,7.195 16.615,7.283 16.319 C 7.617 15.185,7.709 14.954,8.011 14.500 C 8.112 14.347,9.739 12.689,12.515 9.910 L 16.859 5.560 17.650 6.350 L 18.440 7.140 14.130 11.452 " stroke="none" fill-rule="evenodd" fill="black"></path></svg>