<svg width="24" height="24" viewBox="0 0 24 24" fill="none" xmlns="http://www.w3.org/2000/svg"><path d="M3.800 1.582 C 3.657 1.613,3.378 1.719,3.180 1.818 C 2.573 2.121,2.120 2.573,1.818 3.180 C 1.532 3.752,1.521 3.851,1.521 5.840 C 1.521 7.658,1.546 8.165,1.682 9.098 C 2.006 11.315,2.850 13.522,4.093 15.400 C 5.281 17.197,6.803 18.719,8.600 19.907 C 9.242 20.332,10.110 20.811,10.760 21.099 C 12.470 21.857,14.144 22.290,15.942 22.439 C 16.205 22.461,17.203 22.479,18.160 22.479 C 20.149 22.479,20.248 22.468,20.820 22.182 C 21.427 21.879,21.879 21.427,22.182 20.820 C 22.447 20.289,22.478 20.080,22.479 18.849 C 22.480 17.890,22.473 17.776,22.397 17.549 C 22.236 17.068,21.895 16.671,21.458 16.457 C 21.323 16.391,20.340 16.126,18.860 15.756 C 16.324 15.121,16.181 15.097,15.740 15.214 C 15.475 15.285,15.158 15.449,14.975 15.610 C 14.893 15.681,14.585 16.064,14.289 16.460 C 13.993 16.856,13.715 17.211,13.671 17.250 C 13.554 17.352,13.418 17.337,13.018 17.176 C 10.933 16.337,9.058 14.785,7.801 12.856 C 7.323 12.124,6.680 10.781,6.680 10.517 C 6.680 10.457,6.711 10.373,6.750 10.329 C 6.788 10.285,7.144 10.007,7.540 9.711 C 7.936 9.415,8.319 9.107,8.390 9.025 C 8.551 8.842,8.715 8.525,8.786 8.260 C 8.903 7.819,8.879 7.676,8.244 5.140 C 7.874 3.660,7.609 2.677,7.543 2.542 C 7.329 2.105,6.932 1.764,6.451 1.603 C 6.223 1.527,6.114 1.520,5.131 1.523 C 4.378 1.525,3.983 1.543,3.800 1.582 M15.500 3.023 C 15.333 3.109,15.095 3.348,15.021 3.503 C 14.942 3.669,14.943 3.851,15.025 4.012 C 15.060 4.082,15.505 4.559,16.013 5.070 L 16.938 6.000 16.013 6.930 C 15.505 7.441,15.058 7.921,15.020 7.997 C 14.923 8.189,14.958 8.446,15.108 8.631 C 15.406 8.999,15.721 9.122,16.003 8.980 C 16.079 8.942,16.558 8.495,17.070 7.987 L 18.000 7.062 18.930 7.987 C 19.442 8.495,19.921 8.942,19.997 8.980 C 20.279 9.122,20.594 8.999,20.892 8.631 C 21.042 8.446,21.077 8.189,20.980 7.997 C 20.942 7.921,20.495 7.441,19.987 6.930 L 19.062 6.000 19.987 5.070 C 20.495 4.559,20.942 4.079,20.980 4.003 C 21.077 3.811,21.042 3.554,20.892 3.369 C 20.594 3.001,20.279 2.878,19.997 3.020 C 19.921 3.058,19.442 3.505,18.930 4.013 L 18.000 4.938 17.070 4.013 C 16.558 3.505,16.082 3.060,16.012 3.025 C 15.851 2.943,15.655 2.942,15.500 3.023 M6.116 3.110 C 6.214 3.209,6.285 3.456,6.801 5.525 C 7.298 7.514,7.371 7.845,7.330 7.933 C 7.304 7.990,6.962 8.278,6.557 8.583 C 5.719 9.213,5.535 9.391,5.366 9.734 C 5.114 10.245,5.117 10.712,5.377 11.392 C 6.378 14.013,8.403 16.364,10.898 17.801 C 11.741 18.286,12.768 18.728,13.223 18.801 C 13.731 18.882,14.321 18.697,14.692 18.341 C 14.790 18.247,15.117 17.843,15.417 17.443 C 15.722 17.038,16.010 16.696,16.067 16.670 C 16.155 16.629,16.486 16.702,18.475 17.199 C 20.566 17.721,20.790 17.785,20.893 17.887 L 21.005 17.999 20.993 18.930 C 20.980 19.852,20.979 19.862,20.868 20.100 C 20.721 20.415,20.413 20.724,20.104 20.867 L 19.860 20.980 17.980 20.979 C 15.957 20.979,15.657 20.958,14.520 20.735 C 10.750 19.998,7.468 17.792,5.333 14.560 C 4.135 12.748,3.407 10.755,3.094 8.440 C 3.033 7.983,3.021 7.612,3.021 6.020 L 3.020 4.140 3.132 3.900 C 3.260 3.625,3.546 3.312,3.780 3.190 C 4.100 3.023,4.229 3.005,5.133 3.003 L 6.006 3.000 6.116 3.110 " stroke="none" fill-rule="evenodd" fill="black"></path></svg>