<svg width="24" height="24" viewBox="0 0 24 24" fill="none" xmlns="http://www.w3.org/2000/svg"><path d="M3.185 3.823 C 2.500 3.989,1.912 4.538,1.606 5.297 C 1.546 5.444,1.538 5.960,1.516 10.580 C 1.502 13.396,1.490 15.718,1.489 15.740 C 1.487 15.762,1.499 16.401,1.515 17.160 C 1.546 18.641,1.542 18.609,1.781 19.083 C 1.925 19.367,2.394 19.828,2.704 19.990 C 3.210 20.255,2.589 20.239,12.000 20.239 C 19.477 20.239,20.572 20.231,20.796 20.178 C 21.550 20.001,22.219 19.339,22.422 18.570 C 22.512 18.228,22.510 5.773,22.420 5.426 C 22.273 4.863,21.810 4.279,21.296 4.010 C 20.790 3.744,21.415 3.761,11.980 3.764 C 4.730 3.766,3.384 3.775,3.185 3.823 M20.559 5.330 C 20.656 5.380,20.790 5.489,20.858 5.574 L 20.980 5.727 20.991 9.833 L 21.001 13.938 20.051 12.996 C 19.528 12.479,18.998 11.989,18.874 11.908 C 17.995 11.336,16.764 11.287,15.840 11.788 C 15.507 11.968,15.332 12.111,14.728 12.697 L 14.237 13.175 12.528 11.473 C 10.674 9.626,10.575 9.544,9.931 9.328 C 9.649 9.233,9.562 9.224,9.000 9.224 C 8.438 9.224,8.351 9.233,8.069 9.328 C 7.410 9.549,7.360 9.592,5.089 11.855 L 2.999 13.940 3.009 9.834 L 3.020 5.727 3.142 5.574 C 3.210 5.489,3.344 5.380,3.441 5.330 L 3.617 5.240 12.000 5.240 L 20.383 5.240 20.559 5.330 M13.952 7.174 C 12.718 7.518,12.961 9.356,14.240 9.359 C 15.421 9.361,15.795 7.778,14.740 7.246 C 14.528 7.140,14.188 7.109,13.952 7.174 M9.580 10.800 C 9.809 10.886,9.945 11.015,12.600 13.663 C 14.129 15.188,15.431 16.454,15.493 16.478 C 15.651 16.537,15.904 16.530,16.032 16.463 C 16.157 16.398,16.410 16.140,16.475 16.013 C 16.532 15.902,16.533 15.639,16.477 15.493 C 16.454 15.431,16.184 15.128,15.877 14.819 L 15.320 14.256 15.890 13.694 C 16.371 13.218,16.494 13.118,16.680 13.051 C 16.984 12.940,17.220 12.913,17.492 12.958 C 17.941 13.033,18.008 13.087,19.552 14.619 L 21.004 16.060 20.992 17.166 L 20.980 18.273 20.858 18.426 C 20.790 18.511,20.656 18.620,20.559 18.670 L 20.383 18.760 12.000 18.760 L 3.617 18.760 3.441 18.670 C 3.344 18.620,3.210 18.511,3.142 18.426 L 3.020 18.273 3.008 17.166 L 2.997 16.060 5.568 13.495 C 6.983 12.084,8.185 10.906,8.240 10.878 C 8.653 10.664,9.142 10.636,9.580 10.800 " stroke="none" fill-rule="evenodd" fill="black"></path></svg>