<svg width="24" height="24" viewBox="0 0 24 24" fill="none" xmlns="http://www.w3.org/2000/svg"><path d="M11.320 2.280 C 9.441 2.407,7.648 3.082,6.084 4.252 C 5.591 4.620,4.620 5.591,4.252 6.084 C 3.226 7.456,2.607 8.935,2.357 10.608 C 2.238 11.410,2.238 12.590,2.357 13.392 C 2.607 15.065,3.226 16.544,4.252 17.916 C 4.620 18.409,5.591 19.380,6.084 19.748 C 7.457 20.775,8.938 21.395,10.608 21.642 C 11.784 21.817,13.262 21.739,14.412 21.442 C 15.680 21.115,16.841 20.553,17.916 19.748 C 18.409 19.379,19.379 18.409,19.748 17.916 C 20.773 16.548,21.395 15.063,21.642 13.392 C 21.761 12.591,21.761 11.409,21.642 10.608 C 21.395 8.937,20.773 7.452,19.748 6.084 C 19.379 5.591,18.409 4.621,17.916 4.252 C 16.786 3.406,15.392 2.757,14.120 2.486 C 13.247 2.300,12.184 2.222,11.320 2.280 M13.180 3.838 C 14.600 4.049,15.862 4.579,17.009 5.445 C 17.434 5.766,18.234 6.566,18.555 6.991 C 20.636 9.747,20.811 13.444,18.999 16.366 C 18.375 17.371,17.371 18.375,16.366 18.999 C 13.687 20.661,10.313 20.661,7.634 18.999 C 6.629 18.375,5.625 17.371,5.001 16.366 C 3.491 13.931,3.342 10.873,4.609 8.343 C 5.042 7.479,5.477 6.878,6.177 6.177 C 7.056 5.299,8.001 4.686,9.125 4.266 C 10.372 3.800,11.867 3.642,13.180 3.838 M9.788 7.815 C 9.419 7.953,9.133 8.255,9.038 8.607 C 9.013 8.702,9.002 9.961,9.009 12.088 L 9.020 15.420 9.138 15.633 C 9.359 16.032,9.672 16.218,10.120 16.218 C 10.394 16.218,10.448 16.203,10.740 16.051 C 11.718 15.543,16.326 12.945,16.471 12.820 C 16.741 12.588,16.819 12.403,16.819 12.000 C 16.819 11.595,16.742 11.416,16.466 11.175 C 16.328 11.055,11.209 8.179,10.562 7.858 C 10.376 7.766,9.980 7.744,9.788 7.815 M12.742 10.770 C 13.940 11.435,14.920 11.989,14.920 12.000 C 14.920 12.028,10.573 14.440,10.522 14.440 C 10.493 14.440,10.480 13.687,10.480 12.000 C 10.480 10.313,10.493 9.560,10.522 9.560 C 10.545 9.560,11.544 10.104,12.742 10.770 " stroke="none" fill-rule="evenodd" fill="black"></path></svg>