<svg width="24" height="24" viewBox="0 0 24 24" fill="none" xmlns="http://www.w3.org/2000/svg"><path d="M14.660 6.806 C 14.507 6.863,14.409 6.949,14.326 7.100 C 14.266 7.210,14.260 7.689,14.260 12.740 C 14.260 18.188,14.261 18.262,14.340 18.396 C 14.501 18.669,14.818 18.792,15.185 18.723 C 15.404 18.682,15.551 18.581,15.660 18.396 C 15.739 18.262,15.740 18.177,15.752 12.960 C 15.759 10.045,15.753 7.548,15.739 7.411 C 15.710 7.128,15.600 6.931,15.419 6.842 C 15.270 6.769,14.819 6.748,14.660 6.806 M20.660 6.806 C 20.507 6.863,20.409 6.949,20.326 7.100 C 20.266 7.210,20.260 7.689,20.260 12.740 C 20.260 18.188,20.261 18.262,20.340 18.396 C 20.449 18.581,20.596 18.682,20.815 18.723 C 21.182 18.792,21.499 18.669,21.660 18.396 C 21.739 18.262,21.740 18.177,21.752 12.960 C 21.759 10.045,21.753 7.548,21.739 7.411 C 21.710 7.128,21.600 6.931,21.419 6.842 C 21.270 6.769,20.819 6.748,20.660 6.806 M3.820 6.844 C 3.058 6.954,2.395 7.633,2.282 8.420 C 2.228 8.796,2.227 16.721,2.281 17.096 C 2.391 17.851,2.992 18.485,3.751 18.642 C 4.084 18.712,4.531 18.670,4.816 18.544 C 4.946 18.486,6.682 17.508,8.674 16.369 C 11.500 14.755,12.347 14.253,12.528 14.086 C 13.107 13.551,13.257 12.680,12.900 11.927 C 12.645 11.390,12.720 11.439,8.718 9.154 C 6.728 8.018,5.028 7.053,4.940 7.009 C 4.623 6.850,4.206 6.789,3.820 6.844 M7.850 10.381 C 9.836 11.515,11.492 12.480,11.530 12.526 C 11.629 12.643,11.619 12.854,11.510 12.977 C 11.417 13.081,4.337 17.144,4.178 17.184 C 4.070 17.211,3.858 17.109,3.801 17.002 C 3.774 16.951,3.760 15.530,3.760 12.726 L 3.760 8.527 3.883 8.424 C 3.954 8.364,4.056 8.320,4.123 8.320 C 4.205 8.320,5.344 8.950,7.850 10.381 " stroke="none" fill-rule="evenodd" fill="black"></path></svg>