<svg width="24" height="24" viewBox="0 0 24 24" fill="none" xmlns="http://www.w3.org/2000/svg"><path d="M5.830 3.862 C 5.386 4.003,4.996 4.313,4.766 4.708 C 4.503 5.158,4.520 4.661,4.520 12.000 C 4.520 19.386,4.501 18.858,4.781 19.320 C 5.147 19.923,5.730 20.224,6.475 20.193 C 6.801 20.180,6.900 20.159,7.120 20.055 C 7.550 19.854,18.678 13.728,18.969 13.533 C 20.044 12.813,20.044 11.186,18.969 10.468 C 18.682 10.276,7.475 4.107,7.089 3.929 C 6.895 3.839,6.796 3.821,6.440 3.812 C 6.149 3.805,5.962 3.820,5.830 3.862 M12.316 8.489 C 15.493 10.237,18.135 11.705,18.186 11.751 C 18.318 11.867,18.318 12.133,18.186 12.249 C 18.135 12.295,15.493 13.764,12.316 15.514 C 8.353 17.696,6.493 18.700,6.391 18.711 C 6.266 18.725,6.222 18.708,6.121 18.607 L 6.000 18.486 6.000 12.000 L 6.000 5.514 6.122 5.392 C 6.226 5.288,6.266 5.273,6.392 5.291 C 6.487 5.304,8.607 6.448,12.316 8.489 " stroke="none" fill-rule="evenodd" fill="black"></path></svg>