<svg width="24" height="24" viewBox="0 0 24 24" fill="none" xmlns="http://www.w3.org/2000/svg"><path d="M11.660 3.806 C 11.507 3.863,11.409 3.949,11.326 4.100 C 11.266 4.208,11.259 4.559,11.249 7.730 L 11.237 11.240 7.849 11.242 C 5.985 11.243,4.382 11.259,4.286 11.277 C 3.920 11.348,3.780 11.548,3.780 12.000 C 3.780 12.452,3.920 12.652,4.286 12.723 C 4.382 12.741,5.986 12.757,7.850 12.758 L 11.240 12.760 11.242 16.150 C 11.243 18.015,11.259 19.618,11.277 19.714 C 11.348 20.080,11.548 20.220,12.000 20.220 C 12.452 20.220,12.652 20.080,12.723 19.714 C 12.741 19.618,12.757 18.015,12.758 16.150 L 12.760 12.760 16.150 12.758 C 18.015 12.757,19.618 12.741,19.714 12.723 C 20.080 12.652,20.220 12.452,20.220 12.000 C 20.220 11.548,20.080 11.348,19.714 11.277 C 19.618 11.259,18.015 11.243,16.150 11.242 L 12.760 11.240 12.758 7.850 C 12.757 5.986,12.741 4.382,12.723 4.286 C 12.683 4.077,12.575 3.921,12.416 3.842 C 12.271 3.769,11.819 3.748,11.660 3.806 " stroke="none" fill-rule="evenodd" fill="black"></path></svg>