<svg width="24" height="24" viewBox="0 0 24 24" fill="none" xmlns="http://www.w3.org/2000/svg"><path d="M11.787 5.278 C 11.598 5.316,11.444 5.427,11.340 5.604 C 11.262 5.736,11.260 5.823,11.248 8.488 L 11.237 11.237 8.488 11.248 C 5.823 11.260,5.736 11.262,5.604 11.340 C 5.331 11.501,5.208 11.818,5.277 12.185 C 5.318 12.404,5.419 12.551,5.604 12.660 C 5.736 12.738,5.823 12.740,8.488 12.752 L 11.237 12.763 11.248 15.512 C 11.260 18.177,11.262 18.264,11.340 18.396 C 11.501 18.669,11.818 18.792,12.185 18.723 C 12.404 18.682,12.551 18.581,12.660 18.396 C 12.738 18.264,12.740 18.177,12.752 15.512 L 12.763 12.763 15.512 12.752 C 18.177 12.740,18.264 12.738,18.396 12.660 C 18.581 12.551,18.682 12.404,18.723 12.185 C 18.792 11.818,18.669 11.501,18.396 11.340 C 18.264 11.262,18.177 11.260,15.510 11.248 L 12.760 11.237 12.758 8.608 C 12.757 7.163,12.741 5.902,12.723 5.806 C 12.644 5.398,12.265 5.185,11.787 5.278 " stroke="none" fill-rule="evenodd" fill="black"></path></svg>