<svg width="24" height="24" viewBox="0 0 24 24" fill="none" xmlns="http://www.w3.org/2000/svg"><path d="M11.787 2.278 C 11.598 2.316,11.444 2.427,11.340 2.604 C 11.261 2.738,11.260 2.812,11.260 7.500 C 11.260 12.188,11.261 12.262,11.340 12.396 C 11.501 12.669,11.818 12.792,12.185 12.723 C 12.404 12.682,12.551 12.581,12.660 12.396 C 12.739 12.262,12.740 12.177,12.752 7.720 C 12.759 5.223,12.753 3.068,12.739 2.931 C 12.698 2.526,12.497 2.311,12.120 2.269 C 12.021 2.257,11.871 2.262,11.787 2.278 M5.380 4.915 C 5.188 5.002,4.642 5.570,4.245 6.096 C 3.212 7.464,2.579 9.006,2.337 10.740 C 2.238 11.449,2.247 12.654,2.357 13.392 C 2.606 15.064,3.226 16.544,4.252 17.916 C 4.620 18.409,5.591 19.380,6.084 19.748 C 7.456 20.774,8.935 21.393,10.608 21.643 C 11.783 21.818,13.257 21.740,14.412 21.442 C 15.679 21.115,16.837 20.555,17.916 19.748 C 18.409 19.380,19.380 18.409,19.748 17.916 C 20.774 16.544,21.393 15.065,21.643 13.392 C 21.762 12.590,21.762 11.410,21.643 10.608 C 21.344 8.601,20.463 6.768,19.114 5.342 C 18.601 4.801,18.346 4.725,17.965 5.001 C 17.722 5.177,17.585 5.407,17.585 5.637 C 17.585 5.859,17.647 5.961,18.054 6.400 C 19.938 8.435,20.676 11.314,20.000 14.002 C 19.728 15.083,19.237 16.107,18.555 17.009 C 18.234 17.434,17.434 18.234,17.009 18.555 C 15.539 19.665,13.831 20.240,12.000 20.240 C 10.158 20.240,8.469 19.670,6.980 18.547 C 6.569 18.236,5.764 17.431,5.453 17.020 C 4.569 15.848,4.018 14.521,3.822 13.089 C 3.742 12.508,3.742 11.491,3.822 10.911 C 4.061 9.181,4.777 7.674,5.992 6.349 C 6.370 5.937,6.468 5.734,6.404 5.494 C 6.321 5.188,5.911 4.838,5.637 4.841 C 5.584 4.841,5.468 4.875,5.380 4.915 " stroke="none" fill-rule="evenodd" fill="black"></path></svg>