<svg width="24" height="24" viewBox="0 0 24 24" fill="none" xmlns="http://www.w3.org/2000/svg"><path d="M2.027 2.278 C 1.832 2.317,1.679 2.430,1.588 2.603 C 1.485 2.800,1.506 3.309,1.624 3.467 C 1.788 3.687,1.923 3.732,2.484 3.752 L 2.998 3.771 3.009 9.295 L 3.020 14.820 3.114 15.100 C 3.402 15.959,3.951 16.588,4.740 16.964 C 5.207 17.186,5.538 17.240,6.438 17.240 C 6.857 17.240,7.200 17.245,7.200 17.250 C 7.200 17.256,6.937 18.043,6.616 19.000 C 5.947 20.994,5.904 21.200,6.100 21.433 C 6.330 21.706,6.844 21.842,7.115 21.702 C 7.295 21.610,7.390 21.434,7.603 20.803 L 7.787 20.260 12.000 20.260 L 16.213 20.260 16.403 20.829 C 16.609 21.445,16.699 21.606,16.891 21.705 C 17.155 21.842,17.673 21.703,17.900 21.433 C 18.096 21.200,18.053 20.994,17.384 19.000 C 17.063 18.043,16.800 17.256,16.800 17.250 C 16.800 17.245,17.143 17.240,17.562 17.240 C 18.492 17.240,18.798 17.187,19.300 16.941 C 20.071 16.563,20.602 15.945,20.886 15.100 L 20.980 14.820 20.991 9.295 L 21.002 3.771 21.516 3.752 C 22.077 3.732,22.212 3.687,22.376 3.467 C 22.447 3.372,22.460 3.298,22.460 3.000 C 22.460 2.602,22.407 2.488,22.156 2.340 C 22.021 2.261,21.943 2.260,12.100 2.254 C 6.644 2.251,2.111 2.262,2.027 2.278 M19.519 8.970 C 19.519 11.853,19.502 14.291,19.482 14.430 C 19.388 15.080,18.925 15.580,18.291 15.714 C 17.996 15.777,6.004 15.777,5.709 15.714 C 5.075 15.580,4.612 15.080,4.518 14.430 C 4.498 14.291,4.481 11.853,4.481 8.970 L 4.480 3.760 12.000 3.760 L 19.520 3.760 19.519 8.970 M15.896 7.101 C 15.008 7.634,14.228 8.246,13.480 9.000 C 13.205 9.277,12.891 9.614,12.781 9.750 L 12.583 9.996 11.741 9.165 C 11.065 8.497,10.862 8.320,10.709 8.261 C 10.456 8.165,10.280 8.216,9.970 8.477 C 9.585 8.802,6.855 11.571,6.785 11.708 C 6.705 11.866,6.701 12.127,6.777 12.274 C 6.867 12.447,7.176 12.710,7.355 12.763 C 7.686 12.862,7.758 12.808,9.200 11.376 L 10.501 10.084 11.340 10.917 C 11.802 11.376,12.243 11.789,12.320 11.835 C 12.405 11.886,12.528 11.920,12.632 11.920 C 12.930 11.920,13.080 11.807,13.488 11.272 C 14.396 10.080,15.407 9.156,16.619 8.412 C 16.817 8.290,17.022 8.152,17.074 8.105 C 17.354 7.851,17.347 7.480,17.056 7.098 C 16.913 6.911,16.768 6.840,16.528 6.840 C 16.359 6.840,16.275 6.875,15.896 7.101 M15.447 17.959 C 15.575 18.344,15.680 18.681,15.680 18.709 C 15.680 18.750,14.951 18.760,12.000 18.760 C 9.031 18.760,8.320 18.750,8.320 18.709 C 8.320 18.669,8.685 17.541,8.779 17.290 C 8.794 17.250,9.460 17.242,12.005 17.250 L 15.213 17.260 15.447 17.959 " stroke="none" fill-rule="evenodd" fill="black"></path></svg>