<svg width="24" height="24" viewBox="0 0 24 24" fill="none" xmlns="http://www.w3.org/2000/svg"><path d="M2.027 2.278 C 1.832 2.317,1.679 2.430,1.588 2.603 C 1.485 2.800,1.506 3.309,1.624 3.467 C 1.788 3.687,1.923 3.732,2.484 3.752 L 2.998 3.771 3.009 9.295 L 3.020 14.820 3.114 15.100 C 3.402 15.959,3.951 16.588,4.740 16.964 C 5.207 17.186,5.538 17.240,6.438 17.240 C 6.857 17.240,7.200 17.245,7.200 17.250 C 7.200 17.256,6.937 18.043,6.616 19.000 C 5.947 20.994,5.904 21.200,6.100 21.433 C 6.330 21.706,6.844 21.842,7.115 21.702 C 7.295 21.610,7.390 21.434,7.603 20.803 L 7.787 20.260 12.000 20.260 L 16.213 20.260 16.403 20.829 C 16.609 21.445,16.699 21.606,16.891 21.705 C 17.155 21.842,17.673 21.703,17.900 21.433 C 18.096 21.200,18.053 20.994,17.384 19.000 C 17.063 18.043,16.800 17.256,16.800 17.250 C 16.800 17.245,17.143 17.240,17.562 17.240 C 18.492 17.240,18.798 17.187,19.300 16.941 C 20.071 16.563,20.602 15.945,20.886 15.100 L 20.980 14.820 20.991 9.295 L 21.002 3.771 21.516 3.752 C 22.077 3.732,22.212 3.687,22.376 3.467 C 22.447 3.372,22.460 3.298,22.460 3.000 C 22.460 2.602,22.407 2.488,22.156 2.340 C 22.021 2.261,21.943 2.260,12.100 2.254 C 6.644 2.251,2.111 2.262,2.027 2.278 M19.519 8.970 C 19.519 11.853,19.502 14.291,19.482 14.430 C 19.388 15.080,18.925 15.580,18.291 15.714 C 17.996 15.777,6.004 15.777,5.709 15.714 C 5.075 15.580,4.612 15.080,4.518 14.430 C 4.498 14.291,4.481 11.853,4.481 8.970 L 4.480 3.760 12.000 3.760 L 19.520 3.760 19.519 8.970 M14.718 6.036 C 14.528 6.097,14.448 6.158,14.354 6.309 L 14.260 6.460 14.260 9.740 C 14.260 12.948,14.262 13.023,14.340 13.156 C 14.488 13.407,14.602 13.460,15.000 13.460 C 15.398 13.460,15.512 13.407,15.660 13.156 C 15.738 13.023,15.740 12.948,15.740 9.740 L 15.740 6.460 15.653 6.320 C 15.605 6.243,15.508 6.146,15.438 6.105 C 15.297 6.022,14.882 5.982,14.718 6.036 M11.787 8.278 C 11.598 8.316,11.444 8.427,11.340 8.604 C 11.263 8.735,11.260 8.812,11.260 10.880 C 11.260 12.948,11.263 13.025,11.340 13.156 C 11.488 13.407,11.602 13.460,12.000 13.460 C 12.398 13.460,12.512 13.407,12.660 13.156 C 12.736 13.026,12.741 12.936,12.753 11.100 C 12.767 8.977,12.756 8.745,12.627 8.554 C 12.469 8.319,12.137 8.210,11.787 8.278 M8.601 10.588 C 8.274 10.757,8.224 10.989,8.246 12.226 C 8.258 12.933,8.269 13.035,8.340 13.156 C 8.488 13.407,8.602 13.460,9.000 13.460 C 9.398 13.460,9.512 13.407,9.660 13.156 C 9.734 13.030,9.740 12.948,9.740 12.000 C 9.740 11.052,9.734 10.970,9.660 10.844 C 9.521 10.608,9.392 10.542,9.047 10.528 C 8.812 10.519,8.708 10.533,8.601 10.588 M15.447 17.959 C 15.575 18.344,15.680 18.681,15.680 18.709 C 15.680 18.750,14.951 18.760,12.000 18.760 C 9.031 18.760,8.320 18.750,8.320 18.709 C 8.320 18.669,8.685 17.541,8.779 17.290 C 8.794 17.250,9.460 17.242,12.005 17.250 L 15.213 17.260 15.447 17.959 " stroke="none" fill-rule="evenodd" fill="black"></path></svg>