<svg width="24" height="24" viewBox="0 0 24 24" fill="none" xmlns="http://www.w3.org/2000/svg"><path d="M7.299 1.592 C 6.862 1.743,6.462 2.072,6.239 2.463 C 6.019 2.845,6.001 3.022,6.001 4.769 L 6.000 6.358 5.910 6.377 C 5.861 6.388,5.595 6.425,5.320 6.460 C 4.600 6.552,4.258 6.631,3.940 6.778 C 3.169 7.135,2.549 7.892,2.331 8.741 C 2.265 8.999,2.260 9.292,2.260 12.580 C 2.260 15.847,2.266 16.165,2.331 16.442 C 2.578 17.493,3.433 18.378,4.454 18.638 C 4.611 18.678,4.918 18.725,5.134 18.741 L 5.529 18.770 5.506 18.955 C 5.494 19.057,5.453 19.490,5.415 19.918 C 5.361 20.533,5.356 20.750,5.391 20.954 C 5.490 21.534,5.872 22.033,6.425 22.307 L 6.736 22.460 12.000 22.460 L 17.264 22.460 17.575 22.307 C 18.128 22.033,18.510 21.534,18.609 20.954 C 18.644 20.750,18.639 20.533,18.585 19.918 C 18.547 19.490,18.506 19.057,18.494 18.955 L 18.471 18.770 18.866 18.741 C 19.082 18.725,19.389 18.678,19.546 18.638 C 20.567 18.378,21.422 17.493,21.669 16.442 C 21.734 16.165,21.740 15.847,21.740 12.580 C 21.740 9.292,21.735 8.999,21.669 8.741 C 21.464 7.942,20.862 7.176,20.160 6.820 C 19.862 6.669,19.457 6.568,18.800 6.479 C 18.459 6.433,18.140 6.387,18.090 6.377 L 18.000 6.358 17.999 4.769 C 17.999 3.022,17.981 2.846,17.761 2.462 C 17.585 2.155,17.262 1.856,16.922 1.688 L 16.624 1.540 12.062 1.531 C 7.815 1.523,7.486 1.527,7.299 1.592 M16.369 3.117 L 16.500 3.233 16.512 4.717 L 16.524 6.200 16.432 6.199 C 16.381 6.198,16.007 6.172,15.600 6.140 C 15.193 6.108,14.216 6.060,13.430 6.034 C 11.888 5.981,9.900 6.023,8.400 6.140 C 7.993 6.172,7.619 6.198,7.568 6.199 L 7.476 6.200 7.488 4.717 L 7.500 3.233 7.631 3.117 L 7.761 3.000 12.000 3.000 L 16.239 3.000 16.369 3.117 M13.200 7.520 C 13.937 7.542,14.810 7.578,15.140 7.601 C 16.736 7.711,18.844 7.955,19.287 8.081 C 19.516 8.145,19.805 8.366,19.971 8.602 C 20.254 9.004,20.243 8.836,20.231 12.683 L 20.220 16.140 20.112 16.369 C 19.975 16.664,19.662 16.976,19.369 17.111 C 19.182 17.198,19.067 17.220,18.739 17.233 L 18.338 17.248 18.228 15.994 C 18.101 14.555,18.106 14.680,18.167 14.680 C 18.193 14.680,18.291 14.643,18.385 14.598 C 18.768 14.412,18.880 13.686,18.571 13.391 C 18.420 13.247,18.329 13.218,17.798 13.145 C 14.959 12.752,11.680 12.657,8.720 12.881 C 7.500 12.974,5.844 13.170,5.642 13.247 C 5.263 13.390,5.141 13.876,5.365 14.348 C 5.423 14.469,5.491 14.538,5.615 14.598 C 5.709 14.643,5.807 14.680,5.833 14.680 C 5.894 14.680,5.899 14.555,5.772 15.994 L 5.662 17.248 5.261 17.233 C 4.933 17.220,4.818 17.198,4.631 17.111 C 4.338 16.976,4.025 16.664,3.888 16.369 L 3.780 16.140 3.769 12.683 C 3.757 8.836,3.746 9.004,4.029 8.602 C 4.195 8.366,4.484 8.145,4.713 8.081 C 5.017 7.995,6.373 7.817,7.600 7.703 C 8.671 7.604,9.515 7.553,10.620 7.522 C 11.192 7.506,11.705 7.490,11.760 7.487 C 11.815 7.484,12.463 7.499,13.200 7.520 M14.660 9.806 C 14.379 9.910,14.267 10.109,14.267 10.505 C 14.267 10.976,14.456 11.202,14.878 11.232 C 15.208 11.256,15.379 11.216,15.536 11.079 C 15.856 10.798,15.821 10.128,15.473 9.868 C 15.345 9.773,14.851 9.735,14.660 9.806 M17.660 9.806 C 17.379 9.910,17.267 10.109,17.267 10.505 C 17.267 10.976,17.456 11.202,17.878 11.232 C 18.208 11.256,18.379 11.216,18.536 11.079 C 18.856 10.798,18.821 10.128,18.473 9.868 C 18.345 9.773,17.851 9.735,17.660 9.806 M13.560 14.281 C 14.877 14.336,16.548 14.468,16.579 14.519 C 16.601 14.554,17.124 20.271,17.131 20.555 C 17.136 20.750,17.125 20.780,17.008 20.885 L 16.879 21.000 12.000 21.000 L 7.121 21.000 6.992 20.885 C 6.875 20.780,6.864 20.750,6.869 20.555 C 6.879 20.165,7.404 14.541,7.432 14.515 C 7.447 14.501,7.676 14.470,7.940 14.446 C 10.002 14.256,11.733 14.205,13.560 14.281 " stroke="none" fill-rule="evenodd" fill="black"></path></svg>