<svg width="24" height="24" viewBox="0 0 24 24" fill="none" xmlns="http://www.w3.org/2000/svg"><path d="M12.083 1.561 C 11.474 1.688,10.959 1.960,10.536 2.379 C 10.044 2.867,9.815 3.335,9.772 3.939 C 9.729 4.555,9.855 4.975,10.277 5.620 L 10.487 5.940 10.153 5.952 C 9.758 5.966,8.358 5.873,7.172 5.755 C 6.706 5.708,6.261 5.682,6.184 5.697 C 5.965 5.738,5.810 5.894,5.736 6.147 C 5.677 6.352,5.678 6.423,5.756 7.214 C 5.884 8.516,5.997 10.323,6.000 11.089 C 6.000 11.270,5.987 11.267,5.540 10.977 C 4.997 10.624,4.681 10.521,4.138 10.520 C 3.711 10.520,3.419 10.589,3.050 10.777 C 2.476 11.069,1.975 11.632,1.726 12.264 C 1.452 12.959,1.452 14.041,1.726 14.736 C 1.975 15.368,2.476 15.931,3.050 16.223 C 3.419 16.411,3.711 16.480,4.138 16.480 C 4.661 16.479,4.996 16.375,5.480 16.063 C 5.623 15.971,5.765 15.881,5.795 15.862 C 5.841 15.834,5.846 15.882,5.823 16.144 C 5.727 17.242,5.478 19.157,5.317 20.038 C 5.159 20.899,5.236 21.171,5.680 21.313 C 6.042 21.429,8.547 21.650,10.100 21.703 C 10.817 21.728,10.873 21.724,11.088 21.642 C 11.214 21.595,11.406 21.475,11.515 21.377 C 12.145 20.811,12.146 19.962,11.520 19.040 C 11.300 18.717,11.229 18.506,11.261 18.280 C 11.354 17.620,12.175 17.149,13.014 17.274 C 13.395 17.331,13.628 17.439,13.895 17.682 C 14.310 18.062,14.353 18.467,14.031 18.952 C 13.624 19.564,13.504 19.910,13.528 20.394 C 13.542 20.665,13.569 20.784,13.650 20.943 C 13.833 21.300,14.215 21.576,14.614 21.639 C 15.230 21.736,20.190 21.160,20.661 20.937 C 20.912 20.818,20.985 20.654,21.097 19.960 C 21.393 18.127,21.630 15.942,21.591 15.403 C 21.559 14.956,21.315 14.601,20.900 14.397 C 20.675 14.286,20.602 14.270,20.327 14.272 C 19.925 14.273,19.545 14.401,19.127 14.675 C 18.958 14.786,18.753 14.904,18.671 14.938 C 18.078 15.185,17.414 14.631,17.276 13.775 C 17.133 12.888,17.700 11.996,18.405 12.001 C 18.573 12.002,18.803 12.105,19.123 12.322 C 19.743 12.743,20.467 12.851,20.966 12.597 C 21.290 12.432,21.584 12.087,21.684 11.753 C 21.766 11.479,21.699 9.301,21.559 7.731 C 21.382 5.743,21.323 5.466,21.041 5.315 C 20.847 5.211,20.619 5.220,19.757 5.362 C 17.914 5.666,15.079 5.969,15.081 5.861 C 15.081 5.838,15.179 5.670,15.299 5.488 C 15.670 4.919,15.791 4.431,15.714 3.810 C 15.591 2.819,14.749 1.919,13.660 1.616 C 13.381 1.539,12.363 1.503,12.083 1.561 M13.400 3.115 C 14.030 3.357,14.365 3.902,14.194 4.404 C 14.168 4.479,14.080 4.639,13.999 4.760 C 13.656 5.270,13.521 5.639,13.520 6.068 C 13.520 6.473,13.630 6.748,13.901 7.019 C 14.172 7.290,14.447 7.400,14.852 7.399 C 15.647 7.397,18.741 7.071,19.745 6.883 C 19.946 6.845,19.998 6.870,19.999 7.001 C 20.000 7.034,20.035 7.466,20.078 7.961 C 20.165 8.964,20.255 10.757,20.234 11.052 L 20.220 11.243 20.000 11.108 C 19.879 11.034,19.690 10.917,19.580 10.847 C 19.248 10.637,18.946 10.548,18.497 10.529 C 18.267 10.519,17.996 10.532,17.865 10.559 C 17.179 10.701,16.463 11.289,16.109 12.000 C 15.832 12.555,15.782 12.786,15.782 13.500 C 15.782 14.210,15.831 14.436,16.109 15.000 C 16.264 15.314,16.356 15.440,16.638 15.722 C 17.177 16.263,17.678 16.480,18.378 16.480 C 18.911 16.479,19.283 16.362,19.747 16.051 C 19.875 15.964,20.005 15.879,20.036 15.861 C 20.084 15.833,20.088 15.886,20.065 16.204 C 20.011 16.932,19.796 18.687,19.675 19.387 L 19.633 19.633 19.387 19.675 C 18.602 19.810,16.645 20.039,15.780 20.098 C 15.582 20.112,15.343 20.132,15.250 20.144 C 15.140 20.157,15.080 20.149,15.080 20.121 C 15.080 20.096,15.166 19.947,15.271 19.788 C 15.617 19.267,15.725 18.939,15.729 18.402 C 15.733 17.978,15.672 17.704,15.496 17.340 C 15.160 16.646,14.434 16.076,13.600 15.852 C 13.232 15.753,12.243 15.754,11.882 15.855 C 10.676 16.189,9.841 17.120,9.771 18.207 C 9.732 18.812,9.848 19.203,10.249 19.817 C 10.377 20.013,10.468 20.187,10.451 20.202 C 10.391 20.256,7.151 20.049,6.908 19.975 C 6.864 19.962,6.844 19.928,6.857 19.887 C 6.868 19.850,6.931 19.433,6.998 18.960 C 7.220 17.375,7.385 15.677,7.348 15.364 C 7.297 14.941,7.010 14.555,6.606 14.369 C 6.190 14.177,5.546 14.262,5.035 14.575 C 4.917 14.647,4.726 14.766,4.610 14.839 C 4.197 15.100,3.801 15.038,3.439 14.655 C 2.855 14.038,2.850 12.975,3.428 12.355 C 3.642 12.125,3.888 12.000,4.125 12.000 C 4.327 12.000,4.467 12.060,4.852 12.312 C 5.383 12.659,5.858 12.788,6.335 12.713 C 6.639 12.666,6.847 12.557,7.076 12.326 C 7.391 12.008,7.457 11.825,7.474 11.222 C 7.490 10.647,7.430 9.270,7.336 8.086 C 7.303 7.660,7.284 7.303,7.295 7.292 C 7.305 7.281,7.662 7.301,8.087 7.336 C 9.397 7.443,10.659 7.491,10.883 7.443 C 11.310 7.352,11.647 7.094,11.836 6.716 C 12.117 6.153,12.001 5.489,11.489 4.732 C 11.403 4.605,11.309 4.431,11.281 4.346 C 11.117 3.843,11.565 3.264,12.280 3.055 C 12.542 2.978,13.125 3.010,13.400 3.115 " stroke="none" fill-rule="evenodd" fill="black"></path></svg>