<svg width="24" height="24" viewBox="0 0 24 24" fill="none" xmlns="http://www.w3.org/2000/svg"><path d="M4.484 3.043 C 3.790 3.180,3.175 3.806,3.041 4.516 C 2.983 4.822,2.986 9.490,3.045 9.768 C 3.183 10.428,3.736 11.012,4.378 11.178 C 4.733 11.270,9.506 11.270,9.859 11.179 C 10.187 11.093,10.437 10.947,10.692 10.692 C 10.947 10.437,11.093 10.187,11.179 9.859 C 11.270 9.506,11.270 4.733,11.178 4.378 C 11.012 3.736,10.428 3.183,9.768 3.045 C 9.513 2.991,4.757 2.990,4.484 3.043 M14.178 3.056 C 13.541 3.211,12.983 3.754,12.822 4.378 C 12.730 4.733,12.730 9.506,12.821 9.859 C 12.907 10.187,13.053 10.437,13.308 10.692 C 13.563 10.947,13.813 11.093,14.141 11.179 C 14.494 11.270,19.267 11.270,19.622 11.178 C 20.263 11.012,20.813 10.431,20.955 9.768 C 21.014 9.491,21.018 4.826,20.959 4.516 C 20.821 3.789,20.211 3.179,19.484 3.041 C 19.160 2.979,14.438 2.993,14.178 3.056 M9.519 4.550 C 9.596 4.589,9.682 4.665,9.709 4.720 C 9.749 4.798,9.758 5.341,9.750 7.169 L 9.740 9.518 9.629 9.629 L 9.518 9.740 7.120 9.740 L 4.722 9.740 4.611 9.629 L 4.500 9.518 4.500 7.147 C 4.500 4.954,4.505 4.768,4.570 4.669 C 4.609 4.610,4.699 4.545,4.770 4.525 C 4.843 4.504,5.878 4.486,7.140 4.484 C 9.197 4.480,9.391 4.486,9.519 4.550 M19.210 4.522 C 19.511 4.606,19.499 4.497,19.511 7.078 C 19.520 9.211,19.516 9.390,19.451 9.519 C 19.412 9.596,19.335 9.682,19.280 9.709 C 19.202 9.749,18.659 9.758,16.831 9.750 L 14.482 9.740 14.371 9.629 L 14.260 9.518 14.260 7.122 L 14.260 4.726 14.355 4.625 C 14.407 4.570,14.488 4.517,14.535 4.508 C 14.733 4.469,19.066 4.482,19.210 4.522 M6.420 6.060 C 6.081 6.180,6.001 6.389,6.000 7.144 C 6.000 7.712,6.036 7.881,6.193 8.050 C 6.339 8.207,6.503 8.240,7.157 8.240 C 7.857 8.240,8.022 8.185,8.158 7.905 C 8.229 7.757,8.240 7.659,8.240 7.157 C 8.240 6.840,8.222 6.516,8.200 6.438 C 8.153 6.268,7.991 6.108,7.804 6.045 C 7.606 5.979,6.619 5.990,6.420 6.060 M16.180 6.046 C 16.005 6.110,15.845 6.275,15.800 6.438 C 15.778 6.516,15.760 6.840,15.760 7.157 C 15.760 7.659,15.771 7.757,15.842 7.905 C 15.978 8.185,16.143 8.240,16.843 8.240 C 17.485 8.240,17.644 8.210,17.803 8.057 C 17.970 7.898,18.009 7.684,17.994 7.035 C 17.978 6.386,17.933 6.251,17.679 6.101 C 17.557 6.030,17.462 6.019,16.920 6.011 C 16.550 6.006,16.252 6.020,16.180 6.046 M4.360 12.824 C 3.732 12.992,3.181 13.582,3.045 14.232 C 2.986 14.510,2.983 19.178,3.041 19.484 C 3.179 20.211,3.789 20.821,4.516 20.959 C 4.826 21.018,9.491 21.014,9.768 20.955 C 10.431 20.813,11.012 20.263,11.178 19.622 C 11.270 19.267,11.270 14.494,11.179 14.141 C 11.093 13.813,10.947 13.563,10.692 13.308 C 10.437 13.053,10.187 12.907,9.859 12.821 C 9.516 12.732,4.695 12.735,4.360 12.824 M13.092 12.843 C 12.815 12.980,12.760 13.145,12.760 13.843 C 12.760 14.485,12.790 14.644,12.943 14.803 C 13.102 14.970,13.316 15.009,13.965 14.994 C 14.614 14.978,14.749 14.933,14.899 14.679 C 14.968 14.560,14.982 14.455,14.994 13.965 C 15.009 13.316,14.970 13.102,14.803 12.943 C 14.643 12.790,14.485 12.760,13.840 12.760 C 13.333 12.760,13.239 12.771,13.092 12.843 M19.092 12.843 C 18.815 12.980,18.760 13.145,18.760 13.843 C 18.760 14.485,18.790 14.644,18.943 14.803 C 19.102 14.970,19.316 15.009,19.965 14.994 C 20.614 14.978,20.749 14.933,20.899 14.679 C 20.968 14.560,20.982 14.455,20.994 13.965 C 21.009 13.316,20.970 13.102,20.803 12.943 C 20.643 12.790,20.485 12.760,19.840 12.760 C 19.333 12.760,19.239 12.771,19.092 12.843 M9.629 14.371 L 9.740 14.482 9.750 16.831 C 9.758 18.659,9.749 19.202,9.709 19.280 C 9.682 19.335,9.596 19.411,9.519 19.450 C 9.392 19.514,9.194 19.520,7.160 19.520 C 5.741 19.520,4.886 19.504,4.790 19.478 C 4.487 19.394,4.500 19.513,4.500 16.856 C 4.500 14.545,4.502 14.486,4.580 14.399 C 4.624 14.351,4.696 14.296,4.740 14.277 C 4.784 14.259,5.877 14.248,7.169 14.252 L 9.518 14.260 9.629 14.371 M6.424 15.802 C 6.253 15.853,6.095 16.024,6.040 16.219 C 6.010 16.329,5.997 16.597,6.006 16.965 C 6.022 17.614,6.067 17.749,6.321 17.899 C 6.440 17.968,6.545 17.982,7.035 17.994 C 7.684 18.009,7.898 17.970,8.057 17.803 C 8.210 17.644,8.240 17.485,8.240 16.843 C 8.240 16.143,8.185 15.978,7.905 15.842 C 7.755 15.770,7.663 15.760,7.137 15.763 C 6.809 15.765,6.488 15.782,6.424 15.802 M16.092 15.843 C 15.815 15.980,15.760 16.145,15.760 16.843 C 15.760 17.485,15.790 17.644,15.943 17.803 C 16.102 17.970,16.316 18.009,16.965 17.994 C 17.455 17.982,17.560 17.968,17.679 17.899 C 17.933 17.749,17.978 17.614,17.994 16.965 C 18.009 16.316,17.970 16.102,17.803 15.943 C 17.643 15.790,17.485 15.760,16.840 15.760 C 16.333 15.760,16.239 15.771,16.092 15.843 M13.092 18.843 C 12.815 18.980,12.760 19.145,12.760 19.843 C 12.760 20.485,12.790 20.644,12.943 20.803 C 13.102 20.970,13.316 21.009,13.965 20.994 C 14.614 20.978,14.749 20.933,14.899 20.679 C 14.968 20.560,14.982 20.455,14.994 19.965 C 15.009 19.316,14.970 19.102,14.803 18.943 C 14.643 18.790,14.485 18.760,13.840 18.760 C 13.333 18.760,13.239 18.771,13.092 18.843 M19.092 18.843 C 18.815 18.980,18.760 19.145,18.760 19.843 C 18.760 20.485,18.790 20.644,18.943 20.803 C 19.102 20.970,19.316 21.009,19.965 20.994 C 20.455 20.982,20.560 20.968,20.679 20.899 C 20.933 20.749,20.978 20.614,20.994 19.965 C 21.009 19.316,20.970 19.102,20.803 18.943 C 20.643 18.790,20.485 18.760,19.840 18.760 C 19.333 18.760,19.239 18.771,19.092 18.843 " stroke="none" fill-rule="evenodd" fill="black"></path></svg>