<svg width="24" height="24" viewBox="0 0 24 24" fill="none" xmlns="http://www.w3.org/2000/svg"><path d="M11.320 2.280 C 9.441 2.407,7.648 3.082,6.084 4.252 C 5.591 4.620,4.620 5.591,4.252 6.084 C 3.226 7.456,2.607 8.935,2.357 10.608 C 2.238 11.410,2.238 12.590,2.357 13.392 C 2.607 15.065,3.226 16.544,4.252 17.916 C 4.620 18.409,5.591 19.380,6.084 19.748 C 7.457 20.775,8.938 21.395,10.608 21.642 C 11.784 21.817,13.262 21.739,14.412 21.442 C 15.680 21.115,16.841 20.553,17.916 19.748 C 18.409 19.379,19.379 18.409,19.748 17.916 C 20.773 16.548,21.395 15.063,21.642 13.392 C 21.761 12.591,21.761 11.409,21.642 10.608 C 21.395 8.937,20.773 7.452,19.748 6.084 C 19.379 5.591,18.409 4.621,17.916 4.252 C 16.786 3.406,15.392 2.757,14.120 2.486 C 13.247 2.300,12.184 2.222,11.320 2.280 M13.180 3.838 C 14.600 4.049,15.862 4.579,17.009 5.445 C 17.434 5.766,18.234 6.566,18.555 6.991 C 20.636 9.747,20.811 13.444,18.999 16.366 C 18.375 17.371,17.371 18.375,16.366 18.999 C 13.687 20.661,10.313 20.661,7.634 18.999 C 6.629 18.375,5.625 17.371,5.001 16.366 C 3.491 13.931,3.342 10.873,4.609 8.343 C 5.042 7.479,5.477 6.878,6.177 6.177 C 7.056 5.299,8.001 4.686,9.125 4.266 C 10.372 3.800,11.867 3.642,13.180 3.838 M11.500 6.025 C 10.664 6.151,10.041 6.416,9.475 6.887 C 9.057 7.235,8.988 7.534,9.240 7.900 C 9.407 8.143,9.636 8.291,9.851 8.296 C 10.030 8.300,10.155 8.237,10.626 7.903 C 11.368 7.378,12.587 7.370,13.360 7.886 C 13.687 8.104,14.019 8.482,14.126 8.756 C 14.244 9.058,14.269 9.521,14.182 9.818 C 14.047 10.282,13.682 10.701,13.186 10.963 C 12.180 11.491,11.589 12.102,11.349 12.860 C 11.271 13.105,11.260 13.228,11.260 13.840 C 11.260 14.490,11.266 14.550,11.347 14.680 C 11.487 14.905,11.651 14.980,12.000 14.979 C 12.355 14.978,12.510 14.910,12.643 14.696 C 12.723 14.565,12.736 14.479,12.758 13.905 C 12.778 13.391,12.798 13.232,12.856 13.123 C 12.981 12.890,13.303 12.614,13.731 12.375 C 14.505 11.942,14.864 11.627,15.242 11.051 C 15.827 10.160,15.894 8.943,15.413 7.983 C 14.955 7.071,13.966 6.325,12.914 6.097 C 12.625 6.034,11.736 5.989,11.500 6.025 M11.601 16.590 C 11.524 16.629,11.423 16.718,11.376 16.788 C 11.220 17.021,11.221 17.503,11.377 17.742 C 11.522 17.962,11.967 18.061,12.328 17.953 C 12.882 17.787,12.913 16.806,12.371 16.575 C 12.187 16.497,11.771 16.505,11.601 16.590 " stroke="none" fill-rule="evenodd" fill="black"></path></svg>