<svg width="24" height="24" viewBox="0 0 24 24" fill="none" xmlns="http://www.w3.org/2000/svg"><path d="M5.020 3.820 C 4.143 4.015,3.369 4.755,3.095 5.660 C 2.989 6.007,2.997 6.807,3.109 7.147 C 3.374 7.955,4.030 8.612,4.853 8.895 L 5.100 8.980 12.000 8.980 L 18.900 8.980 19.147 8.895 C 19.970 8.612,20.626 7.955,20.891 7.147 C 21.003 6.807,21.011 6.007,20.905 5.660 C 20.623 4.728,19.806 3.970,18.903 3.804 C 18.524 3.734,5.337 3.749,5.020 3.820 M18.840 5.353 C 19.259 5.571,19.490 5.939,19.487 6.385 C 19.485 6.828,19.255 7.188,18.847 7.388 L 18.620 7.500 12.000 7.500 L 5.380 7.500 5.153 7.388 C 4.744 7.188,4.515 6.828,4.513 6.383 C 4.510 5.868,4.867 5.398,5.350 5.283 C 5.435 5.263,8.351 5.250,12.080 5.254 L 18.660 5.260 18.840 5.353 M3.540 11.277 C 3.172 11.339,3.022 11.549,3.022 12.000 C 3.022 12.357,3.090 12.510,3.309 12.646 L 3.460 12.740 12.000 12.740 L 20.540 12.740 20.680 12.653 C 20.904 12.513,20.980 12.349,20.980 12.000 C 20.980 11.651,20.904 11.487,20.680 11.347 L 20.540 11.260 12.120 11.255 C 7.489 11.252,3.628 11.262,3.540 11.277 M3.420 15.060 C 3.122 15.166,2.971 15.465,3.013 15.869 C 3.040 16.132,3.132 16.289,3.322 16.396 L 3.471 16.480 12.000 16.480 L 20.529 16.480 20.678 16.396 C 20.907 16.268,20.980 16.114,20.980 15.760 C 20.980 15.409,20.898 15.231,20.679 15.101 C 20.540 15.020,20.509 15.020,12.060 15.012 C 4.821 15.004,3.557 15.011,3.420 15.060 M3.418 18.803 C 2.852 18.967,2.867 20.042,3.438 20.200 C 3.633 20.254,20.367 20.254,20.562 20.200 C 21.146 20.038,21.146 18.962,20.562 18.800 C 20.381 18.750,3.592 18.752,3.418 18.803 " stroke="none" fill-rule="evenodd" fill="black"></path></svg>