<svg width="24" height="24" viewBox="0 0 24 24" fill="none" xmlns="http://www.w3.org/2000/svg"><path d="M20.220 2.626 C 20.176 2.635,16.531 3.540,12.120 4.638 C 7.709 5.736,3.944 6.670,3.752 6.714 C 3.561 6.758,3.287 6.850,3.143 6.919 C 2.416 7.265,1.804 8.024,1.597 8.831 C 1.523 9.121,1.520 9.325,1.520 14.160 C 1.520 19.060,1.522 19.195,1.600 19.504 C 1.864 20.546,2.752 21.424,3.785 21.666 C 4.086 21.737,4.456 21.740,12.000 21.740 C 19.544 21.740,19.914 21.737,20.215 21.666 C 21.251 21.423,22.132 20.549,22.401 19.495 C 22.478 19.197,22.480 19.031,22.480 14.160 C 22.480 9.325,22.477 9.121,22.403 8.831 C 22.159 7.876,21.433 7.089,20.520 6.787 C 19.741 6.529,16.249 6.129,14.180 6.060 C 13.806 6.047,13.365 6.026,13.200 6.013 L 12.900 5.988 16.700 5.037 C 18.790 4.514,20.577 4.048,20.670 4.003 C 20.899 3.892,21.000 3.720,21.000 3.437 C 21.000 3.179,20.845 2.828,20.680 2.716 C 20.573 2.642,20.351 2.599,20.220 2.626 M13.288 7.520 C 15.402 7.583,17.094 7.731,19.040 8.021 C 20.159 8.188,20.280 8.233,20.628 8.614 C 20.771 8.771,20.850 8.904,20.913 9.096 L 21.000 9.362 21.000 14.154 C 21.000 19.468,21.015 19.163,20.737 19.582 C 20.580 19.818,20.355 20.010,20.089 20.133 L 19.900 20.220 12.000 20.220 L 4.100 20.220 3.911 20.133 C 3.647 20.011,3.425 19.822,3.263 19.584 C 2.986 19.174,3.000 19.466,3.000 14.154 L 3.000 9.362 3.087 9.096 C 3.180 8.812,3.446 8.475,3.692 8.327 C 4.076 8.097,6.326 7.781,8.880 7.598 C 9.432 7.558,10.172 7.530,11.760 7.487 C 11.881 7.484,12.568 7.499,13.288 7.520 M8.843 9.848 C 8.603 9.973,8.520 10.140,8.520 10.499 C 8.520 11.011,8.698 11.209,9.181 11.234 C 9.536 11.252,9.776 11.158,9.901 10.951 C 10.017 10.759,10.015 10.212,9.898 10.055 C 9.738 9.841,9.617 9.782,9.308 9.768 C 9.068 9.757,8.990 9.771,8.843 9.848 M10.901 10.262 C 10.707 10.329,10.574 10.456,10.455 10.692 C 10.240 11.113,10.362 11.455,10.804 11.676 C 11.092 11.820,11.196 11.827,11.429 11.721 C 11.613 11.638,11.807 11.380,11.888 11.110 C 12.029 10.638,11.394 10.092,10.901 10.262 M7.000 10.370 C 6.724 10.535,6.600 10.715,6.600 10.947 C 6.600 11.294,6.920 11.726,7.218 11.782 C 7.389 11.814,7.676 11.723,7.869 11.576 C 8.231 11.300,8.254 10.916,7.936 10.498 C 7.708 10.199,7.363 10.152,7.000 10.370 M16.804 10.565 C 16.606 10.624,16.281 10.843,16.124 11.021 C 16.049 11.107,15.941 11.276,15.884 11.398 C 15.795 11.588,15.780 11.674,15.780 12.001 C 15.780 12.350,15.791 12.404,15.911 12.648 C 16.058 12.947,16.314 13.202,16.624 13.360 C 16.796 13.448,16.871 13.460,17.240 13.460 C 17.608 13.460,17.687 13.447,17.880 13.357 C 18.313 13.154,18.640 12.719,18.716 12.244 C 18.795 11.754,18.645 11.291,18.292 10.938 C 18.005 10.651,17.740 10.543,17.300 10.532 C 17.102 10.527,16.879 10.542,16.804 10.565 M5.637 11.691 C 5.479 11.797,5.287 12.091,5.240 12.298 C 5.172 12.601,5.338 12.882,5.689 13.057 C 6.153 13.288,6.558 13.091,6.745 12.544 C 6.864 12.194,6.715 11.904,6.310 11.703 C 6.049 11.572,5.819 11.568,5.637 11.691 M12.288 11.642 C 12.095 11.719,11.848 11.922,11.785 12.054 C 11.686 12.264,11.704 12.458,11.847 12.727 C 12.066 13.138,12.407 13.259,12.791 13.064 C 13.284 12.814,13.392 12.517,13.159 12.051 C 13.009 11.751,12.803 11.599,12.551 11.603 C 12.457 11.604,12.339 11.622,12.288 11.642 M7.928 12.470 C 7.592 12.650,7.378 12.979,7.410 13.265 C 7.444 13.561,7.793 13.920,8.104 13.978 C 8.306 14.016,8.646 13.847,8.803 13.629 C 9.043 13.298,9.035 13.029,8.776 12.726 C 8.516 12.422,8.197 12.326,7.928 12.470 M10.048 12.470 C 9.752 12.629,9.520 12.948,9.520 13.198 C 9.520 13.594,10.068 14.063,10.429 13.975 C 10.700 13.909,11.008 13.595,11.098 13.292 C 11.166 13.062,10.904 12.635,10.597 12.479 C 10.407 12.381,10.219 12.378,10.048 12.470 M5.079 13.593 C 4.670 13.807,4.647 14.662,5.045 14.897 C 5.121 14.941,5.281 14.979,5.443 14.991 C 5.966 15.028,6.240 14.776,6.240 14.256 C 6.240 14.087,6.214 13.966,6.150 13.841 C 6.028 13.603,5.860 13.520,5.500 13.520 C 5.305 13.520,5.176 13.542,5.079 13.593 M12.601 13.588 C 12.524 13.628,12.422 13.719,12.374 13.790 C 12.213 14.033,12.215 14.493,12.379 14.744 C 12.542 14.992,13.069 15.078,13.401 14.910 C 13.649 14.784,13.736 14.616,13.738 14.262 C 13.740 13.948,13.666 13.772,13.467 13.624 C 13.309 13.506,12.800 13.485,12.601 13.588 M7.929 14.587 C 7.856 14.622,7.717 14.740,7.620 14.849 C 7.326 15.175,7.327 15.465,7.621 15.793 C 7.831 16.026,8.070 16.138,8.276 16.100 C 8.462 16.065,8.733 15.873,8.839 15.702 C 9.040 15.376,9.023 15.134,8.776 14.846 C 8.518 14.544,8.207 14.449,7.929 14.587 M10.060 14.583 C 9.769 14.733,9.520 15.072,9.520 15.318 C 9.520 15.705,10.035 16.167,10.391 16.100 C 10.679 16.046,11.025 15.716,11.095 15.429 C 11.184 15.065,10.713 14.519,10.312 14.520 C 10.239 14.520,10.126 14.548,10.060 14.583 M16.934 15.042 C 16.518 15.124,16.093 15.462,15.893 15.870 C 15.792 16.076,15.780 16.142,15.780 16.500 C 15.780 16.858,15.792 16.924,15.893 17.130 C 16.361 18.084,17.646 18.284,18.341 17.511 C 18.560 17.267,18.678 17.023,18.719 16.730 C 18.864 15.674,17.977 14.835,16.934 15.042 M5.699 15.444 C 5.468 15.566,5.284 15.756,5.241 15.919 C 5.151 16.254,5.410 16.736,5.748 16.865 C 5.902 16.924,5.955 16.927,6.109 16.886 C 6.326 16.828,6.601 16.646,6.702 16.492 C 6.877 16.228,6.750 15.775,6.420 15.485 C 6.299 15.379,6.245 15.360,6.068 15.360 C 5.933 15.360,5.802 15.390,5.699 15.444 M12.117 15.451 C 12.043 15.501,11.928 15.630,11.861 15.738 C 11.760 15.901,11.740 15.975,11.740 16.185 C 11.740 16.417,11.750 16.446,11.878 16.578 C 12.043 16.748,12.370 16.920,12.529 16.920 C 12.893 16.920,13.277 16.480,13.279 16.059 C 13.282 15.572,12.526 15.175,12.117 15.451 M7.035 16.800 C 6.821 16.913,6.628 17.236,6.609 17.516 C 6.595 17.714,6.607 17.759,6.709 17.900 C 6.853 18.097,7.196 18.280,7.423 18.280 C 7.670 18.280,7.898 18.112,8.042 17.824 C 8.271 17.364,8.151 17.045,7.660 16.815 C 7.419 16.702,7.230 16.697,7.035 16.800 M10.809 16.823 C 10.326 17.064,10.220 17.448,10.508 17.913 C 10.657 18.155,10.845 18.280,11.056 18.280 C 11.406 18.279,11.846 17.959,11.901 17.667 C 11.935 17.486,11.866 17.247,11.719 17.045 C 11.475 16.708,11.183 16.637,10.809 16.823 M9.033 17.277 C 8.676 17.349,8.520 17.566,8.520 17.995 C 8.520 18.529,8.724 18.740,9.240 18.740 C 9.614 18.740,9.781 18.655,9.910 18.401 C 10.090 18.046,9.983 17.513,9.700 17.355 C 9.555 17.274,9.234 17.236,9.033 17.277 " stroke="none" fill-rule="evenodd" fill="black"></path></svg>