<svg width="24" height="24" viewBox="0 0 24 24" fill="none" xmlns="http://www.w3.org/2000/svg"><path d="M9.920 1.545 C 8.641 1.605,6.468 1.793,6.000 1.885 C 5.676 1.948,5.147 2.210,4.840 2.457 C 4.511 2.723,4.239 3.075,4.034 3.500 C 3.742 4.106,3.760 3.463,3.761 13.194 L 3.762 21.940 3.871 22.137 C 4.026 22.417,4.155 22.500,4.433 22.500 C 4.634 22.500,4.866 22.417,6.439 21.787 C 7.443 21.384,8.253 21.081,8.299 21.091 C 8.343 21.101,9.150 21.417,10.090 21.794 C 11.506 22.362,11.835 22.480,12.000 22.480 C 12.165 22.480,12.494 22.362,13.910 21.794 C 14.850 21.417,15.657 21.101,15.701 21.091 C 15.747 21.082,16.552 21.381,17.543 21.777 C 19.107 22.401,19.330 22.480,19.534 22.480 C 19.850 22.480,20.062 22.368,20.162 22.148 C 20.236 21.985,20.238 21.744,20.239 13.214 C 20.240 3.460,20.258 4.106,19.966 3.500 C 19.599 2.739,19.025 2.224,18.241 1.953 C 17.980 1.863,17.023 1.749,15.580 1.635 C 14.750 1.570,14.104 1.552,12.380 1.542 C 11.192 1.536,10.085 1.537,9.920 1.545 M13.980 3.040 C 15.690 3.120,17.449 3.280,17.780 3.385 C 18.252 3.534,18.603 3.942,18.715 4.472 C 18.747 4.625,18.760 6.912,18.760 12.662 C 18.760 17.050,18.755 20.640,18.749 20.640 C 18.743 20.640,18.109 20.388,17.340 20.080 C 16.225 19.633,15.903 19.520,15.751 19.520 C 15.597 19.520,15.222 19.655,13.810 20.220 C 12.848 20.605,12.033 20.920,12.000 20.920 C 11.967 20.920,11.152 20.605,10.190 20.220 C 8.778 19.655,8.403 19.520,8.249 19.520 C 8.097 19.520,7.775 19.633,6.660 20.080 C 5.891 20.388,5.257 20.640,5.250 20.640 C 5.244 20.640,5.244 16.991,5.249 12.530 L 5.260 4.420 5.352 4.220 C 5.555 3.777,5.837 3.506,6.220 3.385 C 6.534 3.285,8.343 3.117,9.900 3.043 C 10.864 2.997,13.032 2.995,13.980 3.040 M14.820 7.502 C 14.732 7.533,14.652 7.559,14.641 7.559 C 14.596 7.561,8.463 13.716,8.360 13.863 C 8.144 14.172,8.174 14.463,8.452 14.754 C 8.718 15.031,9.001 15.103,9.272 14.963 C 9.355 14.920,10.804 13.498,12.566 11.733 C 15.899 8.392,15.844 8.453,15.778 8.150 C 15.714 7.858,15.383 7.534,15.080 7.467 C 15.025 7.455,14.908 7.471,14.820 7.502 M9.440 7.917 C 8.966 8.061,8.642 8.502,8.642 9.000 C 8.642 9.603,9.078 10.067,9.685 10.111 C 9.908 10.127,9.985 10.114,10.165 10.031 C 10.467 9.893,10.619 9.752,10.746 9.491 C 10.943 9.089,10.879 8.601,10.585 8.252 C 10.414 8.051,10.033 7.879,9.764 7.883 C 9.641 7.885,9.495 7.901,9.440 7.917 M13.900 12.434 C 13.632 12.522,13.325 12.806,13.209 13.074 C 13.127 13.264,13.126 13.734,13.208 13.923 C 13.290 14.112,13.498 14.345,13.698 14.472 C 13.925 14.616,14.426 14.646,14.684 14.531 C 14.923 14.424,15.100 14.268,15.231 14.046 C 15.328 13.881,15.340 13.820,15.340 13.500 C 15.340 13.180,15.328 13.119,15.231 12.954 C 15.011 12.580,14.692 12.400,14.260 12.405 C 14.106 12.407,13.944 12.420,13.900 12.434 " stroke="none" fill-rule="evenodd" fill="black"></path></svg>