<svg width="24" height="24" viewBox="0 0 24 24" fill="none" xmlns="http://www.w3.org/2000/svg"><path d="M9.920 1.545 C 8.641 1.605,6.468 1.793,6.000 1.885 C 5.676 1.948,5.147 2.210,4.840 2.457 C 4.511 2.723,4.239 3.075,4.034 3.500 C 3.742 4.106,3.760 3.463,3.761 13.194 L 3.762 21.940 3.871 22.137 C 4.026 22.417,4.155 22.500,4.433 22.500 C 4.634 22.500,4.866 22.417,6.439 21.787 C 7.443 21.384,8.253 21.081,8.299 21.091 C 8.343 21.101,9.150 21.417,10.090 21.794 C 11.506 22.362,11.835 22.480,12.000 22.480 C 12.165 22.480,12.494 22.362,13.910 21.794 C 14.850 21.417,15.657 21.101,15.701 21.091 C 15.747 21.082,16.552 21.381,17.543 21.777 C 19.107 22.401,19.330 22.480,19.534 22.480 C 19.850 22.480,20.062 22.368,20.162 22.148 C 20.236 21.985,20.238 21.744,20.239 13.214 C 20.240 3.460,20.258 4.106,19.966 3.500 C 19.599 2.739,19.025 2.224,18.241 1.953 C 17.980 1.863,17.023 1.749,15.580 1.635 C 14.750 1.570,14.104 1.552,12.380 1.542 C 11.192 1.536,10.085 1.537,9.920 1.545 M13.980 3.040 C 15.690 3.120,17.449 3.280,17.780 3.385 C 18.252 3.534,18.603 3.942,18.715 4.472 C 18.747 4.625,18.760 6.912,18.760 12.662 C 18.760 17.050,18.755 20.640,18.749 20.640 C 18.743 20.640,18.109 20.388,17.340 20.080 C 16.225 19.633,15.903 19.520,15.751 19.520 C 15.597 19.520,15.222 19.655,13.810 20.220 C 12.848 20.605,12.033 20.920,12.000 20.920 C 11.967 20.920,11.152 20.605,10.190 20.220 C 8.778 19.655,8.403 19.520,8.249 19.520 C 8.097 19.520,7.775 19.633,6.660 20.080 C 5.891 20.388,5.257 20.640,5.250 20.640 C 5.244 20.640,5.244 16.991,5.249 12.530 L 5.260 4.420 5.352 4.220 C 5.555 3.777,5.837 3.506,6.220 3.385 C 6.534 3.285,8.343 3.117,9.900 3.043 C 10.864 2.997,13.032 2.995,13.980 3.040 M10.220 6.786 C 10.154 6.821,9.577 7.369,8.937 8.005 C 8.298 8.640,7.754 9.160,7.730 9.160 C 7.657 9.160,7.470 9.588,7.473 9.750 C 7.477 10.057,7.578 10.179,8.860 11.444 C 10.236 12.800,10.319 12.861,10.645 12.763 C 10.824 12.710,11.133 12.447,11.223 12.274 C 11.307 12.112,11.294 11.844,11.195 11.681 C 11.148 11.605,10.874 11.302,10.585 11.008 L 10.061 10.474 11.760 10.488 C 13.415 10.501,13.467 10.504,13.717 10.593 C 14.664 10.933,15.183 11.894,14.937 12.854 C 14.796 13.405,14.343 13.916,13.810 14.124 C 13.603 14.206,13.487 14.217,12.660 14.238 C 11.840 14.259,11.724 14.270,11.604 14.341 C 11.331 14.500,11.208 14.818,11.277 15.185 C 11.318 15.404,11.419 15.551,11.604 15.660 C 11.730 15.734,11.807 15.740,12.680 15.735 C 13.507 15.731,13.658 15.720,13.940 15.645 C 15.225 15.299,16.165 14.314,16.422 13.043 C 16.521 12.552,16.487 11.815,16.345 11.380 C 15.942 10.147,14.954 9.283,13.690 9.058 C 13.460 9.017,12.950 9.002,11.721 9.001 L 10.061 9.000 10.607 8.450 C 10.907 8.148,11.181 7.842,11.216 7.772 C 11.492 7.221,10.764 6.501,10.220 6.786 " stroke="none" fill-rule="evenodd" fill="black"></path></svg>