<svg width="24" height="24" viewBox="0 0 24 24" fill="none" xmlns="http://www.w3.org/2000/svg"><path d="M7.730 3.044 C 7.120 3.146,6.607 3.423,6.119 3.916 C 5.553 4.486,5.309 5.065,5.257 5.956 L 5.229 6.431 5.081 6.514 C 4.889 6.622,4.452 7.050,4.284 7.294 C 3.943 7.790,3.760 8.399,3.760 9.037 L 3.760 9.397 3.530 9.554 C 2.955 9.945,2.494 10.623,2.331 11.318 C 2.266 11.595,2.260 11.907,2.260 15.040 L 2.260 18.460 2.352 18.778 C 2.506 19.308,2.732 19.694,3.119 20.084 C 3.621 20.590,4.114 20.852,4.763 20.958 C 5.120 21.016,18.880 21.016,19.237 20.958 C 19.886 20.852,20.379 20.590,20.881 20.084 C 21.268 19.694,21.494 19.308,21.648 18.778 L 21.740 18.460 21.740 15.040 C 21.740 11.907,21.734 11.595,21.669 11.318 C 21.506 10.623,21.045 9.945,20.470 9.554 L 20.240 9.397 20.240 9.037 C 20.240 8.399,20.057 7.790,19.716 7.294 C 19.548 7.050,19.111 6.622,18.919 6.514 L 18.771 6.431 18.743 5.956 C 18.691 5.065,18.447 4.486,17.881 3.916 C 17.379 3.410,16.886 3.148,16.237 3.042 C 15.920 2.991,8.040 2.993,7.730 3.044 M15.960 4.522 C 16.103 4.544,16.315 4.611,16.431 4.669 C 16.836 4.871,17.190 5.375,17.232 5.808 L 17.250 6.000 12.000 6.000 L 6.750 6.000 6.768 5.808 C 6.827 5.202,7.378 4.627,8.000 4.525 C 8.316 4.474,15.635 4.470,15.960 4.522 M17.730 7.585 C 18.163 7.744,18.430 7.991,18.618 8.407 C 18.671 8.524,18.727 8.705,18.742 8.810 L 18.769 9.000 12.000 9.000 L 5.231 9.000 5.258 8.810 C 5.292 8.574,5.440 8.242,5.600 8.040 C 5.816 7.767,6.196 7.569,6.620 7.508 C 6.686 7.499,9.161 7.493,12.120 7.496 C 17.495 7.500,17.500 7.500,17.730 7.585 M19.220 10.582 C 19.330 10.625,19.475 10.691,19.542 10.727 C 19.728 10.828,19.995 11.140,20.114 11.393 L 20.220 11.620 20.220 15.001 L 20.220 18.382 20.089 18.648 C 19.864 19.105,19.467 19.397,18.960 19.478 C 18.602 19.535,5.401 19.535,5.040 19.478 C 4.528 19.397,4.108 19.080,3.887 18.609 L 3.780 18.380 3.780 15.000 L 3.780 11.620 3.885 11.395 C 4.005 11.140,4.234 10.870,4.440 10.741 C 4.575 10.656,4.914 10.539,5.120 10.506 C 5.175 10.497,8.325 10.493,12.120 10.497 C 18.890 10.503,19.024 10.504,19.220 10.582 " stroke="none" fill-rule="evenodd" fill="black"></path></svg>