<svg width="24" height="24" viewBox="0 0 24 24" fill="none" xmlns="http://www.w3.org/2000/svg"><path d="M3.040 5.285 C 2.486 5.374,1.922 5.814,1.664 6.359 L 1.540 6.620 1.540 9.000 L 1.540 11.380 1.664 11.641 C 1.930 12.203,2.487 12.626,3.080 12.719 C 3.431 12.774,9.331 12.773,9.680 12.719 C 10.391 12.607,11.038 12.009,11.198 11.315 C 11.252 11.080,11.252 6.920,11.198 6.685 C 11.038 5.991,10.391 5.393,9.680 5.281 C 9.358 5.231,3.356 5.234,3.040 5.285 M9.566 6.803 C 9.752 6.903,9.760 6.996,9.760 9.000 C 9.760 11.004,9.752 11.097,9.566 11.197 C 9.510 11.227,8.522 11.240,6.360 11.240 L 3.234 11.240 3.117 11.123 L 3.000 11.006 3.000 9.000 L 3.000 6.994 3.117 6.877 L 3.234 6.760 6.360 6.760 C 8.522 6.760,9.510 6.773,9.566 6.803 M14.910 6.803 C 14.327 6.943,13.804 7.434,13.602 8.033 C 13.519 8.280,13.519 8.306,13.529 12.831 L 13.540 17.380 13.664 17.641 C 13.930 18.203,14.487 18.626,15.080 18.719 C 15.428 18.773,20.572 18.773,20.920 18.719 C 21.513 18.626,22.070 18.203,22.336 17.641 L 22.460 17.380 22.471 12.831 C 22.481 8.306,22.481 8.280,22.398 8.033 C 22.227 7.526,21.887 7.153,21.374 6.910 L 21.100 6.780 18.080 6.773 C 16.406 6.770,14.993 6.783,14.910 6.803 M20.755 8.284 C 21.013 8.374,21.000 8.131,21.000 12.781 L 21.000 17.006 20.883 17.123 L 20.766 17.240 18.000 17.240 L 15.234 17.240 15.117 17.123 L 15.000 17.006 15.000 12.785 C 15.000 9.538,15.011 8.539,15.049 8.456 C 15.147 8.242,15.126 8.243,17.984 8.242 C 19.820 8.240,20.667 8.254,20.755 8.284 M4.540 14.284 C 3.834 14.389,3.175 15.036,3.040 15.755 C 2.985 16.054,2.988 18.499,3.045 18.768 C 3.183 19.428,3.736 20.012,4.378 20.178 C 4.735 20.271,10.265 20.271,10.622 20.178 C 11.276 20.009,11.827 19.415,11.960 18.735 C 11.991 18.576,12.002 18.049,11.992 17.100 C 11.978 15.745,11.975 15.692,11.885 15.467 C 11.753 15.135,11.463 14.773,11.169 14.573 C 10.692 14.248,10.860 14.264,7.640 14.255 C 6.067 14.251,4.672 14.264,4.540 14.284 M10.370 15.861 C 10.425 15.916,10.481 16.017,10.495 16.086 C 10.509 16.154,10.520 16.698,10.520 17.295 C 10.520 18.248,10.511 18.397,10.450 18.519 C 10.411 18.596,10.335 18.682,10.280 18.709 C 10.202 18.749,9.583 18.758,7.451 18.750 L 4.722 18.740 4.611 18.629 L 4.500 18.518 4.487 17.409 C 4.473 16.133,4.484 16.007,4.627 15.864 L 4.731 15.760 7.500 15.760 L 10.269 15.760 10.370 15.861 " stroke="none" fill-rule="evenodd" fill="black"></path></svg>