<svg width="24" height="24" viewBox="0 0 24 24" fill="none" xmlns="http://www.w3.org/2000/svg"><path d="M20.200 1.580 C 16.956 1.905,13.925 3.205,11.460 5.330 C 10.923 5.793,10.052 6.684,9.620 7.211 C 9.395 7.486,9.283 7.594,9.240 7.576 C 9.113 7.523,7.795 7.509,7.429 7.558 C 5.901 7.759,4.550 8.419,3.484 9.484 C 2.249 10.720,1.520 12.434,1.520 14.104 C 1.520 14.587,1.586 14.766,1.814 14.904 C 1.933 14.976,2.066 14.981,4.166 15.000 L 6.392 15.020 6.778 15.472 C 7.271 16.048,7.952 16.729,8.528 17.222 L 8.980 17.608 9.000 19.834 C 9.022 22.332,9.008 22.220,9.322 22.396 C 9.690 22.603,11.082 22.443,12.070 22.082 C 12.969 21.752,13.769 21.242,14.475 20.549 C 15.573 19.469,16.238 18.125,16.442 16.571 C 16.491 16.205,16.477 14.887,16.424 14.760 C 16.406 14.717,16.514 14.605,16.789 14.380 C 18.107 13.300,19.335 11.871,20.260 10.340 C 21.682 7.988,22.538 4.930,22.474 2.433 C 22.462 1.955,22.449 1.871,22.377 1.773 C 22.214 1.550,22.088 1.520,21.360 1.525 C 20.997 1.528,20.475 1.553,20.200 1.580 M20.969 3.051 C 20.980 3.175,20.901 3.991,20.838 4.400 C 20.537 6.356,19.845 8.198,18.763 9.917 C 17.686 11.628,16.055 13.236,14.251 14.366 C 13.055 15.116,11.561 15.744,10.171 16.082 L 9.641 16.211 9.372 15.975 C 9.027 15.673,8.327 14.973,8.025 14.628 L 7.789 14.359 7.918 13.829 C 8.068 13.210,8.330 12.408,8.585 11.783 C 8.925 10.954,9.590 9.747,10.047 9.132 C 10.142 9.004,10.262 8.837,10.314 8.760 C 10.675 8.227,11.629 7.184,12.320 6.568 C 14.280 4.819,16.898 3.582,19.500 3.176 C 19.896 3.114,20.869 3.006,20.933 3.016 C 20.951 3.019,20.967 3.035,20.969 3.051 M14.425 6.823 C 14.066 6.911,13.730 7.110,13.420 7.420 C 12.966 7.874,12.761 8.365,12.761 9.000 C 12.761 9.635,12.966 10.126,13.420 10.580 C 13.874 11.034,14.365 11.239,15.000 11.239 C 15.635 11.239,16.126 11.034,16.580 10.580 C 17.034 10.126,17.239 9.635,17.239 9.000 C 17.239 8.365,17.034 7.874,16.580 7.420 C 16.263 7.103,15.934 6.911,15.556 6.822 C 15.240 6.747,14.737 6.748,14.425 6.823 M15.219 8.285 C 15.431 8.343,15.660 8.578,15.719 8.796 C 15.919 9.539,15.017 10.067,14.475 9.525 C 14.085 9.134,14.228 8.483,14.746 8.298 C 14.936 8.231,15.016 8.228,15.219 8.285 M8.320 9.014 C 8.320 9.021,8.230 9.179,8.119 9.364 C 7.499 10.402,6.878 11.897,6.543 13.158 L 6.452 13.500 4.760 13.510 L 3.069 13.521 3.091 13.310 C 3.118 13.053,3.322 12.408,3.500 12.018 C 4.192 10.499,5.755 9.326,7.435 9.063 C 7.754 9.013,8.320 8.982,8.320 9.014 M15.000 15.900 C 15.000 16.494,14.779 17.391,14.478 18.020 C 13.973 19.076,13.076 19.973,12.020 20.478 C 11.623 20.668,10.969 20.880,10.690 20.909 L 10.479 20.931 10.490 19.240 L 10.500 17.548 10.860 17.453 C 11.364 17.321,12.140 17.061,12.660 16.851 C 13.207 16.630,14.287 16.097,14.660 15.863 C 14.814 15.767,14.954 15.686,14.970 15.684 C 14.987 15.682,15.000 15.779,15.000 15.900 M4.630 15.897 C 4.440 15.965,4.291 16.079,3.864 16.483 C 2.721 17.565,2.144 19.101,2.283 20.696 C 2.353 21.506,2.494 21.646,3.310 21.718 C 5.087 21.873,6.745 21.147,7.893 19.711 C 8.229 19.291,8.230 18.988,7.897 18.682 C 7.615 18.421,7.322 18.334,7.107 18.446 C 7.059 18.471,6.786 18.727,6.500 19.016 C 5.959 19.562,5.673 19.763,5.118 19.987 C 4.804 20.114,4.236 20.238,3.964 20.239 L 3.748 20.240 3.772 19.910 C 3.816 19.301,4.078 18.598,4.464 18.054 C 4.559 17.919,4.829 17.631,5.063 17.414 C 5.514 16.996,5.600 16.879,5.600 16.681 C 5.600 16.313,5.151 15.829,4.820 15.842 C 4.798 15.843,4.712 15.868,4.630 15.897 " stroke="none" fill-rule="evenodd" fill="black"></path></svg>