<svg width="24" height="24" viewBox="0 0 24 24" fill="none" xmlns="http://www.w3.org/2000/svg"><path d="M4.092 3.840 C 3.639 4.072,3.639 4.942,4.092 5.154 C 4.240 5.223,4.381 5.235,5.300 5.255 C 7.244 5.299,8.630 5.565,10.220 6.201 C 12.032 6.926,13.389 7.823,14.783 9.217 C 16.187 10.621,17.102 12.015,17.832 13.860 C 18.437 15.388,18.702 16.795,18.745 18.700 C 18.765 19.619,18.777 19.760,18.846 19.908 C 18.949 20.127,19.172 20.240,19.500 20.240 C 19.835 20.240,20.050 20.128,20.163 19.894 C 20.249 19.717,20.250 19.688,20.228 18.586 C 20.204 17.450,20.149 16.837,19.997 16.020 C 19.599 13.881,18.699 11.765,17.446 10.020 C 16.545 8.765,15.235 7.455,13.980 6.554 C 12.281 5.334,10.238 4.450,8.180 4.044 C 7.215 3.853,6.602 3.794,5.380 3.773 C 4.294 3.755,4.255 3.757,4.092 3.840 M4.067 10.604 C 3.714 10.790,3.643 11.522,3.950 11.807 C 4.126 11.971,4.283 12.000,4.984 12.000 C 7.048 12.000,8.670 12.640,10.015 13.985 C 11.360 15.330,12.000 16.952,12.000 19.016 C 12.000 19.396,12.019 19.725,12.045 19.804 C 12.145 20.102,12.379 20.240,12.780 20.239 C 13.069 20.238,13.297 20.122,13.398 19.925 C 13.473 19.777,13.480 19.692,13.480 18.944 C 13.480 17.631,13.323 16.737,12.913 15.711 C 12.066 13.589,10.409 11.932,8.292 11.088 C 7.241 10.669,6.391 10.520,5.080 10.522 C 4.296 10.523,4.206 10.531,4.067 10.604 M5.020 17.281 C 4.705 17.325,4.433 17.464,4.213 17.692 C 3.969 17.945,3.867 18.119,3.801 18.397 C 3.588 19.283,4.225 20.167,5.122 20.231 C 5.618 20.266,6.001 20.116,6.348 19.749 C 6.617 19.464,6.727 19.169,6.728 18.730 C 6.728 18.447,6.711 18.365,6.607 18.142 C 6.319 17.527,5.693 17.187,5.020 17.281 " stroke="none" fill-rule="evenodd" fill="black"></path></svg>