<svg width="24" height="24" viewBox="0 0 24 24" fill="none" xmlns="http://www.w3.org/2000/svg"><path d="M11.787 2.278 C 11.599 2.315,11.444 2.427,11.343 2.599 C 11.282 2.704,11.263 2.833,11.248 3.240 L 11.230 3.750 10.585 3.777 C 8.772 3.851,7.213 3.969,6.030 4.121 C 5.694 4.165,5.345 4.200,5.253 4.200 C 5.161 4.200,5.044 4.216,4.993 4.235 C 4.942 4.255,4.593 4.318,4.217 4.376 C 2.917 4.578,1.921 4.788,1.758 4.897 C 1.540 5.041,1.454 5.285,1.514 5.586 C 1.599 6.010,1.821 6.240,2.144 6.240 C 2.239 6.240,2.700 6.168,3.168 6.080 C 4.296 5.869,4.240 5.877,4.240 5.916 C 4.240 5.934,3.711 8.117,3.064 10.765 C 2.417 13.413,1.875 15.680,1.860 15.802 C 1.823 16.104,1.892 16.444,2.061 16.787 C 2.297 17.269,2.668 17.531,3.400 17.733 C 4.708 18.096,6.052 18.071,7.351 17.660 C 7.910 17.484,8.220 17.224,8.471 16.720 C 8.617 16.426,8.620 16.411,8.617 15.980 C 8.614 15.542,8.607 15.512,7.407 10.623 C 6.743 7.919,6.200 5.683,6.200 5.653 C 6.200 5.624,6.223 5.599,6.250 5.599 C 6.277 5.598,6.435 5.580,6.600 5.558 C 7.528 5.438,9.577 5.297,10.810 5.270 L 11.240 5.260 11.240 12.388 L 11.240 19.515 11.070 19.536 C 10.977 19.547,10.711 19.575,10.480 19.599 C 9.432 19.706,7.673 20.170,7.275 20.446 C 7.109 20.561,7.026 20.775,7.058 21.011 C 7.116 21.454,7.389 21.760,7.724 21.760 C 7.815 21.760,8.162 21.672,8.495 21.564 C 9.781 21.148,10.591 21.023,12.000 21.023 C 13.409 21.023,14.219 21.148,15.505 21.564 C 15.838 21.672,16.183 21.760,16.272 21.760 C 16.581 21.760,16.825 21.518,16.921 21.116 C 17.025 20.681,16.865 20.457,16.298 20.249 C 15.502 19.956,14.353 19.688,13.520 19.600 C 13.289 19.576,13.023 19.546,12.930 19.535 L 12.760 19.515 12.760 12.388 L 12.760 5.260 13.190 5.270 C 14.423 5.297,16.472 5.438,17.400 5.558 C 17.565 5.580,17.723 5.598,17.750 5.599 C 17.777 5.599,17.800 5.624,17.800 5.653 C 17.800 5.682,17.257 7.918,16.593 10.623 C 15.392 15.514,15.386 15.542,15.383 15.980 C 15.380 16.410,15.383 16.427,15.529 16.720 C 15.847 17.358,16.231 17.598,17.316 17.839 C 18.842 18.177,20.876 17.895,21.609 17.243 C 21.988 16.906,22.212 16.246,22.126 15.722 C 22.101 15.574,21.559 13.315,20.921 10.701 C 20.282 8.088,19.760 5.935,19.760 5.916 C 19.760 5.877,19.703 5.869,20.832 6.080 C 21.826 6.267,21.976 6.275,22.164 6.150 C 22.449 5.961,22.591 5.398,22.429 5.094 C 22.315 4.879,22.139 4.806,21.372 4.657 C 18.848 4.163,16.496 3.903,13.410 3.777 L 12.760 3.750 12.758 3.365 C 12.755 2.728,12.679 2.504,12.416 2.354 C 12.272 2.273,11.989 2.239,11.787 2.278 M6.223 12.100 C 7.292 16.485,7.237 16.112,6.840 16.248 C 6.017 16.530,4.906 16.567,3.997 16.343 C 3.460 16.210,3.383 16.170,3.367 16.009 C 3.360 15.936,3.756 14.235,4.280 12.090 C 5.277 8.002,5.247 8.121,5.264 8.180 C 5.271 8.202,5.702 9.966,6.223 12.100 M19.721 12.090 C 20.241 14.221,20.640 15.937,20.633 16.010 C 20.617 16.170,20.540 16.211,20.003 16.343 C 19.107 16.564,18.079 16.536,17.225 16.267 C 16.749 16.118,16.690 16.557,17.784 12.077 C 18.371 9.670,18.751 8.187,18.769 8.230 C 18.784 8.268,19.213 10.006,19.721 12.090 " stroke="none" fill-rule="evenodd" fill="black"></path></svg>