<svg width="24" height="24" viewBox="0 0 24 24" fill="none" xmlns="http://www.w3.org/2000/svg"><path d="M4.920 3.025 C 4.458 3.091,4.217 3.145,3.950 3.242 C 3.077 3.559,2.324 4.239,1.886 5.108 C 1.448 5.976,1.399 7.201,1.765 8.120 C 1.895 8.444,2.165 8.902,2.375 9.154 C 2.594 9.417,3.022 9.774,3.350 9.969 C 4.000 10.356,4.581 10.499,5.379 10.470 C 6.359 10.433,7.119 10.121,7.832 9.461 L 8.070 9.241 8.605 9.550 C 9.481 10.055,9.657 10.302,9.722 11.112 C 9.743 11.370,9.778 11.675,9.799 11.790 C 9.823 11.925,9.823 12.075,9.799 12.210 C 9.778 12.325,9.743 12.630,9.722 12.888 C 9.657 13.698,9.481 13.945,8.605 14.450 L 8.070 14.759 7.832 14.539 C 7.364 14.105,6.805 13.792,6.220 13.635 C 5.767 13.514,4.972 13.488,4.524 13.579 C 3.866 13.713,3.271 14.010,2.773 14.452 C 2.444 14.744,2.295 14.921,2.064 15.292 C 1.658 15.944,1.499 16.582,1.531 17.420 C 1.570 18.431,1.922 19.218,2.659 19.940 C 3.789 21.047,5.525 21.307,6.951 20.584 C 7.682 20.212,8.286 19.586,8.638 18.834 C 8.901 18.270,8.976 17.913,8.973 17.240 C 8.970 16.792,8.951 16.592,8.889 16.360 C 8.845 16.195,8.811 16.058,8.814 16.056 C 8.893 15.996,11.277 14.640,11.304 14.640 C 11.324 14.640,11.428 14.712,11.534 14.799 C 11.850 15.060,12.253 15.313,12.648 15.498 C 12.897 15.614,13.959 15.958,15.842 16.534 C 17.394 17.009,18.816 17.435,19.002 17.482 C 19.440 17.591,20.377 17.631,20.883 17.562 C 21.330 17.501,22.358 17.232,22.531 17.131 C 22.699 17.033,22.884 16.728,22.909 16.508 C 22.932 16.308,22.868 16.157,22.694 15.994 C 22.631 15.936,21.073 15.019,19.230 13.956 C 17.387 12.893,15.880 12.013,15.880 12.000 C 15.880 11.987,17.387 11.107,19.230 10.044 C 21.073 8.981,22.620 8.074,22.669 8.029 C 22.902 7.816,22.953 7.227,22.757 7.017 C 22.704 6.959,22.615 6.889,22.560 6.860 C 22.405 6.780,21.259 6.490,20.886 6.437 C 20.404 6.369,19.433 6.410,19.002 6.518 C 18.816 6.565,17.394 6.991,15.842 7.466 C 13.959 8.042,12.897 8.386,12.648 8.502 C 12.251 8.688,11.847 8.942,11.533 9.202 C 11.427 9.291,11.312 9.356,11.278 9.347 C 11.234 9.336,8.870 7.991,8.814 7.945 C 8.811 7.942,8.845 7.805,8.889 7.640 C 9.011 7.187,9.008 6.302,8.885 5.840 C 8.549 4.587,7.640 3.606,6.436 3.198 C 5.980 3.044,5.318 2.968,4.920 3.025 M5.838 4.585 C 6.832 4.867,7.485 5.718,7.492 6.740 C 7.497 7.369,7.287 7.870,6.820 8.344 C 6.510 8.659,6.194 8.835,5.756 8.938 C 4.361 9.267,3.000 8.182,3.000 6.740 C 3.000 6.154,3.227 5.619,3.663 5.172 C 4.236 4.586,5.058 4.364,5.838 4.585 M19.898 7.917 C 19.836 7.976,14.233 11.202,14.081 11.265 C 14.005 11.297,13.913 11.350,13.876 11.384 C 13.839 11.417,13.235 11.776,12.534 12.181 L 11.260 12.917 11.247 12.791 C 11.233 12.655,11.323 12.240,11.449 11.860 C 11.717 11.050,12.408 10.284,13.220 9.895 C 13.469 9.776,14.432 9.462,16.340 8.878 C 19.225 7.995,20.048 7.772,19.898 7.917 M17.140 14.477 C 18.636 15.341,19.877 16.063,19.898 16.084 C 20.044 16.224,19.160 15.985,16.340 15.123 C 14.043 14.422,13.509 14.245,13.160 14.070 C 12.929 13.954,12.744 13.842,12.749 13.820 C 12.762 13.758,14.292 12.880,14.360 12.894 C 14.393 12.902,15.644 13.614,17.140 14.477 M5.756 15.062 C 6.194 15.165,6.510 15.341,6.820 15.656 C 7.287 16.130,7.497 16.631,7.492 17.260 C 7.482 18.647,6.234 19.703,4.886 19.464 C 3.987 19.305,3.291 18.662,3.061 17.777 C 2.875 17.064,3.117 16.207,3.656 15.669 C 4.206 15.119,5.011 14.886,5.756 15.062 " stroke="none" fill-rule="evenodd" fill="black"></path></svg>