<svg width="24" height="24" viewBox="0 0 24 24" fill="none" xmlns="http://www.w3.org/2000/svg"><path d="M7.900 3.046 C 7.064 3.152,6.213 3.556,5.606 4.134 C 5.314 4.414,2.477 8.165,2.200 8.640 C 1.976 9.024,1.782 9.500,1.651 9.991 C 1.556 10.345,1.547 10.450,1.545 11.160 C 1.543 11.903,1.548 11.957,1.654 12.300 C 1.861 12.971,2.249 13.588,2.739 14.027 L 2.996 14.256 2.828 14.398 C 2.257 14.882,1.825 15.569,1.612 16.331 C 1.558 16.524,1.543 16.734,1.543 17.260 C 1.544 17.887,1.553 17.968,1.655 18.300 C 2.060 19.623,3.092 20.590,4.440 20.909 C 4.722 20.976,5.185 20.980,12.000 20.980 C 18.815 20.980,19.278 20.976,19.560 20.909 C 20.908 20.590,21.940 19.623,22.345 18.300 C 22.447 17.968,22.456 17.887,22.457 17.260 C 22.457 16.740,22.442 16.523,22.390 16.338 C 22.175 15.573,21.740 14.880,21.172 14.398 L 21.004 14.256 21.261 14.027 C 21.751 13.588,22.139 12.971,22.346 12.300 C 22.452 11.957,22.457 11.903,22.455 11.160 C 22.453 10.450,22.444 10.345,22.349 9.991 C 22.218 9.501,22.024 9.024,21.801 8.642 C 21.559 8.228,18.804 4.559,18.488 4.231 C 17.871 3.590,16.978 3.156,16.041 3.041 C 15.622 2.990,8.307 2.994,7.900 3.046 M16.180 4.572 C 16.522 4.670,16.704 4.752,17.000 4.943 C 17.363 5.176,17.526 5.361,18.378 6.500 L 19.125 7.500 15.563 7.510 C 13.603 7.516,10.397 7.516,8.437 7.510 L 4.875 7.500 5.622 6.500 C 6.474 5.361,6.637 5.176,7.000 4.943 C 7.388 4.693,7.691 4.580,8.127 4.522 C 8.266 4.504,10.081 4.492,12.160 4.496 C 15.608 4.502,15.961 4.509,16.180 4.572 M19.276 9.061 C 20.068 9.248,20.754 9.940,20.944 10.745 C 21.033 11.123,21.001 11.646,20.866 12.015 C 20.624 12.680,20.080 13.191,19.380 13.412 L 19.100 13.500 12.000 13.500 C 5.225 13.500,4.889 13.497,4.662 13.427 C 3.928 13.200,3.382 12.695,3.134 12.015 C 2.999 11.646,2.967 11.123,3.056 10.745 C 3.244 9.950,3.929 9.251,4.706 9.063 C 5.069 8.975,18.903 8.974,19.276 9.061 M15.316 10.603 C 15.124 10.718,15.036 10.878,15.010 11.163 C 14.986 11.433,15.065 11.697,15.211 11.828 C 15.523 12.111,16.218 12.030,16.414 11.689 C 16.518 11.506,16.519 11.014,16.414 10.835 C 16.279 10.604,16.151 10.541,15.787 10.529 C 15.512 10.519,15.437 10.531,15.316 10.603 M18.316 10.603 C 18.124 10.718,18.036 10.878,18.010 11.163 C 17.986 11.433,18.065 11.697,18.211 11.828 C 18.523 12.111,19.218 12.030,19.414 11.689 C 19.518 11.506,19.519 11.014,19.414 10.835 C 19.279 10.604,19.151 10.541,18.787 10.529 C 18.512 10.519,18.437 10.531,18.316 10.603 M19.276 15.061 C 20.068 15.248,20.754 15.940,20.944 16.745 C 21.033 17.123,21.001 17.646,20.866 18.015 C 20.624 18.680,20.080 19.191,19.380 19.412 L 19.100 19.500 12.000 19.500 C 5.225 19.500,4.889 19.497,4.662 19.427 C 3.928 19.200,3.382 18.695,3.134 18.015 C 2.999 17.646,2.967 17.123,3.056 16.745 C 3.244 15.950,3.929 15.251,4.706 15.063 C 5.069 14.975,18.903 14.974,19.276 15.061 M15.316 16.603 C 15.124 16.718,15.036 16.878,15.010 17.163 C 14.986 17.433,15.065 17.697,15.211 17.828 C 15.523 18.111,16.218 18.030,16.414 17.689 C 16.518 17.506,16.519 17.014,16.414 16.835 C 16.279 16.604,16.151 16.541,15.787 16.529 C 15.512 16.519,15.437 16.531,15.316 16.603 M18.316 16.603 C 18.124 16.718,18.036 16.878,18.010 17.163 C 17.986 17.433,18.065 17.697,18.211 17.828 C 18.523 18.111,19.218 18.030,19.414 17.689 C 19.518 17.506,19.519 17.014,19.414 16.835 C 19.279 16.604,19.151 16.541,18.787 16.529 C 18.512 16.519,18.437 16.531,18.316 16.603 " stroke="none" fill-rule="evenodd" fill="black"></path></svg>