<svg width="24" height="24" viewBox="0 0 24 24" fill="none" xmlns="http://www.w3.org/2000/svg"><path d="M7.360 3.039 C 6.294 3.185,5.243 3.810,4.601 4.679 C 4.367 4.997,4.118 5.487,4.006 5.851 C 3.900 6.194,1.666 15.696,1.577 16.180 C 1.526 16.458,1.516 16.699,1.530 17.240 C 1.546 17.853,1.562 17.985,1.657 18.300 C 2.052 19.616,3.091 20.590,4.440 20.909 C 4.722 20.976,5.185 20.980,12.000 20.980 C 18.815 20.980,19.278 20.976,19.560 20.909 C 20.909 20.590,21.948 19.616,22.343 18.300 C 22.438 17.985,22.454 17.853,22.470 17.240 C 22.484 16.699,22.474 16.458,22.423 16.180 C 22.336 15.703,20.102 6.199,19.995 5.851 C 19.813 5.258,19.366 4.552,18.896 4.119 C 18.401 3.661,17.713 3.284,17.060 3.114 L 16.700 3.020 12.140 3.015 C 9.632 3.012,7.481 3.023,7.360 3.039 M16.391 4.520 C 17.310 4.640,18.125 5.243,18.485 6.070 C 18.566 6.253,20.367 13.805,20.338 13.835 C 20.330 13.843,20.210 13.805,20.072 13.750 C 19.510 13.528,19.967 13.540,12.000 13.540 C 4.033 13.540,4.490 13.528,3.928 13.750 C 3.790 13.805,3.670 13.843,3.662 13.835 C 3.633 13.805,5.434 6.253,5.515 6.070 C 5.870 5.253,6.700 4.634,7.591 4.520 C 7.936 4.476,16.051 4.476,16.391 4.520 M19.276 15.061 C 20.068 15.248,20.754 15.940,20.944 16.745 C 21.033 17.123,21.001 17.646,20.866 18.015 C 20.624 18.680,20.080 19.191,19.380 19.412 L 19.100 19.500 12.000 19.500 C 5.225 19.500,4.889 19.497,4.662 19.427 C 3.928 19.200,3.382 18.695,3.134 18.015 C 2.999 17.646,2.967 17.123,3.056 16.745 C 3.244 15.950,3.929 15.251,4.706 15.063 C 5.069 14.975,18.903 14.974,19.276 15.061 M15.316 16.603 C 15.124 16.718,15.036 16.878,15.010 17.163 C 14.986 17.433,15.065 17.697,15.211 17.828 C 15.523 18.111,16.218 18.030,16.414 17.689 C 16.518 17.506,16.519 17.014,16.414 16.835 C 16.279 16.604,16.151 16.541,15.787 16.529 C 15.512 16.519,15.437 16.531,15.316 16.603 M18.316 16.603 C 18.124 16.718,18.036 16.878,18.010 17.163 C 17.986 17.433,18.065 17.697,18.211 17.828 C 18.523 18.111,19.218 18.030,19.414 17.689 C 19.518 17.506,19.519 17.014,19.414 16.835 C 19.279 16.604,19.151 16.541,18.787 16.529 C 18.512 16.519,18.437 16.531,18.316 16.603 " stroke="none" fill-rule="evenodd" fill="black"></path></svg>