<svg width="24" height="24" viewBox="0 0 24 24" fill="none" xmlns="http://www.w3.org/2000/svg"><path d="M18.040 1.582 C 17.897 1.612,17.609 1.722,17.400 1.827 C 17.083 1.985,16.960 2.077,16.660 2.378 C 16.254 2.786,16.047 3.110,15.893 3.580 C 15.803 3.855,15.787 3.973,15.784 4.420 C 15.782 4.706,15.794 5.012,15.811 5.100 L 15.843 5.260 11.642 7.593 L 7.442 9.926 7.216 9.742 C 6.700 9.321,6.201 9.107,5.562 9.032 C 4.619 8.922,3.817 9.212,3.119 9.916 C 2.531 10.509,2.270 11.150,2.270 12.000 C 2.270 12.850,2.531 13.491,3.119 14.084 C 3.817 14.788,4.619 15.078,5.564 14.967 C 6.205 14.892,6.737 14.660,7.237 14.238 L 7.436 14.071 11.639 16.406 L 15.843 18.740 15.811 18.900 C 15.794 18.988,15.782 19.294,15.784 19.580 C 15.787 20.027,15.803 20.145,15.893 20.420 C 16.047 20.890,16.254 21.214,16.660 21.622 C 16.961 21.924,17.083 22.014,17.400 22.173 C 17.858 22.402,18.200 22.478,18.764 22.479 C 19.899 22.481,20.849 21.907,21.415 20.877 C 21.635 20.476,21.727 20.072,21.727 19.500 C 21.727 18.928,21.635 18.524,21.415 18.123 C 20.982 17.334,20.311 16.805,19.474 16.594 C 19.019 16.479,18.278 16.503,17.839 16.647 C 17.473 16.767,17.004 17.035,16.758 17.266 L 16.575 17.437 12.377 15.104 L 8.180 12.771 8.199 12.595 C 8.224 12.369,8.224 11.631,8.199 11.405 L 8.180 11.229 12.376 8.897 L 16.573 6.564 16.773 6.744 C 17.043 6.987,17.474 7.233,17.839 7.353 C 18.278 7.497,19.019 7.521,19.474 7.406 C 20.311 7.195,20.982 6.666,21.415 5.877 C 21.635 5.476,21.727 5.072,21.727 4.500 C 21.727 3.928,21.635 3.524,21.415 3.123 C 20.986 2.342,20.314 1.808,19.495 1.599 C 19.127 1.505,18.440 1.497,18.040 1.582 M19.163 3.065 C 19.585 3.190,19.944 3.504,20.133 3.911 C 20.204 4.065,20.220 4.173,20.220 4.500 C 20.220 4.827,20.204 4.935,20.133 5.089 C 19.669 6.092,18.382 6.304,17.646 5.499 C 17.374 5.201,17.266 4.916,17.267 4.500 C 17.269 4.094,17.378 3.798,17.627 3.521 C 18.035 3.067,18.602 2.898,19.163 3.065 M5.726 10.585 C 6.128 10.711,6.427 10.990,6.630 11.427 C 6.721 11.622,6.738 11.715,6.739 12.000 C 6.739 12.299,6.724 12.372,6.613 12.608 C 6.317 13.235,5.686 13.578,5.020 13.474 C 4.530 13.398,4.105 13.074,3.887 12.609 C 3.795 12.411,3.780 12.329,3.780 12.000 C 3.780 11.671,3.795 11.589,3.887 11.391 C 4.222 10.678,4.972 10.349,5.726 10.585 M19.163 18.065 C 19.585 18.190,19.944 18.504,20.133 18.911 C 20.259 19.183,20.259 19.817,20.133 20.089 C 19.669 21.094,18.383 21.305,17.646 20.499 C 17.378 20.206,17.269 19.919,17.267 19.500 C 17.266 19.096,17.373 18.803,17.627 18.521 C 18.032 18.070,18.606 17.899,19.163 18.065 " stroke="none" fill-rule="evenodd" fill="black"></path></svg>