<svg width="24" height="24" viewBox="0 0 24 24" fill="none" xmlns="http://www.w3.org/2000/svg"><path d="M11.817 1.963 C 11.749 1.983,11.515 2.154,11.297 2.344 C 10.166 3.326,9.127 3.972,7.900 4.453 C 6.619 4.956,5.538 5.181,4.140 5.235 C 3.261 5.269,3.139 5.305,2.981 5.575 C 2.878 5.753,2.656 6.505,2.526 7.120 C 2.140 8.951,2.182 11.082,2.640 12.882 C 3.218 15.149,4.457 17.288,6.128 18.903 C 7.501 20.229,9.197 21.254,11.014 21.858 C 11.781 22.112,11.951 22.143,12.230 22.082 C 12.898 21.936,14.003 21.509,14.860 21.066 C 16.603 20.165,18.193 18.795,19.337 17.207 C 20.220 15.983,20.906 14.546,21.300 13.100 C 21.814 11.213,21.878 9.033,21.474 7.120 C 21.369 6.623,21.133 5.781,21.058 5.637 C 20.898 5.327,20.668 5.240,20.007 5.240 C 18.189 5.240,16.147 4.653,14.454 3.645 C 13.973 3.358,13.253 2.823,12.704 2.345 C 12.465 2.137,12.251 1.985,12.164 1.960 C 11.999 1.915,11.983 1.915,11.817 1.963 M12.241 3.918 C 14.134 5.493,16.890 6.574,19.351 6.706 L 19.831 6.732 19.876 6.881 C 19.965 7.179,20.115 7.993,20.181 8.540 C 20.272 9.289,20.244 10.703,20.123 11.453 C 19.821 13.329,19.134 14.969,18.028 16.451 C 16.627 18.330,14.761 19.682,12.550 20.420 L 12.000 20.604 11.450 20.420 C 9.239 19.682,7.373 18.330,5.972 16.451 C 4.866 14.969,4.179 13.329,3.877 11.453 C 3.756 10.703,3.728 9.289,3.819 8.540 C 3.885 7.993,4.035 7.179,4.124 6.881 L 4.169 6.732 4.649 6.706 C 6.855 6.587,9.228 5.742,11.123 4.398 C 11.335 4.248,11.614 4.035,11.744 3.924 C 11.874 3.814,11.985 3.722,11.992 3.722 C 11.998 3.721,12.110 3.809,12.241 3.918 M14.760 9.005 C 14.705 9.027,14.609 9.093,14.546 9.152 C 14.483 9.212,13.693 10.293,12.791 11.555 L 11.150 13.849 10.265 12.969 C 9.778 12.484,9.322 12.059,9.252 12.024 C 8.999 11.898,8.709 11.978,8.452 12.246 C 8.174 12.537,8.144 12.828,8.360 13.137 C 8.493 13.327,10.722 15.549,10.901 15.671 C 11.156 15.844,11.473 15.812,11.714 15.588 C 11.888 15.427,15.694 10.066,15.750 9.903 C 15.828 9.677,15.783 9.504,15.594 9.298 C 15.329 9.011,15.019 8.902,14.760 9.005 " stroke="none" fill-rule="evenodd" fill="black"></path></svg>