<svg width="24" height="24" viewBox="0 0 24 24" fill="none" xmlns="http://www.w3.org/2000/svg"><path d="M11.817 1.963 C 11.749 1.983,11.515 2.154,11.297 2.344 C 10.166 3.326,9.127 3.972,7.900 4.453 C 6.639 4.948,5.521 5.185,4.260 5.224 C 3.474 5.248,3.256 5.286,3.107 5.424 C 2.955 5.565,2.900 5.689,2.745 6.245 C 2.202 8.188,2.114 10.145,2.481 12.142 C 3.011 15.035,4.679 17.817,6.991 19.665 C 7.903 20.393,9.131 21.125,10.134 21.538 C 10.579 21.720,11.466 22.016,11.770 22.082 C 12.049 22.143,12.219 22.112,12.986 21.858 C 14.408 21.386,15.675 20.703,16.920 19.737 C 17.437 19.335,18.362 18.435,18.790 17.916 C 20.867 15.399,21.901 12.272,21.719 9.057 C 21.660 8.007,21.533 7.240,21.255 6.245 C 21.100 5.689,21.045 5.565,20.893 5.424 C 20.744 5.286,20.526 5.248,19.740 5.224 C 18.478 5.185,17.334 4.943,16.100 4.454 C 14.885 3.974,13.895 3.366,12.822 2.444 C 12.234 1.939,12.108 1.878,11.817 1.963 M12.241 3.918 C 14.134 5.493,16.890 6.574,19.351 6.706 L 19.831 6.732 19.876 6.881 C 19.965 7.179,20.115 7.993,20.181 8.540 C 20.272 9.289,20.244 10.703,20.123 11.453 C 19.765 13.675,18.845 15.611,17.351 17.283 C 16.075 18.712,14.343 19.840,12.510 20.435 L 12.000 20.601 11.490 20.435 C 9.657 19.840,7.925 18.712,6.649 17.283 C 5.155 15.611,4.235 13.675,3.877 11.453 C 3.756 10.703,3.728 9.289,3.819 8.540 C 3.885 7.993,4.035 7.179,4.124 6.881 L 4.169 6.732 4.649 6.706 C 6.906 6.585,9.350 5.696,11.256 4.303 C 11.478 4.141,11.732 3.944,11.820 3.866 C 11.908 3.787,11.985 3.723,11.992 3.722 C 11.998 3.721,12.110 3.809,12.241 3.918 M11.787 8.278 C 11.598 8.316,11.444 8.427,11.340 8.604 C 11.263 8.735,11.260 8.812,11.260 10.880 C 11.260 12.948,11.263 13.025,11.340 13.156 C 11.488 13.407,11.602 13.460,12.000 13.460 C 12.398 13.460,12.512 13.407,12.660 13.156 C 12.736 13.026,12.741 12.936,12.753 11.100 C 12.767 8.977,12.756 8.745,12.627 8.554 C 12.469 8.319,12.137 8.210,11.787 8.278 M11.660 15.059 C 11.572 15.092,11.497 15.119,11.493 15.119 C 11.489 15.120,11.445 15.176,11.396 15.245 C 11.222 15.491,11.211 15.966,11.376 16.210 C 11.510 16.410,11.681 16.487,11.993 16.489 C 12.522 16.493,12.740 16.280,12.740 15.760 C 12.740 15.412,12.658 15.230,12.447 15.107 C 12.272 15.005,11.869 14.980,11.660 15.059 " stroke="none" fill-rule="evenodd" fill="black"></path></svg>