<svg width="24" height="24" viewBox="0 0 24 24" fill="none" xmlns="http://www.w3.org/2000/svg"><path d="M2.027 2.279 C 1.667 2.348,1.510 2.591,1.528 3.047 C 1.542 3.392,1.608 3.521,1.844 3.660 C 1.967 3.732,2.066 3.741,2.880 3.754 C 3.834 3.768,3.860 3.773,3.966 3.972 C 3.988 4.012,4.101 4.408,4.219 4.852 C 4.467 5.793,6.515 13.471,6.541 13.560 C 6.554 13.603,6.494 13.641,6.329 13.695 C 4.913 14.159,3.880 15.471,3.773 16.944 C 3.727 17.570,3.851 17.858,4.209 17.956 C 4.338 17.991,6.393 18.000,12.460 17.991 C 20.505 17.980,20.541 17.980,20.679 17.899 C 20.898 17.769,20.980 17.591,20.980 17.240 C 20.980 16.886,20.907 16.732,20.678 16.604 L 20.529 16.520 12.965 16.520 C 5.750 16.520,5.400 16.517,5.400 16.449 C 5.400 16.311,5.703 15.868,5.968 15.618 C 6.274 15.329,6.690 15.110,7.057 15.043 C 7.220 15.014,9.111 15.000,13.030 15.000 C 17.168 15.000,18.815 14.987,18.944 14.955 C 19.204 14.889,19.320 14.727,19.730 13.856 C 20.529 12.157,21.388 10.068,22.064 8.180 C 22.336 7.419,22.378 7.264,22.379 7.033 C 22.381 6.565,22.251 6.487,20.951 6.178 C 16.357 5.084,11.668 4.523,7.093 4.521 C 5.787 4.520,5.684 4.515,5.664 4.450 C 5.653 4.412,5.587 4.174,5.519 3.922 C 5.365 3.349,5.215 3.065,4.917 2.780 C 4.634 2.510,4.279 2.336,3.900 2.282 C 3.582 2.236,2.259 2.234,2.027 2.279 M9.860 6.079 C 13.006 6.256,15.905 6.631,18.840 7.240 C 19.817 7.443,20.597 7.624,20.629 7.656 C 20.707 7.734,19.266 11.321,18.523 12.900 L 18.241 13.500 13.163 13.510 L 8.086 13.520 8.026 13.310 C 7.993 13.195,7.550 11.534,7.041 9.620 C 6.532 7.706,6.105 6.106,6.093 6.064 C 6.071 5.989,6.108 5.988,7.605 6.013 C 8.449 6.027,9.464 6.056,9.860 6.079 M4.772 18.834 C 4.190 19.036,3.808 19.536,3.768 20.150 C 3.737 20.637,3.883 21.000,4.251 21.348 C 4.536 21.617,4.831 21.727,5.270 21.728 C 5.553 21.728,5.635 21.711,5.858 21.607 C 6.186 21.453,6.453 21.186,6.607 20.858 C 6.711 20.635,6.728 20.553,6.728 20.270 C 6.727 19.831,6.617 19.536,6.348 19.251 C 6.022 18.906,5.680 18.759,5.212 18.761 C 5.085 18.762,4.886 18.795,4.772 18.834 M17.571 18.816 C 17.170 18.947,16.839 19.234,16.640 19.624 C 16.552 19.796,16.540 19.871,16.540 20.240 C 16.540 20.608,16.553 20.687,16.643 20.880 C 16.923 21.477,17.585 21.822,18.244 21.716 C 18.719 21.640,19.154 21.313,19.357 20.880 C 19.447 20.687,19.460 20.608,19.460 20.240 C 19.460 19.871,19.448 19.796,19.360 19.624 C 19.204 19.316,18.947 19.058,18.654 18.914 C 18.436 18.807,18.338 18.783,18.066 18.773 C 17.865 18.765,17.675 18.782,17.571 18.816 " stroke="none" fill-rule="evenodd" fill="black"></path></svg>