<svg width="24" height="24" viewBox="0 0 24 24" fill="none" xmlns="http://www.w3.org/2000/svg"><path d="M11.277 1.558 C 10.640 1.674,9.812 2.020,9.360 2.358 C 8.768 2.801,8.296 3.368,7.977 4.020 C 7.640 4.710,7.557 5.070,7.526 5.980 L 7.500 6.740 6.300 6.762 C 5.623 6.775,5.048 6.803,4.980 6.827 C 4.395 7.032,3.938 7.467,3.755 7.991 C 3.693 8.169,3.534 9.562,3.037 14.260 C 2.686 17.582,2.397 20.448,2.396 20.628 C 2.392 21.032,2.469 21.309,2.672 21.622 C 2.870 21.929,3.153 22.179,3.480 22.336 L 3.740 22.460 12.000 22.460 L 20.260 22.460 20.520 22.336 C 20.847 22.179,21.130 21.929,21.328 21.622 C 21.527 21.316,21.607 21.034,21.605 20.649 C 21.604 20.333,20.394 8.678,20.321 8.280 C 20.201 7.627,19.697 7.064,19.020 6.827 C 18.952 6.803,18.377 6.775,17.700 6.762 L 16.500 6.740 16.475 6.000 C 16.445 5.099,16.352 4.688,16.024 4.020 C 15.778 3.520,15.531 3.179,15.135 2.791 C 14.742 2.407,14.480 2.223,13.980 1.978 C 13.302 1.646,12.919 1.555,12.120 1.538 C 11.757 1.531,11.378 1.540,11.277 1.558 M12.860 3.121 C 13.816 3.418,14.575 4.176,14.881 5.140 C 14.953 5.366,14.974 5.548,14.990 6.090 L 15.010 6.760 12.000 6.760 L 8.990 6.760 9.010 6.090 C 9.026 5.548,9.047 5.366,9.119 5.140 C 9.462 4.060,10.382 3.238,11.471 3.039 C 11.797 2.979,12.546 3.023,12.860 3.121 M7.511 8.940 L 7.522 9.620 7.364 9.830 C 6.953 10.376,7.099 11.092,7.698 11.472 C 7.925 11.616,8.426 11.646,8.684 11.531 C 9.091 11.350,9.320 11.032,9.350 10.607 C 9.374 10.270,9.315 10.052,9.139 9.821 L 9.000 9.639 9.000 8.940 L 9.000 8.240 12.000 8.240 L 15.000 8.240 15.000 8.940 L 15.000 9.639 14.861 9.821 C 14.685 10.052,14.626 10.270,14.650 10.607 C 14.680 11.032,14.909 11.350,15.316 11.531 C 15.574 11.646,16.075 11.616,16.302 11.472 C 16.901 11.092,17.047 10.376,16.636 9.830 L 16.478 9.620 16.489 8.940 L 16.500 8.260 17.567 8.260 C 18.633 8.260,18.634 8.260,18.734 8.354 C 18.789 8.406,18.845 8.514,18.858 8.594 C 18.898 8.838,20.120 20.508,20.120 20.642 C 20.120 20.726,20.082 20.804,20.003 20.883 L 19.886 21.000 12.000 21.000 L 4.114 21.000 3.997 20.883 C 3.918 20.804,3.880 20.726,3.880 20.641 C 3.880 20.512,5.047 9.346,5.119 8.783 C 5.161 8.461,5.222 8.343,5.380 8.277 C 5.424 8.259,5.919 8.248,6.480 8.252 L 7.500 8.260 7.511 8.940 " stroke="none" fill-rule="evenodd" fill="black"></path></svg>