<svg width="24" height="24" viewBox="0 0 24 24" fill="none" xmlns="http://www.w3.org/2000/svg"><path d="M2.729 2.285 C 2.520 2.388,2.294 2.645,2.233 2.848 C 2.126 3.204,1.866 2.918,6.848 7.920 C 12.259 13.354,10.646 11.740,16.080 17.152 C 21.111 22.163,20.779 21.862,21.165 21.759 C 21.386 21.699,21.699 21.386,21.759 21.165 C 21.851 20.823,21.804 20.753,20.827 19.769 C 20.157 19.095,19.951 18.865,19.981 18.824 C 20.002 18.794,20.121 18.646,20.243 18.495 C 21.136 17.397,21.845 15.937,22.201 14.460 C 22.417 13.564,22.460 13.161,22.460 12.000 C 22.460 10.839,22.417 10.436,22.201 9.540 C 21.776 7.777,20.965 6.261,19.702 4.868 C 19.217 4.333,18.953 4.220,18.605 4.398 C 18.436 4.484,18.215 4.716,18.157 4.867 C 18.107 4.999,18.110 5.267,18.163 5.366 C 18.187 5.410,18.378 5.638,18.589 5.873 C 19.285 6.649,19.714 7.281,20.115 8.120 C 21.291 10.580,21.291 13.420,20.115 15.880 C 19.789 16.562,19.301 17.331,18.966 17.691 L 18.863 17.802 18.336 17.276 L 17.808 16.749 18.045 16.430 C 18.982 15.166,19.480 13.629,19.480 12.000 C 19.480 10.129,18.851 8.461,17.603 7.023 C 17.439 6.835,17.237 6.634,17.154 6.576 C 16.843 6.360,16.484 6.423,16.204 6.742 C 16.044 6.924,16.000 7.036,16.000 7.260 C 16.000 7.451,16.118 7.639,16.478 8.020 C 17.403 8.998,17.999 10.557,17.999 12.000 C 17.999 13.191,17.582 14.516,16.924 15.418 L 16.736 15.677 16.204 15.144 L 15.673 14.612 15.794 14.416 C 16.014 14.058,16.237 13.545,16.349 13.140 C 16.451 12.770,16.459 12.685,16.459 12.000 C 16.459 11.318,16.451 11.229,16.350 10.860 C 16.226 10.407,15.886 9.687,15.641 9.360 C 15.403 9.042,15.058 8.698,14.902 8.624 C 14.631 8.495,14.328 8.583,14.084 8.862 C 13.925 9.042,13.880 9.156,13.880 9.373 C 13.880 9.567,13.941 9.673,14.276 10.060 C 14.560 10.387,14.755 10.740,14.886 11.160 C 14.964 11.412,14.979 11.547,14.979 12.000 C 14.979 12.583,14.910 12.906,14.692 13.335 L 14.593 13.532 13.856 12.796 C 13.220 12.160,13.120 12.044,13.120 11.938 C 13.120 11.429,12.572 10.880,12.063 10.880 C 11.954 10.880,11.479 10.418,7.660 6.602 C 4.637 3.579,3.336 2.305,3.231 2.262 C 3.033 2.179,2.933 2.184,2.729 2.285 M2.916 6.891 C 2.682 7.048,2.189 8.140,1.906 9.129 C 1.466 10.660,1.397 12.527,1.721 14.104 C 2.107 15.986,2.989 17.706,4.294 19.120 C 4.684 19.542,4.879 19.680,5.088 19.680 C 5.484 19.680,5.880 19.274,5.880 18.868 C 5.880 18.665,5.806 18.550,5.375 18.079 C 4.258 16.859,3.488 15.348,3.178 13.769 C 2.799 11.841,3.031 9.979,3.880 8.119 C 4.105 7.627,4.137 7.387,4.004 7.186 C 3.779 6.845,3.213 6.692,2.916 6.891 M5.216 9.154 C 5.051 9.257,4.949 9.433,4.826 9.826 C 4.595 10.563,4.540 10.981,4.540 12.000 C 4.540 12.818,4.552 12.998,4.631 13.387 C 4.838 14.411,5.316 15.547,5.853 16.293 C 6.184 16.751,6.661 17.294,6.849 17.425 C 7.156 17.640,7.517 17.576,7.796 17.258 C 7.955 17.077,8.000 16.964,8.000 16.743 C 8.000 16.548,7.931 16.439,7.503 15.960 C 7.205 15.626,6.813 15.063,6.642 14.723 C 6.457 14.355,6.254 13.769,6.135 13.260 C 6.034 12.826,6.023 12.708,6.022 12.020 C 6.020 11.215,6.053 10.968,6.263 10.242 C 6.386 9.815,6.387 9.613,6.270 9.438 C 6.074 9.147,5.481 8.987,5.216 9.154 M8.156 11.803 C 7.638 11.884,7.478 12.160,7.582 12.796 C 7.720 13.646,8.126 14.451,8.737 15.084 C 9.103 15.463,9.364 15.529,9.687 15.324 C 9.935 15.167,10.085 14.960,10.110 14.742 C 10.140 14.473,10.105 14.394,9.779 14.012 C 9.393 13.560,9.189 13.154,9.060 12.581 C 9.006 12.339,8.929 12.097,8.888 12.043 C 8.721 11.819,8.505 11.748,8.156 11.803 " stroke="none" fill-rule="evenodd" fill="black"></path></svg>