<svg width="24" height="24" viewBox="0 0 24 24" fill="none" xmlns="http://www.w3.org/2000/svg"><path d="M4.757 4.438 C 4.455 4.640,3.740 5.470,3.291 6.140 C 2.424 7.432,1.854 8.903,1.614 10.460 C 1.510 11.136,1.509 12.858,1.612 13.520 C 1.859 15.114,2.418 16.558,3.292 17.859 C 3.592 18.307,3.754 18.513,4.210 19.029 C 4.632 19.505,4.812 19.642,5.052 19.669 C 5.444 19.713,5.880 19.297,5.880 18.879 C 5.880 18.661,5.857 18.624,5.411 18.127 C 4.712 17.347,4.287 16.720,3.879 15.868 C 2.712 13.427,2.712 10.573,3.879 8.132 C 4.287 7.280,4.712 6.653,5.411 5.873 C 5.856 5.377,5.880 5.338,5.880 5.125 C 5.880 4.916,5.833 4.801,5.676 4.622 C 5.398 4.305,5.058 4.237,4.757 4.438 M18.596 4.400 C 18.433 4.486,18.213 4.720,18.157 4.867 C 18.107 4.999,18.110 5.267,18.163 5.366 C 18.187 5.410,18.378 5.638,18.589 5.873 C 19.285 6.649,19.714 7.281,20.115 8.120 C 21.291 10.580,21.291 13.420,20.115 15.880 C 19.714 16.719,19.285 17.351,18.589 18.127 C 18.144 18.623,18.120 18.662,18.120 18.875 C 18.120 19.084,18.167 19.199,18.324 19.378 C 18.604 19.697,18.963 19.760,19.275 19.544 C 19.548 19.354,20.286 18.488,20.711 17.857 C 21.574 16.576,22.142 15.105,22.388 13.520 C 22.490 12.866,22.490 11.134,22.388 10.480 C 22.055 8.330,21.176 6.494,19.702 4.868 C 19.217 4.333,18.943 4.216,18.596 4.400 M6.967 6.501 C 6.729 6.604,6.076 7.349,5.670 7.980 C 5.133 8.815,4.742 9.883,4.581 10.953 C 4.502 11.481,4.502 12.519,4.581 13.047 C 4.806 14.545,5.398 15.826,6.397 16.977 C 6.764 17.399,6.940 17.526,7.191 17.549 C 7.349 17.563,7.410 17.547,7.565 17.447 C 7.840 17.270,7.970 17.078,7.992 16.817 C 8.013 16.562,7.951 16.446,7.569 16.033 C 6.579 14.961,6.001 13.476,6.001 12.000 C 6.001 10.534,6.573 9.054,7.554 7.981 C 7.917 7.584,8.000 7.449,8.000 7.257 C 8.000 7.036,7.955 6.923,7.796 6.742 C 7.553 6.465,7.251 6.377,6.967 6.501 M16.476 6.517 C 16.312 6.607,16.093 6.842,16.037 6.987 C 16.017 7.041,16.000 7.162,16.000 7.257 C 16.000 7.449,16.083 7.584,16.446 7.981 C 17.786 9.447,18.315 11.590,17.807 13.500 C 17.561 14.421,17.051 15.375,16.478 15.980 C 16.118 16.361,16.000 16.549,16.000 16.740 C 16.000 16.964,16.044 17.076,16.204 17.258 C 16.484 17.577,16.843 17.640,17.154 17.424 C 17.522 17.169,18.259 16.201,18.632 15.483 C 19.210 14.368,19.480 13.261,19.480 12.000 C 19.480 10.129,18.851 8.461,17.603 7.023 C 17.439 6.835,17.237 6.633,17.152 6.575 C 16.948 6.433,16.673 6.410,16.476 6.517 M9.097 8.616 C 8.957 8.678,8.599 9.038,8.358 9.360 C 8.114 9.688,7.774 10.407,7.650 10.860 C 7.549 11.229,7.541 11.318,7.541 12.000 C 7.541 12.682,7.549 12.771,7.650 13.140 C 7.774 13.593,8.114 14.313,8.359 14.640 C 8.597 14.958,8.942 15.302,9.098 15.376 C 9.299 15.472,9.479 15.456,9.687 15.324 C 9.935 15.167,10.085 14.960,10.110 14.742 C 10.140 14.473,10.105 14.394,9.780 14.012 C 9.441 13.613,9.250 13.276,9.114 12.840 C 8.979 12.406,8.979 11.594,9.114 11.160 C 9.245 10.740,9.440 10.387,9.724 10.060 C 10.059 9.673,10.120 9.567,10.120 9.373 C 10.120 9.156,10.075 9.042,9.916 8.862 C 9.677 8.589,9.371 8.497,9.097 8.616 M14.356 8.640 C 14.193 8.726,13.973 8.960,13.917 9.107 C 13.856 9.269,13.874 9.531,13.957 9.660 C 13.999 9.726,14.143 9.906,14.276 10.060 C 14.559 10.386,14.755 10.739,14.886 11.160 C 14.967 11.418,14.980 11.539,14.977 12.020 C 14.974 12.508,14.961 12.620,14.872 12.887 C 14.734 13.303,14.539 13.636,14.203 14.033 C 13.895 14.394,13.860 14.475,13.890 14.742 C 13.915 14.960,14.065 15.167,14.313 15.324 C 14.521 15.456,14.701 15.472,14.902 15.376 C 15.058 15.302,15.403 14.958,15.641 14.640 C 15.886 14.313,16.226 13.593,16.350 13.140 C 16.451 12.771,16.459 12.682,16.459 12.000 C 16.459 11.318,16.451 11.229,16.350 10.860 C 16.226 10.407,15.886 9.687,15.641 9.360 C 15.403 9.042,15.058 8.698,14.902 8.624 C 14.726 8.540,14.534 8.546,14.356 8.640 M11.601 10.949 C 11.354 11.037,11.033 11.365,10.947 11.617 C 10.800 12.049,10.896 12.461,11.217 12.783 C 11.672 13.237,12.328 13.237,12.783 12.783 C 13.237 12.328,13.237 11.672,12.783 11.217 C 12.462 10.897,12.028 10.799,11.601 10.949 " stroke="none" fill-rule="evenodd" fill="black"></path></svg>