<svg width="24" height="24" viewBox="0 0 24 24" fill="none" xmlns="http://www.w3.org/2000/svg"><path d="M17.680 1.523 C 17.423 1.631,17.336 1.797,17.159 2.520 C 16.908 3.546,16.750 3.882,16.316 4.316 C 15.879 4.753,15.577 4.894,14.468 5.176 C 14.165 5.254,13.863 5.355,13.797 5.402 C 13.616 5.531,13.507 5.777,13.503 6.067 C 13.497 6.502,13.638 6.612,14.465 6.823 C 15.578 7.107,15.879 7.246,16.316 7.684 C 16.753 8.121,16.894 8.423,17.176 9.532 C 17.254 9.835,17.355 10.137,17.402 10.203 C 17.531 10.384,17.777 10.493,18.067 10.497 C 18.502 10.503,18.612 10.362,18.823 9.535 C 19.107 8.422,19.246 8.121,19.684 7.684 C 20.121 7.247,20.423 7.106,21.532 6.824 C 21.835 6.746,22.137 6.645,22.203 6.598 C 22.384 6.469,22.493 6.223,22.497 5.933 C 22.503 5.498,22.362 5.388,21.535 5.177 C 20.422 4.893,20.121 4.754,19.684 4.316 C 19.247 3.879,19.106 3.577,18.824 2.468 C 18.670 1.865,18.591 1.718,18.360 1.600 C 18.174 1.505,17.818 1.465,17.680 1.523 M8.660 4.534 C 8.510 4.603,8.420 4.703,8.344 4.885 C 8.311 4.962,8.103 5.664,7.880 6.443 C 7.458 7.918,7.341 8.284,7.195 8.570 C 6.866 9.217,6.214 9.868,5.562 10.199 C 5.287 10.339,5.052 10.414,3.428 10.882 C 2.550 11.135,1.866 11.353,1.797 11.402 C 1.507 11.608,1.400 12.160,1.596 12.435 C 1.649 12.509,1.766 12.603,1.856 12.642 C 1.946 12.682,2.659 12.896,3.440 13.118 C 4.951 13.548,5.223 13.636,5.540 13.792 C 6.204 14.121,6.860 14.772,7.199 15.438 C 7.339 15.713,7.414 15.948,7.882 17.572 C 8.135 18.450,8.353 19.134,8.402 19.203 C 8.533 19.387,8.778 19.495,9.067 19.498 C 9.343 19.500,9.485 19.425,9.610 19.212 C 9.649 19.146,9.878 18.401,10.121 17.556 C 10.363 16.711,10.607 15.900,10.662 15.754 C 11.011 14.842,11.844 14.010,12.759 13.660 C 12.903 13.606,13.709 13.363,14.552 13.122 C 15.448 12.865,16.133 12.647,16.203 12.598 C 16.386 12.467,16.496 12.222,16.498 11.937 C 16.500 11.732,16.483 11.671,16.390 11.550 C 16.250 11.366,16.187 11.343,14.422 10.840 C 13.631 10.614,12.860 10.380,12.709 10.318 C 11.799 9.948,11.005 9.144,10.662 8.246 C 10.607 8.100,10.363 7.291,10.122 6.448 C 9.865 5.552,9.647 4.867,9.598 4.797 C 9.425 4.554,8.922 4.413,8.660 4.534 M18.182 4.865 C 18.381 5.154,18.846 5.619,19.135 5.818 C 19.259 5.903,19.360 5.985,19.360 6.000 C 19.360 6.015,19.259 6.097,19.135 6.182 C 18.846 6.381,18.381 6.846,18.182 7.135 C 18.097 7.259,18.015 7.360,18.000 7.360 C 17.985 7.360,17.903 7.259,17.818 7.135 C 17.619 6.846,17.154 6.381,16.865 6.182 C 16.741 6.097,16.640 6.015,16.640 6.000 C 16.640 5.985,16.741 5.903,16.865 5.818 C 17.154 5.619,17.619 5.154,17.818 4.865 C 17.903 4.741,17.985 4.640,18.000 4.640 C 18.015 4.640,18.097 4.741,18.182 4.865 M9.139 8.430 C 9.385 9.234,9.810 9.930,10.440 10.560 C 11.070 11.190,11.766 11.615,12.570 11.861 C 12.784 11.926,12.959 11.989,12.959 12.000 C 12.959 12.011,12.784 12.074,12.570 12.139 C 11.766 12.385,11.070 12.810,10.440 13.440 C 9.800 14.080,9.392 14.751,9.134 15.589 C 9.071 15.793,9.011 15.959,9.000 15.959 C 8.989 15.959,8.926 15.784,8.861 15.570 C 8.615 14.766,8.190 14.070,7.560 13.440 C 6.930 12.810,6.234 12.385,5.430 12.139 C 5.216 12.074,5.041 12.011,5.041 12.000 C 5.041 11.989,5.216 11.926,5.430 11.861 C 6.234 11.615,6.930 11.190,7.560 10.560 C 8.190 9.930,8.615 9.234,8.861 8.430 C 8.926 8.216,8.989 8.041,9.000 8.041 C 9.011 8.041,9.074 8.216,9.139 8.430 M16.091 15.079 C 15.923 15.181,15.817 15.402,15.560 16.180 C 15.309 16.942,15.257 17.052,15.045 17.270 C 14.830 17.491,14.667 17.570,13.851 17.843 C 13.471 17.970,13.108 18.111,13.044 18.157 C 12.776 18.348,12.651 18.914,12.825 19.149 C 12.964 19.337,13.127 19.418,13.846 19.659 C 14.659 19.932,14.791 19.993,15.017 20.201 C 15.229 20.397,15.337 20.621,15.597 21.408 C 15.873 22.239,15.975 22.384,16.362 22.485 C 16.624 22.553,16.826 22.503,17.002 22.327 C 17.126 22.201,17.181 22.078,17.379 21.480 C 17.671 20.596,17.760 20.407,17.977 20.207 C 18.210 19.993,18.337 19.933,19.155 19.659 C 19.565 19.522,19.899 19.385,19.967 19.328 C 20.144 19.179,20.248 18.941,20.251 18.682 C 20.255 18.265,20.116 18.159,19.140 17.839 C 18.369 17.586,18.167 17.489,17.955 17.271 C 17.741 17.049,17.707 16.977,17.434 16.163 C 17.306 15.779,17.157 15.399,17.103 15.318 C 16.909 15.025,16.384 14.901,16.091 15.079 M16.937 18.342 C 17.093 18.497,17.263 18.651,17.316 18.684 L 17.411 18.744 17.155 18.948 C 17.015 19.060,16.811 19.261,16.703 19.396 C 16.596 19.530,16.504 19.640,16.500 19.640 C 16.496 19.640,16.404 19.530,16.297 19.396 C 16.189 19.261,15.985 19.060,15.845 18.948 L 15.589 18.744 15.684 18.683 C 15.842 18.581,16.266 18.164,16.385 17.993 L 16.496 17.833 16.575 17.946 C 16.619 18.009,16.782 18.187,16.937 18.342 " stroke="none" fill-rule="evenodd" fill="black"></path></svg>