<svg width="24" height="24" viewBox="0 0 24 24" fill="none" xmlns="http://www.w3.org/2000/svg"><path d="M11.556 2.633 C 11.433 2.674,11.253 2.763,11.156 2.831 C 11.059 2.899,9.954 3.981,8.700 5.237 L 6.420 7.520 5.257 7.520 C 3.945 7.520,3.714 7.554,3.188 7.820 C 2.417 8.212,1.998 8.770,1.782 9.692 C 1.576 10.570,1.540 10.916,1.540 12.000 C 1.540 13.084,1.576 13.430,1.782 14.308 C 1.998 15.230,2.417 15.788,3.188 16.180 C 3.714 16.446,3.945 16.480,5.256 16.480 L 6.418 16.480 8.779 18.834 C 10.562 20.612,11.185 21.210,11.325 21.275 C 12.081 21.630,12.930 21.357,13.323 20.633 L 13.460 20.380 13.460 12.000 L 13.460 3.620 13.324 3.369 C 13.249 3.231,13.116 3.054,13.029 2.975 C 12.642 2.625,12.018 2.480,11.556 2.633 M12.000 12.010 L 12.000 19.940 9.590 17.534 C 8.264 16.211,7.135 15.104,7.080 15.074 C 7.003 15.033,6.647 15.015,5.560 15.000 L 4.140 14.980 3.920 14.876 C 3.691 14.768,3.472 14.574,3.379 14.397 C 3.307 14.259,3.179 13.749,3.094 13.260 C 2.996 12.699,2.996 11.301,3.094 10.740 C 3.179 10.251,3.307 9.741,3.379 9.603 C 3.472 9.426,3.691 9.232,3.920 9.124 L 4.140 9.020 5.560 9.000 C 6.793 8.983,6.996 8.971,7.100 8.913 C 7.166 8.876,8.291 7.773,9.600 6.463 C 10.909 5.152,11.984 4.080,11.990 4.080 C 11.995 4.080,12.000 7.648,12.000 12.010 M16.913 9.076 C 16.515 9.328,16.370 9.711,16.545 10.050 C 16.581 10.121,17.017 10.590,17.513 11.090 L 18.415 12.000 17.513 12.910 C 17.017 13.410,16.581 13.880,16.543 13.953 C 16.365 14.299,16.529 14.701,16.946 14.946 C 17.187 15.087,17.404 15.063,17.668 14.868 C 17.773 14.789,18.228 14.355,18.679 13.903 L 19.497 13.082 20.419 13.993 C 20.936 14.505,21.404 14.934,21.486 14.972 C 21.566 15.010,21.693 15.040,21.768 15.040 C 21.938 15.040,22.230 14.860,22.382 14.661 C 22.527 14.471,22.561 14.156,22.459 13.957 C 22.420 13.881,21.983 13.410,21.487 12.910 L 20.585 12.000 21.487 11.090 C 21.983 10.590,22.420 10.119,22.459 10.043 C 22.509 9.946,22.524 9.846,22.511 9.696 C 22.490 9.443,22.357 9.248,22.085 9.073 C 21.930 8.973,21.869 8.957,21.711 8.971 C 21.455 8.994,21.278 9.138,20.302 10.117 L 19.504 10.917 18.582 10.007 C 18.071 9.502,17.595 9.066,17.514 9.028 C 17.300 8.928,17.123 8.942,16.913 9.076 " stroke="none" fill-rule="evenodd" fill="black"></path></svg>