<svg width="24" height="24" viewBox="0 0 24 24" fill="none" xmlns="http://www.w3.org/2000/svg"><path d="M11.556 2.636 C 11.433 2.675,11.253 2.763,11.156 2.831 C 11.059 2.899,9.954 3.981,8.700 5.237 L 6.420 7.520 5.257 7.520 C 3.945 7.520,3.714 7.554,3.188 7.820 C 2.417 8.212,1.998 8.770,1.782 9.692 C 1.576 10.570,1.540 10.916,1.540 12.000 C 1.540 13.084,1.576 13.430,1.782 14.308 C 1.998 15.230,2.417 15.788,3.188 16.180 C 3.714 16.446,3.945 16.480,5.257 16.480 L 6.420 16.480 8.720 18.781 C 9.985 20.047,11.101 21.135,11.200 21.198 C 11.627 21.472,12.151 21.503,12.625 21.283 C 12.948 21.132,13.158 20.937,13.324 20.631 L 13.460 20.380 13.460 12.000 L 13.460 3.620 13.350 3.411 C 13.131 2.997,12.808 2.733,12.381 2.622 C 12.076 2.542,11.836 2.546,11.556 2.636 M12.000 12.010 L 12.000 19.940 9.590 17.534 C 8.264 16.211,7.135 15.104,7.080 15.074 C 7.003 15.033,6.647 15.015,5.560 15.000 L 4.140 14.980 3.920 14.876 C 3.691 14.768,3.472 14.574,3.379 14.397 C 3.307 14.259,3.179 13.749,3.094 13.260 C 2.996 12.699,2.996 11.301,3.094 10.740 C 3.179 10.251,3.307 9.741,3.379 9.603 C 3.472 9.426,3.691 9.232,3.920 9.124 L 4.140 9.020 5.560 9.000 C 6.793 8.983,6.996 8.971,7.100 8.913 C 7.166 8.876,8.291 7.773,9.600 6.463 C 10.909 5.152,11.984 4.080,11.990 4.080 C 11.995 4.080,12.000 7.648,12.000 12.010 M18.880 4.904 C 18.588 5.030,18.320 5.387,18.320 5.650 C 18.320 5.820,18.448 6.011,18.880 6.489 C 19.925 7.645,20.604 9.046,20.886 10.625 C 21.018 11.368,21.018 12.632,20.886 13.375 C 20.604 14.954,19.925 16.355,18.880 17.511 C 18.448 17.989,18.320 18.180,18.320 18.350 C 18.320 18.639,18.642 19.029,18.958 19.124 C 19.226 19.205,19.406 19.125,19.761 18.766 C 20.963 17.551,21.901 15.802,22.275 14.074 C 22.549 12.808,22.549 11.192,22.275 9.926 C 21.906 8.225,21.027 6.568,19.807 5.273 C 19.550 5.000,19.293 4.839,19.117 4.842 C 19.064 4.842,18.957 4.870,18.880 4.904 M16.331 7.520 C 16.031 7.589,15.718 7.938,15.690 8.235 C 15.666 8.477,15.718 8.578,16.057 8.957 C 16.845 9.835,17.240 10.852,17.240 12.000 C 17.240 13.148,16.845 14.165,16.057 15.043 C 15.717 15.423,15.666 15.522,15.690 15.768 C 15.723 16.118,16.114 16.487,16.450 16.487 C 16.691 16.487,16.814 16.417,17.102 16.114 C 18.060 15.107,18.613 13.855,18.717 12.454 C 18.845 10.744,18.267 9.111,17.102 7.886 C 16.776 7.544,16.597 7.459,16.331 7.520 " stroke="none" fill-rule="evenodd" fill="black"></path></svg>