<svg width="24" height="24" viewBox="0 0 24 24" fill="none" xmlns="http://www.w3.org/2000/svg"><path d="M5.499 3.042 C 4.374 3.235,3.426 4.083,3.112 5.178 L 3.020 5.500 3.020 10.140 L 3.020 14.780 3.114 15.080 C 3.372 15.907,3.920 16.557,4.683 16.941 C 5.163 17.183,5.317 17.209,6.460 17.236 L 7.500 17.260 7.526 17.940 C 7.554 18.680,7.582 18.833,7.760 19.226 C 8.064 19.896,8.595 20.420,9.293 20.739 C 9.845 20.991,9.621 20.980,14.260 20.980 L 18.500 20.980 18.822 20.888 C 19.796 20.609,20.609 19.796,20.888 18.822 L 20.980 18.500 20.980 14.260 C 20.980 9.615,20.991 9.846,20.736 9.286 C 20.419 8.592,19.894 8.063,19.220 7.757 C 18.833 7.582,18.678 7.554,17.940 7.526 L 17.260 7.500 17.236 6.460 C 17.208 5.296,17.183 5.152,16.917 4.640 C 16.539 3.911,15.915 3.387,15.100 3.114 L 14.820 3.020 10.260 3.014 C 7.752 3.011,5.609 3.024,5.499 3.042 M14.430 4.518 C 15.095 4.614,15.593 5.087,15.718 5.741 C 15.746 5.885,15.759 6.282,15.752 6.740 L 15.740 7.500 12.800 7.520 C 9.887 7.541,9.858 7.542,9.600 7.630 C 8.676 7.948,7.948 8.676,7.630 9.600 C 7.542 9.858,7.541 9.887,7.520 12.800 L 7.500 15.740 6.740 15.752 C 6.282 15.759,5.885 15.746,5.741 15.718 C 5.087 15.593,4.614 15.095,4.518 14.430 C 4.471 14.104,4.471 6.136,4.518 5.810 C 4.614 5.143,5.129 4.615,5.774 4.520 C 6.070 4.477,14.131 4.475,14.430 4.518 M18.512 9.086 C 18.908 9.238,19.238 9.571,19.407 9.990 L 19.500 10.220 19.500 14.260 L 19.500 18.300 19.395 18.548 C 19.338 18.685,19.239 18.856,19.175 18.929 C 18.971 19.163,18.802 19.288,18.548 19.395 L 18.300 19.500 14.260 19.500 L 10.220 19.500 9.990 19.407 C 9.696 19.288,9.407 19.060,9.248 18.820 C 8.987 18.426,8.997 18.620,9.009 14.171 L 9.020 10.140 9.132 9.900 C 9.260 9.625,9.546 9.312,9.780 9.190 C 10.147 8.999,10.020 9.004,14.300 9.012 C 17.948 9.019,18.357 9.026,18.512 9.086 " stroke="none" fill-rule="evenodd" fill="black"></path></svg>