<svg width="24" height="24" viewBox="0 0 24 24" fill="none" xmlns="http://www.w3.org/2000/svg"><path d="M11.854 1.520 C 11.703 1.554,1.910 6.820,1.755 6.951 C 1.602 7.079,1.480 7.352,1.480 7.567 C 1.480 7.927,1.530 7.964,3.272 8.900 C 4.132 9.362,4.823 9.751,4.808 9.765 C 4.793 9.779,4.105 10.153,3.280 10.597 C 2.386 11.077,1.725 11.457,1.644 11.537 C 1.535 11.646,1.505 11.712,1.489 11.875 C 1.464 12.142,1.613 12.465,1.830 12.610 C 1.913 12.665,2.610 13.047,3.380 13.460 C 4.150 13.872,4.793 14.221,4.808 14.235 C 4.823 14.249,4.168 14.619,3.351 15.058 C 2.535 15.497,1.817 15.898,1.756 15.949 C 1.602 16.079,1.480 16.352,1.480 16.567 C 1.480 16.958,1.183 16.778,6.753 19.775 C 11.525 22.342,11.809 22.489,12.000 22.489 C 12.191 22.489,12.471 22.344,17.169 19.815 C 19.901 18.344,22.185 17.100,22.245 17.050 C 22.398 16.921,22.520 16.648,22.520 16.433 C 22.520 16.073,22.470 16.036,20.728 15.100 C 19.868 14.638,19.177 14.249,19.192 14.235 C 19.207 14.221,19.850 13.872,20.620 13.460 C 21.390 13.047,22.087 12.665,22.169 12.611 C 22.352 12.488,22.520 12.168,22.520 11.942 C 22.520 11.750,22.417 11.566,22.233 11.431 C 22.160 11.377,21.452 10.986,20.660 10.562 C 19.868 10.138,19.207 9.779,19.192 9.765 C 19.177 9.751,19.832 9.381,20.649 8.942 C 21.465 8.503,22.183 8.102,22.244 8.051 C 22.398 7.921,22.520 7.648,22.520 7.433 C 22.520 7.042,22.817 7.222,17.256 4.234 C 14.486 2.746,12.166 1.520,12.100 1.510 C 12.034 1.500,11.923 1.504,11.854 1.520 M15.989 5.245 C 18.162 6.414,19.990 7.401,20.051 7.438 L 20.163 7.506 18.851 8.211 C 18.130 8.599,17.468 8.946,17.380 8.982 C 17.292 9.018,17.193 9.072,17.160 9.101 C 17.082 9.170,12.050 11.880,12.000 11.880 C 11.950 11.880,6.918 9.170,6.840 9.101 C 6.807 9.072,6.708 9.018,6.620 8.982 C 6.532 8.946,5.870 8.599,5.148 8.211 C 4.058 7.624,3.849 7.498,3.908 7.463 C 4.295 7.238,11.952 3.125,11.989 3.123 C 12.016 3.121,13.816 4.076,15.989 5.245 M9.135 12.055 C 11.630 13.398,11.812 13.489,12.000 13.489 C 12.189 13.489,12.372 13.397,14.886 12.044 L 17.570 10.599 18.845 11.284 C 19.546 11.661,20.120 11.983,20.120 12.000 C 20.120 12.036,17.512 13.446,17.368 13.487 C 17.316 13.503,17.180 13.577,17.067 13.653 C 16.953 13.729,15.766 14.379,14.430 15.097 L 12.000 16.402 9.570 15.097 C 8.233 14.379,7.047 13.729,6.933 13.653 C 6.820 13.577,6.684 13.503,6.632 13.487 C 6.462 13.438,3.876 12.031,3.889 11.994 C 3.903 11.952,6.408 10.597,6.446 10.611 C 6.460 10.616,7.670 11.266,9.135 12.055 M9.142 16.560 C 11.698 17.936,11.786 17.980,12.000 17.980 C 12.214 17.980,12.302 17.936,14.858 16.560 C 16.308 15.779,17.518 15.134,17.547 15.127 C 17.575 15.120,18.175 15.425,18.880 15.804 L 20.162 16.495 20.051 16.562 C 19.793 16.719,12.034 20.880,12.000 20.880 C 11.966 20.880,4.207 16.719,3.949 16.562 L 3.838 16.495 5.109 15.808 C 5.808 15.430,6.408 15.125,6.442 15.130 C 6.476 15.136,7.691 15.779,9.142 16.560 " stroke="none" fill-rule="evenodd" fill="black"></path></svg>