<svg width="24" height="24" viewBox="0 0 24 24" fill="none" xmlns="http://www.w3.org/2000/svg"><path d="M5.499 3.042 C 4.367 3.240,3.426 4.083,3.112 5.178 C 3.023 5.491,3.020 5.548,3.020 7.140 C 3.020 8.748,3.022 8.786,3.114 9.080 C 3.380 9.934,3.940 10.583,4.740 10.964 C 5.290 11.226,5.492 11.248,7.286 11.232 L 8.860 11.219 9.180 11.107 C 9.641 10.946,10.017 10.710,10.363 10.363 C 10.710 10.017,10.946 9.641,11.107 9.180 L 11.219 8.860 11.232 7.286 C 11.248 5.452,11.229 5.286,10.941 4.700 C 10.561 3.928,9.936 3.390,9.100 3.116 C 8.830 3.028,8.764 3.024,7.260 3.015 C 6.402 3.010,5.609 3.022,5.499 3.042 M15.231 3.040 C 14.049 3.248,13.035 4.236,12.817 5.392 C 12.765 5.666,12.757 5.996,12.768 7.292 L 12.781 8.860 12.893 9.180 C 13.054 9.641,13.290 10.017,13.637 10.363 C 13.983 10.710,14.359 10.946,14.820 11.107 L 15.140 11.219 16.714 11.232 C 18.548 11.248,18.714 11.229,19.300 10.941 C 20.082 10.557,20.624 9.921,20.886 9.080 C 20.978 8.786,20.980 8.748,20.980 7.140 C 20.980 5.548,20.977 5.491,20.888 5.178 C 20.612 4.216,19.830 3.423,18.861 3.123 C 18.545 3.026,18.516 3.024,16.980 3.015 C 16.122 3.011,15.335 3.022,15.231 3.040 M8.430 4.518 C 9.094 4.614,9.591 5.085,9.719 5.741 C 9.751 5.905,9.761 6.391,9.751 7.280 C 9.734 8.736,9.730 8.760,9.439 9.145 C 9.352 9.261,9.200 9.411,9.101 9.479 C 8.737 9.730,8.703 9.735,7.280 9.751 C 5.886 9.767,5.648 9.746,5.316 9.578 C 5.062 9.449,4.766 9.144,4.650 8.890 C 4.509 8.581,4.482 8.296,4.482 7.120 C 4.482 6.537,4.498 5.948,4.518 5.810 C 4.614 5.143,5.129 4.615,5.774 4.520 C 6.070 4.477,8.134 4.475,8.430 4.518 M18.548 4.606 C 18.946 4.771,19.229 5.055,19.394 5.452 C 19.496 5.697,19.498 5.717,19.512 6.900 C 19.529 8.206,19.500 8.563,19.350 8.889 C 19.234 9.144,18.938 9.449,18.684 9.578 C 18.351 9.747,18.114 9.767,16.720 9.751 C 15.611 9.738,15.394 9.725,15.240 9.666 C 14.850 9.517,14.483 9.150,14.334 8.760 C 14.275 8.606,14.262 8.389,14.249 7.280 C 14.233 5.886,14.253 5.649,14.422 5.316 C 14.626 4.914,15.078 4.589,15.534 4.518 C 15.647 4.501,16.316 4.490,17.020 4.494 C 18.298 4.502,18.300 4.502,18.548 4.606 M5.342 12.821 C 5.189 12.853,4.919 12.948,4.742 13.033 C 3.936 13.422,3.380 14.066,3.114 14.920 C 3.022 15.214,3.020 15.252,3.020 16.860 C 3.020 18.452,3.023 18.509,3.112 18.822 C 3.391 19.796,4.204 20.609,5.178 20.888 C 5.491 20.977,5.548 20.980,7.140 20.980 C 8.748 20.980,8.786 20.978,9.080 20.886 C 9.921 20.624,10.557 20.082,10.941 19.300 C 11.229 18.714,11.248 18.548,11.232 16.714 L 11.219 15.140 11.107 14.820 C 10.946 14.359,10.710 13.983,10.363 13.637 C 10.017 13.290,9.641 13.054,9.180 12.893 L 8.860 12.781 7.240 12.773 C 5.974 12.767,5.559 12.777,5.342 12.821 M15.168 12.805 C 14.176 12.970,13.254 13.787,12.893 14.820 L 12.781 15.140 12.768 16.708 C 12.752 18.510,12.774 18.722,13.034 19.260 C 13.422 20.064,14.067 20.620,14.920 20.886 C 15.214 20.978,15.252 20.980,16.860 20.980 C 18.452 20.980,18.509 20.977,18.822 20.888 C 19.796 20.609,20.609 19.796,20.888 18.822 C 20.977 18.509,20.980 18.452,20.980 16.860 C 20.980 15.252,20.978 15.214,20.886 14.920 C 20.624 14.079,20.081 13.443,19.300 13.059 C 18.731 12.780,18.560 12.759,16.852 12.765 C 16.042 12.767,15.285 12.785,15.168 12.805 M8.760 14.333 C 9.151 14.483,9.517 14.850,9.666 15.240 C 9.725 15.394,9.738 15.611,9.751 16.720 C 9.767 18.114,9.747 18.351,9.578 18.684 C 9.449 18.938,9.144 19.234,8.889 19.350 C 8.563 19.500,8.206 19.529,6.900 19.512 C 5.717 19.498,5.697 19.496,5.452 19.394 C 5.055 19.229,4.771 18.945,4.606 18.548 C 4.504 18.303,4.502 18.283,4.488 17.100 C 4.471 15.794,4.500 15.437,4.650 15.111 C 4.762 14.865,5.058 14.554,5.295 14.431 C 5.631 14.258,5.784 14.243,7.220 14.254 C 8.396 14.263,8.604 14.274,8.760 14.333 M18.288 14.285 C 18.745 14.382,19.166 14.709,19.350 15.111 C 19.500 15.437,19.529 15.794,19.512 17.100 C 19.498 18.283,19.496 18.303,19.394 18.548 C 19.229 18.945,18.945 19.229,18.548 19.394 C 18.303 19.496,18.283 19.498,17.100 19.512 C 15.794 19.529,15.437 19.500,15.111 19.350 C 14.709 19.166,14.382 18.745,14.285 18.288 C 14.228 18.019,14.224 15.773,14.281 15.477 C 14.392 14.889,14.874 14.395,15.445 14.283 C 15.713 14.230,18.038 14.232,18.288 14.285 " stroke="none" fill-rule="evenodd" fill="black"></path></svg>