<svg width="24" height="24" viewBox="0 0 24 24" fill="none" xmlns="http://www.w3.org/2000/svg"><path d="M11.700 2.435 C 11.355 2.527,11.030 2.775,10.871 3.067 C 10.814 3.173,10.322 4.331,9.779 5.640 C 9.235 6.949,8.768 8.065,8.739 8.120 L 8.687 8.220 5.881 8.446 L 3.074 8.672 2.815 8.799 C 2.057 9.173,1.863 10.241,2.443 10.841 C 2.518 10.919,3.500 11.770,4.625 12.732 L 6.669 14.482 6.597 14.791 C 6.557 14.961,6.272 16.160,5.962 17.455 C 5.320 20.144,5.311 20.209,5.521 20.630 C 5.654 20.895,5.860 21.105,6.128 21.248 C 6.273 21.325,6.361 21.340,6.680 21.340 C 7.003 21.340,7.087 21.326,7.240 21.244 C 7.339 21.192,8.450 20.520,9.710 19.750 L 12.000 18.352 14.290 19.750 C 15.550 20.520,16.661 21.192,16.760 21.244 C 16.913 21.326,16.997 21.340,17.320 21.340 C 17.639 21.340,17.727 21.325,17.872 21.248 C 18.140 21.105,18.346 20.895,18.479 20.630 C 18.689 20.210,18.681 20.156,18.018 17.378 C 17.698 16.037,17.412 14.837,17.382 14.712 L 17.328 14.484 19.374 12.734 C 20.499 11.771,21.482 10.919,21.557 10.841 C 21.767 10.624,21.881 10.338,21.887 10.013 C 21.897 9.461,21.645 9.026,21.185 8.799 L 20.926 8.672 18.119 8.446 L 15.313 8.220 15.261 8.120 C 15.232 8.065,14.764 6.949,14.221 5.640 C 13.677 4.331,13.186 3.173,13.128 3.067 C 12.927 2.694,12.526 2.445,12.086 2.419 C 11.940 2.410,11.766 2.418,11.700 2.435 M13.012 6.630 C 13.572 7.979,14.056 9.090,14.124 9.180 C 14.308 9.426,14.629 9.623,14.927 9.673 C 15.066 9.695,16.282 9.801,17.630 9.907 C 18.977 10.013,20.080 10.110,20.080 10.124 C 20.080 10.138,19.227 10.880,18.184 11.774 C 17.141 12.668,16.215 13.482,16.126 13.583 C 15.929 13.807,15.823 14.101,15.824 14.420 C 15.825 14.588,16.001 15.393,16.414 17.116 C 16.738 18.467,16.997 19.588,16.991 19.607 C 16.985 19.626,16.035 19.063,14.880 18.357 C 13.725 17.651,12.690 17.025,12.580 16.967 C 12.404 16.873,12.334 16.860,12.000 16.860 C 11.666 16.860,11.596 16.873,11.420 16.967 C 11.310 17.025,10.275 17.650,9.120 18.356 C 7.965 19.062,7.015 19.625,7.009 19.606 C 7.002 19.587,7.262 18.466,7.586 17.116 C 7.997 15.398,8.175 14.588,8.175 14.420 C 8.177 14.101,8.071 13.807,7.874 13.583 C 7.785 13.482,6.859 12.668,5.816 11.774 C 4.773 10.880,3.920 10.138,3.920 10.124 C 3.920 10.110,5.022 10.013,6.370 9.907 C 7.718 9.801,8.934 9.695,9.073 9.673 C 9.371 9.623,9.692 9.426,9.876 9.180 C 9.943 9.090,10.429 7.976,10.988 6.630 C 11.533 5.316,11.989 4.241,12.000 4.241 C 12.011 4.241,12.466 5.316,13.012 6.630 " stroke="none" fill-rule="evenodd" fill="black"></path></svg>