<svg width="24" height="24" viewBox="0 0 24 24" fill="none" xmlns="http://www.w3.org/2000/svg"><path d="M6.800 4.582 C 6.459 4.655,5.876 4.949,5.599 5.188 C 5.088 5.628,4.698 6.252,4.580 6.820 C 4.493 7.238,4.493 16.762,4.580 17.180 C 4.698 17.748,5.088 18.372,5.599 18.812 C 5.883 19.057,6.463 19.346,6.820 19.420 C 7.238 19.507,16.762 19.507,17.180 19.420 C 17.748 19.302,18.372 18.912,18.812 18.401 C 19.057 18.117,19.346 17.537,19.420 17.180 C 19.507 16.762,19.507 7.238,19.420 6.820 C 19.346 6.463,19.057 5.883,18.812 5.599 C 18.372 5.088,17.748 4.698,17.180 4.580 C 16.773 4.495,7.197 4.497,6.800 4.582 M17.100 6.132 C 17.415 6.279,17.724 6.587,17.867 6.896 L 17.980 7.140 17.980 12.000 L 17.980 16.860 17.867 17.104 C 17.724 17.413,17.415 17.721,17.100 17.868 L 16.860 17.980 12.000 17.980 L 7.140 17.980 6.896 17.867 C 6.587 17.724,6.279 17.415,6.132 17.100 L 6.020 16.860 6.020 12.000 L 6.020 7.140 6.132 6.900 C 6.260 6.625,6.546 6.312,6.780 6.190 C 7.148 5.998,6.971 6.004,12.060 6.012 L 16.860 6.020 17.100 6.132 " stroke="none" fill-rule="evenodd" fill="black"></path></svg>