<svg width="24" height="24" viewBox="0 0 24 24" fill="none" xmlns="http://www.w3.org/2000/svg"><path d="M11.787 2.278 C 11.598 2.316,11.444 2.427,11.340 2.604 C 11.264 2.733,11.260 2.812,11.260 4.140 C 11.260 5.539,11.260 5.540,11.354 5.691 C 11.490 5.910,11.643 5.978,12.000 5.979 C 12.349 5.980,12.513 5.905,12.653 5.680 C 12.736 5.546,12.741 5.491,12.754 4.361 C 12.769 3.009,12.750 2.737,12.627 2.554 C 12.469 2.319,12.137 2.210,11.787 2.278 M5.380 4.915 C 5.173 5.009,4.938 5.272,4.876 5.478 C 4.778 5.806,4.827 5.878,5.871 6.929 C 6.390 7.450,6.872 7.905,6.943 7.939 C 7.157 8.040,7.403 8.018,7.594 7.880 C 7.851 7.694,8.000 7.462,8.000 7.250 C 8.000 7.152,7.973 7.015,7.939 6.944 C 7.906 6.874,7.460 6.400,6.949 5.890 C 5.855 4.799,5.761 4.741,5.380 4.915 M18.120 4.904 C 17.948 4.978,16.147 6.763,16.061 6.944 C 16.027 7.015,16.000 7.152,16.000 7.250 C 16.000 7.462,16.149 7.694,16.406 7.880 C 16.597 8.018,16.843 8.040,17.057 7.939 C 17.128 7.905,17.610 7.450,18.129 6.929 C 19.173 5.878,19.222 5.806,19.124 5.478 C 19.032 5.170,18.635 4.841,18.360 4.842 C 18.305 4.843,18.197 4.870,18.120 4.904 M11.277 7.558 C 10.640 7.674,9.812 8.020,9.360 8.358 C 9.056 8.586,8.628 9.010,8.391 9.320 C 8.123 9.670,7.786 10.372,7.651 10.860 C 7.549 11.230,7.541 11.315,7.541 12.000 C 7.541 12.685,7.549 12.770,7.651 13.140 C 7.786 13.628,8.123 14.330,8.391 14.680 C 8.628 14.990,9.056 15.414,9.360 15.642 C 9.682 15.883,10.401 16.222,10.860 16.349 C 11.232 16.451,11.312 16.459,12.000 16.458 C 12.676 16.456,12.775 16.446,13.140 16.348 C 13.593 16.225,14.312 15.887,14.640 15.642 C 14.977 15.391,15.460 14.895,15.684 14.571 C 15.958 14.175,16.222 13.603,16.350 13.131 C 16.446 12.774,16.456 12.675,16.456 12.000 C 16.456 11.321,16.447 11.227,16.348 10.860 C 16.217 10.378,15.880 9.675,15.609 9.320 C 15.372 9.010,14.944 8.586,14.640 8.358 C 14.323 8.121,13.601 7.779,13.160 7.657 C 12.837 7.568,12.681 7.550,12.120 7.538 C 11.757 7.531,11.378 7.540,11.277 7.558 M12.860 9.121 C 13.825 9.421,14.581 10.181,14.886 11.160 C 14.967 11.418,14.980 11.539,14.977 12.020 C 14.974 12.508,14.961 12.620,14.872 12.887 C 14.552 13.852,13.807 14.585,12.840 14.886 C 12.588 14.964,12.453 14.979,12.000 14.979 C 11.547 14.979,11.412 14.964,11.160 14.886 C 10.174 14.579,9.421 13.826,9.114 12.840 C 8.979 12.406,8.979 11.594,9.114 11.160 C 9.455 10.066,10.373 9.239,11.471 9.039 C 11.797 8.979,12.546 9.023,12.860 9.121 M2.787 11.277 C 2.444 11.347,2.268 11.592,2.268 12.000 C 2.268 12.461,2.475 12.692,2.931 12.740 C 3.068 12.755,3.711 12.761,4.360 12.753 C 5.456 12.741,5.549 12.734,5.673 12.660 C 5.896 12.525,5.980 12.346,5.980 12.000 C 5.980 11.654,5.896 11.475,5.673 11.340 C 5.548 11.265,5.462 11.260,4.240 11.253 C 3.525 11.249,2.871 11.260,2.787 11.277 M18.540 11.275 C 18.171 11.341,18.022 11.549,18.022 12.000 C 18.022 12.357,18.090 12.510,18.309 12.646 C 18.460 12.740,18.461 12.740,19.860 12.740 C 21.188 12.740,21.267 12.736,21.396 12.660 C 21.581 12.551,21.682 12.404,21.723 12.185 C 21.792 11.818,21.669 11.501,21.396 11.340 C 21.268 11.265,21.182 11.260,19.980 11.254 C 19.276 11.250,18.628 11.260,18.540 11.275 M6.936 16.063 C 6.868 16.097,6.388 16.551,5.870 17.072 C 4.823 18.126,4.777 18.193,4.878 18.530 C 4.946 18.755,5.245 19.054,5.470 19.122 C 5.807 19.223,5.873 19.177,6.929 18.129 C 7.450 17.610,7.905 17.128,7.939 17.057 C 8.040 16.843,8.018 16.597,7.880 16.406 C 7.691 16.145,7.463 16.000,7.244 16.001 C 7.143 16.001,7.004 16.029,6.936 16.063 M16.406 16.120 C 16.149 16.306,16.000 16.538,16.000 16.750 C 16.000 16.848,16.028 16.986,16.061 17.057 C 16.095 17.128,16.550 17.610,17.071 18.129 C 18.127 19.177,18.193 19.223,18.530 19.122 C 18.755 19.054,19.054 18.755,19.122 18.530 C 19.223 18.193,19.177 18.127,18.129 17.071 C 17.610 16.550,17.128 16.095,17.057 16.061 C 16.843 15.960,16.597 15.982,16.406 16.120 M11.718 18.036 C 11.528 18.097,11.448 18.158,11.354 18.309 C 11.260 18.460,11.260 18.462,11.260 19.860 C 11.260 21.188,11.264 21.267,11.340 21.396 C 11.449 21.581,11.596 21.682,11.815 21.723 C 12.182 21.792,12.499 21.669,12.660 21.396 C 12.736 21.267,12.740 21.188,12.740 19.860 C 12.740 18.491,12.738 18.457,12.653 18.320 C 12.605 18.243,12.508 18.146,12.438 18.105 C 12.297 18.022,11.882 17.982,11.718 18.036 " stroke="none" fill-rule="evenodd" fill="black"></path></svg>