<svg width="24" height="24" viewBox="0 0 24 24" fill="none" xmlns="http://www.w3.org/2000/svg"><path d="M3.796 2.283 C 3.438 2.335,3.134 2.502,2.818 2.818 C 2.480 3.156,2.334 3.440,2.277 3.874 C 2.250 4.074,2.241 6.535,2.250 11.000 C 2.263 17.759,2.264 17.823,2.347 18.180 C 2.763 19.963,4.037 21.237,5.820 21.653 C 6.177 21.736,6.241 21.737,13.000 21.750 C 17.465 21.759,19.926 21.750,20.126 21.723 C 20.560 21.666,20.844 21.520,21.182 21.182 C 21.509 20.855,21.662 20.567,21.720 20.168 C 21.772 19.803,21.771 14.657,21.719 14.320 C 21.607 13.609,21.009 12.962,20.315 12.802 C 20.218 12.780,19.584 12.762,18.884 12.761 L 17.628 12.760 18.527 11.849 C 19.285 11.080,19.447 10.896,19.558 10.671 C 19.733 10.315,19.794 9.901,19.728 9.516 C 19.626 8.926,19.677 8.987,17.345 6.655 C 15.013 4.323,15.074 4.374,14.484 4.272 C 14.099 4.206,13.685 4.267,13.329 4.442 C 13.104 4.553,12.920 4.715,12.151 5.473 L 11.240 6.372 11.239 5.116 C 11.238 4.416,11.220 3.782,11.198 3.685 C 11.038 2.991,10.391 2.393,9.680 2.281 C 9.368 2.232,4.130 2.234,3.796 2.283 M9.619 3.856 C 9.672 3.908,9.725 4.012,9.738 4.086 C 9.751 4.159,9.757 7.271,9.750 11.000 C 9.737 18.606,9.765 17.915,9.438 18.580 C 9.155 19.153,8.653 19.649,8.060 19.941 C 7.571 20.181,7.192 20.256,6.600 20.229 C 5.781 20.193,5.227 19.947,4.640 19.360 C 4.258 18.978,4.049 18.650,3.889 18.180 L 3.780 17.860 3.769 10.923 L 3.759 3.986 3.867 3.873 L 3.975 3.760 6.749 3.760 L 9.524 3.760 9.619 3.856 M16.298 7.718 C 18.149 9.570,18.248 9.676,18.248 9.812 C 18.248 9.894,18.213 10.005,18.167 10.068 C 18.122 10.130,17.468 10.789,16.713 11.532 C 15.958 12.276,15.301 12.924,15.253 12.972 C 15.205 13.021,14.296 13.938,13.233 15.010 C 12.171 16.082,11.287 16.960,11.271 16.960 C 11.254 16.960,11.240 15.056,11.240 12.729 L 11.240 8.497 12.610 7.132 C 13.976 5.771,14.043 5.715,14.264 5.753 C 14.310 5.760,15.225 6.645,16.298 7.718 M20.018 14.297 C 20.093 14.328,20.173 14.390,20.197 14.434 C 20.227 14.490,20.240 15.371,20.240 17.265 L 20.240 20.016 20.133 20.128 L 20.025 20.240 15.083 20.240 L 10.140 20.240 13.140 17.240 L 16.140 14.240 18.011 14.240 C 19.534 14.240,19.908 14.251,20.018 14.297 M6.316 16.603 C 6.124 16.718,6.036 16.878,6.010 17.163 C 5.986 17.433,6.065 17.697,6.211 17.828 C 6.523 18.111,7.218 18.030,7.414 17.689 C 7.518 17.506,7.519 17.014,7.414 16.835 C 7.279 16.604,7.151 16.541,6.787 16.529 C 6.512 16.519,6.437 16.531,6.316 16.603 " stroke="none" fill-rule="evenodd" fill="black"></path></svg>