<svg width="24" height="24" viewBox="0 0 24 24" fill="none" xmlns="http://www.w3.org/2000/svg"><path d="M2.910 3.803 C 2.329 3.941,1.804 4.434,1.603 5.031 C 1.520 5.277,1.520 5.301,1.520 12.000 C 1.520 18.699,1.520 18.723,1.603 18.969 C 1.775 19.479,2.090 19.828,2.600 20.075 L 2.900 20.220 11.860 20.232 C 18.614 20.241,20.874 20.233,21.040 20.197 C 21.665 20.064,22.188 19.591,22.397 18.969 C 22.480 18.723,22.480 18.699,22.480 12.000 C 22.480 5.301,22.480 5.277,22.397 5.031 C 22.227 4.526,21.886 4.152,21.374 3.910 L 21.100 3.780 12.080 3.774 C 6.936 3.770,2.996 3.783,2.910 3.803 M20.755 5.284 C 20.979 5.362,21.000 5.459,21.000 6.397 L 21.000 7.239 20.883 7.369 L 20.767 7.500 12.000 7.500 L 3.233 7.500 3.117 7.369 L 3.000 7.239 3.000 6.401 C 3.000 5.481,3.019 5.383,3.219 5.296 C 3.381 5.225,20.553 5.214,20.755 5.284 M11.123 9.117 L 11.240 9.234 11.240 10.125 L 11.240 11.016 11.133 11.128 L 11.025 11.240 7.129 11.240 L 3.234 11.240 3.117 11.123 L 3.000 11.006 3.000 10.126 L 3.000 9.246 3.123 9.123 L 3.246 9.000 7.126 9.000 L 11.006 9.000 11.123 9.117 M20.877 9.123 L 21.000 9.246 21.000 10.126 L 21.000 11.006 20.883 11.123 L 20.766 11.240 16.875 11.240 L 12.984 11.240 12.872 11.133 L 12.760 11.025 12.760 10.129 L 12.760 9.234 12.877 9.117 L 12.994 9.000 16.874 9.000 L 20.754 9.000 20.877 9.123 M11.133 12.872 L 11.240 12.984 11.240 13.875 L 11.240 14.766 11.123 14.883 L 11.006 15.000 7.126 15.000 L 3.246 15.000 3.123 14.877 L 3.000 14.754 3.000 13.874 L 3.000 12.994 3.117 12.877 L 3.234 12.760 7.129 12.760 L 11.025 12.760 11.133 12.872 M20.883 12.877 L 21.000 12.994 21.000 13.874 L 21.000 14.754 20.877 14.877 L 20.754 15.000 16.874 15.000 L 12.994 15.000 12.877 14.883 L 12.760 14.766 12.760 13.875 L 12.760 12.984 12.867 12.872 L 12.975 12.760 16.871 12.760 L 20.766 12.760 20.883 12.877 M10.914 16.505 C 10.983 16.519,11.084 16.575,11.139 16.630 L 11.240 16.731 11.240 17.608 C 11.240 18.160,11.224 18.515,11.197 18.566 C 11.092 18.762,11.144 18.760,7.127 18.760 C 4.482 18.760,3.334 18.747,3.245 18.716 C 3.021 18.638,3.000 18.541,3.000 17.605 L 3.000 16.766 3.101 16.646 C 3.157 16.579,3.243 16.517,3.291 16.508 C 3.434 16.481,10.777 16.477,10.914 16.505 M20.883 16.631 L 21.000 16.761 21.000 17.603 C 21.000 18.541,20.979 18.638,20.755 18.716 C 20.666 18.747,19.518 18.760,16.873 18.760 C 12.856 18.760,12.908 18.762,12.803 18.566 C 12.776 18.515,12.760 18.160,12.760 17.608 L 12.760 16.731 12.863 16.628 C 12.920 16.571,13.005 16.517,13.053 16.507 C 13.101 16.498,14.856 16.492,16.953 16.495 L 20.767 16.500 20.883 16.631 " stroke="none" fill-rule="evenodd" fill="black"></path></svg>