<svg width="24" height="24" viewBox="0 0 24 24" fill="none" xmlns="http://www.w3.org/2000/svg"><path d="M4.872 2.280 C 3.847 2.405,2.975 3.044,2.523 4.001 C 2.263 4.550,2.260 4.588,2.260 7.420 C 2.260 9.412,2.272 10.032,2.313 10.213 C 2.394 10.565,2.578 10.978,2.785 11.274 C 2.982 11.554,12.118 20.743,12.778 21.324 C 13.409 21.880,14.012 22.120,14.777 22.120 C 15.461 22.120,15.823 21.988,16.609 21.452 C 18.168 20.389,19.601 19.040,20.785 17.520 C 21.868 16.130,22.120 15.613,22.120 14.778 C 22.120 14.012,21.880 13.410,21.324 12.778 C 21.151 12.581,18.869 10.285,16.254 7.676 C 11.327 2.760,11.258 2.695,10.719 2.477 C 10.194 2.265,10.233 2.268,7.600 2.257 C 6.247 2.252,5.020 2.262,4.872 2.280 M10.006 3.817 C 10.108 3.848,10.261 3.918,10.346 3.973 C 10.431 4.028,12.727 6.302,15.448 9.027 C 20.822 14.406,20.579 14.143,20.627 14.652 C 20.659 14.999,20.574 15.239,20.248 15.717 C 19.077 17.436,17.556 18.971,15.840 20.165 C 15.233 20.587,15.155 20.620,14.760 20.619 C 14.469 20.618,14.388 20.601,14.200 20.507 C 14.018 20.415,13.127 19.544,9.027 15.448 C 6.302 12.727,4.028 10.431,3.973 10.346 C 3.761 10.018,3.761 10.009,3.761 7.380 L 3.762 4.940 3.854 4.717 C 4.024 4.304,4.303 4.024,4.713 3.855 L 4.940 3.762 7.380 3.761 C 9.366 3.761,9.855 3.771,10.006 3.817 M5.787 5.278 C 5.447 5.345,5.268 5.592,5.268 5.995 C 5.268 6.522,5.483 6.740,6.000 6.740 C 6.351 6.740,6.529 6.658,6.659 6.439 C 6.779 6.233,6.774 5.755,6.649 5.554 C 6.506 5.324,6.144 5.208,5.787 5.278 " stroke="none" fill-rule="evenodd" fill="black"></path></svg>