<svg width="24" height="24" viewBox="0 0 24 24" fill="none" xmlns="http://www.w3.org/2000/svg"><path d="M2.891 4.559 C 2.425 4.670,1.909 5.104,1.677 5.580 L 1.540 5.860 1.528 7.730 C 1.518 9.395,1.523 9.615,1.582 9.738 C 1.624 9.827,1.773 9.969,1.997 10.135 C 2.514 10.519,2.786 10.913,2.938 11.498 C 3.098 12.114,2.933 12.844,2.511 13.391 C 2.420 13.509,2.189 13.722,1.997 13.865 C 1.773 14.031,1.624 14.173,1.582 14.262 C 1.523 14.385,1.518 14.605,1.528 16.270 L 1.540 18.140 1.677 18.420 C 1.858 18.792,2.208 19.142,2.580 19.323 L 2.860 19.460 12.000 19.460 L 21.140 19.460 21.420 19.323 C 21.792 19.142,22.142 18.792,22.323 18.420 L 22.460 18.140 22.472 16.270 C 22.482 14.605,22.477 14.385,22.418 14.262 C 22.376 14.173,22.227 14.031,22.003 13.865 C 21.486 13.481,21.214 13.087,21.062 12.502 C 20.902 11.886,21.067 11.156,21.489 10.609 C 21.580 10.491,21.811 10.278,22.003 10.135 C 22.227 9.969,22.376 9.827,22.418 9.738 C 22.477 9.615,22.482 9.395,22.472 7.730 L 22.460 5.860 22.323 5.580 C 22.142 5.208,21.792 4.858,21.420 4.677 L 21.140 4.540 12.080 4.534 C 7.097 4.531,2.962 4.542,2.891 4.559 M15.761 6.490 C 15.762 6.885,15.777 7.013,15.838 7.148 C 15.942 7.377,16.148 7.480,16.500 7.480 C 16.852 7.480,17.058 7.377,17.162 7.148 C 17.223 7.013,17.238 6.885,17.239 6.490 L 17.240 6.000 18.997 6.000 L 20.754 6.000 20.877 6.123 L 21.000 6.246 21.000 7.611 L 21.000 8.975 20.688 9.277 C 20.155 9.796,19.818 10.352,19.633 11.020 C 19.558 11.291,19.544 11.442,19.544 12.000 C 19.544 12.558,19.558 12.709,19.633 12.980 C 19.816 13.643,20.156 14.203,20.689 14.723 L 21.000 15.025 21.000 16.389 L 21.000 17.754 20.877 17.877 L 20.754 18.000 18.997 18.000 L 17.240 18.000 17.239 17.510 C 17.238 16.910,17.176 16.731,16.925 16.602 C 16.703 16.489,16.297 16.489,16.075 16.602 C 15.824 16.731,15.762 16.910,15.761 17.510 L 15.760 18.000 9.503 18.000 L 3.246 18.000 3.123 17.877 L 3.000 17.754 3.000 16.389 L 3.000 15.025 3.311 14.723 C 3.844 14.203,4.184 13.643,4.367 12.980 C 4.442 12.709,4.456 12.558,4.456 12.000 C 4.456 11.442,4.442 11.291,4.367 11.020 C 4.184 10.357,3.844 9.797,3.311 9.277 L 3.000 8.975 3.000 7.611 L 3.000 6.246 3.123 6.123 L 3.246 6.000 9.503 6.000 L 15.760 6.000 15.761 6.490 M16.180 9.048 C 16.007 9.109,15.846 9.274,15.800 9.438 C 15.778 9.516,15.760 9.840,15.760 10.157 C 15.760 10.857,15.815 11.022,16.095 11.158 C 16.485 11.346,17.004 11.223,17.158 10.905 C 17.229 10.757,17.240 10.659,17.240 10.157 C 17.240 9.503,17.207 9.339,17.050 9.193 C 16.854 9.011,16.470 8.947,16.180 9.048 M7.180 12.048 C 6.897 12.148,6.760 12.387,6.761 12.780 C 6.762 13.069,6.878 13.297,7.075 13.398 C 7.234 13.479,7.288 13.480,10.128 13.480 C 12.802 13.480,13.030 13.475,13.157 13.410 C 13.387 13.293,13.458 13.157,13.474 12.800 C 13.486 12.534,13.475 12.462,13.400 12.329 C 13.352 12.243,13.256 12.138,13.186 12.096 C 13.065 12.023,12.937 12.020,10.180 12.013 C 8.237 12.008,7.261 12.019,7.180 12.048 M16.092 12.843 C 15.815 12.980,15.760 13.145,15.760 13.843 C 15.760 14.497,15.793 14.661,15.950 14.807 C 16.329 15.159,17.075 15.013,17.200 14.562 C 17.222 14.484,17.240 14.160,17.240 13.843 C 17.240 13.143,17.185 12.978,16.905 12.842 C 16.675 12.731,16.318 12.731,16.092 12.843 M7.267 14.279 C 6.923 14.345,6.780 14.557,6.780 15.000 C 6.780 15.452,6.920 15.652,7.286 15.723 C 7.382 15.741,8.153 15.757,9.000 15.757 C 9.847 15.757,10.618 15.741,10.714 15.723 C 11.080 15.652,11.220 15.452,11.220 15.000 C 11.220 14.548,11.080 14.348,10.714 14.277 C 10.502 14.236,7.481 14.237,7.267 14.279 " stroke="none" fill-rule="evenodd" fill="black"></path></svg>