<svg width="24" height="24" viewBox="0 0 24 24" fill="none" xmlns="http://www.w3.org/2000/svg"><path d="M9.991 1.558 C 8.614 1.743,7.520 2.993,7.520 4.380 C 7.520 4.543,7.505 4.685,7.486 4.696 C 7.467 4.708,7.184 4.744,6.856 4.778 C 6.169 4.847,4.688 5.044,3.963 5.161 C 3.172 5.290,2.979 5.453,3.011 5.964 C 3.046 6.500,3.322 6.752,3.817 6.699 L 4.075 6.671 4.096 6.806 C 4.108 6.880,4.343 9.883,4.618 13.480 C 5.035 18.930,5.132 20.070,5.202 20.319 C 5.484 21.330,6.313 22.137,7.339 22.400 C 7.644 22.478,7.778 22.480,12.000 22.480 C 16.195 22.480,16.358 22.477,16.655 22.401 C 17.685 22.138,18.518 21.329,18.797 20.321 C 18.865 20.075,18.966 18.887,19.382 13.442 C 19.658 9.822,19.893 6.817,19.904 6.766 C 19.923 6.674,19.933 6.672,20.183 6.699 C 20.670 6.751,20.948 6.504,20.990 5.982 C 21.031 5.466,20.833 5.295,20.040 5.163 C 19.352 5.049,17.863 4.850,17.144 4.778 C 16.816 4.744,16.533 4.708,16.514 4.696 C 16.495 4.685,16.480 4.543,16.480 4.380 C 16.480 3.118,15.562 1.943,14.319 1.615 C 14.095 1.556,13.803 1.545,12.140 1.537 C 11.084 1.532,10.117 1.542,9.991 1.558 M14.040 3.093 C 14.582 3.297,15.000 3.882,15.000 4.437 L 15.000 4.602 14.610 4.571 C 14.396 4.554,13.221 4.540,12.000 4.540 C 10.779 4.540,9.604 4.554,9.390 4.571 L 9.000 4.602 9.000 4.427 C 9.000 3.919,9.346 3.390,9.835 3.153 C 10.108 3.021,10.346 3.007,12.160 3.016 C 13.643 3.024,13.883 3.034,14.040 3.093 M15.040 6.098 C 16.338 6.185,18.378 6.397,18.421 6.450 C 18.426 6.455,18.199 9.454,17.917 13.114 C 17.544 17.944,17.386 19.821,17.340 19.960 C 17.223 20.311,16.924 20.669,16.608 20.836 C 16.299 21.000,16.317 20.999,11.996 21.000 C 8.058 21.000,7.841 20.996,7.626 20.925 C 7.335 20.829,7.105 20.669,6.916 20.430 C 6.600 20.031,6.651 20.479,6.084 13.126 C 5.802 9.460,5.574 6.455,5.579 6.450 C 5.600 6.424,6.557 6.307,7.460 6.220 C 8.324 6.137,8.775 6.106,10.280 6.024 C 10.885 5.991,14.208 6.042,15.040 6.098 M8.981 8.297 C 8.746 8.362,8.576 8.532,8.537 8.742 C 8.506 8.910,8.821 17.577,8.876 18.055 C 8.933 18.553,9.130 18.738,9.598 18.734 C 10.009 18.730,10.232 18.586,10.324 18.265 C 10.346 18.191,10.289 16.341,10.178 13.462 C 10.002 8.890,9.996 8.776,9.909 8.601 C 9.860 8.502,9.766 8.391,9.700 8.353 C 9.529 8.256,9.216 8.231,8.981 8.297 M14.491 8.279 C 14.288 8.327,14.159 8.433,14.078 8.616 C 14.010 8.769,13.986 9.222,13.822 13.464 C 13.711 16.342,13.654 18.191,13.676 18.265 C 13.768 18.586,13.991 18.730,14.402 18.734 C 14.870 18.738,15.067 18.553,15.124 18.055 C 15.180 17.567,15.494 8.908,15.462 8.737 C 15.396 8.384,14.944 8.171,14.491 8.279 " stroke="none" fill-rule="evenodd" fill="black"></path></svg>