<svg width="24" height="24" viewBox="0 0 24 24" fill="none" xmlns="http://www.w3.org/2000/svg"><path d="M6.180 4.545 C 4.683 4.611,3.032 4.765,2.740 4.865 C 2.265 5.028,1.926 5.342,1.685 5.840 L 1.540 6.140 1.540 12.140 L 1.540 18.140 1.677 18.420 C 1.858 18.792,2.208 19.142,2.580 19.323 L 2.860 19.460 3.730 19.473 L 4.599 19.487 4.749 19.773 C 5.053 20.356,5.641 20.810,6.260 20.940 C 7.304 21.159,8.317 20.666,8.784 19.710 L 8.897 19.480 12.385 19.480 L 15.874 19.480 15.919 19.616 C 15.991 19.835,16.344 20.305,16.571 20.486 C 17.422 21.163,18.587 21.160,19.433 20.480 C 19.663 20.295,20.009 19.835,20.080 19.621 L 20.123 19.489 20.632 19.473 C 21.107 19.457,21.158 19.447,21.412 19.325 C 21.951 19.065,22.363 18.522,22.438 17.971 C 22.456 17.844,22.454 17.542,22.436 17.300 C 22.190 14.147,21.182 11.174,19.456 8.510 C 18.941 7.716,18.619 7.392,18.066 7.113 C 17.593 6.874,17.348 6.840,16.114 6.840 L 15.000 6.840 15.000 6.690 C 14.998 5.858,14.495 5.120,13.750 4.856 C 13.563 4.790,12.880 4.714,11.588 4.617 C 10.788 4.556,7.051 4.507,6.180 4.545 M11.377 6.099 C 11.860 6.133,12.487 6.186,12.771 6.215 C 13.240 6.264,13.296 6.278,13.393 6.375 L 13.500 6.482 13.500 9.991 L 13.500 13.500 8.250 13.510 L 3.000 13.520 3.000 10.002 L 3.000 6.484 3.092 6.377 C 3.178 6.277,3.222 6.266,3.702 6.216 C 4.216 6.163,5.829 6.052,6.480 6.025 C 7.313 5.990,10.550 6.039,11.377 6.099 M17.174 8.380 C 17.613 8.494,17.804 8.689,18.379 9.608 C 19.834 11.934,20.775 14.790,20.946 17.401 C 20.972 17.793,20.972 17.793,20.860 17.897 C 20.760 17.989,20.716 18.000,20.444 18.000 L 20.140 18.000 20.002 17.730 C 19.824 17.381,19.385 16.934,19.060 16.770 C 18.684 16.580,18.428 16.520,18.000 16.520 C 17.572 16.520,17.316 16.580,16.940 16.770 C 16.615 16.934,16.176 17.381,15.998 17.730 L 15.860 18.000 15.430 18.000 L 15.000 18.000 15.000 13.160 L 15.000 8.320 15.972 8.320 C 16.707 8.320,16.999 8.335,17.174 8.380 M13.520 16.500 L 13.520 18.000 11.206 18.000 L 8.892 18.000 8.756 17.730 C 8.493 17.207,7.902 16.728,7.338 16.581 C 7.044 16.504,6.448 16.503,6.165 16.578 C 5.556 16.740,4.992 17.208,4.728 17.770 L 4.620 17.999 3.933 18.000 L 3.246 18.000 3.123 17.877 L 3.000 17.754 3.000 16.377 L 3.000 15.000 8.260 15.000 L 13.520 15.000 13.520 16.500 M7.060 18.076 C 7.281 18.177,7.402 18.322,7.462 18.554 C 7.514 18.754,7.495 18.942,7.408 19.105 C 7.339 19.234,7.091 19.436,6.969 19.463 C 6.909 19.476,6.838 19.493,6.812 19.501 C 6.717 19.530,6.355 19.410,6.253 19.315 C 6.196 19.263,6.116 19.148,6.076 19.060 C 5.785 18.430,6.430 17.785,7.060 18.076 M18.436 18.150 C 18.653 18.322,18.770 18.575,18.744 18.813 C 18.716 19.067,18.594 19.257,18.375 19.385 C 17.777 19.736,17.053 19.141,17.298 18.500 C 17.370 18.312,17.624 18.059,17.775 18.025 C 17.822 18.015,17.957 18.013,18.076 18.021 C 18.239 18.032,18.327 18.063,18.436 18.150 " stroke="none" fill-rule="evenodd" fill="black"></path></svg>