<svg width="24" height="24" viewBox="0 0 24 24" fill="none" xmlns="http://www.w3.org/2000/svg"><path d="M2.904 3.064 C 2.399 3.186,1.940 3.569,1.688 4.078 L 1.540 4.376 1.540 10.500 L 1.540 16.624 1.688 16.922 C 1.856 17.262,2.155 17.585,2.462 17.761 C 2.879 18.000,2.864 17.999,6.471 17.999 L 9.762 18.000 9.751 18.750 L 9.740 19.500 7.693 19.520 C 5.690 19.540,5.643 19.542,5.533 19.624 C 5.337 19.770,5.267 19.938,5.267 20.260 C 5.267 20.594,5.361 20.795,5.574 20.911 C 5.692 20.976,6.109 20.980,12.000 20.980 L 18.300 20.980 18.440 20.893 C 18.656 20.758,18.729 20.600,18.731 20.261 C 18.733 19.937,18.665 19.772,18.467 19.624 C 18.357 19.542,18.310 19.540,16.307 19.520 L 14.260 19.500 14.249 18.750 L 14.238 18.000 17.529 17.999 C 21.136 17.999,21.121 18.000,21.538 17.761 C 21.845 17.585,22.144 17.262,22.312 16.922 L 22.460 16.624 22.460 10.500 L 22.460 4.376 22.312 4.078 C 22.144 3.738,21.845 3.415,21.538 3.239 C 21.097 2.986,21.686 3.001,11.980 3.004 C 4.468 3.006,3.105 3.015,2.904 3.064 M20.883 4.631 L 21.000 4.761 21.000 10.500 L 21.000 16.239 20.883 16.369 L 20.767 16.500 12.000 16.500 L 3.233 16.500 3.117 16.369 L 3.000 16.239 3.000 10.502 L 3.000 4.766 3.101 4.646 C 3.157 4.579,3.243 4.517,3.291 4.508 C 3.340 4.498,7.292 4.493,12.073 4.495 L 20.767 4.500 20.883 4.631 M12.751 18.750 L 12.740 19.500 12.000 19.500 L 11.260 19.500 11.249 18.750 L 11.238 18.000 12.000 18.000 L 12.762 18.000 12.751 18.750 " stroke="none" fill-rule="evenodd" fill="black"></path></svg>