<svg width="24" height="24" viewBox="0 0 24 24" fill="none" xmlns="http://www.w3.org/2000/svg"><path d="M9.931 2.282 C 9.016 2.373,8.093 2.824,7.431 3.505 C 7.092 3.854,6.896 4.134,6.678 4.580 C 6.336 5.282,6.211 5.978,6.284 6.770 C 6.375 7.745,6.749 8.545,7.440 9.243 C 8.015 9.824,8.577 10.155,9.353 10.370 C 9.609 10.441,9.775 10.455,10.360 10.457 C 11.216 10.461,11.500 10.397,12.220 10.040 C 13.060 9.624,13.624 9.060,14.040 8.220 C 14.397 7.500,14.461 7.216,14.457 6.360 C 14.454 5.592,14.409 5.344,14.161 4.750 C 13.810 3.906,13.040 3.097,12.180 2.670 C 11.544 2.353,10.693 2.207,9.931 2.282 M11.000 3.822 C 11.779 4.005,12.511 4.643,12.811 5.400 C 13.092 6.113,13.059 6.860,12.714 7.560 C 12.480 8.035,12.035 8.480,11.560 8.714 C 10.860 9.059,10.113 9.092,9.400 8.811 C 8.643 8.511,8.005 7.779,7.822 7.000 C 7.736 6.632,7.743 6.080,7.839 5.704 C 8.066 4.815,8.804 4.073,9.688 3.841 C 10.050 3.746,10.640 3.738,11.000 3.822 M18.660 6.806 C 18.507 6.863,18.409 6.949,18.326 7.100 C 18.269 7.203,18.258 7.402,18.247 8.488 L 18.234 9.757 16.967 9.768 C 15.574 9.781,15.539 9.787,15.377 10.028 C 15.216 10.267,15.222 10.768,15.389 10.994 C 15.550 11.212,15.595 11.219,16.970 11.232 L 18.240 11.243 18.242 12.392 C 18.243 13.023,18.259 13.618,18.277 13.714 C 18.348 14.080,18.548 14.220,19.000 14.220 C 19.452 14.220,19.652 14.080,19.723 13.714 C 19.741 13.618,19.757 13.023,19.758 12.392 L 19.760 11.243 21.030 11.232 C 22.405 11.219,22.450 11.212,22.611 10.994 C 22.778 10.768,22.784 10.267,22.623 10.028 C 22.461 9.787,22.427 9.781,21.030 9.768 L 19.760 9.757 19.758 8.608 C 19.757 7.977,19.741 7.382,19.723 7.286 C 19.683 7.077,19.575 6.921,19.416 6.842 C 19.271 6.769,18.819 6.748,18.660 6.806 M9.900 12.023 C 9.396 12.072,8.976 12.138,8.640 12.222 C 6.372 12.791,4.486 14.486,3.696 16.668 C 3.444 17.364,3.337 17.884,3.280 18.696 C 3.218 19.562,3.287 19.702,3.946 20.063 C 5.644 20.994,7.201 21.486,9.060 21.681 C 9.637 21.741,11.055 21.741,11.660 21.681 C 13.576 21.491,15.360 20.915,16.966 19.966 C 17.433 19.690,17.480 19.600,17.480 18.979 C 17.480 18.023,17.263 17.085,16.814 16.104 C 15.856 14.008,13.810 12.462,11.520 12.103 C 11.132 12.042,10.189 11.996,9.900 12.023 M11.280 13.582 C 13.262 13.903,14.950 15.290,15.642 17.165 C 15.793 17.576,15.902 18.015,15.957 18.440 C 16.009 18.843,16.047 18.796,15.440 19.087 C 13.792 19.878,12.198 20.239,10.360 20.239 C 8.496 20.239,6.818 19.846,5.190 19.026 L 4.780 18.820 4.789 18.580 C 4.807 18.049,5.027 17.273,5.338 16.635 C 5.880 15.527,6.814 14.603,7.940 14.061 C 8.988 13.558,10.125 13.394,11.280 13.582 " stroke="none" fill-rule="evenodd" fill="black"></path></svg>