<svg width="24" height="24" viewBox="0 0 24 24" fill="none" xmlns="http://www.w3.org/2000/svg"><path d="M11.277 1.558 C 10.640 1.674,9.812 2.020,9.360 2.358 C 9.056 2.586,8.628 3.010,8.391 3.320 C 8.123 3.670,7.786 4.372,7.651 4.860 C 7.549 5.230,7.541 5.315,7.541 6.000 C 7.541 6.685,7.549 6.770,7.651 7.140 C 7.786 7.628,8.123 8.330,8.391 8.680 C 8.628 8.990,9.056 9.414,9.360 9.642 C 9.682 9.883,10.401 10.222,10.860 10.349 C 11.232 10.451,11.312 10.459,12.000 10.458 C 12.673 10.456,12.776 10.446,13.133 10.349 C 13.590 10.226,14.229 9.928,14.597 9.668 C 14.949 9.419,15.440 8.923,15.684 8.571 C 15.958 8.175,16.222 7.603,16.350 7.131 C 16.446 6.774,16.456 6.675,16.456 6.000 C 16.456 5.321,16.447 5.227,16.348 4.860 C 16.217 4.378,15.880 3.675,15.609 3.320 C 15.372 3.010,14.944 2.586,14.640 2.358 C 14.323 2.121,13.601 1.779,13.160 1.657 C 12.837 1.568,12.681 1.550,12.120 1.538 C 11.757 1.531,11.378 1.540,11.277 1.558 M12.860 3.121 C 13.825 3.421,14.582 4.182,14.886 5.160 C 15.021 5.594,15.021 6.406,14.886 6.840 C 14.579 7.826,13.826 8.579,12.840 8.886 C 12.406 9.021,11.594 9.021,11.160 8.886 C 10.570 8.702,10.107 8.391,9.679 7.891 C 9.437 7.609,9.238 7.239,9.114 6.840 C 8.979 6.406,8.979 5.594,9.114 5.160 C 9.455 4.066,10.373 3.239,11.471 3.039 C 11.797 2.979,12.546 3.023,12.860 3.121 M11.180 12.042 C 7.133 12.453,3.975 15.762,3.774 19.801 C 3.736 20.547,3.800 20.634,4.653 20.996 C 7.058 22.017,9.348 22.479,12.000 22.479 C 14.652 22.479,16.942 22.017,19.348 20.995 C 20.197 20.635,20.269 20.534,20.226 19.762 C 20.051 16.577,18.018 13.765,15.037 12.584 C 14.496 12.370,13.820 12.186,13.258 12.099 C 12.764 12.023,11.659 11.993,11.180 12.042 M13.000 13.582 C 15.686 13.986,17.882 15.975,18.537 18.595 C 18.667 19.114,18.740 19.596,18.696 19.637 C 18.640 19.689,17.971 19.944,17.369 20.143 C 13.922 21.283,10.078 21.283,6.631 20.143 C 6.029 19.944,5.360 19.689,5.304 19.637 C 5.223 19.562,5.465 18.456,5.696 17.851 C 6.359 16.112,7.755 14.683,9.448 14.008 C 10.620 13.542,11.793 13.401,13.000 13.582 " stroke="none" fill-rule="evenodd" fill="black"></path></svg>