<svg width="24" height="24" viewBox="0 0 24 24" fill="none" xmlns="http://www.w3.org/2000/svg"><path d="M11.600 3.023 C 11.545 3.033,11.392 3.060,11.260 3.084 C 10.101 3.292,9.034 4.159,8.558 5.278 C 8.214 6.088,8.171 7.122,8.449 7.940 C 8.842 9.100,9.823 10.026,11.020 10.369 C 11.295 10.447,11.432 10.460,12.000 10.460 C 12.568 10.460,12.705 10.447,12.980 10.369 C 14.360 9.974,15.425 8.819,15.681 7.440 C 15.750 7.071,15.740 6.360,15.660 5.980 C 15.363 4.558,14.269 3.441,12.840 3.101 C 12.580 3.039,11.789 2.989,11.600 3.023 M12.704 4.619 C 13.397 4.835,13.993 5.469,14.180 6.188 C 14.257 6.483,14.257 6.999,14.179 7.302 C 13.869 8.509,12.651 9.231,11.440 8.925 C 11.019 8.818,10.736 8.653,10.401 8.318 C 9.968 7.884,9.761 7.381,9.760 6.758 C 9.760 6.158,9.946 5.672,10.341 5.246 C 10.968 4.568,11.818 4.343,12.704 4.619 M4.581 6.824 C 3.508 7.064,2.584 7.973,2.334 9.035 C 2.243 9.422,2.253 10.140,2.354 10.526 C 2.623 11.548,3.452 12.377,4.474 12.646 C 4.860 12.747,5.578 12.757,5.965 12.666 C 6.472 12.546,6.912 12.300,7.314 11.911 C 7.984 11.262,8.275 10.519,8.229 9.579 C 8.191 8.803,7.919 8.192,7.363 7.637 C 7.013 7.286,6.634 7.049,6.180 6.898 C 5.769 6.760,5.019 6.726,4.581 6.824 M18.168 6.805 C 17.406 6.932,16.588 7.513,16.165 8.229 C 15.682 9.046,15.627 10.137,16.024 10.997 C 16.404 11.820,17.181 12.465,18.035 12.666 C 18.422 12.757,19.140 12.747,19.526 12.646 C 20.548 12.377,21.377 11.548,21.646 10.526 C 21.747 10.140,21.757 9.422,21.666 9.035 C 21.412 7.958,20.475 7.047,19.392 6.824 C 19.062 6.756,18.514 6.747,18.168 6.805 M5.761 8.340 C 6.427 8.575,6.843 9.290,6.721 9.991 C 6.585 10.770,5.946 11.277,5.159 11.232 C 4.396 11.188,3.812 10.604,3.768 9.841 C 3.741 9.364,3.880 9.005,4.224 8.667 C 4.611 8.287,5.234 8.154,5.761 8.340 M19.021 8.284 C 19.776 8.423,20.276 9.067,20.232 9.841 C 20.188 10.604,19.604 11.188,18.841 11.232 C 18.364 11.259,18.005 11.120,17.667 10.776 C 17.240 10.342,17.134 9.651,17.407 9.085 C 17.588 8.708,18.035 8.364,18.445 8.283 C 18.693 8.234,18.756 8.235,19.021 8.284 M11.400 12.024 C 10.298 12.156,9.440 12.433,8.593 12.931 C 8.034 13.260,7.611 13.596,7.131 14.094 L 6.700 14.540 6.379 14.432 C 5.653 14.189,4.715 14.209,3.960 14.486 C 3.084 14.806,2.316 15.498,1.901 16.340 C 1.640 16.870,1.558 17.203,1.532 17.842 C 1.512 18.332,1.517 18.403,1.592 18.571 C 1.697 18.808,1.822 18.885,2.380 19.058 C 3.176 19.305,3.923 19.435,4.774 19.476 L 5.288 19.500 5.341 19.655 C 5.427 19.906,5.604 20.045,6.250 20.370 C 8.294 21.397,10.372 21.832,12.683 21.715 C 14.513 21.623,16.089 21.205,17.750 20.370 C 18.396 20.045,18.573 19.906,18.659 19.655 L 18.712 19.500 19.226 19.476 C 20.077 19.435,20.824 19.305,21.620 19.058 C 22.178 18.885,22.304 18.807,22.408 18.572 C 22.482 18.405,22.488 18.331,22.469 17.843 C 22.444 17.205,22.364 16.877,22.099 16.340 C 21.685 15.497,20.918 14.807,20.040 14.486 C 19.285 14.209,18.347 14.189,17.621 14.432 L 17.300 14.540 16.869 14.094 C 15.836 13.024,14.577 12.350,13.140 12.098 C 12.792 12.037,11.685 11.990,11.400 12.024 M12.940 13.588 C 13.344 13.658,13.972 13.865,14.337 14.048 C 15.025 14.391,15.809 15.057,16.255 15.676 C 16.873 16.535,17.239 17.627,17.240 18.613 L 17.240 18.966 16.787 19.179 C 14.706 20.161,12.332 20.477,10.040 20.078 C 9.105 19.915,8.085 19.590,7.213 19.179 L 6.760 18.966 6.760 18.613 C 6.761 17.627,7.127 16.535,7.745 15.676 C 8.048 15.255,8.672 14.655,9.086 14.386 C 10.278 13.613,11.556 13.348,12.940 13.588 M5.730 15.802 C 5.813 15.825,5.880 15.858,5.880 15.875 C 5.880 15.892,5.815 16.056,5.736 16.239 C 5.579 16.600,5.379 17.337,5.331 17.732 L 5.300 17.980 5.077 17.992 C 4.778 18.008,3.937 17.907,3.441 17.796 C 3.059 17.711,3.040 17.702,3.041 17.603 C 3.042 17.414,3.229 16.965,3.414 16.706 C 3.849 16.097,4.483 15.765,5.220 15.762 C 5.418 15.761,5.647 15.779,5.730 15.802 M19.315 15.818 C 20.025 16.007,20.677 16.612,20.881 17.271 C 21.014 17.704,21.021 17.693,20.559 17.796 C 20.064 17.907,19.222 18.008,18.927 17.992 L 18.707 17.980 18.635 17.560 C 18.549 17.048,18.407 16.551,18.243 16.186 C 18.175 16.036,18.120 15.897,18.120 15.877 C 18.120 15.763,18.954 15.722,19.315 15.818 " stroke="none" fill-rule="evenodd" fill="black"></path></svg>