<svg width="24" height="24" viewBox="0 0 24 24" fill="none" xmlns="http://www.w3.org/2000/svg"><path d="M8.189 2.284 C 6.537 2.445,5.142 3.621,4.658 5.260 C 4.506 5.774,4.476 6.648,4.592 7.207 C 4.777 8.101,5.278 8.942,5.973 9.525 C 6.433 9.911,7.044 10.223,7.660 10.386 C 8.083 10.498,9.219 10.488,9.651 10.369 C 10.416 10.157,10.988 9.820,11.560 9.243 C 12.252 8.545,12.625 7.745,12.716 6.767 C 12.789 5.984,12.661 5.276,12.322 4.580 C 11.553 3.004,9.948 2.113,8.189 2.284 M9.440 3.874 C 10.190 4.117,10.887 4.813,11.126 5.559 C 11.243 5.924,11.270 6.605,11.182 6.980 C 10.995 7.779,10.365 8.508,9.600 8.811 C 8.887 9.092,8.140 9.059,7.440 8.714 C 6.965 8.480,6.520 8.035,6.286 7.560 C 5.941 6.860,5.908 6.113,6.189 5.400 C 6.484 4.654,7.208 4.016,7.980 3.822 C 8.327 3.735,9.096 3.762,9.440 3.874 M17.360 5.267 C 15.898 5.385,14.671 6.448,14.341 7.883 C 14.260 8.237,14.249 8.910,14.318 9.280 C 14.545 10.489,15.473 11.496,16.700 11.863 C 17.010 11.956,17.135 11.971,17.600 11.974 C 18.224 11.978,18.510 11.919,19.027 11.680 C 19.804 11.319,20.318 10.806,20.676 10.034 C 20.919 9.510,20.978 9.226,20.974 8.600 C 20.971 8.135,20.956 8.010,20.863 7.700 C 20.555 6.672,19.814 5.858,18.846 5.485 C 18.412 5.318,17.814 5.230,17.360 5.267 M18.209 6.842 C 19.532 7.277,19.930 8.957,18.943 9.943 C 17.949 10.938,16.269 10.530,15.837 9.189 C 15.764 8.962,15.752 8.855,15.768 8.527 C 15.785 8.180,15.804 8.101,15.931 7.838 C 16.119 7.447,16.443 7.121,16.820 6.940 C 17.149 6.783,17.196 6.773,17.629 6.765 C 17.866 6.762,18.029 6.783,18.209 6.842 M7.980 12.042 C 5.772 12.227,3.770 13.466,2.563 15.394 C 1.911 16.437,1.520 17.780,1.520 18.979 C 1.520 19.600,1.567 19.690,2.034 19.966 C 3.640 20.915,5.424 21.491,7.340 21.681 C 7.945 21.741,9.363 21.741,9.940 21.681 C 11.155 21.554,12.216 21.303,13.320 20.881 C 13.802 20.697,14.666 20.289,15.042 20.069 L 15.223 19.962 15.618 20.042 C 16.984 20.316,18.458 20.300,19.873 19.996 C 20.640 19.830,21.870 19.372,22.193 19.130 C 22.438 18.947,22.480 18.833,22.480 18.335 C 22.481 16.002,20.777 13.985,18.465 13.582 C 17.949 13.492,17.166 13.501,16.667 13.603 C 15.911 13.757,15.187 14.094,14.589 14.571 L 14.300 14.801 14.206 14.691 C 13.413 13.761,12.749 13.229,11.780 12.747 C 10.581 12.150,9.369 11.925,7.980 12.042 M9.060 13.521 C 11.583 13.727,13.638 15.550,14.139 18.025 C 14.174 18.198,14.207 18.448,14.211 18.580 L 14.220 18.820 13.810 19.026 C 12.182 19.846,10.504 20.239,8.640 20.239 C 6.802 20.239,5.208 19.878,3.560 19.087 C 2.947 18.793,2.984 18.839,3.041 18.438 C 3.222 17.141,3.760 16.050,4.657 15.158 C 5.612 14.208,6.844 13.631,8.151 13.523 C 8.365 13.506,8.549 13.489,8.560 13.486 C 8.571 13.484,8.796 13.499,9.060 13.521 M18.246 15.057 C 18.408 15.089,18.647 15.152,18.778 15.198 C 19.670 15.510,20.490 16.330,20.802 17.222 C 20.880 17.446,21.013 18.040,20.991 18.063 C 20.965 18.088,20.515 18.255,20.240 18.341 C 18.861 18.775,17.554 18.861,16.114 18.614 L 15.729 18.548 15.683 18.184 C 15.618 17.678,15.460 17.056,15.272 16.569 C 15.184 16.342,15.122 16.132,15.134 16.101 C 15.169 16.010,15.681 15.605,15.958 15.449 C 16.661 15.054,17.497 14.911,18.246 15.057 " stroke="none" fill-rule="evenodd" fill="black"></path></svg>