<svg width="24" height="24" viewBox="0 0 24 24" fill="none" xmlns="http://www.w3.org/2000/svg"><path d="M11.320 2.280 C 9.441 2.407,7.648 3.082,6.084 4.252 C 5.591 4.620,4.620 5.591,4.252 6.084 C 3.226 7.456,2.606 8.935,2.357 10.608 C 2.251 11.321,2.241 12.576,2.337 13.272 C 2.573 14.993,3.193 16.496,4.255 17.920 C 4.619 18.408,5.592 19.381,6.080 19.745 C 7.536 20.831,9.075 21.455,10.860 21.683 C 11.058 21.708,11.571 21.728,12.000 21.728 C 13.101 21.728,13.998 21.596,14.934 21.294 C 18.621 20.107,21.238 16.936,21.681 13.120 C 21.759 12.447,21.741 11.279,21.642 10.608 C 21.396 8.940,20.773 7.452,19.748 6.084 C 19.379 5.591,18.409 4.621,17.916 4.252 C 16.786 3.406,15.392 2.757,14.120 2.486 C 13.247 2.300,12.184 2.222,11.320 2.280 M13.180 3.838 C 14.600 4.049,15.862 4.579,17.009 5.445 C 17.434 5.766,18.234 6.566,18.555 6.991 C 20.434 9.479,20.775 12.758,19.444 15.540 C 19.102 16.254,18.708 16.856,18.187 17.459 L 18.049 17.619 17.747 17.332 C 16.484 16.132,14.992 15.388,13.260 15.094 C 12.702 14.999,11.298 14.999,10.740 15.094 C 9.008 15.388,7.516 16.132,6.253 17.332 L 5.951 17.619 5.813 17.459 C 4.714 16.186,4.031 14.682,3.821 13.068 C 3.542 10.917,4.123 8.742,5.445 6.991 C 5.766 6.566,6.566 5.766,6.991 5.445 C 8.122 4.591,9.387 4.055,10.780 3.841 C 11.454 3.737,12.495 3.736,13.180 3.838 M11.600 6.023 C 11.545 6.033,11.392 6.060,11.260 6.084 C 10.101 6.292,9.034 7.159,8.558 8.278 C 8.214 9.088,8.171 10.122,8.449 10.940 C 8.842 12.100,9.823 13.026,11.020 13.369 C 11.295 13.447,11.432 13.460,12.000 13.460 C 12.568 13.460,12.705 13.447,12.980 13.369 C 14.360 12.974,15.425 11.819,15.681 10.440 C 15.750 10.071,15.740 9.360,15.660 8.980 C 15.363 7.558,14.269 6.441,12.840 6.101 C 12.580 6.039,11.789 5.989,11.600 6.023 M12.704 7.619 C 13.397 7.835,13.993 8.469,14.180 9.188 C 14.257 9.483,14.257 9.999,14.179 10.302 C 13.869 11.509,12.651 12.231,11.440 11.925 C 11.019 11.818,10.736 11.653,10.401 11.318 C 9.968 10.884,9.761 10.381,9.760 9.758 C 9.760 9.158,9.946 8.672,10.341 8.246 C 10.968 7.568,11.818 7.343,12.704 7.619 M13.149 16.604 C 13.971 16.740,14.832 17.067,15.563 17.519 C 15.925 17.743,16.524 18.215,16.772 18.471 L 16.925 18.628 16.512 18.898 C 15.786 19.374,14.812 19.797,13.932 20.019 C 12.775 20.310,11.225 20.310,10.068 20.019 C 9.188 19.797,8.214 19.374,7.488 18.898 L 7.075 18.628 7.228 18.471 C 7.472 18.219,8.073 17.744,8.422 17.528 C 8.902 17.231,9.259 17.061,9.781 16.881 C 10.893 16.498,11.976 16.409,13.149 16.604 " stroke="none" fill-rule="evenodd" fill="black"></path></svg>