<svg width="24" height="24" viewBox="0 0 24 24" fill="none" xmlns="http://www.w3.org/2000/svg"><path d="M4.370 2.320 C 4.197 2.425,4.117 2.563,3.883 3.164 C 3.038 5.333,2.511 7.717,2.317 10.240 C 2.260 10.987,2.260 13.013,2.317 13.760 C 2.511 16.283,3.038 18.667,3.883 20.836 C 4.117 21.437,4.197 21.575,4.370 21.680 C 4.688 21.874,5.274 21.677,5.464 21.312 C 5.555 21.136,5.531 20.986,5.316 20.408 C 4.233 17.500,3.760 14.943,3.760 12.000 C 3.760 9.057,4.233 6.500,5.316 3.592 C 5.531 3.014,5.555 2.864,5.464 2.688 C 5.274 2.323,4.688 2.126,4.370 2.320 M19.126 2.364 C 18.674 2.589,18.648 2.795,18.950 3.740 C 19.847 6.541,20.240 9.060,20.240 12.000 C 20.240 14.906,19.842 17.481,18.976 20.180 C 18.733 20.936,18.709 21.052,18.761 21.243 C 18.812 21.434,18.918 21.540,19.180 21.664 C 19.432 21.784,19.721 21.791,19.897 21.682 C 20.068 21.576,20.158 21.399,20.374 20.740 C 21.375 17.685,21.830 14.387,21.716 11.004 C 21.638 8.667,21.312 6.524,20.700 4.333 C 20.498 3.609,20.205 2.727,20.107 2.548 C 19.923 2.215,19.560 2.146,19.126 2.364 M9.816 7.160 C 9.558 7.213,9.425 7.281,8.680 7.740 C 7.534 8.446,7.480 8.495,7.480 8.832 C 7.480 9.156,7.768 9.567,8.049 9.642 C 8.316 9.714,8.427 9.662,9.700 8.870 C 9.898 8.747,10.071 8.658,10.085 8.673 C 10.099 8.688,10.349 9.420,10.642 10.301 L 11.173 11.902 10.125 13.472 C 9.004 15.151,8.931 15.237,8.567 15.315 C 8.356 15.360,8.170 15.330,7.832 15.197 C 7.410 15.030,7.119 15.093,6.920 15.392 C 6.703 15.720,6.669 16.054,6.830 16.279 C 6.935 16.424,7.529 16.711,7.880 16.785 C 8.657 16.948,9.603 16.656,10.125 16.089 C 10.221 15.985,10.624 15.410,11.020 14.811 C 11.416 14.212,11.749 13.722,11.761 13.721 C 11.772 13.720,11.941 14.202,12.135 14.790 C 12.330 15.378,12.544 15.964,12.611 16.091 C 12.952 16.740,13.800 17.037,14.488 16.747 C 14.620 16.691,15.867 15.933,16.193 15.710 C 16.288 15.645,16.401 15.535,16.443 15.466 C 16.669 15.095,16.332 14.416,15.884 14.341 C 15.672 14.305,15.497 14.387,14.620 14.932 C 14.246 15.164,13.929 15.342,13.915 15.327 C 13.901 15.312,13.651 14.580,13.358 13.699 L 12.827 12.098 13.875 10.528 C 14.999 8.845,15.068 8.763,15.438 8.684 C 15.632 8.643,15.966 8.696,16.158 8.799 C 16.438 8.949,16.813 8.916,16.989 8.727 C 17.253 8.443,17.344 7.964,17.179 7.733 C 17.066 7.577,16.484 7.292,16.120 7.215 C 15.340 7.051,14.399 7.342,13.875 7.911 C 13.779 8.015,13.376 8.590,12.980 9.189 C 12.584 9.788,12.251 10.278,12.239 10.279 C 12.228 10.280,12.059 9.799,11.864 9.210 C 11.484 8.065,11.391 7.844,11.195 7.620 C 10.892 7.276,10.270 7.068,9.816 7.160 " stroke="none" fill-rule="evenodd" fill="black"></path></svg>