<svg width="24" height="24" viewBox="0 0 24 24" fill="none" xmlns="http://www.w3.org/2000/svg"><path d="M3.800 4.582 C 3.459 4.655,2.876 4.949,2.599 5.188 C 2.088 5.628,1.698 6.252,1.580 6.820 C 1.493 7.238,1.493 16.762,1.580 17.180 C 1.698 17.748,2.088 18.372,2.599 18.812 C 2.883 19.057,3.463 19.346,3.820 19.420 C 4.238 19.507,13.762 19.507,14.180 19.420 C 14.537 19.346,15.117 19.057,15.401 18.812 C 15.750 18.512,15.988 18.209,16.182 17.820 C 16.432 17.319,16.478 17.054,16.479 16.130 C 16.480 15.707,16.493 15.360,16.509 15.360 C 16.524 15.360,17.339 16.159,18.319 17.135 C 19.659 18.472,20.149 18.936,20.300 19.011 C 21.067 19.394,21.971 19.097,22.343 18.338 L 22.460 18.100 22.460 12.000 L 22.460 5.900 22.343 5.662 C 22.049 5.063,21.357 4.712,20.725 4.843 C 20.259 4.939,20.205 4.984,18.319 6.865 C 17.339 7.841,16.524 8.640,16.509 8.640 C 16.493 8.640,16.480 8.293,16.479 7.870 C 16.478 6.946,16.432 6.681,16.182 6.180 C 15.879 5.573,15.427 5.121,14.820 4.818 C 14.194 4.506,14.500 4.521,8.980 4.524 C 4.935 4.526,4.014 4.536,3.800 4.582 M14.100 6.132 C 14.415 6.279,14.724 6.587,14.867 6.896 L 14.980 7.140 14.980 12.000 L 14.980 16.860 14.867 17.104 C 14.724 17.413,14.415 17.721,14.100 17.868 L 13.860 17.980 9.000 17.980 L 4.140 17.980 3.896 17.867 C 3.587 17.724,3.279 17.415,3.132 17.100 L 3.020 16.860 3.020 12.000 L 3.020 7.140 3.132 6.900 C 3.260 6.625,3.546 6.312,3.780 6.190 C 4.148 5.998,3.971 6.004,9.060 6.012 L 13.860 6.020 14.100 6.132 M21.000 12.010 L 21.000 17.700 18.740 15.439 L 16.480 13.179 16.480 12.000 L 16.480 10.822 18.730 8.571 C 19.967 7.333,20.984 6.320,20.990 6.320 C 20.995 6.320,21.000 8.880,21.000 12.010 " stroke="none" fill-rule="evenodd" fill="black"></path></svg>