<svg width="24" height="24" viewBox="0 0 24 24" fill="none" xmlns="http://www.w3.org/2000/svg"><path d="M1.220 3.786 C 0.811 4.002,0.617 4.438,0.784 4.772 C 0.872 4.949,16.023 20.106,16.208 20.203 C 16.481 20.345,16.806 20.271,17.045 20.014 C 17.286 19.754,17.341 19.474,17.203 19.208 C 17.160 19.127,16.892 18.828,16.607 18.545 L 16.089 18.030 16.225 17.744 C 16.432 17.307,16.479 17.012,16.479 16.130 C 16.480 15.707,16.493 15.360,16.509 15.360 C 16.524 15.360,17.339 16.159,18.319 17.135 C 19.659 18.472,20.149 18.936,20.300 19.011 C 21.067 19.394,21.971 19.097,22.343 18.338 L 22.460 18.100 22.460 12.000 L 22.460 5.900 22.343 5.662 C 22.049 5.063,21.357 4.712,20.725 4.843 C 20.259 4.939,20.205 4.984,18.319 6.865 C 17.339 7.841,16.524 8.640,16.509 8.640 C 16.493 8.640,16.480 8.293,16.479 7.870 C 16.478 6.946,16.432 6.681,16.182 6.180 C 15.879 5.573,15.427 5.121,14.820 4.818 C 14.195 4.506,14.497 4.521,9.000 4.521 C 3.591 4.521,3.812 4.512,3.256 4.775 L 2.970 4.911 2.455 4.393 C 2.172 4.108,1.873 3.840,1.792 3.797 C 1.613 3.705,1.384 3.700,1.220 3.786 M14.100 6.132 C 14.415 6.279,14.724 6.587,14.867 6.896 L 14.980 7.140 14.991 11.880 C 14.997 14.487,14.991 16.682,14.978 16.757 L 14.954 16.894 9.537 11.477 C 5.264 7.204,4.135 6.055,4.190 6.033 C 4.229 6.018,6.420 6.008,9.060 6.012 L 13.860 6.020 14.100 6.132 M21.000 12.010 L 21.000 17.700 18.740 15.439 L 16.480 13.179 16.480 12.000 L 16.480 10.822 18.730 8.571 C 19.967 7.333,20.984 6.320,20.990 6.320 C 20.995 6.320,21.000 8.880,21.000 12.010 M2.027 8.278 C 1.831 8.317,1.678 8.431,1.590 8.603 C 1.525 8.731,1.520 9.014,1.521 12.820 C 1.521 17.405,1.509 17.202,1.818 17.820 C 2.121 18.427,2.573 18.879,3.180 19.182 C 3.805 19.494,3.598 19.482,8.237 19.471 C 12.352 19.460,12.354 19.460,12.467 19.376 C 12.665 19.228,12.733 19.063,12.731 18.739 C 12.729 18.400,12.656 18.242,12.440 18.107 L 12.300 18.020 8.220 18.000 L 4.140 17.980 3.896 17.867 C 3.587 17.724,3.279 17.415,3.132 17.100 L 3.020 16.860 3.000 12.780 L 2.980 8.700 2.893 8.560 C 2.845 8.483,2.755 8.391,2.693 8.354 C 2.554 8.274,2.232 8.237,2.027 8.278 " stroke="none" fill-rule="evenodd" fill="black"></path></svg>