<svg width="24" height="24" viewBox="0 0 24 24" fill="none" xmlns="http://www.w3.org/2000/svg"><path d="M3.640 3.814 C 2.950 4.002,2.391 4.622,2.281 5.320 C 2.225 5.677,2.225 18.323,2.281 18.680 C 2.393 19.391,2.991 20.038,3.685 20.198 C 3.927 20.253,20.073 20.253,20.315 20.198 C 21.009 20.038,21.607 19.391,21.719 18.680 C 21.775 18.323,21.775 5.677,21.719 5.320 C 21.607 4.609,21.009 3.962,20.315 3.802 C 20.040 3.739,3.874 3.751,3.640 3.814 M8.240 12.000 L 8.240 18.760 6.179 18.760 C 3.983 18.760,3.904 18.754,3.803 18.566 C 3.742 18.452,3.742 5.548,3.803 5.434 C 3.902 5.249,3.970 5.243,6.170 5.242 L 8.240 5.240 8.240 12.000 M14.240 12.000 L 14.240 18.760 12.000 18.760 L 9.760 18.760 9.760 12.000 L 9.760 5.240 12.000 5.240 L 14.240 5.240 14.240 12.000 M20.018 5.297 C 20.093 5.328,20.173 5.390,20.197 5.434 C 20.258 5.548,20.258 18.452,20.197 18.566 C 20.096 18.754,20.017 18.760,17.821 18.760 L 15.760 18.760 15.760 12.000 L 15.760 5.240 17.821 5.240 C 19.508 5.240,19.907 5.250,20.018 5.297 " stroke="none" fill-rule="evenodd" fill="black"></path></svg>