<svg width="24" height="24" viewBox="0 0 24 24" fill="none" xmlns="http://www.w3.org/2000/svg"><path d="M5.499 3.043 C 4.390 3.229,3.457 4.053,3.125 5.139 C 3.033 5.437,3.025 5.536,3.009 6.535 C 2.991 7.713,3.011 7.879,3.197 8.057 C 3.509 8.356,4.215 8.283,4.393 7.933 C 4.463 7.796,4.473 7.672,4.488 6.740 C 4.503 5.733,4.507 5.692,4.607 5.452 C 4.771 5.055,5.055 4.771,5.452 4.607 C 5.692 4.507,5.733 4.503,6.740 4.488 C 7.672 4.473,7.796 4.463,7.933 4.393 C 8.122 4.297,8.238 4.064,8.239 3.780 C 8.240 3.379,8.102 3.145,7.804 3.045 C 7.645 2.992,5.814 2.990,5.499 3.043 M16.180 3.046 C 15.896 3.150,15.760 3.388,15.761 3.780 C 15.762 4.064,15.878 4.297,16.067 4.393 C 16.204 4.463,16.328 4.473,17.260 4.488 C 18.267 4.503,18.308 4.507,18.548 4.607 C 18.945 4.771,19.229 5.055,19.393 5.452 C 19.493 5.692,19.497 5.733,19.512 6.740 C 19.527 7.672,19.537 7.796,19.607 7.933 C 19.785 8.283,20.491 8.356,20.803 8.057 C 20.989 7.879,21.009 7.713,20.991 6.535 C 20.975 5.536,20.967 5.437,20.875 5.139 C 20.584 4.185,19.816 3.417,18.861 3.124 C 18.558 3.032,18.477 3.026,17.420 3.014 C 16.681 3.007,16.259 3.017,16.180 3.046 M11.595 8.282 C 10.585 8.392,9.634 8.924,9.031 9.719 C 8.793 10.032,8.468 10.687,8.382 11.025 C 8.231 11.624,8.231 12.376,8.382 12.975 C 8.468 13.313,8.793 13.968,9.031 14.281 C 9.397 14.763,9.848 15.118,10.452 15.400 C 11.040 15.675,11.707 15.785,12.365 15.717 C 12.846 15.668,13.150 15.586,13.548 15.400 C 14.403 15.001,14.954 14.460,15.361 13.620 C 15.584 13.161,15.664 12.879,15.717 12.365 C 15.785 11.707,15.675 11.040,15.400 10.452 C 14.960 9.510,14.272 8.867,13.293 8.485 C 12.852 8.312,12.122 8.225,11.595 8.282 M12.574 9.823 C 12.950 9.920,13.271 10.110,13.580 10.420 C 14.036 10.876,14.240 11.364,14.240 12.000 C 14.240 12.636,14.036 13.124,13.580 13.580 C 13.124 14.036,12.636 14.240,12.000 14.240 C 11.364 14.240,10.876 14.036,10.420 13.580 C 9.964 13.124,9.760 12.636,9.760 12.000 C 9.760 11.364,9.964 10.876,10.420 10.420 C 10.879 9.962,11.336 9.768,11.974 9.763 C 12.177 9.761,12.434 9.787,12.574 9.823 M3.424 15.802 C 3.253 15.853,3.095 16.024,3.040 16.219 C 3.006 16.341,2.997 16.702,3.009 17.465 C 3.025 18.464,3.033 18.563,3.125 18.861 C 3.416 19.815,4.185 20.584,5.139 20.875 C 5.437 20.967,5.536 20.975,6.535 20.991 C 7.713 21.009,7.879 20.989,8.057 20.803 C 8.356 20.491,8.283 19.785,7.933 19.607 C 7.796 19.537,7.672 19.527,6.740 19.512 C 5.733 19.497,5.692 19.493,5.452 19.393 C 5.055 19.229,4.771 18.945,4.607 18.548 C 4.507 18.308,4.503 18.267,4.488 17.260 C 4.469 16.057,4.449 15.975,4.148 15.838 C 3.970 15.757,3.630 15.740,3.424 15.802 M19.852 15.838 C 19.551 15.975,19.531 16.057,19.512 17.260 C 19.497 18.267,19.493 18.308,19.393 18.548 C 19.229 18.945,18.945 19.229,18.548 19.393 C 18.308 19.493,18.267 19.497,17.260 19.512 C 16.328 19.527,16.204 19.537,16.067 19.607 C 15.717 19.785,15.644 20.491,15.943 20.803 C 16.121 20.989,16.287 21.009,17.465 20.991 C 18.464 20.975,18.563 20.967,18.861 20.875 C 19.815 20.584,20.584 19.815,20.875 18.861 C 20.967 18.563,20.975 18.464,20.991 17.465 C 21.009 16.287,20.989 16.121,20.803 15.943 C 20.601 15.749,20.156 15.700,19.852 15.838 " stroke="none" fill-rule="evenodd" fill="black"></path></svg>