<svg width="24" height="24" viewBox="0 0 24 24" fill="none" xmlns="http://www.w3.org/2000/svg"><path d="M4.730 3.044 C 4.120 3.146,3.607 3.423,3.119 3.916 C 2.732 4.306,2.506 4.692,2.352 5.222 L 2.260 5.540 2.260 12.000 L 2.260 18.460 2.352 18.778 C 2.506 19.308,2.732 19.694,3.119 20.084 C 3.621 20.590,4.114 20.852,4.763 20.958 C 5.120 21.016,18.880 21.016,19.237 20.958 C 19.886 20.852,20.379 20.590,20.881 20.084 C 21.268 19.694,21.494 19.308,21.648 18.778 L 21.740 18.460 21.740 12.000 L 21.740 5.540 21.648 5.222 C 21.494 4.692,21.268 4.306,20.881 3.916 C 20.379 3.410,19.886 3.148,19.237 3.042 C 18.918 2.990,5.041 2.992,4.730 3.044 M18.960 4.522 C 19.472 4.603,19.892 4.920,20.113 5.391 C 20.200 5.578,20.222 5.690,20.233 6.005 L 20.247 6.390 20.014 6.277 C 19.885 6.215,19.654 6.131,19.500 6.092 C 19.236 6.024,18.819 6.020,12.000 6.020 C 5.181 6.020,4.764 6.024,4.500 6.092 C 4.346 6.131,4.115 6.215,3.986 6.277 L 3.753 6.390 3.767 6.005 C 3.778 5.690,3.800 5.578,3.887 5.391 C 4.100 4.936,4.528 4.603,5.000 4.525 C 5.319 4.473,18.631 4.470,18.960 4.522 M18.960 7.522 C 19.472 7.603,19.892 7.920,20.113 8.391 C 20.200 8.578,20.222 8.690,20.233 9.005 L 20.247 9.390 20.014 9.277 C 19.490 9.024,19.448 9.020,16.960 9.020 C 14.895 9.020,14.689 9.026,14.574 9.089 C 14.363 9.205,14.288 9.375,14.243 9.842 C 14.202 10.277,14.104 10.624,13.953 10.874 C 13.424 11.752,12.419 12.172,11.440 11.925 C 11.028 11.821,10.741 11.655,10.420 11.339 C 9.995 10.919,9.817 10.519,9.753 9.841 C 9.709 9.372,9.653 9.240,9.440 9.107 C 9.300 9.020,9.293 9.020,7.040 9.020 C 4.552 9.020,4.510 9.024,3.986 9.277 L 3.753 9.390 3.767 9.005 C 3.778 8.690,3.800 8.578,3.887 8.391 C 4.100 7.936,4.528 7.603,5.000 7.525 C 5.319 7.473,18.631 7.470,18.960 7.522 M8.361 10.650 C 8.701 11.959,9.714 12.995,11.020 13.369 C 11.295 13.447,11.432 13.460,12.000 13.460 C 12.568 13.460,12.705 13.447,12.980 13.369 C 14.284 12.996,15.299 11.957,15.639 10.650 L 15.683 10.480 17.192 10.480 C 18.030 10.480,18.816 10.499,18.960 10.522 C 19.472 10.603,19.892 10.920,20.113 11.391 L 20.220 11.620 20.220 15.001 L 20.220 18.382 20.089 18.648 C 19.864 19.105,19.467 19.397,18.960 19.478 C 18.602 19.535,5.401 19.535,5.040 19.478 C 4.528 19.397,4.108 19.080,3.887 18.609 L 3.780 18.380 3.780 15.000 L 3.780 11.620 3.887 11.391 C 4.101 10.935,4.528 10.603,5.000 10.525 C 5.121 10.506,5.917 10.487,6.768 10.485 L 8.317 10.480 8.361 10.650 " stroke="none" fill-rule="evenodd" fill="black"></path></svg>