<svg width="24" height="24" viewBox="0 0 24 24" fill="none" xmlns="http://www.w3.org/2000/svg"><path d="M11.020 3.783 C 10.167 3.866,9.916 3.896,9.500 3.964 C 6.764 4.414,4.161 5.662,2.035 7.545 C 1.077 8.394,0.978 8.601,1.300 9.088 C 1.435 9.291,1.722 9.453,1.940 9.450 C 2.166 9.447,2.244 9.401,2.600 9.062 C 4.807 6.958,7.450 5.704,10.460 5.333 C 11.228 5.238,12.772 5.238,13.540 5.333 C 16.550 5.704,19.193 6.958,21.400 9.062 C 21.756 9.401,21.834 9.447,22.060 9.450 C 22.384 9.455,22.737 9.160,22.840 8.799 C 22.929 8.490,22.750 8.234,21.966 7.546 C 19.593 5.464,16.875 4.244,13.740 3.854 C 13.289 3.798,11.381 3.749,11.020 3.783 M11.300 8.280 C 8.912 8.429,6.579 9.448,4.785 11.123 C 4.442 11.444,4.320 11.640,4.320 11.872 C 4.320 12.200,4.761 12.640,5.089 12.640 C 5.307 12.640,5.451 12.554,5.840 12.189 C 7.043 11.062,8.586 10.261,10.171 9.941 C 10.857 9.803,11.284 9.761,12.008 9.760 C 14.305 9.759,16.485 10.620,18.160 12.189 C 18.549 12.554,18.693 12.640,18.911 12.640 C 19.116 12.640,19.397 12.453,19.558 12.211 C 19.801 11.844,19.697 11.558,19.136 11.050 C 18.335 10.325,17.575 9.807,16.620 9.337 C 14.964 8.521,13.160 8.163,11.300 8.280 M11.360 12.785 C 11.305 12.795,11.105 12.830,10.915 12.861 C 10.083 12.999,9.146 13.402,8.460 13.916 C 7.555 14.595,7.358 14.936,7.615 15.376 C 7.727 15.567,7.984 15.769,8.171 15.815 C 8.370 15.863,8.574 15.772,8.904 15.488 C 9.403 15.059,9.580 14.937,10.014 14.723 C 11.291 14.093,12.709 14.093,13.986 14.723 C 14.420 14.937,14.597 15.059,15.096 15.488 C 15.426 15.772,15.630 15.863,15.829 15.815 C 16.016 15.769,16.273 15.567,16.385 15.376 C 16.642 14.936,16.445 14.595,15.540 13.916 C 14.863 13.408,13.958 13.017,13.087 12.855 C 12.754 12.793,11.574 12.745,11.360 12.785 M11.729 17.284 C 11.199 17.373,10.680 17.835,10.680 18.220 C 10.680 18.411,10.793 18.595,11.127 18.944 C 11.870 19.721,12.130 19.721,12.873 18.944 C 13.313 18.483,13.392 18.290,13.263 17.982 C 13.189 17.805,12.910 17.537,12.676 17.418 C 12.525 17.342,12.047 17.226,11.960 17.245 C 11.949 17.247,11.845 17.265,11.729 17.284 " stroke="none" fill-rule="evenodd" fill="black"></path></svg>