<svg width="24" height="24" viewBox="0 0 24 24" fill="none" xmlns="http://www.w3.org/2000/svg"><path d="M4.730 3.044 C 4.120 3.146,3.607 3.423,3.119 3.916 C 2.732 4.306,2.506 4.692,2.352 5.222 L 2.260 5.540 2.260 12.000 L 2.260 18.460 2.352 18.778 C 2.506 19.308,2.732 19.694,3.119 20.084 C 3.621 20.590,4.114 20.852,4.763 20.958 C 5.120 21.016,18.880 21.016,19.237 20.958 C 19.886 20.852,20.379 20.590,20.881 20.084 C 21.268 19.694,21.494 19.308,21.648 18.778 L 21.740 18.460 21.740 12.000 L 21.740 5.540 21.648 5.222 C 21.494 4.692,21.268 4.306,20.881 3.916 C 20.379 3.410,19.886 3.148,19.237 3.042 C 18.918 2.990,5.041 2.992,4.730 3.044 M18.960 4.522 C 19.472 4.603,19.892 4.920,20.113 5.391 C 20.218 5.616,20.220 5.635,20.232 6.570 L 20.244 7.520 12.000 7.520 L 3.756 7.520 3.768 6.570 C 3.780 5.635,3.782 5.616,3.887 5.391 C 4.101 4.935,4.528 4.603,5.000 4.525 C 5.319 4.473,18.631 4.470,18.960 4.522 M5.027 5.278 C 4.692 5.345,4.520 5.587,4.520 5.991 C 4.520 6.274,4.584 6.460,4.725 6.584 C 4.987 6.817,5.513 6.815,5.792 6.581 C 6.106 6.316,6.049 5.550,5.700 5.355 C 5.553 5.273,5.233 5.236,5.027 5.278 M7.267 5.278 C 6.915 5.348,6.780 5.555,6.780 6.027 C 6.780 6.297,6.795 6.374,6.864 6.467 C 7.128 6.821,7.795 6.858,8.079 6.536 C 8.216 6.379,8.256 6.208,8.232 5.878 C 8.213 5.614,8.128 5.463,7.936 5.354 C 7.794 5.273,7.473 5.236,7.267 5.278 M9.540 5.276 C 9.172 5.339,9.022 5.549,9.021 6.000 C 9.019 6.530,9.230 6.740,9.760 6.740 C 10.278 6.740,10.487 6.527,10.487 6.000 C 10.487 5.652,10.391 5.458,10.160 5.341 C 10.026 5.273,9.736 5.243,9.540 5.276 M20.230 13.691 L 20.220 18.382 20.089 18.648 C 19.864 19.105,19.467 19.397,18.960 19.478 C 18.602 19.535,5.401 19.535,5.040 19.478 C 4.528 19.397,4.108 19.080,3.887 18.609 L 3.780 18.380 3.770 13.690 L 3.759 9.000 12.000 9.000 L 20.241 9.000 20.230 13.691 " stroke="none" fill-rule="evenodd" fill="black"></path></svg>