<svg width="24" height="24" viewBox="0 0 24 24" fill="none" xmlns="http://www.w3.org/2000/svg"><path d="M3.460 1.556 C 3.359 1.604,2.982 1.952,2.434 2.506 C 1.505 3.443,1.437 3.540,1.496 3.854 C 1.521 3.985,3.799 7.842,3.953 8.014 C 4.124 8.204,4.281 8.240,4.949 8.240 L 5.580 8.240 7.238 9.898 L 8.896 11.556 8.798 11.635 C 8.744 11.678,7.306 12.863,5.601 14.268 C 3.445 16.045,2.433 16.904,2.276 17.092 C 2.009 17.409,1.808 17.776,1.658 18.220 C 1.460 18.804,1.478 19.739,1.699 20.348 C 2.034 21.273,2.913 22.095,3.860 22.368 C 4.136 22.447,4.269 22.460,4.820 22.459 C 5.416 22.458,5.482 22.450,5.780 22.346 C 6.230 22.188,6.595 21.988,6.908 21.725 C 7.092 21.570,7.835 20.700,9.263 18.966 C 10.410 17.574,11.378 16.405,11.414 16.368 C 11.475 16.307,11.678 16.499,14.230 19.044 C 15.880 20.689,17.068 21.843,17.200 21.928 C 17.892 22.375,18.555 22.554,19.332 22.507 C 19.855 22.475,20.126 22.402,20.620 22.159 C 21.081 21.933,21.448 21.647,21.750 21.279 C 21.991 20.985,22.324 20.338,22.419 19.980 C 22.613 19.243,22.514 18.313,22.169 17.620 C 21.935 17.150,21.714 16.908,19.304 14.490 L 16.823 12.000 17.121 11.999 C 18.125 11.997,19.032 11.767,19.823 11.314 C 20.750 10.784,21.467 10.030,21.935 9.093 C 22.303 8.356,22.440 7.801,22.469 6.936 C 22.494 6.177,22.433 5.733,22.216 5.080 C 21.930 4.224,21.688 4.016,21.164 4.179 C 20.950 4.245,20.869 4.319,19.400 5.782 L 17.860 7.316 17.687 7.228 C 17.344 7.053,16.962 6.672,16.769 6.313 L 16.678 6.143 18.215 4.602 C 19.060 3.754,19.782 2.999,19.820 2.923 C 19.967 2.631,19.827 2.246,19.489 2.016 C 19.306 1.891,18.558 1.654,18.104 1.577 C 17.292 1.439,16.157 1.549,15.416 1.836 C 13.703 2.500,12.491 3.915,12.114 5.692 C 12.038 6.049,12.027 6.236,12.022 7.200 C 12.017 8.334,12.010 8.396,11.831 8.874 L 11.750 9.090 9.995 7.335 L 8.240 5.580 8.240 4.949 C 8.240 4.238,8.199 4.093,7.950 3.908 C 7.717 3.735,4.104 1.585,3.960 1.534 C 3.766 1.464,3.646 1.470,3.460 1.556 M17.640 3.030 C 17.640 3.047,17.090 3.609,16.418 4.280 C 15.696 5.001,15.172 5.555,15.138 5.635 C 15.058 5.820,15.065 6.002,15.165 6.336 C 15.513 7.505,16.495 8.487,17.664 8.835 C 17.979 8.929,18.178 8.941,18.347 8.878 C 18.409 8.854,19.018 8.278,19.701 7.598 C 20.383 6.917,20.955 6.360,20.971 6.360 C 20.987 6.360,21.000 6.518,21.000 6.710 C 20.998 8.346,19.978 9.777,18.442 10.299 C 17.958 10.464,17.716 10.491,16.761 10.484 C 15.490 10.475,15.103 10.536,14.460 10.841 C 14.191 10.969,13.875 11.156,13.741 11.266 C 13.581 11.397,12.290 12.934,9.798 15.961 C 7.706 18.501,6.004 20.532,5.890 20.626 C 5.568 20.889,5.299 20.976,4.800 20.976 C 4.458 20.976,4.337 20.959,4.150 20.885 C 3.711 20.712,3.288 20.289,3.115 19.850 C 3.041 19.663,3.024 19.542,3.024 19.200 C 3.024 18.709,3.107 18.445,3.360 18.124 C 3.451 18.009,5.362 16.407,8.024 14.216 C 11.132 11.656,12.596 10.426,12.737 10.254 C 12.948 9.999,13.180 9.572,13.298 9.222 C 13.468 8.716,13.494 8.486,13.505 7.394 C 13.516 6.275,13.545 5.996,13.703 5.545 C 14.028 4.611,14.710 3.829,15.580 3.390 C 15.820 3.269,16.373 3.091,16.656 3.044 C 16.916 3.000,17.640 2.990,17.640 3.030 M5.335 4.075 L 6.760 4.931 6.760 5.503 C 6.760 5.817,6.779 6.125,6.802 6.187 C 6.825 6.249,7.700 7.157,8.747 8.205 L 10.649 10.110 10.355 10.354 L 10.060 10.598 8.180 8.721 C 7.146 7.689,6.249 6.825,6.187 6.802 C 6.125 6.779,5.818 6.760,5.503 6.760 L 4.932 6.760 4.064 5.313 L 3.196 3.866 3.527 3.533 C 3.709 3.350,3.870 3.204,3.884 3.210 C 3.898 3.215,4.550 3.605,5.335 4.075 M17.825 15.130 C 19.388 16.698,20.707 18.046,20.754 18.126 C 21.440 19.276,20.761 20.762,19.440 21.001 C 18.951 21.089,18.380 20.950,17.990 20.647 C 17.875 20.557,16.575 19.277,15.102 17.804 C 12.596 15.296,12.428 15.119,12.487 15.052 C 12.521 15.012,12.976 14.458,13.498 13.820 C 14.441 12.666,14.798 12.280,14.919 12.280 C 14.953 12.280,16.261 13.563,17.825 15.130 M15.500 15.023 C 15.333 15.109,15.095 15.348,15.021 15.503 C 14.942 15.669,14.943 15.851,15.024 16.012 C 15.113 16.190,17.906 18.988,18.088 19.083 C 18.410 19.250,18.786 19.111,19.038 18.731 C 19.183 18.512,19.197 18.308,19.083 18.088 C 18.988 17.906,16.190 15.113,16.012 15.024 C 15.851 14.943,15.655 14.943,15.500 15.023 M4.450 18.466 C 4.256 18.561,4.152 18.761,4.131 19.074 C 4.097 19.606,4.393 19.903,4.924 19.869 C 5.414 19.837,5.600 19.628,5.600 19.112 C 5.600 18.776,5.523 18.610,5.310 18.480 C 5.143 18.378,4.646 18.369,4.450 18.466 " stroke="none" fill-rule="evenodd" fill="black"></path></svg>