<svg width="24" height="24" viewBox="0 0 24 24" fill="none" xmlns="http://www.w3.org/2000/svg"><path d="M16.560 1.546 C 14.303 1.893,12.578 3.501,12.114 5.692 C 12.039 6.049,12.027 6.240,12.021 7.220 C 12.015 8.322,12.013 8.345,11.907 8.667 C 11.847 8.846,11.739 9.080,11.666 9.187 C 11.569 9.329,10.337 10.366,7.018 13.101 C 3.803 15.750,2.437 16.900,2.276 17.092 C 2.009 17.409,1.808 17.777,1.658 18.220 C 1.460 18.804,1.478 19.739,1.699 20.348 C 2.034 21.273,2.913 22.095,3.860 22.368 C 4.136 22.447,4.269 22.460,4.820 22.459 C 5.416 22.458,5.482 22.450,5.780 22.346 C 6.231 22.188,6.595 21.987,6.909 21.724 C 7.101 21.562,8.228 20.222,10.848 17.039 C 12.867 14.586,14.586 12.520,14.669 12.446 C 14.863 12.274,15.120 12.144,15.443 12.054 C 15.658 11.995,15.878 11.982,16.800 11.978 C 17.763 11.973,17.951 11.962,18.308 11.886 C 20.079 11.510,21.502 10.294,22.161 8.593 C 22.451 7.842,22.561 6.712,22.423 5.896 C 22.346 5.442,22.109 4.694,21.984 4.511 C 21.754 4.173,21.369 4.033,21.077 4.180 C 21.001 4.218,20.247 4.939,19.400 5.782 L 17.860 7.316 17.687 7.228 C 17.339 7.050,16.954 6.664,16.772 6.311 L 16.684 6.140 18.198 4.620 C 19.030 3.784,19.740 3.043,19.775 2.974 C 19.927 2.670,19.893 2.344,19.689 2.149 C 19.486 1.954,18.772 1.694,18.135 1.582 C 17.811 1.526,16.839 1.503,16.560 1.546 M17.640 3.030 C 17.640 3.047,17.090 3.609,16.418 4.280 C 15.696 5.001,15.172 5.555,15.138 5.635 C 15.058 5.820,15.065 6.002,15.165 6.336 C 15.513 7.505,16.495 8.487,17.664 8.835 C 17.979 8.929,18.178 8.941,18.347 8.878 C 18.409 8.854,19.018 8.278,19.701 7.598 C 20.383 6.917,20.955 6.360,20.971 6.360 C 20.987 6.360,21.000 6.518,21.000 6.710 C 20.998 8.346,19.978 9.777,18.442 10.299 C 17.957 10.464,17.716 10.491,16.750 10.484 C 15.485 10.476,14.991 10.561,14.288 10.911 C 14.127 10.991,13.884 11.149,13.746 11.262 C 13.574 11.404,12.352 12.858,9.784 15.976 C 7.593 18.638,5.991 20.549,5.876 20.640 C 5.555 20.893,5.291 20.976,4.800 20.976 C 4.458 20.976,4.337 20.959,4.150 20.885 C 3.711 20.712,3.288 20.289,3.115 19.850 C 3.041 19.663,3.024 19.542,3.024 19.200 C 3.024 18.709,3.107 18.445,3.360 18.124 C 3.451 18.009,5.362 16.407,8.024 14.216 C 11.132 11.656,12.596 10.426,12.737 10.254 C 12.948 9.999,13.180 9.572,13.298 9.222 C 13.468 8.716,13.494 8.486,13.505 7.394 C 13.516 6.275,13.545 5.996,13.703 5.545 C 14.028 4.611,14.710 3.829,15.580 3.390 C 15.820 3.269,16.373 3.091,16.656 3.044 C 16.916 3.000,17.640 2.990,17.640 3.030 M4.450 18.466 C 4.256 18.561,4.152 18.761,4.131 19.074 C 4.097 19.606,4.393 19.903,4.924 19.869 C 5.414 19.837,5.600 19.628,5.600 19.112 C 5.600 18.776,5.523 18.610,5.310 18.480 C 5.143 18.378,4.646 18.369,4.450 18.466 " stroke="none" fill-rule="evenodd" fill="black"></path></svg>