<svg width="24" height="24" viewBox="0 0 24 24" fill="none" xmlns="http://www.w3.org/2000/svg"><path d="M11.320 2.280 C 9.441 2.407,7.648 3.082,6.084 4.252 C 5.591 4.620,4.620 5.591,4.252 6.084 C 3.226 7.456,2.607 8.935,2.357 10.608 C 2.238 11.410,2.238 12.590,2.357 13.392 C 2.607 15.065,3.226 16.544,4.252 17.916 C 4.620 18.409,5.591 19.380,6.084 19.748 C 7.457 20.775,8.938 21.395,10.608 21.642 C 11.784 21.817,13.262 21.739,14.412 21.442 C 15.680 21.115,16.841 20.553,17.916 19.748 C 18.409 19.379,19.379 18.409,19.748 17.916 C 20.773 16.548,21.395 15.063,21.642 13.392 C 21.761 12.591,21.761 11.409,21.642 10.608 C 21.395 8.937,20.773 7.452,19.748 6.084 C 19.379 5.591,18.409 4.621,17.916 4.252 C 16.786 3.406,15.392 2.757,14.120 2.486 C 13.247 2.300,12.184 2.222,11.320 2.280 M13.180 3.838 C 14.600 4.049,15.862 4.579,17.009 5.445 C 17.434 5.766,18.234 6.566,18.555 6.991 C 20.636 9.747,20.811 13.444,18.999 16.366 C 18.375 17.371,17.371 18.375,16.366 18.999 C 13.687 20.661,10.313 20.661,7.634 18.999 C 6.629 18.375,5.625 17.371,5.001 16.366 C 3.491 13.931,3.342 10.873,4.609 8.343 C 5.042 7.479,5.477 6.878,6.177 6.177 C 7.056 5.299,8.001 4.686,9.125 4.266 C 10.372 3.800,11.867 3.642,13.180 3.838 M9.500 9.023 C 9.333 9.109,9.095 9.348,9.021 9.503 C 8.942 9.669,8.943 9.851,9.025 10.012 C 9.060 10.082,9.505 10.558,10.013 11.070 L 10.938 12.000 10.013 12.930 C 9.505 13.442,9.058 13.921,9.020 13.997 C 8.923 14.189,8.958 14.446,9.108 14.631 C 9.406 14.999,9.721 15.122,10.003 14.980 C 10.079 14.942,10.558 14.495,11.070 13.987 L 12.000 13.062 12.930 13.987 C 13.442 14.495,13.921 14.942,13.997 14.980 C 14.279 15.122,14.594 14.999,14.892 14.631 C 15.042 14.446,15.077 14.189,14.980 13.997 C 14.942 13.921,14.495 13.442,13.987 12.930 L 13.062 12.000 13.987 11.070 C 14.495 10.558,14.942 10.079,14.980 10.003 C 15.077 9.811,15.042 9.554,14.892 9.369 C 14.594 9.001,14.279 8.878,13.997 9.020 C 13.921 9.058,13.442 9.505,12.930 10.013 L 12.000 10.938 11.070 10.013 C 10.558 9.505,10.082 9.060,10.012 9.025 C 9.851 8.943,9.655 8.942,9.500 9.023 " stroke="none" fill-rule="evenodd" fill="black"></path></svg>