<svg width="24" height="24" viewBox="0 0 24 24" fill="none" xmlns="http://www.w3.org/2000/svg"><path d="M5.729 5.285 C 5.520 5.388,5.294 5.645,5.233 5.848 C 5.128 6.197,5.025 6.078,8.113 9.170 L 10.939 12.000 8.113 14.830 C 5.009 17.938,5.128 17.801,5.237 18.165 C 5.304 18.388,5.618 18.700,5.835 18.759 C 6.214 18.861,6.061 18.993,9.170 15.887 L 12.000 13.061 14.830 15.887 C 17.939 18.993,17.786 18.861,18.165 18.759 C 18.386 18.699,18.699 18.386,18.759 18.165 C 18.861 17.786,18.993 17.939,15.887 14.830 L 13.061 12.000 15.887 9.170 C 18.993 6.061,18.861 6.214,18.759 5.835 C 18.700 5.618,18.388 5.304,18.165 5.237 C 17.801 5.128,17.938 5.009,14.830 8.113 L 12.000 10.939 9.190 8.131 C 7.229 6.172,6.335 5.305,6.231 5.262 C 6.033 5.179,5.933 5.184,5.729 5.285 " stroke="none" fill-rule="evenodd" fill="black"></path></svg>