<svg width="20" height="20" viewBox="0 0 20 20" fill="none" xmlns="http://www.w3.org/2000/svg"><path d="M9.813 1.263 C 9.756 1.278,9.471 1.414,9.180 1.566 C 6.705 2.859,4.451 4.328,2.333 6.028 C 1.656 6.572,1.342 6.853,1.281 6.970 C 1.136 7.252,1.197 7.601,1.432 7.833 C 1.570 7.969,1.636 8.001,2.117 8.163 C 3.200 8.528,4.456 9.037,5.450 9.514 C 5.740 9.653,5.982 9.767,5.988 9.767 C 5.995 9.767,6.000 9.639,6.000 9.482 C 6.000 8.854,6.204 8.307,6.593 7.894 C 6.930 7.536,8.552 6.478,9.981 5.683 C 10.420 5.439,10.542 5.385,10.690 5.373 C 10.929 5.353,11.126 5.432,11.295 5.615 C 11.519 5.858,11.558 6.141,11.408 6.436 C 11.296 6.657,11.235 6.702,10.400 7.174 C 9.268 7.814,7.759 8.790,7.638 8.960 C 7.517 9.130,7.496 9.290,7.507 9.947 L 7.517 10.577 8.133 10.947 C 8.473 11.150,8.961 11.455,9.219 11.623 C 9.974 12.116,10.027 12.115,10.864 11.570 C 12.999 10.183,15.200 9.105,17.683 8.231 C 18.201 8.049,18.452 7.943,18.537 7.872 C 18.753 7.690,18.843 7.388,18.768 7.100 C 18.717 6.906,18.512 6.707,17.662 6.027 C 15.490 4.288,13.271 2.843,10.800 1.557 C 10.229 1.260,10.044 1.205,9.813 1.263 M3.489 10.643 C 3.333 11.645,3.164 13.100,3.161 13.462 C 3.158 13.858,3.276 13.999,3.862 14.297 C 4.112 14.424,4.495 14.627,4.713 14.747 C 5.000 14.905,5.122 14.957,5.152 14.932 C 5.231 14.866,5.600 14.080,5.714 13.733 C 5.914 13.125,5.977 12.731,5.980 12.050 L 5.983 11.450 5.349 11.133 C 4.803 10.860,4.088 10.530,3.662 10.353 L 3.541 10.302 3.489 10.643 M16.116 10.448 C 15.487 10.719,14.682 11.104,14.067 11.431 C 13.057 11.967,12.710 12.172,11.272 13.087 C 10.668 13.471,10.075 13.577,9.440 13.413 C 9.163 13.342,8.889 13.205,8.497 12.944 C 8.306 12.817,8.010 12.625,7.838 12.518 C 7.492 12.302,7.468 12.304,7.467 12.559 C 7.467 12.735,7.386 13.279,7.315 13.586 C 7.206 14.060,6.990 14.644,6.749 15.123 C 6.435 15.745,6.422 15.763,6.324 15.701 C 5.854 15.403,5.161 14.997,5.138 15.005 C 5.121 15.012,5.018 15.137,4.908 15.283 C 4.797 15.430,4.615 15.650,4.503 15.772 C 4.391 15.894,4.270 16.059,4.234 16.139 C 3.964 16.733,4.619 17.376,5.217 17.105 C 5.389 17.026,5.886 16.501,6.180 16.087 C 6.318 15.892,6.422 15.776,6.445 15.789 C 6.571 15.861,7.245 16.323,7.600 16.580 C 8.068 16.919,8.824 17.519,9.300 17.927 C 9.877 18.423,10.119 18.423,10.700 17.929 C 12.424 16.462,14.257 15.239,16.154 14.289 C 16.859 13.937,16.897 13.843,16.783 12.745 C 16.707 12.013,16.482 10.340,16.455 10.311 C 16.452 10.308,16.300 10.370,16.116 10.448 " fill="#0F172A" stroke="none" fill-rule="evenodd"></path></svg>