<svg width="20" height="20" viewBox="0 0 20 20" fill="none" xmlns="http://www.w3.org/2000/svg"><path d="M7.509 1.815 C 6.877 1.968,6.305 2.503,6.098 3.135 C 5.982 3.489,5.982 4.011,6.098 4.365 C 6.197 4.668,6.444 5.045,6.677 5.251 C 6.874 5.425,7.297 5.640,7.563 5.701 C 7.793 5.754,8.207 5.754,8.437 5.701 C 8.703 5.640,9.126 5.425,9.323 5.251 C 9.556 5.045,9.803 4.668,9.902 4.365 C 9.968 4.163,9.983 4.049,9.983 3.750 C 9.983 3.451,9.968 3.337,9.902 3.135 C 9.797 2.815,9.545 2.440,9.296 2.233 C 9.069 2.043,8.695 1.856,8.440 1.803 C 8.209 1.755,7.729 1.761,7.509 1.815 M2.505 3.038 C 2.443 3.056,2.321 3.143,2.233 3.231 C 2.014 3.450,1.953 3.680,2.036 3.979 C 2.084 4.151,2.341 4.406,2.521 4.459 C 2.710 4.516,4.290 4.516,4.479 4.459 C 4.750 4.379,5.000 4.039,5.000 3.750 C 5.000 3.461,4.750 3.121,4.479 3.041 C 4.313 2.991,2.675 2.989,2.505 3.038 M11.505 3.038 C 11.443 3.056,11.321 3.143,11.233 3.231 C 11.014 3.450,10.953 3.680,11.036 3.979 C 11.084 4.151,11.341 4.406,11.521 4.459 C 11.718 4.518,17.282 4.518,17.479 4.459 C 17.750 4.379,18.000 4.039,18.000 3.750 C 18.000 3.461,17.750 3.121,17.479 3.041 C 17.307 2.990,11.682 2.987,11.505 3.038 M11.567 8.052 C 10.681 8.243,10.001 9.089,10.001 10.000 C 10.001 11.079,10.921 11.999,12.000 11.999 C 12.920 11.999,13.761 11.316,13.950 10.417 C 14.092 9.738,13.898 9.092,13.403 8.597 C 12.907 8.101,12.248 7.905,11.567 8.052 M2.398 9.343 C 2.128 9.485,1.964 9.824,2.017 10.134 C 2.050 10.328,2.223 10.565,2.398 10.657 L 2.546 10.734 5.534 10.726 L 8.522 10.717 8.659 10.626 C 9.095 10.337,9.095 9.663,8.659 9.374 L 8.522 9.283 5.534 9.274 L 2.546 9.266 2.398 9.343 M15.399 9.342 C 15.222 9.435,15.050 9.671,15.017 9.866 C 14.964 10.177,15.128 10.515,15.399 10.658 C 15.548 10.736,15.556 10.736,16.535 10.726 L 17.522 10.717 17.659 10.626 C 18.095 10.337,18.095 9.663,17.659 9.374 L 17.522 9.283 16.535 9.274 C 15.556 9.264,15.548 9.264,15.399 9.342 M7.505 14.315 C 6.990 14.440,6.490 14.837,6.246 15.317 C 6.061 15.679,6.017 15.859,6.017 16.250 C 6.017 16.641,6.061 16.821,6.246 17.183 C 6.433 17.551,6.732 17.843,7.104 18.025 C 7.432 18.185,7.640 18.233,8.000 18.233 C 8.360 18.233,8.568 18.185,8.896 18.025 C 9.379 17.789,9.728 17.372,9.920 16.800 C 10.005 16.545,10.005 15.955,9.920 15.700 C 9.728 15.128,9.379 14.711,8.896 14.475 C 8.742 14.400,8.537 14.323,8.440 14.303 C 8.207 14.255,7.728 14.262,7.505 14.315 M2.505 15.538 C 2.443 15.556,2.321 15.643,2.233 15.731 C 2.014 15.950,1.953 16.180,2.036 16.479 C 2.084 16.651,2.341 16.906,2.521 16.959 C 2.710 17.016,4.290 17.016,4.479 16.959 C 4.750 16.879,5.000 16.539,5.000 16.250 C 5.000 15.961,4.750 15.621,4.479 15.541 C 4.313 15.491,2.675 15.489,2.505 15.538 M11.505 15.538 C 11.443 15.556,11.321 15.643,11.233 15.731 C 11.014 15.950,10.953 16.180,11.036 16.479 C 11.084 16.651,11.341 16.906,11.521 16.959 C 11.624 16.990,12.358 17.000,14.500 17.000 C 16.642 17.000,17.376 16.990,17.479 16.959 C 17.750 16.879,18.000 16.539,18.000 16.250 C 18.000 15.961,17.750 15.621,17.479 15.541 C 17.307 15.490,11.682 15.487,11.505 15.538 " fill="#0F172A" stroke="none" fill-rule="evenodd"></path></svg>