<svg width="20" height="20" viewBox="0 0 20 20" fill="none" xmlns="http://www.w3.org/2000/svg"><path d="M3.505 2.038 C 3.350 2.083,3.081 2.360,3.036 2.521 C 2.986 2.701,2.986 8.299,3.036 8.479 C 3.109 8.741,3.463 9.000,3.750 9.000 C 4.039 9.000,4.379 8.750,4.459 8.479 C 4.518 8.282,4.518 2.718,4.459 2.521 C 4.435 2.438,4.358 2.323,4.268 2.232 C 4.055 2.020,3.797 1.954,3.505 2.038 M9.758 2.046 C 9.567 2.117,9.414 2.249,9.335 2.413 C 9.266 2.555,9.264 2.596,9.274 3.541 L 9.283 4.522 9.374 4.659 C 9.663 5.095,10.337 5.095,10.626 4.659 L 10.717 4.522 10.717 3.500 L 10.717 2.478 10.626 2.341 C 10.449 2.073,10.049 1.937,9.758 2.046 M16.007 2.038 C 15.847 2.084,15.581 2.355,15.537 2.517 C 15.485 2.705,15.486 8.297,15.537 8.483 C 15.612 8.755,15.950 9.000,16.250 9.000 C 16.550 9.000,16.888 8.755,16.963 8.483 C 17.014 8.297,17.015 2.705,16.963 2.517 C 16.940 2.432,16.870 2.329,16.771 2.233 C 16.552 2.020,16.295 1.955,16.007 2.038 M9.567 6.052 C 8.681 6.243,8.001 7.089,8.001 8.000 C 8.001 9.079,8.921 9.999,10.000 9.999 C 10.920 9.999,11.761 9.316,11.950 8.417 C 12.092 7.738,11.898 7.092,11.403 6.597 C 10.907 6.101,10.248 5.905,9.567 6.052 M3.467 10.020 C 3.230 10.063,3.058 10.122,2.817 10.246 C 2.449 10.433,2.157 10.732,1.975 11.104 C 1.815 11.432,1.767 11.640,1.767 12.000 C 1.767 12.360,1.815 12.568,1.975 12.896 C 2.211 13.379,2.628 13.728,3.200 13.920 C 3.455 14.005,4.045 14.005,4.300 13.920 C 4.872 13.728,5.289 13.379,5.525 12.896 C 5.685 12.568,5.733 12.360,5.733 12.000 C 5.733 11.640,5.685 11.432,5.525 11.104 C 5.292 10.627,4.837 10.244,4.309 10.082 C 4.146 10.031,3.616 9.993,3.467 10.020 M15.967 10.020 C 15.730 10.063,15.558 10.122,15.317 10.246 C 14.949 10.433,14.657 10.732,14.475 11.104 C 14.315 11.432,14.267 11.640,14.267 12.000 C 14.267 12.360,14.315 12.568,14.475 12.896 C 14.711 13.379,15.128 13.728,15.700 13.920 C 15.955 14.005,16.545 14.005,16.800 13.920 C 17.372 13.728,17.789 13.379,18.025 12.896 C 18.185 12.568,18.233 12.360,18.233 12.000 C 18.233 11.640,18.185 11.432,18.025 11.104 C 17.792 10.627,17.337 10.244,16.809 10.082 C 16.646 10.031,16.116 9.993,15.967 10.020 M9.758 11.046 C 9.568 11.117,9.414 11.249,9.336 11.411 C 9.266 11.556,9.266 11.560,9.274 14.539 L 9.283 17.522 9.374 17.659 C 9.663 18.095,10.337 18.095,10.626 17.659 L 10.717 17.522 10.717 14.500 L 10.717 11.478 10.626 11.341 C 10.449 11.073,10.049 10.937,9.758 11.046 M3.505 15.038 C 3.350 15.083,3.081 15.360,3.036 15.521 C 2.988 15.693,2.988 17.307,3.036 17.479 C 3.109 17.741,3.463 18.000,3.750 18.000 C 4.039 18.000,4.379 17.750,4.459 17.479 C 4.516 17.290,4.516 15.710,4.459 15.521 C 4.435 15.438,4.358 15.323,4.268 15.232 C 4.055 15.020,3.797 14.954,3.505 15.038 M16.005 15.038 C 15.850 15.083,15.581 15.360,15.536 15.521 C 15.515 15.598,15.500 15.995,15.500 16.500 C 15.500 17.005,15.515 17.402,15.536 17.479 C 15.609 17.741,15.963 18.000,16.250 18.000 C 16.539 18.000,16.879 17.750,16.959 17.479 C 17.016 17.290,17.016 15.710,16.959 15.521 C 16.935 15.438,16.858 15.323,16.768 15.232 C 16.555 15.020,16.297 14.954,16.005 15.038 " fill="#0F172A" stroke="none" fill-rule="evenodd"></path></svg>