<svg width="20" height="20" viewBox="0 0 20 20" fill="none" xmlns="http://www.w3.org/2000/svg"><path d="M1.678 3.062 C 1.369 3.169,1.164 3.376,1.051 3.696 C 1.012 3.808,1.000 3.993,1.000 4.503 C 1.000 5.097,1.007 5.183,1.071 5.355 C 1.166 5.609,1.391 5.834,1.645 5.929 L 1.836 6.000 10.000 6.000 L 18.164 6.000 18.355 5.929 C 18.609 5.834,18.834 5.609,18.929 5.355 C 18.993 5.183,19.000 5.097,19.000 4.500 C 19.000 3.917,18.992 3.814,18.933 3.657 C 18.842 3.414,18.670 3.223,18.441 3.110 L 18.250 3.017 10.050 3.009 C 2.246 3.002,1.842 3.005,1.678 3.062 M2.000 7.525 C 2.000 7.539,2.187 9.313,2.415 11.467 C 2.727 14.420,2.845 15.437,2.897 15.600 C 2.995 15.912,3.185 16.211,3.434 16.445 C 3.696 16.692,3.974 16.846,4.320 16.934 C 4.571 16.998,4.709 17.000,10.000 17.000 C 15.291 17.000,15.429 16.998,15.680 16.934 C 16.352 16.762,16.899 16.249,17.103 15.600 C 17.155 15.437,17.273 14.420,17.585 11.467 C 17.813 9.313,18.000 7.539,18.000 7.525 C 18.000 7.511,14.400 7.500,10.000 7.500 C 5.600 7.500,2.000 7.511,2.000 7.525 M10.386 9.116 C 10.468 9.164,10.576 9.265,10.626 9.341 L 10.717 9.478 10.726 10.875 C 10.731 11.643,10.748 12.267,10.763 12.261 C 10.778 12.255,11.014 12.004,11.287 11.703 C 11.795 11.143,11.923 11.042,12.166 11.009 C 12.596 10.952,13.001 11.332,13.000 11.790 C 12.999 12.013,12.845 12.212,11.672 13.517 C 10.404 14.925,10.321 15.000,10.011 15.000 C 9.674 15.000,9.637 14.968,8.413 13.608 C 7.792 12.918,7.236 12.293,7.177 12.219 C 6.931 11.905,6.951 11.512,7.229 11.235 C 7.474 10.989,7.791 10.937,8.092 11.091 C 8.164 11.129,8.425 11.385,8.713 11.703 C 8.986 12.004,9.222 12.255,9.238 12.261 C 9.254 12.267,9.267 11.661,9.267 10.913 C 9.267 9.600,9.269 9.549,9.337 9.410 C 9.518 9.035,10.012 8.897,10.386 9.116 " fill="#0F172A" stroke="none" fill-rule="evenodd"></path></svg>