<svg width="20" height="20" viewBox="0 0 20 20" fill="none" xmlns="http://www.w3.org/2000/svg"><path d="M1.678 3.062 C 1.369 3.169,1.164 3.376,1.051 3.696 C 1.012 3.808,1.000 3.993,1.000 4.503 C 1.000 5.097,1.007 5.183,1.071 5.355 C 1.166 5.609,1.391 5.834,1.645 5.929 L 1.836 6.000 10.000 6.000 L 18.164 6.000 18.355 5.929 C 18.609 5.834,18.834 5.609,18.929 5.355 C 18.993 5.183,19.000 5.097,19.000 4.500 C 19.000 3.917,18.992 3.814,18.933 3.657 C 18.842 3.414,18.670 3.223,18.441 3.110 L 18.250 3.017 10.050 3.009 C 2.246 3.002,1.842 3.005,1.678 3.062 M2.014 7.625 C 2.024 7.694,2.213 9.471,2.434 11.574 C 2.725 14.347,2.853 15.456,2.900 15.608 C 3.104 16.264,3.704 16.807,4.383 16.950 C 4.734 17.023,15.266 17.023,15.617 16.950 C 16.296 16.807,16.896 16.264,17.100 15.608 C 17.147 15.456,17.275 14.347,17.566 11.574 C 17.787 9.471,17.976 7.694,17.986 7.625 L 18.006 7.500 10.000 7.500 L 1.994 7.500 2.014 7.625 M12.355 10.071 C 12.726 10.210,13.000 10.604,13.000 11.000 C 13.000 11.396,12.726 11.790,12.355 11.929 C 12.167 11.999,12.131 12.000,10.000 12.000 C 7.869 12.000,7.833 11.999,7.645 11.929 C 7.274 11.790,7.000 11.396,7.000 11.000 C 7.000 10.610,7.273 10.212,7.635 10.073 C 7.812 10.005,7.869 10.003,9.990 10.002 C 12.133 10.000,12.167 10.001,12.355 10.071 " fill="#0F172A" stroke="none" fill-rule="evenodd"></path></svg>