<svg width="20" height="20" viewBox="0 0 20 20" fill="none" xmlns="http://www.w3.org/2000/svg"><path d="M1.678 3.062 C 1.369 3.169,1.164 3.376,1.051 3.696 C 1.012 3.808,1.000 3.993,1.000 4.503 C 1.000 5.097,1.007 5.183,1.071 5.355 C 1.166 5.609,1.391 5.834,1.645 5.929 L 1.836 6.000 10.000 6.000 L 18.164 6.000 18.355 5.929 C 18.609 5.834,18.834 5.609,18.929 5.355 C 18.993 5.183,19.000 5.097,19.000 4.500 C 19.000 3.917,18.992 3.814,18.933 3.657 C 18.842 3.414,18.670 3.223,18.441 3.110 L 18.250 3.017 10.050 3.009 C 2.246 3.002,1.842 3.005,1.678 3.062 M2.014 7.625 C 2.024 7.694,2.213 9.471,2.434 11.574 C 2.725 14.347,2.853 15.456,2.900 15.608 C 3.104 16.264,3.704 16.807,4.383 16.950 C 4.734 17.023,15.266 17.023,15.617 16.950 C 16.296 16.807,16.896 16.264,17.100 15.608 C 17.147 15.456,17.275 14.347,17.566 11.574 C 17.787 9.471,17.976 7.694,17.986 7.625 L 18.006 7.500 10.000 7.500 L 1.994 7.500 2.014 7.625 M7.983 9.037 C 8.094 9.067,8.274 9.229,9.058 10.011 L 10.000 10.948 10.942 10.011 C 11.929 9.027,11.964 9.000,12.250 9.000 C 12.650 9.000,12.999 9.351,13.000 9.754 C 13.000 10.030,12.940 10.108,11.974 11.075 L 11.051 11.999 11.989 12.941 C 12.974 13.930,12.999 13.963,13.000 14.252 C 13.001 14.644,12.644 15.000,12.250 15.000 C 11.964 15.000,11.929 14.973,10.942 13.989 L 10.000 13.052 9.058 13.989 C 8.071 14.973,8.036 15.000,7.750 15.000 C 7.352 15.000,7.000 14.648,7.000 14.250 C 7.000 13.964,7.027 13.929,8.011 12.942 L 8.948 12.000 8.011 11.058 C 7.229 10.274,7.067 10.094,7.037 9.983 C 6.958 9.692,7.014 9.451,7.211 9.244 C 7.420 9.024,7.679 8.954,7.983 9.037 " fill="#0F172A" stroke="none" fill-rule="evenodd"></path></svg>