<svg width="20" height="20" viewBox="0 0 20 20" fill="none" xmlns="http://www.w3.org/2000/svg"><path d="M4.783 2.053 C 4.654 2.080,4.409 2.171,4.233 2.258 C 3.789 2.478,3.471 2.795,3.254 3.235 C 2.983 3.785,3.001 3.291,3.001 10.000 C 3.001 16.709,2.983 16.215,3.254 16.765 C 3.472 17.207,3.793 17.528,4.235 17.746 C 4.765 18.008,4.635 17.999,8.000 17.999 C 11.365 17.999,11.235 18.008,11.765 17.746 C 12.207 17.528,12.528 17.207,12.746 16.765 C 12.984 16.284,12.999 16.166,12.999 14.817 C 12.999 14.074,12.986 13.602,12.963 13.517 C 12.892 13.255,12.537 13.000,12.246 13.000 C 11.956 13.001,11.609 13.253,11.537 13.517 C 11.514 13.601,11.500 14.056,11.500 14.746 C 11.500 15.517,11.488 15.883,11.459 15.979 C 11.404 16.164,11.156 16.416,10.983 16.463 C 10.797 16.514,5.203 16.514,5.017 16.463 C 4.842 16.415,4.583 16.151,4.535 15.972 C 4.510 15.880,4.502 14.032,4.508 9.923 L 4.517 4.006 4.618 3.862 C 4.673 3.783,4.783 3.673,4.862 3.618 L 5.006 3.517 7.911 3.507 C 10.144 3.500,10.851 3.507,10.967 3.539 C 11.159 3.592,11.403 3.830,11.459 4.021 C 11.488 4.116,11.500 4.488,11.500 5.254 C 11.500 5.952,11.514 6.398,11.537 6.483 C 11.612 6.755,11.950 7.000,12.250 7.000 C 12.550 7.000,12.888 6.755,12.963 6.483 C 13.022 6.270,13.011 4.077,12.950 3.783 C 12.885 3.471,12.644 2.994,12.432 2.757 C 12.122 2.411,11.655 2.146,11.193 2.052 C 10.826 1.978,5.147 1.979,4.783 2.053 M9.017 7.041 C 8.858 7.097,8.815 7.133,7.465 8.348 C 6.650 9.081,6.153 9.553,6.100 9.642 C 5.982 9.842,5.982 10.158,6.100 10.358 C 6.198 10.523,8.751 12.836,8.929 12.920 C 9.316 13.104,9.759 12.931,9.932 12.528 C 10.019 12.326,10.010 12.106,9.907 11.904 C 9.872 11.836,9.604 11.565,9.297 11.287 C 8.996 11.014,8.745 10.778,8.739 10.762 C 8.733 10.747,10.932 10.730,13.625 10.725 L 18.522 10.717 18.659 10.626 C 19.095 10.337,19.095 9.663,18.659 9.374 L 18.522 9.283 13.625 9.275 C 10.893 9.270,8.733 9.253,8.739 9.237 C 8.745 9.221,8.991 8.991,9.285 8.726 C 9.579 8.460,9.846 8.202,9.879 8.153 C 9.911 8.103,9.954 7.983,9.975 7.886 C 10.088 7.345,9.535 6.857,9.017 7.041 " fill="#0F172A" stroke="none" fill-rule="evenodd"></path></svg>