<svg width="20" height="20" viewBox="0 0 20 20" fill="none" xmlns="http://www.w3.org/2000/svg"><path d="M9.433 2.019 C 9.369 2.027,9.177 2.049,9.007 2.069 C 7.090 2.292,5.164 3.324,3.941 4.782 C 2.913 6.007,2.318 7.311,2.078 8.867 C 1.995 9.402,1.995 10.598,2.078 11.133 C 2.628 14.691,5.309 17.372,8.867 17.922 C 9.402 18.005,10.598 18.005,11.133 17.922 C 12.644 17.689,14.032 17.061,15.183 16.090 C 16.447 15.024,17.377 13.512,17.778 11.866 C 17.938 11.208,17.982 10.810,17.982 10.000 C 17.982 9.447,17.966 9.149,17.922 8.867 C 17.533 6.348,16.075 4.235,13.882 3.012 C 13.033 2.539,12.144 2.239,11.133 2.084 C 10.800 2.033,9.680 1.991,9.433 2.019 M10.367 6.106 C 10.440 6.149,11.241 6.983,12.170 7.983 C 13.869 9.813,13.999 9.970,14.000 10.210 C 14.001 10.544,13.758 10.889,13.467 10.967 C 13.292 11.014,13.046 10.992,12.902 10.918 C 12.846 10.889,12.348 10.378,11.794 9.783 C 11.241 9.187,10.776 8.700,10.761 8.700 C 10.747 8.700,10.731 9.786,10.726 11.114 L 10.717 13.528 10.616 13.671 C 10.485 13.857,10.218 14.000,10.002 14.000 C 9.781 14.000,9.512 13.858,9.384 13.672 L 9.283 13.528 9.274 11.114 C 9.269 9.786,9.253 8.700,9.239 8.700 C 9.224 8.700,8.759 9.187,8.206 9.783 C 7.652 10.378,7.154 10.889,7.098 10.918 C 6.954 10.992,6.708 11.014,6.533 10.967 C 6.242 10.889,5.999 10.544,6.000 10.210 C 6.001 9.971,6.132 9.811,7.797 8.017 C 8.698 7.045,9.480 6.215,9.534 6.171 C 9.766 5.985,10.117 5.957,10.367 6.106 " fill="#0F172A" stroke="none" fill-rule="evenodd"></path></svg>