<svg width="20" height="20" viewBox="0 0 20 20" fill="none" xmlns="http://www.w3.org/2000/svg"><path d="M6.507 5.038 C 6.347 5.084,6.081 5.355,6.037 5.517 C 5.954 5.819,6.015 6.057,6.229 6.271 C 6.324 6.367,6.434 6.440,6.517 6.463 C 6.609 6.488,7.532 6.500,9.550 6.500 L 12.450 6.500 8.761 10.192 C 4.834 14.122,5.000 13.942,5.000 14.250 C 5.000 14.648,5.352 15.000,5.750 15.000 C 6.058 15.000,5.878 15.166,9.808 11.239 L 13.500 7.550 13.500 10.450 C 13.500 12.468,13.512 13.391,13.537 13.483 C 13.612 13.755,13.950 14.000,14.250 14.000 C 14.550 14.000,14.888 13.755,14.963 13.483 C 15.014 13.297,15.015 5.706,14.963 5.517 C 14.916 5.344,14.664 5.096,14.479 5.041 C 14.309 4.990,6.684 4.987,6.507 5.038 " fill="#0F172A" stroke="none" fill-rule="evenodd"></path></svg>