<svg width="20" height="20" viewBox="0 0 20 20" fill="none" xmlns="http://www.w3.org/2000/svg"><path d="M13.501 2.044 C 13.324 2.100,13.081 2.355,13.033 2.533 C 12.984 2.718,13.004 2.923,13.090 3.090 C 13.131 3.169,13.552 3.587,14.219 4.208 C 14.804 4.753,15.288 5.214,15.294 5.233 C 15.302 5.255,13.810 5.269,10.889 5.275 L 6.472 5.283 6.328 5.384 C 6.144 5.511,6.000 5.781,6.000 5.998 C 6.001 6.293,6.196 6.580,6.483 6.706 C 6.564 6.741,7.436 6.753,10.944 6.767 L 15.305 6.783 14.225 7.787 C 13.110 8.823,13.040 8.904,13.008 9.182 C 12.971 9.514,13.217 9.881,13.533 9.967 C 13.705 10.013,13.954 9.993,14.090 9.921 C 14.141 9.894,15.001 9.113,16.000 8.186 C 17.968 6.361,18.000 6.325,18.000 6.000 C 18.000 5.675,17.966 5.638,16.017 3.829 C 14.703 2.609,14.172 2.137,14.050 2.079 C 13.871 1.995,13.691 1.983,13.501 2.044 M5.950 10.079 C 5.828 10.137,5.294 10.612,3.967 11.845 C 2.009 13.663,2.001 13.672,2.001 14.000 C 2.001 14.330,2.007 14.336,3.983 16.171 C 4.992 17.107,5.859 17.895,5.910 17.922 C 5.962 17.948,6.074 17.979,6.160 17.989 C 6.630 18.044,7.044 17.643,6.992 17.182 C 6.960 16.904,6.890 16.823,5.775 15.787 L 4.695 14.783 9.056 14.767 L 13.417 14.750 13.578 14.671 C 13.751 14.585,13.905 14.404,13.969 14.210 C 14.061 13.930,13.919 13.546,13.659 13.374 L 13.522 13.283 9.111 13.275 C 6.685 13.270,4.700 13.254,4.700 13.239 C 4.700 13.224,5.185 12.761,5.777 12.211 C 6.512 11.528,6.874 11.169,6.915 11.081 C 7.062 10.772,7.010 10.464,6.772 10.233 C 6.523 9.992,6.245 9.940,5.950 10.079 " fill="#0F172A" stroke="none" fill-rule="evenodd"></path></svg>