<svg width="20" height="20" viewBox="0 0 20 20" fill="none" xmlns="http://www.w3.org/2000/svg"><path d="M9.758 5.046 C 9.564 5.118,9.414 5.250,9.328 5.424 L 9.250 5.583 9.241 8.975 L 9.232 12.367 8.237 11.272 C 7.690 10.670,7.189 10.144,7.123 10.104 C 6.747 9.871,6.190 10.080,6.048 10.506 C 5.985 10.695,5.998 10.936,6.079 11.090 C 6.106 11.141,6.887 12.001,7.814 13.000 C 9.639 14.968,9.675 15.000,10.000 15.000 C 10.326 15.000,10.359 14.969,12.200 12.984 C 13.979 11.066,14.000 11.039,14.000 10.748 C 14.000 10.327,13.598 9.967,13.176 10.010 C 13.078 10.020,12.945 10.062,12.878 10.103 C 12.812 10.144,12.310 10.670,11.762 11.273 L 10.767 12.368 10.766 9.059 C 10.765 6.923,10.753 5.697,10.731 5.600 C 10.683 5.390,10.561 5.219,10.386 5.116 C 10.204 5.010,9.936 4.979,9.758 5.046 " fill="#0F172A" stroke="none" fill-rule="evenodd"></path></svg>