<svg width="20" height="20" viewBox="0 0 20 20" fill="none" xmlns="http://www.w3.org/2000/svg"><path d="M7.761 1.045 C 7.694 1.070,7.601 1.119,7.554 1.153 C 7.433 1.244,5.139 3.798,5.081 3.908 C 4.936 4.180,4.997 4.529,5.231 4.770 C 5.459 5.005,5.812 5.066,6.097 4.918 C 6.178 4.876,6.876 4.143,7.163 3.799 L 7.231 3.717 7.232 4.858 L 7.233 6.000 6.149 6.000 C 4.869 6.000,4.712 6.021,4.233 6.258 C 3.789 6.478,3.471 6.795,3.254 7.235 C 2.996 7.758,3.001 7.691,3.001 10.500 C 3.001 13.309,2.996 13.242,3.254 13.765 C 3.472 14.207,3.793 14.528,4.235 14.746 C 4.765 15.008,4.635 14.999,8.000 14.999 C 11.365 14.999,11.235 15.008,11.765 14.746 C 12.207 14.528,12.528 14.207,12.746 13.765 C 13.004 13.242,12.999 13.309,12.999 10.500 C 12.999 7.700,13.003 7.755,12.753 7.250 C 12.514 6.766,12.168 6.436,11.656 6.199 C 11.280 6.025,11.049 6.000,9.851 6.000 L 8.767 6.000 8.768 4.858 L 8.769 3.717 8.837 3.799 C 9.124 4.143,9.822 4.876,9.903 4.918 C 10.188 5.066,10.541 5.005,10.769 4.770 C 11.020 4.511,11.069 4.140,10.888 3.868 C 10.728 3.628,8.497 1.182,8.368 1.106 C 8.206 1.010,7.928 0.982,7.761 1.045 M8.726 8.264 L 8.717 10.528 8.616 10.671 C 8.485 10.857,8.218 11.000,8.002 11.000 C 7.781 11.000,7.512 10.858,7.384 10.672 L 7.283 10.528 7.274 8.264 L 7.265 6.000 8.000 6.000 L 8.735 6.000 8.726 8.264 M14.500 11.492 C 14.500 12.637,14.488 13.059,14.450 13.310 C 14.209 14.911,12.971 16.171,11.369 16.446 C 11.103 16.492,10.744 16.500,9.027 16.500 L 7.000 16.500 7.001 16.742 C 7.003 17.591,7.486 18.376,8.235 18.746 C 8.765 19.008,8.635 18.999,12.000 18.999 C 15.365 18.999,15.235 19.008,15.765 18.746 C 16.207 18.528,16.528 18.207,16.746 17.765 C 17.004 17.242,16.999 17.309,16.999 14.500 C 16.999 12.451,16.990 11.976,16.950 11.783 C 16.885 11.471,16.644 10.994,16.432 10.757 C 16.015 10.292,15.355 10.000,14.718 10.000 L 14.500 10.000 14.500 11.492 " fill="#0F172A" stroke="none" fill-rule="evenodd"></path></svg>