<svg width="20" height="20" viewBox="0 0 20 20" fill="none" xmlns="http://www.w3.org/2000/svg"><path d="M9.433 2.019 C 9.369 2.027,9.177 2.049,9.007 2.069 C 7.090 2.292,5.164 3.324,3.941 4.782 C 2.913 6.007,2.318 7.311,2.078 8.867 C 1.995 9.402,1.995 10.598,2.078 11.133 C 2.628 14.691,5.309 17.372,8.867 17.922 C 9.402 18.005,10.598 18.005,11.133 17.922 C 12.644 17.689,14.032 17.061,15.183 16.090 C 16.447 15.024,17.377 13.512,17.778 11.866 C 17.938 11.208,17.982 10.810,17.982 10.000 C 17.982 9.447,17.966 9.149,17.922 8.867 C 17.533 6.348,16.075 4.235,13.882 3.012 C 13.033 2.539,12.144 2.239,11.133 2.084 C 10.800 2.033,9.680 1.991,9.433 2.019 M10.050 6.079 C 10.263 6.180,13.773 9.429,13.900 9.643 C 13.966 9.754,13.983 9.829,13.983 10.000 C 13.983 10.171,13.966 10.246,13.900 10.357 C 13.810 10.508,10.254 13.835,10.090 13.921 C 9.955 13.992,9.706 14.013,9.540 13.968 C 9.229 13.885,8.974 13.510,9.011 13.193 C 9.022 13.105,9.056 12.979,9.088 12.912 C 9.125 12.833,9.526 12.437,10.225 11.787 L 11.305 10.783 8.943 10.767 L 6.581 10.750 6.416 10.665 C 6.128 10.518,5.963 10.187,6.017 9.866 C 6.049 9.673,6.223 9.435,6.397 9.344 L 6.544 9.267 8.925 9.267 C 10.512 9.267,11.302 9.255,11.294 9.233 C 11.288 9.215,10.804 8.753,10.219 8.208 C 9.587 7.619,9.130 7.168,9.093 7.096 C 8.985 6.886,8.979 6.668,9.075 6.458 C 9.257 6.061,9.671 5.900,10.050 6.079 " fill="#0F172A" stroke="none" fill-rule="evenodd"></path></svg>