<svg width="20" height="20" viewBox="0 0 20 20" fill="none" xmlns="http://www.w3.org/2000/svg"><path d="M9.433 2.019 C 9.369 2.027,9.177 2.049,9.007 2.069 C 7.090 2.292,5.164 3.324,3.941 4.782 C 2.913 6.007,2.318 7.311,2.078 8.867 C 1.995 9.402,1.995 10.598,2.078 11.133 C 2.628 14.691,5.309 17.372,8.867 17.922 C 9.402 18.005,10.598 18.005,11.133 17.922 C 12.644 17.689,14.032 17.061,15.183 16.090 C 16.447 15.024,17.377 13.512,17.778 11.866 C 17.938 11.208,17.982 10.810,17.982 10.000 C 17.982 9.447,17.966 9.149,17.922 8.867 C 17.533 6.348,16.075 4.235,13.882 3.012 C 13.033 2.539,12.144 2.239,11.133 2.084 C 10.800 2.033,9.680 1.991,9.433 2.019 M10.471 6.039 C 10.781 6.132,11.026 6.494,10.989 6.807 C 10.978 6.895,10.944 7.021,10.912 7.088 C 10.875 7.167,10.475 7.563,9.777 8.211 C 9.185 8.761,8.700 9.224,8.700 9.239 C 8.700 9.254,9.770 9.267,11.078 9.267 L 13.456 9.267 13.603 9.344 C 13.777 9.435,13.951 9.673,13.983 9.866 C 14.037 10.187,13.872 10.518,13.584 10.665 L 13.419 10.750 11.057 10.767 L 8.695 10.783 9.775 11.787 C 10.474 12.437,10.875 12.833,10.912 12.912 C 10.944 12.979,10.978 13.105,10.989 13.193 C 11.026 13.510,10.771 13.885,10.460 13.968 C 10.295 14.013,10.045 13.992,9.910 13.922 C 9.745 13.836,6.191 10.511,6.100 10.359 C 5.982 10.158,5.982 9.842,6.100 9.643 C 6.227 9.429,9.737 6.180,9.950 6.079 C 10.135 5.992,10.278 5.981,10.471 6.039 " fill="#0F172A" stroke="none" fill-rule="evenodd"></path></svg>