<svg width="20" height="20" viewBox="0 0 20 20" fill="none" xmlns="http://www.w3.org/2000/svg"><path d="M5.950 6.079 C 5.828 6.137,5.294 6.612,3.967 7.845 C 2.009 9.663,2.001 9.672,2.001 10.000 C 2.001 10.330,2.007 10.336,3.983 12.171 C 4.992 13.107,5.859 13.895,5.910 13.922 C 5.962 13.948,6.074 13.979,6.160 13.989 C 6.630 14.044,7.044 13.643,6.992 13.182 C 6.960 12.904,6.890 12.823,5.775 11.787 L 4.695 10.783 11.056 10.767 L 17.417 10.750 17.578 10.671 C 17.751 10.585,17.905 10.404,17.969 10.210 C 18.061 9.930,17.919 9.546,17.659 9.374 L 17.522 9.283 11.111 9.275 C 7.585 9.270,4.700 9.254,4.700 9.239 C 4.700 9.224,5.185 8.761,5.777 8.211 C 6.512 7.528,6.874 7.169,6.915 7.081 C 7.062 6.772,7.010 6.464,6.772 6.233 C 6.523 5.992,6.245 5.940,5.950 6.079 " fill="#0F172A" stroke="none" fill-rule="evenodd"></path></svg>