<svg width="20" height="20" viewBox="0 0 20 20" fill="none" xmlns="http://www.w3.org/2000/svg"><path d="M9.758 1.046 C 9.564 1.118,9.414 1.250,9.328 1.424 L 9.250 1.583 9.241 4.292 L 9.232 7.000 7.648 7.000 C 5.816 7.000,5.738 7.008,5.233 7.258 C 4.789 7.478,4.471 7.795,4.254 8.235 C 3.988 8.775,4.001 8.521,4.001 13.000 C 4.001 17.479,3.988 17.225,4.254 17.765 C 4.472 18.207,4.793 18.528,5.235 18.746 C 5.775 19.012,5.521 18.999,10.000 18.999 C 14.479 18.999,14.225 19.012,14.765 18.746 C 15.207 18.528,15.528 18.207,15.746 17.765 C 16.012 17.225,15.999 17.479,15.999 13.000 C 15.999 8.533,16.011 8.772,15.753 8.250 C 15.514 7.766,15.168 7.436,14.656 7.199 C 14.255 7.014,14.092 7.000,12.351 7.000 L 10.767 7.000 10.766 4.375 C 10.765 2.706,10.753 1.695,10.731 1.600 C 10.683 1.390,10.561 1.219,10.386 1.116 C 10.204 1.010,9.936 0.979,9.758 1.046 M10.733 9.636 C 10.733 11.191,10.746 12.268,10.763 12.261 C 10.780 12.255,11.243 11.776,11.793 11.197 C 12.810 10.127,12.905 10.044,13.171 10.008 C 13.596 9.952,14.001 10.334,14.000 10.790 C 13.999 11.029,13.869 11.188,12.171 13.017 C 10.366 14.962,10.324 15.000,10.005 15.000 C 9.671 14.999,9.665 14.993,7.864 13.052 C 6.946 12.063,6.167 11.213,6.132 11.165 C 6.019 11.005,5.982 10.798,6.031 10.581 C 6.110 10.227,6.480 9.962,6.829 10.008 C 7.093 10.044,7.190 10.127,8.206 11.197 C 8.756 11.776,9.220 12.255,9.237 12.261 C 9.254 12.268,9.267 11.187,9.267 9.636 L 9.267 7.000 10.000 7.000 L 10.733 7.000 10.733 9.636 " fill="#0F172A" stroke="none" fill-rule="evenodd"></path></svg>