<svg width="20" height="20" viewBox="0 0 20 20" fill="none" xmlns="http://www.w3.org/2000/svg"><path d="M12.505 2.038 C 12.443 2.056,12.321 2.143,12.233 2.231 C 12.014 2.450,11.953 2.680,12.036 2.979 C 12.084 3.151,12.341 3.406,12.521 3.459 C 12.619 3.488,13.035 3.500,13.980 3.500 L 15.302 3.500 10.755 7.615 C 8.254 9.878,6.175 11.775,6.136 11.830 C 6.096 11.886,6.047 12.012,6.026 12.110 C 5.972 12.370,6.035 12.572,6.232 12.767 C 6.473 13.008,6.754 13.061,7.050 12.921 C 7.172 12.863,8.470 11.707,11.850 8.648 L 16.483 4.454 16.500 5.971 L 16.517 7.488 16.607 7.625 C 16.895 8.060,17.412 8.123,17.768 7.768 C 17.858 7.677,17.935 7.562,17.959 7.479 C 18.018 7.283,18.018 2.717,17.959 2.521 C 17.906 2.340,17.660 2.094,17.479 2.041 C 17.308 1.990,12.681 1.987,12.505 2.038 M3.783 4.053 C 3.654 4.080,3.409 4.171,3.233 4.258 C 2.789 4.478,2.471 4.795,2.254 5.235 C 1.986 5.778,2.001 5.464,2.001 10.500 C 2.001 15.536,1.986 15.222,2.254 15.765 C 2.472 16.207,2.793 16.528,3.235 16.746 C 3.778 17.014,3.464 16.999,8.500 16.999 C 13.536 16.999,13.222 17.014,13.765 16.746 C 14.207 16.528,14.528 16.207,14.746 15.765 C 15.001 15.248,14.999 15.274,14.999 12.817 C 15.000 11.350,14.988 10.607,14.963 10.517 C 14.892 10.255,14.537 10.000,14.246 10.000 C 13.956 10.001,13.609 10.253,13.537 10.517 C 13.512 10.607,13.500 11.332,13.500 12.746 C 13.500 14.309,13.490 14.877,13.459 14.979 C 13.404 15.164,13.156 15.416,12.983 15.463 C 12.796 15.515,4.204 15.515,4.017 15.463 C 3.842 15.415,3.583 15.151,3.535 14.972 C 3.510 14.880,3.502 13.479,3.508 10.423 L 3.517 6.006 3.618 5.862 C 3.673 5.783,3.783 5.673,3.862 5.618 L 4.006 5.517 6.745 5.500 C 9.806 5.481,9.570 5.501,9.809 5.238 C 9.988 5.040,10.040 4.797,9.963 4.517 C 9.916 4.344,9.664 4.096,9.479 4.041 C 9.265 3.977,4.103 3.988,3.783 4.053 " fill="#0F172A" stroke="none" fill-rule="evenodd"></path></svg>