<svg width="20" height="20" viewBox="0 0 20 20" fill="none" xmlns="http://www.w3.org/2000/svg"><path d="M9.758 3.048 C 9.566 3.116,9.415 3.249,9.328 3.424 L 9.250 3.583 9.233 8.967 L 9.217 14.351 7.235 12.272 C 6.146 11.128,5.199 10.156,5.132 10.112 C 4.762 9.867,4.191 10.074,4.048 10.506 C 3.985 10.695,3.998 10.935,4.078 11.090 C 4.105 11.141,5.336 12.451,6.813 14.000 C 9.704 17.031,9.671 17.000,10.000 17.000 C 10.329 17.000,10.295 17.032,13.199 13.988 C 16.056 10.991,16.000 11.056,16.000 10.748 C 16.000 10.325,15.598 9.967,15.173 10.011 C 15.063 10.022,14.945 10.061,14.869 10.111 C 14.802 10.156,13.854 11.128,12.765 12.272 L 10.783 14.351 10.767 8.967 L 10.750 3.583 10.672 3.424 C 10.549 3.176,10.274 3.003,10.000 3.003 C 9.936 3.003,9.827 3.023,9.758 3.048 " fill="#0F172A" stroke="none" fill-rule="evenodd"></path></svg>