<svg width="20" height="20" viewBox="0 0 20 20" fill="none" xmlns="http://www.w3.org/2000/svg"><path d="M13.967 5.069 C 13.850 5.121,13.011 5.941,10.158 8.793 L 6.500 12.450 6.500 9.550 C 6.500 7.554,6.488 6.608,6.463 6.517 C 6.392 6.255,6.037 6.000,5.746 6.000 C 5.456 6.001,5.109 6.253,5.037 6.517 C 4.985 6.706,4.986 14.297,5.037 14.483 C 5.086 14.660,5.340 14.914,5.517 14.963 C 5.705 15.015,13.295 15.015,13.483 14.963 C 13.755 14.888,14.000 14.550,14.000 14.250 C 14.000 13.950,13.762 13.626,13.479 13.541 C 13.375 13.510,12.643 13.500,10.446 13.500 L 7.550 13.500 11.224 9.825 C 14.356 6.693,14.906 6.128,14.949 6.004 C 15.083 5.620,14.925 5.253,14.550 5.078 C 14.346 4.983,14.164 4.980,13.967 5.069 " fill="#0F172A" stroke="none" fill-rule="evenodd"></path></svg>