<svg width="20" height="20" viewBox="0 0 20 20" fill="none" xmlns="http://www.w3.org/2000/svg"><path d="M9.761 5.045 C 9.694 5.070,9.601 5.119,9.554 5.153 C 9.420 5.253,6.134 8.806,6.079 8.910 C 5.875 9.298,6.117 9.854,6.539 9.968 C 6.716 10.016,6.971 9.989,7.112 9.908 C 7.169 9.875,7.670 9.349,8.225 8.740 L 9.233 7.632 9.233 10.931 C 9.233 13.152,9.245 14.284,9.269 14.397 C 9.343 14.742,9.655 14.999,10.002 15.000 C 10.338 15.000,10.658 14.736,10.731 14.397 C 10.755 14.284,10.767 13.152,10.767 10.931 L 10.767 7.633 11.775 8.740 C 12.330 9.349,12.831 9.875,12.888 9.908 C 13.048 10.000,13.294 10.018,13.493 9.952 C 13.906 9.815,14.121 9.289,13.920 8.908 C 13.840 8.755,10.507 5.189,10.368 5.106 C 10.206 5.010,9.928 4.982,9.761 5.045 " fill="#0F172A" stroke="none" fill-rule="evenodd"></path></svg>