<svg width="20" height="20" viewBox="0 0 20 20" fill="none" xmlns="http://www.w3.org/2000/svg"><path d="M2.450 2.078 C 2.086 2.248,1.930 2.589,2.036 2.983 C 2.067 3.097,2.320 3.365,3.761 4.808 L 5.449 6.500 4.050 6.500 C 3.165 6.500,2.603 6.513,2.523 6.536 C 2.249 6.612,2.000 6.952,2.000 7.250 C 2.000 7.550,2.245 7.888,2.517 7.963 C 2.703 8.014,7.297 8.014,7.483 7.963 C 7.660 7.914,7.914 7.660,7.963 7.483 C 8.014 7.298,8.014 2.704,7.963 2.517 C 7.892 2.255,7.537 2.000,7.246 2.000 C 6.956 2.001,6.609 2.253,6.537 2.517 C 6.513 2.603,6.500 3.140,6.500 4.050 L 6.500 5.450 4.842 3.793 C 3.095 2.048,3.041 2.002,2.750 2.001 C 2.677 2.001,2.542 2.036,2.450 2.078 M12.505 2.038 C 12.350 2.083,12.081 2.360,12.036 2.521 C 11.986 2.700,11.986 7.300,12.036 7.479 C 12.084 7.651,12.341 7.906,12.521 7.959 C 12.717 8.018,17.283 8.018,17.479 7.959 C 17.750 7.879,18.000 7.539,18.000 7.250 C 18.000 6.961,17.750 6.621,17.479 6.541 C 17.381 6.511,16.949 6.500,15.946 6.500 L 14.550 6.500 16.207 4.842 C 17.952 3.095,17.998 3.041,17.999 2.750 C 17.999 2.595,17.877 2.315,17.763 2.210 C 17.643 2.101,17.400 2.001,17.250 2.001 C 16.959 2.001,16.905 2.048,15.158 3.793 L 13.500 5.450 13.500 4.054 C 13.500 3.051,13.489 2.619,13.459 2.521 C 13.435 2.438,13.358 2.323,13.268 2.232 C 13.055 2.020,12.797 1.954,12.505 2.038 M2.505 12.038 C 2.443 12.056,2.321 12.143,2.233 12.231 C 2.014 12.450,1.953 12.680,2.036 12.979 C 2.084 13.151,2.341 13.406,2.521 13.459 C 2.619 13.489,3.051 13.500,4.054 13.500 L 5.450 13.500 3.793 15.158 C 2.048 16.905,2.001 16.959,2.001 17.250 C 2.001 17.400,2.101 17.643,2.210 17.763 C 2.311 17.872,2.592 17.999,2.733 17.999 C 3.051 18.000,3.007 18.037,4.808 16.239 L 6.500 14.552 6.500 15.951 C 6.500 16.848,6.513 17.396,6.536 17.479 C 6.609 17.741,6.963 18.000,7.250 18.000 C 7.539 18.000,7.879 17.750,7.959 17.479 C 8.018 17.283,8.018 12.717,7.959 12.521 C 7.906 12.340,7.660 12.094,7.479 12.041 C 7.308 11.990,2.681 11.987,2.505 12.038 M12.505 12.038 C 12.350 12.083,12.081 12.360,12.036 12.521 C 11.986 12.700,11.986 17.300,12.036 17.479 C 12.109 17.741,12.463 18.000,12.750 18.000 C 13.039 18.000,13.379 17.750,13.459 17.479 C 13.489 17.381,13.500 16.949,13.500 15.946 L 13.500 14.550 15.158 16.207 C 16.887 17.935,16.961 17.998,17.233 17.999 C 17.634 18.001,18.000 17.643,17.999 17.250 C 17.998 16.959,17.952 16.905,16.207 15.158 L 14.550 13.500 15.946 13.500 C 16.949 13.500,17.381 13.489,17.479 13.459 C 17.750 13.379,18.000 13.039,18.000 12.750 C 18.000 12.461,17.750 12.121,17.479 12.041 C 17.308 11.990,12.681 11.987,12.505 12.038 " fill="#0F172A" stroke="none" fill-rule="evenodd"></path></svg>