<svg width="20" height="20" viewBox="0 0 20 20" fill="none" xmlns="http://www.w3.org/2000/svg"><path d="M10.507 4.038 C 10.446 4.055,10.324 4.140,10.235 4.226 C 10.002 4.452,9.946 4.697,10.054 5.013 C 10.103 5.157,10.305 5.359,12.229 7.193 C 13.396 8.304,14.355 9.226,14.361 9.240 C 14.367 9.254,11.920 9.270,8.922 9.275 L 3.472 9.283 3.328 9.384 C 3.144 9.511,3.000 9.781,3.000 9.998 C 3.001 10.293,3.196 10.580,3.483 10.706 C 3.564 10.742,4.612 10.753,8.967 10.767 L 14.351 10.783 12.229 12.805 C 10.304 14.641,10.103 14.842,10.054 14.986 C 9.948 15.298,10.003 15.545,10.229 15.771 C 10.453 15.995,10.702 16.052,11.007 15.948 C 11.136 15.904,11.584 15.491,13.988 13.199 C 17.032 10.295,17.000 10.329,17.000 10.000 C 17.000 9.671,17.030 9.703,14.017 6.828 C 11.855 4.766,11.179 4.139,11.050 4.079 C 10.876 3.997,10.695 3.983,10.507 4.038 " fill="#0F172A" stroke="none" fill-rule="evenodd"></path></svg>