<svg width="20" height="20" viewBox="0 0 20 20" fill="none" xmlns="http://www.w3.org/2000/svg"><path d="M9.754 1.047 C 9.683 1.073,9.575 1.137,9.513 1.189 C 9.332 1.342,6.131 4.808,6.080 4.908 C 5.937 5.183,5.998 5.529,6.231 5.770 C 6.459 6.005,6.812 6.066,7.097 5.918 C 7.152 5.890,7.597 5.435,8.086 4.908 C 8.575 4.381,9.033 3.890,9.104 3.817 L 9.233 3.684 9.233 5.342 L 9.233 7.000 7.649 7.000 C 5.816 7.000,5.738 7.008,5.233 7.258 C 4.789 7.478,4.471 7.795,4.254 8.235 C 3.988 8.775,4.001 8.521,4.001 13.000 C 4.001 17.479,3.988 17.225,4.254 17.765 C 4.472 18.207,4.793 18.528,5.235 18.746 C 5.775 19.012,5.521 18.999,10.000 18.999 C 14.479 18.999,14.225 19.012,14.765 18.746 C 15.207 18.528,15.528 18.207,15.746 17.765 C 16.012 17.225,15.999 17.479,15.999 13.000 C 15.999 8.533,16.011 8.772,15.753 8.250 C 15.514 7.766,15.168 7.436,14.656 7.199 C 14.255 7.014,14.092 7.000,12.351 7.000 L 10.767 7.000 10.768 5.342 L 10.768 3.683 11.076 4.014 C 12.409 5.449,12.797 5.854,12.888 5.908 C 13.030 5.990,13.283 6.016,13.467 5.967 C 13.669 5.913,13.905 5.671,13.965 5.456 C 14.014 5.281,13.995 5.050,13.920 4.908 C 13.840 4.755,10.507 1.189,10.368 1.106 C 10.203 1.009,9.928 0.982,9.754 1.047 M10.726 9.764 L 10.717 12.528 10.616 12.671 C 10.485 12.857,10.218 13.000,10.002 13.000 C 9.781 13.000,9.512 12.858,9.384 12.672 L 9.283 12.528 9.274 9.764 L 9.266 7.000 10.000 7.000 L 10.734 7.000 10.726 9.764 " fill="#0F172A" stroke="none" fill-rule="evenodd"></path></svg>