<svg width="20" height="20" viewBox="0 0 20 20" fill="none" xmlns="http://www.w3.org/2000/svg"><path d="M9.758 2.048 C 9.566 2.116,9.415 2.249,9.328 2.424 L 9.250 2.583 9.233 6.955 L 9.217 11.327 7.713 9.737 C 6.680 8.643,6.170 8.127,6.081 8.085 C 5.789 7.946,5.482 7.996,5.230 8.223 C 5.008 8.424,4.939 8.821,5.078 9.090 C 5.105 9.141,6.110 10.226,7.313 11.500 C 9.672 14.000,9.672 14.000,10.000 14.000 C 10.328 14.000,10.328 14.000,12.687 11.500 C 13.890 10.226,14.894 9.142,14.920 9.092 C 14.993 8.952,15.014 8.718,14.967 8.552 C 14.838 8.091,14.253 7.857,13.867 8.112 C 13.798 8.158,13.076 8.900,12.263 9.762 L 10.783 11.328 10.767 6.956 L 10.750 2.583 10.672 2.424 C 10.506 2.087,10.107 1.923,9.758 2.048 M2.505 12.038 C 2.350 12.083,2.081 12.360,2.036 12.521 C 1.989 12.690,1.988 15.370,2.035 15.667 C 2.220 16.844,3.156 17.780,4.333 17.965 C 4.475 17.988,6.440 17.999,10.000 17.999 C 13.560 17.999,15.525 17.988,15.667 17.965 C 16.844 17.780,17.780 16.844,17.965 15.667 C 18.016 15.345,18.011 12.694,17.959 12.521 C 17.902 12.326,17.659 12.092,17.458 12.036 C 17.134 11.945,16.827 12.064,16.618 12.362 L 16.517 12.506 16.500 14.028 L 16.483 15.550 16.389 15.753 C 16.270 16.011,16.013 16.268,15.750 16.390 L 15.550 16.483 10.000 16.483 L 4.450 16.483 4.233 16.380 C 4.114 16.323,3.951 16.211,3.870 16.130 C 3.789 16.049,3.677 15.886,3.620 15.767 L 3.517 15.550 3.500 14.050 C 3.481 12.367,3.487 12.409,3.229 12.188 C 3.027 12.015,2.771 11.962,2.505 12.038 " fill="#0F172A" stroke="none" fill-rule="evenodd"></path></svg>