<svg width="20" height="20" viewBox="0 0 20 20" fill="none" xmlns="http://www.w3.org/2000/svg"><path d="M9.754 2.047 C 9.683 2.073,9.575 2.137,9.513 2.189 C 9.332 2.342,6.131 5.808,6.080 5.908 C 5.937 6.183,5.998 6.529,6.231 6.770 C 6.460 7.006,6.812 7.066,7.098 6.918 C 7.154 6.889,7.654 6.377,8.208 5.780 L 9.217 4.695 9.233 11.056 C 9.247 16.220,9.258 17.435,9.294 17.517 C 9.463 17.901,9.901 18.098,10.258 17.949 C 10.454 17.867,10.588 17.746,10.672 17.576 L 10.750 17.417 10.767 11.057 L 10.783 4.698 11.783 5.772 C 12.333 6.363,12.831 6.875,12.888 6.908 C 13.030 6.990,13.284 7.016,13.467 6.967 C 13.669 6.913,13.905 6.671,13.965 6.456 C 14.014 6.281,13.995 6.050,13.920 5.908 C 13.840 5.755,10.507 2.189,10.368 2.106 C 10.203 2.009,9.928 1.982,9.754 2.047 " fill="#0F172A" stroke="none" fill-rule="evenodd"></path></svg>