<svg width="20" height="20" viewBox="0 0 20 20" fill="none" xmlns="http://www.w3.org/2000/svg"><path d="M12.033 1.037 C 10.203 1.244,8.604 2.369,7.798 4.017 C 7.596 4.431,7.418 4.969,7.325 5.450 C 7.256 5.811,7.254 5.892,7.236 11.079 L 7.217 16.342 5.212 14.244 C 3.883 12.852,3.165 12.123,3.079 12.081 C 2.903 11.993,2.555 11.994,2.417 12.082 C 2.223 12.205,2.101 12.346,2.047 12.510 C 1.985 12.695,1.998 12.936,2.078 13.090 C 2.105 13.141,3.336 14.451,4.813 16.000 C 7.704 19.031,7.671 19.000,8.000 19.000 C 8.329 19.000,8.296 19.031,11.187 16.000 C 12.664 14.451,13.895 13.141,13.922 13.090 C 14.002 12.935,14.015 12.695,13.952 12.506 C 13.811 12.081,13.253 11.871,12.879 12.102 C 12.816 12.142,11.868 13.112,10.773 14.258 L 8.783 16.343 8.774 15.546 C 8.769 15.108,8.769 12.717,8.774 10.233 L 8.783 5.717 8.877 5.383 C 9.095 4.603,9.561 3.879,10.157 3.391 C 11.317 2.442,12.917 2.238,14.260 2.868 C 15.456 3.428,16.305 4.590,16.463 5.883 C 16.485 6.063,16.500 6.818,16.500 7.767 C 16.500 8.821,16.513 9.395,16.537 9.483 C 16.612 9.755,16.950 10.000,17.250 10.000 C 17.557 10.000,17.889 9.754,17.965 9.471 C 17.994 9.365,18.001 8.833,17.991 7.505 C 17.978 5.801,17.972 5.662,17.906 5.352 C 17.604 3.947,16.864 2.804,15.733 1.996 C 14.681 1.244,13.321 0.891,12.033 1.037 " fill="#0F172A" stroke="none" fill-rule="evenodd"></path></svg>