<svg width="20" height="20" viewBox="0 0 20 20" fill="none" xmlns="http://www.w3.org/2000/svg"><path d="M9.758 2.048 C 9.566 2.116,9.415 2.249,9.328 2.424 L 9.250 2.583 9.233 8.944 L 9.217 15.305 8.213 14.225 C 7.163 13.095,7.094 13.036,6.798 13.007 C 6.480 12.977,6.123 13.231,6.033 13.552 C 5.986 13.718,6.007 13.952,6.080 14.092 C 6.106 14.142,6.885 15.001,7.812 16.000 C 9.639 17.969,9.673 18.000,10.000 18.000 C 10.325 18.000,10.361 17.968,12.186 16.000 C 13.113 15.001,13.894 14.142,13.920 14.092 C 14.050 13.845,14.005 13.495,13.814 13.273 C 13.590 13.011,13.214 12.934,12.912 13.089 C 12.830 13.131,12.420 13.544,11.783 14.228 L 10.783 15.302 10.767 8.943 L 10.750 2.583 10.672 2.424 C 10.506 2.087,10.107 1.923,9.758 2.048 " fill="#0F172A" stroke="none" fill-rule="evenodd"></path></svg>