<svg width="20" height="20" viewBox="0 0 20 20" fill="none" xmlns="http://www.w3.org/2000/svg"><path d="M1.566 5.029 C 1.129 5.172,0.919 5.549,1.036 5.983 C 1.067 6.098,1.448 6.493,3.811 8.861 C 5.487 10.539,6.602 11.632,6.683 11.674 C 6.852 11.762,7.137 11.767,7.300 11.686 C 7.364 11.653,8.273 10.772,9.320 9.727 L 11.223 7.827 11.492 8.205 C 12.347 9.412,13.094 10.791,13.671 12.231 C 13.861 12.704,14.239 13.806,14.218 13.826 C 14.210 13.834,13.601 13.492,12.864 13.066 C 12.127 12.641,11.474 12.272,11.413 12.246 C 10.926 12.043,10.330 12.514,10.413 13.036 C 10.440 13.204,10.534 13.393,10.638 13.488 C 10.721 13.564,14.919 15.998,15.150 16.104 C 15.299 16.173,15.490 16.183,15.671 16.133 C 15.935 16.059,16.005 15.955,17.287 13.733 C 17.959 12.569,18.544 11.542,18.587 11.450 C 18.634 11.351,18.666 11.221,18.666 11.131 C 18.667 10.915,18.523 10.644,18.340 10.518 C 18.047 10.315,17.555 10.378,17.352 10.645 C 17.308 10.703,16.925 11.350,16.502 12.083 C 16.078 12.817,15.720 13.421,15.707 13.425 C 15.693 13.430,15.616 13.235,15.537 12.992 C 14.909 11.075,14.099 9.397,13.033 7.800 C 12.366 6.802,11.824 6.123,11.621 6.031 C 11.453 5.954,11.175 5.948,11.007 6.018 C 10.921 6.053,10.290 6.662,8.942 8.009 L 7.000 9.950 4.592 7.545 C 3.267 6.222,2.134 5.115,2.073 5.085 C 1.942 5.019,1.683 4.991,1.566 5.029 " fill="#0F172A" stroke="none" fill-rule="evenodd"></path></svg>