<svg width="20" height="20" viewBox="0 0 20 20" fill="none" xmlns="http://www.w3.org/2000/svg"><path d="M9.433 2.019 C 9.369 2.027,9.177 2.049,9.007 2.069 C 7.090 2.292,5.164 3.324,3.941 4.782 C 2.913 6.007,2.318 7.311,2.078 8.867 C 1.995 9.402,1.995 10.598,2.078 11.133 C 2.628 14.691,5.309 17.372,8.867 17.922 C 9.402 18.005,10.598 18.005,11.133 17.922 C 12.644 17.689,14.032 17.061,15.183 16.090 C 16.447 15.024,17.377 13.512,17.778 11.866 C 17.938 11.208,17.982 10.810,17.982 10.000 C 17.982 9.447,17.966 9.149,17.922 8.867 C 17.533 6.348,16.075 4.235,13.882 3.012 C 13.033 2.539,12.144 2.239,11.133 2.084 C 10.800 2.033,9.680 1.991,9.433 2.019 M10.386 6.116 C 10.468 6.164,10.576 6.266,10.626 6.341 L 10.717 6.478 10.726 8.889 C 10.731 10.215,10.747 11.300,10.761 11.300 C 10.776 11.300,11.239 10.815,11.789 10.223 C 12.477 9.483,12.831 9.126,12.920 9.084 C 13.427 8.843,14.002 9.218,14.000 9.790 C 13.999 10.029,13.869 10.188,12.171 12.017 C 10.362 13.966,10.325 14.000,10.000 14.000 C 9.675 14.000,9.638 13.966,7.829 12.017 C 5.906 9.945,5.929 9.977,6.037 9.550 C 6.116 9.236,6.479 8.977,6.798 9.007 C 7.094 9.036,7.163 9.095,8.211 10.223 C 8.761 10.815,9.224 11.300,9.239 11.300 C 9.254 11.300,9.267 10.232,9.267 8.927 C 9.267 6.584,9.268 6.553,9.337 6.410 C 9.518 6.035,10.012 5.897,10.386 6.116 " fill="#0F172A" stroke="none" fill-rule="evenodd"></path></svg>