<svg width="20" height="20" viewBox="0 0 20 20" fill="none" xmlns="http://www.w3.org/2000/svg"><path d="M7.052 2.024 C 7.016 2.033,6.934 2.074,6.868 2.116 C 6.803 2.157,5.490 3.392,3.950 4.862 C 0.939 7.735,1.001 7.668,1.000 8.005 C 1.000 8.328,0.974 8.301,4.012 11.199 C 6.416 13.491,6.864 13.904,6.993 13.948 C 7.298 14.052,7.547 13.995,7.771 13.771 C 7.997 13.545,8.052 13.298,7.946 12.986 C 7.897 12.842,7.696 12.640,5.775 10.805 L 3.658 8.783 4.454 8.774 C 4.892 8.769,7.282 8.769,9.767 8.774 L 14.283 8.783 14.615 8.877 C 15.714 9.186,16.644 9.956,17.114 10.946 C 17.841 12.479,17.508 14.266,16.278 15.437 C 15.822 15.870,15.296 16.172,14.696 16.346 C 14.212 16.485,13.985 16.500,12.273 16.500 C 11.231 16.500,10.604 16.513,10.523 16.536 C 10.249 16.612,10.000 16.952,10.000 17.250 C 10.000 17.557,10.246 17.889,10.529 17.965 C 10.635 17.994,11.167 18.001,12.495 17.991 C 14.199 17.978,14.338 17.972,14.648 17.906 C 16.881 17.426,18.510 15.766,18.921 13.550 C 19.014 13.050,19.006 12.076,18.904 11.600 C 18.574 10.053,17.687 8.799,16.361 8.004 C 15.862 7.705,15.355 7.507,14.700 7.356 L 14.383 7.284 9.003 7.267 L 3.623 7.250 5.758 5.211 C 7.694 3.362,7.897 3.158,7.946 3.014 C 8.053 2.700,7.997 2.452,7.771 2.233 C 7.567 2.034,7.308 1.959,7.052 2.024 " fill="#0F172A" stroke="none" fill-rule="evenodd"></path></svg>