<svg width="20" height="20" viewBox="0 0 20 20" fill="none" xmlns="http://www.w3.org/2000/svg"><path d="M15.883 2.201 C 15.718 2.226,15.577 2.299,15.460 2.422 C 15.270 2.622,15.267 2.650,15.267 4.053 L 15.267 5.341 14.930 5.029 C 14.263 4.410,13.821 4.096,13.130 3.749 C 11.728 3.045,10.135 2.835,8.583 3.150 C 8.032 3.261,7.534 3.432,6.983 3.697 C 6.172 4.088,5.613 4.490,4.981 5.138 C 4.270 5.869,3.785 6.632,3.439 7.567 C 3.235 8.120,3.187 8.342,3.234 8.536 C 3.290 8.771,3.438 8.956,3.644 9.052 C 3.908 9.175,4.155 9.153,4.400 8.984 C 4.556 8.875,4.632 8.736,4.780 8.283 C 5.415 6.353,7.029 4.960,9.075 4.578 C 9.300 4.536,9.556 4.520,10.017 4.521 C 10.573 4.521,10.701 4.532,11.070 4.610 C 12.209 4.850,13.190 5.390,14.016 6.231 L 14.215 6.433 12.899 6.434 C 11.690 6.435,11.573 6.440,11.450 6.497 C 11.084 6.666,10.916 7.139,11.096 7.492 C 11.188 7.672,11.404 7.851,11.583 7.897 C 11.818 7.956,16.010 7.947,16.209 7.887 C 16.420 7.824,16.550 7.723,16.658 7.539 L 16.750 7.383 16.750 5.050 L 16.750 2.717 16.656 2.558 C 16.499 2.289,16.204 2.153,15.883 2.201 M15.821 10.899 C 15.664 10.949,15.483 11.093,15.409 11.225 C 15.371 11.294,15.286 11.515,15.219 11.717 C 14.588 13.624,13.066 14.964,11.029 15.405 C 10.733 15.469,10.585 15.480,10.000 15.480 C 9.420 15.479,9.264 15.468,8.967 15.404 C 7.791 15.154,6.798 14.607,5.968 13.754 L 5.786 13.567 7.101 13.566 C 8.310 13.565,8.427 13.560,8.550 13.503 C 8.815 13.381,8.976 13.118,8.974 12.812 C 8.971 12.535,8.812 12.294,8.533 12.145 C 8.423 12.087,8.297 12.083,6.117 12.083 L 3.817 12.083 3.657 12.162 C 3.482 12.248,3.349 12.400,3.281 12.592 C 3.215 12.775,3.215 17.125,3.281 17.308 C 3.472 17.845,4.149 17.990,4.540 17.578 C 4.730 17.378,4.733 17.350,4.733 15.949 L 4.733 14.662 5.142 15.037 C 5.366 15.244,5.677 15.506,5.832 15.621 C 7.965 17.200,10.817 17.438,13.181 16.235 C 13.863 15.887,14.439 15.457,15.019 14.862 C 15.571 14.294,15.973 13.726,16.300 13.050 C 16.463 12.714,16.738 11.955,16.780 11.725 C 16.829 11.460,16.668 11.129,16.419 10.983 C 16.255 10.887,15.980 10.848,15.821 10.899 " fill="#0F172A" stroke="none" fill-rule="evenodd"></path></svg>