<svg width="20" height="20" viewBox="0 0 20 20" fill="none" xmlns="http://www.w3.org/2000/svg"><path d="M5.754 2.047 C 5.683 2.073,5.575 2.137,5.513 2.189 C 5.332 2.342,2.131 5.808,2.080 5.908 C 1.937 6.183,1.998 6.529,2.231 6.770 C 2.460 7.006,2.812 7.066,3.098 6.918 C 3.154 6.889,3.654 6.377,4.208 5.780 L 5.217 4.695 5.233 9.056 C 5.247 12.564,5.259 13.436,5.294 13.517 C 5.463 13.901,5.901 14.098,6.258 13.949 C 6.454 13.867,6.588 13.746,6.672 13.576 L 6.750 13.417 6.767 9.057 L 6.783 4.698 7.783 5.772 C 8.333 6.363,8.831 6.875,8.888 6.908 C 9.030 6.990,9.284 7.016,9.467 6.967 C 9.669 6.913,9.905 6.671,9.965 6.456 C 10.014 6.281,9.995 6.050,9.920 5.908 C 9.840 5.755,6.507 2.189,6.368 2.106 C 6.203 2.009,5.928 1.982,5.754 2.047 M13.758 6.048 C 13.566 6.116,13.415 6.249,13.328 6.424 L 13.250 6.583 13.233 10.944 L 13.217 15.305 12.213 14.225 C 11.163 13.095,11.094 13.036,10.798 13.007 C 10.480 12.977,10.123 13.231,10.033 13.552 C 9.986 13.718,10.007 13.952,10.080 14.092 C 10.106 14.142,10.885 15.001,11.812 16.000 C 13.639 17.969,13.673 18.000,14.000 18.000 C 14.325 18.000,14.361 17.968,16.186 16.000 C 17.113 15.001,17.894 14.142,17.920 14.092 C 18.050 13.845,18.005 13.495,17.814 13.273 C 17.590 13.011,17.214 12.934,16.912 13.089 C 16.830 13.131,16.420 13.544,15.783 14.228 L 14.783 15.302 14.767 10.943 L 14.750 6.583 14.672 6.424 C 14.549 6.176,14.274 6.003,14.000 6.003 C 13.936 6.003,13.827 6.023,13.758 6.048 " fill="#0F172A" stroke="none" fill-rule="evenodd"></path></svg>