<svg width="20" height="20" viewBox="0 0 20 20" fill="none" xmlns="http://www.w3.org/2000/svg"><path d="M4.783 2.053 C 4.654 2.080,4.409 2.171,4.233 2.258 C 3.789 2.478,3.471 2.795,3.254 3.235 C 2.983 3.785,3.001 3.291,3.001 10.000 C 3.001 16.709,2.983 16.215,3.254 16.765 C 3.472 17.207,3.793 17.528,4.235 17.746 C 4.765 18.008,4.635 17.999,8.000 17.999 C 11.365 17.999,11.235 18.008,11.765 17.746 C 12.207 17.528,12.528 17.207,12.746 16.765 C 12.984 16.284,12.999 16.166,12.999 14.817 C 12.999 14.074,12.986 13.602,12.963 13.517 C 12.892 13.255,12.537 13.000,12.246 13.000 C 11.956 13.001,11.609 13.253,11.537 13.517 C 11.514 13.601,11.500 14.056,11.500 14.746 C 11.500 15.517,11.488 15.883,11.459 15.979 C 11.404 16.164,11.156 16.416,10.983 16.463 C 10.797 16.514,5.203 16.514,5.017 16.463 C 4.842 16.415,4.583 16.151,4.535 15.972 C 4.510 15.880,4.502 14.032,4.508 9.923 L 4.517 4.006 4.618 3.862 C 4.673 3.783,4.783 3.673,4.862 3.618 L 5.006 3.517 7.911 3.507 C 10.144 3.500,10.851 3.507,10.967 3.539 C 11.159 3.592,11.403 3.830,11.459 4.021 C 11.488 4.116,11.500 4.488,11.500 5.254 C 11.500 5.952,11.514 6.398,11.537 6.483 C 11.612 6.755,11.950 7.000,12.250 7.000 C 12.550 7.000,12.888 6.755,12.963 6.483 C 13.022 6.270,13.011 4.077,12.950 3.783 C 12.885 3.471,12.644 2.994,12.432 2.757 C 12.122 2.411,11.655 2.146,11.193 2.052 C 10.826 1.978,5.147 1.979,4.783 2.053 M15.500 7.042 C 15.321 7.102,15.088 7.353,15.034 7.547 C 14.982 7.735,15.019 7.997,15.121 8.153 C 15.154 8.202,15.421 8.460,15.715 8.726 C 16.009 8.991,16.255 9.221,16.261 9.237 C 16.267 9.253,14.107 9.270,11.375 9.275 L 6.478 9.283 6.341 9.374 C 5.905 9.663,5.905 10.337,6.341 10.626 L 6.478 10.717 11.375 10.725 C 14.107 10.730,16.267 10.747,16.261 10.763 C 16.255 10.779,16.009 11.009,15.715 11.274 C 15.421 11.540,15.154 11.798,15.121 11.847 C 15.089 11.897,15.046 12.017,15.025 12.114 C 14.972 12.369,15.036 12.572,15.232 12.767 C 15.473 13.008,15.754 13.061,16.050 12.920 C 16.272 12.815,18.781 10.559,18.900 10.358 C 19.018 10.158,19.018 9.842,18.900 9.642 C 18.801 9.475,16.249 7.164,16.067 7.078 C 15.921 7.008,15.654 6.991,15.500 7.042 " fill="#0F172A" stroke="none" fill-rule="evenodd"></path></svg>