<svg width="20" height="20" viewBox="0 0 20 20" fill="none" xmlns="http://www.w3.org/2000/svg"><path d="M7.758 1.046 C 7.564 1.118,7.414 1.250,7.328 1.424 L 7.250 1.583 7.241 3.792 L 7.232 6.000 6.148 6.000 C 4.869 6.000,4.712 6.021,4.233 6.258 C 3.789 6.478,3.471 6.795,3.254 7.235 C 2.996 7.758,3.001 7.691,3.001 10.500 C 3.001 13.309,2.996 13.242,3.254 13.765 C 3.472 14.207,3.793 14.528,4.235 14.746 C 4.765 15.008,4.635 14.999,8.000 14.999 C 11.365 14.999,11.235 15.008,11.765 14.746 C 12.207 14.528,12.528 14.207,12.746 13.765 C 13.004 13.242,12.999 13.309,12.999 10.500 C 12.999 7.700,13.003 7.755,12.753 7.250 C 12.514 6.766,12.168 6.436,11.656 6.199 C 11.280 6.025,11.049 6.000,9.851 6.000 L 8.767 6.000 8.766 3.875 C 8.765 2.547,8.752 1.694,8.731 1.600 C 8.683 1.390,8.561 1.219,8.386 1.116 C 8.204 1.010,7.936 0.979,7.758 1.046 M8.733 7.636 C 8.733 8.538,8.746 9.267,8.762 9.261 C 8.778 9.255,9.014 9.004,9.287 8.703 C 9.795 8.143,9.923 8.042,10.166 8.009 C 10.596 7.952,11.001 8.332,11.000 8.790 C 10.999 9.013,10.845 9.212,9.672 10.517 C 8.404 11.925,8.321 12.000,8.011 12.000 C 7.674 12.000,7.637 11.968,6.413 10.608 C 5.792 9.918,5.236 9.293,5.177 9.219 C 4.931 8.905,4.951 8.512,5.229 8.235 C 5.474 7.989,5.791 7.937,6.092 8.091 C 6.164 8.129,6.425 8.385,6.713 8.703 C 6.986 9.004,7.222 9.255,7.238 9.261 C 7.254 9.267,7.267 8.538,7.267 7.636 L 7.267 6.000 8.000 6.000 L 8.733 6.000 8.733 7.636 M14.500 11.492 C 14.500 12.637,14.488 13.059,14.450 13.310 C 14.209 14.911,12.971 16.171,11.369 16.446 C 11.103 16.492,10.744 16.500,9.027 16.500 L 7.000 16.500 7.001 16.742 C 7.003 17.591,7.486 18.376,8.235 18.746 C 8.765 19.008,8.635 18.999,12.000 18.999 C 15.365 18.999,15.235 19.008,15.765 18.746 C 16.207 18.528,16.528 18.207,16.746 17.765 C 17.004 17.242,16.999 17.309,16.999 14.500 C 16.999 12.451,16.990 11.976,16.950 11.783 C 16.885 11.471,16.644 10.994,16.432 10.757 C 16.015 10.292,15.355 10.000,14.718 10.000 L 14.500 10.000 14.500 11.492 " fill="#0F172A" stroke="none" fill-rule="evenodd"></path></svg>