<svg width="20" height="20" viewBox="0 0 20 20" fill="none" xmlns="http://www.w3.org/2000/svg"><path d="M13.501 6.044 C 13.324 6.100,13.081 6.355,13.033 6.533 C 12.984 6.718,13.004 6.923,13.090 7.090 C 13.131 7.169,13.552 7.587,14.219 8.208 C 14.804 8.753,15.288 9.214,15.294 9.233 C 15.302 9.255,13.156 9.269,8.889 9.275 L 2.472 9.283 2.328 9.384 C 2.144 9.511,2.000 9.781,2.000 9.998 C 2.001 10.293,2.196 10.580,2.483 10.706 C 2.565 10.742,3.780 10.753,8.944 10.767 L 15.305 10.783 14.225 11.787 C 13.110 12.823,13.040 12.904,13.008 13.182 C 12.971 13.514,13.217 13.881,13.533 13.967 C 13.705 14.013,13.954 13.993,14.090 13.921 C 14.141 13.894,15.001 13.113,16.000 12.186 C 17.968 10.361,18.000 10.325,18.000 10.000 C 18.000 9.675,17.966 9.638,16.017 7.829 C 14.703 6.609,14.172 6.137,14.050 6.079 C 13.871 5.995,13.691 5.983,13.501 6.044 " fill="#0F172A" stroke="none" fill-rule="evenodd"></path></svg>