<svg width="20" height="20" viewBox="0 0 20 20" fill="none" xmlns="http://www.w3.org/2000/svg"><path d="M8.383 3.035 C 7.470 3.071,6.254 3.164,5.983 3.218 C 5.204 3.374,4.510 4.061,4.333 4.852 C 4.291 5.040,4.178 6.050,4.147 6.524 C 4.119 6.941,4.166 7.096,4.382 7.295 C 4.689 7.578,5.101 7.567,5.402 7.267 C 5.585 7.085,5.620 6.972,5.668 6.400 C 5.729 5.677,5.794 5.178,5.843 5.062 C 5.901 4.922,6.091 4.752,6.239 4.705 C 6.300 4.686,6.537 4.655,6.767 4.636 C 8.734 4.473,11.266 4.473,13.233 4.636 C 13.727 4.677,13.833 4.706,13.991 4.845 C 14.154 4.987,14.196 5.108,14.251 5.579 C 14.324 6.216,14.465 8.039,14.467 8.366 C 14.467 8.394,14.065 8.016,13.575 7.526 C 12.637 6.590,12.523 6.502,12.250 6.501 C 12.177 6.501,12.042 6.536,11.950 6.578 C 11.586 6.748,11.430 7.089,11.536 7.483 C 11.567 7.597,11.812 7.858,13.194 9.244 C 14.087 10.139,14.859 10.894,14.910 10.921 C 15.045 10.992,15.294 11.013,15.467 10.968 C 15.603 10.932,15.769 10.776,17.258 9.290 C 18.658 7.892,18.906 7.630,18.949 7.504 C 19.042 7.232,18.997 6.975,18.823 6.777 C 18.693 6.628,18.428 6.501,18.250 6.501 C 17.973 6.501,17.836 6.607,16.900 7.547 C 16.415 8.034,16.008 8.433,15.996 8.433 C 15.985 8.433,15.966 8.227,15.953 7.975 C 15.895 6.805,15.735 5.117,15.652 4.797 C 15.493 4.187,15.080 3.679,14.517 3.400 C 14.166 3.226,13.940 3.183,13.050 3.119 C 11.491 3.006,9.864 2.977,8.383 3.035 M4.450 9.080 C 4.319 9.143,3.942 9.502,2.678 10.771 C 0.982 12.474,1.000 12.452,1.000 12.750 C 1.000 13.148,1.352 13.500,1.750 13.500 C 2.036 13.500,2.071 13.472,3.057 12.490 C 3.575 11.975,4.004 11.560,4.011 11.568 C 4.018 11.577,4.042 11.906,4.064 12.300 C 4.124 13.400,4.258 14.814,4.335 15.155 C 4.507 15.927,5.147 16.575,5.924 16.767 C 6.408 16.886,8.396 16.999,10.000 16.999 C 11.604 16.999,13.592 16.886,14.076 16.767 C 14.723 16.607,15.304 16.111,15.549 15.508 C 15.682 15.180,15.779 14.530,15.854 13.459 C 15.882 13.061,15.832 12.902,15.618 12.705 C 15.310 12.421,14.900 12.430,14.602 12.728 C 14.415 12.915,14.381 13.025,14.332 13.600 C 14.276 14.269,14.208 14.809,14.167 14.917 C 14.117 15.048,13.980 15.191,13.828 15.269 C 13.608 15.382,11.662 15.499,10.000 15.499 C 8.330 15.499,6.393 15.382,6.169 15.268 C 5.987 15.175,5.848 15.000,5.805 14.812 C 5.742 14.530,5.615 13.102,5.550 11.950 L 5.529 11.583 6.456 12.505 C 7.427 13.471,7.464 13.500,7.750 13.500 C 8.144 13.500,8.501 13.144,8.500 12.752 C 8.499 12.451,8.520 12.476,6.822 10.771 C 5.121 9.063,5.047 9.001,4.750 9.001 C 4.677 9.001,4.542 9.036,4.450 9.080 " fill="#0F172A" stroke="none" fill-rule="evenodd"></path></svg>