<svg width="20" height="20" viewBox="0 0 20 20" fill="none" xmlns="http://www.w3.org/2000/svg"><path d="M2.505 2.038 C 2.350 2.083,2.081 2.360,2.036 2.521 C 1.986 2.700,1.986 7.300,2.036 7.479 C 2.109 7.741,2.463 8.000,2.750 8.000 C 3.039 8.000,3.379 7.750,3.459 7.479 C 3.489 7.381,3.500 6.949,3.500 5.946 L 3.500 4.550 5.158 6.207 C 6.887 7.935,6.961 7.998,7.233 7.999 C 7.634 8.001,8.000 7.643,7.999 7.250 C 7.998 6.959,7.952 6.905,6.207 5.158 L 4.550 3.500 5.946 3.500 C 6.949 3.500,7.381 3.489,7.479 3.459 C 7.750 3.379,8.000 3.039,8.000 2.750 C 8.000 2.461,7.750 2.121,7.479 2.041 C 7.308 1.990,2.681 1.987,2.505 2.038 M12.507 2.038 C 12.446 2.055,12.324 2.140,12.235 2.226 C 12.014 2.441,11.952 2.676,12.037 2.983 C 12.086 3.160,12.340 3.414,12.517 3.463 C 12.604 3.487,13.129 3.500,14.050 3.500 L 15.449 3.500 13.761 5.192 C 11.975 6.980,12.000 6.951,12.000 7.250 C 12.000 7.648,12.352 8.000,12.750 8.000 C 13.049 8.000,13.020 8.025,14.808 6.239 L 16.500 4.551 16.500 5.950 C 16.500 6.871,16.513 7.396,16.537 7.483 C 16.612 7.755,16.950 8.000,17.250 8.000 C 17.550 8.000,17.888 7.755,17.963 7.483 C 18.014 7.298,18.014 2.704,17.963 2.517 C 17.916 2.344,17.664 2.096,17.479 2.041 C 17.310 1.990,12.682 1.987,12.507 2.038 M2.505 12.038 C 2.350 12.083,2.081 12.360,2.036 12.521 C 1.989 12.689,1.986 17.299,2.033 17.467 C 2.081 17.640,2.256 17.832,2.448 17.921 L 2.617 17.999 4.979 18.000 C 6.745 18.000,7.377 17.990,7.479 17.959 C 7.750 17.879,8.000 17.539,8.000 17.250 C 8.000 16.961,7.750 16.621,7.479 16.541 C 7.381 16.511,6.949 16.500,5.946 16.500 L 4.550 16.500 6.207 14.842 C 7.952 13.095,7.998 13.041,7.999 12.750 C 7.999 12.595,7.877 12.315,7.763 12.210 C 7.643 12.101,7.400 12.001,7.250 12.001 C 6.959 12.001,6.905 12.048,5.158 13.793 L 3.500 15.450 3.500 14.054 C 3.500 13.051,3.489 12.619,3.459 12.521 C 3.435 12.438,3.358 12.323,3.268 12.232 C 3.055 12.020,2.797 11.954,2.505 12.038 M12.450 12.079 C 12.358 12.122,12.251 12.194,12.210 12.237 C 12.101 12.357,12.002 12.600,12.001 12.750 C 12.000 13.047,12.062 13.119,13.797 14.850 L 15.434 16.483 13.970 16.500 L 12.506 16.517 12.362 16.618 C 12.067 16.825,11.945 17.138,12.032 17.462 C 12.086 17.661,12.332 17.906,12.533 17.961 C 12.648 17.993,13.251 18.001,15.089 17.993 L 17.494 17.983 17.638 17.882 C 17.717 17.827,17.827 17.717,17.882 17.638 L 17.983 17.494 17.993 15.089 C 18.001 13.251,17.993 12.648,17.961 12.533 C 17.905 12.327,17.669 12.095,17.458 12.036 C 17.134 11.945,16.827 12.064,16.618 12.362 L 16.517 12.506 16.500 13.970 L 16.483 15.434 14.850 13.797 C 13.120 12.063,13.047 12.001,12.750 12.001 C 12.677 12.001,12.542 12.036,12.450 12.079 " fill="#0F172A" stroke="none" fill-rule="evenodd"></path></svg>