<svg width="20" height="20" viewBox="0 0 20 20" fill="none" xmlns="http://www.w3.org/2000/svg"><path d="M10.507 6.038 C 10.337 6.087,10.080 6.355,10.033 6.533 C 9.984 6.716,10.004 6.917,10.087 7.088 C 10.131 7.177,10.492 7.526,11.256 8.217 C 11.864 8.767,12.362 9.228,12.364 9.241 C 12.365 9.255,10.815 9.270,8.920 9.275 L 5.472 9.283 5.328 9.384 C 5.144 9.511,5.000 9.781,5.000 9.998 C 5.001 10.345,5.258 10.657,5.603 10.731 C 5.716 10.755,6.848 10.767,9.069 10.767 L 12.369 10.767 11.259 11.775 C 10.109 12.821,10.040 12.898,10.009 13.179 C 9.961 13.603,10.320 13.999,10.752 14.000 C 11.038 14.000,11.070 13.975,12.984 12.200 C 14.969 10.359,15.000 10.326,15.000 10.000 C 15.000 9.675,14.966 9.638,13.017 7.829 C 11.703 6.609,11.172 6.137,11.050 6.079 C 10.876 5.997,10.696 5.983,10.507 6.038 " fill="#0F172A" stroke="none" fill-rule="evenodd"></path></svg>