<svg width="20" height="20" viewBox="0 0 20 20" fill="none" xmlns="http://www.w3.org/2000/svg"><path d="M5.450 5.078 C 5.086 5.248,4.930 5.589,5.036 5.983 C 5.067 6.099,5.563 6.608,8.761 9.808 L 12.450 13.500 9.550 13.500 C 7.607 13.500,6.608 13.512,6.523 13.536 C 6.249 13.612,6.000 13.952,6.000 14.250 C 6.000 14.550,6.245 14.888,6.517 14.963 C 6.705 15.015,14.295 15.015,14.483 14.963 C 14.566 14.940,14.676 14.867,14.771 14.771 C 14.867 14.676,14.940 14.566,14.963 14.483 C 15.014 14.297,15.015 6.706,14.963 6.517 C 14.892 6.255,14.537 6.000,14.246 6.000 C 13.956 6.001,13.609 6.253,13.537 6.517 C 13.512 6.608,13.500 7.554,13.500 9.550 L 13.500 12.450 9.842 8.793 C 6.989 5.941,6.150 5.121,6.033 5.069 C 5.836 4.980,5.654 4.983,5.450 5.078 " fill="#0F172A" stroke="none" fill-rule="evenodd"></path></svg>