<svg width="20" height="20" viewBox="0 0 20 20" fill="none" xmlns="http://www.w3.org/2000/svg"><path d="M5.507 5.038 C 5.347 5.084,5.081 5.355,5.037 5.517 C 4.985 5.706,4.986 13.297,5.037 13.483 C 5.112 13.755,5.450 14.000,5.750 14.000 C 6.050 14.000,6.388 13.755,6.463 13.483 C 6.488 13.391,6.500 12.468,6.500 10.450 L 6.500 7.550 10.192 11.239 C 14.122 15.166,13.942 15.000,14.250 15.000 C 14.644 15.000,15.001 14.644,15.000 14.252 C 14.999 13.941,15.170 14.125,11.239 10.192 L 7.550 6.500 10.450 6.500 C 12.468 6.500,13.391 6.488,13.483 6.463 C 13.755 6.388,14.000 6.050,14.000 5.750 C 14.000 5.450,13.762 5.126,13.479 5.041 C 13.309 4.990,5.684 4.987,5.507 5.038 " fill="#0F172A" stroke="none" fill-rule="evenodd"></path></svg>