<svg width="20" height="20" viewBox="0 0 20 20" fill="none" xmlns="http://www.w3.org/2000/svg"><path d="M13.017 4.380 C 12.630 4.549,12.444 5.028,12.626 5.386 C 12.684 5.498,12.933 5.767,12.980 5.767 C 13.004 5.767,16.115 6.604,16.124 6.612 C 16.128 6.617,15.883 6.784,15.578 6.983 C 14.434 7.733,13.455 8.521,12.470 9.483 C 11.851 10.088,11.263 10.725,10.869 11.217 C 10.752 11.363,10.643 11.498,10.627 11.516 C 10.610 11.535,9.969 10.919,9.008 9.959 C 7.913 8.865,7.378 8.353,7.293 8.318 C 7.124 8.248,6.847 8.254,6.683 8.331 C 6.592 8.373,5.689 9.256,3.811 11.138 C 0.902 14.054,1.000 13.945,1.000 14.250 C 1.000 14.648,1.352 15.000,1.750 15.000 C 2.054 15.000,1.967 15.078,4.558 12.489 L 7.000 10.051 8.658 11.706 C 10.073 13.118,10.336 13.366,10.450 13.397 C 10.710 13.467,10.961 13.423,11.134 13.278 C 11.191 13.230,11.393 12.985,11.584 12.733 C 12.618 11.372,13.887 10.096,15.250 9.049 C 15.764 8.654,16.846 7.922,16.859 7.961 C 16.864 7.976,16.687 8.662,16.465 9.486 C 16.041 11.056,16.011 11.226,16.118 11.438 C 16.369 11.937,16.998 12.032,17.355 11.625 C 17.409 11.563,17.471 11.469,17.492 11.415 C 17.568 11.226,18.833 6.451,18.833 6.355 C 18.833 6.097,18.664 5.818,18.438 5.703 C 18.235 5.599,13.460 4.333,13.277 4.335 C 13.189 4.335,13.072 4.356,13.017 4.380 " fill="#0F172A" stroke="none" fill-rule="evenodd"></path></svg>