<svg width="20" height="20" viewBox="0 0 20 20" fill="none" xmlns="http://www.w3.org/2000/svg"><path d="M12.507 2.036 C 12.446 2.054,12.324 2.140,12.235 2.226 C 12.002 2.452,11.946 2.697,12.054 3.014 C 12.103 3.158,12.306 3.362,14.242 5.211 L 16.377 7.250 10.997 7.267 L 5.617 7.284 5.300 7.356 C 4.645 7.507,4.138 7.705,3.639 8.004 C 2.313 8.799,1.426 10.053,1.096 11.600 C 0.994 12.076,0.986 13.050,1.079 13.550 C 1.446 15.528,2.813 17.105,4.702 17.729 C 5.431 17.970,5.487 17.975,7.505 17.991 C 8.833 18.001,9.365 17.994,9.471 17.965 C 9.754 17.889,10.000 17.557,10.000 17.250 C 10.000 16.950,9.762 16.626,9.479 16.541 C 9.379 16.511,8.909 16.500,7.724 16.500 C 6.015 16.500,5.788 16.485,5.304 16.346 C 4.704 16.172,4.178 15.870,3.722 15.437 C 2.237 14.024,2.094 11.743,3.391 10.157 C 3.879 9.561,4.603 9.095,5.383 8.877 L 5.717 8.783 10.233 8.774 C 12.717 8.769,15.108 8.769,15.546 8.774 L 16.342 8.783 14.225 10.805 C 12.304 12.640,12.103 12.842,12.054 12.986 C 11.948 13.298,12.003 13.545,12.229 13.771 C 12.453 13.995,12.702 14.052,13.007 13.948 C 13.136 13.904,13.584 13.491,15.988 11.199 C 19.032 8.295,19.000 8.329,19.000 8.000 C 19.000 7.671,19.028 7.701,16.033 4.845 C 14.503 3.385,13.192 2.153,13.120 2.108 C 12.972 2.015,12.685 1.981,12.507 2.036 " fill="#0F172A" stroke="none" fill-rule="evenodd"></path></svg>