<svg width="20" height="20" viewBox="0 0 20 20" fill="none" xmlns="http://www.w3.org/2000/svg"><path d="M9.754 2.047 C 9.683 2.073,9.575 2.137,9.513 2.189 C 9.320 2.352,5.129 6.812,5.079 6.908 C 4.882 7.289,5.097 7.816,5.505 7.952 C 5.698 8.016,5.935 8.002,6.098 7.918 C 6.154 7.889,6.879 7.147,7.708 6.269 L 9.217 4.673 9.233 9.045 C 9.247 12.562,9.259 13.436,9.294 13.517 C 9.463 13.901,9.901 14.098,10.258 13.949 C 10.454 13.867,10.588 13.746,10.672 13.576 L 10.750 13.417 10.767 9.045 L 10.783 4.673 12.292 6.269 C 13.121 7.147,13.846 7.889,13.902 7.918 C 14.065 8.002,14.302 8.016,14.495 7.952 C 14.903 7.816,15.118 7.288,14.920 6.908 C 14.844 6.761,10.511 2.191,10.368 2.106 C 10.203 2.009,9.928 1.982,9.754 2.047 M2.505 12.038 C 2.350 12.083,2.081 12.360,2.036 12.521 C 1.989 12.690,1.988 15.370,2.035 15.667 C 2.220 16.844,3.156 17.780,4.333 17.965 C 4.475 17.988,6.440 17.999,10.000 17.999 C 13.560 17.999,15.525 17.988,15.667 17.965 C 16.844 17.780,17.780 16.844,17.965 15.667 C 18.016 15.345,18.011 12.694,17.959 12.521 C 17.902 12.326,17.659 12.092,17.458 12.036 C 17.134 11.945,16.827 12.064,16.618 12.362 L 16.517 12.506 16.500 14.028 L 16.483 15.550 16.389 15.753 C 16.270 16.011,16.013 16.268,15.750 16.390 L 15.550 16.483 10.000 16.483 L 4.450 16.483 4.233 16.380 C 4.114 16.323,3.951 16.211,3.870 16.130 C 3.789 16.049,3.677 15.886,3.620 15.767 L 3.517 15.550 3.500 14.050 C 3.481 12.367,3.487 12.409,3.229 12.188 C 3.027 12.015,2.771 11.962,2.505 12.038 " fill="#0F172A" stroke="none" fill-rule="evenodd"></path></svg>