<svg width="20" height="20" viewBox="0 0 20 20" fill="none" xmlns="http://www.w3.org/2000/svg"><path d="M9.278 2.034 C 7.183 2.238,5.285 3.215,3.941 4.783 C 2.940 5.950,2.318 7.313,2.078 8.867 C 1.995 9.402,1.995 10.598,2.078 11.133 C 2.318 12.689,2.944 14.059,3.942 15.217 C 4.468 15.826,4.910 16.215,5.596 16.671 C 6.582 17.325,7.640 17.730,8.867 17.922 C 9.401 18.005,10.596 18.006,11.133 17.922 C 12.725 17.676,14.129 17.023,15.315 15.976 C 15.743 15.599,15.833 15.470,15.857 15.210 C 15.879 14.968,15.830 14.804,15.691 14.645 C 15.544 14.477,15.359 14.393,15.135 14.393 C 14.876 14.393,14.759 14.452,14.450 14.734 C 13.905 15.231,13.462 15.537,12.850 15.836 C 11.319 16.586,9.577 16.702,7.950 16.164 C 5.774 15.444,4.129 13.604,3.648 11.352 C 3.137 8.960,4.020 6.481,5.936 4.936 C 8.528 2.844,12.339 3.078,14.653 5.471 C 15.734 6.590,16.341 7.936,16.472 9.506 C 16.517 10.046,16.492 10.290,16.367 10.550 C 16.134 11.031,15.563 11.325,15.050 11.231 C 14.406 11.111,14.000 10.598,14.000 9.901 C 14.000 9.589,13.913 9.100,13.798 8.754 C 13.339 7.387,12.236 6.404,10.795 6.078 C 10.456 6.002,9.544 6.002,9.205 6.078 C 7.760 6.405,6.661 7.385,6.200 8.761 C 5.587 10.591,6.429 12.651,8.154 13.542 C 9.925 14.456,12.059 13.953,13.242 12.342 C 13.326 12.227,13.400 12.117,13.407 12.096 C 13.414 12.073,13.496 12.116,13.602 12.197 C 13.702 12.274,13.903 12.395,14.050 12.467 C 15.481 13.166,17.209 12.502,17.799 11.025 C 17.967 10.603,18.012 10.288,17.989 9.700 C 17.929 8.197,17.490 6.830,16.671 5.596 C 15.393 3.672,13.430 2.427,11.133 2.084 C 10.707 2.021,9.695 1.993,9.278 2.034 M10.630 7.581 C 10.911 7.657,11.329 7.873,11.561 8.059 C 12.129 8.516,12.500 9.283,12.500 10.000 C 12.500 10.975,11.854 11.941,10.959 12.305 C 9.702 12.817,8.324 12.278,7.748 11.050 C 7.560 10.649,7.517 10.455,7.517 10.000 C 7.517 9.545,7.560 9.351,7.748 8.950 C 8.097 8.206,8.781 7.679,9.586 7.533 C 9.808 7.493,10.409 7.520,10.630 7.581 " fill="#0F172A" stroke="none" fill-rule="evenodd"></path></svg>