<svg width="20" height="20" viewBox="0 0 20 20" fill="none" xmlns="http://www.w3.org/2000/svg"><path d="M8.101 4.654 C 7.874 4.714,8.249 4.491,4.484 6.811 C 2.053 8.310,1.243 8.825,1.113 8.956 C 0.777 9.293,0.618 9.785,0.698 10.234 C 0.753 10.542,0.901 10.831,1.112 11.044 C 1.343 11.277,7.706 15.212,8.033 15.324 C 8.426 15.458,8.905 15.407,9.274 15.190 C 9.455 15.085,9.738 14.788,9.830 14.607 C 9.992 14.289,10.000 14.189,10.000 12.523 L 10.000 10.961 10.147 11.090 C 10.399 11.312,16.787 15.240,17.033 15.324 C 17.426 15.458,17.905 15.407,18.274 15.190 C 18.455 15.085,18.738 14.788,18.830 14.607 C 19.005 14.263,19.000 14.400,19.000 10.000 C 19.000 5.541,19.007 5.723,18.810 5.360 C 18.708 5.173,18.449 4.917,18.233 4.791 C 17.890 4.590,17.356 4.547,16.983 4.691 C 16.769 4.773,10.341 8.741,10.146 8.911 L 10.000 9.039 10.000 7.477 C 10.000 5.779,9.993 5.696,9.810 5.360 C 9.708 5.173,9.449 4.917,9.233 4.791 C 8.922 4.609,8.470 4.554,8.101 4.654 " fill="#0F172A" stroke="none" fill-rule="evenodd"></path></svg>