<svg width="20" height="20" viewBox="0 0 20 20" fill="none" xmlns="http://www.w3.org/2000/svg"><path d="M7.500 3.039 C 7.334 3.085,0.925 9.478,0.826 9.697 C 0.741 9.884,0.741 10.116,0.826 10.303 C 0.877 10.415,1.671 11.227,4.138 13.689 C 6.945 16.491,7.401 16.933,7.517 16.964 C 7.609 16.989,9.095 17.000,12.317 16.999 C 17.557 16.999,17.221 17.014,17.765 16.746 C 18.207 16.528,18.528 16.207,18.746 15.765 C 19.015 15.219,18.999 15.594,18.999 10.000 C 18.999 4.420,19.014 4.778,18.753 4.250 C 18.514 3.766,18.168 3.436,17.656 3.199 C 17.210 2.993,17.393 3.000,12.276 3.003 C 9.350 3.005,7.573 3.018,7.500 3.039 M10.033 7.069 C 10.143 7.118,10.429 7.381,11.092 8.043 L 12.000 8.950 12.908 8.043 C 13.864 7.089,13.977 7.001,14.250 7.001 C 14.400 7.001,14.643 7.101,14.763 7.210 C 14.877 7.315,14.999 7.595,14.999 7.750 C 14.998 8.024,14.911 8.136,13.957 9.092 L 13.050 10.000 13.957 10.908 C 14.911 11.864,14.998 11.976,14.999 12.250 C 14.999 12.323,14.964 12.458,14.922 12.550 C 14.752 12.914,14.410 13.070,14.017 12.963 C 13.906 12.933,13.726 12.771,12.942 11.989 L 12.000 11.052 11.058 11.989 C 10.274 12.771,10.094 12.933,9.983 12.963 C 9.590 13.070,9.248 12.914,9.078 12.550 C 9.036 12.458,9.001 12.323,9.001 12.250 C 9.002 11.976,9.089 11.864,10.043 10.908 L 10.950 10.000 10.043 9.092 C 9.089 8.136,9.001 8.023,9.001 7.750 C 9.001 7.600,9.101 7.357,9.210 7.237 C 9.315 7.123,9.595 7.001,9.750 7.001 C 9.823 7.001,9.951 7.032,10.033 7.069 " fill="#0F172A" stroke="none" fill-rule="evenodd"></path></svg>