<svg width="20" height="20" viewBox="0 0 20 20" fill="none" xmlns="http://www.w3.org/2000/svg"><path d="M1.678 3.062 C 1.369 3.169,1.164 3.376,1.051 3.696 C 1.006 3.824,1.000 4.343,1.000 8.003 L 1.000 12.164 1.071 12.355 C 1.166 12.609,1.391 12.834,1.645 12.929 L 1.836 13.000 10.000 13.000 L 18.164 13.000 18.355 12.929 C 18.609 12.834,18.834 12.609,18.929 12.355 L 19.000 12.164 19.000 8.000 C 19.000 3.912,18.999 3.833,18.933 3.657 C 18.842 3.414,18.670 3.223,18.441 3.110 L 18.250 3.017 10.050 3.009 C 2.246 3.002,1.842 3.005,1.678 3.062 M10.750 5.099 C 11.790 5.366,12.619 6.194,12.904 7.250 C 12.962 7.466,12.976 7.609,12.976 8.000 C 12.976 8.391,12.962 8.534,12.904 8.750 C 12.625 9.785,11.857 10.571,10.817 10.887 C 10.545 10.970,10.468 10.978,10.000 10.978 C 9.532 10.978,9.455 10.970,9.183 10.887 C 8.143 10.571,7.375 9.785,7.096 8.750 C 7.038 8.534,7.024 8.391,7.024 8.000 C 7.024 7.609,7.038 7.466,7.096 7.250 C 7.410 6.086,8.371 5.218,9.550 5.035 C 9.848 4.988,10.442 5.020,10.750 5.099 M4.448 7.114 C 4.796 7.284,4.982 7.592,4.983 8.000 C 4.983 8.207,4.967 8.282,4.890 8.441 C 4.777 8.670,4.586 8.842,4.343 8.933 C 3.608 9.208,2.849 8.536,3.032 7.772 C 3.183 7.145,3.863 6.828,4.448 7.114 M16.448 7.114 C 16.796 7.284,16.982 7.592,16.983 8.000 C 16.983 8.207,16.967 8.282,16.890 8.441 C 16.777 8.670,16.586 8.842,16.343 8.933 C 15.608 9.208,14.849 8.536,15.032 7.772 C 15.183 7.145,15.863 6.828,16.448 7.114 M1.507 14.538 C 1.446 14.555,1.324 14.640,1.235 14.726 C 1.014 14.941,0.952 15.176,1.037 15.483 C 1.087 15.663,1.341 15.916,1.517 15.960 C 1.590 15.978,2.077 16.003,2.600 16.014 C 6.623 16.101,10.534 16.647,14.033 17.611 C 14.585 17.763,14.685 17.781,14.983 17.781 C 15.390 17.780,15.687 17.687,16.009 17.457 C 16.340 17.220,16.541 16.946,16.671 16.550 C 16.740 16.341,16.748 16.253,16.749 15.699 C 16.750 15.103,16.747 15.076,16.665 14.916 C 16.390 14.377,15.611 14.377,15.335 14.916 C 15.256 15.069,15.249 15.120,15.239 15.624 C 15.228 16.160,15.227 16.167,15.143 16.233 C 15.096 16.270,15.035 16.300,15.008 16.300 C 14.981 16.300,14.649 16.218,14.271 16.118 C 11.648 15.422,8.705 14.914,5.967 14.685 C 4.156 14.534,1.791 14.456,1.507 14.538 " fill="#0F172A" stroke="none" fill-rule="evenodd"></path></svg>