<svg width="20" height="20" viewBox="0 0 20 20" fill="none" xmlns="http://www.w3.org/2000/svg"><path d="M2.507 3.038 C 2.446 3.055,2.324 3.140,2.235 3.226 C 2.014 3.441,1.952 3.676,2.037 3.983 C 2.086 4.160,2.340 4.414,2.517 4.463 C 2.706 4.515,14.294 4.515,14.483 4.463 C 14.755 4.388,15.000 4.050,15.000 3.750 C 15.000 3.450,14.762 3.126,14.479 3.041 C 14.308 2.990,2.685 2.986,2.507 3.038 M2.468 6.804 C 2.306 6.869,2.158 7.012,2.080 7.179 C 1.872 7.626,2.122 8.128,2.603 8.231 C 2.716 8.255,3.980 8.267,6.529 8.267 C 10.665 8.267,10.509 8.274,10.748 8.064 C 10.929 7.905,11.010 7.703,10.994 7.452 C 10.978 7.199,10.872 7.015,10.660 6.875 L 10.522 6.783 6.536 6.777 C 3.962 6.773,2.521 6.782,2.468 6.804 M13.758 7.048 C 13.566 7.116,13.415 7.249,13.328 7.424 L 13.250 7.583 13.233 10.944 L 13.217 14.305 12.213 13.225 C 11.163 12.095,11.094 12.036,10.798 12.007 C 10.480 11.977,10.123 12.231,10.033 12.552 C 9.986 12.718,10.007 12.952,10.080 13.092 C 10.106 13.142,10.885 14.001,11.812 15.000 C 13.639 16.969,13.673 17.000,14.000 17.000 C 14.325 17.000,14.361 16.968,16.186 15.000 C 17.113 14.001,17.894 13.142,17.920 13.092 C 18.050 12.845,18.005 12.495,17.814 12.273 C 17.590 12.011,17.214 11.934,16.912 12.089 C 16.830 12.131,16.420 12.544,15.783 13.228 L 14.783 14.302 14.767 10.943 L 14.750 7.583 14.672 7.424 C 14.549 7.176,14.274 7.003,14.000 7.003 C 13.936 7.003,13.827 7.023,13.758 7.048 M2.507 10.538 C 2.446 10.555,2.324 10.640,2.235 10.726 C 2.014 10.941,1.952 11.176,2.037 11.483 C 2.086 11.660,2.340 11.914,2.517 11.963 C 2.715 12.018,7.360 12.014,7.546 11.959 C 7.817 11.879,8.067 11.539,8.067 11.250 C 8.067 10.961,7.817 10.621,7.546 10.541 C 7.376 10.490,2.681 10.487,2.507 10.538 " fill="#0F172A" stroke="none" fill-rule="evenodd"></path></svg>