<svg width="20" height="20" viewBox="0 0 20 20" fill="none" xmlns="http://www.w3.org/2000/svg"><path d="M2.507 4.038 C 2.446 4.055,2.324 4.140,2.235 4.226 C 2.014 4.441,1.952 4.676,2.037 4.983 C 2.086 5.160,2.340 5.414,2.517 5.463 C 2.706 5.515,17.294 5.515,17.483 5.463 C 17.755 5.388,18.000 5.050,18.000 4.750 C 18.000 4.450,17.762 4.126,17.479 4.041 C 17.308 3.990,2.685 3.986,2.507 4.038 M2.468 9.304 C 2.306 9.368,2.158 9.512,2.080 9.679 C 1.872 10.126,2.122 10.628,2.603 10.731 C 2.837 10.781,17.163 10.781,17.397 10.731 C 17.761 10.653,18.023 10.312,17.993 9.954 C 17.975 9.727,17.841 9.495,17.659 9.374 L 17.522 9.283 10.036 9.277 C 5.162 9.273,2.521 9.282,2.468 9.304 M2.507 14.538 C 2.446 14.555,2.324 14.640,2.235 14.726 C 2.014 14.941,1.952 15.176,2.037 15.483 C 2.086 15.660,2.340 15.914,2.517 15.963 C 2.706 16.015,17.294 16.015,17.483 15.963 C 17.755 15.888,18.000 15.550,18.000 15.250 C 18.000 14.950,17.762 14.626,17.479 14.541 C 17.308 14.490,2.685 14.486,2.507 14.538 " fill="#0F172A" stroke="none" fill-rule="evenodd"></path></svg>