<svg width="20" height="20" viewBox="0 0 20 20" fill="none" xmlns="http://www.w3.org/2000/svg"><path d="M2.507 4.038 C 2.446 4.055,2.324 4.140,2.235 4.226 C 2.014 4.441,1.952 4.676,2.037 4.983 C 2.086 5.160,2.340 5.414,2.517 5.463 C 2.706 5.515,17.294 5.515,17.483 5.463 C 17.755 5.388,18.000 5.050,18.000 4.750 C 18.000 4.450,17.762 4.126,17.479 4.041 C 17.308 3.990,2.685 3.986,2.507 4.038 M2.397 9.343 C 2.128 9.485,1.964 9.824,2.017 10.134 C 2.049 10.328,2.223 10.565,2.397 10.657 L 2.545 10.734 10.033 10.725 L 17.522 10.717 17.659 10.626 C 18.095 10.337,18.095 9.663,17.659 9.374 L 17.522 9.283 10.033 9.275 L 2.545 9.266 2.397 9.343 M2.507 14.538 C 2.446 14.555,2.324 14.640,2.235 14.726 C 2.014 14.941,1.952 15.176,2.037 15.483 C 2.086 15.660,2.340 15.914,2.517 15.963 C 2.705 16.015,10.295 16.015,10.483 15.963 C 10.755 15.888,11.000 15.550,11.000 15.250 C 11.000 14.950,10.762 14.626,10.479 14.541 C 10.309 14.490,2.684 14.487,2.507 14.538 " fill="#0F172A" stroke="none" fill-rule="evenodd"></path></svg>