<svg width="20" height="20" viewBox="0 0 20 20" fill="none" xmlns="http://www.w3.org/2000/svg"><path d="M2.507 3.038 C 2.446 3.055,2.324 3.140,2.235 3.226 C 2.014 3.441,1.952 3.676,2.037 3.983 C 2.086 4.160,2.340 4.414,2.517 4.463 C 2.706 4.515,14.294 4.515,14.483 4.463 C 14.755 4.388,15.000 4.050,15.000 3.750 C 15.000 3.450,14.762 3.126,14.479 3.041 C 14.308 2.990,2.685 2.986,2.507 3.038 M2.468 6.804 C 2.306 6.869,2.158 7.012,2.080 7.179 C 1.872 7.626,2.122 8.128,2.603 8.231 C 2.835 8.281,9.032 8.281,9.263 8.231 C 9.628 8.153,9.890 7.812,9.860 7.454 C 9.841 7.227,9.707 6.995,9.526 6.874 L 9.388 6.783 5.969 6.777 C 3.768 6.773,2.521 6.782,2.468 6.804 M13.754 7.047 C 13.683 7.073,13.575 7.137,13.513 7.189 C 13.332 7.342,10.131 10.808,10.080 10.908 C 9.937 11.183,9.998 11.529,10.231 11.770 C 10.460 12.006,10.812 12.066,11.098 11.918 C 11.154 11.889,11.654 11.377,12.208 10.780 L 13.217 9.695 13.233 13.056 C 13.247 15.736,13.259 16.437,13.294 16.517 C 13.463 16.901,13.901 17.098,14.258 16.949 C 14.454 16.867,14.588 16.746,14.672 16.576 L 14.750 16.417 14.767 13.057 L 14.783 9.698 15.783 10.772 C 16.333 11.363,16.831 11.875,16.888 11.908 C 17.030 11.990,17.284 12.016,17.467 11.967 C 17.669 11.913,17.905 11.671,17.965 11.456 C 18.014 11.281,17.995 11.050,17.920 10.908 C 17.840 10.755,14.507 7.189,14.368 7.106 C 14.203 7.009,13.928 6.982,13.754 7.047 M2.507 10.537 C 2.446 10.555,2.324 10.640,2.235 10.726 C 2.014 10.941,1.952 11.176,2.037 11.483 C 2.086 11.660,2.340 11.914,2.517 11.963 C 2.608 11.988,3.358 12.000,4.902 12.000 L 7.154 12.000 7.330 11.912 C 7.863 11.646,7.889 10.912,7.376 10.610 L 7.217 10.517 4.917 10.511 C 3.521 10.507,2.573 10.518,2.507 10.537 " fill="#0F172A" stroke="none" fill-rule="evenodd"></path></svg>