<svg width="20" height="20" viewBox="0 0 20 20" fill="none" xmlns="http://www.w3.org/2000/svg"><path d="M2.507 6.038 C 2.446 6.055,2.324 6.140,2.235 6.226 C 2.014 6.441,1.952 6.676,2.037 6.983 C 2.086 7.160,2.340 7.414,2.517 7.463 C 2.706 7.515,17.294 7.515,17.483 7.463 C 17.755 7.388,18.000 7.050,18.000 6.750 C 18.000 6.450,17.762 6.126,17.479 6.041 C 17.308 5.990,2.685 5.986,2.507 6.038 M2.507 12.538 C 2.446 12.555,2.324 12.640,2.235 12.726 C 2.014 12.941,1.952 13.176,2.037 13.483 C 2.086 13.660,2.340 13.914,2.517 13.963 C 2.706 14.015,17.294 14.015,17.483 13.963 C 17.755 13.888,18.000 13.550,18.000 13.250 C 18.000 12.950,17.762 12.626,17.479 12.541 C 17.308 12.490,2.685 12.486,2.507 12.538 " fill="#0F172A" stroke="none" fill-rule="evenodd"></path></svg>