<svg width="20" height="20" viewBox="0 0 20 20" fill="none" xmlns="http://www.w3.org/2000/svg"><path d="M2.507 3.038 C 2.446 3.055,2.324 3.140,2.235 3.226 C 2.014 3.441,1.952 3.676,2.037 3.983 C 2.086 4.160,2.340 4.414,2.517 4.463 C 2.706 4.515,17.294 4.515,17.483 4.463 C 17.755 4.388,18.000 4.050,18.000 3.750 C 18.000 3.450,17.762 3.126,17.479 3.041 C 17.308 2.990,2.685 2.986,2.507 3.038 M2.507 7.204 C 2.446 7.222,2.324 7.307,2.235 7.393 C 2.014 7.608,1.952 7.843,2.037 8.150 C 2.086 8.327,2.340 8.580,2.517 8.629 C 2.706 8.682,17.294 8.682,17.483 8.629 C 17.755 8.554,18.000 8.216,18.000 7.917 C 18.000 7.616,17.762 7.292,17.479 7.208 C 17.308 7.156,2.685 7.153,2.507 7.204 M2.507 11.371 C 2.446 11.388,2.324 11.473,2.235 11.560 C 2.014 11.775,1.952 12.009,2.037 12.317 C 2.086 12.494,2.340 12.747,2.517 12.796 C 2.706 12.848,17.294 12.848,17.483 12.796 C 17.755 12.721,18.000 12.383,18.000 12.083 C 18.000 11.785,17.751 11.445,17.477 11.369 C 17.311 11.323,2.667 11.325,2.507 11.371 M2.507 15.538 C 2.446 15.555,2.324 15.640,2.235 15.726 C 2.014 15.941,1.952 16.176,2.037 16.483 C 2.086 16.660,2.340 16.914,2.517 16.963 C 2.706 17.015,17.294 17.015,17.483 16.963 C 17.755 16.888,18.000 16.550,18.000 16.250 C 18.000 15.950,17.762 15.626,17.479 15.541 C 17.308 15.490,2.685 15.486,2.507 15.538 " fill="#0F172A" stroke="none" fill-rule="evenodd"></path></svg>