<svg width="20" height="20" viewBox="0 0 20 20" fill="none" xmlns="http://www.w3.org/2000/svg"><path d="M2.783 5.053 C 2.653 5.080,2.410 5.171,2.233 5.258 C 1.695 5.526,1.322 5.962,1.100 6.583 L 1.017 6.817 1.007 9.867 C 0.997 13.224,0.996 13.218,1.200 13.658 C 1.451 14.201,1.800 14.550,2.344 14.801 C 2.797 15.010,2.430 15.000,9.500 15.000 C 16.677 15.000,16.212 15.015,16.717 14.767 C 17.218 14.521,17.525 14.214,17.768 13.717 C 17.954 13.334,18.000 13.057,18.000 12.303 L 18.000 11.671 18.206 11.561 C 18.593 11.354,18.888 10.958,18.966 10.537 C 19.010 10.306,19.010 9.694,18.966 9.463 C 18.888 9.042,18.575 8.623,18.197 8.432 L 18.000 8.332 18.000 7.698 C 18.000 6.984,17.955 6.678,17.801 6.344 C 17.549 5.800,17.201 5.451,16.658 5.200 C 16.202 4.989,16.577 5.000,9.476 5.003 C 4.009 5.005,2.981 5.013,2.783 5.053 M15.983 6.537 C 16.160 6.586,16.414 6.840,16.463 7.017 C 16.515 7.204,16.515 12.796,16.463 12.983 C 16.414 13.160,16.160 13.414,15.983 13.463 C 15.794 13.515,3.206 13.515,3.017 13.463 C 2.840 13.414,2.586 13.160,2.537 12.983 C 2.486 12.799,2.485 7.204,2.536 7.020 C 2.583 6.852,2.813 6.610,2.983 6.550 C 3.096 6.510,4.080 6.503,9.483 6.502 C 14.040 6.501,15.888 6.511,15.983 6.537 M4.507 8.038 C 4.347 8.084,4.081 8.355,4.037 8.517 C 3.987 8.701,3.987 11.301,4.037 11.483 C 4.086 11.660,4.340 11.914,4.517 11.963 C 4.609 11.988,5.425 12.000,7.152 12.000 L 9.654 12.000 9.830 11.912 C 10.046 11.805,10.183 11.625,10.233 11.384 C 10.258 11.265,10.267 10.764,10.260 9.894 C 10.250 8.595,10.249 8.582,10.172 8.424 C 10.085 8.249,9.934 8.116,9.742 8.048 C 9.641 8.012,9.124 8.003,7.117 8.004 C 5.642 8.005,4.572 8.019,4.507 8.038 " fill="#0F172A" stroke="none" fill-rule="evenodd"></path></svg>