<svg width="20" height="20" viewBox="0 0 20 20" fill="none" xmlns="http://www.w3.org/2000/svg"><path d="M2.783 5.053 C 2.654 5.080,2.409 5.171,2.233 5.258 C 1.789 5.478,1.471 5.795,1.254 6.235 C 0.992 6.765,1.001 6.635,1.001 10.000 C 1.001 13.365,0.992 13.235,1.254 13.765 C 1.472 14.207,1.793 14.528,2.235 14.746 C 2.786 15.018,2.234 14.999,9.500 14.999 C 16.766 14.999,16.214 15.018,16.765 14.746 C 17.207 14.528,17.528 14.207,17.746 13.765 C 17.961 13.329,17.999 13.117,17.999 12.330 L 18.000 11.676 18.167 11.590 C 18.544 11.394,18.809 11.078,18.933 10.676 C 19.029 10.366,19.029 9.634,18.933 9.324 C 18.808 8.919,18.548 8.610,18.174 8.420 L 18.000 8.332 17.999 7.674 C 17.999 6.888,17.961 6.670,17.753 6.250 C 17.514 5.766,17.168 5.436,16.656 5.199 C 16.202 4.990,16.574 5.000,9.476 5.003 C 4.009 5.005,2.981 5.013,2.783 5.053 M15.979 6.541 C 16.160 6.594,16.406 6.840,16.459 7.021 C 16.518 7.219,16.518 12.782,16.459 12.979 C 16.404 13.164,16.156 13.416,15.983 13.463 C 15.795 13.515,3.205 13.515,3.017 13.463 C 2.846 13.416,2.584 13.152,2.536 12.977 C 2.486 12.799,2.487 7.199,2.536 7.021 C 2.581 6.860,2.850 6.583,3.005 6.538 C 3.184 6.487,15.806 6.489,15.979 6.541 " fill="#0F172A" stroke="none" fill-rule="evenodd"></path></svg>