<svg width="20" height="20" viewBox="0 0 20 20" fill="none" xmlns="http://www.w3.org/2000/svg"><path d="M8.383 2.035 C 7.464 2.071,6.634 2.132,6.504 2.173 C 6.442 2.192,6.331 2.262,6.257 2.329 C 5.923 2.630,5.913 3.081,6.233 3.402 C 6.404 3.574,6.604 3.648,6.848 3.628 L 7.002 3.616 6.993 6.033 L 6.983 8.450 6.904 8.650 C 6.830 8.838,6.696 8.980,4.635 11.050 C 3.430 12.260,2.399 13.310,2.343 13.383 C 1.498 14.497,1.670 16.136,2.724 17.008 C 3.246 17.440,3.639 17.547,5.435 17.748 C 8.451 18.085,11.525 18.084,14.565 17.747 C 16.050 17.582,16.439 17.504,16.867 17.280 C 18.174 16.598,18.596 14.830,17.762 13.533 C 17.663 13.380,16.968 12.660,15.399 11.083 C 13.307 8.983,13.170 8.838,13.096 8.650 L 13.017 8.450 13.008 6.033 L 12.998 3.616 13.152 3.628 C 13.599 3.664,14.001 3.309,14.000 2.879 C 13.999 2.582,13.751 2.242,13.483 2.172 C 13.002 2.046,10.102 1.968,8.383 2.035 M11.093 3.522 L 11.497 3.543 11.509 6.097 C 11.521 8.893,11.511 8.744,11.724 9.250 C 11.909 9.691,12.066 9.875,13.405 11.219 L 14.702 12.521 14.493 12.560 C 14.038 12.644,13.568 12.674,13.000 12.657 C 12.045 12.629,11.378 12.482,10.317 12.067 C 9.036 11.566,8.229 11.386,7.074 11.344 L 6.498 11.323 7.195 10.620 C 7.907 9.900,8.112 9.640,8.276 9.250 C 8.489 8.743,8.479 8.894,8.491 6.093 L 8.503 3.536 8.776 3.525 C 9.324 3.502,10.699 3.501,11.093 3.522 " fill="#0F172A" stroke="none" fill-rule="evenodd"></path></svg>