<svg width="20" height="20" viewBox="0 0 20 20" fill="none" xmlns="http://www.w3.org/2000/svg"><path d="M9.367 2.037 C 7.697 2.224,6.178 3.090,5.191 4.415 C 4.616 5.188,4.259 6.023,4.079 7.017 C 4.053 7.163,4.017 7.643,3.999 8.083 C 3.965 8.968,3.930 9.354,3.830 9.950 C 3.661 10.959,3.347 11.954,2.896 12.907 C 2.659 13.407,2.621 13.603,2.714 13.849 C 2.774 14.004,2.978 14.214,3.125 14.270 C 3.361 14.360,5.083 14.654,5.965 14.754 C 6.232 14.785,6.469 14.825,6.492 14.842 C 6.515 14.860,6.533 14.915,6.533 14.964 C 6.533 15.120,6.670 15.606,6.798 15.903 C 6.970 16.302,7.199 16.635,7.532 16.968 C 8.001 17.437,8.518 17.730,9.183 17.904 C 9.617 18.017,10.383 18.017,10.817 17.904 C 11.482 17.730,11.999 17.437,12.468 16.968 C 12.801 16.635,13.030 16.302,13.202 15.903 C 13.330 15.606,13.467 15.120,13.467 14.964 C 13.467 14.915,13.485 14.860,13.508 14.842 C 13.531 14.825,13.768 14.785,14.035 14.754 C 14.917 14.654,16.639 14.360,16.875 14.270 C 17.022 14.214,17.226 14.004,17.286 13.849 C 17.380 13.601,17.342 13.409,17.093 12.881 C 16.378 11.365,16.001 9.677,16.000 7.993 C 16.000 6.486,15.411 5.008,14.364 3.888 C 13.556 3.022,12.386 2.366,11.239 2.135 C 10.594 2.006,9.947 1.972,9.367 2.037 M10.000 14.993 C 10.559 14.993,11.224 14.983,11.478 14.971 L 11.938 14.950 11.919 15.050 C 11.872 15.294,11.657 15.649,11.403 15.901 C 11.112 16.190,10.855 16.338,10.480 16.434 C 10.010 16.554,9.498 16.492,9.056 16.260 C 8.751 16.100,8.374 15.711,8.222 15.400 C 8.155 15.262,8.091 15.105,8.081 15.050 L 8.062 14.950 8.522 14.971 C 8.776 14.983,9.441 14.993,10.000 14.993 " fill="#0F172A" stroke="none" fill-rule="evenodd"></path></svg>