<svg width="20" height="20" viewBox="0 0 20 20" fill="none" xmlns="http://www.w3.org/2000/svg"><path d="M3.425 2.033 C 3.227 2.093,3.086 2.222,2.795 2.612 C 2.044 3.617,1.490 4.807,1.233 5.965 C 1.157 6.308,1.186 6.499,1.345 6.707 C 1.494 6.902,1.667 6.983,1.933 6.983 C 2.344 6.983,2.572 6.777,2.695 6.295 C 2.978 5.190,3.399 4.306,4.065 3.419 C 4.368 3.015,4.429 2.846,4.364 2.588 C 4.259 2.169,3.825 1.913,3.425 2.033 M9.262 2.050 C 6.842 2.343,4.808 4.124,4.201 6.482 C 4.064 7.010,4.036 7.250,4.000 8.167 C 3.965 9.059,3.909 9.594,3.781 10.233 C 3.599 11.148,3.325 11.981,2.896 12.921 C 2.717 13.314,2.667 13.459,2.667 13.580 C 2.667 13.860,2.818 14.105,3.072 14.236 C 3.269 14.337,4.735 14.599,5.915 14.744 L 6.514 14.818 6.554 15.074 C 6.661 15.770,7.014 16.455,7.530 16.970 C 8.542 17.983,10.050 18.272,11.387 17.710 C 12.446 17.265,13.271 16.210,13.446 15.074 L 13.486 14.818 14.085 14.744 C 15.265 14.599,16.731 14.337,16.928 14.236 C 17.182 14.105,17.333 13.860,17.333 13.580 C 17.333 13.459,17.283 13.314,17.104 12.921 C 16.675 11.981,16.401 11.148,16.219 10.233 C 16.090 9.589,16.034 9.055,16.000 8.167 C 15.983 7.718,15.945 7.207,15.917 7.033 C 15.483 4.391,13.358 2.360,10.702 2.049 C 10.206 1.991,9.748 1.991,9.262 2.050 M16.034 2.090 C 15.791 2.218,15.661 2.402,15.641 2.647 C 15.616 2.948,15.650 3.040,15.933 3.416 C 16.600 4.305,17.071 5.295,17.316 6.325 C 17.391 6.637,17.517 6.813,17.744 6.919 C 17.978 7.028,18.173 7.025,18.402 6.908 C 18.788 6.713,18.877 6.397,18.721 5.783 C 18.419 4.595,17.864 3.464,17.089 2.456 C 16.850 2.146,16.679 2.034,16.408 2.010 C 16.243 1.996,16.192 2.007,16.034 2.090 M10.000 14.982 C 10.797 14.982,11.561 14.970,11.696 14.955 L 11.943 14.928 11.921 15.039 C 11.872 15.294,11.661 15.645,11.403 15.901 C 11.112 16.190,10.855 16.338,10.480 16.434 C 10.010 16.554,9.498 16.492,9.056 16.260 C 8.751 16.100,8.374 15.711,8.222 15.400 C 8.155 15.262,8.090 15.100,8.079 15.039 L 8.057 14.928 8.304 14.955 C 8.439 14.970,9.202 14.982,10.000 14.982 " fill="#0F172A" stroke="none" fill-rule="evenodd"></path></svg>