<svg width="20" height="20" viewBox="0 0 20 20" fill="none" xmlns="http://www.w3.org/2000/svg"><path d="M2.450 2.079 C 2.251 2.173,2.161 2.265,2.069 2.467 C 1.983 2.657,1.983 2.842,2.069 3.033 C 2.170 3.260,16.711 17.805,16.950 17.920 C 17.328 18.100,17.738 17.945,17.921 17.552 C 18.021 17.338,18.020 17.161,17.920 16.950 C 17.805 16.711,3.260 2.170,3.033 2.069 C 2.835 1.980,2.654 1.983,2.450 2.079 M9.357 2.037 C 8.403 2.129,7.240 2.572,6.505 3.125 L 6.393 3.209 11.788 8.605 C 14.755 11.572,17.193 14.000,17.205 14.000 C 17.250 14.000,17.333 13.725,17.333 13.578 C 17.333 13.460,17.281 13.311,17.104 12.921 C 16.675 11.981,16.401 11.148,16.219 10.233 C 16.090 9.589,16.034 9.055,16.000 8.167 C 15.958 7.084,15.857 6.496,15.598 5.845 C 15.019 4.387,13.987 3.272,12.598 2.603 C 11.578 2.111,10.517 1.926,9.357 2.037 M4.021 7.503 C 4.011 7.657,3.994 8.034,3.985 8.341 C 3.933 9.992,3.584 11.453,2.896 12.907 C 2.659 13.407,2.621 13.603,2.714 13.849 C 2.774 14.004,2.978 14.214,3.125 14.270 C 3.361 14.360,5.083 14.654,5.965 14.754 C 6.232 14.785,6.469 14.825,6.492 14.842 C 6.515 14.860,6.533 14.915,6.533 14.964 C 6.533 15.120,6.670 15.606,6.798 15.903 C 6.970 16.302,7.199 16.635,7.532 16.968 C 8.171 17.606,8.946 17.948,9.850 17.989 C 10.998 18.042,12.098 17.529,12.776 16.624 C 13.091 16.205,13.122 16.306,12.481 15.664 L 11.922 15.104 11.789 15.377 C 11.687 15.587,11.599 15.708,11.403 15.901 C 11.112 16.190,10.855 16.338,10.480 16.434 C 10.010 16.554,9.498 16.492,9.056 16.260 C 8.751 16.100,8.374 15.711,8.222 15.400 C 8.155 15.262,8.091 15.105,8.081 15.050 L 8.062 14.950 8.522 14.971 C 9.104 14.998,10.896 14.998,11.392 14.971 L 11.767 14.950 7.904 11.087 L 4.040 7.224 4.021 7.503 " fill="#0F172A" stroke="none" fill-rule="evenodd"></path></svg>