<svg width="20" height="20" viewBox="0 0 20 20" fill="none" xmlns="http://www.w3.org/2000/svg"><path d="M9.367 2.037 C 7.697 2.224,6.178 3.090,5.191 4.415 C 4.616 5.188,4.259 6.023,4.079 7.017 C 4.053 7.163,4.017 7.643,3.999 8.083 C 3.965 8.968,3.930 9.354,3.830 9.950 C 3.661 10.959,3.347 11.954,2.896 12.907 C 2.659 13.407,2.621 13.603,2.714 13.849 C 2.774 14.004,2.978 14.214,3.125 14.270 C 3.361 14.360,5.083 14.654,5.965 14.754 C 6.232 14.785,6.469 14.825,6.492 14.842 C 6.515 14.860,6.533 14.915,6.533 14.964 C 6.533 15.120,6.670 15.606,6.798 15.903 C 6.970 16.302,7.199 16.635,7.532 16.968 C 8.001 17.437,8.518 17.730,9.183 17.904 C 9.617 18.017,10.383 18.017,10.817 17.904 C 11.482 17.730,11.999 17.437,12.468 16.968 C 12.801 16.635,13.030 16.302,13.202 15.903 C 13.330 15.606,13.467 15.120,13.467 14.964 C 13.467 14.915,13.485 14.860,13.508 14.842 C 13.531 14.825,13.768 14.785,14.035 14.754 C 14.917 14.654,16.639 14.360,16.875 14.270 C 17.022 14.214,17.226 14.004,17.286 13.849 C 17.380 13.601,17.342 13.409,17.093 12.881 C 16.378 11.365,16.001 9.677,16.000 7.993 C 16.000 6.486,15.411 5.008,14.364 3.888 C 13.556 3.022,12.386 2.366,11.239 2.135 C 10.594 2.006,9.947 1.972,9.367 2.037 M11.479 6.041 C 11.674 6.098,11.908 6.341,11.964 6.542 C 12.009 6.702,12.001 6.881,11.940 7.034 C 11.922 7.080,11.531 7.646,11.070 8.291 C 10.610 8.936,10.233 9.472,10.233 9.482 C 10.233 9.492,10.483 9.500,10.788 9.500 C 11.450 9.500,11.562 9.526,11.768 9.732 C 12.077 10.042,12.077 10.452,11.767 10.771 C 11.671 10.870,11.568 10.940,11.483 10.963 C 11.397 10.987,10.873 11.000,9.998 11.000 C 8.447 11.000,8.424 10.997,8.205 10.747 C 8.007 10.522,7.954 10.236,8.060 9.966 C 8.078 9.920,8.469 9.354,8.930 8.709 C 9.390 8.064,9.767 7.528,9.767 7.518 C 9.767 7.508,9.515 7.500,9.208 7.500 C 8.901 7.500,8.590 7.483,8.517 7.463 C 8.430 7.440,8.328 7.370,8.227 7.266 C 8.013 7.045,7.954 6.816,8.036 6.521 C 8.081 6.360,8.350 6.083,8.505 6.038 C 8.678 5.988,11.311 5.991,11.479 6.041 M10.000 14.993 C 10.559 14.993,11.224 14.983,11.478 14.971 L 11.938 14.950 11.919 15.050 C 11.872 15.294,11.657 15.649,11.403 15.901 C 11.112 16.190,10.855 16.338,10.480 16.434 C 10.010 16.554,9.498 16.492,9.056 16.260 C 8.751 16.100,8.374 15.711,8.222 15.400 C 8.155 15.262,8.091 15.105,8.081 15.050 L 8.062 14.950 8.522 14.971 C 8.776 14.983,9.441 14.993,10.000 14.993 " fill="#0F172A" stroke="none" fill-rule="evenodd"></path></svg>