<svg width="20" height="20" viewBox="0 0 20 20" fill="none" xmlns="http://www.w3.org/2000/svg"><path d="M11.004 1.043 C 10.942 1.063,10.818 1.147,10.729 1.231 C 10.640 1.315,9.930 2.096,9.151 2.967 L 7.737 4.550 9.243 6.059 C 10.451 7.268,10.755 7.556,10.774 7.509 C 10.814 7.412,12.000 1.830,12.000 1.741 C 12.000 1.564,11.916 1.381,11.768 1.232 C 11.553 1.017,11.289 0.952,11.004 1.043 M2.450 2.078 C 2.136 2.224,1.972 2.509,2.011 2.840 C 2.021 2.926,2.052 3.038,2.079 3.090 C 2.107 3.141,5.449 6.501,9.506 10.556 C 17.384 18.428,16.938 18.000,17.250 18.000 C 17.644 18.000,18.001 17.644,18.000 17.252 C 17.999 16.937,18.433 17.389,10.572 9.522 C 4.579 3.523,3.186 2.145,3.050 2.080 C 2.840 1.980,2.662 1.979,2.450 2.078 M3.430 9.365 C 2.726 10.153,2.122 10.850,2.089 10.915 C 1.937 11.205,1.991 11.528,2.232 11.767 C 2.322 11.858,2.438 11.935,2.521 11.959 C 2.624 11.990,3.408 12.000,5.737 12.000 L 8.816 12.000 6.783 9.967 C 5.665 8.848,4.741 7.933,4.730 7.933 C 4.719 7.933,4.134 8.578,3.430 9.365 M13.217 10.033 C 14.335 11.152,15.259 12.067,15.270 12.067 C 15.311 12.067,17.853 9.198,17.911 9.085 C 18.063 8.795,18.009 8.472,17.768 8.233 C 17.678 8.142,17.562 8.065,17.479 8.041 C 17.376 8.010,16.592 8.000,14.263 8.000 L 11.184 8.000 13.217 10.033 M9.222 12.487 C 9.169 12.666,8.000 18.189,8.000 18.259 C 8.000 18.436,8.084 18.619,8.232 18.768 C 8.503 19.039,8.867 19.074,9.176 18.859 C 9.227 18.823,9.900 18.087,10.673 17.222 C 11.445 16.357,12.119 15.605,12.171 15.549 L 12.265 15.448 10.753 13.936 C 9.550 12.734,9.237 12.437,9.222 12.487 " fill="#0F172A" stroke="none" fill-rule="evenodd"></path></svg>