<svg width="20" height="20" viewBox="0 0 20 20" fill="none" xmlns="http://www.w3.org/2000/svg"><path d="M11.003 1.043 C 10.941 1.063,10.810 1.155,10.712 1.248 C 10.367 1.577,2.126 10.819,2.075 10.933 C 1.947 11.227,2.007 11.562,2.226 11.776 C 2.467 12.012,2.270 12.000,5.982 12.000 L 9.322 12.000 8.662 15.075 C 8.299 16.766,8.001 18.196,8.001 18.252 C 7.998 18.640,8.358 19.000,8.750 19.000 C 8.954 19.000,9.111 18.928,9.288 18.755 C 9.675 18.377,17.877 9.175,17.925 9.067 C 18.106 8.653,17.891 8.164,17.473 8.039 C 17.377 8.010,16.468 8.000,14.010 8.000 L 10.678 8.000 11.338 4.925 C 11.701 3.234,11.999 1.804,11.999 1.748 C 12.003 1.255,11.486 0.889,11.003 1.043 " fill="#0F172A" stroke="none" fill-rule="evenodd"></path></svg>