<svg width="20" height="20" viewBox="0 0 20 20" fill="none" xmlns="http://www.w3.org/2000/svg"><path d="M2.450 2.078 C 2.136 2.224,1.972 2.509,2.011 2.840 C 2.021 2.926,2.052 3.038,2.079 3.090 C 2.107 3.141,5.449 6.501,9.506 10.556 C 17.384 18.428,16.938 18.000,17.250 18.000 C 17.644 18.000,18.001 17.644,18.000 17.252 C 17.999 16.937,18.433 17.389,10.572 9.522 C 4.579 3.523,3.186 2.145,3.050 2.080 C 2.840 1.980,2.662 1.979,2.450 2.078 M8.367 2.034 C 7.257 2.082,5.467 2.225,5.467 2.264 C 5.467 2.275,8.062 4.878,11.233 8.050 L 17.000 13.817 16.999 9.050 C 16.999 3.704,17.014 4.045,16.749 3.508 C 16.494 2.991,16.048 2.600,15.505 2.416 C 15.177 2.305,13.898 2.165,12.300 2.066 C 11.542 2.018,9.155 1.999,8.367 2.034 M3.000 11.767 C 3.000 15.631,3.011 17.390,3.036 17.478 C 3.122 17.787,3.498 18.029,3.829 17.990 C 3.940 17.977,4.824 17.568,6.975 16.536 C 8.621 15.746,9.982 15.100,10.000 15.100 C 10.018 15.100,10.830 15.483,11.805 15.950 C 12.779 16.418,13.582 16.796,13.587 16.791 C 13.593 16.785,11.213 14.396,8.299 11.482 L 3.000 6.183 3.000 11.767 " stroke="none" fill-rule="evenodd"></path></svg>