<svg width="20" height="20" viewBox="0 0 20 20" fill="none" xmlns="http://www.w3.org/2000/svg"><path d="M3.783 2.053 C 3.654 2.080,3.409 2.171,3.233 2.258 C 2.789 2.478,2.471 2.795,2.254 3.235 C 1.983 3.785,2.001 3.291,2.001 10.000 C 2.001 16.709,1.983 16.215,2.254 16.765 C 2.472 17.207,2.793 17.528,3.235 17.746 C 3.785 18.017,3.291 17.999,10.000 17.999 C 16.709 17.999,16.215 18.017,16.765 17.746 C 17.207 17.528,17.528 17.207,17.746 16.765 C 18.017 16.215,17.999 16.709,17.999 10.000 C 17.999 3.307,18.016 3.782,17.753 3.250 C 17.514 2.766,17.168 2.436,16.656 2.199 C 16.204 1.990,16.524 2.000,9.976 2.003 C 4.943 2.005,3.980 2.013,3.783 2.053 M14.000 8.425 C 14.000 11.626,13.988 13.392,13.966 13.471 C 13.879 13.785,13.503 14.030,13.171 13.990 C 13.068 13.977,12.521 13.742,11.534 13.285 C 10.719 12.908,10.029 12.600,10.000 12.600 C 9.971 12.600,9.281 12.908,8.466 13.285 C 7.479 13.742,6.932 13.977,6.829 13.990 C 6.497 14.030,6.121 13.785,6.034 13.471 C 6.012 13.392,6.000 11.626,6.000 8.425 L 6.000 3.500 10.000 3.500 L 14.000 3.500 14.000 8.425 " fill="#0F172A" stroke="none" fill-rule="evenodd"></path></svg>