<svg width="20" height="20" viewBox="0 0 20 20" fill="none" xmlns="http://www.w3.org/2000/svg"><path d="M8.733 2.020 C 6.800 2.097,4.919 2.273,4.495 2.416 C 3.952 2.600,3.506 2.991,3.251 3.508 C 2.982 4.052,3.001 3.502,3.001 10.817 C 3.000 15.357,3.011 17.389,3.036 17.478 C 3.122 17.787,3.498 18.029,3.829 17.990 C 3.940 17.977,4.824 17.568,6.975 16.536 C 8.621 15.746,9.982 15.100,10.000 15.100 C 10.018 15.100,11.379 15.746,13.025 16.536 C 15.176 17.568,16.060 17.977,16.171 17.990 C 16.384 18.015,16.624 17.930,16.776 17.774 C 17.018 17.526,17.000 18.081,16.999 10.821 C 16.999 3.501,17.018 4.052,16.749 3.508 C 16.494 2.991,16.048 2.600,15.505 2.416 C 15.177 2.305,13.898 2.165,12.300 2.066 C 11.743 2.031,9.255 1.999,8.733 2.020 " fill="#0F172A" stroke="none" fill-rule="evenodd"></path></svg>