<svg width="20" height="20" viewBox="0 0 20 20" fill="none" xmlns="http://www.w3.org/2000/svg"><path d="M8.250 1.049 C 7.418 1.204,6.667 1.767,6.291 2.517 C 6.104 2.891,6.027 3.218,6.008 3.725 C 5.999 3.986,5.979 4.200,5.965 4.200 C 5.892 4.200,4.952 4.310,4.517 4.370 C 3.685 4.483,3.215 4.710,2.723 5.233 C 2.528 5.441,2.436 5.574,2.306 5.841 C 2.006 6.458,2.017 6.347,2.017 8.817 C 2.017 10.974,2.017 10.985,2.093 11.246 C 2.355 12.150,2.985 12.809,3.850 13.081 C 5.166 13.496,6.696 13.788,8.350 13.940 C 8.965 13.997,11.035 13.997,11.650 13.940 C 13.202 13.798,14.421 13.576,15.833 13.178 C 16.446 13.006,16.799 12.825,17.129 12.515 C 17.535 12.133,17.766 11.749,17.922 11.200 C 17.979 11.000,17.983 10.821,17.983 8.817 C 17.983 6.347,17.994 6.458,17.694 5.841 C 17.564 5.574,17.472 5.441,17.277 5.233 C 16.785 4.710,16.315 4.483,15.483 4.370 C 15.048 4.310,14.108 4.200,14.034 4.200 C 14.020 4.200,14.001 3.994,13.991 3.742 C 13.959 2.907,13.742 2.381,13.200 1.831 C 12.769 1.393,12.260 1.128,11.667 1.035 C 11.338 0.983,8.543 0.995,8.250 1.049 M11.753 2.611 C 12.012 2.730,12.269 2.988,12.387 3.247 C 12.457 3.401,12.480 3.512,12.493 3.756 L 12.509 4.068 11.763 4.043 C 11.352 4.028,10.559 4.017,10.000 4.017 C 9.441 4.017,8.648 4.028,8.237 4.043 L 7.491 4.068 7.507 3.756 C 7.520 3.512,7.543 3.401,7.613 3.247 C 7.768 2.908,8.110 2.620,8.458 2.535 C 8.527 2.519,9.251 2.508,10.067 2.511 L 11.550 2.517 11.753 2.611 M10.459 10.113 C 11.067 10.421,11.185 11.241,10.692 11.729 C 10.339 12.079,9.729 12.093,9.350 11.760 C 8.962 11.418,8.894 10.827,9.196 10.411 C 9.476 10.025,10.028 9.894,10.459 10.113 M3.009 14.943 C 3.023 15.393,3.042 15.570,3.098 15.767 C 3.323 16.545,3.820 17.147,4.517 17.483 C 4.896 17.666,5.125 17.716,5.969 17.798 C 8.680 18.062,11.320 18.062,14.031 17.798 C 14.875 17.716,15.104 17.666,15.483 17.483 C 16.180 17.147,16.677 16.545,16.902 15.767 C 16.958 15.570,16.977 15.393,16.991 14.943 L 17.008 14.370 16.835 14.436 C 16.373 14.611,15.078 14.940,14.167 15.114 C 12.742 15.386,11.664 15.480,10.000 15.480 C 8.336 15.480,7.258 15.386,5.833 15.114 C 4.922 14.940,3.627 14.611,3.165 14.436 L 2.992 14.370 3.009 14.943 " fill="#0F172A" stroke="none" fill-rule="evenodd"></path></svg>