<svg width="20" height="20" viewBox="0 0 20 20" fill="none" xmlns="http://www.w3.org/2000/svg"><path d="M3.507 2.038 C 3.347 2.084,3.081 2.355,3.037 2.517 C 2.954 2.819,3.015 3.057,3.229 3.271 C 3.400 3.442,3.549 3.500,3.825 3.500 L 4.000 3.500 4.000 10.000 L 4.000 16.500 3.825 16.500 C 3.554 16.500,3.411 16.555,3.234 16.727 C 3.014 16.941,2.952 17.177,3.037 17.483 C 3.086 17.660,3.340 17.914,3.517 17.963 C 3.697 18.013,7.298 18.014,7.477 17.964 C 7.547 17.945,7.665 17.875,7.738 17.809 C 7.993 17.578,7.981 17.656,8.000 15.994 L 8.017 14.506 8.118 14.362 C 8.173 14.283,8.283 14.173,8.362 14.118 L 8.506 14.017 9.911 14.007 C 10.960 13.999,11.355 14.007,11.467 14.038 C 11.659 14.092,11.903 14.330,11.959 14.521 C 11.988 14.619,12.000 15.041,12.000 16.004 C 12.000 16.885,12.013 17.396,12.037 17.483 C 12.086 17.660,12.340 17.914,12.517 17.963 C 12.702 18.014,16.298 18.014,16.483 17.963 C 16.660 17.914,16.914 17.660,16.963 17.483 C 17.047 17.180,16.986 16.941,16.771 16.733 C 16.598 16.565,16.431 16.500,16.171 16.500 L 16.000 16.500 16.000 10.000 L 16.000 3.500 16.175 3.500 C 16.451 3.500,16.600 3.442,16.771 3.271 C 16.985 3.057,17.046 2.819,16.963 2.517 C 16.916 2.344,16.664 2.096,16.479 2.041 C 16.308 1.990,3.685 1.986,3.507 2.038 M8.733 5.071 C 8.970 5.204,9.000 5.307,9.000 6.002 C 9.000 6.589,8.997 6.616,8.918 6.751 C 8.785 6.978,8.703 7.000,8.000 7.000 C 7.297 7.000,7.215 6.978,7.082 6.751 C 7.003 6.616,7.000 6.589,7.000 6.004 C 7.000 5.462,7.007 5.383,7.067 5.266 C 7.186 5.032,7.288 5.003,7.995 5.001 C 8.559 5.000,8.618 5.006,8.733 5.071 M12.733 5.071 C 12.970 5.204,13.000 5.307,13.000 6.002 C 13.000 6.589,12.997 6.616,12.918 6.751 C 12.785 6.978,12.703 7.000,12.000 7.000 C 11.297 7.000,11.215 6.978,11.082 6.751 C 11.003 6.616,11.000 6.589,11.000 6.004 C 11.000 5.462,11.007 5.383,11.067 5.266 C 11.186 5.032,11.288 5.003,11.995 5.001 C 12.559 5.000,12.618 5.006,12.733 5.071 M8.733 9.071 C 8.970 9.204,9.000 9.307,9.000 10.002 C 9.000 10.589,8.997 10.616,8.918 10.751 C 8.785 10.978,8.703 11.000,8.000 11.000 C 7.297 11.000,7.215 10.978,7.082 10.751 C 7.003 10.616,7.000 10.589,7.000 10.004 C 7.000 9.462,7.007 9.383,7.067 9.266 C 7.186 9.032,7.288 9.003,7.995 9.001 C 8.559 9.000,8.618 9.006,8.733 9.071 M12.733 9.071 C 12.970 9.204,13.000 9.307,13.000 10.002 C 13.000 10.589,12.997 10.616,12.918 10.751 C 12.785 10.978,12.703 11.000,12.000 11.000 C 11.297 11.000,11.215 10.978,11.082 10.751 C 11.003 10.616,11.000 10.589,11.000 10.004 C 11.000 9.462,11.007 9.383,11.067 9.266 C 11.186 9.032,11.288 9.003,11.995 9.001 C 12.559 9.000,12.618 9.006,12.733 9.071 " fill="#0F172A" stroke="none" fill-rule="evenodd"></path></svg>