<svg width="20" height="20" viewBox="0 0 20 20" fill="none" xmlns="http://www.w3.org/2000/svg"><path d="M9.817 2.022 C 9.636 2.073,2.366 5.609,2.258 5.700 C 2.104 5.828,2.035 5.956,2.011 6.160 C 1.955 6.638,2.361 7.045,2.838 6.989 L 3.000 6.970 3.000 11.735 L 3.000 16.500 2.829 16.500 C 2.569 16.500,2.402 16.565,2.229 16.733 C 2.014 16.941,1.953 17.180,2.037 17.483 C 2.086 17.660,2.340 17.914,2.517 17.963 C 2.706 18.015,17.294 18.015,17.483 17.963 C 17.660 17.914,17.914 17.660,17.963 17.483 C 18.047 17.180,17.986 16.941,17.771 16.733 C 17.598 16.565,17.431 16.500,17.171 16.500 L 17.000 16.500 17.000 11.735 L 17.000 6.970 17.162 6.989 C 17.639 7.045,18.045 6.638,17.989 6.160 C 17.965 5.956,17.896 5.828,17.742 5.699 C 17.672 5.641,15.986 4.808,13.921 3.811 C 10.773 2.292,10.200 2.026,10.055 2.016 C 9.960 2.009,9.853 2.012,9.817 2.022 M10.448 5.114 C 10.796 5.284,10.982 5.592,10.983 6.000 C 10.983 6.207,10.967 6.282,10.890 6.441 C 10.665 6.898,10.132 7.111,9.657 6.933 C 9.059 6.709,8.823 5.998,9.166 5.456 C 9.432 5.037,9.987 4.889,10.448 5.114 M6.979 9.041 C 7.160 9.094,7.406 9.340,7.459 9.521 C 7.518 9.719,7.518 15.282,7.459 15.479 C 7.374 15.762,7.050 16.000,6.750 16.000 C 6.452 16.000,6.112 15.751,6.036 15.477 C 5.986 15.299,5.987 9.699,6.036 9.521 C 6.081 9.360,6.350 9.083,6.505 9.038 C 6.663 8.993,6.820 8.994,6.979 9.041 M10.386 9.116 C 10.468 9.164,10.576 9.266,10.626 9.341 L 10.717 9.478 10.717 12.503 L 10.717 15.528 10.616 15.671 C 10.485 15.857,10.218 16.000,10.002 16.000 C 9.781 16.000,9.512 15.858,9.384 15.672 L 9.283 15.528 9.274 12.542 C 9.266 9.560,9.266 9.556,9.336 9.411 C 9.518 9.035,10.011 8.897,10.386 9.116 M13.479 9.041 C 13.562 9.065,13.677 9.142,13.768 9.232 C 13.858 9.323,13.935 9.438,13.959 9.521 C 14.018 9.719,14.018 15.282,13.959 15.479 C 13.874 15.762,13.550 16.000,13.250 16.000 C 12.952 16.000,12.612 15.751,12.536 15.477 C 12.486 15.299,12.487 9.699,12.536 9.521 C 12.581 9.360,12.850 9.083,13.005 9.038 C 13.163 8.993,13.320 8.994,13.479 9.041 " fill="#0F172A" stroke="none" fill-rule="evenodd"></path></svg>