<svg width="20" height="20" viewBox="0 0 20 20" fill="none" xmlns="http://www.w3.org/2000/svg"><path d="M4.167 2.052 C 3.817 2.127,3.453 2.327,3.143 2.616 C 2.609 3.112,2.293 3.593,2.113 4.185 C 2.030 4.455,2.022 4.532,2.022 5.000 C 2.022 5.466,2.031 5.546,2.111 5.810 C 2.425 6.837,3.163 7.575,4.190 7.889 C 4.454 7.969,4.534 7.978,5.000 7.978 C 5.466 7.978,5.546 7.969,5.810 7.889 C 6.438 7.697,6.997 7.319,7.393 6.817 L 7.499 6.683 7.622 6.833 C 8.050 7.354,8.558 7.696,9.190 7.889 C 9.454 7.969,9.534 7.978,10.000 7.978 C 10.466 7.978,10.546 7.969,10.810 7.889 C 11.442 7.696,11.950 7.354,12.378 6.833 L 12.501 6.683 12.607 6.817 C 13.003 7.319,13.562 7.697,14.190 7.889 C 14.454 7.969,14.534 7.978,15.000 7.978 C 15.466 7.978,15.546 7.969,15.810 7.889 C 16.837 7.575,17.575 6.837,17.889 5.810 C 17.969 5.546,17.978 5.466,17.978 5.000 C 17.978 4.532,17.970 4.455,17.887 4.185 C 17.707 3.593,17.391 3.112,16.857 2.616 C 16.541 2.322,16.180 2.126,15.817 2.050 C 15.476 1.979,4.499 1.980,4.167 2.052 M7.300 8.867 C 6.935 9.109,6.208 9.364,5.633 9.452 C 4.848 9.571,3.920 9.444,3.179 9.116 L 3.000 9.037 3.000 12.764 L 3.000 16.491 2.748 16.507 C 2.538 16.521,2.472 16.540,2.357 16.621 C 2.067 16.825,1.945 17.140,2.032 17.462 C 2.083 17.651,2.331 17.903,2.521 17.959 C 2.717 18.018,7.283 18.018,7.479 17.959 C 7.660 17.906,7.906 17.660,7.959 17.479 C 7.989 17.379,8.000 16.853,8.000 15.496 C 8.000 14.249,8.012 13.607,8.037 13.517 C 8.086 13.340,8.340 13.086,8.517 13.037 C 8.700 12.987,11.300 12.987,11.483 13.037 C 11.566 13.060,11.676 13.133,11.771 13.229 C 11.867 13.324,11.940 13.434,11.963 13.517 C 11.988 13.607,12.000 14.251,12.000 15.500 C 12.000 16.719,12.013 17.394,12.036 17.479 C 12.084 17.651,12.341 17.906,12.521 17.959 C 12.717 18.018,17.283 18.018,17.479 17.959 C 17.660 17.906,17.906 17.660,17.959 17.479 C 18.046 17.188,17.984 16.949,17.768 16.732 C 17.599 16.564,17.435 16.500,17.171 16.500 L 17.000 16.500 17.000 12.769 L 17.000 9.037 16.821 9.116 C 16.299 9.347,15.574 9.500,15.000 9.500 C 14.216 9.500,13.300 9.240,12.625 8.827 L 12.500 8.750 12.375 8.827 C 11.491 9.368,10.360 9.601,9.350 9.450 C 8.790 9.366,8.038 9.097,7.680 8.854 C 7.517 8.744,7.484 8.745,7.300 8.867 " fill="#0F172A" stroke="none" fill-rule="evenodd"></path></svg>