<svg width="20" height="20" viewBox="0 0 20 20" fill="none" xmlns="http://www.w3.org/2000/svg"><path d="M1.507 2.038 C 1.347 2.084,1.081 2.355,1.037 2.517 C 0.954 2.819,1.015 3.057,1.229 3.271 C 1.400 3.442,1.549 3.500,1.825 3.500 L 2.000 3.500 2.000 10.000 L 2.000 16.500 1.825 16.500 C 1.554 16.500,1.411 16.555,1.234 16.727 C 1.014 16.941,0.952 17.177,1.037 17.483 C 1.086 17.660,1.340 17.914,1.517 17.963 C 1.695 18.012,4.300 18.014,4.477 17.964 C 4.547 17.945,4.665 17.875,4.738 17.809 C 4.993 17.578,4.981 17.656,5.000 15.994 L 5.017 14.506 5.118 14.362 C 5.173 14.283,5.283 14.173,5.362 14.118 L 5.506 14.017 6.911 14.007 C 7.960 13.999,8.355 14.007,8.467 14.038 C 8.659 14.092,8.903 14.330,8.959 14.521 C 8.988 14.619,9.000 15.041,9.000 16.004 C 9.000 16.885,9.013 17.396,9.037 17.483 C 9.086 17.660,9.340 17.914,9.517 17.963 C 9.696 18.012,11.304 18.012,11.483 17.963 C 11.660 17.914,11.914 17.660,11.963 17.483 C 11.989 17.388,12.000 15.386,12.000 10.425 L 12.000 3.500 12.175 3.500 C 12.451 3.500,12.600 3.442,12.771 3.271 C 12.985 3.057,13.046 2.819,12.963 2.517 C 12.916 2.344,12.664 2.096,12.479 2.041 C 12.308 1.990,1.684 1.986,1.507 2.038 M5.733 5.071 C 5.970 5.204,6.000 5.307,6.000 6.002 C 6.000 6.589,5.997 6.616,5.918 6.751 C 5.785 6.978,5.703 7.000,5.000 7.000 C 4.297 7.000,4.215 6.978,4.082 6.751 C 4.003 6.616,4.000 6.589,4.000 6.004 C 4.000 5.462,4.007 5.383,4.067 5.266 C 4.186 5.032,4.288 5.003,4.995 5.001 C 5.559 5.000,5.618 5.006,5.733 5.071 M9.733 5.071 C 9.970 5.204,10.000 5.307,10.000 6.002 C 10.000 6.589,9.997 6.616,9.918 6.751 C 9.785 6.978,9.703 7.000,9.000 7.000 C 8.297 7.000,8.215 6.978,8.082 6.751 C 8.003 6.616,8.000 6.589,8.000 6.004 C 8.000 5.462,8.007 5.383,8.067 5.266 C 8.186 5.032,8.288 5.003,8.995 5.001 C 9.559 5.000,9.618 5.006,9.733 5.071 M14.005 6.038 C 13.846 6.084,13.580 6.361,13.535 6.526 C 13.510 6.620,13.502 8.235,13.508 11.955 L 13.517 17.250 13.610 17.439 C 13.715 17.654,13.877 17.811,14.098 17.913 C 14.247 17.982,14.297 17.984,16.283 17.993 C 17.827 18.001,18.353 17.993,18.467 17.962 C 18.567 17.934,18.667 17.870,18.767 17.768 C 19.077 17.457,19.077 17.042,18.768 16.732 C 18.599 16.564,18.435 16.500,18.171 16.500 L 18.000 16.500 18.000 12.000 L 18.000 7.500 18.171 7.500 C 18.435 7.500,18.599 7.436,18.768 7.268 C 18.919 7.116,19.000 6.935,19.000 6.750 C 19.000 6.461,18.750 6.121,18.479 6.041 C 18.308 5.990,14.181 5.988,14.005 6.038 M5.733 9.071 C 5.970 9.204,6.000 9.307,6.000 10.002 C 6.000 10.589,5.997 10.616,5.918 10.751 C 5.785 10.978,5.703 11.000,5.000 11.000 C 4.297 11.000,4.215 10.978,4.082 10.751 C 4.003 10.616,4.000 10.589,4.000 10.004 C 4.000 9.462,4.007 9.383,4.067 9.266 C 4.186 9.032,4.288 9.003,4.995 9.001 C 5.559 9.000,5.618 9.006,5.733 9.071 M9.733 9.071 C 9.970 9.204,10.000 9.307,10.000 10.002 C 10.000 10.589,9.997 10.616,9.918 10.751 C 9.785 10.978,9.703 11.000,9.000 11.000 C 8.297 11.000,8.215 10.978,8.082 10.751 C 8.003 10.616,8.000 10.589,8.000 10.004 C 8.000 9.462,8.007 9.383,8.067 9.266 C 8.186 9.032,8.288 9.003,8.995 9.001 C 9.559 9.000,9.618 9.006,9.733 9.071 M16.523 9.087 C 16.730 9.242,16.750 9.321,16.750 10.000 C 16.750 10.679,16.730 10.758,16.523 10.913 C 16.434 10.979,16.388 10.983,15.750 10.983 C 15.112 10.983,15.066 10.979,14.977 10.913 C 14.779 10.765,14.751 10.668,14.739 10.081 C 14.727 9.509,14.753 9.336,14.872 9.184 C 15.004 9.016,15.091 9.000,15.789 9.009 C 16.380 9.016,16.436 9.022,16.523 9.087 M16.523 13.087 C 16.730 13.242,16.750 13.321,16.750 14.000 C 16.750 14.679,16.730 14.758,16.523 14.913 C 16.434 14.979,16.388 14.983,15.750 14.983 C 15.112 14.983,15.066 14.979,14.977 14.913 C 14.779 14.765,14.751 14.668,14.739 14.081 C 14.727 13.509,14.753 13.336,14.872 13.184 C 15.004 13.016,15.091 13.000,15.789 13.009 C 16.380 13.016,16.436 13.022,16.523 13.087 " fill="#0F172A" stroke="none" fill-rule="evenodd"></path></svg>