<svg width="20" height="20" viewBox="0 0 20 20" fill="none" xmlns="http://www.w3.org/2000/svg"><path d="M6.220 1.500 C 5.605 2.127,5.517 2.284,5.517 2.750 C 5.517 3.009,5.530 3.078,5.611 3.253 C 5.730 3.511,5.988 3.768,6.250 3.890 C 6.422 3.969,6.492 3.982,6.750 3.982 C 7.005 3.982,7.078 3.969,7.242 3.893 C 7.510 3.768,7.770 3.512,7.888 3.257 C 7.971 3.078,7.983 3.010,7.983 2.750 C 7.983 2.284,7.895 2.127,7.280 1.500 C 7.010 1.225,6.772 1.000,6.750 1.000 C 6.728 1.000,6.490 1.225,6.220 1.500 M9.477 1.508 C 8.833 2.159,8.784 2.247,8.784 2.733 C 8.783 3.044,8.793 3.105,8.873 3.275 C 9.104 3.768,9.677 4.072,10.193 3.976 C 10.612 3.898,10.956 3.639,11.127 3.275 C 11.207 3.105,11.217 3.044,11.216 2.733 C 11.216 2.247,11.167 2.159,10.523 1.508 C 10.246 1.229,10.011 1.000,10.000 1.000 C 9.989 1.000,9.754 1.229,9.477 1.508 M12.720 1.500 C 12.105 2.127,12.017 2.284,12.017 2.750 C 12.018 3.005,12.031 3.079,12.107 3.241 C 12.230 3.506,12.465 3.745,12.728 3.875 C 12.925 3.972,12.974 3.982,13.250 3.982 C 13.526 3.982,13.575 3.972,13.772 3.875 C 14.035 3.745,14.270 3.506,14.393 3.241 C 14.469 3.079,14.482 3.005,14.483 2.750 C 14.483 2.284,14.395 2.127,13.780 1.500 C 13.510 1.225,13.272 1.000,13.250 1.000 C 13.228 1.000,12.990 1.225,12.720 1.500 M6.500 5.044 C 6.339 5.095,6.081 5.360,6.036 5.521 C 6.017 5.592,6.000 5.781,6.000 5.942 C 6.000 6.197,5.993 6.233,5.942 6.234 C 5.910 6.234,5.771 6.283,5.633 6.343 C 4.701 6.751,4.091 7.625,4.011 8.668 C 3.991 8.926,3.993 8.940,4.053 8.922 C 4.149 8.893,4.807 8.808,5.500 8.735 C 8.461 8.422,11.539 8.422,14.500 8.735 C 15.193 8.808,15.851 8.893,15.947 8.922 C 16.007 8.940,16.009 8.926,15.989 8.668 C 15.923 7.803,15.489 7.048,14.784 6.566 C 14.601 6.441,14.149 6.234,14.058 6.234 C 14.007 6.233,14.000 6.197,14.000 5.946 C 14.000 5.564,13.952 5.417,13.768 5.232 C 13.456 4.921,13.043 4.923,12.728 5.236 C 12.550 5.413,12.500 5.550,12.500 5.860 L 12.500 6.071 11.892 6.051 C 11.557 6.040,11.161 6.023,11.012 6.013 L 10.740 5.995 10.728 5.737 C 10.719 5.523,10.701 5.455,10.626 5.341 C 10.337 4.905,9.663 4.905,9.374 5.341 C 9.299 5.455,9.281 5.523,9.272 5.737 L 9.260 5.995 8.988 6.013 C 8.839 6.023,8.443 6.040,8.108 6.051 L 7.500 6.071 7.500 5.864 C 7.500 5.565,7.442 5.407,7.268 5.232 C 7.052 5.016,6.790 4.952,6.500 5.044 M8.400 10.036 C 6.680 10.102,4.547 10.316,4.040 10.472 C 3.273 10.709,2.584 11.322,2.262 12.056 C 2.084 12.462,2.028 12.755,2.009 13.380 L 1.991 13.977 2.296 13.954 C 2.729 13.921,3.147 13.806,3.670 13.574 C 4.615 13.155,5.079 13.051,6.000 13.051 C 6.921 13.051,7.385 13.155,8.330 13.574 C 8.579 13.684,8.926 13.813,9.100 13.860 C 9.382 13.935,9.480 13.944,10.000 13.944 C 10.520 13.944,10.618 13.935,10.900 13.860 C 11.074 13.813,11.421 13.684,11.670 13.574 C 12.615 13.155,13.079 13.051,14.000 13.051 C 14.921 13.051,15.385 13.155,16.330 13.574 C 16.853 13.806,17.271 13.921,17.704 13.954 L 18.009 13.977 17.991 13.380 C 17.976 12.885,17.959 12.735,17.891 12.500 C 17.654 11.668,17.119 11.009,16.383 10.641 C 15.970 10.434,15.659 10.372,14.367 10.235 C 12.454 10.032,10.327 9.961,8.400 10.036 M5.453 14.568 C 5.108 14.622,4.777 14.728,4.321 14.930 C 3.552 15.271,2.998 15.418,2.342 15.457 L 2.000 15.477 2.000 16.053 C 2.000 16.698,2.030 16.894,2.173 17.179 C 2.368 17.566,2.769 17.874,3.193 17.963 C 3.446 18.016,16.558 18.015,16.807 17.962 C 17.230 17.873,17.614 17.584,17.810 17.207 C 17.970 16.898,18.000 16.719,18.000 16.053 L 18.000 15.477 17.658 15.457 C 16.999 15.418,16.448 15.271,15.670 14.926 C 15.421 14.816,15.074 14.687,14.900 14.640 C 14.618 14.565,14.520 14.556,14.000 14.556 C 13.480 14.556,13.382 14.565,13.100 14.640 C 12.926 14.687,12.579 14.816,12.330 14.926 C 11.385 15.345,10.921 15.449,10.000 15.449 C 9.079 15.449,8.615 15.345,7.670 14.926 C 7.040 14.647,6.701 14.565,6.117 14.549 C 5.860 14.542,5.561 14.551,5.453 14.568 " fill="#0F172A" stroke="none" fill-rule="evenodd"></path></svg>