<svg width="20" height="20" viewBox="0 0 20 20" fill="none" xmlns="http://www.w3.org/2000/svg"><path d="M8.733 1.020 C 6.800 1.097,4.919 1.273,4.495 1.416 C 3.952 1.600,3.506 1.991,3.251 2.508 C 2.982 3.053,3.001 2.465,3.001 10.133 C 3.001 17.809,2.981 17.213,3.254 17.765 C 3.472 18.207,3.793 18.528,4.235 18.746 C 4.781 19.015,4.406 18.999,10.000 18.999 C 15.594 18.999,15.219 19.015,15.765 18.746 C 16.207 18.528,16.528 18.207,16.746 17.765 C 17.019 17.213,16.999 17.809,16.999 10.133 C 16.999 2.465,17.018 3.053,16.749 2.508 C 16.494 1.991,16.048 1.600,15.505 1.416 C 15.177 1.305,13.898 1.165,12.300 1.066 C 11.743 1.031,9.255 0.999,8.733 1.020 M13.479 4.041 C 13.660 4.094,13.906 4.340,13.959 4.521 C 14.012 4.698,14.012 5.303,13.959 5.479 C 13.904 5.664,13.656 5.916,13.483 5.963 C 13.296 6.014,6.704 6.014,6.517 5.963 C 6.346 5.916,6.084 5.652,6.036 5.477 C 5.990 5.312,5.990 4.687,6.036 4.521 C 6.081 4.360,6.350 4.083,6.505 4.038 C 6.682 3.987,13.307 3.990,13.479 4.041 M6.979 8.041 C 7.252 8.122,7.500 8.461,7.500 8.754 C 7.500 9.034,7.335 9.295,7.079 9.420 C 6.928 9.494,6.866 9.506,6.687 9.494 C 6.294 9.469,6.031 9.206,6.006 8.813 C 5.971 8.263,6.450 7.884,6.979 8.041 M9.300 8.112 C 9.797 8.442,9.775 9.157,9.258 9.415 C 8.864 9.611,8.417 9.466,8.237 9.084 C 8.045 8.676,8.263 8.168,8.688 8.032 C 8.855 7.979,9.157 8.018,9.300 8.112 M11.317 8.037 C 11.399 8.060,11.509 8.133,11.605 8.229 C 11.849 8.473,11.901 8.785,11.748 9.091 C 11.603 9.383,11.362 9.516,11.018 9.494 C 10.738 9.476,10.559 9.358,10.426 9.104 C 10.112 8.502,10.653 7.854,11.317 8.037 M13.660 8.123 C 13.770 8.191,13.841 8.270,13.910 8.401 C 13.993 8.560,14.004 8.612,13.994 8.804 C 13.972 9.204,13.711 9.469,13.313 9.494 C 12.603 9.539,12.232 8.733,12.732 8.232 C 12.914 8.051,13.052 7.999,13.311 8.015 C 13.452 8.024,13.549 8.054,13.660 8.123 M7.136 10.281 C 7.508 10.527,7.605 10.980,7.363 11.345 C 7.150 11.667,6.657 11.768,6.338 11.557 C 6.013 11.342,5.907 10.940,6.082 10.584 C 6.224 10.294,6.474 10.155,6.811 10.180 C 6.946 10.190,7.044 10.220,7.136 10.281 M9.302 10.281 C 9.800 10.610,9.775 11.324,9.258 11.581 C 8.590 11.914,7.919 11.242,8.253 10.573 C 8.393 10.292,8.645 10.155,8.977 10.180 C 9.113 10.190,9.210 10.220,9.302 10.281 M11.317 10.204 C 11.399 10.227,11.509 10.300,11.605 10.395 C 11.849 10.639,11.901 10.952,11.748 11.257 C 11.603 11.550,11.362 11.683,11.018 11.661 C 10.738 11.643,10.559 11.525,10.426 11.271 C 10.112 10.668,10.653 10.020,11.317 10.204 M13.660 10.289 C 13.770 10.357,13.841 10.436,13.910 10.567 C 13.993 10.726,14.004 10.779,13.994 10.970 C 13.972 11.371,13.711 11.636,13.313 11.661 C 12.766 11.696,12.388 11.222,12.536 10.687 C 12.581 10.528,12.849 10.251,13.005 10.203 C 13.197 10.144,13.487 10.183,13.660 10.289 M7.136 12.448 C 7.508 12.694,7.605 13.147,7.363 13.512 C 7.150 13.834,6.657 13.935,6.338 13.723 C 6.013 13.509,5.907 13.107,6.082 12.751 C 6.224 12.461,6.474 12.322,6.811 12.346 C 6.946 12.356,7.044 12.387,7.136 12.448 M9.302 12.448 C 9.800 12.777,9.775 13.490,9.258 13.748 C 8.590 14.081,7.919 13.409,8.253 12.740 C 8.393 12.459,8.645 12.322,8.977 12.346 C 9.113 12.356,9.210 12.387,9.302 12.448 M11.317 12.371 C 11.399 12.393,11.509 12.466,11.605 12.562 C 11.849 12.806,11.901 13.118,11.748 13.424 C 11.603 13.716,11.362 13.849,11.018 13.827 C 10.738 13.810,10.559 13.691,10.426 13.437 C 10.110 12.831,10.649 12.186,11.317 12.371 M13.479 12.374 C 13.562 12.399,13.677 12.475,13.768 12.566 C 13.858 12.656,13.935 12.771,13.959 12.854 C 14.017 13.047,14.017 15.287,13.959 15.479 C 13.874 15.762,13.550 16.000,13.250 16.000 C 12.950 16.000,12.626 15.762,12.541 15.479 C 12.483 15.287,12.483 13.047,12.541 12.854 C 12.591 12.685,12.838 12.428,13.000 12.377 C 13.159 12.327,13.316 12.326,13.479 12.374 M7.136 14.614 C 7.508 14.861,7.605 15.314,7.363 15.679 C 7.150 16.000,6.657 16.102,6.338 15.890 C 6.013 15.675,5.907 15.273,6.082 14.917 C 6.224 14.627,6.474 14.488,6.811 14.513 C 6.946 14.523,7.044 14.553,7.136 14.614 M9.302 14.614 C 9.800 14.943,9.775 15.657,9.258 15.915 C 8.590 16.248,7.919 15.576,8.253 14.907 C 8.393 14.626,8.645 14.489,8.977 14.513 C 9.113 14.523,9.210 14.553,9.302 14.614 M11.317 14.537 C 11.399 14.560,11.509 14.633,11.605 14.729 C 11.849 14.973,11.901 15.285,11.748 15.591 C 11.603 15.883,11.362 16.016,11.018 15.994 C 10.738 15.976,10.559 15.858,10.426 15.604 C 10.112 15.002,10.653 14.354,11.317 14.537 " fill="#0F172A" stroke="none" fill-rule="evenodd"></path></svg>