<svg width="20" height="20" viewBox="0 0 20 20" fill="none" xmlns="http://www.w3.org/2000/svg"><path d="M5.507 2.038 C 5.347 2.084,5.081 2.355,5.037 2.517 C 5.016 2.593,5.000 2.940,5.000 3.325 L 5.000 4.000 4.775 4.000 C 4.073 4.001,3.383 4.271,2.881 4.740 C 2.511 5.086,2.290 5.439,2.112 5.967 L 2.017 6.250 2.017 10.967 C 2.017 15.369,2.021 15.698,2.075 15.896 C 2.231 16.458,2.420 16.786,2.817 17.183 C 3.214 17.580,3.542 17.769,4.104 17.925 C 4.303 17.980,4.675 17.983,10.000 17.983 C 15.325 17.983,15.697 17.980,15.896 17.925 C 16.458 17.769,16.786 17.580,17.183 17.183 C 17.580 16.786,17.769 16.458,17.925 15.896 C 17.979 15.698,17.983 15.370,17.983 11.000 C 17.983 6.630,17.979 6.302,17.925 6.104 C 17.772 5.552,17.583 5.220,17.200 4.831 C 16.665 4.287,15.985 4.001,15.225 4.000 L 15.000 4.000 15.000 3.325 C 15.000 2.940,14.984 2.593,14.963 2.517 C 14.892 2.255,14.537 2.000,14.246 2.000 C 13.956 2.001,13.609 2.253,13.537 2.517 C 13.516 2.593,13.500 2.940,13.500 3.325 L 13.500 4.000 10.000 4.000 L 6.500 4.000 6.500 3.325 C 6.500 2.940,6.484 2.593,6.463 2.517 C 6.440 2.432,6.370 2.329,6.271 2.233 C 6.052 2.020,5.795 1.955,5.507 2.038 M15.750 7.610 C 16.013 7.732,16.270 7.989,16.389 8.247 L 16.483 8.450 16.483 12.000 L 16.483 15.550 16.390 15.750 C 16.268 16.013,16.011 16.270,15.753 16.389 L 15.550 16.483 10.000 16.483 L 4.450 16.483 4.233 16.380 C 3.959 16.249,3.754 16.043,3.621 15.767 L 3.517 15.550 3.517 12.000 L 3.517 8.450 3.610 8.250 C 3.771 7.905,4.112 7.618,4.458 7.536 C 4.529 7.519,6.948 7.508,10.067 7.511 L 15.550 7.517 15.750 7.610 " fill="#0F172A" stroke="none" fill-rule="evenodd"></path></svg>