<svg width="20" height="20" viewBox="0 0 20 20" fill="none" xmlns="http://www.w3.org/2000/svg"><path d="M5.505 2.038 C 5.350 2.083,5.081 2.360,5.036 2.521 C 5.016 2.593,5.000 2.946,5.000 3.325 L 5.000 4.000 4.775 4.000 C 3.409 4.002,2.246 4.991,2.035 6.333 C 1.988 6.631,1.988 15.369,2.035 15.667 C 2.220 16.844,3.156 17.780,4.333 17.965 C 4.632 18.012,15.368 18.012,15.667 17.965 C 16.844 17.780,17.780 16.844,17.965 15.667 C 18.012 15.369,18.012 6.631,17.965 6.333 C 17.754 4.991,16.591 4.002,15.225 4.000 L 15.000 4.000 15.000 3.329 C 15.000 2.540,14.980 2.445,14.767 2.232 C 14.420 1.882,13.915 1.939,13.618 2.362 L 13.517 2.506 13.506 3.253 L 13.495 4.000 9.998 4.000 L 6.500 4.000 6.500 3.329 C 6.500 2.540,6.480 2.445,6.268 2.232 C 6.055 2.020,5.797 1.954,5.505 2.038 M15.750 7.610 C 16.013 7.732,16.270 7.989,16.389 8.247 L 16.483 8.450 16.483 12.000 L 16.483 15.550 16.390 15.750 C 16.268 16.013,16.011 16.270,15.753 16.389 L 15.550 16.483 10.000 16.483 L 4.450 16.483 4.233 16.380 C 3.958 16.249,3.751 16.042,3.620 15.767 L 3.517 15.550 3.517 12.000 L 3.517 8.450 3.620 8.233 C 3.782 7.893,4.047 7.664,4.417 7.547 C 4.523 7.513,5.672 7.505,10.050 7.510 L 15.550 7.517 15.750 7.610 M9.683 9.322 C 9.409 9.467,9.267 9.698,9.267 10.002 C 9.267 10.607,9.903 10.956,10.413 10.632 C 10.884 10.334,10.859 9.621,10.369 9.355 C 10.177 9.250,9.850 9.234,9.683 9.322 M11.683 9.322 C 11.409 9.467,11.267 9.698,11.267 10.002 C 11.267 10.607,11.903 10.956,12.413 10.632 C 12.884 10.334,12.859 9.621,12.369 9.355 C 12.177 9.250,11.850 9.234,11.683 9.322 M13.683 9.322 C 13.409 9.467,13.267 9.698,13.267 10.002 C 13.267 10.607,13.903 10.956,14.413 10.632 C 14.884 10.334,14.859 9.621,14.369 9.355 C 14.177 9.250,13.850 9.234,13.683 9.322 M5.683 11.322 C 5.256 11.547,5.123 12.055,5.391 12.444 C 5.530 12.645,5.740 12.750,6.000 12.749 C 6.447 12.746,6.745 12.454,6.748 12.016 C 6.752 11.576,6.442 11.265,6.001 11.268 C 5.870 11.269,5.744 11.290,5.683 11.322 M7.683 11.322 C 7.409 11.467,7.267 11.698,7.267 12.002 C 7.267 12.607,7.903 12.956,8.413 12.632 C 8.884 12.334,8.859 11.621,8.369 11.355 C 8.177 11.250,7.850 11.234,7.683 11.322 M9.683 11.322 C 9.409 11.467,9.267 11.698,9.267 12.002 C 9.267 12.607,9.903 12.956,10.413 12.632 C 10.884 12.334,10.859 11.621,10.369 11.355 C 10.177 11.250,9.850 11.234,9.683 11.322 M11.683 11.322 C 11.409 11.467,11.267 11.698,11.267 12.002 C 11.267 12.607,11.903 12.956,12.413 12.632 C 12.884 12.334,12.859 11.621,12.369 11.355 C 12.177 11.250,11.850 11.234,11.683 11.322 M13.683 11.322 C 13.409 11.467,13.267 11.698,13.267 12.002 C 13.267 12.607,13.903 12.956,14.413 12.632 C 14.884 12.334,14.859 11.621,14.369 11.355 C 14.177 11.250,13.850 11.234,13.683 11.322 M5.683 13.322 C 5.409 13.467,5.267 13.698,5.267 14.002 C 5.267 14.607,5.903 14.956,6.413 14.632 C 6.884 14.334,6.859 13.621,6.369 13.355 C 6.177 13.250,5.850 13.234,5.683 13.322 M7.683 13.322 C 7.409 13.467,7.267 13.698,7.267 14.002 C 7.267 14.607,7.903 14.956,8.413 14.632 C 8.884 14.334,8.859 13.621,8.369 13.355 C 8.177 13.250,7.850 13.234,7.683 13.322 M9.683 13.322 C 9.409 13.467,9.267 13.698,9.267 14.002 C 9.267 14.607,9.903 14.956,10.413 14.632 C 10.884 14.334,10.859 13.621,10.369 13.355 C 10.177 13.250,9.850 13.234,9.683 13.322 M11.683 13.322 C 11.409 13.467,11.267 13.698,11.267 14.002 C 11.267 14.607,11.903 14.956,12.413 14.632 C 12.884 14.334,12.859 13.621,12.369 13.355 C 12.177 13.250,11.850 13.234,11.683 13.322 " fill="#0F172A" stroke="none" fill-rule="evenodd"></path></svg>