<svg width="20" height="20" viewBox="0 0 20 20" fill="none" xmlns="http://www.w3.org/2000/svg"><path d="M7.633 3.052 C 7.514 3.078,7.312 3.151,7.183 3.214 C 6.780 3.413,6.588 3.621,6.000 4.499 C 5.428 5.353,5.238 5.566,4.876 5.759 C 4.510 5.954,4.246 6.000,3.486 6.001 C 2.710 6.001,2.473 6.039,2.100 6.222 C 1.916 6.311,1.783 6.411,1.599 6.597 C 1.310 6.888,1.162 7.145,1.066 7.520 C 1.002 7.769,1.000 7.902,1.000 11.500 C 1.000 15.098,1.002 15.231,1.066 15.480 C 1.162 15.857,1.310 16.112,1.599 16.401 C 1.888 16.690,2.143 16.838,2.520 16.934 C 2.772 16.999,2.916 17.000,10.000 17.000 C 17.084 17.000,17.228 16.999,17.480 16.934 C 17.857 16.838,18.112 16.690,18.401 16.401 C 18.690 16.112,18.838 15.857,18.934 15.480 C 18.998 15.231,19.000 15.098,19.000 11.500 C 19.000 7.902,18.998 7.769,18.934 7.520 C 18.838 7.145,18.690 6.888,18.401 6.597 C 18.217 6.411,18.084 6.311,17.900 6.222 C 17.527 6.039,17.290 6.001,16.514 6.001 C 15.754 6.000,15.490 5.954,15.124 5.759 C 14.762 5.566,14.572 5.353,14.000 4.499 C 13.412 3.621,13.220 3.412,12.817 3.214 C 12.390 3.004,12.350 3.001,9.983 3.003 C 8.285 3.005,7.806 3.015,7.633 3.052 M10.850 6.583 C 11.439 6.701,12.023 6.944,12.533 7.283 C 12.855 7.496,13.504 8.145,13.717 8.467 C 14.245 9.262,14.480 10.045,14.480 11.000 C 14.480 12.212,14.077 13.228,13.252 14.093 C 12.594 14.782,11.817 15.215,10.866 15.420 C 10.468 15.506,9.532 15.506,9.134 15.420 C 8.183 15.215,7.406 14.782,6.748 14.093 C 6.147 13.463,5.770 12.739,5.579 11.850 C 5.500 11.478,5.500 10.522,5.579 10.150 C 5.710 9.541,5.947 8.972,6.283 8.467 C 6.496 8.145,7.145 7.496,7.467 7.283 C 8.071 6.882,8.766 6.620,9.454 6.533 C 9.777 6.492,10.534 6.519,10.850 6.583 M9.550 8.035 C 8.393 8.215,7.462 9.036,7.113 10.183 C 7.030 10.455,7.022 10.532,7.022 11.000 C 7.022 11.468,7.030 11.545,7.113 11.815 C 7.424 12.836,8.164 13.576,9.185 13.887 C 9.455 13.970,9.532 13.978,10.000 13.978 C 10.468 13.978,10.545 13.970,10.815 13.887 C 10.979 13.837,11.234 13.734,11.381 13.657 C 12.109 13.278,12.638 12.631,12.887 11.815 C 12.970 11.545,12.978 11.468,12.978 11.000 C 12.978 10.532,12.970 10.455,12.887 10.183 C 12.570 9.141,11.770 8.361,10.750 8.099 C 10.442 8.020,9.848 7.988,9.550 8.035 " fill="#0F172A" stroke="none" fill-rule="evenodd"></path></svg>