<svg width="20" height="20" viewBox="0 0 20 20" fill="none" xmlns="http://www.w3.org/2000/svg"><path d="M3.783 2.053 C 3.654 2.080,3.409 2.171,3.233 2.258 C 2.789 2.478,2.471 2.795,2.254 3.235 C 1.983 3.785,2.001 3.291,2.001 10.000 C 2.001 16.709,1.983 16.215,2.254 16.765 C 2.472 17.207,2.793 17.528,3.235 17.746 C 3.785 18.017,3.291 17.999,10.000 17.999 C 16.709 17.999,16.215 18.017,16.765 17.746 C 17.207 17.528,17.528 17.207,17.746 16.765 C 18.017 16.215,17.999 16.709,17.999 10.000 C 17.999 3.307,18.016 3.782,17.753 3.250 C 17.514 2.766,17.168 2.436,16.656 2.199 C 16.204 1.990,16.524 2.000,9.976 2.003 C 4.943 2.005,3.980 2.013,3.783 2.053 M14.479 5.041 C 14.660 5.094,14.906 5.340,14.959 5.521 C 15.019 5.720,15.018 14.281,14.959 14.479 C 14.874 14.762,14.550 15.000,14.250 15.000 C 13.952 15.000,13.612 14.751,13.536 14.477 C 13.486 14.298,13.486 5.700,13.536 5.521 C 13.581 5.360,13.850 5.083,14.005 5.038 C 14.163 4.993,14.320 4.994,14.479 5.041 M11.636 7.038 C 11.805 7.089,11.985 7.242,12.076 7.412 L 12.150 7.550 12.150 11.000 L 12.150 14.450 12.076 14.588 C 11.900 14.917,11.549 15.064,11.183 14.963 C 11.006 14.914,10.753 14.660,10.704 14.483 C 10.653 14.298,10.652 7.704,10.703 7.520 C 10.723 7.448,10.802 7.324,10.878 7.244 C 11.086 7.024,11.350 6.952,11.636 7.038 M8.813 9.041 C 8.895 9.065,9.010 9.142,9.101 9.232 C 9.192 9.323,9.268 9.438,9.293 9.521 C 9.351 9.718,9.351 14.283,9.292 14.479 C 9.208 14.762,8.884 15.000,8.583 15.000 C 8.283 15.000,7.959 14.762,7.874 14.479 C 7.816 14.283,7.815 9.718,7.874 9.521 C 7.924 9.352,8.172 9.095,8.333 9.044 C 8.493 8.993,8.650 8.992,8.813 9.041 M5.979 11.041 C 6.160 11.094,6.406 11.340,6.459 11.521 C 6.517 11.715,6.517 14.286,6.459 14.479 C 6.374 14.762,6.050 15.000,5.750 15.000 C 5.452 15.000,5.112 14.751,5.036 14.477 C 4.987 14.303,4.988 11.695,5.036 11.521 C 5.081 11.360,5.350 11.083,5.505 11.038 C 5.663 10.993,5.820 10.994,5.979 11.041 " fill="#0F172A" stroke="none" fill-rule="evenodd"></path></svg>