<svg width="20" height="20" viewBox="0 0 20 20" fill="none" xmlns="http://www.w3.org/2000/svg"><path d="M11.594 2.113 C 11.394 2.185,11.211 2.353,11.110 2.560 L 11.017 2.750 11.008 5.456 C 10.999 8.157,10.999 8.161,11.071 8.354 C 11.167 8.609,11.390 8.833,11.645 8.929 C 11.834 8.999,11.858 9.000,14.500 9.000 C 17.131 9.000,17.167 8.999,17.353 8.930 C 17.552 8.855,17.755 8.679,17.857 8.493 C 17.959 8.306,17.932 7.846,17.787 7.288 C 17.564 6.427,17.194 5.637,16.667 4.892 C 16.415 4.536,15.765 3.852,15.402 3.559 C 14.680 2.976,13.722 2.484,12.867 2.255 C 12.190 2.074,11.820 2.033,11.594 2.113 M7.573 4.147 C 6.178 4.444,4.987 5.105,3.982 6.138 C 3.420 6.717,3.093 7.176,2.742 7.883 C 2.305 8.761,2.103 9.507,2.025 10.524 C 1.960 11.387,2.079 12.363,2.352 13.192 C 2.596 13.934,3.116 14.869,3.618 15.467 C 3.851 15.744,4.319 16.208,4.600 16.441 C 5.140 16.888,6.102 17.414,6.800 17.645 C 7.637 17.921,8.632 18.041,9.508 17.972 C 10.470 17.897,11.213 17.696,12.050 17.285 C 12.830 16.903,13.261 16.601,13.862 16.018 C 14.701 15.203,15.287 14.275,15.648 13.183 C 15.781 12.782,15.933 12.084,15.933 11.877 C 15.933 11.556,15.717 11.232,15.405 11.088 C 15.251 11.017,15.227 11.017,12.500 11.000 C 9.792 10.984,9.748 10.982,9.598 10.913 C 9.377 10.811,9.215 10.654,9.110 10.439 L 9.017 10.250 9.000 7.500 C 8.984 4.785,8.982 4.748,8.913 4.597 C 8.832 4.423,8.650 4.227,8.491 4.146 C 8.319 4.056,7.997 4.057,7.573 4.147 " fill="#0F172A" stroke="none" fill-rule="evenodd"></path></svg>