<svg width="20" height="20" viewBox="0 0 20 20" fill="none" xmlns="http://www.w3.org/2000/svg"><path d="M15.150 2.046 C 14.615 2.177,14.192 2.597,14.047 3.142 C 13.978 3.403,13.978 16.597,14.047 16.858 C 14.124 17.147,14.235 17.339,14.448 17.552 C 14.826 17.930,15.067 17.999,16.000 17.999 C 16.933 17.999,17.174 17.930,17.552 17.552 C 17.765 17.339,17.876 17.147,17.953 16.858 C 18.022 16.597,18.022 3.403,17.953 3.142 C 17.804 2.583,17.357 2.152,16.807 2.037 C 16.569 1.987,15.364 1.994,15.150 2.046 M9.150 6.046 C 8.902 6.107,8.587 6.288,8.420 6.467 C 8.244 6.654,8.089 6.949,8.038 7.193 C 7.985 7.441,7.984 16.555,8.037 16.807 C 8.126 17.231,8.434 17.632,8.821 17.827 C 9.110 17.972,9.302 18.000,10.000 18.000 C 10.698 18.000,10.890 17.972,11.179 17.827 C 11.566 17.632,11.874 17.231,11.963 16.807 C 12.015 16.557,12.015 7.443,11.963 7.193 C 11.910 6.938,11.718 6.592,11.534 6.421 C 11.346 6.244,11.052 6.090,10.807 6.038 C 10.570 5.987,9.366 5.994,9.150 6.046 M3.150 10.046 C 2.902 10.107,2.587 10.288,2.420 10.467 C 2.244 10.654,2.089 10.949,2.038 11.193 C 1.985 11.441,1.985 16.559,2.038 16.807 C 2.127 17.230,2.416 17.614,2.793 17.810 C 3.106 17.972,3.281 18.000,4.000 18.000 C 4.719 18.000,4.894 17.972,5.207 17.810 C 5.584 17.614,5.873 17.230,5.962 16.807 C 6.015 16.561,6.015 11.442,5.963 11.193 C 5.910 10.938,5.718 10.592,5.534 10.421 C 5.346 10.244,5.052 10.090,4.807 10.038 C 4.570 9.987,3.366 9.994,3.150 10.046 " fill="#0F172A" stroke="none" fill-rule="evenodd"></path></svg>