<svg width="20" height="20" viewBox="0 0 20 20" fill="none" xmlns="http://www.w3.org/2000/svg"><path d="M9.233 3.034 C 8.099 3.142,7.132 3.406,6.171 3.869 C 5.285 4.297,4.700 4.701,4.055 5.331 C 3.399 5.971,2.992 6.528,2.635 7.272 C 2.392 7.779,2.264 8.142,2.155 8.636 C 1.841 10.053,2.006 11.424,2.650 12.750 C 3.015 13.502,3.429 14.061,4.099 14.712 L 4.506 15.107 4.483 15.312 C 4.425 15.833,4.292 16.258,4.029 16.758 C 3.854 17.092,3.832 17.225,3.908 17.479 C 3.969 17.684,4.186 17.884,4.421 17.953 C 4.581 17.999,4.708 18.006,5.165 17.990 C 5.745 17.971,6.073 17.923,6.582 17.784 C 7.173 17.623,7.722 17.381,8.227 17.057 L 8.503 16.879 8.810 16.927 C 9.266 16.998,10.740 16.996,11.210 16.923 C 12.795 16.679,14.119 16.137,15.281 15.256 C 15.617 15.003,16.275 14.364,16.543 14.033 C 17.171 13.256,17.637 12.301,17.845 11.364 C 18.051 10.435,18.051 9.565,17.845 8.636 C 17.637 7.698,17.168 6.737,16.541 5.967 C 16.256 5.615,15.675 5.052,15.294 4.757 C 14.173 3.888,12.684 3.282,11.183 3.083 C 10.700 3.019,9.669 2.993,9.233 3.034 M7.448 9.114 C 7.796 9.284,7.982 9.592,7.983 10.000 C 7.983 10.207,7.967 10.282,7.890 10.441 C 7.777 10.670,7.586 10.842,7.343 10.933 C 6.608 11.208,5.849 10.536,6.032 9.772 C 6.183 9.145,6.863 8.828,7.448 9.114 M10.448 9.114 C 10.796 9.284,10.982 9.592,10.983 10.000 C 10.983 10.207,10.967 10.282,10.890 10.441 C 10.777 10.670,10.586 10.842,10.343 10.933 C 9.608 11.208,8.849 10.536,9.032 9.772 C 9.183 9.145,9.863 8.828,10.448 9.114 M13.448 9.114 C 13.796 9.284,13.982 9.592,13.983 10.000 C 13.983 10.207,13.967 10.282,13.890 10.441 C 13.777 10.670,13.586 10.842,13.343 10.933 C 12.608 11.208,11.849 10.536,12.032 9.772 C 12.183 9.145,12.863 8.828,13.448 9.114 " fill="#0F172A" stroke="none" fill-rule="evenodd"></path></svg>