<svg width="20" height="20" viewBox="0 0 20 20" fill="none" xmlns="http://www.w3.org/2000/svg"><path d="M8.350 2.037 C 6.992 2.091,5.432 2.236,4.053 2.435 C 3.188 2.559,3.031 2.598,2.645 2.785 C 1.897 3.145,1.377 3.768,1.108 4.624 L 1.017 4.917 1.017 8.000 L 1.017 11.083 1.110 11.381 C 1.427 12.394,2.161 13.136,3.106 13.400 C 3.376 13.475,4.620 13.662,5.458 13.753 L 6.000 13.811 6.000 15.583 C 6.000 17.593,5.997 17.563,6.249 17.795 C 6.457 17.987,6.695 18.041,6.983 17.964 C 7.097 17.933,7.394 17.650,9.033 16.015 C 10.427 14.625,10.986 14.088,11.083 14.047 C 11.181 14.006,11.382 13.983,11.833 13.963 C 13.617 13.881,16.194 13.594,16.894 13.400 C 17.422 13.253,17.992 12.878,18.327 12.458 C 18.556 12.170,18.774 11.754,18.890 11.383 L 18.983 11.083 18.983 8.000 L 18.983 4.917 18.892 4.624 C 18.622 3.766,18.103 3.145,17.352 2.783 C 16.970 2.599,16.810 2.559,15.947 2.435 C 13.452 2.075,10.834 1.937,8.350 2.037 " fill="#0F172A" stroke="none" fill-rule="evenodd"></path></svg>