<svg width="20" height="20" viewBox="0 0 20 20" fill="none" xmlns="http://www.w3.org/2000/svg"><path d="M7.400 2.036 C 5.680 2.102,3.547 2.316,3.040 2.472 C 2.097 2.763,1.386 3.513,1.092 4.530 C 1.019 4.782,1.018 4.804,1.007 7.833 C 1.000 9.896,1.008 10.964,1.032 11.133 C 1.203 12.321,2.048 13.277,3.181 13.566 C 3.327 13.603,3.795 13.674,4.223 13.724 L 5.000 13.814 5.000 15.585 C 5.000 17.594,4.997 17.563,5.249 17.796 C 5.333 17.873,5.455 17.945,5.539 17.968 C 5.706 18.013,5.956 17.992,6.090 17.921 C 6.141 17.893,6.871 17.183,7.710 16.342 L 9.237 14.812 8.843 14.414 C 8.148 13.713,7.774 13.014,7.577 12.049 C 7.523 11.784,7.517 11.565,7.517 10.100 C 7.517 8.305,7.520 8.264,7.722 7.621 C 8.125 6.339,9.177 5.247,10.433 4.807 C 11.042 4.594,11.496 4.548,13.317 4.513 C 14.463 4.491,16.227 4.538,16.679 4.602 C 16.806 4.620,16.916 4.629,16.922 4.622 C 16.948 4.597,16.734 4.023,16.631 3.840 C 16.258 3.178,15.659 2.688,14.959 2.472 C 14.710 2.395,14.291 2.332,13.367 2.235 C 11.454 2.032,9.327 1.961,7.400 2.036 M12.683 6.021 C 12.007 6.045,11.344 6.101,11.150 6.152 C 10.671 6.277,10.025 6.681,9.731 7.039 C 9.426 7.411,9.217 7.807,9.093 8.250 C 9.020 8.510,9.018 8.559,9.018 10.117 C 9.018 11.674,9.020 11.724,9.093 11.983 C 9.331 12.831,9.877 13.508,10.623 13.879 C 10.993 14.064,11.283 14.130,11.933 14.180 C 12.312 14.209,12.563 14.244,12.649 14.280 C 12.742 14.319,13.164 14.717,14.082 15.629 C 15.447 16.985,15.466 17.000,15.750 17.000 C 16.039 17.000,16.379 16.750,16.459 16.479 C 16.488 16.384,16.500 16.016,16.500 15.261 L 16.500 14.180 16.708 14.137 C 17.378 13.999,18.030 13.568,18.454 12.983 C 18.624 12.749,18.822 12.319,18.909 11.994 C 18.981 11.725,18.983 11.668,18.983 10.117 C 18.982 8.560,18.980 8.509,18.907 8.250 C 18.659 7.367,18.088 6.685,17.287 6.315 C 16.955 6.162,16.696 6.102,16.206 6.065 C 15.764 6.032,13.259 6.000,12.683 6.021 " fill="#0F172A" stroke="none" fill-rule="evenodd"></path></svg>