<svg width="20" height="20" viewBox="0 0 20 20" fill="none" xmlns="http://www.w3.org/2000/svg"><path d="M8.350 2.037 C 6.992 2.091,5.432 2.236,4.053 2.435 C 3.188 2.559,3.031 2.598,2.645 2.785 C 1.897 3.145,1.377 3.768,1.108 4.624 L 1.017 4.917 1.017 8.000 L 1.017 11.083 1.110 11.381 C 1.427 12.394,2.162 13.137,3.106 13.400 C 3.540 13.520,5.338 13.757,6.667 13.868 C 7.168 13.910,7.324 13.961,7.488 14.137 C 7.546 14.199,7.987 15.008,8.467 15.933 C 8.948 16.859,9.377 17.664,9.420 17.722 C 9.528 17.866,9.807 18.000,10.000 18.000 C 10.193 18.000,10.473 17.866,10.580 17.722 C 10.623 17.664,11.051 16.859,11.532 15.933 C 12.016 15.001,12.453 14.200,12.511 14.137 C 12.677 13.961,12.832 13.910,13.333 13.868 C 14.662 13.757,16.460 13.520,16.894 13.400 C 17.423 13.253,17.993 12.878,18.327 12.458 C 18.556 12.170,18.774 11.754,18.890 11.383 L 18.983 11.083 18.983 8.000 L 18.983 4.917 18.892 4.624 C 18.622 3.766,18.103 3.145,17.352 2.783 C 16.970 2.599,16.810 2.559,15.947 2.435 C 13.452 2.075,10.834 1.937,8.350 2.037 M13.479 6.041 C 13.750 6.121,14.000 6.461,14.000 6.750 C 14.000 7.037,13.743 7.392,13.483 7.463 C 13.296 7.514,6.704 7.514,6.517 7.463 C 6.430 7.440,6.328 7.370,6.227 7.266 C 6.013 7.045,5.954 6.816,6.036 6.521 C 6.081 6.360,6.350 6.083,6.505 6.038 C 6.682 5.987,13.307 5.990,13.479 6.041 M10.479 8.541 C 10.750 8.621,11.000 8.961,11.000 9.250 C 11.000 9.537,10.743 9.892,10.483 9.963 C 10.394 9.988,9.736 10.000,8.500 10.000 C 7.264 10.000,6.606 9.988,6.517 9.963 C 6.430 9.940,6.328 9.870,6.227 9.766 C 6.013 9.545,5.954 9.316,6.036 9.021 C 6.081 8.860,6.350 8.583,6.505 8.538 C 6.680 8.488,10.309 8.490,10.479 8.541 " fill="#0F172A" stroke="none" fill-rule="evenodd"></path></svg>