<svg width="20" height="20" viewBox="0 0 20 20" fill="none" xmlns="http://www.w3.org/2000/svg"><path d="M16.005 4.042 C 15.944 4.062,15.829 4.139,15.749 4.214 C 15.669 4.289,13.944 6.532,11.914 9.200 C 9.885 11.867,8.211 14.065,8.195 14.082 C 8.176 14.103,7.407 13.357,6.174 12.125 C 4.076 10.029,4.045 10.002,3.750 10.001 C 3.452 10.000,3.107 10.260,3.031 10.541 C 2.987 10.707,3.008 10.956,3.079 11.090 C 3.107 11.141,4.199 12.251,5.506 13.556 C 7.551 15.597,7.902 15.933,8.017 15.964 C 8.310 16.043,8.551 15.985,8.753 15.789 C 8.965 15.582,16.906 5.138,16.955 5.001 C 17.055 4.721,16.989 4.443,16.771 4.233 C 16.550 4.018,16.287 3.952,16.005 4.042 " fill="#0F172A" stroke="none" fill-rule="evenodd"></path></svg>