<svg width="20" height="20" viewBox="0 0 20 20" fill="none" xmlns="http://www.w3.org/2000/svg"><path d="M9.433 2.019 C 9.369 2.027,9.177 2.049,9.007 2.069 C 7.090 2.292,5.164 3.324,3.941 4.782 C 2.913 6.007,2.318 7.311,2.078 8.867 C 1.995 9.402,1.995 10.598,2.078 11.133 C 2.628 14.691,5.309 17.372,8.867 17.922 C 9.402 18.005,10.598 18.005,11.133 17.922 C 12.644 17.689,14.032 17.061,15.183 16.090 C 16.447 15.024,17.377 13.512,17.778 11.866 C 17.938 11.208,17.982 10.810,17.982 10.000 C 17.982 9.447,17.966 9.149,17.922 8.867 C 17.533 6.348,16.075 4.235,13.882 3.012 C 13.033 2.539,12.144 2.239,11.133 2.084 C 10.800 2.033,9.680 1.991,9.433 2.019 M13.479 7.041 C 13.674 7.098,13.908 7.341,13.964 7.542 C 14.009 7.702,14.001 7.881,13.940 8.034 C 13.889 8.165,9.881 13.668,9.737 13.806 C 9.547 13.986,9.300 14.040,9.017 13.964 C 8.904 13.933,8.674 13.719,7.521 12.572 C 6.078 11.136,6.001 11.043,6.001 10.750 C 6.001 10.595,6.123 10.315,6.237 10.210 C 6.357 10.101,6.600 10.001,6.750 10.001 C 7.026 10.001,7.132 10.085,8.170 11.121 L 9.156 12.106 10.881 9.728 C 11.830 8.420,12.671 7.289,12.750 7.214 C 12.963 7.012,13.197 6.957,13.479 7.041 " fill="#0F172A" stroke="none" fill-rule="evenodd"></path></svg>