<svg width="20" height="20" viewBox="0 0 20 20" fill="none" xmlns="http://www.w3.org/2000/svg"><path d="M5.467 7.067 C 5.255 7.166,5.110 7.318,5.047 7.510 C 4.985 7.695,4.998 7.936,5.078 8.090 C 5.105 8.141,6.110 9.226,7.313 10.500 C 9.672 13.000,9.672 13.000,10.000 13.000 C 10.329 13.000,10.327 13.001,12.699 10.487 C 15.018 8.029,15.000 8.050,15.000 7.748 C 15.000 7.327,14.598 6.967,14.176 7.010 C 14.078 7.020,13.946 7.061,13.882 7.101 C 13.817 7.141,13.043 7.941,12.161 8.878 C 11.278 9.816,10.430 10.713,10.275 10.871 L 9.993 11.159 8.115 9.167 C 7.082 8.071,6.183 7.141,6.118 7.101 C 5.943 6.993,5.658 6.978,5.467 7.067 " fill="#0F172A" stroke="none" fill-rule="evenodd"></path></svg>