<svg width="20" height="20" viewBox="0 0 20 20" fill="none" xmlns="http://www.w3.org/2000/svg"><path d="M8.950 5.079 C 8.824 5.138,8.223 5.686,6.467 7.345 C 3.971 9.701,4.001 9.668,4.000 10.005 C 4.000 10.328,4.004 10.332,6.513 12.699 C 8.467 14.542,8.867 14.905,8.994 14.948 C 9.283 15.047,9.533 14.996,9.752 14.795 C 9.993 14.573,10.058 14.245,9.925 13.930 C 9.889 13.844,9.293 13.264,7.857 11.913 C 6.747 10.870,5.839 10.009,5.839 10.000 C 5.839 9.991,6.747 9.130,7.857 8.087 C 9.295 6.735,9.889 6.156,9.925 6.070 C 10.060 5.750,10.005 5.459,9.766 5.227 C 9.519 4.988,9.249 4.939,8.950 5.079 M14.950 5.079 C 14.823 5.138,14.226 5.683,12.467 7.345 C 9.972 9.701,10.001 9.670,10.000 10.005 C 10.000 10.328,10.004 10.332,12.513 12.699 C 14.467 14.542,14.867 14.905,14.994 14.948 C 15.283 15.047,15.533 14.996,15.752 14.795 C 15.993 14.573,16.058 14.245,15.925 13.930 C 15.889 13.844,15.293 13.264,13.857 11.913 C 12.747 10.870,11.839 10.009,11.839 10.000 C 11.839 9.991,12.747 9.130,13.857 8.087 C 15.295 6.735,15.889 6.156,15.925 6.070 C 16.060 5.750,16.005 5.459,15.766 5.227 C 15.519 4.988,15.249 4.939,14.950 5.079 " fill="#0F172A" stroke="none" fill-rule="evenodd"></path></svg>