<svg width="20" height="20" viewBox="0 0 20 20" fill="none" xmlns="http://www.w3.org/2000/svg"><path d="M5.467 4.067 C 5.255 4.166,5.110 4.318,5.047 4.510 C 4.985 4.695,4.998 4.936,5.078 5.090 C 5.105 5.141,6.110 6.226,7.313 7.500 C 9.672 10.000,9.672 10.000,10.000 10.000 C 10.329 10.000,10.327 10.001,12.699 7.487 C 15.018 5.029,15.000 5.050,15.000 4.748 C 15.000 4.327,14.598 3.967,14.176 4.010 C 14.078 4.020,13.946 4.061,13.881 4.101 C 13.816 4.141,12.924 5.065,11.897 6.154 C 10.871 7.243,10.017 8.133,10.000 8.133 C 9.983 8.133,9.129 7.242,8.102 6.153 C 7.076 5.064,6.182 4.140,6.117 4.100 C 5.943 3.993,5.658 3.978,5.467 4.067 M5.467 10.067 C 5.255 10.166,5.110 10.318,5.047 10.510 C 4.985 10.695,4.998 10.936,5.078 11.090 C 5.105 11.141,6.110 12.226,7.313 13.500 C 9.672 16.000,9.672 16.000,10.000 16.000 C 10.329 16.000,10.327 16.001,12.699 13.487 C 15.018 11.029,15.000 11.050,15.000 10.748 C 15.000 10.327,14.598 9.967,14.176 10.010 C 14.078 10.020,13.946 10.061,13.881 10.101 C 13.816 10.141,12.924 11.065,11.897 12.154 C 10.871 13.243,10.017 14.133,10.000 14.133 C 9.983 14.133,9.129 13.242,8.102 12.153 C 7.076 11.064,6.182 10.140,6.117 10.100 C 5.943 9.993,5.658 9.978,5.467 10.067 " fill="#0F172A" stroke="none" fill-rule="evenodd"></path></svg>