<svg width="20" height="20" viewBox="0 0 20 20" fill="none" xmlns="http://www.w3.org/2000/svg"><path d="M7.507 5.038 C 7.337 5.087,7.080 5.355,7.033 5.533 C 6.987 5.705,7.002 5.898,7.075 6.070 C 7.111 6.155,7.634 6.669,8.855 7.817 C 9.805 8.712,10.713 9.571,10.871 9.725 L 11.159 10.007 9.142 11.908 C 7.709 13.259,7.111 13.844,7.075 13.930 C 6.942 14.245,6.995 14.538,7.229 14.771 C 7.453 14.995,7.702 15.052,8.006 14.948 C 8.133 14.905,8.533 14.542,10.487 12.699 C 13.001 10.327,13.000 10.329,13.000 10.000 C 13.000 9.673,12.997 9.670,10.517 7.329 C 8.781 5.690,8.176 5.139,8.050 5.079 C 7.876 4.997,7.696 4.983,7.507 5.038 " fill="#0F172A" stroke="none" fill-rule="evenodd"></path></svg>