<svg width="20" height="20" viewBox="0 0 20 20" fill="none" xmlns="http://www.w3.org/2000/svg"><path d="M9.754 7.047 C 9.683 7.073,9.575 7.137,9.513 7.189 C 9.320 7.352,5.129 11.812,5.079 11.908 C 4.880 12.292,5.094 12.815,5.507 12.952 C 5.698 13.016,5.935 13.002,6.097 12.918 C 6.153 12.889,7.052 11.960,8.096 10.854 L 9.993 8.841 10.275 9.129 C 10.429 9.287,11.287 10.193,12.179 11.141 C 13.072 12.090,13.848 12.890,13.903 12.918 C 14.065 13.002,14.302 13.016,14.493 12.952 C 14.906 12.815,15.120 12.292,14.920 11.908 C 14.844 11.761,10.511 7.191,10.368 7.106 C 10.203 7.009,9.928 6.982,9.754 7.047 " fill="#0F172A" stroke="none" fill-rule="evenodd"></path></svg>