<svg width="20" height="20" viewBox="0 0 20 20" fill="none" xmlns="http://www.w3.org/2000/svg"><path d="M11.950 5.079 C 11.824 5.138,11.223 5.686,9.467 7.345 C 6.971 9.701,7.001 9.668,7.000 10.005 C 7.000 10.328,7.004 10.332,9.513 12.699 C 11.467 14.542,11.867 14.905,11.994 14.948 C 12.283 15.047,12.533 14.996,12.752 14.795 C 12.993 14.573,13.058 14.245,12.925 13.930 C 12.889 13.844,12.293 13.264,10.857 11.913 C 9.747 10.870,8.839 10.009,8.839 10.000 C 8.839 9.991,9.747 9.130,10.857 8.087 C 12.295 6.735,12.889 6.156,12.925 6.070 C 13.060 5.750,13.005 5.459,12.766 5.227 C 12.519 4.988,12.249 4.939,11.950 5.079 " fill="#0F172A" stroke="none" fill-rule="evenodd"></path></svg>