<svg width="20" height="20" viewBox="0 0 20 20" fill="none" xmlns="http://www.w3.org/2000/svg"><path d="M9.754 3.047 C 9.683 3.073,9.575 3.137,9.513 3.189 C 9.332 3.342,6.131 6.808,6.080 6.908 C 5.937 7.183,5.998 7.529,6.231 7.770 C 6.460 8.006,6.812 8.066,7.098 7.917 C 7.155 7.888,7.824 7.194,8.585 6.374 C 9.347 5.554,9.984 4.883,10.000 4.883 C 10.016 4.883,10.649 5.550,11.406 6.365 C 12.164 7.181,12.831 7.875,12.888 7.908 C 13.030 7.990,13.284 8.016,13.467 7.967 C 13.669 7.913,13.905 7.671,13.965 7.456 C 14.014 7.281,13.995 7.050,13.920 6.908 C 13.840 6.755,10.507 3.189,10.368 3.106 C 10.203 3.009,9.928 2.982,9.754 3.047 M6.448 12.077 C 6.061 12.262,5.891 12.730,6.080 13.092 C 6.106 13.142,6.885 14.001,7.812 15.000 C 9.639 16.969,9.673 17.000,10.000 17.000 C 10.325 17.000,10.361 16.968,12.186 15.000 C 13.113 14.001,13.894 13.142,13.920 13.092 C 14.050 12.845,14.005 12.495,13.814 12.273 C 13.590 12.011,13.214 11.934,12.912 12.089 C 12.828 12.132,12.310 12.663,11.406 13.635 C 10.648 14.450,10.015 15.117,9.999 15.117 C 9.983 15.117,9.349 14.448,8.590 13.631 C 7.623 12.590,7.171 12.127,7.080 12.084 C 6.873 11.985,6.646 11.983,6.448 12.077 " fill="#0F172A" stroke="none" fill-rule="evenodd"></path></svg>