<svg width="20" height="20" viewBox="0 0 20 20" fill="none" xmlns="http://www.w3.org/2000/svg"><path d="M9.754 4.047 C 9.683 4.073,9.575 4.137,9.513 4.189 C 9.317 4.354,5.129 8.813,5.078 8.910 C 4.876 9.300,5.117 9.854,5.539 9.968 C 5.717 10.016,5.972 9.989,6.112 9.908 C 6.169 9.874,7.066 8.945,8.105 7.844 L 9.993 5.841 10.275 6.129 C 10.430 6.287,11.287 7.193,12.179 8.141 C 13.072 9.090,13.848 9.890,13.903 9.918 C 14.065 10.002,14.302 10.016,14.493 9.952 C 14.906 9.815,15.120 9.292,14.920 8.908 C 14.844 8.761,10.511 4.191,10.368 4.106 C 10.203 4.009,9.928 3.982,9.754 4.047 M9.754 10.047 C 9.683 10.073,9.575 10.137,9.513 10.189 C 9.320 10.352,5.129 14.812,5.079 14.908 C 4.880 15.292,5.094 15.815,5.507 15.952 C 5.706 16.018,5.953 16.000,6.112 15.908 C 6.169 15.874,7.066 14.945,8.105 13.844 L 9.993 11.841 10.275 12.129 C 10.430 12.287,11.287 13.193,12.179 14.141 C 13.072 15.090,13.848 15.890,13.903 15.918 C 14.065 16.002,14.302 16.016,14.493 15.952 C 14.906 15.815,15.120 15.292,14.920 14.908 C 14.844 14.761,10.511 10.191,10.368 10.106 C 10.203 10.009,9.928 9.982,9.754 10.047 " fill="#0F172A" stroke="none" fill-rule="evenodd"></path></svg>