<svg width="20" height="20" viewBox="0 0 20 20" fill="none" xmlns="http://www.w3.org/2000/svg"><path d="M4.515 5.035 C 4.352 5.083,4.150 5.280,4.068 5.472 C 3.981 5.673,3.986 5.874,4.084 6.079 C 4.127 6.170,4.745 6.773,6.153 8.096 C 7.257 9.134,8.161 9.991,8.161 10.000 C 8.161 10.009,7.257 10.866,6.153 11.904 C 4.745 13.227,4.127 13.830,4.084 13.921 C 3.846 14.421,4.216 15.001,4.771 15.000 C 5.042 14.999,5.131 14.923,7.517 12.670 C 8.883 11.378,9.850 10.440,9.900 10.357 C 9.966 10.246,9.983 10.172,9.983 10.000 C 9.983 9.828,9.966 9.754,9.900 9.643 C 9.850 9.560,8.883 8.622,7.517 7.330 C 5.779 5.689,5.176 5.139,5.050 5.079 C 4.878 4.998,4.695 4.983,4.515 5.035 M10.507 5.038 C 10.337 5.087,10.080 5.355,10.033 5.533 C 9.987 5.705,10.002 5.898,10.075 6.070 C 10.111 6.155,10.634 6.669,11.855 7.817 C 12.805 8.712,13.713 9.571,13.871 9.725 L 14.159 10.007 12.142 11.908 C 10.709 13.259,10.111 13.844,10.075 13.930 C 9.942 14.245,9.995 14.538,10.229 14.771 C 10.453 14.995,10.702 15.052,11.006 14.948 C 11.133 14.905,11.533 14.542,13.487 12.699 C 16.001 10.327,16.000 10.329,16.000 10.000 C 16.000 9.673,15.997 9.670,13.517 7.329 C 11.781 5.690,11.176 5.139,11.050 5.079 C 10.876 4.997,10.696 4.983,10.507 5.038 " fill="#0F172A" stroke="none" fill-rule="evenodd"></path></svg>