<svg width="20" height="20" viewBox="0 0 20 20" fill="none" xmlns="http://www.w3.org/2000/svg"><path d="M9.105 1.034 C 6.542 1.236,4.379 2.208,3.470 3.567 C 2.698 4.722,2.886 5.977,3.991 7.036 C 5.009 8.012,6.572 8.654,8.583 8.922 C 8.911 8.966,9.256 8.980,10.000 8.980 C 11.074 8.980,11.442 8.947,12.335 8.767 C 14.846 8.262,16.664 6.952,16.953 5.439 C 17.345 3.390,14.929 1.495,11.400 1.084 C 10.853 1.020,9.622 0.994,9.105 1.034 M3.000 9.194 C 3.000 10.288,3.024 10.509,3.187 10.916 C 3.332 11.278,3.624 11.684,3.997 12.042 C 5.004 13.009,6.581 13.655,8.583 13.922 C 9.195 14.004,10.805 14.004,11.417 13.922 C 13.419 13.655,14.996 13.009,16.003 12.042 C 16.376 11.684,16.668 11.278,16.813 10.916 C 16.976 10.509,17.000 10.288,17.000 9.194 L 17.000 8.194 16.921 8.256 C 16.878 8.289,16.739 8.400,16.613 8.502 C 15.383 9.498,13.616 10.161,11.500 10.422 C 10.818 10.506,9.182 10.506,8.500 10.422 C 6.380 10.161,4.619 9.500,3.387 8.502 C 3.261 8.400,3.122 8.289,3.079 8.256 L 3.000 8.194 3.000 9.194 M3.000 14.194 C 3.000 15.288,3.024 15.509,3.187 15.916 C 3.484 16.660,4.311 17.456,5.325 17.976 C 5.973 18.308,6.837 18.601,7.665 18.767 C 8.558 18.947,8.926 18.980,10.000 18.980 C 11.074 18.980,11.442 18.947,12.335 18.767 C 14.846 18.262,16.664 16.952,16.953 15.439 C 16.987 15.263,17.000 14.914,17.000 14.194 L 17.000 13.194 16.921 13.256 C 16.878 13.289,16.739 13.400,16.613 13.502 C 15.383 14.498,13.616 15.161,11.500 15.422 C 10.818 15.506,9.182 15.506,8.500 15.422 C 6.380 15.161,4.619 14.500,3.387 13.502 C 3.261 13.400,3.122 13.289,3.079 13.256 L 3.000 13.194 3.000 14.194 " fill="#0F172A" stroke="none" fill-rule="evenodd"></path></svg>