<svg width="20" height="20" viewBox="0 0 20 20" fill="none" xmlns="http://www.w3.org/2000/svg"><path d="M8.551 1.036 C 7.476 1.199,6.551 1.958,6.181 2.981 L 6.108 3.182 5.429 3.257 C 4.430 3.368,4.107 3.494,3.644 3.958 C 3.363 4.240,3.130 4.668,3.050 5.050 C 2.977 5.400,2.977 16.866,3.050 17.217 C 3.185 17.863,3.642 18.453,4.235 18.746 C 4.781 19.015,4.406 18.999,10.000 18.999 C 15.594 18.999,15.219 19.015,15.765 18.746 C 16.207 18.528,16.528 18.207,16.746 17.765 C 17.017 17.216,16.999 17.693,16.999 11.133 C 16.999 4.580,17.017 5.050,16.749 4.508 C 16.630 4.268,16.543 4.145,16.356 3.958 C 15.893 3.494,15.570 3.368,14.571 3.257 L 13.892 3.182 13.819 2.981 C 13.485 2.059,12.719 1.363,11.740 1.092 C 11.500 1.026,11.395 1.021,10.117 1.013 C 9.365 1.009,8.661 1.019,8.551 1.036 M11.307 2.538 C 11.730 2.627,12.114 2.916,12.310 3.293 C 12.455 3.572,12.500 3.783,12.500 4.185 L 12.500 4.500 10.000 4.500 L 7.500 4.500 7.500 4.185 C 7.500 3.800,7.545 3.577,7.673 3.321 C 7.863 2.944,8.238 2.647,8.650 2.546 C 8.873 2.492,11.058 2.485,11.307 2.538 " fill="#0F172A" stroke="none" fill-rule="evenodd"></path></svg>