<svg width="20" height="20" viewBox="0 0 20 20" fill="none" xmlns="http://www.w3.org/2000/svg"><path d="M11.786 1.052 C 11.324 1.144,10.830 1.444,10.516 1.825 C 10.263 2.131,10.112 2.469,10.019 2.935 C 10.004 3.010,9.978 3.024,9.776 3.058 C 9.481 3.109,9.006 3.346,8.761 3.565 C 8.538 3.765,8.378 3.975,8.240 4.250 C 8.073 4.586,8.072 4.579,8.291 4.648 C 8.515 4.718,8.885 4.899,9.100 5.043 C 9.310 5.183,12.740 8.606,12.918 8.852 C 13.109 9.117,13.314 9.550,13.407 9.883 C 13.479 10.142,13.481 10.206,13.492 12.075 L 13.503 14.000 14.743 13.999 C 16.174 13.999,16.280 13.985,16.765 13.746 C 17.207 13.528,17.528 13.207,17.746 12.765 C 18.010 12.230,17.999 12.422,17.999 8.500 C 17.999 5.551,17.991 4.981,17.949 4.783 C 17.886 4.484,17.686 4.069,17.488 3.826 C 17.182 3.452,16.673 3.144,16.224 3.060 C 16.023 3.023,15.995 3.008,15.981 2.934 C 15.889 2.470,15.737 2.131,15.484 1.825 C 15.161 1.434,14.675 1.143,14.188 1.050 C 13.838 0.983,12.127 0.984,11.786 1.052 M13.979 2.541 C 14.160 2.594,14.406 2.840,14.459 3.021 C 14.482 3.096,14.500 3.235,14.500 3.329 L 14.500 3.500 13.000 3.500 L 11.500 3.500 11.500 3.325 C 11.500 3.229,11.517 3.092,11.536 3.021 C 11.581 2.860,11.850 2.583,12.005 2.538 C 12.175 2.489,13.813 2.491,13.979 2.541 M3.150 6.046 C 2.902 6.107,2.587 6.288,2.420 6.467 C 2.244 6.654,2.089 6.949,2.038 7.193 C 1.985 7.441,1.984 16.555,2.037 16.807 C 2.090 17.062,2.282 17.408,2.466 17.579 C 2.654 17.756,2.948 17.910,3.193 17.962 C 3.443 18.015,10.557 18.015,10.807 17.962 C 11.052 17.910,11.346 17.756,11.534 17.579 C 11.718 17.408,11.910 17.062,11.963 16.807 C 12.012 16.574,12.015 10.590,11.967 10.330 C 11.948 10.231,11.885 10.053,11.827 9.933 C 11.732 9.740,11.537 9.533,10.002 7.998 C 8.467 6.463,8.260 6.268,8.067 6.173 C 7.948 6.115,7.769 6.052,7.670 6.033 C 7.399 5.983,3.363 5.994,3.150 6.046 " fill="#0F172A" stroke="none" fill-rule="evenodd"></path></svg>