<svg width="20" height="20" viewBox="0 0 20 20" fill="none" xmlns="http://www.w3.org/2000/svg"><path d="M11.786 1.052 C 11.324 1.144,10.830 1.444,10.516 1.825 C 10.263 2.131,10.112 2.469,10.019 2.935 C 10.004 3.010,9.978 3.024,9.781 3.057 C 9.330 3.135,8.761 3.490,8.469 3.876 C 8.358 4.024,8.133 4.427,8.133 4.479 C 8.133 4.489,8.880 4.502,9.792 4.509 C 11.634 4.523,11.573 4.516,12.080 4.760 C 12.604 5.011,12.999 5.412,13.253 5.950 C 13.508 6.488,13.500 6.345,13.500 10.404 L 13.500 14.000 14.742 13.999 C 16.174 13.999,16.280 13.986,16.765 13.746 C 17.207 13.528,17.528 13.207,17.746 12.765 C 18.010 12.230,17.999 12.422,17.999 8.500 C 17.999 5.551,17.991 4.981,17.949 4.783 C 17.886 4.484,17.686 4.069,17.488 3.826 C 17.182 3.452,16.673 3.144,16.224 3.060 C 16.023 3.023,15.995 3.008,15.981 2.934 C 15.889 2.470,15.737 2.131,15.484 1.825 C 15.161 1.434,14.675 1.143,14.188 1.050 C 13.838 0.983,12.127 0.984,11.786 1.052 M13.979 2.541 C 14.160 2.594,14.406 2.840,14.459 3.021 C 14.482 3.096,14.500 3.235,14.500 3.329 L 14.500 3.500 13.000 3.500 L 11.500 3.500 11.500 3.325 C 11.500 3.229,11.517 3.092,11.536 3.021 C 11.581 2.860,11.850 2.583,12.005 2.538 C 12.175 2.489,13.813 2.491,13.979 2.541 M2.678 6.061 C 2.343 6.178,2.105 6.442,2.033 6.779 C 2.007 6.900,1.999 8.445,2.006 12.100 L 2.017 17.250 2.110 17.439 C 2.215 17.654,2.377 17.811,2.598 17.913 L 2.750 17.983 7.000 17.983 L 11.250 17.983 11.439 17.890 C 11.654 17.785,11.811 17.623,11.913 17.402 L 11.983 17.250 11.983 12.000 L 11.983 6.750 11.913 6.598 C 11.811 6.377,11.654 6.215,11.439 6.110 L 11.250 6.017 7.050 6.009 C 3.086 6.002,2.840 6.005,2.678 6.061 M9.483 9.537 C 9.755 9.612,10.000 9.950,10.000 10.250 C 10.000 10.550,9.755 10.888,9.483 10.963 C 9.392 10.988,8.616 11.000,7.000 11.000 C 5.384 11.000,4.608 10.988,4.517 10.963 C 4.340 10.914,4.086 10.660,4.037 10.483 C 3.957 10.194,4.014 9.952,4.211 9.744 C 4.449 9.493,4.333 9.503,6.983 9.502 C 8.615 9.501,9.391 9.512,9.483 9.537 M9.483 13.037 C 9.755 13.112,10.000 13.450,10.000 13.750 C 10.000 14.050,9.755 14.388,9.483 14.463 C 9.392 14.488,8.616 14.500,7.000 14.500 C 5.384 14.500,4.608 14.488,4.517 14.463 C 4.340 14.414,4.086 14.160,4.037 13.983 C 3.957 13.694,4.014 13.452,4.211 13.244 C 4.449 12.993,4.333 13.003,6.983 13.002 C 8.615 13.001,9.391 13.012,9.483 13.037 " fill="#0F172A" stroke="none" fill-rule="evenodd"></path></svg>