<svg width="20" height="20" viewBox="0 0 20 20" fill="none" xmlns="http://www.w3.org/2000/svg"><path d="M9.433 2.019 C 9.369 2.027,9.177 2.049,9.007 2.069 C 7.090 2.292,5.164 3.324,3.941 4.782 C 2.913 6.007,2.318 7.311,2.078 8.867 C 1.995 9.402,1.995 10.598,2.078 11.133 C 2.628 14.691,5.309 17.372,8.867 17.922 C 9.402 18.005,10.598 18.005,11.133 17.922 C 12.644 17.689,14.032 17.061,15.183 16.090 C 16.447 15.024,17.377 13.512,17.778 11.866 C 17.938 11.208,17.982 10.810,17.982 10.000 C 17.982 9.447,17.966 9.149,17.922 8.867 C 17.533 6.348,16.075 4.235,13.882 3.012 C 13.033 2.539,12.144 2.239,11.133 2.084 C 10.800 2.033,9.680 1.991,9.433 2.019 M10.310 4.320 C 10.449 4.391,10.592 4.525,10.661 4.650 C 10.711 4.740,10.718 4.985,10.733 7.000 L 10.750 9.250 12.500 9.267 C 14.418 9.285,14.341 9.277,14.538 9.489 C 14.681 9.643,14.733 9.780,14.733 10.000 C 14.733 10.303,14.596 10.528,14.317 10.678 C 14.184 10.750,14.173 10.750,12.000 10.750 C 9.827 10.750,9.816 10.750,9.683 10.678 C 9.528 10.594,9.397 10.461,9.320 10.310 C 9.272 10.214,9.267 9.922,9.267 7.500 C 9.267 4.906,9.269 4.792,9.330 4.674 C 9.403 4.533,9.537 4.399,9.683 4.322 C 9.818 4.251,10.171 4.250,10.310 4.320 " fill="#0F172A" stroke="none" fill-rule="evenodd"></path></svg>