<svg width="20" height="20" viewBox="0 0 20 20" fill="none" xmlns="http://www.w3.org/2000/svg"><path d="M7.954 3.033 C 6.993 3.155,6.113 3.574,5.407 4.248 C 4.717 4.907,4.281 5.690,4.081 6.634 C 4.022 6.912,3.995 7.690,4.032 8.077 L 4.047 8.237 3.768 8.351 C 2.820 8.739,1.933 9.564,1.473 10.486 C 1.335 10.761,1.154 11.292,1.080 11.634 C 0.993 12.036,0.993 12.971,1.079 13.366 C 1.288 14.323,1.717 15.093,2.411 15.756 C 3.021 16.339,3.665 16.684,4.567 16.910 C 4.849 16.980,4.876 16.980,10.067 16.991 C 15.815 17.004,15.612 17.010,16.244 16.798 C 17.458 16.391,18.391 15.459,18.798 14.246 C 19.366 12.550,18.700 10.653,17.189 9.662 C 17.021 9.551,16.881 9.458,16.878 9.455 C 16.874 9.452,16.893 9.360,16.920 9.250 C 16.946 9.140,16.977 8.870,16.988 8.650 C 17.050 7.408,16.459 6.261,15.403 5.572 C 14.575 5.032,13.607 4.875,12.605 5.120 C 12.374 5.176,12.358 5.176,12.328 5.122 C 12.223 4.934,11.860 4.503,11.592 4.247 C 10.969 3.653,10.289 3.295,9.417 3.100 C 9.071 3.023,8.308 2.988,7.954 3.033 M10.386 7.116 C 10.468 7.164,10.576 7.266,10.626 7.341 L 10.717 7.478 10.726 9.889 C 10.731 11.215,10.747 12.300,10.761 12.300 C 10.776 12.300,11.239 11.815,11.789 11.223 C 12.477 10.483,12.831 10.126,12.920 10.084 C 13.427 9.843,14.002 10.218,14.000 10.790 C 13.999 11.029,13.869 11.188,12.171 13.017 C 10.362 14.966,10.325 15.000,10.000 15.000 C 9.675 15.000,9.638 14.966,7.829 13.017 C 5.906 10.945,5.929 10.977,6.037 10.550 C 6.116 10.236,6.479 9.977,6.798 10.007 C 7.094 10.036,7.163 10.095,8.211 11.223 C 8.761 11.815,9.224 12.300,9.239 12.300 C 9.254 12.300,9.267 11.232,9.267 9.927 C 9.267 7.584,9.268 7.553,9.337 7.410 C 9.518 7.035,10.012 6.897,10.386 7.116 " fill="#0F172A" stroke="none" fill-rule="evenodd"></path></svg>