<svg width="20" height="20" viewBox="0 0 20 20" fill="none" xmlns="http://www.w3.org/2000/svg"><path d="M7.954 3.033 C 6.993 3.155,6.113 3.574,5.407 4.248 C 4.717 4.907,4.281 5.690,4.081 6.634 C 4.022 6.912,3.995 7.690,4.032 8.077 L 4.047 8.237 3.768 8.351 C 2.820 8.739,1.933 9.564,1.473 10.486 C 1.335 10.761,1.154 11.292,1.080 11.634 C 0.993 12.036,0.993 12.971,1.079 13.366 C 1.288 14.323,1.717 15.093,2.411 15.756 C 3.021 16.339,3.665 16.684,4.567 16.910 C 4.849 16.980,4.876 16.980,10.067 16.991 C 15.815 17.004,15.612 17.010,16.244 16.798 C 17.458 16.391,18.391 15.459,18.798 14.246 C 19.366 12.550,18.700 10.653,17.189 9.662 C 17.021 9.551,16.881 9.458,16.878 9.455 C 16.874 9.452,16.893 9.360,16.920 9.250 C 16.946 9.140,16.977 8.870,16.988 8.650 C 17.050 7.408,16.459 6.261,15.403 5.572 C 14.575 5.032,13.607 4.875,12.605 5.120 C 12.374 5.176,12.358 5.176,12.328 5.122 C 12.223 4.934,11.860 4.503,11.592 4.247 C 10.969 3.653,10.289 3.295,9.417 3.100 C 9.071 3.023,8.308 2.988,7.954 3.033 M10.367 7.106 C 10.440 7.149,11.241 7.983,12.170 8.983 C 13.869 10.813,13.999 10.970,14.000 11.210 C 14.001 11.544,13.758 11.889,13.467 11.967 C 13.292 12.014,13.046 11.992,12.902 11.918 C 12.846 11.889,12.348 11.378,11.794 10.783 C 11.241 10.187,10.776 9.700,10.761 9.700 C 10.747 9.700,10.731 10.786,10.726 12.114 L 10.717 14.528 10.616 14.671 C 10.485 14.857,10.218 15.000,10.002 15.000 C 9.781 15.000,9.512 14.858,9.384 14.672 L 9.283 14.528 9.274 12.114 C 9.269 10.786,9.253 9.700,9.239 9.700 C 9.224 9.700,8.759 10.187,8.206 10.783 C 7.652 11.378,7.154 11.889,7.098 11.918 C 6.954 11.992,6.708 12.014,6.533 11.967 C 6.242 11.889,5.999 11.544,6.000 11.210 C 6.001 10.971,6.132 10.811,7.797 9.017 C 8.698 8.045,9.480 7.215,9.534 7.171 C 9.766 6.985,10.117 6.957,10.367 7.106 " fill="#0F172A" stroke="none" fill-rule="evenodd"></path></svg>