<svg width="20" height="20" viewBox="0 0 20 20" fill="none" xmlns="http://www.w3.org/2000/svg"><path d="M7.954 3.033 C 6.993 3.155,6.113 3.574,5.407 4.248 C 4.717 4.907,4.281 5.690,4.081 6.634 C 4.022 6.912,3.995 7.690,4.032 8.077 L 4.047 8.237 3.768 8.351 C 2.820 8.739,1.933 9.564,1.473 10.486 C 1.335 10.761,1.154 11.292,1.080 11.634 C 0.993 12.036,0.993 12.971,1.079 13.366 C 1.288 14.323,1.717 15.093,2.411 15.756 C 3.021 16.339,3.665 16.684,4.567 16.910 C 4.849 16.980,4.876 16.980,10.067 16.991 C 15.815 17.004,15.612 17.010,16.244 16.798 C 17.458 16.391,18.391 15.459,18.798 14.246 C 19.366 12.550,18.700 10.653,17.189 9.662 C 17.021 9.551,16.881 9.458,16.878 9.455 C 16.874 9.452,16.893 9.360,16.920 9.250 C 16.946 9.140,16.977 8.870,16.988 8.650 C 17.050 7.408,16.459 6.261,15.403 5.572 C 14.575 5.032,13.607 4.875,12.605 5.120 C 12.374 5.176,12.358 5.176,12.328 5.122 C 12.223 4.934,11.860 4.503,11.592 4.247 C 10.969 3.653,10.289 3.295,9.417 3.100 C 9.071 3.023,8.308 2.988,7.954 3.033 " fill="#0F172A" stroke="none" fill-rule="evenodd"></path></svg>