<svg width="20" height="20" viewBox="0 0 20 20" fill="none" xmlns="http://www.w3.org/2000/svg"><path d="M11.000 2.042 C 10.837 2.096,10.590 2.353,10.543 2.517 C 10.522 2.590,9.939 5.940,9.246 9.960 C 8.053 16.890,7.989 17.279,8.029 17.426 C 8.140 17.842,8.549 18.079,8.958 17.964 C 9.159 17.908,9.402 17.673,9.457 17.483 C 9.478 17.410,10.061 14.060,10.754 10.040 C 11.947 3.110,12.011 2.721,11.971 2.574 C 11.885 2.252,11.628 2.035,11.311 2.015 C 11.204 2.008,11.064 2.020,11.000 2.042 M5.450 5.080 C 5.317 5.144,4.834 5.611,3.062 7.388 C 0.688 9.770,0.754 9.695,0.758 10.021 C 0.763 10.319,0.778 10.335,3.138 12.689 C 5.519 15.063,5.447 15.000,5.750 15.000 C 6.150 15.000,6.499 14.649,6.500 14.246 C 6.500 13.952,6.505 13.957,4.474 11.925 L 2.550 10.000 4.474 8.075 C 6.092 6.457,6.406 6.127,6.449 6.004 C 6.583 5.620,6.425 5.253,6.050 5.078 C 5.838 4.979,5.660 4.980,5.450 5.080 M13.950 5.078 C 13.586 5.248,13.430 5.589,13.536 5.983 C 13.567 6.098,13.850 6.395,15.511 8.058 L 17.449 10.000 15.511 11.942 C 13.458 13.998,13.500 13.949,13.500 14.250 C 13.500 14.648,13.852 15.000,14.250 15.000 C 14.553 15.000,14.481 15.063,16.862 12.689 C 19.222 10.335,19.237 10.319,19.242 10.021 C 19.246 9.695,19.312 9.770,16.938 7.388 C 14.581 5.024,14.555 5.001,14.250 5.001 C 14.177 5.001,14.042 5.036,13.950 5.078 " fill="#0F172A" stroke="none" fill-rule="evenodd"></path></svg>