<svg width="20" height="20" viewBox="0 0 20 20" fill="none" xmlns="http://www.w3.org/2000/svg"><path d="M3.783 2.053 C 3.654 2.080,3.409 2.171,3.233 2.258 C 2.789 2.478,2.471 2.795,2.254 3.235 C 1.983 3.785,2.001 3.291,2.001 10.000 C 2.001 16.709,1.983 16.215,2.254 16.765 C 2.472 17.207,2.793 17.528,3.235 17.746 C 3.785 18.017,3.291 17.999,10.000 17.999 C 16.709 17.999,16.215 18.017,16.765 17.746 C 17.207 17.528,17.528 17.207,17.746 16.765 C 18.017 16.215,17.999 16.709,17.999 10.000 C 17.999 3.307,18.016 3.782,17.753 3.250 C 17.514 2.766,17.168 2.436,16.656 2.199 C 16.204 1.990,16.524 2.000,9.976 2.003 C 4.943 2.005,3.980 2.013,3.783 2.053 M8.033 7.069 C 8.116 7.107,8.219 7.170,8.263 7.210 C 8.377 7.315,8.499 7.595,8.499 7.750 C 8.498 8.024,8.411 8.136,7.457 9.092 L 6.550 10.000 7.457 10.908 C 8.411 11.864,8.498 11.976,8.499 12.250 C 8.499 12.323,8.464 12.458,8.422 12.550 C 8.252 12.914,7.910 13.070,7.517 12.964 C 7.404 12.933,7.188 12.733,6.138 11.689 C 5.313 10.868,4.872 10.405,4.830 10.317 C 4.754 10.153,4.748 9.876,4.818 9.707 C 4.852 9.624,5.261 9.190,6.076 8.372 C 7.355 7.088,7.462 7.000,7.750 7.001 C 7.823 7.001,7.951 7.032,8.033 7.069 M12.550 7.080 C 12.679 7.142,12.989 7.434,13.924 8.372 C 14.739 9.190,15.148 9.624,15.182 9.707 C 15.252 9.876,15.246 10.153,15.170 10.317 C 15.128 10.405,14.687 10.868,13.862 11.689 C 12.812 12.733,12.596 12.933,12.483 12.964 C 12.090 13.070,11.748 12.914,11.578 12.550 C 11.536 12.458,11.501 12.323,11.501 12.250 C 11.502 11.976,11.589 11.864,12.543 10.908 L 13.450 10.000 12.543 9.092 C 11.589 8.136,11.501 8.023,11.501 7.750 C 11.501 7.600,11.601 7.357,11.710 7.237 C 11.815 7.123,12.095 7.001,12.250 7.001 C 12.323 7.001,12.458 7.036,12.550 7.080 " fill="#0F172A" stroke="none" fill-rule="evenodd"></path></svg>