<svg width="20" height="20" viewBox="0 0 20 20" fill="none" xmlns="http://www.w3.org/2000/svg"><path d="M9.083 1.030 C 8.821 1.097,8.545 1.318,8.419 1.562 C 8.391 1.616,8.300 1.996,8.218 2.405 C 8.135 2.815,8.060 3.183,8.050 3.222 C 8.039 3.271,7.998 3.302,7.925 3.318 C 7.744 3.358,7.242 3.559,6.929 3.717 L 6.634 3.866 5.939 3.404 C 5.187 2.904,5.043 2.843,4.717 2.876 C 4.621 2.886,4.469 2.932,4.380 2.978 C 4.175 3.084,3.070 4.188,2.966 4.391 C 2.873 4.574,2.844 4.884,2.902 5.091 C 2.930 5.190,3.120 5.511,3.406 5.941 L 3.865 6.632 3.802 6.741 C 3.698 6.918,3.497 7.393,3.381 7.733 L 3.273 8.049 2.481 8.207 C 2.046 8.294,1.625 8.397,1.546 8.435 C 1.347 8.532,1.125 8.788,1.056 9.001 C 1.010 9.144,1.000 9.317,1.000 10.000 C 1.000 11.004,1.018 11.087,1.299 11.370 C 1.524 11.596,1.593 11.621,2.483 11.799 C 2.850 11.872,3.183 11.940,3.222 11.949 C 3.271 11.961,3.302 12.002,3.318 12.075 C 3.353 12.235,3.581 12.812,3.729 13.114 L 3.859 13.378 3.403 14.064 C 2.906 14.811,2.847 14.947,2.875 15.265 C 2.905 15.591,2.990 15.711,3.680 16.395 C 4.264 16.973,4.332 17.030,4.498 17.080 C 4.735 17.150,4.962 17.148,5.158 17.073 C 5.245 17.040,5.610 16.816,5.969 16.577 L 6.621 16.141 6.885 16.270 C 7.188 16.419,7.765 16.647,7.925 16.682 C 7.998 16.698,8.039 16.729,8.051 16.778 C 8.060 16.817,8.128 17.150,8.201 17.517 C 8.379 18.407,8.404 18.476,8.630 18.701 C 8.913 18.982,8.996 19.000,10.000 19.000 C 11.004 19.000,11.087 18.982,11.370 18.701 C 11.596 18.476,11.621 18.407,11.799 17.517 C 11.872 17.150,11.940 16.817,11.949 16.778 C 11.961 16.729,12.002 16.698,12.075 16.682 C 12.244 16.645,12.822 16.415,13.112 16.269 L 13.374 16.137 14.029 16.575 C 14.389 16.816,14.755 17.040,14.842 17.073 C 15.038 17.148,15.265 17.150,15.502 17.080 C 15.668 17.031,15.737 16.973,16.311 16.405 C 16.997 15.726,17.095 15.588,17.125 15.261 C 17.153 14.947,17.093 14.809,16.596 14.061 L 16.138 13.373 16.270 13.111 C 16.415 12.822,16.645 12.243,16.682 12.075 C 16.698 12.002,16.729 11.961,16.778 11.949 C 16.817 11.940,17.150 11.872,17.517 11.799 C 18.407 11.621,18.476 11.596,18.701 11.370 C 18.982 11.087,19.000 11.004,19.000 10.000 C 19.000 9.317,18.990 9.144,18.944 9.001 C 18.875 8.788,18.653 8.532,18.454 8.435 C 18.375 8.397,17.954 8.294,17.519 8.207 L 16.727 8.049 16.619 7.733 C 16.503 7.393,16.302 6.918,16.198 6.741 L 16.135 6.632 16.594 5.941 C 17.093 5.191,17.153 5.053,17.125 4.738 C 17.097 4.426,17.007 4.297,16.372 3.656 C 15.739 3.017,15.586 2.907,15.283 2.876 C 14.957 2.843,14.813 2.905,14.063 3.403 L 13.369 3.864 12.973 3.672 C 12.755 3.567,12.439 3.436,12.270 3.383 C 12.035 3.308,11.960 3.269,11.948 3.218 C 11.939 3.180,11.872 2.850,11.799 2.483 C 11.726 2.117,11.643 1.747,11.615 1.661 C 11.547 1.458,11.335 1.220,11.121 1.107 L 10.950 1.017 10.067 1.011 C 9.581 1.007,9.138 1.016,9.083 1.030 M10.750 7.099 C 11.790 7.366,12.619 8.194,12.904 9.250 C 12.962 9.466,12.976 9.609,12.976 10.000 C 12.976 10.391,12.962 10.534,12.904 10.750 C 12.625 11.785,11.857 12.571,10.817 12.887 C 10.545 12.970,10.468 12.978,10.000 12.978 C 9.532 12.978,9.455 12.970,9.183 12.887 C 8.143 12.571,7.375 11.785,7.096 10.750 C 7.038 10.534,7.024 10.391,7.024 10.000 C 7.024 9.609,7.038 9.466,7.096 9.250 C 7.410 8.086,8.371 7.218,9.550 7.035 C 9.848 6.988,10.442 7.020,10.750 7.099 " fill="#0F172A" stroke="none" fill-rule="evenodd"></path></svg>