<svg width="20" height="20" viewBox="0 0 20 20" fill="none" xmlns="http://www.w3.org/2000/svg"><path d="M8.583 1.030 C 8.322 1.097,8.045 1.318,7.919 1.563 C 7.890 1.618,7.786 2.065,7.686 2.555 C 7.587 3.046,7.492 3.453,7.475 3.458 C 7.458 3.464,7.221 3.578,6.947 3.713 C 6.520 3.922,5.957 4.269,5.667 4.501 L 5.583 4.567 4.733 4.282 C 3.716 3.940,3.571 3.923,3.215 4.098 C 3.090 4.160,2.964 4.253,2.906 4.326 C 2.853 4.394,2.529 4.936,2.186 5.531 C 1.495 6.729,1.438 6.865,1.498 7.188 C 1.557 7.505,1.654 7.624,2.387 8.271 L 3.072 8.876 3.044 9.163 C 3.009 9.532,3.009 10.468,3.044 10.837 L 3.072 11.125 2.386 11.731 C 1.653 12.378,1.556 12.497,1.498 12.812 C 1.438 13.137,1.495 13.275,2.187 14.472 C 2.530 15.065,2.846 15.597,2.890 15.655 C 3.064 15.885,3.477 16.059,3.751 16.018 C 3.830 16.006,4.273 15.870,4.735 15.716 L 5.575 15.436 5.854 15.638 C 6.255 15.929,6.794 16.242,7.173 16.404 C 7.413 16.507,7.506 16.563,7.518 16.614 C 7.527 16.652,7.602 17.021,7.684 17.433 C 7.880 18.413,7.901 18.473,8.130 18.701 C 8.431 18.999,8.436 19.000,10.000 19.000 C 11.564 19.000,11.569 18.999,11.870 18.701 C 12.099 18.473,12.120 18.413,12.316 17.433 C 12.398 17.021,12.473 16.652,12.482 16.614 C 12.494 16.563,12.587 16.507,12.827 16.404 C 13.206 16.242,13.745 15.929,14.146 15.638 L 14.425 15.436 15.265 15.716 C 15.727 15.870,16.170 16.006,16.249 16.018 C 16.523 16.059,16.935 15.885,17.111 15.655 C 17.154 15.597,17.471 15.064,17.814 14.469 C 18.505 13.271,18.562 13.135,18.502 12.812 C 18.444 12.497,18.347 12.378,17.614 11.731 L 16.928 11.125 16.956 10.837 C 16.991 10.468,16.991 9.532,16.956 9.163 L 16.928 8.876 17.613 8.271 C 18.343 7.626,18.434 7.515,18.499 7.193 C 18.565 6.869,18.511 6.739,17.805 5.514 C 17.457 4.911,17.117 4.359,17.051 4.289 C 16.870 4.099,16.615 3.994,16.341 3.995 C 16.150 3.996,15.991 4.039,15.267 4.282 L 14.417 4.567 14.333 4.501 C 14.043 4.269,13.480 3.922,13.053 3.713 C 12.779 3.578,12.542 3.464,12.525 3.458 C 12.508 3.453,12.415 3.059,12.319 2.582 C 12.222 2.106,12.120 1.662,12.091 1.595 C 12.017 1.419,11.813 1.208,11.619 1.106 L 11.450 1.017 10.067 1.011 C 9.306 1.008,8.638 1.017,8.583 1.030 M10.750 7.099 C 11.790 7.366,12.619 8.194,12.904 9.250 C 12.962 9.466,12.976 9.609,12.976 10.000 C 12.976 10.391,12.962 10.534,12.904 10.750 C 12.625 11.785,11.857 12.571,10.817 12.887 C 10.545 12.970,10.468 12.978,10.000 12.978 C 9.532 12.978,9.455 12.970,9.183 12.887 C 8.143 12.571,7.377 11.788,7.095 10.750 C 6.991 10.368,6.991 9.632,7.095 9.250 C 7.412 8.084,8.371 7.218,9.550 7.035 C 9.848 6.988,10.442 7.020,10.750 7.099 " fill="#0F172A" stroke="none" fill-rule="evenodd"></path></svg>