<svg width="20" height="20" viewBox="0 0 20 20" fill="none" xmlns="http://www.w3.org/2000/svg"><path d="M9.758 1.046 C 9.568 1.116,9.414 1.249,9.337 1.410 C 9.272 1.543,9.267 1.611,9.267 2.293 L 9.267 3.032 9.192 3.047 C 9.150 3.055,8.997 3.080,8.850 3.101 C 8.464 3.157,7.900 3.308,7.507 3.461 L 7.166 3.593 7.028 3.355 C 6.485 2.411,6.430 2.330,6.278 2.234 C 5.989 2.050,5.655 2.073,5.398 2.292 C 5.225 2.441,5.135 2.631,5.135 2.850 C 5.135 3.053,5.173 3.140,5.563 3.813 C 5.732 4.105,5.858 4.353,5.843 4.365 C 5.829 4.377,5.712 4.471,5.583 4.574 C 5.320 4.786,4.712 5.398,4.516 5.650 C 4.445 5.742,4.377 5.829,4.365 5.843 C 4.353 5.858,4.105 5.732,3.813 5.563 C 3.140 5.173,3.053 5.135,2.850 5.135 C 2.631 5.135,2.441 5.225,2.292 5.398 C 2.073 5.655,2.050 5.989,2.234 6.278 C 2.330 6.430,2.411 6.485,3.355 7.028 L 3.593 7.166 3.461 7.507 C 3.308 7.900,3.157 8.464,3.101 8.850 C 3.080 8.997,3.056 9.150,3.048 9.190 C 3.033 9.263,3.026 9.263,2.256 9.273 L 1.478 9.283 1.341 9.374 C 0.905 9.663,0.905 10.337,1.341 10.626 L 1.478 10.717 2.256 10.727 C 3.026 10.737,3.033 10.737,3.048 10.810 C 3.056 10.850,3.080 11.003,3.101 11.150 C 3.157 11.536,3.308 12.100,3.461 12.493 L 3.593 12.834 3.355 12.972 C 2.411 13.515,2.330 13.570,2.234 13.722 C 2.050 14.011,2.073 14.345,2.292 14.602 C 2.441 14.775,2.631 14.865,2.850 14.865 C 3.053 14.865,3.140 14.827,3.813 14.437 C 4.105 14.268,4.353 14.142,4.365 14.157 C 4.377 14.171,4.471 14.288,4.574 14.417 C 4.786 14.680,5.398 15.288,5.650 15.484 C 5.742 15.555,5.829 15.623,5.843 15.635 C 5.858 15.647,5.740 15.880,5.581 16.153 C 5.422 16.427,5.256 16.725,5.213 16.817 C 5.061 17.138,5.132 17.480,5.398 17.708 C 5.655 17.927,5.989 17.950,6.278 17.766 C 6.430 17.670,6.485 17.589,7.028 16.645 L 7.166 16.407 7.507 16.539 C 7.900 16.692,8.464 16.843,8.850 16.899 C 8.997 16.920,9.150 16.944,9.190 16.952 C 9.263 16.967,9.263 16.974,9.273 17.744 L 9.283 18.522 9.374 18.659 C 9.663 19.095,10.337 19.095,10.626 18.659 L 10.717 18.522 10.727 17.744 C 10.737 16.974,10.737 16.967,10.810 16.952 C 10.850 16.944,11.003 16.920,11.150 16.899 C 11.536 16.843,12.100 16.692,12.493 16.539 L 12.834 16.407 12.972 16.645 C 13.515 17.589,13.570 17.670,13.722 17.766 C 14.011 17.950,14.345 17.927,14.602 17.708 C 14.775 17.559,14.865 17.369,14.865 17.150 C 14.865 16.947,14.827 16.860,14.437 16.187 C 14.268 15.895,14.142 15.646,14.157 15.634 C 14.171 15.622,14.296 15.520,14.433 15.409 C 14.710 15.185,15.282 14.608,15.484 14.350 C 15.555 14.258,15.623 14.171,15.635 14.157 C 15.647 14.142,15.895 14.268,16.187 14.437 C 16.860 14.827,16.947 14.865,17.150 14.865 C 17.369 14.865,17.559 14.775,17.708 14.602 C 17.927 14.345,17.950 14.011,17.766 13.722 C 17.670 13.570,17.589 13.515,16.645 12.972 L 16.407 12.834 16.539 12.493 C 16.692 12.100,16.843 11.536,16.899 11.150 C 16.920 11.003,16.944 10.850,16.952 10.810 C 16.967 10.737,16.974 10.737,17.744 10.727 L 18.522 10.717 18.659 10.626 C 19.095 10.337,19.095 9.663,18.659 9.374 L 18.522 9.283 17.744 9.273 C 16.974 9.263,16.967 9.263,16.952 9.190 C 16.944 9.150,16.920 8.997,16.899 8.850 C 16.843 8.464,16.692 7.900,16.539 7.507 L 16.407 7.166 16.645 7.028 C 17.589 6.485,17.670 6.430,17.766 6.278 C 17.950 5.989,17.927 5.655,17.708 5.398 C 17.559 5.225,17.369 5.135,17.150 5.135 C 16.947 5.135,16.860 5.173,16.187 5.563 C 15.895 5.732,15.647 5.858,15.635 5.843 C 15.623 5.829,15.555 5.742,15.484 5.650 C 15.288 5.398,14.680 4.786,14.417 4.574 C 14.288 4.471,14.171 4.377,14.157 4.365 C 14.142 4.353,14.268 4.105,14.437 3.813 C 14.827 3.140,14.865 3.053,14.865 2.850 C 14.865 2.631,14.775 2.441,14.602 2.292 C 14.345 2.073,14.011 2.050,13.722 2.234 C 13.570 2.330,13.515 2.411,12.972 3.355 L 12.834 3.593 12.493 3.461 C 12.100 3.308,11.536 3.157,11.150 3.101 C 11.003 3.080,10.850 3.056,10.810 3.048 C 10.737 3.033,10.737 3.026,10.727 2.256 L 10.717 1.478 10.626 1.341 C 10.448 1.073,10.049 0.937,9.758 1.046 M11.050 4.600 C 13.034 5.011,14.629 6.426,15.228 8.304 C 15.436 8.956,15.479 9.248,15.479 10.000 C 15.479 10.768,15.432 11.077,15.213 11.733 C 14.660 13.392,13.340 14.704,11.696 15.228 C 11.044 15.436,10.752 15.479,10.000 15.479 C 9.248 15.479,8.956 15.436,8.304 15.228 C 6.655 14.702,5.314 13.363,4.772 11.700 C 4.568 11.072,4.521 10.756,4.521 10.000 C 4.521 9.248,4.564 8.956,4.772 8.304 C 5.414 6.291,7.222 4.803,9.354 4.533 C 9.737 4.485,10.670 4.522,11.050 4.600 M9.567 6.029 C 9.484 6.042,9.385 6.071,9.345 6.092 C 9.234 6.154,9.106 6.324,9.063 6.465 C 8.988 6.717,9.034 6.829,9.654 7.904 C 9.975 8.461,10.278 8.959,10.328 9.011 C 10.377 9.063,10.477 9.138,10.550 9.178 C 10.680 9.248,10.716 9.250,11.933 9.250 C 13.178 9.250,13.184 9.250,13.343 9.172 C 13.570 9.060,13.676 8.907,13.694 8.666 C 13.707 8.485,13.697 8.450,13.541 8.155 C 12.975 7.080,11.991 6.337,10.795 6.081 C 10.519 6.023,9.795 5.992,9.567 6.029 M7.033 7.437 C 6.858 7.507,6.641 7.787,6.419 8.228 C 6.167 8.730,6.000 9.435,6.000 10.000 C 6.000 10.349,6.088 10.892,6.202 11.239 C 6.371 11.756,6.710 12.340,6.939 12.510 C 7.076 12.611,7.331 12.623,7.509 12.537 C 7.590 12.498,7.687 12.432,7.725 12.391 C 7.787 12.324,8.783 10.628,8.937 10.326 C 8.978 10.245,9.000 10.133,9.000 10.000 C 9.000 9.867,8.978 9.755,8.937 9.674 C 8.783 9.372,7.787 7.676,7.725 7.609 C 7.563 7.434,7.241 7.355,7.033 7.437 M10.533 10.831 C 10.469 10.866,10.377 10.937,10.328 10.989 C 10.175 11.153,9.072 13.103,9.048 13.251 C 9.007 13.515,9.146 13.800,9.379 13.925 C 9.525 14.004,10.442 14.002,10.795 13.922 C 12.033 13.641,13.024 12.877,13.579 11.776 C 13.776 11.384,13.723 11.071,13.427 10.875 L 13.288 10.783 11.969 10.776 C 10.732 10.769,10.643 10.772,10.533 10.831 " fill="#0F172A" stroke="none" fill-rule="evenodd"></path></svg>