<svg width="20" height="20" viewBox="0 0 20 20" fill="none" xmlns="http://www.w3.org/2000/svg"><path d="M2.783 3.053 C 2.654 3.080,2.409 3.171,2.233 3.258 C 1.789 3.478,1.471 3.795,1.254 4.235 C 0.985 4.781,1.001 4.406,1.001 10.000 C 1.001 15.594,0.985 15.219,1.254 15.765 C 1.472 16.207,1.793 16.528,2.235 16.746 C 2.788 17.019,2.176 16.999,10.000 16.999 C 17.824 16.999,17.212 17.019,17.765 16.746 C 18.017 16.622,18.132 16.539,18.335 16.335 C 18.539 16.132,18.622 16.017,18.746 15.765 C 19.015 15.219,18.999 15.594,18.999 10.000 C 18.999 4.420,19.014 4.778,18.753 4.250 C 18.514 3.766,18.168 3.436,17.656 3.199 C 17.201 2.989,17.625 3.000,9.976 3.003 C 4.075 3.005,2.981 3.013,2.783 3.053 M5.067 6.078 C 5.249 6.164,7.801 8.475,7.900 8.642 C 8.018 8.842,8.018 9.158,7.900 9.358 C 7.813 9.505,5.268 11.826,5.090 11.921 C 4.954 11.993,4.706 12.013,4.533 11.967 C 4.329 11.913,4.095 11.671,4.034 11.451 C 3.979 11.257,4.023 10.989,4.134 10.832 C 4.173 10.778,4.631 10.349,5.152 9.880 C 5.674 9.410,6.100 9.015,6.100 9.000 C 6.100 8.985,5.674 8.590,5.152 8.120 C 4.631 7.651,4.173 7.222,4.134 7.168 C 4.022 7.011,3.979 6.743,4.034 6.547 C 4.088 6.353,4.321 6.102,4.500 6.042 C 4.654 5.991,4.921 6.008,5.067 6.078 M12.603 10.344 C 12.777 10.435,12.951 10.673,12.983 10.866 C 13.037 11.187,12.872 11.518,12.584 11.665 L 12.418 11.750 11.000 11.750 L 9.582 11.750 9.416 11.665 C 9.128 11.518,8.963 11.187,9.017 10.866 C 9.049 10.673,9.223 10.435,9.397 10.344 C 9.544 10.267,9.544 10.267,11.000 10.267 C 12.456 10.267,12.456 10.267,12.603 10.344 " fill="#0F172A" stroke="none" fill-rule="evenodd"></path></svg>