<svg width="20" height="20" viewBox="0 0 20 20" fill="none" xmlns="http://www.w3.org/2000/svg"><path d="M3.783 2.053 C 3.654 2.080,3.409 2.171,3.233 2.258 C 2.789 2.478,2.471 2.795,2.254 3.235 C 1.986 3.778,2.001 3.464,2.001 8.500 C 2.001 13.536,1.986 13.222,2.254 13.765 C 2.472 14.207,2.793 14.528,3.235 14.746 C 3.738 14.994,3.782 14.999,5.675 14.999 C 6.793 15.000,7.333 15.011,7.333 15.034 C 7.333 15.053,7.289 15.185,7.234 15.326 C 7.089 15.702,6.780 16.157,6.431 16.508 C 6.265 16.675,6.100 16.869,6.064 16.938 C 5.906 17.248,6.040 17.692,6.349 17.883 L 6.511 17.983 10.000 17.983 L 13.489 17.983 13.651 17.883 C 13.958 17.693,14.086 17.276,13.938 16.949 C 13.904 16.876,13.741 16.681,13.576 16.516 C 13.228 16.170,12.913 15.708,12.766 15.326 C 12.711 15.185,12.667 15.053,12.667 15.034 C 12.667 15.011,13.207 15.000,14.325 14.999 C 16.218 14.999,16.262 14.994,16.765 14.746 C 17.207 14.528,17.528 14.207,17.746 13.765 C 18.014 13.222,17.999 13.536,17.999 8.500 C 17.999 3.476,18.013 3.775,17.753 3.250 C 17.514 2.766,17.168 2.436,16.656 2.199 C 16.204 1.990,16.524 2.000,9.976 2.003 C 4.943 2.005,3.980 2.013,3.783 2.053 M15.979 3.541 C 16.160 3.594,16.406 3.840,16.459 4.021 C 16.518 4.220,16.518 11.782,16.459 11.979 C 16.404 12.164,16.156 12.416,15.983 12.463 C 15.795 12.515,4.205 12.515,4.017 12.463 C 3.846 12.416,3.584 12.152,3.536 11.977 C 3.486 11.798,3.486 4.200,3.536 4.021 C 3.581 3.860,3.850 3.583,4.005 3.538 C 4.184 3.487,15.806 3.489,15.979 3.541 " fill="#0F172A" stroke="none" fill-rule="evenodd"></path></svg>