<svg width="20" height="20" viewBox="0 0 20 20" fill="none" xmlns="http://www.w3.org/2000/svg"><path d="M6.758 1.046 C 6.568 1.116,6.414 1.249,6.337 1.410 C 6.272 1.543,6.267 1.611,6.267 2.277 L 6.267 3.000 5.908 3.000 C 5.020 3.001,4.376 3.251,3.813 3.813 C 3.251 4.375,3.001 5.020,3.000 5.907 L 3.000 6.263 2.239 6.273 L 1.478 6.283 1.341 6.374 C 0.905 6.663,0.905 7.337,1.341 7.626 L 1.478 7.717 2.239 7.727 L 3.000 7.737 3.000 8.500 L 3.000 9.263 2.239 9.273 L 1.478 9.283 1.341 9.374 C 0.905 9.663,0.905 10.337,1.341 10.626 L 1.478 10.717 2.239 10.727 L 3.000 10.737 3.000 11.500 L 3.000 12.263 2.239 12.273 L 1.478 12.283 1.341 12.374 C 0.905 12.663,0.905 13.337,1.341 13.626 L 1.478 13.717 2.239 13.727 L 3.000 13.737 3.000 14.093 C 3.001 14.980,3.251 15.625,3.813 16.187 C 4.375 16.749,5.020 16.999,5.907 17.000 L 6.263 17.000 6.273 17.761 L 6.283 18.522 6.374 18.659 C 6.663 19.095,7.337 19.095,7.626 18.659 L 7.717 18.522 7.727 17.761 L 7.737 17.000 8.500 17.000 L 9.263 17.000 9.273 17.761 L 9.283 18.522 9.374 18.659 C 9.424 18.735,9.537 18.838,9.624 18.890 C 9.957 19.086,10.413 18.981,10.626 18.659 L 10.717 18.522 10.727 17.761 L 10.737 17.000 11.500 17.000 L 12.263 17.000 12.273 17.761 L 12.283 18.522 12.374 18.659 C 12.663 19.095,13.337 19.095,13.626 18.659 L 13.717 18.522 13.727 17.761 L 13.737 17.000 14.093 17.000 C 14.980 16.999,15.625 16.749,16.187 16.187 C 16.749 15.625,16.999 14.980,17.000 14.093 L 17.000 13.737 17.761 13.727 L 18.522 13.717 18.659 13.626 C 19.095 13.337,19.095 12.663,18.659 12.374 L 18.522 12.283 17.761 12.273 L 17.000 12.263 17.000 11.500 L 17.000 10.737 17.761 10.727 L 18.522 10.717 18.659 10.626 C 19.095 10.337,19.095 9.663,18.659 9.374 L 18.522 9.283 17.761 9.273 L 17.000 9.263 17.000 8.500 L 17.000 7.737 17.761 7.727 L 18.522 7.717 18.659 7.626 C 19.095 7.337,19.095 6.663,18.659 6.374 L 18.522 6.283 17.761 6.273 L 17.000 6.263 17.000 5.907 C 16.999 5.020,16.749 4.375,16.187 3.813 C 15.625 3.251,14.980 3.001,14.093 3.000 L 13.737 3.000 13.727 2.239 L 13.717 1.478 13.626 1.341 C 13.337 0.905,12.663 0.905,12.374 1.341 L 12.283 1.478 12.273 2.239 L 12.263 3.000 11.500 3.000 L 10.737 3.000 10.727 2.239 L 10.717 1.478 10.626 1.341 C 10.337 0.905,9.663 0.905,9.374 1.341 L 9.283 1.478 9.273 2.239 L 9.263 3.000 8.500 3.000 L 7.737 3.000 7.727 2.239 L 7.717 1.478 7.626 1.341 C 7.448 1.073,7.049 0.937,6.758 1.046 M14.750 4.610 C 15.013 4.732,15.270 4.989,15.389 5.247 L 15.483 5.450 15.483 10.000 L 15.483 14.550 15.390 14.750 C 15.268 15.013,15.011 15.270,14.753 15.389 L 14.550 15.483 10.000 15.483 L 5.450 15.483 5.233 15.380 C 4.958 15.249,4.751 15.042,4.620 14.767 L 4.517 14.550 4.517 10.000 L 4.517 5.450 4.620 5.233 C 4.782 4.893,5.047 4.664,5.417 4.546 C 5.522 4.513,6.480 4.505,10.050 4.510 L 14.550 4.517 14.750 4.610 M6.000 10.000 L 6.000 14.000 10.000 14.000 L 14.000 14.000 14.000 10.000 L 14.000 6.000 10.000 6.000 L 6.000 6.000 6.000 10.000 " fill="#0F172A" stroke="none" fill-rule="evenodd"></path></svg>