<svg width="20" height="20" viewBox="0 0 20 20" fill="none" xmlns="http://www.w3.org/2000/svg"><path d="M2.150 4.046 C 1.891 4.109,1.580 4.293,1.402 4.488 C 1.112 4.805,1.001 5.128,1.000 5.658 L 1.000 6.000 10.000 6.000 L 19.000 6.000 19.000 5.658 C 18.999 5.128,18.888 4.805,18.597 4.487 C 18.412 4.284,18.077 4.094,17.807 4.037 C 17.541 3.981,2.379 3.990,2.150 4.046 M1.000 11.592 C 1.001 14.906,0.997 14.832,1.170 15.191 C 1.268 15.395,1.605 15.732,1.809 15.830 C 2.181 16.009,1.723 15.999,10.000 15.999 C 18.277 15.999,17.819 16.009,18.191 15.830 C 18.395 15.732,18.732 15.395,18.830 15.191 C 19.003 14.832,18.999 14.906,19.000 11.592 L 19.000 8.500 10.000 8.500 L 1.000 8.500 1.000 11.592 M5.479 12.541 C 5.750 12.621,6.000 12.961,6.000 13.250 C 6.000 13.537,5.743 13.892,5.483 13.963 C 5.305 14.012,3.695 14.012,3.517 13.963 C 3.430 13.940,3.328 13.870,3.227 13.766 C 3.013 13.545,2.954 13.316,3.036 13.021 C 3.081 12.860,3.350 12.583,3.505 12.538 C 3.675 12.489,5.313 12.491,5.479 12.541 M11.479 12.541 C 11.750 12.621,12.000 12.961,12.000 13.250 C 12.000 13.537,11.743 13.892,11.483 13.963 C 11.394 13.988,10.736 14.000,9.500 14.000 C 8.264 14.000,7.606 13.988,7.517 13.963 C 7.430 13.940,7.328 13.870,7.227 13.766 C 7.013 13.545,6.954 13.316,7.036 13.021 C 7.081 12.860,7.350 12.583,7.505 12.538 C 7.680 12.488,11.309 12.490,11.479 12.541 " fill="#0F172A" stroke="none" fill-rule="evenodd"></path></svg>