<svg width="20" height="20" viewBox="0 0 20 20" fill="none" xmlns="http://www.w3.org/2000/svg"><path d="M9.767 1.043 C 9.638 1.092,7.670 2.171,7.527 2.272 C 7.407 2.357,7.311 2.519,7.267 2.714 C 7.145 3.258,7.728 3.756,8.252 3.556 C 8.309 3.534,8.715 3.318,9.155 3.075 C 9.595 2.832,9.976 2.633,10.000 2.633 C 10.024 2.633,10.405 2.832,10.845 3.075 C 11.285 3.318,11.691 3.534,11.748 3.556 C 12.006 3.654,12.318 3.583,12.523 3.378 C 12.783 3.119,12.820 2.738,12.616 2.427 C 12.524 2.287,12.494 2.268,11.195 1.554 C 10.370 1.101,10.215 1.027,10.061 1.014 C 9.957 1.005,9.835 1.017,9.767 1.043 M4.500 3.946 C 4.279 4.028,2.316 5.137,2.210 5.240 C 2.013 5.431,2.000 5.523,2.000 6.748 C 2.000 7.451,2.014 7.898,2.037 7.983 C 2.086 8.160,2.340 8.414,2.517 8.463 C 2.818 8.546,3.057 8.486,3.271 8.271 C 3.467 8.075,3.500 7.958,3.500 7.439 C 3.500 7.213,3.512 7.033,3.527 7.039 C 3.541 7.045,3.767 7.168,4.029 7.313 C 4.551 7.601,4.692 7.639,4.958 7.564 C 5.249 7.483,5.500 7.152,5.500 6.850 C 5.500 6.516,5.322 6.310,4.771 6.008 C 4.544 5.884,4.359 5.768,4.359 5.752 C 4.360 5.735,4.545 5.619,4.772 5.494 C 5.015 5.359,5.232 5.212,5.302 5.135 C 5.576 4.835,5.562 4.427,5.268 4.132 C 5.050 3.914,4.769 3.846,4.500 3.946 M15.000 3.942 C 14.745 4.027,14.500 4.374,14.500 4.650 C 14.500 4.984,14.678 5.189,15.233 5.497 C 15.463 5.624,15.648 5.740,15.646 5.755 C 15.644 5.770,15.456 5.884,15.229 6.008 C 14.678 6.310,14.500 6.516,14.500 6.850 C 14.500 7.152,14.751 7.483,15.042 7.564 C 15.308 7.639,15.449 7.601,15.971 7.313 C 16.233 7.168,16.459 7.045,16.473 7.039 C 16.488 7.033,16.500 7.213,16.500 7.439 C 16.500 7.958,16.533 8.075,16.729 8.271 C 16.885 8.427,17.050 8.500,17.250 8.500 C 17.550 8.500,17.888 8.255,17.963 7.983 C 17.986 7.898,18.000 7.451,18.000 6.748 C 18.000 5.502,17.988 5.420,17.772 5.226 C 17.705 5.166,17.165 4.848,16.573 4.521 C 15.586 3.976,15.479 3.926,15.306 3.915 C 15.202 3.908,15.064 3.920,15.000 3.942 M7.679 7.980 C 7.373 8.123,7.198 8.462,7.267 8.781 C 7.343 9.138,7.376 9.165,8.508 9.786 L 9.233 10.183 9.233 10.957 C 9.233 11.382,9.249 11.805,9.269 11.897 C 9.343 12.242,9.655 12.499,10.002 12.500 C 10.208 12.500,10.479 12.361,10.601 12.194 C 10.741 12.000,10.767 11.809,10.767 10.957 L 10.767 10.183 11.492 9.786 C 12.416 9.279,12.541 9.199,12.628 9.059 C 12.869 8.669,12.727 8.169,12.321 7.980 C 12.102 7.878,11.899 7.878,11.683 7.979 C 11.592 8.022,11.175 8.246,10.758 8.476 L 10.000 8.896 9.242 8.476 C 8.825 8.246,8.408 8.022,8.317 7.979 C 8.101 7.878,7.898 7.878,7.679 7.980 M2.507 11.538 C 2.347 11.584,2.081 11.855,2.037 12.017 C 2.014 12.101,2.000 12.559,2.000 13.254 C 2.000 14.477,2.011 14.555,2.208 14.759 C 2.268 14.820,2.788 15.129,3.408 15.471 C 4.588 16.122,4.657 16.149,4.958 16.064 C 5.067 16.034,5.164 15.972,5.267 15.868 C 5.482 15.653,5.546 15.410,5.461 15.129 C 5.385 14.874,5.259 14.777,4.355 14.283 L 3.502 13.817 3.501 12.983 C 3.500 12.487,3.485 12.096,3.463 12.017 C 3.440 11.932,3.370 11.829,3.271 11.733 C 3.052 11.520,2.795 11.455,2.507 11.538 M17.007 11.538 C 16.847 11.584,16.581 11.855,16.537 12.017 C 16.515 12.096,16.500 12.487,16.499 12.983 L 16.498 13.817 15.645 14.283 C 14.741 14.777,14.615 14.874,14.539 15.129 C 14.454 15.410,14.518 15.653,14.733 15.868 C 14.836 15.972,14.933 16.034,15.042 16.064 C 15.343 16.149,15.412 16.122,16.592 15.471 C 17.212 15.129,17.732 14.820,17.792 14.759 C 17.989 14.555,18.000 14.477,18.000 13.254 C 18.000 12.559,17.986 12.101,17.963 12.017 C 17.940 11.932,17.870 11.829,17.771 11.733 C 17.552 11.520,17.295 11.455,17.007 11.538 M9.758 15.548 C 9.566 15.616,9.415 15.749,9.329 15.924 C 9.263 16.059,9.248 16.152,9.234 16.522 L 9.217 16.961 8.721 16.691 C 8.322 16.474,8.190 16.419,8.049 16.407 C 7.574 16.367,7.168 16.821,7.267 17.281 C 7.309 17.476,7.405 17.642,7.527 17.729 C 7.643 17.811,9.465 18.819,9.683 18.921 C 9.781 18.967,9.912 18.999,10.000 18.999 C 10.190 18.999,10.269 18.962,11.433 18.318 C 12.513 17.721,12.537 17.705,12.630 17.555 C 12.872 17.163,12.725 16.666,12.309 16.475 C 12.012 16.340,11.872 16.369,11.279 16.691 L 10.783 16.961 10.765 16.522 C 10.750 16.155,10.735 16.057,10.670 15.924 C 10.550 15.677,10.274 15.503,10.000 15.503 C 9.936 15.503,9.827 15.523,9.758 15.548 " fill="#0F172A" stroke="none" fill-rule="evenodd"></path></svg>