<svg width="20" height="20" viewBox="0 0 20 20" fill="none" xmlns="http://www.w3.org/2000/svg"><path d="M9.767 1.045 C 9.673 1.079,3.114 4.681,2.657 4.949 L 2.530 5.024 6.240 7.070 C 8.280 8.196,9.972 9.117,10.000 9.117 C 10.028 9.117,11.720 8.196,13.760 7.070 L 17.470 5.024 17.343 4.949 C 16.886 4.681,10.327 1.079,10.233 1.045 C 10.085 0.991,9.915 0.991,9.767 1.045 M2.000 10.407 C 2.000 14.798,1.987 14.546,2.226 14.773 C 2.341 14.882,9.151 18.667,9.233 18.667 C 9.287 18.667,9.279 10.485,9.225 10.441 C 9.179 10.403,2.116 6.504,2.045 6.477 C 2.007 6.462,2.000 7.114,2.000 10.407 M14.467 8.393 C 12.551 9.451,10.927 10.350,10.858 10.391 L 10.733 10.464 10.733 14.566 C 10.733 17.309,10.744 18.667,10.767 18.667 C 10.849 18.667,17.659 14.882,17.774 14.773 C 18.013 14.546,18.000 14.798,18.000 10.411 C 18.000 8.241,17.989 6.467,17.975 6.468 C 17.961 6.469,16.382 7.335,14.467 8.393 " fill="#0F172A" stroke="none" fill-rule="evenodd"></path></svg>