<svg width="20" height="20" viewBox="0 0 20 20" fill="none" xmlns="http://www.w3.org/2000/svg"><path d="M9.433 2.019 C 9.369 2.027,9.177 2.049,9.007 2.069 C 7.090 2.292,5.164 3.324,3.941 4.782 C 2.913 6.007,2.318 7.311,2.078 8.867 C 1.995 9.402,1.995 10.598,2.078 11.133 C 2.628 14.691,5.309 17.372,8.867 17.922 C 9.402 18.005,10.598 18.005,11.133 17.922 C 12.644 17.689,14.032 17.061,15.183 16.090 C 16.447 15.024,17.377 13.512,17.778 11.866 C 17.938 11.208,17.982 10.810,17.982 10.000 C 17.982 9.447,17.966 9.149,17.922 8.867 C 17.533 6.348,16.075 4.235,13.882 3.012 C 13.033 2.539,12.144 2.239,11.133 2.084 C 10.800 2.033,9.680 1.991,9.433 2.019 M13.479 5.041 C 13.750 5.121,14.000 5.461,14.000 5.750 C 14.000 6.037,13.743 6.392,13.483 6.463 C 13.399 6.486,12.940 6.500,12.241 6.500 L 11.131 6.500 11.301 6.751 C 11.583 7.170,11.804 7.683,11.914 8.175 L 11.935 8.267 12.695 8.267 C 13.425 8.267,13.462 8.270,13.603 8.344 C 13.777 8.435,13.951 8.673,13.983 8.866 C 14.037 9.187,13.872 9.518,13.584 9.665 C 13.425 9.747,13.390 9.751,12.670 9.767 L 11.921 9.783 11.864 10.017 C 11.661 10.840,11.106 11.664,10.393 12.201 C 9.939 12.543,9.205 12.859,8.653 12.950 L 8.522 12.972 9.443 13.894 C 10.412 14.865,10.498 14.976,10.499 15.250 C 10.500 15.548,10.240 15.893,9.959 15.969 C 9.794 16.013,9.544 15.992,9.410 15.921 C 9.359 15.894,8.588 15.139,7.697 14.244 C 5.992 12.530,6.000 12.540,6.000 12.250 C 6.000 11.961,6.250 11.621,6.521 11.541 C 6.612 11.514,6.922 11.500,7.447 11.500 C 8.300 11.500,8.565 11.467,8.948 11.314 C 9.562 11.068,10.174 10.425,10.348 9.843 L 10.370 9.769 8.476 9.760 L 6.581 9.750 6.416 9.665 C 6.128 9.518,5.963 9.187,6.017 8.866 C 6.049 8.673,6.223 8.435,6.397 8.344 L 6.544 8.267 8.455 8.267 C 9.658 8.267,10.367 8.255,10.367 8.235 C 10.367 8.151,10.220 7.830,10.101 7.650 C 9.823 7.233,9.404 6.887,8.943 6.691 C 8.586 6.539,8.273 6.500,7.421 6.500 C 6.967 6.500,6.595 6.485,6.517 6.463 C 6.430 6.440,6.328 6.370,6.227 6.266 C 6.013 6.045,5.954 5.816,6.036 5.521 C 6.081 5.360,6.350 5.083,6.505 5.038 C 6.682 4.987,13.307 4.990,13.479 5.041 " fill="#0F172A" stroke="none" fill-rule="evenodd"></path></svg>