<svg width="20" height="20" viewBox="0 0 20 20" fill="none" xmlns="http://www.w3.org/2000/svg"><path d="M9.433 2.019 C 9.369 2.027,9.177 2.049,9.007 2.069 C 7.090 2.292,5.164 3.324,3.941 4.782 C 2.913 6.007,2.318 7.311,2.078 8.867 C 1.995 9.402,1.995 10.598,2.078 11.133 C 2.628 14.691,5.309 17.372,8.867 17.922 C 9.402 18.005,10.598 18.005,11.133 17.922 C 12.644 17.689,14.032 17.061,15.183 16.090 C 16.447 15.024,17.377 13.512,17.778 11.866 C 17.938 11.208,17.982 10.810,17.982 10.000 C 17.982 9.447,17.966 9.149,17.922 8.867 C 17.533 6.348,16.075 4.235,13.882 3.012 C 13.033 2.539,12.144 2.239,11.133 2.084 C 10.800 2.033,9.680 1.991,9.433 2.019 M11.000 5.049 C 11.853 5.179,12.690 5.672,13.259 6.379 C 13.495 6.672,13.546 6.804,13.527 7.067 C 13.500 7.433,13.231 7.701,12.863 7.727 C 12.549 7.750,12.423 7.683,12.087 7.318 C 11.758 6.960,11.437 6.731,11.089 6.605 C 10.889 6.533,10.793 6.519,10.500 6.519 C 10.207 6.519,10.111 6.533,9.911 6.605 C 9.429 6.779,8.961 7.178,8.627 7.699 C 8.539 7.837,8.467 7.961,8.467 7.975 C 8.467 7.989,8.889 8.000,9.404 8.000 C 10.046 8.000,10.386 8.013,10.479 8.041 C 10.750 8.121,11.000 8.461,11.000 8.750 C 11.000 9.037,10.743 9.392,10.483 9.463 C 10.399 9.486,9.927 9.500,9.195 9.500 C 8.173 9.500,8.038 9.506,8.020 9.553 C 7.994 9.621,7.994 10.379,8.020 10.447 C 8.038 10.494,8.173 10.500,9.191 10.500 C 10.001 10.500,10.383 10.512,10.479 10.541 C 10.750 10.621,11.000 10.961,11.000 11.250 C 11.000 11.537,10.743 11.892,10.483 11.963 C 10.402 11.986,9.986 12.000,9.408 12.000 C 8.890 12.000,8.467 12.011,8.467 12.025 C 8.467 12.039,8.539 12.163,8.627 12.301 C 8.961 12.821,9.457 13.244,9.922 13.405 C 10.105 13.468,10.219 13.483,10.500 13.483 C 10.781 13.483,10.895 13.468,11.078 13.405 C 11.410 13.290,11.755 13.043,12.086 12.683 C 12.423 12.317,12.549 12.250,12.863 12.273 C 13.101 12.290,13.289 12.401,13.424 12.605 C 13.548 12.793,13.571 13.128,13.473 13.320 C 13.364 13.532,12.991 13.944,12.685 14.188 C 11.339 15.263,9.664 15.265,8.321 14.193 C 7.739 13.727,7.218 12.993,6.901 12.192 L 6.826 12.000 6.238 12.000 C 5.915 12.000,5.590 11.983,5.517 11.963 C 5.336 11.914,5.083 11.652,5.032 11.460 C 4.945 11.138,5.067 10.825,5.362 10.618 C 5.504 10.518,5.510 10.517,6.011 10.505 L 6.517 10.494 6.517 9.997 L 6.517 9.500 6.083 9.500 C 5.533 9.500,5.425 9.470,5.227 9.265 C 4.881 8.909,4.939 8.415,5.362 8.118 L 5.506 8.017 6.167 8.006 L 6.828 7.995 6.917 7.773 C 7.504 6.294,8.678 5.251,9.982 5.048 C 10.348 4.991,10.625 4.992,11.000 5.049 " fill="#0F172A" stroke="none" fill-rule="evenodd"></path></svg>