<svg width="20" height="20" viewBox="0 0 20 20" fill="none" xmlns="http://www.w3.org/2000/svg"><path d="M9.433 2.019 C 9.369 2.027,9.177 2.049,9.007 2.069 C 7.080 2.293,5.163 3.324,3.925 4.800 C 2.910 6.011,2.323 7.314,2.078 8.900 C 1.996 9.432,1.996 10.568,2.078 11.100 C 2.160 11.630,2.247 12.008,2.388 12.444 C 3.184 14.909,5.091 16.816,7.556 17.612 C 8.392 17.882,9.044 17.980,10.000 17.980 C 10.956 17.980,11.608 17.882,12.444 17.612 C 14.908 16.816,16.816 14.908,17.612 12.444 C 17.883 11.605,17.981 10.952,17.981 10.000 C 17.980 9.043,17.881 8.390,17.612 7.556 C 16.667 4.631,14.206 2.553,11.133 2.084 C 10.800 2.033,9.680 1.991,9.433 2.019 M10.330 4.088 C 10.620 4.233,10.767 4.511,10.767 4.918 C 10.767 5.052,10.775 5.067,10.858 5.085 C 11.954 5.318,12.867 5.985,13.269 6.844 C 13.495 7.327,13.316 7.828,12.869 7.962 C 12.464 8.083,12.127 7.918,11.912 7.491 C 11.729 7.128,11.397 6.846,10.942 6.669 L 10.767 6.601 10.767 7.950 C 10.767 8.693,10.776 9.300,10.786 9.300 C 10.797 9.300,10.954 9.330,11.134 9.367 C 11.983 9.540,12.733 9.922,13.252 10.447 C 14.533 11.740,14.121 13.550,12.339 14.461 C 11.953 14.659,11.495 14.815,11.075 14.892 L 10.767 14.949 10.767 15.090 C 10.767 15.489,10.618 15.768,10.330 15.912 C 10.106 16.024,9.908 16.026,9.679 15.920 C 9.396 15.788,9.233 15.496,9.233 15.119 L 9.233 14.949 8.925 14.892 C 7.753 14.676,6.715 14.007,6.276 13.183 C 6.172 12.988,6.152 12.918,6.152 12.750 C 6.154 12.182,6.721 11.834,7.231 12.088 C 7.382 12.164,7.434 12.218,7.587 12.454 C 7.792 12.772,8.007 12.959,8.382 13.144 C 8.571 13.237,9.138 13.433,9.220 13.433 C 9.228 13.433,9.233 12.815,9.233 12.058 L 9.233 10.683 8.975 10.621 C 7.122 10.177,6.062 8.492,6.678 6.968 C 6.942 6.314,7.570 5.687,8.278 5.369 C 8.488 5.275,8.925 5.131,9.142 5.085 C 9.228 5.067,9.233 5.055,9.233 4.888 C 9.233 4.504,9.394 4.213,9.679 4.080 C 9.908 3.974,10.106 3.976,10.330 4.088 M9.000 6.695 C 8.566 6.881,8.274 7.126,8.112 7.439 C 8.037 7.585,8.020 7.661,8.019 7.867 C 8.017 8.191,8.130 8.428,8.407 8.684 C 8.579 8.844,8.953 9.059,9.158 9.117 L 9.233 9.138 9.233 7.869 C 9.233 7.171,9.230 6.600,9.225 6.601 C 9.220 6.601,9.119 6.644,9.000 6.695 M10.733 12.136 L 10.733 13.439 10.842 13.417 C 11.075 13.369,11.607 13.171,11.790 13.063 C 12.031 12.922,12.333 12.625,12.415 12.450 C 12.450 12.377,12.485 12.246,12.493 12.159 C 12.538 11.696,11.905 11.125,11.100 10.902 C 10.690 10.789,10.733 10.642,10.733 12.136 " fill="#0F172A" stroke="none" fill-rule="evenodd"></path></svg>