<svg width="20" height="20" viewBox="0 0 20 20" fill="none" xmlns="http://www.w3.org/2000/svg"><path d="M9.433 2.019 C 9.369 2.027,9.177 2.049,9.007 2.069 C 7.090 2.292,5.164 3.324,3.941 4.782 C 2.913 6.007,2.318 7.311,2.078 8.867 C 1.995 9.402,1.995 10.598,2.078 11.133 C 2.628 14.691,5.309 17.372,8.867 17.922 C 9.402 18.005,10.598 18.005,11.133 17.922 C 12.644 17.689,14.032 17.061,15.183 16.090 C 16.447 15.024,17.377 13.512,17.778 11.866 C 17.938 11.208,17.982 10.810,17.982 10.000 C 17.982 9.447,17.966 9.149,17.922 8.867 C 17.533 6.348,16.075 4.235,13.882 3.012 C 13.033 2.539,12.144 2.239,11.133 2.084 C 10.800 2.033,9.680 1.991,9.433 2.019 M6.969 5.038 C 7.039 5.059,7.146 5.117,7.208 5.168 C 7.269 5.219,7.917 6.042,8.647 6.997 C 9.378 7.952,9.987 8.733,10.000 8.733 C 10.013 8.733,10.622 7.952,11.353 6.997 C 12.083 6.042,12.731 5.219,12.792 5.168 C 13.088 4.925,13.485 4.951,13.768 5.233 C 14.008 5.472,14.063 5.797,13.911 6.083 C 13.878 6.147,13.205 7.042,12.417 8.072 C 11.628 9.101,10.978 9.956,10.972 9.972 C 10.966 9.987,11.499 10.000,12.156 10.000 C 12.906 10.000,13.398 10.014,13.479 10.036 C 13.741 10.109,14.000 10.463,14.000 10.750 C 14.000 11.037,13.743 11.392,13.483 11.463 C 13.397 11.487,12.885 11.500,12.042 11.500 L 10.733 11.500 10.733 12.000 L 10.733 12.500 12.038 12.500 C 12.969 12.500,13.382 12.512,13.479 12.541 C 13.750 12.621,14.000 12.961,14.000 13.250 C 14.000 13.537,13.743 13.892,13.483 13.963 C 13.397 13.987,12.885 14.000,12.043 14.000 L 10.737 14.000 10.727 14.764 L 10.717 15.528 10.616 15.671 C 10.485 15.857,10.218 16.000,10.002 16.000 C 9.781 16.000,9.512 15.858,9.384 15.672 L 9.283 15.528 9.273 14.764 L 9.263 14.000 7.957 14.000 C 7.115 14.000,6.603 13.987,6.517 13.963 C 6.336 13.914,6.083 13.652,6.032 13.460 C 5.945 13.138,6.067 12.825,6.362 12.618 L 6.506 12.517 7.886 12.507 L 9.267 12.497 9.267 11.999 L 9.267 11.500 7.958 11.500 C 7.115 11.500,6.603 11.487,6.517 11.463 C 6.336 11.414,6.083 11.152,6.032 10.960 C 5.945 10.638,6.067 10.325,6.362 10.118 L 6.506 10.017 7.769 10.007 C 8.465 10.001,9.033 9.990,9.033 9.982 C 9.033 9.974,8.381 9.116,7.584 8.075 C 6.787 7.035,6.110 6.132,6.080 6.070 C 5.940 5.778,5.996 5.468,6.232 5.232 C 6.446 5.018,6.689 4.954,6.969 5.038 " fill="#0F172A" stroke="none" fill-rule="evenodd"></path></svg>