<svg width="20" height="20" viewBox="0 0 20 20" fill="none" xmlns="http://www.w3.org/2000/svg"><path d="M9.433 2.019 C 9.369 2.027,9.177 2.049,9.007 2.069 C 7.090 2.292,5.164 3.324,3.941 4.782 C 2.913 6.007,2.318 7.311,2.078 8.867 C 1.995 9.402,1.995 10.598,2.078 11.133 C 2.628 14.691,5.309 17.372,8.867 17.922 C 9.402 18.005,10.598 18.005,11.133 17.922 C 12.644 17.689,14.032 17.061,15.183 16.090 C 16.447 15.024,17.377 13.512,17.778 11.866 C 17.938 11.208,17.982 10.810,17.982 10.000 C 17.982 9.447,17.966 9.149,17.922 8.867 C 17.533 6.348,16.075 4.235,13.882 3.012 C 13.033 2.539,12.144 2.239,11.133 2.084 C 10.800 2.033,9.680 1.991,9.433 2.019 M11.286 4.081 C 11.995 4.222,12.729 4.602,13.246 5.095 C 13.447 5.288,13.532 5.464,13.533 5.693 C 13.534 6.120,13.219 6.444,12.800 6.444 C 12.582 6.444,12.452 6.384,12.200 6.168 C 11.860 5.875,11.464 5.664,11.067 5.564 C 10.963 5.537,10.717 5.517,10.500 5.517 C 10.090 5.517,9.874 5.558,9.550 5.694 C 8.770 6.024,8.222 6.689,8.051 7.516 C 7.968 7.921,7.990 8.623,8.103 9.108 L 8.140 9.267 9.048 9.267 C 9.932 9.267,9.960 9.269,10.103 9.344 C 10.277 9.435,10.451 9.673,10.483 9.866 C 10.537 10.187,10.372 10.518,10.084 10.665 C 9.925 10.747,9.893 10.750,9.206 10.761 C 8.494 10.772,8.494 10.773,8.514 10.845 C 8.525 10.884,8.544 11.142,8.555 11.417 C 8.577 11.943,8.536 12.530,8.446 12.962 C 8.419 13.097,8.401 13.212,8.407 13.218 C 8.413 13.224,8.486 13.212,8.568 13.191 C 8.655 13.169,9.005 13.153,9.417 13.152 C 10.085 13.150,10.141 13.155,10.663 13.263 C 11.166 13.366,11.243 13.374,11.630 13.357 C 11.989 13.342,12.150 13.314,12.733 13.168 C 13.495 12.976,13.636 12.970,13.881 13.114 C 13.959 13.159,14.066 13.261,14.119 13.340 C 14.207 13.469,14.217 13.510,14.217 13.755 C 14.217 14.005,14.208 14.040,14.115 14.172 C 14.060 14.251,13.955 14.349,13.882 14.390 C 13.716 14.483,12.490 14.785,12.067 14.836 C 11.582 14.895,10.944 14.857,10.333 14.733 C 9.857 14.636,9.779 14.628,9.333 14.643 C 8.905 14.656,8.764 14.677,8.092 14.829 C 7.675 14.923,7.292 15.000,7.242 15.000 C 6.853 14.999,6.500 14.636,6.500 14.237 C 6.500 14.179,6.576 13.934,6.669 13.693 C 6.984 12.880,7.090 12.268,7.054 11.470 C 7.043 11.203,7.024 10.935,7.013 10.875 L 6.992 10.767 6.621 10.766 C 6.017 10.765,5.787 10.676,5.610 10.376 C 5.414 10.043,5.519 9.587,5.841 9.374 C 5.961 9.295,6.017 9.282,6.292 9.272 L 6.606 9.260 6.587 9.155 C 6.442 8.370,6.488 7.416,6.703 6.757 C 7.156 5.371,8.420 4.274,9.800 4.071 C 9.938 4.050,10.088 4.027,10.133 4.019 C 10.285 3.992,11.046 4.033,11.286 4.081 " fill="#0F172A" stroke="none" fill-rule="evenodd"></path></svg>