<svg width="20" height="20" viewBox="0 0 20 20" fill="none" xmlns="http://www.w3.org/2000/svg"><path d="M9.433 2.019 C 9.369 2.027,9.177 2.049,9.007 2.069 C 7.090 2.292,5.164 3.324,3.941 4.782 C 2.913 6.007,2.318 7.311,2.078 8.867 C 1.995 9.402,1.995 10.598,2.078 11.133 C 2.628 14.691,5.309 17.372,8.867 17.922 C 9.402 18.005,10.598 18.005,11.133 17.922 C 12.644 17.689,14.032 17.061,15.183 16.090 C 16.447 15.024,17.377 13.512,17.778 11.866 C 17.938 11.208,17.982 10.810,17.982 10.000 C 17.982 9.447,17.966 9.149,17.922 8.867 C 17.533 6.348,16.075 4.235,13.882 3.012 C 13.033 2.539,12.144 2.239,11.133 2.084 C 10.800 2.033,9.680 1.991,9.433 2.019 M7.383 5.118 C 7.927 5.260,8.363 5.722,8.466 6.265 C 8.485 6.363,8.500 6.793,8.500 7.221 L 8.500 8.000 11.421 8.000 C 13.626 8.000,14.376 8.010,14.479 8.041 C 14.750 8.121,15.000 8.461,15.000 8.750 C 15.000 9.037,14.743 9.392,14.483 9.463 C 14.392 9.488,13.439 9.500,11.425 9.500 L 8.500 9.500 8.500 11.710 L 8.500 13.919 8.575 14.068 C 8.662 14.241,8.753 14.292,9.167 14.398 C 9.530 14.490,10.064 14.520,10.450 14.469 C 10.808 14.422,11.367 14.242,11.664 14.079 C 12.242 13.762,12.749 13.261,13.066 12.692 L 13.173 12.500 12.878 12.499 C 12.526 12.498,12.374 12.441,12.194 12.241 C 11.868 11.880,11.974 11.322,12.412 11.092 C 12.526 11.032,12.619 11.017,12.950 11.006 C 13.170 10.999,13.438 11.010,13.545 11.030 C 14.301 11.169,14.830 11.887,14.705 12.602 C 14.660 12.860,14.402 13.407,14.148 13.783 C 13.405 14.884,12.320 15.610,10.975 15.907 C 10.533 16.005,9.528 16.013,9.100 15.923 C 8.070 15.706,7.558 15.393,7.256 14.797 C 7.010 14.311,7.021 14.446,7.009 11.842 L 6.997 9.500 6.324 9.500 C 5.940 9.500,5.593 9.484,5.517 9.463 C 5.336 9.414,5.083 9.152,5.032 8.960 C 4.945 8.638,5.067 8.325,5.362 8.118 L 5.506 8.017 6.253 8.006 L 7.000 7.995 7.000 7.276 L 7.000 6.557 6.806 6.742 C 6.610 6.928,6.456 7.000,6.250 7.000 C 5.961 7.000,5.709 6.831,5.578 6.550 C 5.419 6.208,5.511 5.925,5.904 5.546 C 6.153 5.307,6.397 5.157,6.625 5.103 C 6.825 5.056,7.170 5.062,7.383 5.118 " fill="#0F172A" stroke="none" fill-rule="evenodd"></path></svg>