<svg width="20" height="20" viewBox="0 0 20 20" fill="none" xmlns="http://www.w3.org/2000/svg"><path d="M6.550 1.036 C 5.376 1.209,4.405 2.090,4.092 3.267 L 4.017 3.550 4.017 10.000 L 4.017 16.450 4.092 16.733 C 4.376 17.800,5.172 18.603,6.250 18.908 L 6.517 18.983 10.000 18.983 L 13.483 18.983 13.750 18.908 C 14.828 18.603,15.624 17.800,15.908 16.733 L 15.983 16.450 15.983 10.000 L 15.983 3.550 15.908 3.267 C 15.624 2.200,14.825 1.395,13.750 1.093 L 13.483 1.018 10.117 1.012 C 8.265 1.009,6.660 1.020,6.550 1.036 M8.000 2.925 C 8.000 3.159,8.017 3.408,8.036 3.479 C 8.084 3.651,8.341 3.906,8.521 3.959 C 8.714 4.017,11.286 4.017,11.479 3.959 C 11.660 3.906,11.906 3.660,11.959 3.479 C 11.982 3.403,12.000 3.156,12.000 2.921 L 12.000 2.500 12.592 2.500 C 13.424 2.501,13.685 2.581,14.052 2.948 C 14.265 3.161,14.376 3.353,14.453 3.642 C 14.522 3.903,14.522 16.097,14.453 16.358 C 14.376 16.647,14.265 16.839,14.052 17.052 C 13.839 17.265,13.647 17.376,13.358 17.453 C 13.099 17.522,6.901 17.522,6.642 17.453 C 6.353 17.376,6.161 17.265,5.948 17.052 C 5.735 16.839,5.624 16.647,5.547 16.358 C 5.478 16.097,5.478 3.903,5.547 3.642 C 5.624 3.353,5.735 3.161,5.948 2.948 C 6.314 2.582,6.556 2.507,7.392 2.503 L 8.000 2.500 8.000 2.925 M8.507 15.538 C 8.446 15.555,8.324 15.640,8.235 15.726 C 8.014 15.941,7.952 16.176,8.037 16.483 C 8.086 16.660,8.340 16.914,8.517 16.963 C 8.604 16.987,9.115 17.000,10.000 17.000 C 10.885 17.000,11.396 16.987,11.483 16.963 C 11.755 16.888,12.000 16.550,12.000 16.250 C 12.000 15.950,11.762 15.626,11.479 15.541 C 11.312 15.491,8.679 15.488,8.507 15.538 " fill="#0F172A" stroke="none" fill-rule="evenodd"></path></svg>