<svg width="20" height="20" viewBox="0 0 20 20" fill="none" xmlns="http://www.w3.org/2000/svg"><path d="M4.550 1.037 C 3.832 1.142,3.115 1.553,2.665 2.118 C 2.444 2.397,2.225 2.817,2.110 3.183 L 2.017 3.483 2.017 10.000 L 2.017 16.517 2.110 16.815 C 2.432 17.844,3.156 18.568,4.185 18.890 L 4.483 18.983 10.000 18.983 L 15.517 18.983 15.815 18.890 C 16.844 18.568,17.568 17.844,17.890 16.815 L 17.983 16.517 17.983 10.000 L 17.983 3.483 17.890 3.183 C 17.562 2.135,16.799 1.389,15.750 1.092 L 15.483 1.017 10.117 1.012 C 7.165 1.010,4.660 1.021,4.550 1.037 M15.307 2.537 C 15.562 2.590,15.908 2.782,16.079 2.966 C 16.256 3.154,16.410 3.448,16.462 3.693 C 16.515 3.942,16.516 16.054,16.463 16.307 C 16.376 16.720,16.043 17.159,15.684 17.333 C 15.326 17.506,15.564 17.499,10.000 17.499 C 4.436 17.499,4.674 17.506,4.316 17.333 C 3.957 17.159,3.624 16.720,3.537 16.307 C 3.484 16.054,3.485 3.942,3.538 3.693 C 3.589 3.449,3.744 3.154,3.920 2.967 C 4.087 2.788,4.402 2.607,4.650 2.546 C 4.879 2.491,15.042 2.482,15.307 2.537 M8.507 15.538 C 8.446 15.555,8.324 15.640,8.235 15.726 C 8.014 15.941,7.952 16.176,8.037 16.483 C 8.086 16.660,8.340 16.914,8.517 16.963 C 8.604 16.987,9.115 17.000,10.000 17.000 C 10.885 17.000,11.396 16.987,11.483 16.963 C 11.755 16.888,12.000 16.550,12.000 16.250 C 12.000 15.950,11.762 15.626,11.479 15.541 C 11.312 15.491,8.679 15.488,8.507 15.538 " fill="#0F172A" stroke="none" fill-rule="evenodd"></path></svg>