<svg width="20" height="20" viewBox="0 0 20 20" fill="none" xmlns="http://www.w3.org/2000/svg"><path d="M8.150 2.046 C 7.751 2.144,7.335 2.469,7.167 2.816 C 7.029 3.101,7.001 3.286,7.000 3.905 L 7.000 4.494 7.925 4.508 C 8.742 4.521,8.881 4.531,9.117 4.595 C 9.411 4.675,9.847 4.872,10.092 5.036 C 10.308 5.181,13.736 8.600,13.918 8.852 C 14.109 9.117,14.314 9.550,14.407 9.883 C 14.479 10.142,14.481 10.206,14.492 12.075 L 14.503 14.000 15.093 14.000 C 15.923 13.999,16.185 13.919,16.552 13.552 C 16.765 13.339,16.876 13.147,16.953 12.858 C 17.025 12.585,17.022 6.532,16.949 6.251 C 16.842 5.840,16.819 5.814,14.986 3.993 C 13.122 2.143,13.083 2.110,12.670 2.033 C 12.399 1.983,8.363 1.994,8.150 2.046 M4.150 6.046 C 3.902 6.107,3.587 6.288,3.420 6.467 C 3.244 6.654,3.089 6.949,3.038 7.193 C 2.985 7.441,2.984 16.555,3.037 16.807 C 3.090 17.062,3.282 17.408,3.466 17.579 C 3.654 17.756,3.948 17.910,4.193 17.962 C 4.443 18.015,11.557 18.015,11.807 17.962 C 12.052 17.910,12.346 17.756,12.534 17.579 C 12.718 17.408,12.910 17.062,12.963 16.807 C 13.012 16.574,13.015 10.590,12.967 10.330 C 12.948 10.231,12.885 10.053,12.827 9.933 C 12.732 9.740,12.537 9.533,11.002 7.998 C 9.467 6.463,9.260 6.268,9.067 6.173 C 8.947 6.115,8.769 6.052,8.670 6.033 C 8.399 5.983,4.363 5.994,4.150 6.046 " fill="#0F172A" stroke="none" fill-rule="evenodd"></path></svg>