<svg width="20" height="20" viewBox="0 0 20 20" fill="none" xmlns="http://www.w3.org/2000/svg"><path d="M4.150 2.046 C 3.751 2.144,3.335 2.469,3.167 2.816 C 2.992 3.177,3.001 2.817,3.001 10.000 C 3.001 17.196,2.992 16.821,3.170 17.191 C 3.268 17.395,3.605 17.732,3.809 17.830 C 4.178 18.007,3.885 17.999,10.000 17.999 C 16.115 17.999,15.822 18.007,16.191 17.830 C 16.395 17.732,16.732 17.395,16.830 17.191 C 17.006 16.825,16.999 17.028,17.000 12.065 C 17.000 7.024,17.009 7.270,16.810 6.886 C 16.743 6.757,16.189 6.186,14.486 4.493 C 12.080 2.101,12.092 2.112,11.670 2.033 C 11.393 1.982,4.365 1.994,4.150 2.046 M12.603 10.344 C 12.777 10.435,12.951 10.673,12.983 10.866 C 13.037 11.187,12.872 11.518,12.584 11.665 L 12.418 11.750 10.000 11.750 L 7.582 11.750 7.416 11.665 C 7.128 11.518,6.963 11.187,7.017 10.866 C 7.049 10.673,7.223 10.435,7.397 10.344 L 7.544 10.267 10.000 10.267 L 12.456 10.267 12.603 10.344 " fill="#0F172A" stroke="none" fill-rule="evenodd"></path></svg>