<svg width="20" height="20" viewBox="0 0 20 20" fill="none" xmlns="http://www.w3.org/2000/svg"><path d="M4.150 2.046 C 3.751 2.144,3.335 2.469,3.167 2.816 C 2.992 3.177,3.001 2.817,3.001 10.000 C 3.001 17.196,2.992 16.821,3.170 17.191 C 3.268 17.395,3.605 17.732,3.809 17.830 C 4.178 18.007,3.885 17.999,10.000 17.999 C 16.115 17.999,15.822 18.007,16.191 17.830 C 16.395 17.732,16.732 17.395,16.830 17.191 C 17.006 16.825,16.999 17.028,17.000 12.065 C 17.000 7.024,17.009 7.270,16.810 6.886 C 16.743 6.757,16.189 6.186,14.486 4.493 C 12.080 2.101,12.092 2.112,11.670 2.033 C 11.393 1.982,4.365 1.994,4.150 2.046 M10.386 8.116 C 10.468 8.164,10.576 8.265,10.626 8.341 L 10.717 8.478 10.733 9.364 L 10.750 10.250 11.636 10.267 L 12.522 10.283 12.659 10.374 C 12.981 10.587,13.086 11.043,12.890 11.376 C 12.781 11.560,12.613 11.682,12.400 11.731 C 12.317 11.750,11.909 11.765,11.493 11.766 L 10.736 11.767 10.727 12.647 L 10.717 13.528 10.616 13.671 C 10.485 13.857,10.218 14.000,10.002 14.000 C 9.781 14.000,9.512 13.858,9.384 13.672 L 9.283 13.528 9.273 12.647 L 9.264 11.767 8.507 11.766 C 8.091 11.765,7.683 11.750,7.600 11.731 C 7.387 11.682,7.219 11.560,7.110 11.376 C 6.914 11.043,7.019 10.587,7.341 10.374 L 7.478 10.283 8.364 10.267 L 9.250 10.250 9.267 9.367 C 9.283 8.515,9.286 8.479,9.361 8.359 C 9.573 8.017,10.032 7.909,10.386 8.116 " fill="#0F172A" stroke="none" fill-rule="evenodd"></path></svg>