<svg width="20" height="20" viewBox="0 0 20 20" fill="none" xmlns="http://www.w3.org/2000/svg"><path d="M4.150 2.046 C 3.751 2.144,3.335 2.469,3.167 2.816 C 2.992 3.177,3.001 2.817,3.001 10.000 C 3.001 17.196,2.992 16.821,3.170 17.191 C 3.268 17.395,3.605 17.732,3.809 17.830 C 4.178 18.007,3.885 17.999,10.000 17.999 C 16.115 17.999,15.822 18.007,16.191 17.830 C 16.395 17.732,16.732 17.395,16.830 17.191 C 17.006 16.825,16.999 17.028,17.000 12.065 C 17.000 7.024,17.009 7.270,16.810 6.886 C 16.743 6.757,16.189 6.186,14.486 4.493 C 12.080 2.101,12.092 2.112,11.670 2.033 C 11.393 1.982,4.365 1.994,4.150 2.046 M10.386 8.116 C 10.468 8.164,10.576 8.265,10.626 8.341 L 10.717 8.478 10.726 9.875 C 10.731 10.643,10.748 11.267,10.763 11.261 C 10.778 11.255,11.014 11.004,11.287 10.703 C 11.795 10.143,11.923 10.042,12.166 10.009 C 12.596 9.952,13.001 10.332,13.000 10.790 C 12.999 11.013,12.845 11.212,11.672 12.517 C 10.404 13.925,10.321 14.000,10.011 14.000 C 9.674 14.000,9.637 13.968,8.413 12.608 C 7.792 11.918,7.236 11.293,7.177 11.219 C 6.931 10.905,6.951 10.512,7.229 10.235 C 7.474 9.989,7.791 9.937,8.092 10.091 C 8.164 10.129,8.425 10.385,8.713 10.703 C 8.986 11.004,9.222 11.255,9.238 11.261 C 9.254 11.267,9.267 10.661,9.267 9.913 C 9.267 8.600,9.269 8.549,9.337 8.410 C 9.518 8.035,10.012 7.897,10.386 8.116 " fill="#0F172A" stroke="none" fill-rule="evenodd"></path></svg>