<svg width="20" height="20" viewBox="0 0 20 20" fill="none" xmlns="http://www.w3.org/2000/svg"><path d="M4.150 2.046 C 3.751 2.144,3.335 2.469,3.167 2.816 C 2.992 3.177,3.001 2.817,3.001 10.000 C 3.001 17.196,2.992 16.821,3.170 17.191 C 3.268 17.395,3.605 17.732,3.809 17.830 C 4.178 18.007,3.885 17.999,10.000 17.999 C 16.115 17.999,15.822 18.007,16.191 17.830 C 16.395 17.732,16.732 17.395,16.830 17.191 C 17.006 16.825,16.999 17.028,17.000 12.065 C 17.000 7.024,17.009 7.270,16.810 6.886 C 16.743 6.757,16.189 6.186,14.486 4.493 C 12.080 2.101,12.092 2.112,11.670 2.033 C 11.393 1.982,4.365 1.994,4.150 2.046 M10.368 8.106 C 10.482 8.173,12.685 10.579,12.868 10.835 C 12.981 10.994,13.018 11.202,12.970 11.417 C 12.914 11.664,12.693 11.907,12.467 11.967 C 12.283 12.016,12.029 11.990,11.888 11.908 C 11.831 11.874,11.560 11.600,11.287 11.298 C 11.014 10.997,10.778 10.745,10.763 10.739 C 10.748 10.733,10.731 11.358,10.726 12.128 L 10.717 13.528 10.616 13.671 C 10.485 13.857,10.218 14.000,10.002 14.000 C 9.781 14.000,9.512 13.858,9.384 13.672 L 9.283 13.528 9.274 12.128 C 9.269 11.358,9.252 10.733,9.237 10.739 C 9.222 10.745,8.986 10.997,8.713 11.298 C 8.440 11.600,8.169 11.874,8.112 11.908 C 7.971 11.990,7.717 12.016,7.533 11.967 C 7.428 11.939,7.337 11.880,7.228 11.767 C 6.961 11.491,6.932 11.100,7.156 10.805 C 7.304 10.611,9.399 8.288,9.515 8.189 C 9.753 7.986,10.107 7.952,10.368 8.106 " fill="#0F172A" stroke="none" fill-rule="evenodd"></path></svg>