<svg width="20" height="20" viewBox="0 0 20 20" fill="none" xmlns="http://www.w3.org/2000/svg"><path d="M4.150 2.046 C 3.751 2.144,3.335 2.469,3.167 2.816 C 2.992 3.177,3.001 2.817,3.001 10.000 C 3.001 17.196,2.992 16.821,3.170 17.191 C 3.268 17.395,3.605 17.732,3.809 17.830 C 4.178 18.007,3.885 17.999,10.000 17.999 C 16.115 17.999,15.822 18.007,16.191 17.830 C 16.395 17.732,16.732 17.395,16.830 17.191 C 17.006 16.825,16.999 17.028,17.000 12.065 C 17.000 7.024,17.009 7.270,16.810 6.886 C 16.743 6.757,16.189 6.186,14.486 4.493 C 12.080 2.101,12.092 2.112,11.670 2.033 C 11.393 1.982,4.365 1.994,4.150 2.046 M13.479 9.041 C 13.562 9.065,13.677 9.142,13.768 9.232 C 13.858 9.323,13.935 9.438,13.959 9.521 C 14.018 9.718,14.018 14.283,13.959 14.479 C 13.874 14.762,13.550 15.000,13.250 15.000 C 12.952 15.000,12.612 14.751,12.536 14.477 C 12.486 14.300,12.487 9.699,12.536 9.521 C 12.581 9.360,12.850 9.083,13.005 9.038 C 13.163 8.993,13.320 8.994,13.479 9.041 M10.386 11.116 C 10.468 11.164,10.576 11.266,10.626 11.341 L 10.717 11.478 10.717 13.003 L 10.717 14.528 10.616 14.671 C 10.485 14.857,10.218 15.000,10.002 15.000 C 9.781 15.000,9.512 14.858,9.384 14.672 L 9.283 14.528 9.274 13.043 C 9.265 11.586,9.266 11.556,9.336 11.412 C 9.518 11.035,10.011 10.897,10.386 11.116 M6.979 13.041 C 7.160 13.094,7.406 13.340,7.459 13.521 C 7.512 13.698,7.512 14.303,7.459 14.479 C 7.404 14.664,7.156 14.916,6.983 14.963 C 6.676 15.047,6.441 14.986,6.227 14.766 C 6.035 14.568,6.000 14.451,6.000 14.000 C 6.000 13.543,6.035 13.428,6.233 13.231 C 6.452 13.011,6.683 12.953,6.979 13.041 " fill="#0F172A" stroke="none" fill-rule="evenodd"></path></svg>