<svg width="20" height="20" viewBox="0 0 20 20" fill="none" xmlns="http://www.w3.org/2000/svg"><path d="M4.150 2.046 C 3.751 2.144,3.335 2.469,3.167 2.816 C 2.992 3.177,3.001 2.817,3.001 10.000 C 3.001 17.196,2.992 16.821,3.170 17.191 C 3.268 17.395,3.605 17.732,3.809 17.830 C 4.178 18.007,3.885 17.999,10.000 17.999 C 16.115 17.999,15.822 18.007,16.191 17.830 C 16.395 17.732,16.732 17.395,16.830 17.191 C 17.006 16.825,16.999 17.028,17.000 12.065 C 17.000 7.024,17.009 7.270,16.810 6.886 C 16.743 6.757,16.189 6.186,14.486 4.493 C 12.080 2.101,12.092 2.112,11.670 2.033 C 11.393 1.982,4.365 1.994,4.150 2.046 M13.479 10.541 C 13.750 10.621,14.000 10.961,14.000 11.250 C 14.000 11.537,13.743 11.892,13.483 11.963 C 13.296 12.014,6.704 12.014,6.517 11.963 C 6.430 11.940,6.328 11.870,6.227 11.766 C 6.013 11.545,5.954 11.316,6.036 11.021 C 6.081 10.860,6.350 10.583,6.505 10.538 C 6.682 10.487,13.307 10.490,13.479 10.541 M13.479 13.541 C 13.750 13.621,14.000 13.961,14.000 14.250 C 14.000 14.537,13.743 14.892,13.483 14.963 C 13.296 15.014,6.704 15.014,6.517 14.963 C 6.430 14.940,6.328 14.870,6.227 14.766 C 6.013 14.545,5.954 14.316,6.036 14.021 C 6.081 13.860,6.350 13.583,6.505 13.538 C 6.682 13.487,13.307 13.490,13.479 13.541 " fill="#0F172A" stroke="none" fill-rule="evenodd"></path></svg>