<svg width="20" height="20" viewBox="0 0 20 20" fill="none" xmlns="http://www.w3.org/2000/svg"><path d="M4.150 2.046 C 3.902 2.107,3.587 2.288,3.420 2.467 C 3.244 2.654,3.089 2.949,3.038 3.193 C 2.984 3.445,2.984 16.555,3.038 16.807 C 3.090 17.052,3.244 17.346,3.421 17.534 C 3.592 17.718,3.938 17.910,4.193 17.963 C 4.445 18.016,15.558 18.015,15.807 17.962 C 16.052 17.910,16.346 17.756,16.534 17.579 C 16.718 17.408,16.910 17.062,16.963 16.807 C 17.012 16.573,17.015 7.592,16.967 7.330 C 16.948 7.231,16.886 7.052,16.828 6.933 C 16.732 6.736,16.521 6.516,14.487 4.493 C 12.080 2.101,12.092 2.112,11.670 2.033 C 11.393 1.982,4.365 1.994,4.150 2.046 M10.315 7.116 C 11.325 7.413,12.077 8.164,12.387 9.185 C 12.468 9.450,12.478 9.538,12.480 9.983 C 12.483 10.550,12.430 10.804,12.209 11.276 L 12.088 11.536 12.758 12.210 C 13.455 12.912,13.499 12.974,13.500 13.252 C 13.501 13.644,13.144 14.000,12.750 14.000 C 12.474 14.000,12.411 13.954,11.710 13.258 L 11.036 12.588 10.776 12.709 C 10.304 12.930,10.050 12.983,9.483 12.980 C 9.038 12.978,8.950 12.968,8.685 12.887 C 7.665 12.577,6.924 11.836,6.613 10.815 C 6.530 10.545,6.522 10.468,6.522 10.000 C 6.522 9.532,6.530 9.455,6.613 9.185 C 6.959 8.050,7.862 7.244,9.022 7.033 C 9.111 7.017,9.371 7.009,9.600 7.016 C 9.927 7.025,10.081 7.047,10.315 7.116 M9.150 8.546 C 8.751 8.644,8.335 8.969,8.167 9.316 C 7.948 9.769,7.949 10.230,8.170 10.691 C 8.268 10.895,8.605 11.232,8.809 11.330 C 9.430 11.628,10.079 11.525,10.552 11.052 C 11.131 10.473,11.150 9.592,10.597 8.987 C 10.242 8.598,9.662 8.422,9.150 8.546 " fill="#0F172A" stroke="none" fill-rule="evenodd"></path></svg>