<svg width="20" height="20" viewBox="0 0 20 20" fill="none" xmlns="http://www.w3.org/2000/svg"><path d="M4.150 2.046 C 3.751 2.144,3.335 2.469,3.167 2.816 C 2.992 3.177,3.001 2.817,3.001 10.000 C 3.001 17.196,2.992 16.821,3.170 17.191 C 3.268 17.395,3.605 17.732,3.809 17.830 C 4.178 18.007,3.885 17.999,10.000 17.999 C 16.115 17.999,15.822 18.007,16.191 17.830 C 16.395 17.732,16.732 17.395,16.830 17.191 C 17.006 16.825,16.999 17.028,17.000 12.065 C 17.000 7.024,17.009 7.270,16.810 6.886 C 16.743 6.757,16.189 6.186,14.486 4.493 C 12.080 2.101,12.092 2.112,11.670 2.033 C 11.393 1.982,4.365 1.994,4.150 2.046 M13.479 8.041 C 13.674 8.098,13.908 8.341,13.964 8.542 C 14.009 8.702,14.001 8.881,13.940 9.034 C 13.889 9.165,9.881 14.668,9.737 14.806 C 9.547 14.986,9.300 15.040,9.017 14.964 C 8.904 14.933,8.674 14.719,7.521 13.572 C 6.078 12.136,6.001 12.043,6.001 11.750 C 6.001 11.595,6.123 11.315,6.237 11.210 C 6.357 11.101,6.600 11.001,6.750 11.001 C 7.026 11.001,7.132 11.085,8.170 12.121 L 9.156 13.106 10.881 10.728 C 11.830 9.420,12.671 8.289,12.750 8.214 C 12.963 8.012,13.197 7.957,13.479 8.041 " fill="#0F172A" stroke="none" fill-rule="evenodd"></path></svg>