<svg width="20" height="20" viewBox="0 0 20 20" fill="none" xmlns="http://www.w3.org/2000/svg"><path d="M4.150 8.546 C 3.751 8.644,3.335 8.969,3.167 9.316 C 2.948 9.769,2.949 10.230,3.170 10.691 C 3.268 10.895,3.605 11.232,3.809 11.330 C 4.430 11.628,5.079 11.525,5.552 11.052 C 6.131 10.473,6.150 9.592,5.597 8.987 C 5.242 8.598,4.662 8.422,4.150 8.546 M9.650 8.546 C 8.901 8.729,8.398 9.485,8.527 10.234 C 8.667 11.054,9.436 11.610,10.238 11.473 C 11.054 11.333,11.610 10.562,11.473 9.762 C 11.325 8.903,10.485 8.343,9.650 8.546 M15.150 8.546 C 14.401 8.729,13.898 9.485,14.027 10.234 C 14.167 11.054,14.936 11.610,15.738 11.473 C 16.554 11.333,17.110 10.562,16.973 9.762 C 16.825 8.903,15.985 8.343,15.150 8.546 " fill="#0F172A" stroke="none" fill-rule="evenodd"></path></svg>