<svg width="20" height="20" viewBox="0 0 20 20" fill="none" xmlns="http://www.w3.org/2000/svg"><path d="M9.650 3.046 C 9.251 3.144,8.835 3.469,8.667 3.816 C 8.448 4.269,8.449 4.730,8.670 5.191 C 8.768 5.395,9.105 5.732,9.309 5.830 C 9.930 6.128,10.579 6.025,11.052 5.552 C 11.631 4.973,11.650 4.092,11.097 3.487 C 10.742 3.098,10.162 2.922,9.650 3.046 M9.650 8.546 C 8.901 8.729,8.398 9.485,8.527 10.234 C 8.667 11.054,9.436 11.610,10.238 11.473 C 11.054 11.333,11.610 10.562,11.473 9.762 C 11.325 8.903,10.485 8.343,9.650 8.546 M9.650 14.046 C 8.901 14.229,8.398 14.985,8.527 15.734 C 8.667 16.554,9.436 17.110,10.238 16.973 C 11.054 16.833,11.610 16.062,11.473 15.262 C 11.325 14.403,10.485 13.843,9.650 14.046 " fill="#0F172A" stroke="none" fill-rule="evenodd"></path></svg>