<svg width="20" height="20" viewBox="0 0 20 20" fill="none" xmlns="http://www.w3.org/2000/svg"><path d="M9.433 2.019 C 9.369 2.027,9.177 2.049,9.007 2.069 C 7.090 2.292,5.164 3.324,3.941 4.782 C 2.913 6.007,2.318 7.311,2.078 8.867 C 1.995 9.402,1.995 10.598,2.078 11.133 C 2.628 14.691,5.309 17.372,8.867 17.922 C 9.402 18.005,10.598 18.005,11.133 17.922 C 12.644 17.689,14.032 17.061,15.183 16.090 C 16.447 15.024,17.377 13.512,17.778 11.866 C 17.938 11.208,17.982 10.810,17.982 10.000 C 17.982 9.447,17.966 9.149,17.922 8.867 C 17.533 6.348,16.075 4.235,13.882 3.012 C 13.033 2.539,12.144 2.239,11.133 2.084 C 10.800 2.033,9.680 1.991,9.433 2.019 M6.448 9.114 C 6.796 9.284,6.982 9.592,6.983 10.000 C 6.983 10.207,6.967 10.282,6.890 10.441 C 6.777 10.670,6.586 10.842,6.343 10.933 C 5.608 11.208,4.849 10.536,5.032 9.772 C 5.183 9.145,5.863 8.828,6.448 9.114 M10.448 9.114 C 10.796 9.284,10.982 9.592,10.983 10.000 C 10.983 10.207,10.967 10.282,10.890 10.441 C 10.777 10.670,10.586 10.842,10.343 10.933 C 9.608 11.208,8.849 10.536,9.032 9.772 C 9.183 9.145,9.863 8.828,10.448 9.114 M14.448 9.114 C 14.796 9.284,14.982 9.592,14.983 10.000 C 14.983 10.207,14.967 10.282,14.890 10.441 C 14.777 10.670,14.586 10.842,14.343 10.933 C 13.608 11.208,12.849 10.536,13.032 9.772 C 13.183 9.145,13.863 8.828,14.448 9.114 " fill="#0F172A" stroke="none" fill-rule="evenodd"></path></svg>