<svg width="20" height="20" viewBox="0 0 20 20" fill="none" xmlns="http://www.w3.org/2000/svg"><path d="M9.686 2.767 C 9.596 2.783,9.447 2.821,9.356 2.850 C 9.265 2.880,7.541 3.729,5.526 4.737 L 1.861 6.570 1.604 6.827 C 1.309 7.121,1.163 7.373,1.066 7.753 C 1.002 8.003,1.000 8.137,1.000 12.117 C 1.000 16.097,1.002 16.231,1.066 16.480 C 1.162 16.857,1.310 17.112,1.599 17.401 C 1.888 17.690,2.143 17.838,2.520 17.934 C 2.772 17.999,2.916 18.000,10.000 18.000 C 17.084 18.000,17.228 17.999,17.480 17.934 C 17.857 17.838,18.112 17.690,18.401 17.401 C 18.690 17.112,18.838 16.857,18.934 16.480 C 18.998 16.231,19.000 16.097,19.000 12.117 C 19.000 8.137,18.998 8.003,18.934 7.753 C 18.837 7.373,18.691 7.121,18.395 6.826 L 18.138 6.569 14.411 4.707 C 12.010 3.508,10.619 2.831,10.501 2.805 C 10.249 2.749,9.881 2.731,9.686 2.767 M6.546 11.937 C 9.849 13.584,9.761 13.546,10.183 13.494 C 10.357 13.473,10.780 13.272,13.433 11.947 C 15.111 11.109,16.543 10.412,16.617 10.397 C 17.139 10.296,17.608 10.808,17.468 11.328 C 17.381 11.651,17.448 11.613,14.044 13.310 C 10.555 15.049,10.667 15.003,10.000 15.003 C 9.331 15.003,9.449 15.052,5.915 13.288 C 2.979 11.822,2.740 11.697,2.656 11.575 C 2.486 11.330,2.457 11.081,2.569 10.833 C 2.716 10.511,2.993 10.349,3.330 10.388 C 3.435 10.401,4.351 10.842,6.546 11.937 " fill="#0F172A" stroke="none" fill-rule="evenodd"></path></svg>