<svg width="20" height="20" viewBox="0 0 20 20" fill="none" xmlns="http://www.w3.org/2000/svg"><path d="M9.542 1.683 C 9.181 1.784,8.835 2.012,8.634 2.280 C 8.426 2.558,2.162 13.430,2.074 13.667 C 1.849 14.270,1.995 14.945,2.455 15.433 C 2.713 15.706,2.946 15.847,3.281 15.933 C 3.540 15.999,3.634 16.000,10.000 16.000 C 16.366 16.000,16.460 15.999,16.719 15.933 C 17.054 15.847,17.287 15.706,17.545 15.433 C 18.003 14.947,18.149 14.268,17.926 13.667 C 17.832 13.415,11.563 2.539,11.355 2.269 C 11.194 2.059,10.889 1.839,10.611 1.732 C 10.359 1.635,9.802 1.610,9.542 1.683 M10.386 5.116 C 10.468 5.164,10.576 5.266,10.626 5.341 L 10.717 5.478 10.717 7.503 L 10.717 9.528 10.616 9.671 C 10.485 9.857,10.218 10.000,10.002 10.000 C 9.781 10.000,9.512 9.858,9.384 9.672 L 9.283 9.528 9.274 7.543 C 9.265 5.577,9.266 5.556,9.336 5.411 C 9.518 5.035,10.011 4.897,10.386 5.116 M10.448 12.114 C 10.796 12.284,10.982 12.592,10.983 13.000 C 10.983 13.207,10.967 13.282,10.890 13.441 C 10.777 13.670,10.586 13.842,10.343 13.933 C 9.608 14.208,8.849 13.536,9.032 12.772 C 9.183 12.145,9.863 11.828,10.448 12.114 " fill="#0F172A" stroke="none" fill-rule="evenodd"></path></svg>