<svg width="20" height="20" viewBox="0 0 20 20" fill="none" xmlns="http://www.w3.org/2000/svg"><path d="M9.433 2.019 C 9.369 2.027,9.177 2.049,9.007 2.069 C 7.090 2.292,5.164 3.324,3.941 4.782 C 2.913 6.007,2.318 7.311,2.078 8.867 C 1.995 9.402,1.995 10.598,2.078 11.133 C 2.628 14.691,5.309 17.372,8.867 17.922 C 9.402 18.005,10.598 18.005,11.133 17.922 C 12.644 17.689,14.032 17.061,15.183 16.090 C 16.447 15.024,17.377 13.512,17.778 11.866 C 17.938 11.208,17.982 10.810,17.982 10.000 C 17.982 9.447,17.966 9.149,17.922 8.867 C 17.533 6.348,16.075 4.235,13.882 3.012 C 13.033 2.539,12.144 2.239,11.133 2.084 C 10.800 2.033,9.680 1.991,9.433 2.019 M10.386 5.116 C 10.468 5.164,10.576 5.266,10.626 5.341 L 10.717 5.478 10.717 8.003 L 10.717 10.528 10.616 10.671 C 10.485 10.857,10.218 11.000,10.002 11.000 C 9.781 11.000,9.512 10.858,9.384 10.672 L 9.283 10.528 9.274 8.042 C 9.265 5.569,9.266 5.556,9.336 5.411 C 9.518 5.035,10.011 4.897,10.386 5.116 M10.448 13.114 C 10.796 13.284,10.982 13.592,10.983 14.000 C 10.983 14.207,10.967 14.282,10.890 14.441 C 10.777 14.670,10.586 14.842,10.343 14.933 C 9.608 15.208,8.849 14.536,9.032 13.772 C 9.183 13.145,9.863 12.828,10.448 13.114 " fill="#0F172A" stroke="none" fill-rule="evenodd"></path></svg>