<svg width="20" height="20" viewBox="0 0 20 20" fill="none" xmlns="http://www.w3.org/2000/svg"><path d="M15.019 1.035 C 14.089 1.181,13.251 1.671,12.725 2.375 C 12.406 2.803,12.266 3.093,12.101 3.667 L 12.010 3.983 10.897 4.000 L 9.783 4.017 9.633 4.105 C 9.437 4.220,9.148 4.528,9.066 4.708 C 9.031 4.786,9.001 4.918,9.001 5.002 C 9.000 5.256,9.120 5.439,9.616 5.933 L 10.067 6.382 6.737 9.716 C 3.129 13.329,3.270 13.175,3.099 13.717 C 3.042 13.899,3.020 14.074,3.002 14.517 C 2.989 14.834,2.960 15.127,2.937 15.183 C 2.914 15.238,2.500 15.681,2.017 16.167 C 1.082 17.106,1.001 17.211,1.001 17.500 C 1.001 17.756,1.103 17.914,1.576 18.391 C 2.060 18.880,2.243 19.001,2.498 18.999 C 2.790 18.998,2.894 18.919,3.833 17.983 C 4.319 17.500,4.762 17.086,4.817 17.063 C 4.873 17.040,5.166 17.011,5.483 16.998 C 5.926 16.980,6.101 16.958,6.283 16.901 C 6.825 16.730,6.671 16.871,10.284 13.263 L 13.618 9.933 14.067 10.384 C 14.561 10.880,14.744 11.000,14.998 10.999 C 15.082 10.999,15.214 10.969,15.292 10.934 C 15.472 10.852,15.780 10.563,15.895 10.367 L 15.983 10.217 16.000 9.103 L 16.017 7.990 16.340 7.898 C 17.031 7.701,17.503 7.432,17.968 6.968 C 18.437 6.499,18.730 5.982,18.904 5.317 C 18.970 5.064,18.982 4.935,18.982 4.500 C 18.982 4.065,18.970 3.936,18.904 3.683 C 18.727 3.006,18.434 2.495,17.949 2.017 C 17.466 1.540,16.879 1.221,16.226 1.081 C 15.930 1.017,15.288 0.992,15.019 1.035 M9.358 12.094 C 7.525 13.929,6.086 15.343,6.000 15.394 C 5.858 15.478,5.819 15.485,5.283 15.506 C 4.956 15.518,4.644 15.548,4.546 15.577 L 4.375 15.625 4.424 15.454 C 4.452 15.356,4.483 15.043,4.497 14.717 C 4.515 14.271,4.533 14.125,4.580 14.033 C 4.613 13.969,6.097 12.458,7.878 10.675 L 11.116 7.433 11.842 8.158 L 12.567 8.883 9.358 12.094 " fill="#0F172A" stroke="none" fill-rule="evenodd"></path></svg>