<svg width="20" height="20" viewBox="0 0 20 20" fill="none" xmlns="http://www.w3.org/2000/svg"><path d="M2.450 2.078 C 2.136 2.224,1.972 2.509,2.011 2.840 C 2.021 2.926,2.052 3.038,2.079 3.090 C 2.107 3.141,5.449 6.501,9.506 10.556 C 17.384 18.428,16.938 18.000,17.250 18.000 C 17.644 18.000,18.001 17.644,18.000 17.252 C 17.999 16.963,17.974 16.931,16.979 15.932 L 16.032 14.980 16.254 14.802 C 17.402 13.882,18.334 12.715,18.985 11.383 C 19.552 10.224,19.569 9.906,19.120 8.902 C 17.773 5.888,14.953 3.703,11.700 3.152 C 9.630 2.802,7.560 3.088,5.679 3.983 L 5.241 4.191 4.229 3.176 C 3.157 2.100,3.032 2.001,2.750 2.001 C 2.677 2.001,2.542 2.036,2.450 2.078 M10.795 6.082 C 12.004 6.338,13.024 7.122,13.579 8.224 C 13.871 8.805,13.978 9.278,13.978 10.000 C 13.978 10.746,13.866 11.222,13.547 11.832 C 13.295 12.315,13.379 12.328,12.761 11.711 L 12.224 11.173 12.309 10.960 C 12.814 9.697,12.275 8.323,11.050 7.748 C 10.641 7.556,10.456 7.516,9.983 7.519 C 9.563 7.521,9.427 7.546,9.056 7.690 L 8.829 7.779 8.290 7.240 C 7.671 6.621,7.684 6.706,8.172 6.451 C 8.506 6.276,8.950 6.124,9.283 6.071 C 9.412 6.050,9.554 6.026,9.600 6.019 C 9.768 5.990,10.557 6.032,10.795 6.082 M2.536 6.352 C 1.801 7.184,1.243 8.059,0.815 9.050 C 0.612 9.519,0.568 9.691,0.567 10.005 C 0.567 10.308,0.633 10.542,0.869 11.073 C 1.861 13.300,3.698 15.138,5.921 16.128 C 7.022 16.618,8.148 16.891,9.408 16.974 C 10.561 17.050,11.869 16.895,12.931 16.557 L 13.268 16.450 12.007 15.190 L 10.746 13.930 10.531 13.965 C 10.015 14.048,9.303 13.981,8.754 13.798 C 7.542 13.391,6.609 12.458,6.202 11.246 C 6.019 10.697,5.952 9.985,6.035 9.469 L 6.070 9.254 4.460 7.644 C 3.575 6.758,2.843 6.034,2.833 6.034 C 2.824 6.034,2.690 6.177,2.536 6.352 " fill="#0F172A" stroke="none" fill-rule="evenodd"></path></svg>