<svg width="20" height="20" viewBox="0 0 20 20" fill="none" xmlns="http://www.w3.org/2000/svg"><path d="M9.433 2.019 C 9.369 2.027,9.177 2.049,9.007 2.069 C 7.090 2.292,5.164 3.324,3.941 4.782 C 2.913 6.007,2.318 7.311,2.078 8.867 C 1.995 9.402,1.995 10.598,2.078 11.133 C 2.628 14.691,5.309 17.372,8.867 17.922 C 9.402 18.005,10.598 18.005,11.133 17.922 C 12.644 17.689,14.032 17.061,15.183 16.090 C 16.447 15.024,17.377 13.512,17.778 11.866 C 17.938 11.208,17.982 10.810,17.982 10.000 C 17.982 9.447,17.966 9.149,17.922 8.867 C 17.533 6.348,16.075 4.235,13.882 3.012 C 13.033 2.539,12.144 2.239,11.133 2.084 C 10.800 2.033,9.680 1.991,9.433 2.019 M8.321 7.078 C 8.564 7.205,8.797 7.524,8.909 7.883 C 9.012 8.213,9.012 8.787,8.909 9.117 C 8.798 9.473,8.564 9.795,8.326 9.920 C 8.096 10.040,7.773 10.008,7.561 9.843 C 6.832 9.274,6.821 7.761,7.542 7.170 C 7.750 6.999,8.094 6.959,8.321 7.078 M12.321 7.078 C 12.564 7.205,12.797 7.524,12.909 7.883 C 13.012 8.213,13.012 8.787,12.909 9.117 C 12.798 9.473,12.564 9.795,12.326 9.920 C 12.096 10.040,11.773 10.008,11.561 9.843 C 10.832 9.274,10.821 7.761,11.542 7.170 C 11.750 6.999,12.094 6.959,12.321 7.078 M7.317 12.338 C 7.389 12.377,7.539 12.490,7.649 12.590 C 8.074 12.975,8.590 13.248,9.183 13.404 C 9.436 13.470,9.565 13.482,10.000 13.482 C 10.435 13.482,10.564 13.470,10.817 13.404 C 11.410 13.248,11.926 12.975,12.351 12.590 C 12.623 12.343,12.775 12.267,12.992 12.267 C 13.425 12.267,13.736 12.572,13.738 12.999 C 13.739 13.292,13.648 13.445,13.275 13.774 C 12.661 14.317,11.861 14.711,10.975 14.908 C 10.504 15.012,9.496 15.012,9.025 14.908 C 8.349 14.758,7.754 14.509,7.220 14.153 C 6.823 13.888,6.454 13.552,6.350 13.360 C 6.140 12.975,6.303 12.492,6.700 12.320 C 6.874 12.244,7.158 12.253,7.317 12.338 " fill="#0F172A" stroke="none" fill-rule="evenodd"></path></svg>