<svg width="20" height="20" viewBox="0 0 20 20" fill="none" xmlns="http://www.w3.org/2000/svg"><path d="M9.433 2.019 C 9.369 2.027,9.177 2.049,9.007 2.069 C 7.090 2.292,5.164 3.324,3.941 4.782 C 2.913 6.007,2.318 7.311,2.078 8.867 C 1.995 9.402,1.995 10.598,2.078 11.133 C 2.628 14.691,5.309 17.372,8.867 17.922 C 9.402 18.005,10.598 18.005,11.133 17.922 C 12.644 17.689,14.032 17.061,15.183 16.090 C 16.447 15.024,17.377 13.512,17.778 11.866 C 17.938 11.208,17.982 10.810,17.982 10.000 C 17.982 9.447,17.966 9.149,17.922 8.867 C 17.533 6.348,16.075 4.235,13.882 3.012 C 13.033 2.539,12.144 2.239,11.133 2.084 C 10.800 2.033,9.680 1.991,9.433 2.019 M8.321 7.078 C 8.564 7.205,8.797 7.524,8.909 7.883 C 9.012 8.213,9.012 8.787,8.909 9.117 C 8.798 9.473,8.564 9.795,8.326 9.920 C 8.096 10.040,7.773 10.008,7.561 9.843 C 6.832 9.274,6.821 7.761,7.542 7.170 C 7.750 6.999,8.094 6.959,8.321 7.078 M12.321 7.078 C 12.564 7.205,12.797 7.524,12.909 7.883 C 13.012 8.213,13.012 8.787,12.909 9.117 C 12.798 9.473,12.564 9.795,12.326 9.920 C 12.096 10.040,11.773 10.008,11.561 9.843 C 10.832 9.274,10.821 7.761,11.542 7.170 C 11.750 6.999,12.094 6.959,12.321 7.078 M10.973 12.101 C 11.847 12.278,12.613 12.657,13.298 13.251 C 13.631 13.539,13.739 13.723,13.738 13.999 C 13.736 14.425,13.426 14.733,13.000 14.733 C 12.771 14.733,12.650 14.676,12.398 14.449 C 11.616 13.746,10.630 13.416,9.642 13.527 C 8.861 13.614,8.199 13.913,7.602 14.449 C 7.350 14.676,7.229 14.733,7.000 14.733 C 6.575 14.733,6.260 14.420,6.260 13.997 C 6.260 13.722,6.376 13.527,6.708 13.244 C 7.506 12.561,8.435 12.148,9.429 12.033 C 9.822 11.988,10.579 12.021,10.973 12.101 " fill="#0F172A" stroke="none" fill-rule="evenodd"></path></svg>