<svg width="20" height="20" viewBox="0 0 20 20" fill="none" xmlns="http://www.w3.org/2000/svg"><path d="M2.467 3.023 C 1.774 3.141,1.178 3.712,1.037 4.393 C 1.011 4.517,1.000 6.190,1.000 10.010 C 1.001 15.968,0.991 15.652,1.198 16.062 C 1.318 16.301,1.579 16.591,1.800 16.733 C 1.891 16.792,2.074 16.877,2.206 16.923 L 2.447 17.007 10.000 17.007 L 17.553 17.007 17.794 16.923 C 18.386 16.717,18.809 16.254,18.950 15.659 C 18.992 15.479,18.999 14.689,19.000 10.010 C 19.000 6.190,18.989 4.517,18.963 4.393 C 18.842 3.808,18.409 3.320,17.807 3.089 L 17.617 3.017 10.083 3.013 C 5.940 3.010,2.513 3.015,2.467 3.023 M4.418 4.582 C 4.499 4.663,4.500 4.668,4.500 5.311 C 4.500 5.900,4.494 5.967,4.436 6.038 L 4.373 6.117 3.500 6.117 L 2.627 6.117 2.564 6.038 C 2.506 5.967,2.500 5.900,2.500 5.311 C 2.500 4.668,2.501 4.663,2.582 4.582 L 2.664 4.500 3.500 4.500 L 4.336 4.500 4.418 4.582 M17.418 4.582 C 17.499 4.663,17.500 4.668,17.500 5.311 C 17.500 5.900,17.494 5.967,17.436 6.038 L 17.373 6.117 16.500 6.117 L 15.627 6.117 15.564 6.038 C 15.506 5.967,15.500 5.900,15.500 5.311 C 15.500 4.668,15.501 4.663,15.582 4.582 L 15.664 4.500 16.500 4.500 L 17.336 4.500 17.418 4.582 M4.418 7.715 C 4.499 7.796,4.500 7.801,4.500 8.445 C 4.500 9.033,4.494 9.100,4.436 9.171 L 4.373 9.250 3.500 9.250 L 2.627 9.250 2.564 9.171 C 2.506 9.100,2.500 9.033,2.500 8.445 C 2.500 7.801,2.501 7.796,2.582 7.715 L 2.664 7.633 3.500 7.633 L 4.336 7.633 4.418 7.715 M17.418 7.715 C 17.499 7.796,17.500 7.801,17.500 8.445 C 17.500 9.033,17.494 9.100,17.436 9.171 L 17.373 9.250 16.500 9.250 L 15.627 9.250 15.564 9.171 C 15.506 9.100,15.500 9.033,15.500 8.445 C 15.500 7.801,15.501 7.796,15.582 7.715 L 15.664 7.633 16.500 7.633 L 17.336 7.633 17.418 7.715 M13.603 9.344 C 13.777 9.435,13.951 9.673,13.983 9.866 C 14.037 10.187,13.872 10.518,13.584 10.665 L 13.418 10.750 10.000 10.750 L 6.582 10.750 6.416 10.665 C 6.128 10.518,5.963 10.187,6.017 9.866 C 6.049 9.673,6.223 9.435,6.397 9.344 L 6.544 9.267 10.000 9.267 L 13.456 9.267 13.603 9.344 M4.431 10.854 C 4.495 10.937,4.500 10.984,4.499 11.579 C 4.498 12.028,4.486 12.232,4.457 12.270 C 4.366 12.388,4.281 12.400,3.500 12.400 C 2.719 12.400,2.634 12.388,2.543 12.270 C 2.514 12.232,2.502 12.028,2.501 11.579 C 2.500 10.984,2.505 10.937,2.569 10.854 L 2.638 10.767 3.500 10.767 L 4.362 10.767 4.431 10.854 M17.431 10.854 C 17.495 10.937,17.500 10.984,17.499 11.579 C 17.498 12.028,17.486 12.232,17.457 12.270 C 17.366 12.388,17.281 12.400,16.500 12.400 C 15.719 12.400,15.634 12.388,15.543 12.270 C 15.514 12.232,15.502 12.028,15.501 11.579 C 15.500 10.984,15.505 10.937,15.569 10.854 L 15.638 10.767 16.500 10.767 L 17.362 10.767 17.431 10.854 M4.431 13.988 C 4.495 14.070,4.500 14.119,4.500 14.700 C 4.500 15.281,4.495 15.330,4.431 15.412 L 4.362 15.500 3.513 15.500 L 2.664 15.500 2.582 15.418 C 2.501 15.337,2.500 15.331,2.500 14.706 C 2.500 14.119,2.505 14.070,2.569 13.988 L 2.638 13.900 3.500 13.900 L 4.362 13.900 4.431 13.988 M17.431 13.988 C 17.495 14.070,17.500 14.119,17.500 14.706 C 17.500 15.331,17.499 15.337,17.418 15.418 L 17.336 15.500 16.487 15.500 L 15.638 15.500 15.569 15.412 C 15.505 15.330,15.500 15.281,15.500 14.700 C 15.500 14.119,15.505 14.070,15.569 13.988 L 15.638 13.900 16.500 13.900 L 17.362 13.900 17.431 13.988 " fill="#0F172A" stroke="none" fill-rule="evenodd"></path></svg>