<svg width="20" height="20" viewBox="0 0 20 20" fill="none" xmlns="http://www.w3.org/2000/svg"><path d="M9.278 1.034 C 8.167 1.142,7.091 1.471,6.150 1.991 C 5.421 2.394,5.273 2.569,5.307 2.986 C 5.341 3.391,5.680 3.685,6.086 3.660 C 6.263 3.649,6.331 3.622,6.636 3.442 C 8.318 2.447,10.254 2.236,12.086 2.848 C 13.993 3.485,15.538 5.044,16.167 6.965 C 16.432 7.773,16.519 8.472,16.487 9.533 C 16.422 11.690,16.100 13.561,15.448 15.573 C 15.367 15.824,15.300 16.057,15.300 16.092 C 15.300 16.126,15.323 16.231,15.350 16.323 C 15.460 16.695,15.845 16.919,16.226 16.834 C 16.367 16.803,16.441 16.760,16.566 16.639 C 16.718 16.491,16.735 16.455,16.910 15.917 C 17.432 14.315,17.755 12.725,17.921 10.933 C 18.004 10.042,18.005 8.389,17.923 7.867 C 17.527 5.340,16.075 3.236,13.882 2.012 C 13.033 1.539,12.143 1.238,11.133 1.084 C 10.712 1.020,9.701 0.993,9.278 1.034 M3.674 4.336 C 3.260 4.462,2.583 5.741,2.246 7.033 C 2.102 7.588,2.033 8.114,2.000 8.917 C 1.982 9.338,1.945 9.829,1.918 10.007 C 1.792 10.831,1.514 11.593,1.059 12.362 C 0.894 12.642,0.852 12.742,0.840 12.888 C 0.781 13.594,1.661 13.983,2.124 13.455 C 2.394 13.148,2.853 12.236,3.078 11.559 C 3.355 10.723,3.456 10.127,3.500 9.061 C 3.517 8.646,3.554 8.158,3.583 7.978 C 3.718 7.140,3.988 6.403,4.442 5.636 C 4.622 5.331,4.649 5.263,4.660 5.086 C 4.686 4.671,4.384 4.331,3.972 4.312 C 3.868 4.307,3.734 4.317,3.674 4.336 M9.267 4.683 C 8.477 4.818,7.781 5.134,7.145 5.647 C 6.362 6.278,5.794 7.224,5.583 8.250 C 5.553 8.397,5.515 8.809,5.498 9.167 C 5.481 9.524,5.451 9.959,5.431 10.133 C 5.217 12.002,4.485 13.763,3.307 15.246 C 3.025 15.600,2.988 15.678,2.989 15.917 C 2.989 16.482,3.554 16.833,4.059 16.581 C 4.190 16.516,4.287 16.425,4.462 16.206 C 5.454 14.959,6.144 13.621,6.564 12.126 C 6.827 11.191,6.945 10.430,6.999 9.317 C 7.042 8.425,7.117 8.124,7.430 7.588 C 7.961 6.679,8.925 6.133,10.000 6.133 C 11.239 6.133,12.300 6.846,12.777 8.000 C 12.914 8.332,12.972 8.638,12.997 9.167 C 13.022 9.702,13.062 9.834,13.246 9.989 C 13.667 10.344,14.317 10.153,14.467 9.631 C 14.515 9.464,14.507 8.830,14.452 8.467 C 14.152 6.494,12.620 4.966,10.644 4.669 C 10.327 4.622,9.580 4.629,9.267 4.683 M9.683 8.322 C 9.535 8.400,9.402 8.533,9.325 8.683 C 9.265 8.798,9.252 8.905,9.231 9.467 C 9.201 10.230,9.161 10.635,9.047 11.316 C 8.789 12.867,8.238 14.411,7.440 15.817 C 7.284 16.093,6.730 16.935,6.426 17.358 C 6.270 17.577,6.252 17.620,6.240 17.809 C 6.211 18.264,6.528 18.605,6.979 18.605 C 7.349 18.605,7.523 18.442,8.159 17.500 C 9.498 15.517,10.372 13.148,10.650 10.749 C 10.714 10.191,10.768 9.005,10.736 8.861 C 10.682 8.625,10.529 8.431,10.310 8.320 C 10.171 8.250,9.818 8.251,9.683 8.322 M13.117 11.983 C 13.043 12.009,12.921 12.097,12.844 12.178 C 12.693 12.337,12.672 12.394,12.516 13.083 C 12.188 14.536,11.526 16.215,10.722 17.633 C 10.515 17.998,10.484 18.075,10.473 18.250 C 10.431 18.929,11.271 19.299,11.739 18.808 C 11.854 18.688,12.213 18.072,12.492 17.517 C 12.985 16.534,13.462 15.302,13.784 14.179 C 13.931 13.666,14.133 12.796,14.133 12.677 C 14.133 12.498,14.050 12.315,13.901 12.166 C 13.679 11.944,13.407 11.881,13.117 11.983 " fill="#0F172A" stroke="none" fill-rule="evenodd"></path></svg>