<svg width="20" height="20" viewBox="0 0 20 20" fill="none" xmlns="http://www.w3.org/2000/svg"><path d="M10.133 1.745 C 9.962 1.806,9.561 2.071,9.210 2.356 C 8.392 3.017,7.766 3.887,7.378 4.900 C 7.159 5.474,7.000 6.346,7.000 6.978 C 7.000 7.266,6.988 7.342,6.925 7.466 C 6.793 7.724,6.552 7.826,6.328 7.720 C 6.173 7.646,5.689 7.194,5.420 6.870 C 5.266 6.686,5.160 6.591,5.066 6.554 C 4.725 6.417,4.557 6.533,4.123 7.201 C 3.124 8.741,2.772 10.638,3.152 12.438 C 3.664 14.861,5.428 16.847,7.767 17.632 C 8.442 17.858,9.016 17.962,9.752 17.989 C 13.144 18.117,16.148 15.767,16.847 12.440 C 17.227 10.629,16.873 8.730,15.869 7.193 C 15.267 6.272,14.563 5.600,13.520 4.952 C 12.855 4.539,12.470 4.241,12.033 3.802 C 11.541 3.307,11.122 2.733,10.750 2.041 C 10.606 1.774,10.368 1.660,10.133 1.745 M11.248 8.203 C 13.359 8.909,14.491 11.179,13.783 13.287 C 13.320 14.667,12.081 15.714,10.632 15.949 C 8.717 16.259,6.832 15.091,6.199 13.202 C 6.040 12.729,6.071 12.502,6.309 12.379 C 6.511 12.274,6.715 12.308,7.101 12.511 C 7.483 12.711,7.829 12.839,8.199 12.916 C 8.632 13.008,8.798 12.969,8.936 12.746 C 9.005 12.634,9.010 12.589,9.005 12.187 C 8.990 11.171,9.176 10.290,9.587 9.433 C 9.892 8.796,10.270 8.239,10.476 8.123 C 10.616 8.044,10.843 8.067,11.248 8.203 " fill="#0F172A" stroke="none" fill-rule="evenodd"></path></svg>