<svg width="20" height="20" viewBox="0 0 20 20" fill="none" xmlns="http://www.w3.org/2000/svg"><path d="M2.507 2.038 C 2.347 2.084,2.081 2.355,2.037 2.517 C 1.985 2.707,1.985 17.295,2.037 17.483 C 2.086 17.660,2.340 17.914,2.517 17.963 C 2.796 18.040,3.039 17.988,3.238 17.809 C 3.500 17.572,3.481 17.755,3.500 15.169 L 3.517 12.855 4.350 12.679 C 5.607 12.413,5.791 12.389,6.517 12.391 C 7.642 12.395,8.328 12.563,9.533 13.133 C 10.725 13.697,11.806 13.947,13.050 13.946 C 13.766 13.945,14.245 13.893,14.850 13.750 C 15.173 13.674,17.236 13.052,17.527 12.943 C 17.698 12.879,17.918 12.643,17.966 12.471 C 18.015 12.296,18.012 3.695,17.963 3.517 C 17.893 3.260,17.538 3.000,17.257 3.000 C 17.211 3.000,16.605 3.120,15.911 3.266 C 14.029 3.662,14.130 3.648,13.233 3.648 C 12.560 3.649,12.390 3.638,12.023 3.572 C 11.478 3.474,10.987 3.329,10.317 3.067 C 9.038 2.567,8.227 2.386,7.083 2.345 C 6.187 2.312,5.618 2.378,4.200 2.678 L 3.517 2.823 3.492 2.660 C 3.459 2.444,3.396 2.330,3.234 2.192 C 3.028 2.015,2.773 1.961,2.507 2.038 " fill="#0F172A" stroke="none" fill-rule="evenodd"></path></svg>