<svg width="20" height="20" viewBox="0 0 20 20" fill="none" xmlns="http://www.w3.org/2000/svg"><path d="M3.467 3.022 C 2.770 3.144,2.178 3.712,2.037 4.393 C 1.985 4.642,1.985 15.358,2.037 15.607 C 2.172 16.261,2.739 16.828,3.393 16.963 C 3.643 17.015,16.357 17.015,16.607 16.963 C 17.261 16.828,17.828 16.261,17.963 15.607 C 18.015 15.358,18.015 6.642,17.963 6.393 C 17.842 5.808,17.408 5.318,16.807 5.090 C 16.619 5.019,16.583 5.017,13.960 5.000 L 11.303 4.983 10.476 4.164 C 9.648 3.344,9.506 3.229,9.140 3.090 C 8.951 3.018,8.935 3.017,6.250 3.013 C 4.765 3.010,3.512 3.014,3.467 3.022 M10.386 8.116 C 10.468 8.164,10.576 8.265,10.626 8.341 L 10.717 8.478 10.726 9.875 C 10.731 10.643,10.748 11.267,10.763 11.261 C 10.778 11.255,11.014 11.004,11.287 10.703 C 11.795 10.143,11.923 10.042,12.166 10.009 C 12.596 9.952,13.001 10.332,13.000 10.790 C 12.999 11.013,12.845 11.212,11.672 12.517 C 10.404 13.925,10.321 14.000,10.011 14.000 C 9.674 14.000,9.637 13.968,8.413 12.608 C 7.792 11.918,7.236 11.293,7.177 11.219 C 6.931 10.905,6.951 10.512,7.229 10.235 C 7.474 9.989,7.791 9.937,8.092 10.091 C 8.164 10.129,8.425 10.385,8.713 10.703 C 8.986 11.004,9.222 11.255,9.238 11.261 C 9.254 11.267,9.267 10.661,9.267 9.913 C 9.267 8.600,9.269 8.549,9.337 8.410 C 9.518 8.035,10.012 7.897,10.386 8.116 " fill="#0F172A" stroke="none" fill-rule="evenodd"></path></svg>