<svg width="20" height="20" viewBox="0 0 20 20" fill="none" xmlns="http://www.w3.org/2000/svg"><path d="M3.467 3.022 C 2.770 3.144,2.178 3.712,2.037 4.393 C 2.013 4.508,2.000 5.170,2.000 6.283 L 2.000 7.996 2.342 7.833 C 2.530 7.743,2.819 7.635,2.984 7.593 L 3.283 7.517 10.000 7.517 L 16.717 7.517 17.016 7.593 C 17.181 7.635,17.470 7.743,17.658 7.833 L 18.000 7.996 18.000 7.283 C 18.000 6.891,17.984 6.490,17.963 6.393 C 17.842 5.808,17.408 5.318,16.807 5.090 C 16.619 5.019,16.583 5.017,13.960 5.000 L 11.303 4.983 10.476 4.164 C 9.648 3.344,9.506 3.229,9.140 3.090 C 8.951 3.018,8.935 3.017,6.250 3.013 C 4.765 3.010,3.512 3.014,3.467 3.022 M3.467 9.023 C 2.828 9.132,2.296 9.596,2.079 10.233 C 2.020 10.406,2.017 10.564,2.017 13.000 C 2.017 15.436,2.020 15.594,2.079 15.767 C 2.269 16.326,2.674 16.731,3.233 16.921 C 3.410 16.981,3.656 16.983,10.000 16.983 C 16.344 16.983,16.590 16.981,16.767 16.921 C 17.326 16.731,17.731 16.326,17.921 15.767 C 17.980 15.594,17.983 15.436,17.983 13.000 C 17.983 10.564,17.980 10.406,17.921 10.233 C 17.735 9.686,17.360 9.301,16.807 9.089 L 16.617 9.017 10.083 9.013 C 6.490 9.010,3.512 9.015,3.467 9.023 " fill="#0F172A" stroke="none" fill-rule="evenodd"></path></svg>