<svg width="20" height="20" viewBox="0 0 20 20" fill="none" xmlns="http://www.w3.org/2000/svg"><path d="M3.467 3.022 C 2.770 3.144,2.178 3.712,2.037 4.393 C 1.985 4.642,1.985 15.358,2.037 15.607 C 2.172 16.261,2.739 16.828,3.393 16.963 C 3.643 17.015,16.357 17.015,16.607 16.963 C 17.261 16.828,17.828 16.261,17.963 15.607 C 18.015 15.358,18.015 6.642,17.963 6.393 C 17.842 5.808,17.408 5.318,16.807 5.090 C 16.619 5.019,16.583 5.017,13.960 5.000 L 11.303 4.983 10.476 4.164 C 9.648 3.344,9.506 3.229,9.140 3.090 C 8.951 3.018,8.935 3.017,6.250 3.013 C 4.765 3.010,3.512 3.014,3.467 3.022 M10.386 8.116 C 10.468 8.164,10.576 8.265,10.626 8.341 L 10.717 8.478 10.733 9.364 L 10.750 10.250 11.636 10.267 L 12.522 10.283 12.659 10.374 C 12.981 10.587,13.086 11.043,12.890 11.376 C 12.781 11.560,12.613 11.682,12.400 11.731 C 12.317 11.750,11.909 11.765,11.493 11.766 L 10.736 11.767 10.727 12.647 L 10.717 13.528 10.616 13.671 C 10.485 13.857,10.218 14.000,10.002 14.000 C 9.781 14.000,9.512 13.858,9.384 13.672 L 9.283 13.528 9.273 12.647 L 9.264 11.767 8.507 11.766 C 8.091 11.765,7.683 11.750,7.600 11.731 C 7.387 11.682,7.219 11.560,7.110 11.376 C 6.914 11.043,7.019 10.587,7.341 10.374 L 7.478 10.283 8.364 10.267 L 9.250 10.250 9.267 9.367 C 9.283 8.515,9.286 8.479,9.361 8.359 C 9.573 8.017,10.032 7.909,10.386 8.116 " fill="#0F172A" stroke="none" fill-rule="evenodd"></path></svg>