<svg width="20" height="20" viewBox="0 0 20 20" fill="none" xmlns="http://www.w3.org/2000/svg"><path d="M4.467 3.022 C 3.769 3.145,3.178 3.712,3.037 4.393 C 3.013 4.506,3.000 5.102,3.000 6.035 L 3.000 7.500 10.000 7.500 L 17.000 7.500 17.000 7.035 C 17.000 6.489,16.967 6.301,16.814 5.978 C 16.625 5.580,16.267 5.264,15.807 5.090 C 15.621 5.020,15.566 5.018,13.460 5.001 L 11.303 4.983 10.476 4.164 C 9.648 3.343,9.505 3.228,9.140 3.090 C 8.953 3.019,8.919 3.018,6.750 3.013 C 5.540 3.010,4.513 3.014,4.467 3.022 M2.688 9.053 C 2.071 9.202,1.534 9.751,1.399 10.370 C 1.375 10.481,1.365 10.679,1.374 10.854 C 1.389 11.122,1.459 11.370,2.115 13.500 C 2.589 15.036,2.880 15.927,2.955 16.071 C 3.158 16.459,3.489 16.741,3.933 16.904 L 4.150 16.983 10.000 16.983 L 15.850 16.983 16.067 16.904 C 16.510 16.741,16.855 16.442,17.053 16.050 C 17.127 15.904,17.439 14.946,17.890 13.483 C 18.538 11.377,18.610 11.121,18.625 10.854 C 18.635 10.675,18.625 10.483,18.600 10.370 C 18.460 9.738,17.928 9.200,17.297 9.051 C 16.985 8.978,2.992 8.979,2.688 9.053 " fill="#0F172A" stroke="none" fill-rule="evenodd"></path></svg>