<svg width="20" height="20" viewBox="0 0 20 20" fill="none" xmlns="http://www.w3.org/2000/svg"><path d="M3.467 3.022 C 2.770 3.144,2.178 3.712,2.037 4.393 C 1.985 4.642,1.985 15.358,2.037 15.607 C 2.172 16.261,2.739 16.828,3.393 16.963 C 3.643 17.015,16.357 17.015,16.607 16.963 C 17.261 16.828,17.828 16.261,17.963 15.607 C 18.015 15.358,18.015 6.642,17.963 6.393 C 17.842 5.808,17.408 5.318,16.807 5.090 C 16.619 5.019,16.583 5.017,13.960 5.000 L 11.303 4.983 10.476 4.164 C 9.648 3.344,9.506 3.229,9.140 3.090 C 8.951 3.018,8.935 3.017,6.250 3.013 C 4.765 3.010,3.512 3.014,3.467 3.022 M12.603 10.344 C 12.777 10.435,12.951 10.673,12.983 10.866 C 13.037 11.187,12.872 11.518,12.584 11.665 L 12.418 11.750 10.000 11.750 L 7.582 11.750 7.416 11.665 C 7.128 11.518,6.963 11.187,7.017 10.866 C 7.049 10.673,7.223 10.435,7.397 10.344 L 7.544 10.267 10.000 10.267 L 12.456 10.267 12.603 10.344 " fill="#0F172A" stroke="none" fill-rule="evenodd"></path></svg>