<svg width="20" height="20" viewBox="0 0 20 20" fill="none" xmlns="http://www.w3.org/2000/svg"><path d="M2.101 4.651 C 1.745 4.751,1.357 5.053,1.190 5.360 C 0.993 5.723,1.000 5.541,1.000 10.000 C 1.000 14.400,0.995 14.263,1.170 14.607 C 1.262 14.788,1.545 15.085,1.726 15.190 C 2.095 15.407,2.574 15.458,2.967 15.324 C 3.213 15.240,9.601 11.312,9.853 11.090 L 10.000 10.961 10.000 12.523 C 10.000 14.189,10.008 14.289,10.170 14.607 C 10.262 14.788,10.545 15.085,10.726 15.190 C 11.095 15.407,11.574 15.458,11.967 15.324 C 12.117 15.272,13.131 14.664,15.283 13.336 C 16.988 12.283,18.492 11.349,18.624 11.260 C 19.004 11.006,19.221 10.676,19.303 10.226 C 19.384 9.790,19.220 9.290,18.887 8.956 C 18.757 8.825,17.932 8.300,15.450 6.769 C 13.653 5.661,12.108 4.726,12.017 4.691 C 11.644 4.547,11.110 4.590,10.767 4.791 C 10.551 4.917,10.292 5.173,10.190 5.360 C 10.007 5.696,10.000 5.779,10.000 7.474 L 10.000 9.034 9.825 8.892 C 9.584 8.695,3.223 4.770,3.017 4.690 C 2.791 4.603,2.342 4.584,2.101 4.651 " fill="#0F172A" stroke="none" fill-rule="evenodd"></path></svg>