<svg width="20" height="20" viewBox="0 0 20 20" fill="none" xmlns="http://www.w3.org/2000/svg"><path d="M8.300 1.036 C 7.450 1.067,6.688 1.118,5.783 1.202 C 4.466 1.324,2.730 1.561,2.478 1.653 C 2.299 1.718,2.082 1.953,2.033 2.133 C 2.008 2.229,2.000 2.704,2.007 3.661 C 2.019 5.006,2.021 5.057,2.096 5.283 C 2.273 5.822,2.204 5.744,4.980 8.533 C 7.758 11.324,7.704 11.264,7.893 11.817 L 7.983 12.083 8.000 15.267 C 8.019 18.822,8.000 18.572,8.260 18.807 C 8.503 19.026,8.877 19.057,9.146 18.879 C 9.444 18.682,11.261 17.199,11.425 17.020 C 11.633 16.791,11.800 16.501,11.904 16.183 C 11.980 15.954,11.981 15.918,12.000 14.017 L 12.019 12.083 12.108 11.817 C 12.294 11.265,12.241 11.326,15.020 8.533 C 17.796 5.744,17.727 5.822,17.904 5.283 C 17.979 5.057,17.981 5.006,17.993 3.661 C 18.000 2.704,17.992 2.229,17.967 2.133 C 17.918 1.953,17.701 1.718,17.522 1.653 C 17.369 1.597,16.852 1.514,15.867 1.385 C 13.398 1.064,10.790 0.943,8.300 1.036 " fill="#0F172A" stroke="none" fill-rule="evenodd"></path></svg>