<svg width="20" height="20" viewBox="0 0 20 20" fill="none" xmlns="http://www.w3.org/2000/svg"><path d="M2.783 3.053 C 2.654 3.080,2.409 3.171,2.233 3.258 C 1.789 3.478,1.471 3.795,1.254 4.235 C 0.985 4.781,1.001 4.406,1.001 10.000 C 1.001 15.594,0.985 15.219,1.254 15.765 C 1.472 16.207,1.793 16.528,2.235 16.746 C 2.788 17.019,2.176 16.999,10.000 16.999 C 17.824 16.999,17.212 17.019,17.765 16.746 C 18.017 16.622,18.132 16.539,18.335 16.335 C 18.539 16.132,18.622 16.017,18.746 15.765 C 19.015 15.219,18.999 15.594,18.999 10.000 C 18.999 4.420,19.014 4.778,18.753 4.250 C 18.514 3.766,18.168 3.436,17.656 3.199 C 17.201 2.989,17.625 3.000,9.976 3.003 C 4.075 3.005,2.981 3.013,2.783 3.053 M6.604 6.083 C 7.194 6.241,7.805 6.691,8.183 7.246 C 8.311 7.433,8.317 7.453,8.317 7.701 C 8.317 7.937,8.307 7.974,8.215 8.105 C 8.012 8.394,7.704 8.511,7.388 8.419 C 7.200 8.365,7.197 8.362,6.766 7.892 C 6.421 7.515,5.995 7.413,5.593 7.610 C 5.180 7.813,4.793 8.393,4.610 9.083 C 4.531 9.383,4.522 9.475,4.522 10.000 C 4.522 10.525,4.531 10.617,4.610 10.917 C 4.855 11.842,5.433 12.500,6.000 12.500 C 6.200 12.500,6.479 12.379,6.665 12.212 L 6.833 12.060 6.833 11.418 L 6.833 10.775 6.454 10.761 C 6.133 10.748,6.049 10.733,5.912 10.663 C 5.628 10.518,5.463 10.185,5.517 9.866 C 5.550 9.671,5.722 9.435,5.900 9.342 C 6.048 9.265,6.060 9.264,6.952 9.274 L 7.855 9.283 7.994 9.375 C 8.070 9.426,8.174 9.530,8.225 9.606 L 8.317 9.745 8.326 11.081 C 8.338 12.619,8.348 12.551,8.030 12.951 C 7.687 13.384,7.250 13.698,6.742 13.878 C 6.470 13.975,6.419 13.982,6.000 13.982 C 5.581 13.982,5.530 13.975,5.258 13.878 C 4.565 13.632,4.024 13.151,3.608 12.410 C 2.475 10.391,3.006 7.468,4.702 6.391 C 4.937 6.241,5.232 6.118,5.467 6.071 C 5.567 6.051,5.680 6.027,5.717 6.019 C 5.839 5.990,6.415 6.032,6.604 6.083 M10.979 6.041 C 11.160 6.094,11.406 6.340,11.459 6.521 C 11.518 6.720,11.518 13.282,11.459 13.479 C 11.374 13.762,11.050 14.000,10.750 14.000 C 10.452 14.000,10.112 13.751,10.036 13.477 C 9.986 13.298,9.987 6.700,10.036 6.521 C 10.081 6.360,10.350 6.083,10.505 6.038 C 10.663 5.993,10.820 5.994,10.979 6.041 M16.479 6.041 C 16.750 6.121,17.000 6.461,17.000 6.750 C 17.000 7.037,16.743 7.392,16.483 7.463 C 16.402 7.485,15.991 7.500,15.425 7.500 L 14.500 7.500 14.500 8.383 L 14.500 9.267 14.978 9.267 C 15.413 9.267,15.470 9.274,15.603 9.344 C 15.777 9.435,15.951 9.673,15.983 9.866 C 16.037 10.186,15.872 10.518,15.585 10.665 C 15.438 10.740,15.373 10.750,14.960 10.762 L 14.500 10.774 14.500 12.058 C 14.500 12.979,14.488 13.381,14.459 13.479 C 14.374 13.762,14.050 14.000,13.750 14.000 C 13.452 14.000,13.112 13.751,13.036 13.477 C 12.986 13.298,12.987 6.700,13.036 6.521 C 13.081 6.360,13.350 6.083,13.505 6.038 C 13.678 5.988,16.311 5.991,16.479 6.041 " fill="#0F172A" stroke="none" fill-rule="evenodd"></path></svg>