<svg width="20" height="20" viewBox="0 0 20 20" fill="none" xmlns="http://www.w3.org/2000/svg"><path d="M7.586 2.033 C 6.726 2.189,5.963 2.814,5.668 3.604 C 5.390 4.349,5.474 5.205,5.884 5.823 L 5.999 5.997 4.474 6.007 L 2.950 6.017 2.733 6.121 C 2.457 6.254,2.251 6.459,2.120 6.733 C 2.017 6.949,2.017 6.953,2.017 7.500 C 2.017 8.032,2.020 8.056,2.110 8.250 C 2.232 8.513,2.489 8.770,2.747 8.889 L 2.950 8.983 6.108 8.992 L 9.267 9.001 9.267 7.501 L 9.267 6.000 10.000 6.000 L 10.733 6.000 10.733 7.501 L 10.733 9.001 13.892 8.992 L 17.050 8.983 17.250 8.890 C 17.513 8.768,17.770 8.511,17.889 8.253 C 17.980 8.056,17.983 8.033,17.983 7.500 C 17.983 6.967,17.980 6.944,17.889 6.747 C 17.770 6.489,17.513 6.232,17.250 6.110 L 17.050 6.017 15.526 6.007 L 14.001 5.997 14.116 5.823 C 14.704 4.937,14.601 3.679,13.871 2.850 C 13.573 2.511,13.011 2.171,12.567 2.062 C 12.329 2.004,11.669 2.004,11.433 2.063 C 10.979 2.176,10.530 2.433,10.202 2.770 L 10.000 2.977 9.798 2.770 C 9.482 2.447,9.062 2.198,8.637 2.082 C 8.409 2.020,7.810 1.992,7.586 2.033 M8.448 3.614 C 8.654 3.715,8.812 3.879,8.913 4.098 C 8.975 4.232,8.985 4.324,8.994 4.875 L 9.005 5.500 8.421 5.500 C 7.917 5.500,7.811 5.491,7.657 5.433 C 7.059 5.209,6.823 4.498,7.166 3.956 C 7.432 3.537,7.987 3.389,8.448 3.614 M12.448 3.614 C 12.796 3.784,12.982 4.092,12.983 4.500 C 12.983 4.707,12.967 4.782,12.890 4.941 C 12.777 5.170,12.586 5.342,12.343 5.433 C 12.189 5.491,12.083 5.500,11.582 5.500 L 11.000 5.500 11.000 4.939 C 11.000 4.315,11.035 4.134,11.197 3.910 C 11.477 3.523,12.006 3.398,12.448 3.614 M3.000 12.975 C 3.000 14.501,3.014 15.533,3.035 15.667 C 3.220 16.844,4.156 17.780,5.333 17.965 C 5.462 17.986,6.298 18.000,7.392 18.000 L 9.233 18.000 9.233 14.250 L 9.233 10.500 6.117 10.500 L 3.000 10.500 3.000 12.975 M10.767 14.250 L 10.767 18.000 12.608 18.000 C 13.702 18.000,14.538 17.986,14.667 17.965 C 15.844 17.780,16.780 16.844,16.965 15.667 C 16.986 15.533,17.000 14.501,17.000 12.975 L 17.000 10.500 13.883 10.500 L 10.767 10.500 10.767 14.250 " fill="#0F172A" stroke="none" fill-rule="evenodd"></path></svg>