<svg width="20" height="20" viewBox="0 0 20 20" fill="none" xmlns="http://www.w3.org/2000/svg"><path d="M3.150 3.046 C 2.751 3.144,2.335 3.469,2.167 3.816 C 2.000 4.161,2.001 4.149,2.000 6.792 L 2.000 9.267 3.667 9.267 C 4.583 9.267,5.333 9.257,5.333 9.245 C 5.333 9.233,5.276 9.146,5.206 9.053 C 4.711 8.395,4.532 7.610,4.697 6.815 C 4.866 5.995,5.415 5.293,6.189 4.905 C 6.692 4.653,7.358 4.573,7.942 4.694 C 8.317 4.772,8.721 4.954,9.024 5.182 C 9.135 5.265,9.235 5.333,9.246 5.333 C 9.257 5.333,9.267 4.808,9.267 4.167 L 9.267 3.000 6.292 3.003 C 4.074 3.005,3.274 3.016,3.150 3.046 M10.733 4.167 C 10.733 4.808,10.743 5.333,10.754 5.333 C 10.765 5.333,10.865 5.265,10.976 5.182 C 11.780 4.577,12.933 4.465,13.811 4.905 C 15.387 5.695,15.850 7.648,14.794 9.053 C 14.724 9.146,14.667 9.233,14.667 9.245 C 14.667 9.257,15.417 9.267,16.333 9.267 L 18.000 9.267 18.000 6.792 C 17.999 4.149,18.000 4.161,17.833 3.816 C 17.659 3.457,17.220 3.124,16.807 3.037 C 16.685 3.012,15.713 3.000,13.682 3.000 L 10.733 3.000 10.733 4.167 M7.083 6.163 C 6.126 6.421,5.812 7.597,6.521 8.268 C 6.912 8.637,7.716 8.859,8.550 8.827 L 8.817 8.817 8.827 8.533 C 8.839 8.192,8.785 7.681,8.700 7.351 C 8.509 6.602,8.054 6.168,7.436 6.146 C 7.297 6.140,7.138 6.148,7.083 6.163 M12.283 6.178 C 11.771 6.349,11.461 6.720,11.297 7.363 C 11.212 7.694,11.160 8.179,11.173 8.533 L 11.183 8.817 11.450 8.827 C 12.284 8.859,13.088 8.637,13.479 8.268 C 14.128 7.654,13.932 6.594,13.100 6.226 C 12.909 6.142,12.470 6.116,12.283 6.178 M2.000 13.225 C 2.001 15.855,2.000 15.837,2.170 16.191 C 2.268 16.395,2.605 16.732,2.809 16.830 C 3.167 17.002,3.104 16.999,6.292 17.000 L 9.267 17.000 9.267 14.583 C 9.267 13.254,9.254 12.167,9.240 12.167 C 9.225 12.167,9.187 12.220,9.156 12.284 C 8.971 12.673,8.501 13.251,8.080 13.610 C 7.320 14.257,6.370 14.649,5.364 14.731 C 4.855 14.772,4.661 14.725,4.462 14.511 C 4.319 14.357,4.267 14.220,4.267 14.000 C 4.267 13.763,4.341 13.592,4.508 13.445 C 4.668 13.305,4.766 13.276,5.217 13.236 C 6.052 13.162,6.659 12.892,7.238 12.340 C 7.642 11.956,7.948 11.467,8.100 10.967 L 8.161 10.767 5.080 10.767 L 2.000 10.767 2.000 13.225 M11.887 10.942 C 11.966 11.214,12.211 11.695,12.392 11.933 C 12.483 12.053,12.660 12.248,12.787 12.367 C 13.348 12.895,13.964 13.163,14.783 13.236 C 15.234 13.276,15.332 13.305,15.492 13.445 C 15.659 13.592,15.733 13.763,15.733 14.000 C 15.733 14.220,15.681 14.357,15.538 14.511 C 15.339 14.725,15.145 14.772,14.636 14.731 C 13.630 14.649,12.680 14.257,11.920 13.610 C 11.499 13.251,11.029 12.673,10.844 12.284 C 10.813 12.220,10.775 12.167,10.760 12.167 C 10.746 12.167,10.733 13.254,10.733 14.583 L 10.733 17.000 13.708 17.000 C 16.896 16.999,16.833 17.002,17.191 16.830 C 17.395 16.732,17.732 16.395,17.830 16.191 C 18.000 15.837,17.999 15.855,18.000 13.225 L 18.000 10.767 14.918 10.767 L 11.837 10.767 11.887 10.942 " fill="#0F172A" stroke="none" fill-rule="evenodd"></path></svg>