<svg width="20" height="20" viewBox="0 0 20 20" fill="none" xmlns="http://www.w3.org/2000/svg"><path d="M9.433 2.019 C 9.369 2.027,9.177 2.049,9.007 2.069 C 7.090 2.292,5.164 3.324,3.941 4.782 C 2.913 6.007,2.318 7.311,2.078 8.867 C 1.995 9.402,1.995 10.598,2.078 11.133 C 2.628 14.691,5.309 17.372,8.867 17.922 C 9.402 18.005,10.598 18.005,11.133 17.922 C 12.644 17.689,14.032 17.061,15.183 16.090 C 16.447 15.024,17.377 13.512,17.778 11.866 C 17.938 11.208,17.982 10.810,17.982 10.000 C 17.982 9.447,17.966 9.149,17.922 8.867 C 17.533 6.348,16.075 4.235,13.882 3.012 C 13.033 2.539,12.144 2.239,11.133 2.084 C 10.800 2.033,9.680 1.991,9.433 2.019 M14.474 5.297 C 15.512 6.281,16.200 7.591,16.418 9.000 C 16.930 12.316,14.837 15.478,11.583 16.301 C 8.587 17.059,5.450 15.575,4.126 12.774 C 3.290 11.004,3.303 8.916,4.164 7.152 C 4.460 6.545,4.937 5.865,5.347 5.468 L 5.500 5.319 5.500 5.689 C 5.500 6.475,5.718 7.175,6.158 7.799 C 6.243 7.919,6.754 8.462,7.294 9.007 L 8.277 9.997 8.077 10.211 C 7.798 10.509,7.718 10.685,7.718 11.000 C 7.718 11.393,7.773 11.476,8.550 12.267 C 8.919 12.642,9.253 13.002,9.291 13.067 C 9.427 13.296,9.474 13.505,9.498 13.983 C 9.525 14.526,9.576 14.679,9.803 14.899 C 9.881 14.975,10.074 15.100,10.231 15.177 C 10.489 15.303,10.541 15.317,10.767 15.317 C 10.973 15.317,11.050 15.300,11.205 15.224 C 11.309 15.173,11.447 15.073,11.512 15.001 C 11.634 14.866,13.033 12.117,13.192 11.700 C 13.362 11.254,13.281 10.705,12.985 10.308 C 12.756 10.000,11.974 9.258,11.783 9.167 C 11.548 9.055,11.206 9.059,10.869 9.179 C 10.350 9.363,10.217 9.300,9.934 8.735 C 9.767 8.401,9.733 8.306,9.733 8.163 C 9.733 8.009,9.746 7.979,9.863 7.863 C 9.978 7.747,10.010 7.733,10.158 7.733 C 10.279 7.733,10.395 7.766,10.587 7.856 C 10.815 7.962,10.890 7.981,11.150 7.993 C 11.401 8.004,11.482 7.994,11.646 7.932 C 12.172 7.734,12.411 7.211,12.238 6.640 C 12.153 6.363,12.149 6.232,12.218 6.098 C 12.246 6.044,12.608 5.708,13.023 5.352 L 13.778 4.704 13.978 4.861 C 14.088 4.946,14.311 5.143,14.474 5.297 " fill="#0F172A" stroke="none" fill-rule="evenodd"></path></svg>