<svg width="20" height="20" viewBox="0 0 20 20" fill="none" xmlns="http://www.w3.org/2000/svg"><path d="M9.433 2.019 C 9.369 2.027,9.177 2.049,9.007 2.069 C 7.090 2.292,5.164 3.324,3.941 4.782 C 2.913 6.007,2.318 7.311,2.078 8.867 C 1.995 9.402,1.995 10.598,2.078 11.133 C 2.628 14.691,5.309 17.372,8.867 17.922 C 9.402 18.005,10.598 18.005,11.133 17.922 C 12.644 17.689,14.032 17.061,15.183 16.090 C 16.447 15.024,17.377 13.512,17.778 11.866 C 17.938 11.208,17.982 10.810,17.982 10.000 C 17.982 9.447,17.966 9.149,17.922 8.867 C 17.533 6.348,16.075 4.235,13.882 3.012 C 13.033 2.539,12.144 2.239,11.133 2.084 C 10.800 2.033,9.680 1.991,9.433 2.019 M11.317 3.638 C 12.472 3.866,13.601 4.462,14.491 5.312 C 16.120 6.869,16.818 9.144,16.349 11.366 C 16.248 11.841,15.946 12.733,15.885 12.733 C 15.878 12.733,15.797 12.696,15.705 12.649 C 15.613 12.603,15.469 12.553,15.385 12.537 C 15.252 12.512,15.187 12.464,14.855 12.142 C 14.340 11.644,14.037 11.500,13.500 11.500 C 12.945 11.500,12.665 11.638,12.084 12.201 L 11.645 12.627 10.774 13.063 C 10.175 13.362,9.866 13.537,9.781 13.621 C 9.595 13.807,9.523 13.999,9.507 14.350 C 9.490 14.738,9.570 14.974,9.798 15.202 C 10.029 15.433,10.238 15.500,10.722 15.500 C 11.053 15.500,11.125 15.510,11.233 15.571 C 11.416 15.673,11.500 15.844,11.500 16.111 L 11.500 16.329 11.325 16.363 C 10.871 16.452,10.716 16.470,10.250 16.489 C 8.729 16.549,7.242 16.075,6.017 15.138 C 5.784 14.960,5.236 14.439,5.095 14.260 L 4.998 14.137 5.262 13.610 C 5.407 13.320,5.557 13.055,5.596 13.020 C 5.637 12.983,5.733 12.951,5.825 12.943 C 5.970 12.930,6.006 12.943,6.250 13.099 C 6.609 13.328,6.818 13.388,7.093 13.341 C 7.470 13.277,7.778 13.006,7.888 12.640 C 7.959 12.404,7.943 12.264,7.794 11.801 C 7.676 11.436,7.661 11.356,7.693 11.286 C 7.722 11.221,7.970 11.082,8.799 10.667 C 9.386 10.372,9.920 10.084,9.986 10.027 C 10.185 9.852,10.282 9.626,10.282 9.333 C 10.283 9.122,10.268 9.053,10.186 8.892 C 10.079 8.680,10.067 8.514,10.151 8.387 C 10.210 8.296,10.293 8.259,10.600 8.185 C 10.719 8.157,10.959 8.063,11.133 7.978 C 11.718 7.691,12.164 7.147,12.368 6.472 C 12.454 6.185,12.441 5.943,12.327 5.700 C 12.278 5.596,11.995 5.287,11.413 4.700 C 10.614 3.894,10.500 3.756,10.500 3.594 C 10.500 3.528,10.512 3.526,10.742 3.548 C 10.875 3.561,11.133 3.602,11.317 3.638 " fill="#0F172A" stroke="none" fill-rule="evenodd"></path></svg>