<svg width="20" height="20" viewBox="0 0 20 20" fill="none" xmlns="http://www.w3.org/2000/svg"><path d="M9.433 2.019 C 9.369 2.027,9.177 2.049,9.007 2.069 C 7.090 2.292,5.164 3.324,3.941 4.782 C 2.913 6.007,2.318 7.311,2.078 8.867 C 1.995 9.402,1.995 10.598,2.078 11.133 C 2.628 14.691,5.309 17.372,8.867 17.922 C 9.402 18.005,10.598 18.005,11.133 17.922 C 12.644 17.689,14.032 17.061,15.183 16.090 C 16.447 15.024,17.377 13.512,17.778 11.866 C 17.938 11.208,17.982 10.810,17.982 10.000 C 17.982 9.447,17.966 9.149,17.922 8.867 C 17.533 6.348,16.075 4.235,13.882 3.012 C 13.033 2.539,12.144 2.239,11.133 2.084 C 10.800 2.033,9.680 1.991,9.433 2.019 M7.385 4.820 C 7.012 5.474,6.819 5.847,6.784 5.982 C 6.572 6.808,7.103 7.614,7.965 7.774 C 8.239 7.825,8.556 7.771,8.891 7.616 C 9.295 7.430,9.618 7.471,9.791 7.730 C 9.934 7.944,9.851 8.338,9.641 8.445 C 9.580 8.476,9.381 8.497,9.033 8.508 C 8.586 8.522,8.481 8.536,8.250 8.614 C 7.561 8.847,6.995 9.415,6.766 10.100 C 6.667 10.396,6.645 10.845,6.713 11.164 C 6.851 11.815,7.297 12.369,7.900 12.641 C 8.231 12.790,8.275 12.818,8.383 12.950 L 8.483 13.073 8.500 13.845 C 8.516 14.594,8.519 14.622,8.606 14.807 C 8.965 15.573,9.958 15.730,10.537 15.112 C 10.681 14.958,12.225 13.024,12.311 12.889 C 12.415 12.727,12.470 12.527,12.502 12.204 C 12.538 11.838,12.623 11.626,12.831 11.386 C 13.128 11.043,13.246 10.758,13.246 10.383 C 13.246 10.051,13.169 9.859,12.827 9.342 C 12.662 9.093,12.520 8.842,12.510 8.783 C 12.477 8.579,12.665 8.367,12.878 8.367 C 12.923 8.367,13.040 8.422,13.138 8.489 C 13.236 8.556,13.389 8.661,13.477 8.721 C 13.773 8.925,14.109 8.957,14.480 8.817 C 14.915 8.653,14.955 8.674,15.809 9.526 L 16.501 10.217 16.482 10.417 C 16.416 11.123,16.311 11.643,16.132 12.150 C 15.494 13.958,14.065 15.419,12.283 16.084 C 9.363 17.174,6.116 16.057,4.460 13.393 C 3.475 11.808,3.237 9.753,3.832 7.965 C 4.363 6.367,5.458 5.067,6.947 4.264 C 7.203 4.126,7.904 3.826,7.924 3.846 C 7.930 3.852,7.687 4.290,7.385 4.820 " fill="#0F172A" stroke="none" fill-rule="evenodd"></path></svg>