<svg width="20" height="20" viewBox="0 0 20 20" fill="none" xmlns="http://www.w3.org/2000/svg"><path d="M9.383 2.021 C 9.081 2.045,9.087 2.040,8.754 2.542 C 7.751 4.054,7.041 5.798,6.734 7.506 L 6.676 7.828 6.995 7.950 C 8.359 8.472,9.999 8.626,11.467 8.369 C 12.256 8.230,13.336 7.882,13.314 7.772 C 13.308 7.742,13.271 7.552,13.233 7.350 C 12.976 6.022,12.472 4.649,11.802 3.450 C 11.488 2.888,10.954 2.082,10.877 2.052 C 10.807 2.025,9.631 2.000,9.383 2.021 M6.426 2.848 C 5.641 3.244,4.959 3.736,4.348 4.348 C 3.995 4.700,3.467 5.339,3.467 5.413 C 3.467 5.477,4.088 6.122,4.443 6.427 C 4.612 6.573,4.870 6.777,5.017 6.882 L 5.283 7.073 5.311 6.945 C 5.600 5.612,5.994 4.484,6.582 3.308 C 6.768 2.937,6.904 2.633,6.885 2.634 C 6.866 2.634,6.659 2.730,6.426 2.848 M13.400 3.275 C 13.975 4.419,14.401 5.617,14.651 6.792 C 14.683 6.943,14.717 7.067,14.725 7.067 C 14.733 7.067,14.915 6.936,15.129 6.777 C 15.357 6.606,15.733 6.270,16.044 5.960 L 16.570 5.433 16.460 5.278 C 16.400 5.194,16.211 4.962,16.042 4.764 C 15.372 3.983,14.523 3.325,13.577 2.851 C 13.337 2.731,13.127 2.633,13.109 2.633 C 13.091 2.633,13.222 2.922,13.400 3.275 M2.623 6.906 C 2.385 7.477,2.180 8.221,2.080 8.883 C 2.017 9.298,1.991 10.650,2.042 10.839 C 2.085 10.996,3.175 11.688,4.067 12.124 C 4.418 12.296,5.208 12.637,5.221 12.623 C 5.225 12.619,5.206 12.482,5.179 12.318 C 5.034 11.413,4.961 9.903,5.023 9.073 L 5.052 8.697 4.723 8.494 C 4.543 8.382,4.220 8.160,4.006 8.000 C 3.618 7.709,2.872 7.052,2.739 6.884 L 2.670 6.795 2.623 6.906 M17.257 6.886 C 17.145 7.037,16.384 7.708,15.994 8.000 C 15.780 8.160,15.457 8.382,15.277 8.494 L 14.948 8.697 14.977 9.073 C 15.039 9.896,14.965 11.419,14.821 12.318 C 14.794 12.482,14.775 12.619,14.779 12.623 C 14.792 12.637,15.582 12.296,15.933 12.124 C 16.825 11.688,17.915 10.996,17.958 10.839 C 17.971 10.790,17.982 10.420,17.981 10.017 C 17.981 9.187,17.932 8.773,17.748 8.038 C 17.648 7.637,17.393 6.885,17.338 6.828 C 17.326 6.815,17.290 6.842,17.257 6.886 M6.511 10.208 C 6.533 11.047,6.586 11.632,6.702 12.314 C 6.775 12.740,6.853 13.097,6.878 13.122 C 6.928 13.173,8.061 13.369,8.700 13.439 C 9.195 13.492,10.805 13.492,11.300 13.439 C 11.944 13.369,13.072 13.173,13.123 13.121 C 13.170 13.075,13.350 12.059,13.417 11.467 C 13.485 10.862,13.524 9.452,13.473 9.420 C 13.452 9.408,13.249 9.457,13.021 9.529 C 11.245 10.097,9.331 10.150,7.517 9.682 C 7.278 9.621,6.972 9.532,6.836 9.485 C 6.700 9.438,6.566 9.400,6.539 9.400 C 6.496 9.400,6.492 9.507,6.511 10.208 M2.633 13.093 C 2.633 13.144,2.786 13.464,2.989 13.839 C 3.652 15.065,4.714 16.169,5.900 16.867 C 6.141 17.009,6.852 17.367,6.893 17.367 C 6.911 17.367,6.844 17.213,6.745 17.025 C 6.356 16.287,6.096 15.686,5.814 14.873 L 5.637 14.363 5.127 14.187 C 4.339 13.915,3.200 13.409,2.742 13.128 C 2.682 13.091,2.633 13.076,2.633 13.093 M17.017 13.257 C 16.344 13.618,15.513 13.975,14.739 14.234 L 14.361 14.361 14.234 14.739 C 13.975 15.513,13.618 16.344,13.257 17.017 C 13.158 17.200,13.089 17.355,13.104 17.360 C 13.156 17.382,14.077 16.888,14.446 16.640 C 15.362 16.025,16.041 15.345,16.652 14.430 C 16.892 14.072,17.381 13.155,17.360 13.104 C 17.355 13.089,17.200 13.158,17.017 13.257 M7.436 14.941 C 7.777 15.814,8.263 16.735,8.808 17.542 C 9.001 17.827,9.097 17.940,9.161 17.958 C 9.277 17.990,10.723 17.990,10.839 17.958 C 10.996 17.915,11.688 16.824,12.124 15.933 C 12.296 15.582,12.637 14.792,12.623 14.779 C 12.619 14.775,12.489 14.794,12.333 14.819 C 11.540 14.948,11.082 14.980,10.017 14.981 C 9.359 14.981,8.803 14.965,8.567 14.939 C 8.181 14.896,7.581 14.812,7.442 14.782 L 7.367 14.766 7.436 14.941 " fill="#0F172A" stroke="none" fill-rule="evenodd"></path></svg>