<svg width="20" height="20" viewBox="0 0 20 20" fill="none" xmlns="http://www.w3.org/2000/svg"><path d="M4.551 3.036 C 3.816 3.147,3.113 3.560,2.718 4.113 C 2.488 4.436,2.357 4.732,2.104 5.507 C 1.628 6.964,1.295 8.445,1.099 9.983 C 0.961 11.067,0.979 11.339,1.221 11.833 C 1.401 12.200,1.786 12.578,2.167 12.760 C 2.638 12.986,2.769 13.000,4.370 13.000 C 5.340 13.000,5.816 13.012,5.905 13.039 C 6.088 13.093,6.296 13.284,6.388 13.481 C 6.507 13.737,6.493 13.926,6.315 14.478 C 6.153 14.981,6.026 15.555,5.964 16.067 C 5.908 16.521,5.907 17.245,5.962 17.467 C 6.142 18.198,6.763 18.799,7.500 18.954 C 7.949 19.048,8.529 18.963,8.708 18.776 C 8.887 18.589,8.900 18.508,8.900 17.603 C 8.900 16.735,8.926 16.428,9.038 15.984 C 9.202 15.335,9.446 15.074,10.131 14.812 C 11.112 14.438,11.747 13.943,12.283 13.133 C 12.680 12.534,13.082 12.195,13.564 12.053 C 13.699 12.014,13.892 12.000,14.323 12.000 L 14.900 12.000 14.900 8.503 L 14.900 5.006 14.008 4.992 C 13.222 4.980,13.085 4.969,12.850 4.905 C 12.664 4.854,12.072 4.579,10.900 3.999 C 9.731 3.420,9.135 3.143,8.950 3.093 C 8.691 3.022,8.626 3.019,6.717 3.013 C 5.635 3.009,4.661 3.020,4.551 3.036 M17.331 4.043 C 16.973 4.145,16.632 4.450,16.493 4.793 L 16.417 4.983 16.417 9.000 L 16.417 13.017 16.494 13.208 C 16.601 13.472,16.853 13.739,17.119 13.870 C 17.784 14.197,18.586 13.861,18.836 13.150 C 18.899 12.970,18.901 12.857,18.892 8.941 L 18.883 4.917 18.790 4.726 C 18.585 4.310,18.184 4.041,17.726 4.014 C 17.584 4.006,17.421 4.018,17.331 4.043 " fill="#0F172A" stroke="none" fill-rule="evenodd"></path></svg>