<svg width="20" height="20" viewBox="0 0 20 20" fill="none" xmlns="http://www.w3.org/2000/svg"><path d="M9.678 1.060 C 9.367 1.171,9.163 1.377,9.051 1.696 C 9.006 1.823,9.000 2.265,9.000 5.226 L 9.000 8.611 8.918 8.751 C 8.724 9.082,8.276 9.082,8.082 8.751 L 8.000 8.611 8.000 5.723 C 8.000 2.914,7.998 2.831,7.933 2.657 C 7.896 2.559,7.813 2.416,7.749 2.341 C 7.471 2.017,6.954 1.917,6.559 2.110 C 6.330 2.223,6.158 2.414,6.067 2.657 C 6.002 2.831,6.000 2.914,6.000 5.723 L 6.000 8.611 5.918 8.751 C 5.724 9.082,5.276 9.082,5.082 8.751 L 5.000 8.611 5.000 6.723 C 5.000 4.915,4.997 4.828,4.933 4.657 C 4.896 4.559,4.813 4.416,4.749 4.341 C 4.471 4.017,3.954 3.917,3.559 4.110 C 3.330 4.223,3.158 4.414,3.067 4.657 C 3.001 4.832,3.000 4.912,3.000 8.603 C 3.000 11.003,3.013 12.487,3.035 12.693 C 3.175 13.988,3.630 15.160,4.393 16.189 C 4.674 16.567,5.433 17.326,5.811 17.607 C 8.312 19.461,11.688 19.461,14.189 17.607 C 14.567 17.326,15.326 16.567,15.607 16.189 C 16.197 15.393,16.629 14.451,16.833 13.517 C 16.985 12.818,16.998 12.554,16.999 10.126 C 17.000 7.913,16.998 7.830,16.933 7.657 C 16.896 7.559,16.813 7.416,16.749 7.341 C 16.471 7.017,15.954 6.917,15.559 7.110 C 15.330 7.223,15.158 7.414,15.067 7.657 C 15.003 7.828,15.000 7.915,15.000 9.723 L 15.000 11.611 14.918 11.751 C 14.724 12.082,14.276 12.082,14.082 11.751 L 14.000 11.611 14.000 7.223 C 14.000 2.912,13.999 2.833,13.933 2.657 C 13.842 2.414,13.670 2.223,13.441 2.110 C 13.283 2.033,13.207 2.017,13.000 2.017 C 12.793 2.017,12.717 2.033,12.559 2.110 C 12.330 2.223,12.158 2.414,12.067 2.657 C 12.002 2.831,12.000 2.914,12.000 5.723 L 12.000 8.611 11.918 8.751 C 11.724 9.082,11.276 9.082,11.082 8.751 L 11.000 8.611 11.000 5.223 C 11.000 1.913,10.998 1.832,10.933 1.657 C 10.745 1.153,10.175 0.882,9.678 1.060 " fill="#0F172A" stroke="none" fill-rule="evenodd"></path></svg>