<svg width="20" height="20" viewBox="0 0 20 20" fill="none" xmlns="http://www.w3.org/2000/svg"><path d="M11.700 1.023 C 11.311 1.088,11.107 1.231,11.035 1.491 C 11.015 1.563,11.000 1.977,11.000 2.467 C 11.000 3.389,10.964 3.728,10.818 4.191 C 10.646 4.735,10.388 4.968,9.667 5.231 C 8.807 5.545,8.152 6.073,7.594 6.903 C 7.303 7.335,7.072 7.576,6.783 7.749 C 6.432 7.960,6.239 8.000,5.580 8.000 L 5.000 8.000 5.000 11.497 L 5.000 14.994 5.892 15.008 C 6.673 15.020,6.816 15.031,7.050 15.094 C 7.238 15.144,7.811 15.410,9.000 15.999 C 10.261 16.623,10.754 16.852,10.967 16.908 C 11.246 16.982,11.276 16.983,13.317 16.983 C 15.357 16.982,15.387 16.981,15.650 16.907 C 16.448 16.683,17.099 16.163,17.430 15.486 C 17.696 14.942,18.167 13.393,18.429 12.197 C 18.656 11.163,18.849 9.899,18.889 9.183 C 18.936 8.336,18.505 7.620,17.717 7.233 C 17.273 7.015,17.130 7.000,15.510 7.000 L 14.083 6.999 13.914 6.921 C 13.623 6.785,13.433 6.475,13.433 6.135 C 13.433 6.046,13.484 5.834,13.552 5.632 C 13.902 4.607,14.086 3.221,13.954 2.600 C 13.791 1.831,13.174 1.209,12.417 1.050 C 12.196 1.004,11.885 0.992,11.700 1.023 M1.958 7.034 C 1.601 7.124,1.285 7.388,1.120 7.733 L 1.017 7.950 1.017 12.000 L 1.017 16.050 1.120 16.267 C 1.251 16.542,1.458 16.749,1.733 16.880 C 1.926 16.972,1.984 16.983,2.250 16.983 C 2.509 16.983,2.578 16.970,2.753 16.889 C 3.011 16.770,3.268 16.513,3.390 16.250 L 3.483 16.050 3.483 12.000 L 3.483 7.950 3.389 7.747 C 3.271 7.490,3.012 7.231,2.758 7.116 C 2.544 7.018,2.172 6.980,1.958 7.034 " fill="#0F172A" stroke="none" fill-rule="evenodd"></path></svg>