<svg width="20" height="20" viewBox="0 0 20 20" fill="none" xmlns="http://www.w3.org/2000/svg"><path d="M8.500 2.044 C 8.337 2.095,8.079 2.361,8.037 2.521 C 8.019 2.592,7.905 3.370,7.785 4.250 C 7.665 5.130,7.559 5.883,7.549 5.924 L 7.533 5.998 5.758 6.007 L 3.983 6.017 3.824 6.110 C 3.542 6.276,3.395 6.602,3.467 6.903 C 3.524 7.137,3.671 7.323,3.877 7.419 L 4.050 7.499 5.693 7.500 L 7.336 7.500 7.314 7.658 C 7.302 7.745,7.148 8.867,6.971 10.150 L 6.649 12.483 4.866 12.500 L 3.083 12.517 2.924 12.610 C 2.411 12.912,2.437 13.646,2.970 13.912 L 3.146 14.000 4.790 14.000 C 5.694 14.000,6.433 14.011,6.433 14.025 C 6.433 14.039,6.336 14.755,6.216 15.616 C 6.097 16.477,6.000 17.219,6.000 17.266 C 6.001 17.649,6.360 18.000,6.750 18.000 C 7.049 18.000,7.392 17.749,7.463 17.477 C 7.482 17.407,7.595 16.630,7.715 15.750 C 7.835 14.870,7.941 14.116,7.951 14.075 L 7.968 14.000 9.451 14.000 C 10.266 14.000,10.933 14.011,10.933 14.025 C 10.933 14.039,10.836 14.755,10.716 15.616 C 10.597 16.477,10.500 17.219,10.500 17.266 C 10.501 17.649,10.860 18.000,11.250 18.000 C 11.549 18.000,11.892 17.749,11.963 17.477 C 11.982 17.407,12.095 16.630,12.215 15.750 C 12.335 14.870,12.441 14.116,12.451 14.075 L 12.468 14.000 14.209 14.000 L 15.950 13.999 16.123 13.919 C 16.329 13.823,16.476 13.637,16.533 13.403 C 16.605 13.102,16.458 12.776,16.176 12.610 L 16.017 12.517 14.341 12.507 L 12.665 12.498 12.686 12.340 C 12.698 12.254,12.852 11.133,13.029 9.850 L 13.351 7.517 15.134 7.500 L 16.917 7.483 17.076 7.390 C 17.564 7.103,17.564 6.397,17.076 6.110 L 16.917 6.017 15.242 6.007 C 14.320 6.002,13.567 5.987,13.567 5.974 C 13.567 5.961,13.664 5.245,13.784 4.384 C 13.903 3.523,14.000 2.781,14.000 2.734 C 13.999 2.359,13.632 2.000,13.250 2.000 C 12.962 2.000,12.606 2.261,12.537 2.521 C 12.519 2.592,12.405 3.370,12.285 4.250 C 12.165 5.130,12.059 5.884,12.049 5.925 L 12.032 6.000 10.549 6.000 C 9.734 6.000,9.067 5.989,9.067 5.975 C 9.067 5.961,9.164 5.245,9.284 4.384 C 9.403 3.523,9.500 2.781,9.500 2.734 C 9.499 2.545,9.425 2.381,9.271 2.233 C 9.049 2.016,8.788 1.953,8.500 2.044 M11.814 7.658 C 11.802 7.745,11.648 8.867,11.471 10.150 L 11.149 12.483 9.654 12.492 L 8.159 12.501 8.178 12.392 C 8.189 12.332,8.341 11.226,8.517 9.933 C 8.694 8.641,8.844 7.565,8.851 7.542 C 8.862 7.509,9.191 7.500,10.350 7.500 L 11.836 7.500 11.814 7.658 " fill="#0F172A" stroke="none" fill-rule="evenodd"></path></svg>