<svg width="20" height="20" viewBox="0 0 20 20" fill="none" xmlns="http://www.w3.org/2000/svg"><path d="M5.954 3.035 C 5.015 3.144,4.115 3.573,3.407 4.248 C 2.537 5.079,2.064 6.113,2.011 7.300 C 1.890 10.045,3.788 12.923,7.435 15.526 C 8.072 15.980,9.026 16.582,9.488 16.821 C 9.956 17.063,10.044 17.063,10.512 16.821 C 10.974 16.582,11.928 15.980,12.565 15.526 C 16.210 12.924,18.114 10.037,17.988 7.300 C 17.933 6.107,17.463 5.079,16.593 4.248 C 14.803 2.541,12.009 2.597,10.277 4.374 L 10.004 4.655 9.660 4.315 C 8.672 3.338,7.332 2.875,5.954 3.035 " fill="#0F172A" stroke="none" fill-rule="evenodd"></path></svg>