<svg width="20" height="20" viewBox="0 0 20 20" fill="none" xmlns="http://www.w3.org/2000/svg"><path d="M9.711 2.046 C 9.634 2.071,9.522 2.123,9.461 2.161 C 9.400 2.199,7.728 3.855,5.745 5.840 C 2.258 9.332,2.138 9.457,2.067 9.650 C 1.885 10.143,2.115 10.689,2.598 10.913 C 2.732 10.975,2.824 10.985,3.375 10.994 L 4.000 11.005 4.000 14.085 C 4.000 17.151,4.000 17.165,4.071 17.355 C 4.166 17.609,4.391 17.834,4.645 17.929 C 4.827 17.997,4.892 18.000,6.000 18.000 C 7.084 18.000,7.176 17.995,7.343 17.933 C 7.586 17.842,7.777 17.670,7.890 17.441 L 7.983 17.250 8.000 15.500 L 8.017 13.750 8.110 13.561 C 8.215 13.346,8.377 13.189,8.598 13.087 C 8.744 13.019,8.799 13.017,10.000 13.017 C 11.201 13.017,11.256 13.019,11.402 13.087 C 11.623 13.189,11.785 13.346,11.890 13.561 L 11.983 13.750 12.000 15.500 L 12.017 17.250 12.110 17.441 C 12.223 17.670,12.414 17.842,12.657 17.933 C 12.824 17.995,12.916 18.000,14.000 18.000 C 15.108 18.000,15.173 17.997,15.355 17.929 C 15.609 17.834,15.834 17.609,15.929 17.355 C 16.000 17.165,16.000 17.151,16.000 14.085 L 16.000 11.005 16.625 10.994 C 17.176 10.985,17.268 10.975,17.402 10.913 C 17.885 10.689,18.115 10.143,17.933 9.650 C 17.862 9.456,17.742 9.332,14.238 5.824 C 11.283 2.865,10.584 2.182,10.442 2.112 C 10.231 2.008,9.914 1.979,9.711 2.046 " fill="#0F172A" stroke="none" fill-rule="evenodd"></path></svg>