<svg width="20" height="20" viewBox="0 0 20 20" fill="none" xmlns="http://www.w3.org/2000/svg"><path d="M3.550 3.037 C 2.832 3.141,2.115 3.553,1.665 4.118 C 1.444 4.397,1.225 4.817,1.110 5.183 L 1.017 5.483 1.017 10.000 L 1.017 14.517 1.110 14.815 C 1.368 15.640,1.892 16.279,2.619 16.657 C 2.766 16.734,3.021 16.838,3.185 16.890 L 3.483 16.983 10.000 16.983 L 16.517 16.983 16.815 16.890 C 17.844 16.568,18.568 15.844,18.890 14.815 L 18.983 14.517 18.983 10.000 L 18.983 5.483 18.890 5.183 C 18.562 4.135,17.799 3.389,16.750 3.092 L 16.483 3.017 10.117 3.012 C 6.615 3.010,3.660 3.021,3.550 3.037 M7.417 5.550 C 8.167 5.708,8.792 6.333,8.950 7.083 C 9.092 7.763,8.898 8.410,8.403 8.901 C 8.112 9.190,7.855 9.338,7.480 9.434 C 7.010 9.554,6.498 9.492,6.056 9.260 C 5.752 9.101,5.374 8.712,5.222 8.400 C 4.830 7.600,4.973 6.721,5.597 6.097 C 6.092 5.602,6.738 5.408,7.417 5.550 M15.479 6.041 C 15.750 6.121,16.000 6.461,16.000 6.750 C 16.000 7.037,15.743 7.392,15.483 7.463 C 15.301 7.513,12.699 7.513,12.517 7.463 C 12.430 7.440,12.328 7.370,12.227 7.266 C 12.013 7.045,11.954 6.816,12.036 6.521 C 12.081 6.360,12.350 6.083,12.505 6.038 C 12.678 5.988,15.311 5.991,15.479 6.041 M15.603 9.344 C 15.777 9.435,15.951 9.673,15.983 9.866 C 16.037 10.187,15.872 10.518,15.584 10.665 L 15.418 10.750 14.000 10.750 L 12.582 10.750 12.416 10.665 C 12.128 10.518,11.963 10.187,12.017 9.866 C 12.049 9.673,12.223 9.435,12.397 9.344 C 12.544 9.267,12.544 9.267,14.000 9.267 C 15.456 9.267,15.456 9.267,15.603 9.344 M7.795 10.581 C 8.585 10.751,9.245 11.109,9.820 11.681 C 10.235 12.095,10.596 12.648,10.699 13.028 C 10.783 13.342,10.608 13.711,10.302 13.864 C 9.949 14.042,8.930 14.314,8.217 14.421 C 7.660 14.505,6.350 14.505,5.783 14.422 C 5.003 14.307,3.894 13.996,3.612 13.813 C 3.356 13.647,3.224 13.315,3.301 13.029 C 3.451 12.471,4.122 11.619,4.733 11.210 C 5.223 10.882,5.782 10.651,6.283 10.571 C 6.412 10.550,6.554 10.527,6.600 10.519 C 6.771 10.489,7.559 10.531,7.795 10.581 M15.479 12.541 C 15.750 12.621,16.000 12.961,16.000 13.250 C 16.000 13.537,15.743 13.892,15.483 13.963 C 15.301 14.013,12.699 14.013,12.517 13.963 C 12.430 13.940,12.328 13.870,12.227 13.766 C 12.013 13.545,11.954 13.316,12.036 13.021 C 12.081 12.860,12.350 12.583,12.505 12.538 C 12.678 12.488,15.311 12.491,15.479 12.541 " fill="#0F172A" stroke="none" fill-rule="evenodd"></path></svg>