<svg width="20" height="20" viewBox="0 0 20 20" fill="none" xmlns="http://www.w3.org/2000/svg"><path d="M4.593 2.036 C 3.852 2.146,3.121 2.621,2.710 3.259 C 2.559 3.494,1.230 6.324,1.141 6.600 C 1.003 7.029,0.993 7.142,1.008 8.200 C 1.022 9.282,1.032 9.355,1.214 9.807 C 1.351 10.147,1.508 10.374,1.817 10.683 C 2.214 11.080,2.542 11.269,3.104 11.425 C 3.304 11.480,3.720 11.483,10.000 11.483 C 16.280 11.483,16.696 11.480,16.896 11.425 C 17.458 11.269,17.786 11.080,18.183 10.683 C 18.492 10.374,18.649 10.147,18.786 9.807 C 18.968 9.355,18.978 9.282,18.992 8.200 C 19.007 7.142,18.997 7.029,18.859 6.600 C 18.765 6.307,17.430 3.473,17.280 3.247 C 16.910 2.690,16.379 2.302,15.700 2.094 L 15.450 2.018 10.117 2.012 C 7.183 2.010,4.698 2.020,4.593 2.036 M15.506 3.626 C 15.896 3.817,15.982 3.944,16.543 5.135 C 16.814 5.712,17.039 6.198,17.043 6.217 C 17.047 6.238,16.463 6.256,15.367 6.267 L 13.683 6.283 13.531 6.373 C 13.303 6.507,13.182 6.660,12.821 7.274 C 12.452 7.900,12.335 8.038,12.069 8.163 L 11.883 8.250 9.950 8.250 C 8.046 8.250,8.014 8.249,7.863 8.179 C 7.565 8.041,7.450 7.898,7.146 7.293 C 6.849 6.699,6.716 6.518,6.469 6.373 L 6.317 6.283 4.633 6.267 C 3.707 6.257,2.952 6.238,2.954 6.223 C 2.957 6.208,3.182 5.722,3.454 5.142 C 3.985 4.014,4.087 3.855,4.393 3.676 C 4.699 3.497,4.465 3.504,10.067 3.510 L 15.285 3.517 15.506 3.626 M1.683 13.060 C 1.361 13.172,1.143 13.396,1.050 13.712 C 0.978 13.952,0.979 16.076,1.050 16.417 C 1.208 17.167,1.833 17.792,2.583 17.950 C 2.935 18.024,17.065 18.024,17.417 17.950 C 18.173 17.791,18.794 17.165,18.952 16.403 C 18.994 16.202,19.001 15.933,18.993 14.953 L 18.983 13.750 18.890 13.561 C 18.785 13.346,18.623 13.189,18.402 13.087 C 18.253 13.018,18.206 13.016,16.070 13.007 C 13.657 12.997,13.677 12.996,13.394 13.209 C 13.283 13.293,13.162 13.465,12.861 13.967 C 12.643 14.330,12.415 14.669,12.342 14.736 C 12.271 14.803,12.126 14.890,12.019 14.930 C 11.827 15.001,11.807 15.002,9.904 14.993 L 7.983 14.983 7.792 14.889 C 7.536 14.763,7.424 14.616,7.117 14.000 C 6.810 13.384,6.698 13.237,6.441 13.111 L 6.250 13.017 4.050 13.009 C 2.028 13.002,1.836 13.006,1.683 13.060 " fill="#0F172A" stroke="none" fill-rule="evenodd"></path></svg>