<svg width="20" height="20" viewBox="0 0 20 20" fill="none" xmlns="http://www.w3.org/2000/svg"><path d="M9.758 2.048 C 9.566 2.116,9.415 2.249,9.328 2.424 L 9.250 2.583 9.233 5.444 L 9.217 8.305 8.213 7.225 C 7.163 6.095,7.094 6.036,6.798 6.007 C 6.480 5.977,6.123 6.231,6.033 6.552 C 5.986 6.718,6.007 6.952,6.080 7.092 C 6.106 7.142,6.885 8.001,7.812 9.000 C 9.639 10.969,9.673 11.000,10.000 11.000 C 10.325 11.000,10.361 10.968,12.186 9.000 C 13.113 8.001,13.894 7.142,13.920 7.092 C 14.050 6.845,14.005 6.495,13.814 6.273 C 13.590 6.011,13.214 5.934,12.912 6.089 C 12.830 6.131,12.420 6.544,11.783 7.228 L 10.783 8.302 10.767 5.443 L 10.750 2.583 10.672 2.424 C 10.506 2.087,10.107 1.923,9.758 2.048 M4.783 3.049 C 3.930 3.208,3.221 3.739,2.838 4.506 C 2.681 4.820,2.597 5.098,1.880 7.700 C 1.448 9.267,1.073 10.662,1.048 10.800 C 0.979 11.177,0.981 15.086,1.050 15.417 C 1.208 16.167,1.833 16.792,2.583 16.950 C 2.935 17.024,17.065 17.024,17.417 16.950 C 18.167 16.792,18.792 16.167,18.950 15.417 C 19.019 15.086,19.021 11.177,18.952 10.800 C 18.927 10.662,18.552 9.267,18.120 7.700 C 17.403 5.098,17.319 4.820,17.162 4.506 C 16.812 3.804,16.167 3.287,15.383 3.079 C 15.186 3.027,15.022 3.017,14.328 3.017 L 13.506 3.017 13.362 3.118 C 12.939 3.415,12.880 3.917,13.227 4.263 C 13.443 4.478,13.541 4.500,14.276 4.500 C 14.784 4.500,14.929 4.511,15.092 4.562 C 15.422 4.664,15.691 4.889,15.844 5.188 C 15.874 5.245,16.244 6.550,16.668 8.088 C 17.091 9.625,17.445 10.910,17.454 10.942 C 17.470 10.997,17.370 11.000,15.675 11.000 C 13.690 11.000,13.669 11.002,13.393 11.210 C 13.283 11.293,13.161 11.467,12.861 11.967 C 12.643 12.330,12.415 12.669,12.342 12.736 C 12.271 12.803,12.126 12.890,12.019 12.930 C 11.827 13.001,11.807 13.002,9.904 12.993 L 7.983 12.983 7.792 12.889 C 7.536 12.763,7.424 12.616,7.117 12.000 C 6.810 11.384,6.698 11.237,6.441 11.111 L 6.250 11.017 4.390 11.007 C 2.650 10.998,2.531 10.994,2.546 10.941 C 2.555 10.909,2.909 9.625,3.332 8.088 C 3.756 6.550,4.126 5.245,4.156 5.188 C 4.309 4.889,4.578 4.664,4.908 4.562 C 5.071 4.511,5.216 4.500,5.724 4.500 C 6.456 4.500,6.558 4.477,6.768 4.268 C 7.077 3.958,7.077 3.542,6.768 3.232 C 6.677 3.142,6.562 3.065,6.479 3.041 C 6.294 2.986,5.093 2.992,4.783 3.049 " fill="#0F172A" stroke="none" fill-rule="evenodd"></path></svg>