<svg width="20" height="20" viewBox="0 0 20 20" fill="none" xmlns="http://www.w3.org/2000/svg"><path d="M4.783 3.049 C 3.875 3.220,3.076 3.858,2.742 4.681 C 2.696 4.792,2.290 6.211,1.839 7.833 L 1.018 10.783 1.008 12.983 C 0.996 15.443,0.996 15.448,1.225 15.908 C 1.310 16.080,1.418 16.223,1.597 16.401 C 1.888 16.690,2.145 16.838,2.520 16.934 C 2.772 16.999,2.916 17.000,10.000 17.000 C 17.084 17.000,17.228 16.999,17.480 16.934 C 17.855 16.838,18.112 16.690,18.403 16.401 C 18.582 16.223,18.690 16.080,18.775 15.908 C 19.004 15.448,19.004 15.443,18.992 12.983 L 18.982 10.783 18.161 7.833 C 17.710 6.211,17.304 4.792,17.258 4.681 C 17.014 4.081,16.479 3.536,15.854 3.250 C 15.305 2.999,15.774 3.019,10.100 3.012 C 6.021 3.007,4.971 3.014,4.783 3.049 M14.993 4.535 C 15.196 4.581,15.405 4.686,15.555 4.815 C 15.830 5.052,15.842 5.086,16.666 8.083 C 17.090 9.623,17.444 10.909,17.454 10.941 C 17.469 10.994,17.350 10.998,15.610 11.007 L 13.750 11.017 13.561 11.110 C 13.456 11.161,13.329 11.251,13.277 11.310 C 13.226 11.369,13.019 11.691,12.819 12.027 C 12.617 12.364,12.399 12.687,12.331 12.748 C 12.264 12.809,12.122 12.891,12.017 12.930 C 11.828 13.001,11.800 13.002,9.904 12.993 L 7.983 12.983 7.792 12.890 C 7.687 12.838,7.555 12.740,7.499 12.673 C 7.443 12.605,7.270 12.299,7.114 11.992 C 6.959 11.685,6.786 11.382,6.730 11.318 C 6.674 11.255,6.544 11.161,6.439 11.110 L 6.250 11.017 4.390 11.007 C 2.650 10.998,2.531 10.994,2.546 10.941 C 2.556 10.909,2.910 9.623,3.334 8.083 C 4.158 5.087,4.170 5.052,4.445 4.815 C 4.593 4.687,4.754 4.604,4.967 4.546 C 5.158 4.493,14.766 4.482,14.993 4.535 " fill="#0F172A" stroke="none" fill-rule="evenodd"></path></svg>