<svg width="20" height="20" viewBox="0 0 20 20" fill="none" xmlns="http://www.w3.org/2000/svg"><path d="M9.736 2.037 C 8.143 2.178,6.660 2.761,5.300 3.779 C 4.915 4.068,4.126 4.847,3.827 5.233 C 2.991 6.317,2.426 7.538,2.170 8.817 C 2.044 9.449,2.017 9.741,2.017 10.500 C 2.017 11.259,2.044 11.551,2.170 12.183 C 2.426 13.464,2.991 14.683,3.829 15.767 C 4.111 16.131,4.869 16.889,5.233 17.171 C 6.488 18.142,7.837 18.708,9.450 18.940 C 9.844 18.996,11.156 18.996,11.550 18.940 C 13.163 18.708,14.512 18.142,15.767 17.171 C 16.131 16.889,16.889 16.131,17.171 15.767 C 18.142 14.512,18.708 13.163,18.940 11.550 C 18.996 11.156,18.996 9.844,18.940 9.450 C 18.667 7.553,17.910 5.965,16.642 4.632 C 14.876 2.775,12.306 1.809,9.736 2.037 M10.448 5.114 C 10.796 5.284,10.982 5.592,10.983 6.000 C 10.983 6.207,10.967 6.282,10.890 6.441 C 10.665 6.898,10.132 7.111,9.657 6.933 C 9.059 6.709,8.823 5.998,9.166 5.456 C 9.432 5.037,9.987 4.889,10.448 5.114 M9.834 9.106 C 10.288 9.274,10.612 9.563,10.815 9.983 C 10.956 10.275,11.015 10.570,10.990 10.860 C 10.980 10.983,10.865 11.560,10.736 12.142 C 10.606 12.724,10.500 13.228,10.500 13.263 C 10.500 13.298,10.528 13.361,10.563 13.404 C 10.618 13.471,10.666 13.484,10.927 13.503 C 11.286 13.528,11.482 13.623,11.626 13.841 C 11.706 13.963,11.717 14.010,11.717 14.253 C 11.717 14.505,11.708 14.540,11.616 14.671 C 11.553 14.760,11.449 14.849,11.337 14.907 C 11.180 14.989,11.123 15.000,10.853 15.000 C 10.301 15.000,9.863 14.831,9.514 14.482 C 9.189 14.157,9.000 13.701,9.000 13.243 C 9.000 13.133,9.103 12.591,9.250 11.927 C 9.387 11.305,9.500 10.767,9.500 10.730 C 9.500 10.694,9.463 10.627,9.418 10.582 C 9.346 10.510,9.307 10.500,9.091 10.500 C 8.776 10.500,8.533 10.388,8.385 10.174 C 8.247 9.975,8.224 9.642,8.333 9.417 C 8.414 9.250,8.565 9.118,8.758 9.045 C 8.957 8.971,9.560 9.005,9.834 9.106 " fill="#0F172A" stroke="none" fill-rule="evenodd"></path></svg>