<svg width="20" height="20" viewBox="0 0 20 20" fill="none" xmlns="http://www.w3.org/2000/svg"><path d="M12.333 2.048 C 11.736 2.135,11.277 2.277,10.767 2.533 C 9.382 3.229,8.441 4.458,8.092 6.025 C 8.031 6.301,8.020 6.450,8.022 7.017 C 8.024 7.614,8.033 7.720,8.109 8.033 L 8.195 8.383 5.168 11.417 C 2.281 14.310,2.138 14.459,2.070 14.643 C 2.004 14.826,2.000 14.898,2.000 16.000 C 2.000 17.108,2.003 17.173,2.071 17.355 C 2.166 17.609,2.391 17.834,2.645 17.929 C 2.827 17.997,2.892 18.000,4.000 18.000 C 5.108 18.000,5.173 17.997,5.355 17.929 C 5.609 17.834,5.834 17.609,5.929 17.355 C 5.992 17.187,6.000 17.096,6.000 16.582 L 6.000 16.000 6.582 16.000 C 7.281 16.000,7.447 15.956,7.702 15.702 C 7.956 15.447,8.000 15.281,8.000 14.582 L 8.000 14.000 8.582 14.000 C 9.460 14.000,9.332 14.075,10.583 12.832 L 11.617 11.806 11.967 11.891 C 12.280 11.967,12.386 11.976,12.983 11.977 C 13.549 11.978,13.700 11.968,13.978 11.906 C 16.006 11.458,17.459 10.005,17.906 7.978 C 18.011 7.503,18.011 6.497,17.906 6.022 C 17.451 3.959,15.895 2.441,13.867 2.081 C 13.460 2.008,12.716 1.992,12.333 2.048 M13.755 4.101 C 15.023 4.424,15.958 5.587,15.978 6.867 C 15.983 7.195,15.978 7.226,15.890 7.376 C 15.604 7.863,14.899 7.868,14.617 7.386 C 14.553 7.278,14.522 7.163,14.501 6.959 C 14.452 6.487,14.299 6.158,14.004 5.891 C 13.748 5.660,13.333 5.500,12.988 5.500 C 12.782 5.500,12.508 5.351,12.385 5.174 C 12.247 4.975,12.224 4.642,12.333 4.417 C 12.414 4.250,12.565 4.118,12.758 4.045 C 12.922 3.984,13.400 4.011,13.755 4.101 " fill="#0F172A" stroke="none" fill-rule="evenodd"></path></svg>