<svg width="20" height="20" viewBox="0 0 20 20" fill="none" xmlns="http://www.w3.org/2000/svg"><path d="M6.758 2.046 C 6.564 2.118,6.414 2.250,6.328 2.424 C 6.255 2.573,6.249 2.627,6.239 3.288 C 6.227 4.110,6.276 4.032,5.767 4.033 C 4.802 4.036,2.655 4.251,2.408 4.371 C 1.834 4.648,1.886 5.486,2.493 5.731 C 2.620 5.783,2.854 5.772,3.817 5.671 C 5.007 5.545,5.586 5.519,7.140 5.519 C 7.978 5.519,8.671 5.527,8.681 5.536 C 8.728 5.583,8.258 6.907,7.896 7.747 C 7.677 8.256,7.036 9.533,7.000 9.533 C 6.967 9.533,6.331 8.273,6.134 7.817 C 5.885 7.238,5.694 7.067,5.300 7.067 C 4.870 7.067,4.567 7.372,4.567 7.803 C 4.567 7.932,4.605 8.064,4.720 8.337 C 4.954 8.891,5.421 9.821,5.779 10.444 L 6.101 11.005 5.894 11.294 C 4.923 12.651,3.763 13.903,2.481 14.979 C 2.156 15.252,2.044 15.409,2.013 15.638 C 1.937 16.194,2.519 16.641,3.038 16.424 C 3.214 16.350,3.980 15.686,4.662 15.017 C 5.507 14.187,6.081 13.544,6.691 12.742 C 6.848 12.535,6.987 12.367,7.001 12.367 C 7.014 12.367,7.109 12.477,7.210 12.613 C 7.430 12.905,7.608 13.010,7.883 13.010 C 8.395 13.010,8.758 12.511,8.595 12.030 C 8.574 11.968,8.442 11.759,8.302 11.567 C 8.161 11.374,8.012 11.168,7.970 11.108 L 7.894 10.998 8.148 10.569 C 8.677 9.670,9.162 8.661,9.584 7.583 C 9.783 7.073,10.093 6.157,10.171 5.846 C 10.192 5.765,10.220 5.692,10.234 5.683 C 10.248 5.675,10.437 5.690,10.655 5.717 C 11.311 5.799,11.467 5.784,11.710 5.620 C 11.847 5.527,11.968 5.297,11.990 5.089 C 12.023 4.772,11.821 4.449,11.520 4.335 C 11.313 4.256,9.515 4.080,8.600 4.049 C 8.297 4.039,7.986 4.023,7.908 4.013 L 7.767 3.996 7.766 3.373 C 7.765 2.695,7.739 2.514,7.616 2.327 C 7.449 2.073,7.042 1.940,6.758 2.046 M12.758 8.048 C 12.441 8.161,12.565 7.936,10.213 12.644 C 8.717 15.637,8.022 17.061,8.009 17.158 C 7.981 17.383,8.058 17.595,8.232 17.767 C 8.525 18.060,8.921 18.076,9.234 17.808 C 9.342 17.716,9.448 17.533,9.792 16.847 L 10.217 16.000 13.000 16.000 L 15.783 16.000 16.208 16.847 C 16.552 17.533,16.658 17.716,16.766 17.808 C 17.079 18.076,17.475 18.060,17.768 17.767 C 17.942 17.595,18.019 17.383,17.991 17.158 C 17.978 17.061,17.283 15.637,15.787 12.644 C 13.905 8.877,13.586 8.259,13.485 8.182 C 13.340 8.071,13.154 8.003,13.000 8.003 C 12.936 8.003,12.827 8.023,12.758 8.048 M14.025 12.483 L 15.033 14.500 13.000 14.500 L 10.967 14.500 11.975 12.483 C 12.529 11.374,12.991 10.467,13.000 10.467 C 13.009 10.467,13.471 11.374,14.025 12.483 " fill="#0F172A" stroke="none" fill-rule="evenodd"></path></svg>