<svg width="20" height="20" viewBox="0 0 20 20" fill="none" xmlns="http://www.w3.org/2000/svg"><path d="M9.278 2.034 C 5.742 2.378,2.875 4.938,2.166 8.383 C 1.527 11.494,2.782 14.683,5.371 16.522 C 8.366 18.651,12.431 18.458,15.223 16.054 C 16.554 14.907,17.481 13.332,17.834 11.617 C 18.283 9.432,17.800 7.152,16.507 5.350 C 15.363 3.757,13.654 2.622,11.767 2.201 C 11.040 2.039,9.967 1.967,9.278 2.034 M10.605 3.535 C 11.314 3.606,12.061 3.799,12.622 4.056 L 12.827 4.150 11.865 5.367 C 10.997 6.463,10.893 6.583,10.809 6.579 C 10.758 6.577,10.555 6.555,10.358 6.531 C 10.060 6.494,9.940 6.494,9.642 6.531 C 9.445 6.555,9.242 6.577,9.191 6.579 C 9.107 6.583,9.003 6.463,8.135 5.367 L 7.173 4.150 7.378 4.056 C 8.318 3.626,9.544 3.428,10.605 3.535 M5.383 8.149 C 6.007 8.640,6.536 9.059,6.560 9.081 C 6.594 9.114,6.593 9.176,6.551 9.415 C 6.486 9.789,6.486 10.211,6.551 10.584 C 6.582 10.764,6.590 10.890,6.571 10.909 C 6.555 10.925,6.003 11.364,5.345 11.884 L 4.150 12.828 4.056 12.622 C 3.645 11.722,3.442 10.533,3.527 9.525 C 3.592 8.743,3.747 8.105,4.034 7.424 C 4.131 7.193,4.149 7.170,4.197 7.211 C 4.226 7.237,4.760 7.659,5.383 8.149 M16.153 7.914 C 16.307 8.357,16.425 8.947,16.473 9.525 C 16.558 10.533,16.355 11.722,15.944 12.622 L 15.850 12.828 14.655 11.884 C 13.997 11.364,13.445 10.925,13.429 10.909 C 13.410 10.890,13.418 10.764,13.449 10.584 C 13.514 10.211,13.514 9.789,13.449 9.416 C 13.421 9.254,13.409 9.111,13.424 9.096 C 13.438 9.082,13.990 8.643,14.650 8.121 L 15.850 7.173 15.944 7.378 C 15.996 7.491,16.090 7.732,16.153 7.914 M10.417 8.050 C 10.983 8.169,11.528 8.589,11.778 9.100 C 12.170 9.900,12.026 10.782,11.403 11.401 C 11.112 11.690,10.855 11.838,10.480 11.934 C 10.010 12.054,9.498 11.992,9.056 11.760 C 8.752 11.601,8.374 11.212,8.222 10.900 C 7.830 10.100,7.973 9.221,8.597 8.597 C 9.092 8.102,9.738 7.908,10.417 8.050 M9.417 13.449 C 9.766 13.513,10.220 13.512,10.584 13.449 C 10.746 13.421,10.889 13.409,10.904 13.424 C 10.918 13.438,11.357 13.990,11.879 14.650 L 12.828 15.850 12.623 15.946 C 11.900 16.281,10.864 16.500,10.000 16.500 C 9.136 16.500,8.100 16.281,7.378 15.946 L 7.172 15.850 8.141 14.625 C 8.674 13.951,9.119 13.400,9.130 13.401 C 9.141 13.401,9.270 13.423,9.417 13.449 " fill="#0F172A" stroke="none" fill-rule="evenodd"></path></svg>