<svg width="20" height="20" viewBox="0 0 20 20" fill="none" xmlns="http://www.w3.org/2000/svg"><path d="M9.367 1.037 C 7.697 1.224,6.178 2.090,5.191 3.415 C 4.156 4.806,3.775 6.563,4.139 8.267 C 4.332 9.171,4.740 10.025,5.331 10.762 C 5.590 11.085,5.847 11.341,6.383 11.808 C 6.960 12.311,7.291 12.680,7.578 13.140 C 7.901 13.658,8.000 14.042,8.000 14.780 C 8.000 15.232,8.004 15.263,8.092 15.435 C 8.226 15.701,8.369 15.786,8.852 15.886 C 9.391 15.998,10.169 16.027,10.700 15.956 C 11.540 15.844,11.769 15.744,11.919 15.423 C 11.992 15.266,11.999 15.207,12.000 14.778 C 12.000 14.041,12.099 13.658,12.423 13.139 C 12.724 12.655,13.098 12.250,13.840 11.605 C 14.461 11.065,14.867 10.576,15.226 9.937 C 16.512 7.649,16.166 4.817,14.364 2.888 C 13.556 2.022,12.386 1.366,11.239 1.135 C 10.594 1.006,9.947 0.972,9.367 1.037 M8.583 17.430 C 8.333 17.494,8.178 17.626,8.069 17.867 C 7.948 18.135,7.994 18.419,8.194 18.641 C 8.359 18.824,8.515 18.885,8.950 18.938 C 9.737 19.032,11.233 18.973,11.550 18.835 C 11.813 18.721,12.000 18.428,11.999 18.133 C 11.998 17.997,11.894 17.750,11.790 17.638 C 11.591 17.425,11.370 17.388,10.738 17.460 C 10.330 17.507,9.697 17.511,9.300 17.469 C 9.144 17.452,8.942 17.431,8.850 17.421 C 8.758 17.411,8.638 17.415,8.583 17.430 " fill="#0F172A" stroke="none" fill-rule="evenodd"></path></svg>