<svg width="20" height="20" viewBox="0 0 20 20" fill="none" xmlns="http://www.w3.org/2000/svg"><path d="M13.633 2.019 C 13.588 2.027,13.438 2.050,13.300 2.071 C 12.811 2.143,12.245 2.370,11.750 2.694 C 11.464 2.881,8.098 6.215,7.805 6.601 C 7.298 7.269,7.000 8.157,7.000 9.000 C 7.000 9.812,7.288 10.701,7.760 11.345 C 7.946 11.597,8.346 12.015,8.485 12.101 C 8.864 12.335,9.347 12.196,9.547 11.794 C 9.718 11.451,9.638 11.157,9.276 10.801 C 8.934 10.464,8.679 10.022,8.564 9.567 C 8.504 9.329,8.504 8.671,8.564 8.433 C 8.630 8.170,8.757 7.885,8.926 7.617 C 9.138 7.281,12.281 4.138,12.617 3.926 C 13.100 3.621,13.451 3.517,14.000 3.517 C 14.410 3.517,14.626 3.558,14.950 3.694 C 15.683 4.004,16.217 4.628,16.439 5.433 C 16.462 5.516,16.481 5.771,16.481 6.000 C 16.483 6.459,16.423 6.723,16.228 7.117 C 16.070 7.435,15.900 7.637,15.132 8.417 C 14.337 9.223,14.312 9.262,14.342 9.602 C 14.387 10.097,14.933 10.412,15.383 10.203 C 15.571 10.117,17.105 8.558,17.306 8.250 C 18.139 6.977,18.225 5.476,17.542 4.154 C 16.994 3.094,15.956 2.313,14.786 2.081 C 14.546 2.033,13.785 1.992,13.633 2.019 M10.771 7.872 C 10.510 8.001,10.339 8.331,10.379 8.625 C 10.408 8.832,10.478 8.946,10.738 9.212 C 11.018 9.498,11.172 9.722,11.301 10.036 C 11.626 10.825,11.540 11.695,11.065 12.406 C 10.878 12.686,7.656 15.908,7.391 16.079 C 6.835 16.440,6.139 16.578,5.518 16.449 C 5.013 16.345,4.601 16.123,4.239 15.761 C 3.515 15.038,3.307 13.995,3.695 13.041 C 3.850 12.659,4.021 12.446,4.807 11.648 C 5.279 11.169,5.584 10.833,5.616 10.757 C 5.799 10.319,5.480 9.787,5.008 9.742 C 4.661 9.708,4.623 9.734,3.772 10.578 C 3.345 11.003,2.912 11.460,2.810 11.595 C 2.307 12.260,2.000 13.172,2.000 14.000 C 2.000 15.474,2.851 16.869,4.164 17.547 C 4.758 17.854,5.298 17.981,6.000 17.981 C 6.248 17.981,6.563 17.961,6.700 17.937 C 7.224 17.843,7.767 17.622,8.250 17.306 C 8.534 17.120,11.902 13.786,12.190 13.405 C 12.549 12.931,12.832 12.284,12.937 11.700 C 12.961 11.563,12.981 11.248,12.981 11.000 C 12.981 10.752,12.961 10.438,12.937 10.300 C 12.832 9.717,12.550 9.072,12.191 8.595 C 11.957 8.284,11.574 7.913,11.420 7.849 C 11.244 7.776,10.945 7.786,10.771 7.872 " fill="#0F172A" stroke="none" fill-rule="evenodd"></path></svg>