<svg width="20" height="20" viewBox="0 0 20 20" fill="none" xmlns="http://www.w3.org/2000/svg"><path d="M2.543 3.866 C 2.337 3.970,2.202 4.106,2.080 4.333 C 1.984 4.512,1.991 5.000,2.092 5.191 C 2.210 5.411,2.355 5.556,2.560 5.657 C 2.718 5.734,2.792 5.749,3.000 5.747 C 3.407 5.745,3.723 5.546,3.903 5.181 C 3.968 5.047,3.983 4.967,3.982 4.750 C 3.979 4.434,3.888 4.221,3.671 4.025 C 3.459 3.833,3.347 3.789,3.033 3.775 C 2.769 3.762,2.736 3.768,2.543 3.866 M6.507 4.038 C 6.347 4.084,6.081 4.355,6.037 4.517 C 5.954 4.819,6.015 5.057,6.229 5.271 C 6.324 5.367,6.434 5.440,6.517 5.463 C 6.706 5.515,17.294 5.515,17.483 5.463 C 17.755 5.388,18.000 5.050,18.000 4.750 C 18.000 4.450,17.762 4.126,17.479 4.041 C 17.308 3.990,6.684 3.986,6.507 4.038 M2.750 9.029 C 2.444 9.110,2.162 9.365,2.058 9.654 C 1.985 9.859,1.984 10.140,2.056 10.352 C 2.132 10.576,2.424 10.868,2.648 10.944 C 3.133 11.109,3.660 10.902,3.891 10.454 C 3.965 10.312,3.980 10.238,3.981 10.017 C 3.984 9.593,3.804 9.288,3.448 9.114 C 3.255 9.020,2.934 8.981,2.750 9.029 M6.468 9.304 C 6.306 9.369,6.158 9.512,6.080 9.679 C 5.872 10.126,6.122 10.628,6.603 10.731 C 6.837 10.781,17.163 10.781,17.397 10.731 C 17.761 10.653,18.023 10.312,17.993 9.954 C 17.975 9.727,17.841 9.495,17.659 9.374 L 17.522 9.283 12.036 9.277 C 8.476 9.273,6.521 9.282,6.468 9.304 M2.543 14.366 C 2.337 14.470,2.202 14.606,2.080 14.833 C 1.984 15.012,1.991 15.500,2.092 15.691 C 2.210 15.911,2.355 16.056,2.560 16.157 C 2.718 16.234,2.792 16.249,3.000 16.247 C 3.407 16.245,3.723 16.046,3.903 15.681 C 3.968 15.547,3.983 15.467,3.982 15.250 C 3.979 14.934,3.888 14.721,3.671 14.525 C 3.459 14.333,3.347 14.289,3.033 14.275 C 2.769 14.262,2.736 14.268,2.543 14.366 M6.507 14.538 C 6.446 14.555,6.324 14.640,6.235 14.726 C 6.014 14.941,5.952 15.176,6.037 15.483 C 6.086 15.660,6.340 15.914,6.517 15.963 C 6.706 16.015,17.294 16.015,17.483 15.963 C 17.755 15.888,18.000 15.550,18.000 15.250 C 18.000 14.950,17.762 14.626,17.479 14.541 C 17.308 14.490,6.684 14.486,6.507 14.538 " fill="#0F172A" stroke="none" fill-rule="evenodd"></path></svg>