<svg width="20" height="20" viewBox="0 0 20 20" fill="none" xmlns="http://www.w3.org/2000/svg"><path d="M9.454 1.033 C 8.493 1.155,7.614 1.574,6.907 2.248 C 6.232 2.893,5.829 3.601,5.592 4.567 C 5.525 4.836,5.521 4.955,5.509 6.925 L 5.496 9.000 5.156 9.001 C 4.470 9.002,4.018 9.175,3.599 9.597 C 3.310 9.888,3.162 10.145,3.066 10.520 C 3.003 10.768,3.000 10.900,3.000 14.000 C 3.000 17.100,3.003 17.232,3.066 17.480 C 3.162 17.857,3.310 18.112,3.599 18.401 C 3.888 18.690,4.143 18.838,4.520 18.934 C 4.771 18.998,4.908 19.000,10.000 19.000 C 15.092 19.000,15.229 18.998,15.480 18.934 C 15.857 18.838,16.112 18.690,16.401 18.401 C 16.690 18.112,16.838 17.857,16.934 17.480 C 16.997 17.232,17.000 17.100,17.000 14.000 C 17.000 10.900,16.997 10.768,16.934 10.520 C 16.838 10.145,16.690 9.888,16.401 9.597 C 15.982 9.175,15.530 9.002,14.844 9.001 L 14.504 9.000 14.491 6.925 C 14.479 4.958,14.474 4.835,14.408 4.567 C 14.172 3.603,13.769 2.893,13.093 2.248 C 12.461 1.645,11.713 1.257,10.850 1.083 C 10.534 1.019,9.777 0.992,9.454 1.033 M10.750 2.599 C 11.790 2.866,12.610 3.685,12.906 4.750 C 12.978 5.009,12.981 5.071,12.992 7.008 L 13.004 9.000 10.000 9.000 L 6.996 9.000 7.008 7.008 C 7.019 5.071,7.022 5.009,7.094 4.750 C 7.419 3.577,8.372 2.718,9.550 2.535 C 9.848 2.488,10.442 2.520,10.750 2.599 " fill="#0F172A" stroke="none" fill-rule="evenodd"></path></svg>