<svg width="20" height="20" viewBox="0 0 20 20" fill="none" xmlns="http://www.w3.org/2000/svg"><path d="M13.954 1.033 C 12.993 1.155,12.114 1.574,11.407 2.248 C 10.732 2.893,10.329 3.601,10.092 4.567 C 10.025 4.836,10.021 4.955,10.009 6.925 L 9.996 9.000 6.406 9.001 C 2.423 9.001,2.565 8.994,2.100 9.222 C 1.916 9.311,1.783 9.411,1.599 9.597 C 1.310 9.888,1.162 10.145,1.066 10.520 C 1.003 10.768,1.000 10.900,1.000 14.000 C 1.000 17.100,1.003 17.232,1.066 17.480 C 1.162 17.857,1.310 18.112,1.599 18.401 C 1.888 18.690,2.143 18.838,2.520 18.934 C 2.771 18.998,2.908 19.000,8.000 19.000 C 13.092 19.000,13.229 18.998,13.480 18.934 C 13.857 18.838,14.112 18.690,14.401 18.401 C 14.690 18.112,14.838 17.857,14.934 17.480 C 14.997 17.232,15.000 17.100,15.000 14.000 C 15.000 10.900,14.997 10.768,14.934 10.520 C 14.838 10.145,14.690 9.888,14.401 9.597 C 14.217 9.411,14.084 9.311,13.900 9.222 C 13.509 9.030,13.304 9.001,12.340 9.001 L 11.496 9.000 11.508 7.008 C 11.519 5.071,11.522 5.009,11.594 4.750 C 11.889 3.686,12.696 2.880,13.750 2.596 C 14.132 2.493,14.868 2.493,15.250 2.596 C 16.305 2.880,17.114 3.689,17.406 4.750 C 17.475 5.004,17.480 5.100,17.498 6.750 C 17.519 8.685,17.505 8.576,17.762 8.809 C 17.961 8.988,18.204 9.040,18.483 8.963 C 18.668 8.912,18.915 8.660,18.966 8.471 C 18.994 8.365,19.001 7.854,18.991 6.588 C 18.978 4.969,18.972 4.831,18.908 4.567 C 18.673 3.606,18.269 2.893,17.593 2.248 C 16.961 1.645,16.213 1.257,15.350 1.083 C 15.034 1.019,14.277 0.992,13.954 1.033 " fill="#0F172A" stroke="none" fill-rule="evenodd"></path></svg>