<svg width="20" height="20" viewBox="0 0 20 20" fill="none" xmlns="http://www.w3.org/2000/svg"><path d="M9.433 2.019 C 9.369 2.027,9.177 2.049,9.007 2.069 C 7.080 2.293,5.163 3.324,3.925 4.800 C 2.910 6.011,2.323 7.314,2.078 8.900 C 1.996 9.432,1.996 10.568,2.078 11.100 C 2.160 11.630,2.247 12.008,2.388 12.444 C 3.184 14.909,5.091 16.816,7.556 17.612 C 8.392 17.882,9.044 17.980,10.000 17.980 C 10.956 17.980,11.608 17.882,12.444 17.612 C 14.908 16.816,16.816 14.908,17.612 12.444 C 17.883 11.605,17.981 10.952,17.981 10.000 C 17.980 9.043,17.881 8.390,17.612 7.556 C 16.667 4.631,14.206 2.553,11.133 2.084 C 10.800 2.033,9.680 1.991,9.433 2.019 M9.632 5.051 C 11.618 5.374,13.072 7.141,12.989 9.133 C 12.962 9.806,12.829 10.296,12.507 10.909 L 12.319 11.267 13.123 12.075 C 13.965 12.921,13.999 12.967,14.000 13.252 C 14.001 13.644,13.644 14.000,13.250 14.000 C 12.968 14.000,12.920 13.963,12.075 13.123 L 11.267 12.319 10.909 12.507 C 10.296 12.829,9.806 12.962,9.133 12.989 C 7.141 13.072,5.374 11.618,5.051 9.632 C 4.778 7.943,5.635 6.243,7.158 5.456 C 7.932 5.057,8.795 4.916,9.632 5.051 M8.586 6.533 C 8.023 6.635,7.464 6.959,7.086 7.400 C 6.489 8.098,6.338 9.084,6.695 9.959 C 6.934 10.548,7.452 11.066,8.041 11.305 C 8.811 11.619,9.697 11.537,10.370 11.091 C 11.371 10.426,11.760 9.158,11.305 8.041 C 11.027 7.358,10.367 6.783,9.630 6.581 C 9.409 6.520,8.808 6.493,8.586 6.533 " fill="#0F172A" stroke="none" fill-rule="evenodd"></path></svg>