<svg width="20" height="20" viewBox="0 0 20 20" fill="none" xmlns="http://www.w3.org/2000/svg"><path d="M8.283 2.039 C 7.469 2.121,6.715 2.340,5.943 2.717 C 4.752 3.301,3.810 4.138,3.086 5.259 C 2.861 5.606,2.490 6.390,2.352 6.808 C 2.060 7.692,1.945 8.725,2.035 9.653 C 2.121 10.531,2.328 11.261,2.717 12.057 C 3.275 13.196,4.066 14.108,5.110 14.814 C 5.520 15.091,6.340 15.495,6.800 15.645 C 8.885 16.330,11.233 15.986,12.996 14.738 C 13.167 14.616,13.329 14.502,13.354 14.483 C 13.389 14.458,13.792 14.842,15.108 16.157 C 16.890 17.937,16.960 17.998,17.233 17.999 C 17.634 18.001,18.000 17.643,17.999 17.250 C 17.998 16.958,17.955 16.908,16.157 15.108 C 14.842 13.792,14.458 13.389,14.483 13.354 C 14.964 12.686,15.134 12.405,15.389 11.850 C 15.846 10.857,16.061 9.620,15.973 8.494 C 15.897 7.531,15.696 6.787,15.283 5.943 C 14.725 4.804,13.934 3.892,12.890 3.186 C 12.478 2.908,11.659 2.505,11.192 2.352 C 10.299 2.058,9.234 1.944,8.283 2.039 M10.050 3.600 C 12.300 4.075,13.915 5.696,14.405 7.971 C 14.468 8.265,14.479 8.418,14.479 9.000 C 14.479 9.780,14.432 10.075,14.197 10.783 C 13.668 12.372,12.368 13.669,10.770 14.201 C 10.070 14.434,9.776 14.480,9.000 14.480 C 8.223 14.479,7.922 14.431,7.230 14.201 C 5.625 13.667,4.333 12.375,3.799 10.770 C 3.567 10.072,3.520 9.776,3.520 9.000 C 3.520 8.224,3.567 7.928,3.799 7.230 C 4.323 5.656,5.594 4.365,7.153 3.823 C 7.513 3.698,7.992 3.580,8.333 3.534 C 8.704 3.483,9.671 3.520,10.050 3.600 M6.468 8.303 C 6.305 8.369,6.158 8.512,6.080 8.679 C 5.872 9.126,6.122 9.628,6.603 9.731 C 6.833 9.780,11.167 9.780,11.397 9.731 C 11.761 9.653,12.023 9.312,11.993 8.954 C 11.975 8.727,11.841 8.495,11.659 8.374 L 11.522 8.283 9.036 8.277 C 7.448 8.273,6.520 8.282,6.468 8.303 " fill="#0F172A" stroke="none" fill-rule="evenodd"></path></svg>