<svg width="20" height="20" viewBox="0 0 20 20" fill="none" xmlns="http://www.w3.org/2000/svg"><path d="M8.283 2.039 C 7.469 2.121,6.715 2.340,5.943 2.717 C 5.138 3.112,4.590 3.510,3.966 4.154 C 1.580 6.617,1.339 10.419,3.393 13.189 C 3.674 13.567,4.433 14.326,4.811 14.607 C 6.584 15.921,8.842 16.330,10.957 15.719 C 11.783 15.480,12.521 15.106,13.293 14.534 L 13.402 14.453 15.143 16.190 C 16.984 18.028,16.951 18.000,17.250 18.000 C 17.644 18.000,18.001 17.644,18.000 17.252 C 17.999 16.950,18.030 16.986,16.191 15.143 L 14.454 13.403 14.547 13.277 C 15.469 12.023,15.933 10.734,15.989 9.267 C 16.084 6.837,14.927 4.567,12.890 3.187 C 12.479 2.908,11.660 2.506,11.192 2.352 C 10.299 2.058,9.234 1.944,8.283 2.039 M9.560 3.535 C 11.225 3.718,12.651 4.578,13.578 5.960 C 14.507 7.345,14.744 9.126,14.213 10.733 C 13.676 12.361,12.382 13.665,10.770 14.201 C 10.070 14.434,9.776 14.480,9.000 14.480 C 8.223 14.479,7.922 14.431,7.230 14.201 C 5.417 13.598,4.007 12.009,3.620 10.133 C 3.425 9.195,3.485 8.182,3.787 7.267 C 4.591 4.831,7.025 3.258,9.560 3.535 " fill="#0F172A" stroke="none" fill-rule="evenodd"></path></svg>