<svg width="20" height="20" viewBox="0 0 20 20" fill="none" xmlns="http://www.w3.org/2000/svg"><path d="M9.283 2.039 C 8.469 2.121,7.715 2.340,6.943 2.717 C 6.138 3.112,5.590 3.510,4.966 4.154 C 3.463 5.706,2.808 7.711,3.051 10.021 C 3.260 12.013,3.999 13.797,5.287 15.417 C 5.657 15.883,6.741 16.967,7.208 17.338 C 8.275 18.187,9.542 18.955,9.937 18.993 C 10.141 19.012,10.295 18.957,10.783 18.690 C 11.561 18.265,12.413 17.671,13.102 17.075 C 13.575 16.667,14.355 15.862,14.711 15.417 C 16.204 13.550,17.004 11.320,16.999 9.033 C 16.994 6.659,15.856 4.519,13.890 3.187 C 13.479 2.908,12.660 2.506,12.192 2.352 C 11.299 2.058,10.234 1.944,9.283 2.039 M10.700 6.864 C 11.367 7.092,11.900 7.624,12.139 8.300 C 12.205 8.488,12.215 8.581,12.215 9.000 C 12.215 9.419,12.205 9.512,12.139 9.700 C 11.965 10.193,11.575 10.681,11.159 10.927 C 10.594 11.262,9.882 11.335,9.266 11.121 C 8.925 11.002,8.686 10.850,8.418 10.582 C 7.984 10.148,7.798 9.719,7.775 9.100 C 7.758 8.647,7.810 8.373,7.983 8.018 C 8.270 7.428,8.823 6.976,9.452 6.818 C 9.752 6.743,10.418 6.767,10.700 6.864 " fill="#0F172A" stroke="none" fill-rule="evenodd"></path></svg>