<svg width="20" height="20" viewBox="0 0 20 20" fill="none" xmlns="http://www.w3.org/2000/svg"><path d="M7.217 2.114 C 7.016 2.165,3.066 3.796,2.785 3.945 C 2.545 4.072,2.315 4.296,2.193 4.521 C 1.989 4.897,2.000 4.550,2.000 10.699 C 2.001 15.400,2.008 16.345,2.047 16.491 C 2.204 17.080,2.674 17.505,3.283 17.610 C 3.627 17.669,3.820 17.617,4.853 17.191 C 5.365 16.980,6.189 16.640,6.684 16.435 L 7.584 16.063 9.817 16.989 L 12.050 17.916 12.417 17.916 L 12.783 17.916 14.983 17.003 C 16.193 16.501,17.242 16.053,17.313 16.008 C 17.495 15.894,17.701 15.673,17.807 15.478 C 18.011 15.104,18.000 15.449,18.000 9.301 C 17.999 4.600,17.992 3.655,17.953 3.509 C 17.796 2.919,17.325 2.493,16.719 2.393 C 16.334 2.329,16.223 2.365,14.250 3.181 C 13.249 3.595,12.424 3.933,12.416 3.933 C 12.409 3.933,11.438 3.534,10.260 3.045 C 9.081 2.556,8.034 2.137,7.933 2.112 C 7.709 2.058,7.438 2.059,7.217 2.114 M7.803 5.038 C 7.972 5.089,8.152 5.242,8.243 5.412 L 8.317 5.550 8.317 9.000 L 8.317 12.450 8.243 12.588 C 8.067 12.917,7.716 13.064,7.350 12.963 C 7.173 12.914,6.920 12.660,6.871 12.483 C 6.819 12.298,6.819 5.704,6.870 5.520 C 6.890 5.448,6.968 5.324,7.045 5.244 C 7.253 5.024,7.517 4.952,7.803 5.038 M12.650 7.037 C 12.732 7.060,12.842 7.133,12.938 7.229 C 13.034 7.324,13.107 7.434,13.129 7.517 C 13.181 7.704,13.181 14.296,13.129 14.483 C 13.080 14.660,12.827 14.914,12.650 14.963 C 12.284 15.064,11.933 14.917,11.757 14.588 L 11.683 14.450 11.683 11.000 L 11.683 7.550 11.758 7.410 C 11.932 7.085,12.286 6.937,12.650 7.037 " fill="#0F172A" stroke="none" fill-rule="evenodd"></path></svg>