<svg width="20" height="20" viewBox="0 0 20 20" fill="none" xmlns="http://www.w3.org/2000/svg"><path d="M15.668 2.044 C 15.604 2.064,15.482 2.149,15.396 2.232 C 15.124 2.495,15.106 2.741,15.317 3.300 C 15.614 4.085,15.969 5.363,16.146 6.283 C 16.513 8.185,16.595 10.235,16.381 12.167 C 16.223 13.605,15.862 15.172,15.380 16.523 C 15.276 16.813,15.184 17.110,15.176 17.184 C 15.127 17.598,15.488 17.999,15.913 18.000 C 16.183 18.000,16.450 17.829,16.581 17.572 C 16.762 17.213,17.218 15.761,17.429 14.867 C 17.629 14.022,17.827 12.837,17.883 12.150 C 17.913 11.788,17.914 11.786,18.100 11.667 C 18.626 11.329,18.999 10.637,18.999 10.000 C 18.999 9.363,18.626 8.671,18.100 8.333 C 17.914 8.214,17.913 8.212,17.883 7.850 C 17.772 6.481,17.369 4.651,16.843 3.120 C 16.568 2.317,16.499 2.205,16.200 2.069 C 16.036 1.995,15.848 1.986,15.668 2.044 M13.493 4.051 C 12.185 4.715,10.392 5.317,8.784 5.632 C 7.663 5.851,6.711 5.953,5.362 5.998 C 4.767 6.018,4.365 6.047,4.205 6.081 C 2.785 6.386,1.661 7.387,1.202 8.754 C 0.587 10.592,1.425 12.648,3.154 13.542 C 3.502 13.721,3.951 13.879,4.275 13.935 L 4.499 13.973 4.535 14.112 C 4.889 15.469,5.647 17.270,6.031 17.664 C 6.387 18.030,6.944 18.180,7.451 18.048 C 7.760 17.968,8.737 17.396,8.986 17.150 C 9.292 16.848,9.431 16.509,9.433 16.061 C 9.434 15.787,9.371 15.589,9.091 14.983 C 8.773 14.294,8.745 14.355,9.324 14.487 C 10.770 14.818,12.081 15.274,13.409 15.909 C 13.679 16.038,13.909 16.135,13.920 16.125 C 13.952 16.093,14.195 15.349,14.333 14.863 C 15.273 11.547,15.215 7.857,14.171 4.600 C 13.964 3.956,13.930 3.867,13.889 3.868 C 13.867 3.869,13.689 3.952,13.493 4.051 " fill="#0F172A" stroke="none" fill-rule="evenodd"></path></svg>