<svg width="20" height="20" viewBox="0 0 20 20" fill="none" xmlns="http://www.w3.org/2000/svg"><path d="M9.550 1.035 C 8.393 1.215,7.471 2.027,7.110 3.183 L 7.017 3.483 7.017 7.000 L 7.017 10.517 7.110 10.815 C 7.433 11.845,8.165 12.577,9.185 12.887 C 9.455 12.970,9.532 12.978,10.000 12.978 C 10.468 12.978,10.545 12.970,10.815 12.887 C 11.835 12.577,12.567 11.845,12.890 10.815 L 12.983 10.517 12.983 7.000 L 12.983 3.483 12.890 3.183 C 12.561 2.132,11.769 1.361,10.750 1.099 C 10.442 1.020,9.848 0.988,9.550 1.035 M4.450 8.963 C 4.298 9.033,4.152 9.170,4.073 9.316 C 3.958 9.532,3.990 10.526,4.135 11.239 C 4.322 12.163,4.783 13.106,5.417 13.867 C 6.270 14.889,7.528 15.631,8.817 15.872 C 9.018 15.910,9.202 15.946,9.225 15.953 C 9.257 15.962,9.267 16.146,9.267 16.730 L 9.267 17.496 8.386 17.506 L 7.506 17.517 7.362 17.618 C 7.067 17.825,6.945 18.138,7.032 18.462 C 7.083 18.651,7.331 18.903,7.521 18.959 C 7.717 19.018,12.283 19.018,12.479 18.959 C 12.562 18.935,12.677 18.858,12.768 18.768 C 13.077 18.458,13.077 18.042,12.768 17.732 C 12.550 17.515,12.472 17.500,11.538 17.500 L 10.733 17.500 10.733 16.732 C 10.733 16.147,10.743 15.962,10.775 15.953 C 10.798 15.946,10.982 15.910,11.183 15.872 C 12.469 15.631,13.732 14.886,14.583 13.867 C 15.217 13.106,15.678 12.163,15.865 11.239 C 16.010 10.526,16.042 9.532,15.927 9.316 C 15.684 8.861,15.076 8.762,14.722 9.120 C 14.541 9.303,14.523 9.374,14.498 10.000 C 14.472 10.653,14.414 10.989,14.244 11.480 C 14.022 12.116,13.728 12.595,13.256 13.089 C 12.592 13.783,11.819 14.214,10.866 14.420 C 10.468 14.506,9.532 14.506,9.134 14.420 C 8.792 14.346,8.260 14.164,7.986 14.027 C 7.203 13.636,6.429 12.878,6.025 12.107 C 5.681 11.451,5.536 10.871,5.503 10.017 C 5.478 9.372,5.460 9.304,5.278 9.120 C 5.144 8.984,4.944 8.901,4.750 8.901 C 4.658 8.901,4.523 8.929,4.450 8.963 " fill="#0F172A" stroke="none" fill-rule="evenodd"></path></svg>