<svg width="20" height="20" viewBox="0 0 20 20" fill="none" xmlns="http://www.w3.org/2000/svg"><path d="M9.433 2.019 C 9.369 2.027,9.177 2.049,9.007 2.069 C 7.090 2.292,5.164 3.324,3.941 4.782 C 2.913 6.007,2.318 7.311,2.078 8.867 C 1.995 9.402,1.995 10.598,2.078 11.133 C 2.628 14.691,5.309 17.372,8.867 17.922 C 9.402 18.005,10.598 18.005,11.133 17.922 C 12.644 17.689,14.032 17.061,15.183 16.090 C 16.447 15.024,17.377 13.512,17.778 11.866 C 17.938 11.208,17.982 10.810,17.982 10.000 C 17.982 9.447,17.966 9.149,17.922 8.867 C 17.533 6.348,16.075 4.235,13.882 3.012 C 13.033 2.539,12.144 2.239,11.133 2.084 C 10.800 2.033,9.680 1.991,9.433 2.019 M13.603 9.344 C 13.777 9.435,13.951 9.673,13.983 9.866 C 14.037 10.187,13.872 10.518,13.584 10.665 L 13.418 10.750 10.000 10.750 L 6.582 10.750 6.416 10.665 C 6.128 10.518,5.963 10.187,6.017 9.866 C 6.049 9.673,6.223 9.435,6.397 9.344 L 6.544 9.267 10.000 9.267 L 13.456 9.267 13.603 9.344 " fill="#0F172A" stroke="none" fill-rule="evenodd"></path></svg>