<svg width="20" height="20" viewBox="0 0 20 20" fill="none" xmlns="http://www.w3.org/2000/svg"><path d="M6.763 1.878 C 6.386 2.017,5.504 2.594,4.983 3.040 C 3.323 4.464,2.301 6.398,2.048 8.600 C 1.953 9.426,2.012 10.482,2.201 11.333 C 2.475 12.570,3.023 13.725,3.829 14.767 C 4.111 15.131,4.869 15.889,5.233 16.171 C 6.286 16.985,7.490 17.551,8.733 17.815 C 9.748 18.030,10.920 18.054,11.933 17.880 C 13.968 17.530,15.865 16.405,17.154 14.785 C 17.834 13.930,18.417 12.789,18.684 11.791 C 18.781 11.431,18.784 11.358,18.715 11.163 C 18.614 10.875,18.325 10.669,18.022 10.667 C 17.898 10.667,17.768 10.707,17.472 10.838 C 16.203 11.400,14.955 11.603,13.700 11.452 C 12.142 11.263,10.773 10.618,9.671 9.551 C 9.017 8.918,8.611 8.361,8.217 7.557 C 7.929 6.968,7.767 6.498,7.652 5.925 C 7.454 4.929,7.454 4.059,7.652 3.084 C 7.743 2.639,7.749 2.540,7.698 2.357 C 7.599 2.000,7.109 1.749,6.763 1.878 " fill="#0F172A" stroke="none" fill-rule="evenodd"></path></svg>