<svg width="20" height="20" viewBox="0 0 20 20" fill="none" xmlns="http://www.w3.org/2000/svg"><path d="M12.312 2.481 C 7.017 3.629,7.286 3.558,7.109 3.859 L 7.017 4.017 7.000 8.383 L 6.983 12.750 6.894 12.903 C 6.717 13.203,6.754 13.190,4.769 13.618 C 4.120 13.757,3.508 13.902,3.409 13.939 C 3.172 14.028,2.778 14.294,2.604 14.482 C 2.382 14.723,2.216 15.007,2.113 15.323 C 2.029 15.578,2.017 15.667,2.017 16.000 C 2.017 16.647,2.210 17.114,2.666 17.570 C 3.084 17.988,3.621 18.209,4.217 18.208 C 4.466 18.208,4.718 18.164,5.700 17.951 C 6.971 17.675,7.239 17.588,7.560 17.352 C 7.958 17.058,8.218 16.703,8.389 16.217 L 8.483 15.950 8.492 11.896 L 8.502 7.841 8.592 7.823 C 8.642 7.813,10.421 7.428,12.545 6.969 C 14.670 6.509,16.428 6.133,16.454 6.133 C 16.527 6.133,16.522 10.549,16.449 10.724 C 16.369 10.916,16.247 11.054,16.093 11.128 C 16.014 11.166,15.292 11.339,14.487 11.514 C 13.299 11.771,12.980 11.852,12.787 11.944 C 12.294 12.179,11.946 12.527,11.712 13.018 C 11.413 13.642,11.437 14.366,11.777 15.017 C 11.916 15.282,12.385 15.750,12.650 15.889 C 13.013 16.079,13.305 16.150,13.717 16.147 C 14.044 16.145,14.201 16.119,15.183 15.903 C 15.788 15.770,16.373 15.631,16.483 15.595 C 17.049 15.408,17.543 14.955,17.800 14.388 C 18.010 13.926,18.000 14.242,18.000 7.876 C 18.000 3.786,17.989 2.044,17.963 1.950 C 17.889 1.680,17.530 1.429,17.229 1.436 C 17.167 1.438,14.955 1.908,12.312 2.481 " fill="#0F172A" stroke="none" fill-rule="evenodd"></path></svg>