<svg width="20" height="20" viewBox="0 0 20 20" fill="none" xmlns="http://www.w3.org/2000/svg"><path d="M3.150 2.046 C 2.596 2.181,2.154 2.638,2.035 3.200 C 2.006 3.337,1.999 4.939,2.006 9.550 C 2.016 15.353,2.020 15.728,2.076 15.915 C 2.249 16.488,2.426 16.792,2.817 17.183 C 3.208 17.574,3.512 17.752,4.085 17.924 C 4.272 17.980,4.635 17.983,10.367 17.988 C 14.203 17.991,16.388 17.982,16.283 17.962 C 15.114 17.744,14.218 16.830,14.035 15.667 C 14.012 15.525,14.000 13.361,14.000 9.383 C 13.999 2.866,14.007 3.175,13.833 2.816 C 13.659 2.457,13.220 2.124,12.807 2.037 C 12.543 1.982,3.379 1.991,3.150 2.046 M10.479 5.041 C 10.660 5.094,10.906 5.340,10.959 5.521 C 11.017 5.715,11.017 8.286,10.959 8.479 C 10.904 8.664,10.656 8.916,10.483 8.963 C 10.298 9.014,5.702 9.014,5.517 8.963 C 5.346 8.916,5.084 8.652,5.036 8.477 C 4.987 8.303,4.988 5.695,5.036 5.521 C 5.081 5.360,5.350 5.083,5.505 5.038 C 5.681 4.987,10.308 4.990,10.479 5.041 M15.508 11.025 L 15.517 15.550 15.610 15.750 C 15.733 16.013,15.989 16.271,16.247 16.388 C 16.421 16.469,16.492 16.482,16.750 16.482 C 17.008 16.482,17.079 16.469,17.253 16.388 C 17.511 16.271,17.767 16.013,17.890 15.750 L 17.983 15.550 17.993 11.733 C 18.001 8.978,17.993 7.861,17.965 7.717 C 17.882 7.279,17.576 6.873,17.179 6.673 C 16.895 6.531,16.698 6.500,16.064 6.500 L 15.499 6.500 15.508 11.025 M10.479 10.541 C 10.750 10.621,11.000 10.961,11.000 11.250 C 11.000 11.537,10.743 11.892,10.483 11.963 C 10.393 11.988,9.598 12.000,8.000 12.000 C 6.402 12.000,5.607 11.988,5.517 11.963 C 5.430 11.940,5.328 11.870,5.227 11.766 C 5.013 11.545,4.954 11.316,5.036 11.021 C 5.081 10.860,5.350 10.583,5.505 10.538 C 5.681 10.487,10.308 10.490,10.479 10.541 M10.479 13.541 C 10.750 13.621,11.000 13.961,11.000 14.250 C 11.000 14.537,10.743 14.892,10.483 14.963 C 10.393 14.988,9.598 15.000,8.000 15.000 C 6.402 15.000,5.607 14.988,5.517 14.963 C 5.430 14.940,5.328 14.870,5.227 14.766 C 5.013 14.545,4.954 14.316,5.036 14.021 C 5.081 13.860,5.350 13.583,5.505 13.538 C 5.681 13.487,10.308 13.490,10.479 13.541 " fill="#0F172A" stroke="none" fill-rule="evenodd"></path></svg>