<svg width="20" height="20" viewBox="0 0 20 20" fill="none" xmlns="http://www.w3.org/2000/svg"><path d="M9.433 2.019 C 9.369 2.027,9.177 2.049,9.007 2.069 C 7.090 2.292,5.164 3.324,3.941 4.782 C 2.913 6.007,2.318 7.311,2.078 8.867 C 1.995 9.402,1.995 10.598,2.078 11.133 C 2.628 14.691,5.309 17.372,8.867 17.922 C 9.402 18.005,10.598 18.005,11.133 17.922 C 12.644 17.689,14.032 17.061,15.183 16.090 C 16.447 15.024,17.377 13.512,17.778 11.866 C 17.938 11.208,17.982 10.810,17.982 10.000 C 17.982 9.447,17.966 9.149,17.922 8.867 C 17.533 6.348,16.075 4.235,13.882 3.012 C 13.033 2.539,12.144 2.239,11.133 2.084 C 10.800 2.033,9.680 1.991,9.433 2.019 M10.605 3.534 C 12.086 3.681,13.411 4.284,14.475 5.296 C 16.528 7.250,17.078 10.304,15.835 12.850 C 15.651 13.226,15.229 13.907,15.127 13.992 C 15.089 14.023,14.217 13.167,10.519 9.469 L 5.957 4.907 6.165 4.754 C 7.422 3.828,9.053 3.380,10.605 3.534 M13.993 15.125 C 13.906 15.230,13.228 15.651,12.854 15.833 C 9.829 17.306,6.244 16.264,4.460 13.393 C 3.472 11.803,3.237 9.752,3.836 7.951 C 4.049 7.312,4.372 6.684,4.754 6.165 L 4.907 5.957 9.469 10.519 C 13.093 14.143,14.023 15.089,13.993 15.125 " fill="#0F172A" stroke="none" fill-rule="evenodd"></path></svg>