<svg width="20" height="20" viewBox="0 0 20 20" fill="none" xmlns="http://www.w3.org/2000/svg"><path d="M16.833 1.021 C 16.681 1.050,16.419 1.142,16.263 1.220 C 16.111 1.296,11.011 5.175,10.333 5.730 C 9.411 6.486,8.540 7.454,7.843 8.500 C 7.594 8.874,7.151 9.630,7.171 9.647 C 7.178 9.653,7.306 9.698,7.456 9.747 C 8.091 9.957,8.638 10.304,9.167 10.833 C 9.696 11.362,10.043 11.909,10.253 12.544 C 10.302 12.694,10.347 12.822,10.353 12.829 C 10.373 12.853,11.161 12.384,11.608 12.080 C 12.695 11.344,13.595 10.511,14.422 9.476 C 15.298 8.380,18.658 3.953,18.774 3.742 C 19.083 3.182,19.064 2.470,18.725 1.896 C 18.524 1.555,18.098 1.221,17.702 1.096 C 17.489 1.029,17.009 0.987,16.833 1.021 M5.550 11.035 C 4.370 11.219,3.387 12.108,3.101 13.250 C 3.064 13.397,3.021 13.669,3.005 13.854 C 2.974 14.234,2.917 14.353,2.721 14.446 C 2.569 14.518,2.455 14.514,2.217 14.431 C 1.994 14.352,1.802 14.364,1.601 14.467 C 1.443 14.548,1.351 14.652,1.264 14.848 C 1.155 15.094,1.188 15.290,1.412 15.746 C 2.627 18.220,5.875 18.764,7.820 16.820 C 8.407 16.232,8.793 15.500,8.937 14.700 C 9.000 14.347,8.992 13.608,8.922 13.322 C 8.654 12.229,7.815 11.374,6.740 11.097 C 6.442 11.020,5.844 10.989,5.550 11.035 " fill="#0F172A" stroke="none" fill-rule="evenodd"></path></svg>