<svg width="20" height="20" viewBox="0 0 20 20" fill="none" xmlns="http://www.w3.org/2000/svg"><path d="M12.937 2.035 C 12.189 2.129,11.401 2.452,10.783 2.920 C 10.655 3.017,8.838 4.811,6.746 6.906 C 2.724 10.936,2.775 10.881,2.473 11.486 C 2.063 12.307,1.910 13.335,2.065 14.238 C 2.234 15.225,2.678 16.055,3.411 16.756 C 3.909 17.232,4.383 17.522,5.036 17.749 C 5.979 18.078,7.019 18.078,7.967 17.749 C 8.708 17.492,9.192 17.167,9.888 16.461 C 10.341 16.002,10.399 15.909,10.400 15.646 C 10.400 15.493,10.310 15.265,10.207 15.155 C 10.090 15.030,9.815 14.901,9.667 14.901 C 9.403 14.900,9.312 14.956,8.843 15.404 C 8.213 16.007,7.897 16.210,7.310 16.389 C 7.046 16.469,6.966 16.478,6.500 16.478 C 6.034 16.478,5.954 16.469,5.690 16.389 C 4.648 16.071,3.876 15.282,3.596 14.250 C 3.493 13.869,3.493 13.132,3.596 12.750 C 3.685 12.418,3.855 12.056,4.056 11.770 C 4.239 11.507,11.215 4.504,11.617 4.179 C 11.931 3.924,12.377 3.694,12.750 3.595 C 13.130 3.493,13.869 3.493,14.250 3.595 C 14.836 3.750,15.458 4.157,15.835 4.632 C 16.078 4.937,16.311 5.395,16.405 5.750 C 16.507 6.131,16.507 6.869,16.405 7.250 C 16.314 7.594,16.079 8.061,15.858 8.338 C 15.604 8.656,12.192 12.163,12.011 12.292 C 11.454 12.688,10.695 12.490,10.361 11.862 C 10.295 11.738,10.284 11.667,10.284 11.383 C 10.283 11.099,10.295 11.025,10.364 10.883 C 10.426 10.753,10.851 10.307,12.301 8.850 C 13.818 7.326,14.167 6.959,14.201 6.851 C 14.320 6.477,14.158 6.088,13.817 5.930 C 13.642 5.849,13.357 5.849,13.183 5.930 C 13.093 5.973,12.436 6.610,11.129 7.921 L 9.208 9.850 9.054 10.167 C 8.839 10.607,8.762 10.928,8.762 11.383 C 8.762 12.566,9.529 13.572,10.685 13.907 C 10.907 13.971,11.024 13.983,11.400 13.980 C 11.797 13.978,11.883 13.967,12.133 13.885 C 12.801 13.667,12.817 13.653,14.988 11.423 C 16.042 10.341,16.998 9.330,17.114 9.176 C 17.831 8.221,18.138 6.945,17.935 5.762 C 17.767 4.777,17.321 3.943,16.593 3.248 C 15.958 2.642,15.234 2.267,14.350 2.084 C 14.030 2.018,13.279 1.992,12.937 2.035 " fill="#0F172A" stroke="none" fill-rule="evenodd"></path></svg>