<svg width="20" height="20" viewBox="0 0 20 20" fill="none" xmlns="http://www.w3.org/2000/svg"><path d="M2.683 2.355 C 2.422 2.493,2.257 2.749,2.257 3.016 C 2.257 3.235,3.691 8.230,3.824 8.474 C 3.945 8.697,4.219 8.965,4.439 9.076 C 4.815 9.266,4.797 9.265,8.270 9.266 L 11.456 9.267 11.603 9.344 C 11.777 9.435,11.951 9.673,11.983 9.866 C 12.037 10.187,11.872 10.518,11.584 10.665 L 11.419 10.750 8.082 10.767 L 4.746 10.783 4.490 10.910 C 4.200 11.053,3.960 11.276,3.823 11.528 C 3.691 11.770,2.257 16.766,2.257 16.984 C 2.257 17.309,2.518 17.629,2.839 17.698 C 2.978 17.728,3.100 17.718,3.611 17.635 C 7.775 16.958,11.676 15.421,15.146 13.090 C 16.597 12.116,18.427 10.634,18.571 10.317 C 18.606 10.240,18.632 10.106,18.632 10.000 C 18.632 9.649,18.531 9.529,17.550 8.712 C 13.590 5.415,8.824 3.229,3.785 2.399 C 3.116 2.288,2.832 2.277,2.683 2.355 " fill="#0F172A" stroke="none" fill-rule="evenodd"></path></svg>