<svg width="20" height="20" viewBox="0 0 20 20" fill="none" xmlns="http://www.w3.org/2000/svg"><path d="M9.433 2.019 C 9.369 2.027,9.177 2.049,9.007 2.069 C 7.090 2.292,5.164 3.324,3.941 4.782 C 2.913 6.007,2.318 7.311,2.078 8.867 C 1.995 9.402,1.995 10.598,2.078 11.133 C 2.628 14.691,5.309 17.372,8.867 17.922 C 9.402 18.005,10.598 18.005,11.133 17.922 C 12.644 17.689,14.032 17.061,15.183 16.090 C 16.447 15.024,17.377 13.512,17.778 11.866 C 17.938 11.208,17.982 10.810,17.982 10.000 C 17.982 9.447,17.966 9.149,17.922 8.867 C 17.533 6.348,16.075 4.235,13.882 3.012 C 13.033 2.539,12.144 2.239,11.133 2.084 C 10.800 2.033,9.680 1.991,9.433 2.019 M8.479 7.041 C 8.660 7.094,8.906 7.340,8.959 7.521 C 9.018 7.718,9.018 12.283,8.959 12.479 C 8.904 12.664,8.656 12.916,8.483 12.963 C 8.311 13.010,7.689 13.010,7.517 12.963 C 7.346 12.916,7.084 12.652,7.036 12.477 C 6.986 12.300,6.987 7.699,7.036 7.521 C 7.081 7.360,7.350 7.083,7.505 7.038 C 7.667 6.991,8.319 6.993,8.479 7.041 M12.479 7.041 C 12.660 7.094,12.906 7.340,12.959 7.521 C 13.018 7.718,13.018 12.283,12.959 12.479 C 12.904 12.664,12.656 12.916,12.483 12.963 C 12.311 13.010,11.689 13.010,11.517 12.963 C 11.346 12.916,11.084 12.652,11.036 12.477 C 10.986 12.300,10.987 7.699,11.036 7.521 C 11.081 7.360,11.350 7.083,11.505 7.038 C 11.667 6.991,12.319 6.993,12.479 7.041 " fill="#0F172A" stroke="none" fill-rule="evenodd"></path></svg>