<svg width="20" height="20" viewBox="0 0 20 20" fill="none" xmlns="http://www.w3.org/2000/svg"><path d="M5.507 3.038 C 5.347 3.084,5.081 3.355,5.037 3.517 C 4.985 3.707,4.985 16.296,5.037 16.483 C 5.086 16.660,5.340 16.914,5.517 16.963 C 5.696 17.012,7.304 17.012,7.483 16.963 C 7.660 16.914,7.914 16.660,7.963 16.483 C 8.015 16.296,8.015 3.707,7.963 3.517 C 7.916 3.344,7.664 3.096,7.479 3.041 C 7.314 2.992,5.677 2.989,5.507 3.038 M12.505 3.038 C 12.350 3.083,12.081 3.360,12.036 3.521 C 11.986 3.703,11.986 16.297,12.036 16.479 C 12.084 16.651,12.341 16.906,12.521 16.959 C 12.710 17.016,14.290 17.016,14.479 16.959 C 14.660 16.906,14.906 16.660,14.959 16.479 C 15.019 16.280,15.019 3.720,14.959 3.521 C 14.906 3.340,14.660 3.094,14.479 3.041 C 14.313 2.991,12.675 2.989,12.505 3.038 " fill="#0F172A" stroke="none" fill-rule="evenodd"></path></svg>