<svg width="20" height="20" viewBox="0 0 20 20" fill="none" xmlns="http://www.w3.org/2000/svg"><path d="M15.474 1.948 C 15.176 2.020,14.827 2.217,14.529 2.479 C 14.032 2.918,7.384 9.609,7.206 9.850 C 7.111 9.978,6.967 10.211,6.886 10.367 C 6.669 10.787,5.400 13.981,5.400 14.108 C 5.400 14.247,5.492 14.427,5.605 14.510 C 5.653 14.545,5.758 14.581,5.838 14.590 C 5.968 14.605,6.164 14.535,7.667 13.934 C 9.448 13.222,9.785 13.067,10.133 12.802 C 10.252 12.712,12.018 10.968,14.057 8.927 L 17.764 5.217 17.895 4.933 C 18.063 4.569,18.114 4.351,18.114 4.000 C 18.114 3.644,18.062 3.425,17.892 3.067 C 17.702 2.667,17.334 2.298,16.933 2.108 C 16.777 2.033,16.571 1.956,16.473 1.936 C 16.240 1.888,15.695 1.895,15.474 1.948 M4.250 3.049 C 3.698 3.153,3.221 3.406,2.813 3.814 C 2.392 4.234,2.126 4.754,2.035 5.333 C 1.988 5.631,1.988 15.369,2.035 15.667 C 2.220 16.844,3.156 17.780,4.333 17.965 C 4.631 18.012,14.369 18.012,14.667 17.965 C 15.657 17.809,16.504 17.107,16.837 16.167 C 16.999 15.710,17.004 15.588,16.993 12.583 L 16.983 9.783 16.890 9.624 C 16.838 9.537,16.734 9.424,16.659 9.374 C 16.538 9.294,16.490 9.283,16.250 9.283 C 16.010 9.283,15.962 9.294,15.841 9.374 C 15.766 9.424,15.662 9.537,15.610 9.624 L 15.517 9.783 15.500 12.667 L 15.483 15.550 15.390 15.750 C 15.268 16.013,15.011 16.270,14.753 16.389 L 14.550 16.483 9.500 16.483 L 4.450 16.483 4.233 16.380 C 3.958 16.249,3.751 16.042,3.620 15.767 L 3.517 15.550 3.517 10.500 L 3.517 5.450 3.620 5.233 C 3.751 4.958,3.958 4.751,4.233 4.620 L 4.450 4.517 7.333 4.500 L 10.217 4.483 10.376 4.390 C 10.463 4.338,10.576 4.234,10.626 4.159 C 10.706 4.038,10.717 3.990,10.717 3.750 C 10.717 3.510,10.706 3.462,10.626 3.341 C 10.576 3.266,10.463 3.162,10.376 3.110 L 10.217 3.017 7.350 3.011 C 5.104 3.007,4.433 3.015,4.250 3.049 " fill="#0F172A" stroke="none" fill-rule="evenodd"></path></svg>