<svg width="20" height="20" viewBox="0 0 20 20" fill="none" xmlns="http://www.w3.org/2000/svg"><path d="M15.467 1.953 C 15.366 1.979,15.171 2.055,15.033 2.121 C 14.788 2.239,14.666 2.358,9.073 7.945 C 5.932 11.083,3.288 13.748,3.198 13.867 C 2.933 14.214,2.778 14.552,2.066 16.333 C 1.465 17.836,1.395 18.032,1.410 18.162 C 1.419 18.242,1.455 18.347,1.490 18.395 C 1.573 18.508,1.753 18.600,1.892 18.600 C 2.019 18.600,5.213 17.331,5.633 17.114 C 5.789 17.033,6.022 16.889,6.150 16.795 C 6.388 16.619,17.056 5.995,17.525 5.467 C 17.927 5.014,18.114 4.548,18.114 4.000 C 18.114 3.644,18.062 3.425,17.892 3.067 C 17.639 2.534,17.104 2.099,16.518 1.951 C 16.268 1.887,15.712 1.888,15.467 1.953 " fill="#0F172A" stroke="none" fill-rule="evenodd"></path></svg>