<svg width="20" height="20" viewBox="0 0 20 20" fill="none" xmlns="http://www.w3.org/2000/svg"><path d="M3.150 2.046 C 2.596 2.181,2.158 2.634,2.033 3.202 C 1.973 3.474,2.009 5.936,2.081 6.500 C 2.495 9.744,3.980 12.596,6.350 14.698 C 8.378 16.497,10.758 17.569,13.500 17.919 C 14.064 17.991,16.526 18.027,16.798 17.967 C 17.098 17.901,17.334 17.771,17.552 17.552 C 17.765 17.339,17.876 17.147,17.953 16.858 C 18.021 16.601,18.018 15.251,17.949 14.984 C 17.842 14.573,17.577 14.237,17.202 14.037 C 17.025 13.943,16.736 13.868,15.288 13.545 C 14.351 13.336,13.501 13.156,13.400 13.145 C 12.852 13.088,12.220 13.427,11.962 13.917 C 11.914 14.008,11.804 14.329,11.719 14.630 C 11.633 14.930,11.535 15.232,11.499 15.301 C 11.371 15.553,11.034 15.733,10.787 15.682 C 10.440 15.609,9.361 15.054,8.650 14.581 C 7.963 14.124,7.518 13.756,6.882 13.119 C 6.129 12.366,5.644 11.750,5.132 10.900 C 4.864 10.455,4.381 9.462,4.337 9.266 C 4.279 9.007,4.378 8.741,4.600 8.563 C 4.685 8.495,4.885 8.421,5.340 8.289 C 5.683 8.190,6.035 8.066,6.123 8.015 C 6.562 7.757,6.868 7.223,6.866 6.718 C 6.865 6.444,6.095 3.053,5.981 2.821 C 5.794 2.439,5.361 2.113,4.937 2.034 C 4.684 1.986,3.357 1.996,3.150 2.046 " fill="#0F172A" stroke="none" fill-rule="evenodd"></path></svg>