<svg width="20" height="20" viewBox="0 0 20 20" fill="none" xmlns="http://www.w3.org/2000/svg"><path d="M2.783 3.053 C 2.654 3.080,2.409 3.171,2.233 3.258 C 1.789 3.478,1.471 3.795,1.254 4.235 C 0.985 4.781,1.001 4.406,1.001 10.000 C 1.001 15.594,0.985 15.219,1.254 15.765 C 1.472 16.207,1.793 16.528,2.235 16.746 C 2.788 17.019,2.176 16.999,10.000 16.999 C 17.824 16.999,17.212 17.019,17.765 16.746 C 18.017 16.622,18.132 16.539,18.335 16.335 C 18.539 16.132,18.622 16.017,18.746 15.765 C 19.015 15.219,18.999 15.594,18.999 10.000 C 18.999 4.420,19.014 4.778,18.753 4.250 C 18.514 3.766,18.168 3.436,17.656 3.199 C 17.201 2.989,17.625 3.000,9.976 3.003 C 4.075 3.005,2.981 3.013,2.783 3.053 M11.448 6.114 C 11.796 6.284,11.982 6.592,11.983 7.000 C 11.983 7.207,11.967 7.282,11.890 7.441 C 11.665 7.898,11.132 8.111,10.657 7.933 C 10.059 7.709,9.823 6.998,10.166 6.456 C 10.432 6.037,10.987 5.889,11.448 6.114 M6.236 7.920 C 6.411 7.971,6.496 8.052,9.150 10.700 C 12.052 13.596,11.945 13.500,12.250 13.500 C 12.644 13.500,13.001 13.144,13.000 12.752 C 12.999 12.512,12.932 12.390,12.630 12.081 C 12.467 11.915,12.333 11.765,12.333 11.747 C 12.333 11.729,12.772 11.277,13.309 10.742 C 14.357 9.698,14.439 9.635,14.750 9.635 C 15.067 9.635,15.133 9.688,16.358 10.909 L 17.500 12.048 17.500 13.445 C 17.500 14.455,17.489 14.880,17.459 14.979 C 17.404 15.164,17.156 15.416,16.983 15.463 C 16.795 15.515,3.205 15.515,3.017 15.463 C 2.846 15.416,2.584 15.152,2.536 14.977 C 2.513 14.894,2.500 14.187,2.500 12.949 L 2.500 11.048 4.042 9.510 C 5.463 8.093,5.596 7.969,5.750 7.922 C 5.966 7.856,6.018 7.856,6.236 7.920 " fill="#0F172A" stroke="none" fill-rule="evenodd"></path></svg>