<svg width="20" height="20" viewBox="0 0 20 20" fill="none" xmlns="http://www.w3.org/2000/svg"><path d="M9.433 2.019 C 9.369 2.027,9.177 2.049,9.007 2.069 C 7.090 2.292,5.164 3.324,3.941 4.782 C 2.913 6.007,2.318 7.311,2.078 8.867 C 1.995 9.402,1.995 10.598,2.078 11.133 C 2.628 14.691,5.309 17.372,8.867 17.922 C 9.402 18.005,10.598 18.005,11.133 17.922 C 12.644 17.689,14.032 17.061,15.183 16.090 C 16.447 15.024,17.377 13.512,17.778 11.866 C 17.938 11.208,17.982 10.810,17.982 10.000 C 17.982 9.447,17.966 9.149,17.922 8.867 C 17.533 6.348,16.075 4.235,13.882 3.012 C 13.033 2.539,12.144 2.239,11.133 2.084 C 10.800 2.033,9.680 1.991,9.433 2.019 M8.963 7.037 C 9.029 7.057,9.916 7.609,10.933 8.263 C 12.649 9.367,12.790 9.465,12.883 9.616 C 12.968 9.754,12.983 9.811,12.983 10.000 C 12.983 10.189,12.968 10.246,12.882 10.386 C 12.788 10.539,12.657 10.630,10.936 11.738 C 9.921 12.391,9.035 12.942,8.966 12.963 C 8.810 13.010,8.687 13.010,8.517 12.963 C 8.344 12.916,8.096 12.664,8.041 12.479 C 7.982 12.283,7.982 7.718,8.041 7.521 C 8.091 7.352,8.349 7.083,8.505 7.038 C 8.659 6.994,8.820 6.993,8.963 7.037 " fill="#0F172A" stroke="none" fill-rule="evenodd"></path></svg>