<svg width="20" height="20" viewBox="0 0 20 20" fill="none" xmlns="http://www.w3.org/2000/svg"><path d="M12.507 4.038 C 12.347 4.084,12.081 4.355,12.037 4.517 C 11.985 4.706,11.985 15.296,12.037 15.483 C 12.086 15.660,12.340 15.914,12.517 15.963 C 12.689 16.010,13.311 16.010,13.483 15.963 C 13.660 15.914,13.914 15.660,13.963 15.483 C 14.015 15.296,14.015 4.706,13.963 4.517 C 13.916 4.344,13.664 4.096,13.479 4.041 C 13.320 3.993,12.668 3.991,12.507 4.038 M17.505 4.038 C 17.350 4.083,17.081 4.360,17.036 4.521 C 16.986 4.703,16.986 15.297,17.036 15.479 C 17.084 15.651,17.341 15.906,17.521 15.959 C 17.698 16.012,18.302 16.012,18.479 15.959 C 18.660 15.906,18.906 15.660,18.959 15.479 C 19.018 15.280,19.018 4.720,18.959 4.521 C 18.906 4.340,18.660 4.094,18.479 4.041 C 18.319 3.993,17.667 3.991,17.505 4.038 M2.101 4.651 C 1.575 4.799,1.130 5.276,1.033 5.796 C 0.988 6.043,0.988 13.960,1.034 14.204 C 1.135 14.741,1.587 15.213,2.133 15.353 C 2.399 15.421,2.775 15.402,3.017 15.309 C 3.108 15.274,4.653 14.339,6.450 13.231 C 8.943 11.693,9.757 11.176,9.889 11.043 C 10.452 10.476,10.452 9.524,9.889 8.957 C 9.757 8.824,8.943 8.307,6.450 6.769 C 4.653 5.661,3.108 4.726,3.017 4.690 C 2.791 4.603,2.342 4.584,2.101 4.651 " fill="#0F172A" stroke="none" fill-rule="evenodd"></path></svg>