<svg width="20" height="20" viewBox="0 0 20 20" fill="none" xmlns="http://www.w3.org/2000/svg"><path d="M5.233 2.638 C 4.821 2.704,4.343 3.053,4.169 3.413 C 3.993 3.776,4.001 3.458,4.001 10.000 C 4.001 16.542,3.993 16.224,4.169 16.587 C 4.269 16.795,4.577 17.104,4.792 17.212 C 5.193 17.416,5.646 17.445,6.025 17.292 C 6.333 17.168,15.685 11.258,15.889 11.059 C 16.502 10.462,16.484 9.478,15.851 8.912 C 15.727 8.801,13.850 7.598,10.946 5.769 C 8.359 4.140,6.194 2.782,6.135 2.751 C 6.015 2.689,5.628 2.599,5.500 2.604 C 5.454 2.606,5.334 2.621,5.233 2.638 " fill="#0F172A" stroke="none" fill-rule="evenodd"></path></svg>