<svg width="20" height="20" viewBox="0 0 20 20" fill="none" xmlns="http://www.w3.org/2000/svg"><path d="M9.758 4.046 C 9.564 4.118,9.414 4.250,9.328 4.424 L 9.250 4.583 9.241 6.924 L 9.232 9.265 6.852 9.274 L 4.472 9.283 4.328 9.384 C 4.144 9.511,4.000 9.781,4.000 9.998 C 4.001 10.345,4.258 10.657,4.603 10.731 C 4.712 10.754,5.540 10.767,7.002 10.767 L 9.233 10.767 9.233 12.998 C 9.233 14.460,9.246 15.288,9.269 15.397 C 9.343 15.742,9.655 15.999,10.002 16.000 C 10.338 16.000,10.658 15.736,10.731 15.397 C 10.754 15.288,10.767 14.460,10.767 12.998 L 10.767 10.767 12.998 10.767 C 14.460 10.767,15.288 10.754,15.397 10.731 C 15.761 10.653,16.023 10.312,15.993 9.954 C 15.975 9.727,15.841 9.495,15.659 9.374 L 15.522 9.283 13.144 9.274 L 10.767 9.265 10.766 7.008 C 10.765 5.589,10.752 4.694,10.731 4.600 C 10.683 4.390,10.561 4.219,10.386 4.116 C 10.204 4.010,9.936 3.979,9.758 4.046 " fill="#0F172A" stroke="none" fill-rule="evenodd"></path></svg>