<svg width="20" height="20" viewBox="0 0 20 20" fill="none" xmlns="http://www.w3.org/2000/svg"><path d="M9.758 6.046 C 9.564 6.118,9.414 6.250,9.328 6.424 C 9.251 6.582,9.250 6.593,9.240 7.924 L 9.230 9.265 7.851 9.274 L 6.472 9.283 6.328 9.384 C 6.144 9.511,6.000 9.781,6.000 9.998 C 6.001 10.345,6.258 10.657,6.603 10.731 C 6.705 10.753,7.251 10.767,8.002 10.767 L 9.233 10.767 9.233 11.998 C 9.233 12.749,9.247 13.295,9.269 13.397 C 9.343 13.742,9.655 13.999,10.002 14.000 C 10.338 14.000,10.658 13.736,10.731 13.397 C 10.753 13.295,10.767 12.749,10.767 11.998 L 10.767 10.767 11.998 10.767 C 12.749 10.767,13.295 10.753,13.397 10.731 C 13.761 10.653,14.023 10.312,13.993 9.954 C 13.975 9.727,13.841 9.495,13.659 9.374 L 13.522 9.283 12.144 9.274 L 10.767 9.265 10.766 8.007 C 10.765 7.272,10.751 6.688,10.731 6.600 C 10.683 6.390,10.561 6.219,10.386 6.116 C 10.204 6.010,9.936 5.979,9.758 6.046 " fill="#0F172A" stroke="none" fill-rule="evenodd"></path></svg>