<svg width="20" height="20" viewBox="0 0 20 20" fill="none" xmlns="http://www.w3.org/2000/svg"><path d="M9.433 2.019 C 9.369 2.027,9.177 2.049,9.007 2.069 C 7.090 2.292,5.164 3.324,3.941 4.782 C 2.913 6.007,2.318 7.311,2.078 8.867 C 1.995 9.402,1.995 10.598,2.078 11.133 C 2.628 14.691,5.309 17.372,8.867 17.922 C 9.402 18.005,10.598 18.005,11.133 17.922 C 12.644 17.689,14.032 17.061,15.183 16.090 C 16.447 15.024,17.377 13.512,17.778 11.866 C 17.938 11.208,17.982 10.810,17.982 10.000 C 17.982 9.447,17.966 9.149,17.922 8.867 C 17.533 6.348,16.075 4.235,13.882 3.012 C 13.033 2.539,12.144 2.239,11.133 2.084 C 10.800 2.033,9.680 1.991,9.433 2.019 M10.386 6.116 C 10.468 6.164,10.576 6.265,10.626 6.341 L 10.717 6.478 10.733 7.864 L 10.750 9.250 12.136 9.267 L 13.522 9.283 13.659 9.374 C 13.869 9.513,13.983 9.734,13.983 10.000 C 13.983 10.177,13.966 10.246,13.890 10.376 C 13.781 10.560,13.613 10.682,13.400 10.731 C 13.312 10.751,12.728 10.765,11.993 10.766 L 10.735 10.767 10.726 12.147 L 10.717 13.528 10.616 13.671 C 10.485 13.857,10.218 14.000,10.002 14.000 C 9.781 14.000,9.512 13.858,9.384 13.672 L 9.283 13.528 9.274 12.147 L 9.265 10.767 8.007 10.766 C 7.272 10.765,6.688 10.751,6.600 10.731 C 6.387 10.682,6.219 10.560,6.110 10.376 C 5.914 10.043,6.019 9.587,6.341 9.374 L 6.478 9.283 7.864 9.267 L 9.250 9.250 9.267 7.867 C 9.283 6.491,9.284 6.483,9.361 6.359 C 9.573 6.017,10.032 5.909,10.386 6.116 " fill="#0F172A" stroke="none" fill-rule="evenodd"></path></svg>