<svg width="20" height="20" viewBox="0 0 20 20" fill="none" xmlns="http://www.w3.org/2000/svg"><path d="M9.758 2.046 C 9.564 2.118,9.414 2.250,9.328 2.424 L 9.250 2.583 9.241 6.400 C 9.235 9.023,9.243 10.271,9.268 10.389 C 9.341 10.740,9.652 10.999,10.002 11.000 C 10.338 11.000,10.658 10.736,10.731 10.397 C 10.779 10.171,10.779 2.812,10.731 2.600 C 10.683 2.390,10.561 2.219,10.386 2.116 C 10.204 2.010,9.936 1.979,9.758 2.046 M4.601 4.186 C 4.417 4.266,4.287 4.381,3.990 4.726 C 2.942 5.942,2.323 7.283,2.078 8.867 C 1.995 9.402,1.995 10.598,2.078 11.133 C 2.341 12.834,3.072 14.326,4.246 15.562 C 4.714 16.054,5.556 16.692,6.202 17.043 C 7.804 17.912,9.717 18.201,11.533 17.848 C 12.565 17.647,13.528 17.253,14.404 16.671 C 15.343 16.047,16.045 15.345,16.671 14.404 C 18.440 11.741,18.440 8.261,16.671 5.596 C 16.362 5.131,15.819 4.469,15.626 4.321 C 15.211 4.005,14.690 4.101,14.466 4.535 C 14.295 4.869,14.359 5.138,14.700 5.512 C 15.404 6.284,15.858 7.037,16.155 7.924 C 17.087 10.710,16.042 13.775,13.604 15.405 C 11.662 16.704,9.133 16.853,7.053 15.791 C 4.721 14.599,3.313 12.094,3.527 9.514 C 3.655 7.963,4.213 6.705,5.300 5.512 C 5.641 5.138,5.705 4.869,5.534 4.535 C 5.360 4.197,4.939 4.039,4.601 4.186 " fill="#0F172A" stroke="none" fill-rule="evenodd"></path></svg>