<svg width="20" height="20" viewBox="0 0 20 20" fill="none" xmlns="http://www.w3.org/2000/svg"><path d="M1.507 2.038 C 1.347 2.084,1.081 2.355,1.037 2.517 C 0.954 2.819,1.015 3.057,1.229 3.271 C 1.400 3.442,1.549 3.500,1.824 3.500 L 1.999 3.500 2.008 8.108 C 2.017 12.413,2.021 12.730,2.076 12.915 C 2.248 13.487,2.426 13.792,2.817 14.183 C 3.126 14.492,3.353 14.649,3.693 14.786 C 4.118 14.957,4.243 14.976,5.052 14.992 L 5.820 15.006 5.410 16.578 C 5.185 17.443,5.000 18.195,5.000 18.250 C 5.000 18.450,5.073 18.615,5.229 18.771 C 5.527 19.070,5.924 19.080,6.245 18.797 C 6.404 18.658,6.396 18.676,6.585 18.042 C 6.595 18.009,7.307 18.000,10.000 18.000 C 12.693 18.000,13.405 18.009,13.415 18.042 C 13.604 18.676,13.596 18.658,13.755 18.797 C 14.076 19.080,14.473 19.070,14.771 18.771 C 14.927 18.615,15.000 18.450,15.000 18.250 C 15.000 18.195,14.815 17.443,14.590 16.578 L 14.180 15.006 14.948 14.992 C 15.757 14.976,15.882 14.957,16.307 14.786 C 16.647 14.649,16.874 14.492,17.183 14.183 C 17.574 13.792,17.752 13.487,17.924 12.915 C 17.979 12.730,17.983 12.413,17.992 8.108 L 18.001 3.500 18.176 3.500 C 18.451 3.500,18.600 3.442,18.771 3.271 C 18.985 3.057,19.046 2.819,18.963 2.517 C 18.916 2.344,18.664 2.096,18.479 2.041 C 18.307 1.990,1.685 1.986,1.507 2.038 M14.633 5.875 C 14.773 5.959,14.835 6.024,14.907 6.162 C 15.030 6.399,15.031 6.594,14.908 6.836 C 14.830 6.991,14.757 7.061,14.395 7.333 C 13.297 8.157,12.183 9.185,11.385 10.109 C 11.106 10.433,10.757 10.546,10.441 10.415 C 10.359 10.382,10.010 10.058,9.409 9.458 L 8.500 8.551 7.309 9.739 C 6.304 10.741,6.096 10.933,5.983 10.964 C 5.590 11.070,5.248 10.914,5.078 10.550 C 5.036 10.458,5.001 10.323,5.001 10.250 C 5.001 9.956,5.073 9.870,6.622 8.326 C 7.620 7.330,8.123 6.853,8.207 6.818 C 8.376 6.748,8.653 6.754,8.817 6.831 C 8.902 6.871,9.262 7.207,9.815 7.762 L 10.681 8.631 11.282 8.040 C 12.078 7.257,12.842 6.602,13.578 6.070 C 13.932 5.815,14.036 5.770,14.268 5.768 C 14.419 5.767,14.486 5.787,14.633 5.875 M12.633 15.017 C 12.633 15.026,12.716 15.347,12.817 15.730 C 12.917 16.113,13.000 16.443,13.000 16.463 C 13.000 16.490,12.153 16.500,10.000 16.500 C 7.847 16.500,7.000 16.490,7.000 16.463 C 7.000 16.443,7.082 16.113,7.183 15.730 C 7.284 15.347,7.367 15.026,7.367 15.017 C 7.367 15.008,8.552 15.000,10.000 15.000 C 11.448 15.000,12.633 15.008,12.633 15.017 " fill="#0F172A" stroke="none" fill-rule="evenodd"></path></svg>