<svg width="20" height="20" viewBox="0 0 20 20" fill="none" xmlns="http://www.w3.org/2000/svg"><path d="M1.507 2.038 C 1.347 2.084,1.081 2.355,1.037 2.517 C 0.954 2.819,1.015 3.057,1.229 3.271 C 1.400 3.442,1.549 3.500,1.824 3.500 L 1.999 3.500 2.008 8.108 C 2.017 12.413,2.021 12.730,2.076 12.915 C 2.248 13.487,2.426 13.792,2.817 14.183 C 3.126 14.492,3.353 14.649,3.693 14.786 C 4.118 14.957,4.243 14.976,5.052 14.992 L 5.820 15.006 5.410 16.578 C 5.185 17.443,5.000 18.195,5.000 18.250 C 5.000 18.450,5.073 18.615,5.229 18.771 C 5.527 19.070,5.924 19.080,6.245 18.797 C 6.404 18.658,6.396 18.676,6.585 18.042 C 6.595 18.009,7.307 18.000,10.000 18.000 C 12.693 18.000,13.405 18.009,13.415 18.042 C 13.604 18.676,13.596 18.658,13.755 18.797 C 14.076 19.080,14.473 19.070,14.771 18.771 C 14.927 18.615,15.000 18.450,15.000 18.250 C 15.000 18.195,14.815 17.443,14.590 16.578 L 14.180 15.006 14.948 14.992 C 15.757 14.976,15.882 14.957,16.307 14.786 C 16.647 14.649,16.874 14.492,17.183 14.183 C 17.574 13.792,17.752 13.487,17.924 12.915 C 17.979 12.730,17.983 12.413,17.992 8.108 L 18.001 3.500 18.176 3.500 C 18.451 3.500,18.600 3.442,18.771 3.271 C 18.985 3.057,19.046 2.819,18.963 2.517 C 18.916 2.344,18.664 2.096,18.479 2.041 C 18.307 1.990,1.685 1.986,1.507 2.038 M13.479 5.041 C 13.660 5.094,13.906 5.340,13.959 5.521 C 14.018 5.719,14.018 11.282,13.959 11.479 C 13.874 11.762,13.550 12.000,13.250 12.000 C 12.952 12.000,12.612 11.751,12.536 11.477 C 12.486 11.299,12.487 5.699,12.536 5.521 C 12.581 5.360,12.850 5.083,13.005 5.038 C 13.163 4.993,13.320 4.994,13.479 5.041 M10.386 7.116 C 10.468 7.164,10.576 7.266,10.626 7.341 L 10.717 7.478 10.717 9.503 L 10.717 11.528 10.616 11.671 C 10.485 11.857,10.218 12.000,10.002 12.000 C 9.781 12.000,9.512 11.858,9.384 11.672 L 9.283 11.528 9.274 9.543 C 9.265 7.577,9.266 7.556,9.336 7.411 C 9.518 7.035,10.011 6.897,10.386 7.116 M6.979 9.041 C 7.160 9.094,7.406 9.340,7.459 9.521 C 7.516 9.711,7.516 11.290,7.459 11.479 C 7.374 11.762,7.050 12.000,6.750 12.000 C 6.452 12.000,6.112 11.751,6.036 11.477 C 5.988 11.307,5.989 9.691,6.036 9.521 C 6.081 9.360,6.350 9.083,6.505 9.038 C 6.663 8.993,6.820 8.994,6.979 9.041 M12.633 15.017 C 12.633 15.026,12.716 15.347,12.817 15.730 C 12.917 16.113,13.000 16.443,13.000 16.463 C 13.000 16.490,12.153 16.500,10.000 16.500 C 7.847 16.500,7.000 16.490,7.000 16.463 C 7.000 16.443,7.082 16.113,7.183 15.730 C 7.284 15.347,7.367 15.026,7.367 15.017 C 7.367 15.008,8.552 15.000,10.000 15.000 C 11.448 15.000,12.633 15.008,12.633 15.017 " fill="#0F172A" stroke="none" fill-rule="evenodd"></path></svg>