<svg width="20" height="20" viewBox="0 0 20 20" fill="none" xmlns="http://www.w3.org/2000/svg"><path d="M6.467 1.023 C 5.771 1.143,5.178 1.712,5.037 2.393 C 5.013 2.509,5.000 3.211,5.000 4.435 C 5.000 5.461,4.996 6.300,4.992 6.300 C 4.814 6.302,3.594 6.515,3.452 6.568 C 2.912 6.771,2.496 7.144,2.251 7.642 C 1.998 8.157,2.000 8.134,2.001 10.711 C 2.001 13.286,1.998 13.246,2.254 13.765 C 2.378 14.017,2.461 14.131,2.663 14.333 C 3.078 14.745,3.559 14.958,4.168 14.996 L 4.487 15.017 4.329 16.033 C 4.242 16.592,4.170 17.136,4.169 17.240 C 4.160 18.042,4.714 18.745,5.515 18.949 C 5.688 18.993,6.272 19.000,10.000 19.000 C 14.708 19.000,14.453 19.011,14.891 18.797 C 15.437 18.532,15.838 17.874,15.831 17.251 C 15.830 17.141,15.758 16.592,15.671 16.033 L 15.513 15.017 15.832 14.996 C 16.441 14.958,16.922 14.745,17.337 14.333 C 17.539 14.131,17.622 14.017,17.746 13.765 C 18.002 13.246,17.999 13.286,17.999 10.711 C 18.000 8.122,18.003 8.154,17.743 7.635 C 17.538 7.226,17.232 6.909,16.848 6.710 C 16.509 6.534,16.330 6.485,15.717 6.401 C 15.442 6.363,15.168 6.324,15.108 6.315 L 15.000 6.297 15.000 4.433 C 15.000 3.211,14.987 2.509,14.963 2.393 C 14.842 1.808,14.409 1.320,13.807 1.089 L 13.617 1.017 10.083 1.012 C 8.140 1.010,6.513 1.015,6.467 1.023 M13.418 2.582 L 13.500 2.664 13.500 4.404 L 13.500 6.143 13.142 6.121 C 12.945 6.109,12.521 6.082,12.200 6.060 C 11.446 6.010,8.554 6.010,7.800 6.060 C 7.479 6.082,7.055 6.109,6.858 6.121 L 6.500 6.143 6.500 4.404 L 6.500 2.664 6.582 2.582 L 6.664 2.500 10.000 2.500 L 13.336 2.500 13.418 2.582 M13.547 12.575 C 13.627 12.647,13.645 12.746,13.982 14.941 C 14.175 16.201,14.333 17.255,14.333 17.284 C 14.333 17.313,14.297 17.373,14.252 17.418 L 14.170 17.500 10.000 17.500 L 5.830 17.500 5.748 17.418 C 5.703 17.373,5.667 17.313,5.667 17.284 C 5.667 17.255,5.825 16.201,6.018 14.941 C 6.355 12.746,6.373 12.647,6.453 12.575 L 6.537 12.500 10.000 12.500 L 13.463 12.500 13.547 12.575 " fill="#0F172A" stroke="none" fill-rule="evenodd"></path></svg>