<svg width="20" height="20" viewBox="0 0 20 20" fill="none" xmlns="http://www.w3.org/2000/svg"><path d="M10.517 1.047 C 9.868 1.174,9.331 1.547,9.106 2.026 C 9.031 2.186,9.017 2.262,9.017 2.500 C 9.017 2.881,9.102 3.061,9.476 3.465 C 9.632 3.633,9.810 3.864,9.871 3.977 C 9.970 4.162,9.982 4.211,9.981 4.450 C 9.980 4.660,9.965 4.747,9.907 4.857 C 9.805 5.052,9.646 5.226,9.503 5.298 C 9.243 5.431,9.137 5.440,8.440 5.384 C 7.756 5.330,6.437 5.189,6.072 5.131 C 5.957 5.113,5.807 5.108,5.739 5.119 C 5.442 5.171,5.166 5.443,5.117 5.731 C 5.105 5.800,5.127 6.088,5.164 6.370 C 5.322 7.557,5.439 8.989,5.397 9.213 C 5.342 9.507,5.160 9.750,4.886 9.893 C 4.744 9.968,4.673 9.982,4.450 9.983 C 4.210 9.983,4.163 9.972,3.977 9.872 C 3.864 9.810,3.633 9.632,3.465 9.476 C 3.062 9.104,2.883 9.018,2.499 9.017 C 2.245 9.017,2.192 9.028,1.994 9.125 C 1.706 9.268,1.399 9.591,1.246 9.914 C 1.068 10.293,1.018 10.528,1.018 11.000 C 1.018 11.472,1.068 11.707,1.246 12.086 C 1.399 12.409,1.706 12.732,1.994 12.875 C 2.191 12.972,2.246 12.983,2.499 12.983 C 2.870 12.983,3.066 12.894,3.422 12.564 C 3.898 12.122,4.218 11.969,4.577 12.012 C 4.918 12.052,5.202 12.253,5.375 12.576 C 5.445 12.707,5.450 12.754,5.444 13.250 C 5.435 13.996,5.345 15.126,5.198 16.359 C 5.162 16.658,5.142 16.943,5.154 16.993 C 5.214 17.242,5.390 17.457,5.609 17.549 C 5.806 17.631,7.198 17.795,8.604 17.901 C 9.122 17.940,9.255 17.925,9.504 17.798 C 9.686 17.705,9.882 17.463,9.949 17.247 C 10.081 16.829,9.951 16.478,9.476 15.965 C 9.104 15.562,9.018 15.383,9.017 14.999 C 9.017 14.745,9.028 14.692,9.125 14.494 C 9.328 14.082,9.814 13.723,10.367 13.577 C 10.663 13.498,11.337 13.498,11.633 13.577 C 12.186 13.723,12.672 14.082,12.875 14.494 C 12.972 14.692,12.983 14.745,12.983 14.999 C 12.982 15.383,12.897 15.560,12.520 15.970 C 12.347 16.157,12.190 16.367,12.128 16.490 C 11.914 16.922,11.981 17.352,12.315 17.686 C 12.579 17.950,12.710 17.982,13.431 17.954 C 14.668 17.905,16.786 17.700,17.140 17.594 C 17.326 17.539,17.539 17.326,17.594 17.140 C 17.700 16.786,17.905 14.668,17.954 13.431 C 17.973 12.929,17.969 12.823,17.920 12.676 C 17.807 12.336,17.451 12.056,17.077 12.012 C 16.718 11.969,16.398 12.122,15.922 12.564 C 15.566 12.894,15.370 12.983,14.999 12.983 C 14.746 12.983,14.691 12.972,14.494 12.875 C 14.082 12.672,13.723 12.186,13.577 11.633 C 13.498 11.337,13.498 10.663,13.577 10.367 C 13.723 9.814,14.082 9.328,14.494 9.125 C 14.692 9.028,14.745 9.017,14.999 9.017 C 15.383 9.018,15.562 9.104,15.965 9.476 C 16.133 9.632,16.364 9.810,16.477 9.872 C 16.663 9.972,16.710 9.983,16.950 9.983 C 17.173 9.982,17.244 9.968,17.383 9.894 C 17.595 9.782,17.743 9.628,17.840 9.417 C 17.905 9.274,17.916 9.201,17.911 8.917 C 17.898 8.155,17.645 5.838,17.549 5.609 C 17.437 5.340,17.178 5.165,16.891 5.163 C 16.795 5.162,16.379 5.200,15.967 5.247 C 15.092 5.347,14.168 5.421,13.417 5.453 C 12.974 5.472,12.851 5.467,12.697 5.422 C 12.346 5.320,12.058 4.965,12.012 4.577 C 11.969 4.218,12.122 3.898,12.564 3.422 C 12.894 3.066,12.983 2.870,12.983 2.499 C 12.983 2.246,12.972 2.191,12.875 1.994 C 12.674 1.587,12.183 1.221,11.650 1.082 C 11.368 1.009,10.802 0.991,10.517 1.047 " fill="#0F172A" stroke="none" fill-rule="evenodd"></path></svg>