<svg width="20" height="20" viewBox="0 0 20 20" fill="none" xmlns="http://www.w3.org/2000/svg"><path d="M3.467 2.022 C 2.769 2.145,2.178 2.712,2.037 3.393 C 1.986 3.637,1.986 7.363,2.037 7.607 C 2.172 8.261,2.739 8.828,3.393 8.963 C 3.637 9.014,7.363 9.014,7.607 8.963 C 8.261 8.828,8.828 8.261,8.963 7.607 C 9.014 7.363,9.014 3.637,8.963 3.393 C 8.842 2.808,8.407 2.318,7.807 2.090 C 7.620 2.019,7.580 2.018,5.583 2.013 C 4.465 2.010,3.512 2.014,3.467 2.022 M12.467 2.022 C 11.769 2.145,11.178 2.712,11.037 3.393 C 10.986 3.637,10.986 7.363,11.037 7.607 C 11.172 8.261,11.739 8.828,12.393 8.963 C 12.637 9.014,16.363 9.014,16.607 8.963 C 17.261 8.828,17.828 8.261,17.963 7.607 C 18.014 7.363,18.014 3.637,17.963 3.393 C 17.842 2.808,17.407 2.318,16.807 2.090 C 16.620 2.019,16.580 2.018,14.583 2.013 C 13.465 2.010,12.512 2.014,12.467 2.022 M7.418 3.582 L 7.500 3.664 7.500 5.500 L 7.500 7.336 7.418 7.418 L 7.336 7.500 5.500 7.500 L 3.664 7.500 3.582 7.418 L 3.500 7.336 3.500 5.500 L 3.500 3.664 3.582 3.582 L 3.664 3.500 5.500 3.500 L 7.336 3.500 7.418 3.582 M16.418 3.582 L 16.500 3.664 16.500 5.500 L 16.500 7.336 16.418 7.418 L 16.336 7.500 14.500 7.500 L 12.664 7.500 12.582 7.418 L 12.500 7.336 12.500 5.500 L 12.500 3.664 12.582 3.582 L 12.664 3.500 14.500 3.500 L 16.336 3.500 16.418 3.582 M5.250 4.529 C 4.945 4.610,4.648 4.878,4.553 5.158 C 4.428 5.524,4.522 5.943,4.789 6.211 C 5.159 6.580,5.762 6.602,6.150 6.260 C 6.824 5.666,6.450 4.563,5.559 4.514 C 5.444 4.508,5.305 4.515,5.250 4.529 M14.250 4.529 C 13.945 4.610,13.648 4.878,13.553 5.158 C 13.428 5.524,13.522 5.943,13.789 6.211 C 14.159 6.580,14.762 6.602,15.150 6.260 C 15.824 5.666,15.450 4.563,14.559 4.514 C 14.444 4.508,14.305 4.515,14.250 4.529 M3.467 11.022 C 2.769 11.145,2.178 11.712,2.037 12.393 C 1.986 12.637,1.986 16.363,2.037 16.607 C 2.172 17.261,2.739 17.828,3.393 17.963 C 3.637 18.014,7.363 18.014,7.607 17.963 C 8.261 17.828,8.828 17.261,8.963 16.607 C 9.014 16.363,9.014 12.637,8.963 12.393 C 8.842 11.808,8.407 11.318,7.807 11.090 C 7.620 11.019,7.580 11.018,5.583 11.013 C 4.465 11.010,3.512 11.014,3.467 11.022 M11.750 11.029 C 11.445 11.110,11.148 11.378,11.053 11.658 C 10.928 12.024,11.022 12.443,11.289 12.711 C 11.659 13.080,12.262 13.102,12.650 12.760 C 13.324 12.166,12.950 11.063,12.059 11.014 C 11.944 11.008,11.805 11.015,11.750 11.029 M16.750 11.029 C 16.445 11.110,16.148 11.378,16.053 11.658 C 15.928 12.024,16.022 12.443,16.289 12.711 C 16.659 13.080,17.262 13.102,17.650 12.760 C 18.324 12.166,17.950 11.063,17.059 11.014 C 16.944 11.008,16.805 11.015,16.750 11.029 M7.418 12.582 L 7.500 12.664 7.500 14.500 L 7.500 16.336 7.418 16.418 L 7.336 16.500 5.500 16.500 L 3.664 16.500 3.582 16.418 L 3.500 16.336 3.500 14.500 L 3.500 12.664 3.582 12.582 L 3.664 12.500 5.500 12.500 L 7.336 12.500 7.418 12.582 M5.250 13.529 C 4.945 13.610,4.648 13.878,4.553 14.158 C 4.428 14.524,4.522 14.943,4.789 15.211 C 5.159 15.580,5.762 15.602,6.150 15.260 C 6.824 14.666,6.450 13.563,5.559 13.514 C 5.444 13.508,5.305 13.515,5.250 13.529 M14.250 13.529 C 13.945 13.610,13.648 13.878,13.553 14.158 C 13.428 14.524,13.522 14.943,13.789 15.211 C 14.159 15.580,14.762 15.602,15.150 15.260 C 15.824 14.666,15.450 13.563,14.559 13.514 C 14.444 13.508,14.305 13.515,14.250 13.529 M11.750 16.029 C 11.445 16.110,11.148 16.378,11.053 16.658 C 10.928 17.024,11.022 17.443,11.289 17.711 C 11.659 18.080,12.262 18.102,12.650 17.760 C 13.324 17.166,12.950 16.063,12.059 16.014 C 11.944 16.008,11.805 16.015,11.750 16.029 M16.750 16.029 C 16.445 16.110,16.148 16.378,16.053 16.658 C 15.928 17.024,16.022 17.443,16.289 17.711 C 16.659 18.080,17.262 18.102,17.650 17.760 C 18.324 17.166,17.950 16.063,17.059 16.014 C 16.944 16.008,16.805 16.015,16.750 16.029 " fill="#0F172A" stroke="none" fill-rule="evenodd"></path></svg>