<svg width="20" height="20" viewBox="0 0 20 20" fill="none" xmlns="http://www.w3.org/2000/svg"><path d="M9.433 2.019 C 9.369 2.027,9.177 2.049,9.007 2.069 C 7.090 2.292,5.164 3.324,3.941 4.782 C 2.913 6.007,2.318 7.311,2.078 8.867 C 1.995 9.402,1.995 10.598,2.078 11.133 C 2.628 14.691,5.309 17.372,8.867 17.922 C 9.402 18.005,10.598 18.005,11.133 17.922 C 12.644 17.689,14.032 17.061,15.183 16.090 C 16.447 15.024,17.377 13.512,17.778 11.866 C 17.938 11.208,17.982 10.810,17.982 10.000 C 17.982 9.447,17.966 9.149,17.922 8.867 C 17.533 6.348,16.075 4.235,13.882 3.012 C 13.033 2.539,12.144 2.239,11.133 2.084 C 10.800 2.033,9.680 1.991,9.433 2.019 M10.750 5.098 C 11.555 5.301,12.296 5.908,12.683 6.680 C 12.914 7.143,12.976 7.421,12.976 8.000 C 12.976 8.580,12.914 8.857,12.682 9.322 C 12.321 10.043,11.651 10.627,10.928 10.852 L 10.739 10.910 10.728 11.219 C 10.718 11.499,10.707 11.541,10.616 11.671 C 10.485 11.857,10.218 12.000,10.002 12.000 C 9.781 12.000,9.512 11.858,9.384 11.672 L 9.283 11.527 9.283 10.955 C 9.283 10.394,9.285 10.380,9.376 10.207 C 9.574 9.832,9.843 9.624,10.338 9.464 C 10.706 9.344,10.913 9.220,11.114 8.996 C 11.762 8.276,11.560 7.138,10.706 6.689 C 10.134 6.388,9.482 6.468,8.984 6.899 C 8.707 7.140,8.483 7.208,8.218 7.134 C 7.762 7.006,7.540 6.500,7.753 6.073 C 7.817 5.944,7.908 5.845,8.110 5.683 C 8.548 5.333,9.030 5.116,9.550 5.035 C 9.845 4.989,10.441 5.020,10.750 5.098 M10.448 13.114 C 10.796 13.284,10.982 13.592,10.983 14.000 C 10.983 14.207,10.967 14.282,10.890 14.441 C 10.777 14.670,10.586 14.842,10.343 14.933 C 9.608 15.208,8.849 14.536,9.032 13.772 C 9.183 13.145,9.863 12.828,10.448 13.114 " fill="#0F172A" stroke="none" fill-rule="evenodd"></path></svg>