<svg width="20" height="20" viewBox="0 0 20 20" fill="none" xmlns="http://www.w3.org/2000/svg"><path d="M4.086 2.035 C 3.535 2.128,2.965 2.457,2.586 2.900 C 1.989 3.598,1.838 4.584,2.195 5.459 C 2.434 6.048,2.952 6.566,3.541 6.805 C 4.043 7.010,3.720 7.000,10.000 7.000 C 16.279 7.000,15.957 7.010,16.458 6.806 C 17.042 6.568,17.568 6.042,17.806 5.458 C 18.310 4.218,17.781 2.837,16.580 2.260 C 16.031 1.996,16.636 2.019,10.100 2.013 C 6.882 2.010,4.176 2.020,4.086 2.035 M2.397 9.177 C 2.223 9.268,2.049 9.506,2.017 9.699 C 1.964 10.010,2.128 10.349,2.397 10.490 L 2.545 10.567 10.033 10.559 L 17.522 10.550 17.659 10.459 C 18.095 10.170,18.095 9.496,17.659 9.208 L 17.522 9.117 10.033 9.108 L 2.545 9.100 2.397 9.177 M2.483 12.717 C 2.223 12.809,2.001 13.129,2.000 13.413 C 2.000 13.675,2.168 13.946,2.412 14.076 L 2.550 14.150 10.000 14.150 L 17.450 14.150 17.588 14.076 C 17.917 13.900,18.064 13.549,17.963 13.183 C 17.914 13.006,17.660 12.753,17.483 12.704 C 17.388 12.677,15.272 12.667,9.983 12.668 C 3.717 12.669,2.597 12.677,2.483 12.717 M2.397 16.343 C 2.223 16.435,2.049 16.672,2.017 16.866 C 1.964 17.176,2.128 17.515,2.397 17.657 L 2.545 17.734 10.033 17.725 L 17.522 17.717 17.659 17.626 C 18.095 17.337,18.095 16.663,17.659 16.374 L 17.522 16.283 10.033 16.275 L 2.545 16.266 2.397 16.343 " fill="#0F172A" stroke="none" fill-rule="evenodd"></path></svg>