<svg width="20" height="20" viewBox="0 0 20 20" fill="none" xmlns="http://www.w3.org/2000/svg"><path d="M11.217 3.635 C 5.631 5.178,5.288 5.269,4.783 5.333 C 3.449 5.504,2.593 5.660,2.312 5.784 C 2.056 5.897,1.736 6.131,1.551 6.341 C 1.353 6.566,1.112 7.050,1.050 7.350 C 0.977 7.699,0.977 15.868,1.050 16.217 C 1.185 16.863,1.642 17.453,2.235 17.746 C 2.788 18.019,2.176 17.999,10.000 17.999 C 17.824 17.999,17.212 18.019,17.765 17.746 C 18.207 17.528,18.528 17.207,18.746 16.765 C 19.013 16.224,18.999 16.504,18.999 11.783 C 18.999 7.068,19.013 7.342,18.749 6.808 C 18.504 6.311,18.058 5.909,17.556 5.733 C 16.967 5.526,14.043 5.153,12.433 5.080 C 12.167 5.068,11.931 5.048,11.908 5.036 C 11.885 5.024,13.137 4.664,14.691 4.236 C 16.245 3.807,17.555 3.438,17.603 3.414 C 17.821 3.304,17.999 3.005,18.000 2.748 C 18.001 2.351,17.632 1.994,17.229 2.002 C 17.167 2.003,14.462 2.738,11.217 3.635 M7.384 8.115 C 7.601 8.242,7.711 8.425,7.727 8.684 C 7.743 8.937,7.695 9.099,7.555 9.258 C 7.416 9.416,7.226 9.499,7.000 9.499 C 6.428 9.499,6.071 8.912,6.333 8.402 C 6.525 8.027,7.009 7.895,7.384 8.115 M14.807 8.038 C 15.580 8.202,16.105 8.967,15.973 9.738 C 15.848 10.463,15.222 10.999,14.500 10.999 C 13.778 10.999,13.152 10.463,13.027 9.738 C 12.852 8.718,13.791 7.822,14.807 8.038 M4.993 9.018 C 5.542 9.248,5.592 10.053,5.075 10.357 C 4.945 10.433,4.877 10.450,4.697 10.450 C 4.511 10.450,4.453 10.435,4.315 10.349 C 4.215 10.287,4.113 10.186,4.053 10.088 C 3.824 9.718,3.993 9.196,4.400 9.020 C 4.552 8.954,4.837 8.953,4.993 9.018 M9.695 9.076 C 10.087 9.336,10.151 9.898,9.826 10.230 C 9.680 10.379,9.554 10.438,9.336 10.457 C 9.177 10.471,9.123 10.459,8.967 10.377 C 8.506 10.135,8.400 9.540,8.757 9.193 C 8.940 9.015,9.076 8.964,9.337 8.975 C 9.511 8.983,9.586 9.004,9.695 9.076 M6.326 10.330 C 6.595 10.468,6.733 10.699,6.733 11.007 C 6.733 11.288,6.603 11.523,6.375 11.657 C 6.158 11.785,5.853 11.788,5.633 11.666 C 5.328 11.496,5.180 11.128,5.282 10.791 C 5.346 10.578,5.437 10.465,5.633 10.353 C 5.825 10.244,6.138 10.234,6.326 10.330 M8.326 10.330 C 8.595 10.468,8.733 10.699,8.733 11.007 C 8.733 11.288,8.603 11.523,8.375 11.657 C 8.158 11.785,7.853 11.788,7.633 11.666 C 7.328 11.496,7.180 11.128,7.282 10.791 C 7.346 10.578,7.437 10.465,7.633 10.353 C 7.825 10.244,8.138 10.234,8.326 10.330 M4.159 11.375 C 4.450 11.567,4.574 11.974,4.436 12.286 C 4.313 12.564,4.116 12.714,3.821 12.755 C 3.518 12.796,3.176 12.590,3.052 12.293 C 2.988 12.140,2.985 11.867,3.045 11.724 C 3.113 11.560,3.266 11.397,3.415 11.328 C 3.620 11.232,3.978 11.254,4.159 11.375 M10.659 11.375 C 10.950 11.567,11.074 11.974,10.936 12.286 C 10.813 12.564,10.616 12.714,10.321 12.755 C 10.018 12.796,9.676 12.590,9.552 12.293 C 9.488 12.140,9.485 11.867,9.545 11.724 C 9.613 11.560,9.766 11.397,9.915 11.328 C 10.120 11.232,10.478 11.254,10.659 11.375 M6.326 12.330 C 6.595 12.468,6.733 12.699,6.733 13.007 C 6.733 13.288,6.603 13.523,6.375 13.657 C 6.158 13.785,5.853 13.788,5.633 13.666 C 5.328 13.496,5.180 13.128,5.282 12.791 C 5.346 12.578,5.437 12.465,5.633 12.353 C 5.825 12.244,6.138 12.234,6.326 12.330 M8.326 12.330 C 8.595 12.468,8.733 12.699,8.733 13.007 C 8.733 13.288,8.603 13.523,8.375 13.657 C 8.158 13.785,7.853 13.788,7.633 13.666 C 7.328 13.496,7.180 13.128,7.282 12.791 C 7.346 12.578,7.437 12.465,7.633 12.353 C 7.825 12.244,8.138 12.234,8.326 12.330 M14.807 13.038 C 15.580 13.202,16.105 13.967,15.973 14.738 C 15.848 15.463,15.222 15.999,14.500 15.999 C 13.778 15.999,13.152 15.463,13.027 14.738 C 12.852 13.718,13.791 12.822,14.807 13.038 M5.026 13.630 C 5.292 13.767,5.433 13.999,5.433 14.300 C 5.433 14.633,5.240 14.913,4.939 15.015 C 4.750 15.080,4.646 15.080,4.469 15.017 C 3.835 14.794,3.769 13.947,4.362 13.634 C 4.528 13.546,4.859 13.544,5.026 13.630 M9.593 13.618 C 9.863 13.731,10.031 13.989,10.033 14.293 C 10.034 14.626,9.829 14.918,9.523 15.020 C 8.981 15.200,8.434 14.700,8.561 14.140 C 8.637 13.803,8.931 13.568,9.276 13.567 C 9.382 13.567,9.525 13.590,9.593 13.618 M7.384 14.615 C 7.601 14.742,7.711 14.925,7.727 15.184 C 7.743 15.437,7.695 15.599,7.555 15.758 C 7.416 15.916,7.226 15.999,7.000 15.999 C 6.428 15.999,6.071 15.412,6.333 14.902 C 6.525 14.527,7.009 14.395,7.384 14.615 " fill="#0F172A" stroke="none" fill-rule="evenodd"></path></svg>