<svg width="20" height="20" viewBox="0 0 20 20" fill="none" xmlns="http://www.w3.org/2000/svg"><path d="M8.733 1.020 C 6.800 1.097,4.919 1.273,4.495 1.416 C 3.952 1.600,3.506 1.991,3.251 2.508 C 2.981 3.055,3.001 2.387,3.001 10.817 C 3.000 16.068,3.011 18.389,3.036 18.478 C 3.122 18.787,3.498 19.029,3.829 18.990 C 3.936 18.977,4.421 18.762,5.413 18.286 C 6.199 17.909,6.857 17.600,6.875 17.600 C 6.893 17.600,7.555 17.911,8.346 18.292 C 9.762 18.973,9.786 18.983,10.000 18.983 C 10.214 18.983,10.238 18.973,11.654 18.292 C 12.445 17.911,13.107 17.600,13.125 17.600 C 13.143 17.600,13.801 17.909,14.587 18.286 C 15.579 18.762,16.064 18.977,16.171 18.990 C 16.384 19.015,16.624 18.929,16.776 18.774 C 17.019 18.525,17.000 19.192,16.999 10.821 C 16.999 2.387,17.019 3.055,16.749 2.508 C 16.494 1.991,16.048 1.600,15.505 1.416 C 15.177 1.305,13.898 1.165,12.300 1.066 C 11.743 1.031,9.255 0.999,8.733 1.020 M13.533 6.069 C 13.616 6.107,13.719 6.170,13.763 6.210 C 13.877 6.315,13.999 6.595,13.999 6.750 C 13.999 7.062,14.050 7.008,10.478 10.572 C 7.569 13.477,7.099 13.933,6.983 13.964 C 6.589 14.070,6.248 13.914,6.078 13.550 C 5.983 13.346,5.980 13.164,6.069 12.967 C 6.170 12.741,12.712 6.194,12.950 6.080 C 13.154 5.983,13.335 5.980,13.533 6.069 M8.448 7.114 C 8.796 7.284,8.982 7.592,8.983 8.000 C 8.983 8.207,8.967 8.282,8.890 8.441 C 8.777 8.670,8.586 8.842,8.343 8.933 C 7.608 9.208,6.849 8.536,7.032 7.772 C 7.183 7.145,7.863 6.828,8.448 7.114 M12.448 11.114 C 12.796 11.284,12.982 11.592,12.983 12.000 C 12.983 12.207,12.967 12.282,12.890 12.441 C 12.777 12.670,12.586 12.842,12.343 12.933 C 11.608 13.208,10.849 12.536,11.032 11.772 C 11.183 11.145,11.863 10.828,12.448 11.114 " fill="#0F172A" stroke="none" fill-rule="evenodd"></path></svg>