<svg width="20" height="20" viewBox="0 0 20 20" fill="none" xmlns="http://www.w3.org/2000/svg"><path d="M8.733 1.020 C 6.800 1.097,4.919 1.273,4.495 1.416 C 3.952 1.600,3.506 1.991,3.251 2.508 C 2.981 3.055,3.001 2.387,3.001 10.817 C 3.000 16.068,3.011 18.389,3.036 18.478 C 3.122 18.787,3.498 19.029,3.829 18.990 C 3.936 18.977,4.421 18.762,5.413 18.286 C 6.199 17.909,6.857 17.600,6.875 17.600 C 6.893 17.600,7.555 17.911,8.346 18.292 C 9.762 18.973,9.786 18.983,10.000 18.983 C 10.214 18.983,10.238 18.973,11.654 18.292 C 12.445 17.911,13.107 17.600,13.125 17.600 C 13.143 17.600,13.801 17.909,14.587 18.286 C 15.579 18.762,16.064 18.977,16.171 18.990 C 16.384 19.015,16.624 18.929,16.776 18.774 C 17.019 18.525,17.000 19.192,16.999 10.821 C 16.999 2.387,17.019 3.055,16.749 2.508 C 16.494 1.991,16.048 1.600,15.505 1.416 C 15.177 1.305,13.898 1.165,12.300 1.066 C 11.743 1.031,9.255 0.999,8.733 1.020 M9.479 5.041 C 9.676 5.099,9.908 5.341,9.966 5.547 C 10.018 5.735,9.981 5.997,9.879 6.153 C 9.846 6.202,9.579 6.460,9.285 6.726 C 8.991 6.991,8.745 7.220,8.740 7.235 C 8.734 7.250,9.297 7.268,9.990 7.275 C 11.173 7.287,11.265 7.293,11.495 7.362 C 12.759 7.742,13.640 8.666,13.923 9.909 C 14.001 10.255,14.000 11.000,13.921 11.350 C 13.675 12.430,12.908 13.338,11.894 13.750 C 11.388 13.956,10.701 14.053,10.397 13.962 C 9.891 13.810,9.716 13.138,10.079 12.738 C 10.206 12.598,10.399 12.525,10.715 12.495 C 11.082 12.461,11.369 12.369,11.623 12.203 C 12.448 11.663,12.723 10.667,12.292 9.776 C 12.072 9.320,11.537 8.906,11.033 8.801 C 10.911 8.776,10.497 8.766,9.796 8.773 L 8.742 8.783 9.293 9.283 C 9.604 9.565,9.872 9.836,9.907 9.904 C 9.941 9.971,9.978 10.099,9.988 10.189 C 10.026 10.511,9.773 10.884,9.460 10.968 C 9.294 11.013,9.044 10.992,8.910 10.921 C 8.732 10.826,6.187 8.505,6.100 8.358 C 5.982 8.158,5.982 7.842,6.100 7.642 C 6.153 7.553,6.650 7.081,7.465 6.348 C 8.169 5.714,8.784 5.169,8.831 5.136 C 9.022 5.003,9.242 4.970,9.479 5.041 " fill="#0F172A" stroke="none" fill-rule="evenodd"></path></svg>