<svg width="20" height="20" viewBox="0 0 20 20" fill="none" xmlns="http://www.w3.org/2000/svg"><path d="M6.785 2.052 C 6.310 2.147,5.760 2.491,5.469 2.876 C 5.356 3.027,5.133 3.427,5.133 3.481 C 5.133 3.492,7.323 3.500,10.000 3.500 C 12.677 3.500,14.867 3.492,14.867 3.481 C 14.867 3.427,14.644 3.027,14.531 2.876 C 14.232 2.480,13.688 2.145,13.189 2.050 C 12.818 1.979,7.143 1.981,6.785 2.052 M4.783 5.052 C 4.650 5.078,4.416 5.164,4.239 5.252 C 3.828 5.455,3.481 5.793,3.274 6.189 C 3.197 6.338,3.133 6.469,3.133 6.480 C 3.133 6.491,6.223 6.500,10.000 6.500 C 13.777 6.500,16.867 6.491,16.867 6.480 C 16.867 6.469,16.803 6.338,16.726 6.189 C 16.429 5.620,15.821 5.168,15.189 5.049 C 14.813 4.978,5.145 4.981,4.783 5.052 M2.783 8.053 C 2.653 8.080,2.410 8.171,2.233 8.258 C 1.695 8.526,1.322 8.962,1.100 9.583 L 1.017 9.817 1.007 12.867 C 0.997 16.224,0.996 16.218,1.200 16.658 C 1.451 17.201,1.800 17.550,2.344 17.801 C 2.799 18.011,2.379 18.000,10.000 18.000 C 17.733 18.000,17.210 18.016,17.717 17.767 C 18.218 17.521,18.525 17.214,18.768 16.717 C 19.003 16.234,19.000 16.287,19.000 13.000 C 19.000 9.780,19.000 9.774,18.801 9.344 C 18.549 8.800,18.201 8.451,17.658 8.200 C 17.201 7.989,17.628 8.000,9.976 8.003 C 4.075 8.005,2.981 8.013,2.783 8.053 " fill="#0F172A" stroke="none" fill-rule="evenodd"></path></svg>