<svg width="20" height="20" viewBox="0 0 20 20" fill="none" xmlns="http://www.w3.org/2000/svg"><path d="M2.150 3.046 C 1.751 3.144,1.335 3.469,1.167 3.816 C 1.002 4.158,1.001 4.172,1.001 6.500 C 1.001 8.834,1.001 8.840,1.170 9.191 C 1.268 9.395,1.605 9.732,1.809 9.830 C 2.169 10.003,2.087 9.999,5.500 9.999 C 8.913 9.999,8.831 10.003,9.191 9.830 C 9.395 9.732,9.732 9.395,9.830 9.191 C 9.999 8.840,9.999 8.834,9.999 6.500 C 9.999 4.172,9.998 4.158,9.833 3.816 C 9.659 3.457,9.220 3.124,8.807 3.037 C 8.545 2.982,2.378 2.991,2.150 3.046 M13.150 5.046 C 12.751 5.144,12.335 5.469,12.167 5.816 C 11.996 6.169,12.001 6.055,12.001 10.000 C 12.001 13.953,11.996 13.828,12.170 14.191 C 12.268 14.395,12.605 14.732,12.809 14.830 C 13.160 14.999,13.166 14.999,15.500 14.999 C 17.834 14.999,17.840 14.999,18.191 14.830 C 18.395 14.732,18.732 14.395,18.830 14.191 C 19.004 13.828,18.999 13.953,18.999 10.000 C 18.999 6.055,19.004 6.169,18.833 5.816 C 18.659 5.457,18.220 5.124,17.807 5.037 C 17.548 4.983,13.376 4.991,13.150 5.046 M3.150 12.046 C 2.751 12.144,2.335 12.469,2.167 12.816 C 2.012 13.137,2.001 13.246,2.001 14.500 C 2.001 15.758,2.011 15.860,2.170 16.191 C 2.268 16.395,2.605 16.732,2.809 16.830 C 3.169 17.003,3.087 16.999,6.500 16.999 C 9.913 16.999,9.831 17.003,10.191 16.830 C 10.395 16.732,10.732 16.395,10.830 16.191 C 10.989 15.860,10.999 15.758,10.999 14.500 C 10.999 13.246,10.988 13.137,10.833 12.816 C 10.659 12.457,10.220 12.124,9.807 12.037 C 9.545 11.982,3.378 11.991,3.150 12.046 " fill="#0F172A" stroke="none" fill-rule="evenodd"></path></svg>