<svg width="20" height="20" viewBox="0 0 20 20" fill="none" xmlns="http://www.w3.org/2000/svg"><path d="M17.267 1.021 C 16.491 1.071,15.527 1.217,14.850 1.387 C 12.009 2.100,9.470 3.767,7.685 6.092 C 7.540 6.280,7.405 6.433,7.385 6.433 C 7.364 6.433,7.205 6.400,7.032 6.360 C 6.600 6.260,5.470 6.251,5.033 6.344 C 3.215 6.731,1.795 8.002,1.239 9.739 C 1.055 10.311,0.952 11.170,1.032 11.462 C 1.083 11.651,1.331 11.903,1.521 11.959 C 1.622 11.989,2.189 12.000,3.704 12.000 L 5.751 12.000 6.017 12.325 C 6.358 12.743,7.257 13.642,7.675 13.983 L 8.000 14.249 8.000 16.299 C 8.000 17.662,8.012 18.393,8.036 18.479 C 8.088 18.666,8.341 18.908,8.543 18.965 C 8.841 19.048,9.675 18.949,10.261 18.761 C 11.998 18.205,13.269 16.785,13.656 14.967 C 13.750 14.529,13.741 13.399,13.640 12.968 C 13.600 12.795,13.567 12.636,13.567 12.615 C 13.567 12.595,13.720 12.460,13.908 12.315 C 17.063 9.893,18.954 6.132,18.979 2.233 C 18.983 1.593,18.979 1.542,18.912 1.417 C 18.828 1.262,18.730 1.166,18.567 1.079 C 18.469 1.028,18.367 1.017,17.950 1.014 C 17.675 1.011,17.367 1.015,17.267 1.021 M13.480 5.066 C 13.857 5.162,14.112 5.310,14.401 5.599 C 14.690 5.888,14.838 6.143,14.934 6.520 C 15.054 6.990,14.992 7.502,14.760 7.944 C 14.619 8.214,14.214 8.619,13.944 8.760 C 13.502 8.992,12.990 9.054,12.520 8.934 C 12.143 8.838,11.888 8.690,11.599 8.401 C 11.310 8.112,11.162 7.857,11.066 7.480 C 10.946 7.010,11.008 6.498,11.240 6.056 C 11.382 5.786,11.786 5.381,12.057 5.239 C 12.499 5.008,13.010 4.945,13.480 5.066 M3.878 12.701 C 3.504 12.754,2.820 13.453,2.458 14.154 C 1.960 15.119,1.869 16.184,2.196 17.230 C 2.295 17.547,2.470 17.712,2.817 17.816 C 3.290 17.957,3.467 17.982,4.000 17.982 C 4.376 17.982,4.594 17.965,4.800 17.920 C 5.619 17.743,6.346 17.334,6.914 16.729 C 7.231 16.393,7.313 16.244,7.314 16.000 C 7.316 15.539,6.915 15.183,6.469 15.250 C 6.261 15.282,6.169 15.335,5.980 15.538 C 5.452 16.102,5.075 16.329,4.469 16.452 C 4.191 16.508,3.597 16.508,3.541 16.452 C 3.498 16.409,3.515 15.625,3.563 15.433 C 3.699 14.889,3.947 14.499,4.461 14.020 C 4.697 13.801,4.748 13.697,4.749 13.433 C 4.749 13.263,4.732 13.185,4.666 13.068 C 4.516 12.798,4.206 12.654,3.878 12.701 " fill="#0F172A" stroke="none" fill-rule="evenodd"></path></svg>