<svg width="20" height="20" viewBox="0 0 20 20" fill="none" xmlns="http://www.w3.org/2000/svg"><path d="M3.507 3.035 C 3.345 3.086,3.081 3.356,3.037 3.517 C 2.990 3.687,2.990 4.311,3.036 4.477 C 3.076 4.624,3.264 4.846,3.414 4.925 C 3.493 4.966,3.668 4.985,4.160 5.004 C 4.945 5.034,5.410 5.080,6.000 5.187 C 10.459 5.998,14.002 9.541,14.813 14.000 C 14.920 14.590,14.966 15.055,14.996 15.840 C 15.024 16.557,15.037 16.605,15.262 16.809 C 15.434 16.964,15.572 17.000,16.000 17.000 C 16.455 17.000,16.580 16.963,16.771 16.771 C 16.995 16.548,17.012 16.455,16.989 15.633 C 16.951 14.280,16.722 13.013,16.294 11.772 C 14.651 7.015,10.428 3.637,5.433 3.084 C 4.834 3.018,3.659 2.988,3.507 3.035 M3.505 8.036 C 3.348 8.084,3.080 8.361,3.036 8.521 C 2.990 8.688,2.990 9.312,3.036 9.479 C 3.088 9.664,3.342 9.910,3.533 9.958 C 3.616 9.979,3.916 10.004,4.200 10.013 C 4.982 10.039,5.588 10.169,6.302 10.464 C 8.519 11.379,9.999 13.591,10.000 15.993 C 10.000 16.455,10.035 16.572,10.228 16.764 C 10.423 16.958,10.561 17.000,11.000 17.000 C 11.437 17.000,11.578 16.957,11.768 16.767 C 11.986 16.550,12.015 16.420,11.989 15.767 C 11.936 14.417,11.613 13.239,10.988 12.118 C 9.761 9.919,7.654 8.468,5.133 8.085 C 4.700 8.019,3.660 7.987,3.505 8.036 M4.567 13.052 C 3.681 13.243,3.001 14.089,3.001 15.000 C 3.001 16.079,3.921 16.999,5.000 16.999 C 5.920 16.999,6.761 16.316,6.950 15.417 C 7.092 14.738,6.898 14.092,6.403 13.597 C 5.907 13.101,5.248 12.905,4.567 13.052 " fill="#0F172A" stroke="none" fill-rule="evenodd"></path></svg>