<svg width="20" height="20" viewBox="0 0 20 20" fill="none" xmlns="http://www.w3.org/2000/svg"><path d="M9.758 2.046 C 9.445 2.162,9.272 2.411,9.242 2.784 L 9.224 2.997 9.087 3.014 C 9.012 3.023,8.707 3.038,8.410 3.048 C 6.795 3.103,4.662 3.381,2.900 3.768 C 2.362 3.886,2.228 3.963,2.092 4.231 C 1.972 4.468,1.971 4.661,2.088 4.897 C 2.193 5.108,2.373 5.248,2.600 5.297 C 2.744 5.328,2.835 5.316,3.372 5.201 C 3.707 5.128,3.988 5.076,3.996 5.085 C 4.005 5.094,3.627 6.808,3.156 8.894 C 2.685 10.981,2.300 12.730,2.300 12.782 C 2.300 13.081,2.487 13.337,2.823 13.499 C 4.209 14.165,5.791 14.165,7.177 13.499 C 7.515 13.337,7.701 13.081,7.700 12.779 C 7.700 12.727,7.298 10.903,6.806 8.727 L 5.913 4.770 6.032 4.752 C 6.487 4.679,8.022 4.559,8.942 4.523 L 9.233 4.512 9.233 10.268 L 9.233 16.023 8.774 16.045 C 7.546 16.104,5.576 16.424,5.242 16.619 C 4.946 16.793,4.819 17.179,4.948 17.515 C 5.047 17.776,5.360 17.999,5.626 18.000 C 5.667 18.000,5.870 17.964,6.076 17.919 C 8.613 17.372,11.387 17.372,13.924 17.919 C 14.130 17.964,14.333 18.000,14.374 18.000 C 14.629 17.999,14.925 17.799,15.038 17.550 C 15.073 17.472,15.098 17.340,15.098 17.233 C 15.098 16.848,14.855 16.591,14.394 16.486 C 13.368 16.254,11.718 16.035,10.992 16.034 L 10.767 16.033 10.767 10.273 L 10.767 4.512 11.058 4.523 C 11.978 4.559,13.513 4.679,13.968 4.752 L 14.087 4.770 13.194 8.727 C 12.702 10.903,12.300 12.727,12.300 12.779 C 12.299 13.081,12.485 13.337,12.823 13.499 C 14.209 14.165,15.791 14.165,17.177 13.499 C 17.513 13.337,17.700 13.081,17.700 12.782 C 17.700 12.731,17.315 10.982,16.844 8.895 C 16.373 6.808,15.995 5.094,16.004 5.085 C 16.012 5.076,16.293 5.128,16.628 5.201 C 17.165 5.316,17.256 5.328,17.400 5.297 C 17.761 5.219,18.023 4.877,17.993 4.521 C 17.975 4.298,17.841 4.062,17.669 3.948 C 17.377 3.754,14.829 3.309,13.117 3.151 C 12.346 3.081,11.605 3.033,11.268 3.033 C 11.107 3.033,10.928 3.024,10.871 3.013 C 10.777 2.994,10.767 2.979,10.766 2.871 C 10.765 2.681,10.704 2.461,10.616 2.327 C 10.449 2.073,10.042 1.940,9.758 2.046 M5.546 9.971 C 5.972 11.857,6.065 12.314,6.028 12.337 C 5.796 12.483,4.737 12.535,4.267 12.424 C 4.129 12.392,3.996 12.352,3.971 12.337 C 3.935 12.314,4.026 11.865,4.453 9.971 C 4.743 8.685,4.989 7.633,5.000 7.633 C 5.011 7.633,5.257 8.685,5.546 9.971 M15.546 9.971 C 15.972 11.857,16.065 12.314,16.028 12.337 C 15.796 12.483,14.737 12.535,14.267 12.424 C 14.129 12.392,13.996 12.352,13.971 12.337 C 13.935 12.314,14.026 11.865,14.453 9.971 C 14.743 8.685,14.989 7.633,15.000 7.633 C 15.011 7.633,15.257 8.685,15.546 9.971 " fill="#0F172A" stroke="none" fill-rule="evenodd"></path></svg>