<svg width="20" height="20" viewBox="0 0 20 20" fill="none" xmlns="http://www.w3.org/2000/svg"><path d="M4.019 2.035 C 2.794 2.227,1.771 3.004,1.297 4.100 C 1.079 4.605,1.018 4.911,1.018 5.500 C 1.018 5.935,1.030 6.064,1.096 6.317 C 1.270 6.982,1.563 7.499,2.032 7.968 C 2.659 8.595,3.439 8.943,4.319 8.990 C 4.782 9.014,5.143 8.964,5.600 8.813 C 6.130 8.637,6.516 8.407,6.921 8.026 L 7.091 7.865 7.491 8.095 C 7.711 8.221,7.937 8.359,7.994 8.401 L 8.097 8.477 8.440 8.152 C 8.629 7.973,8.810 7.772,8.843 7.705 C 8.917 7.552,8.902 7.296,8.811 7.175 C 8.776 7.128,8.545 6.972,8.298 6.829 C 8.052 6.686,7.850 6.557,7.851 6.543 C 7.852 6.528,7.879 6.404,7.912 6.267 C 8.231 4.935,7.669 3.468,6.530 2.658 C 6.286 2.484,5.872 2.269,5.618 2.185 C 5.173 2.036,4.445 1.968,4.019 2.035 M4.917 3.550 C 5.597 3.693,6.196 4.236,6.401 4.896 C 6.626 5.619,6.440 6.369,5.903 6.901 C 5.612 7.190,5.355 7.338,4.980 7.434 C 4.510 7.554,3.998 7.492,3.556 7.260 C 3.252 7.101,2.874 6.712,2.722 6.400 C 2.330 5.600,2.473 4.721,3.097 4.097 C 3.592 3.602,4.238 3.408,4.917 3.550 M16.403 5.670 C 16.321 5.685,16.179 5.724,16.086 5.754 C 15.860 5.828,9.993 8.302,9.740 8.430 C 9.284 8.660,8.807 9.145,8.575 9.617 C 8.450 9.870,8.379 10.092,8.165 10.900 C 8.070 11.258,7.981 11.573,7.966 11.600 C 7.952 11.628,7.750 11.760,7.518 11.894 L 7.097 12.137 6.890 11.946 C 5.889 11.019,4.407 10.749,3.167 11.267 C 1.984 11.762,1.170 12.849,1.028 14.125 C 0.912 15.174,1.280 16.221,2.030 16.970 C 2.858 17.799,4.074 18.161,5.218 17.920 C 6.080 17.738,6.889 17.203,7.369 16.497 C 7.939 15.657,8.135 14.572,7.887 13.633 C 7.860 13.533,7.848 13.441,7.861 13.429 C 7.873 13.418,10.268 12.032,13.183 10.351 C 16.098 8.670,18.536 7.253,18.600 7.202 C 18.969 6.913,18.966 6.303,18.596 6.034 C 18.470 5.943,17.985 5.790,17.483 5.684 C 17.231 5.630,16.642 5.623,16.403 5.670 M14.048 11.010 C 12.591 11.848,12.428 11.947,12.363 12.038 C 12.224 12.234,12.251 12.510,12.426 12.674 C 12.520 12.763,15.710 14.127,16.150 14.267 C 16.470 14.368,17.115 14.395,17.467 14.320 C 17.986 14.210,18.468 14.058,18.596 13.966 C 18.966 13.697,18.968 13.087,18.600 12.798 C 18.536 12.747,17.687 12.247,16.714 11.686 C 15.114 10.764,14.931 10.667,14.796 10.667 C 14.667 10.667,14.564 10.714,14.048 11.010 M4.980 12.566 C 5.357 12.662,5.612 12.810,5.901 13.099 C 6.190 13.388,6.338 13.643,6.434 14.020 C 6.554 14.490,6.492 15.002,6.260 15.444 C 6.119 15.714,5.714 16.119,5.444 16.260 C 5.002 16.492,4.490 16.554,4.020 16.434 C 3.643 16.338,3.388 16.190,3.099 15.901 C 2.810 15.612,2.662 15.357,2.566 14.980 C 2.446 14.510,2.508 13.998,2.740 13.556 C 2.882 13.286,3.286 12.881,3.557 12.739 C 3.999 12.508,4.510 12.445,4.980 12.566 " fill="#0F172A" stroke="none" fill-rule="evenodd"></path></svg>