<svg width="20" height="20" viewBox="0 0 20 20" fill="none" xmlns="http://www.w3.org/2000/svg"><path d="M5.910 2.036 C 5.493 2.107,4.999 2.402,4.732 2.739 C 4.560 2.957,4.475 3.126,3.791 4.617 C 3.260 5.776,3.143 6.054,3.175 6.086 C 3.183 6.095,3.271 6.082,3.370 6.059 C 3.634 5.997,16.366 5.997,16.630 6.059 C 16.729 6.082,16.815 6.096,16.821 6.090 C 16.854 6.057,16.703 5.692,16.210 4.617 C 15.529 3.133,15.407 2.894,15.219 2.679 C 15.020 2.453,14.672 2.219,14.366 2.108 L 14.117 2.017 10.100 2.012 C 7.891 2.009,6.005 2.020,5.910 2.036 M3.567 7.552 C 2.681 7.743,2.001 8.589,2.001 9.500 C 2.001 10.420,2.684 11.261,3.583 11.450 C 3.934 11.524,16.066 11.524,16.417 11.450 C 17.316 11.261,17.999 10.420,17.999 9.500 C 17.999 8.580,17.316 7.739,16.417 7.550 C 16.076 7.479,3.899 7.480,3.567 7.552 M13.317 8.824 C 13.580 8.956,13.744 9.215,13.743 9.500 C 13.743 9.729,13.677 9.888,13.517 10.043 C 13.230 10.322,12.772 10.327,12.472 10.054 C 12.236 9.840,12.175 9.411,12.340 9.131 C 12.541 8.789,12.974 8.653,13.317 8.824 M16.317 8.824 C 16.580 8.956,16.744 9.215,16.743 9.500 C 16.743 9.729,16.677 9.888,16.517 10.043 C 16.230 10.322,15.772 10.327,15.472 10.054 C 15.236 9.840,15.175 9.411,15.340 9.131 C 15.541 8.789,15.974 8.653,16.317 8.824 M3.567 13.052 C 2.681 13.243,2.001 14.089,2.001 15.000 C 2.001 15.920,2.684 16.761,3.583 16.950 C 3.934 17.024,16.066 17.024,16.417 16.950 C 17.316 16.761,17.999 15.920,17.999 15.000 C 17.999 14.080,17.316 13.239,16.417 13.050 C 16.076 12.979,3.899 12.980,3.567 13.052 M13.317 14.324 C 13.580 14.456,13.744 14.715,13.743 15.000 C 13.743 15.229,13.677 15.388,13.517 15.543 C 13.230 15.822,12.772 15.827,12.472 15.554 C 12.236 15.340,12.175 14.911,12.340 14.631 C 12.541 14.289,12.974 14.153,13.317 14.324 M16.317 14.324 C 16.580 14.456,16.744 14.715,16.743 15.000 C 16.743 15.229,16.677 15.388,16.517 15.543 C 16.230 15.822,15.772 15.827,15.472 15.554 C 15.236 15.340,15.175 14.911,15.340 14.631 C 15.541 14.289,15.974 14.153,16.317 14.324 " fill="#0F172A" stroke="none" fill-rule="evenodd"></path></svg>