<svg width="20" height="20" viewBox="0 0 20 20" fill="none" xmlns="http://www.w3.org/2000/svg"><path d="M6.208 2.036 C 5.574 2.144,4.952 2.651,4.724 3.248 C 4.672 3.384,2.667 11.659,2.667 11.737 C 2.667 11.750,2.775 11.723,2.908 11.678 C 3.445 11.496,3.274 11.500,10.000 11.500 C 16.726 11.500,16.555 11.496,17.092 11.678 C 17.225 11.723,17.333 11.750,17.333 11.737 C 17.333 11.648,15.325 3.379,15.269 3.239 C 15.062 2.716,14.617 2.304,14.033 2.094 L 13.817 2.017 10.100 2.012 C 8.056 2.009,6.305 2.020,6.208 2.036 M3.567 13.052 C 2.681 13.243,2.001 14.089,2.001 15.000 C 2.001 15.920,2.684 16.761,3.583 16.950 C 3.934 17.024,16.066 17.024,16.417 16.950 C 17.316 16.761,17.999 15.920,17.999 15.000 C 17.999 14.080,17.316 13.239,16.417 13.050 C 16.076 12.979,3.899 12.980,3.567 13.052 M13.317 14.324 C 13.580 14.456,13.744 14.715,13.743 15.000 C 13.743 15.229,13.677 15.388,13.517 15.543 C 13.230 15.822,12.772 15.827,12.472 15.554 C 12.236 15.340,12.175 14.911,12.340 14.631 C 12.541 14.289,12.974 14.153,13.317 14.324 M16.317 14.324 C 16.580 14.456,16.744 14.715,16.743 15.000 C 16.743 15.229,16.677 15.388,16.517 15.543 C 16.230 15.822,15.772 15.827,15.472 15.554 C 15.236 15.340,15.175 14.911,15.340 14.631 C 15.541 14.289,15.974 14.153,16.317 14.324 " fill="#0F172A" stroke="none" fill-rule="evenodd"></path></svg>