<svg width="20" height="20" viewBox="0 0 20 20" fill="none" xmlns="http://www.w3.org/2000/svg"><path d="M15.086 2.033 C 14.523 2.135,13.964 2.459,13.586 2.900 C 13.185 3.368,12.974 3.997,13.007 4.623 L 13.022 4.906 9.663 6.585 L 6.303 8.265 6.110 8.097 C 5.664 7.711,4.957 7.473,4.367 7.510 C 3.989 7.534,3.808 7.581,3.450 7.749 C 2.222 8.323,1.683 9.702,2.195 10.959 C 2.434 11.548,2.952 12.066,3.541 12.305 C 4.443 12.673,5.451 12.501,6.158 11.861 L 6.299 11.733 9.660 13.413 L 13.021 15.094 13.007 15.393 C 12.948 16.615,13.799 17.697,15.016 17.949 C 16.159 18.185,17.365 17.541,17.806 16.458 C 18.316 15.204,17.776 13.822,16.550 13.249 C 16.192 13.081,16.011 13.034,15.633 13.010 C 15.043 12.973,14.336 13.211,13.890 13.597 L 13.697 13.765 10.340 12.087 L 6.983 10.408 6.983 10.000 L 6.983 9.592 10.342 7.912 L 13.701 6.233 13.842 6.361 C 14.174 6.661,14.559 6.854,15.016 6.949 C 15.820 7.115,16.669 6.856,17.262 6.262 C 18.198 5.326,18.246 3.843,17.371 2.850 C 17.081 2.520,16.564 2.199,16.130 2.081 C 15.909 2.020,15.308 1.993,15.086 2.033 " fill="#0F172A" stroke="none" fill-rule="evenodd"></path></svg>