<svg width="20" height="20" viewBox="0 0 20 20" fill="none" xmlns="http://www.w3.org/2000/svg"><path d="M9.644 2.258 C 8.653 3.018,8.158 3.335,7.317 3.749 C 5.842 4.476,4.443 4.850,2.692 4.986 C 2.254 5.020,2.133 5.154,2.068 5.683 C 1.963 6.531,1.991 7.826,2.135 8.783 C 2.679 12.393,4.804 15.519,7.979 17.382 C 8.646 17.774,9.787 18.281,10.000 18.281 C 10.266 18.281,11.641 17.633,12.400 17.150 C 16.007 14.855,18.114 10.903,17.989 6.667 C 17.966 5.878,17.918 5.432,17.839 5.267 C 17.752 5.086,17.606 5.009,17.308 4.986 C 16.000 4.884,14.849 4.636,13.720 4.213 C 13.498 4.129,13.032 3.921,12.683 3.749 C 11.842 3.335,11.347 3.018,10.356 2.258 C 10.211 2.147,10.172 2.133,10.000 2.133 C 9.828 2.133,9.789 2.147,9.644 2.258 M13.479 7.041 C 13.674 7.098,13.908 7.341,13.964 7.542 C 14.009 7.702,14.001 7.881,13.940 8.034 C 13.889 8.165,9.881 13.668,9.737 13.806 C 9.547 13.986,9.300 14.040,9.017 13.964 C 8.904 13.933,8.674 13.719,7.521 12.572 C 6.078 11.136,6.001 11.043,6.001 10.750 C 6.001 10.595,6.123 10.315,6.237 10.210 C 6.357 10.101,6.600 10.001,6.750 10.001 C 7.026 10.001,7.132 10.085,8.170 11.121 L 9.156 12.106 10.881 9.728 C 11.830 8.420,12.671 7.289,12.750 7.214 C 12.963 7.012,13.197 6.957,13.479 7.041 " fill="#0F172A" stroke="none" fill-rule="evenodd"></path></svg>