<svg width="20" height="20" viewBox="0 0 20 20" fill="none" xmlns="http://www.w3.org/2000/svg"><path d="M9.644 2.258 C 8.654 3.017,8.159 3.334,7.317 3.750 C 5.843 4.476,4.460 4.846,2.692 4.985 C 2.254 5.020,2.133 5.154,2.068 5.683 C 1.963 6.531,1.991 7.826,2.135 8.783 C 2.679 12.393,4.804 15.519,7.979 17.382 C 8.646 17.773,9.787 18.281,10.000 18.281 C 10.213 18.281,11.354 17.773,12.021 17.382 C 15.848 15.136,18.118 11.060,17.989 6.667 C 17.966 5.878,17.918 5.432,17.839 5.267 C 17.752 5.086,17.606 5.009,17.308 4.985 C 15.534 4.846,14.088 4.457,12.633 3.728 C 11.827 3.325,11.321 2.998,10.356 2.258 C 10.211 2.147,10.172 2.133,10.000 2.133 C 9.828 2.133,9.789 2.147,9.644 2.258 M10.386 6.116 C 10.468 6.164,10.576 6.266,10.626 6.341 L 10.717 6.478 10.717 8.503 L 10.717 10.528 10.616 10.671 C 10.485 10.857,10.218 11.000,10.002 11.000 C 9.781 11.000,9.512 10.858,9.384 10.672 L 9.283 10.528 9.274 8.543 C 9.265 6.577,9.266 6.556,9.336 6.411 C 9.518 6.035,10.011 5.897,10.386 6.116 M10.448 13.114 C 10.796 13.284,10.982 13.592,10.983 14.000 C 10.983 14.207,10.967 14.282,10.890 14.441 C 10.777 14.670,10.586 14.842,10.343 14.933 C 9.608 15.208,8.849 14.536,9.032 13.772 C 9.183 13.145,9.863 12.828,10.448 13.114 " fill="#0F172A" stroke="none" fill-rule="evenodd"></path></svg>