<svg width="20" height="20" viewBox="0 0 20 20" fill="none" xmlns="http://www.w3.org/2000/svg"><path d="M1.507 1.037 C 1.446 1.055,1.324 1.140,1.235 1.226 C 1.014 1.441,0.952 1.676,1.037 1.983 C 1.086 2.160,1.340 2.414,1.517 2.463 C 1.599 2.486,1.996 2.500,2.555 2.500 C 3.384 2.500,3.466 2.505,3.535 2.562 C 3.607 2.620,3.640 2.830,4.153 6.553 C 4.451 8.715,4.703 10.533,4.712 10.594 C 4.728 10.693,4.720 10.708,4.631 10.739 C 4.421 10.812,3.991 11.038,3.748 11.202 C 3.421 11.422,3.046 11.779,2.804 12.100 C 2.217 12.879,1.855 14.142,2.091 14.588 C 2.181 14.758,2.361 14.911,2.531 14.962 C 2.709 15.015,17.290 15.016,17.483 14.963 C 17.755 14.888,18.000 14.550,18.000 14.250 C 18.000 13.950,17.762 13.626,17.479 13.541 C 17.373 13.509,15.829 13.500,10.538 13.500 C 5.116 13.500,3.733 13.492,3.733 13.458 C 3.733 13.380,4.056 12.917,4.236 12.737 C 4.533 12.441,4.929 12.209,5.363 12.076 C 5.535 12.023,5.996 12.017,11.283 12.001 C 16.538 11.985,17.025 11.979,17.117 11.928 C 17.242 11.859,17.392 11.712,17.449 11.601 C 17.594 11.318,18.234 9.139,18.568 7.789 C 18.825 6.750,19.133 5.292,19.133 5.114 C 19.133 4.884,18.948 4.597,18.724 4.479 C 18.539 4.382,16.243 3.953,14.660 3.720 C 11.856 3.306,9.592 3.112,6.597 3.028 L 5.177 2.988 5.137 2.689 C 5.115 2.525,5.067 2.299,5.030 2.187 C 4.861 1.684,4.459 1.284,3.930 1.094 C 3.726 1.021,3.668 1.017,2.667 1.011 C 2.054 1.007,1.571 1.018,1.507 1.037 M4.150 16.046 C 3.401 16.229,2.898 16.985,3.027 17.734 C 3.167 18.554,3.936 19.110,4.738 18.973 C 5.554 18.833,6.110 18.062,5.973 17.262 C 5.825 16.403,4.985 15.843,4.150 16.046 M15.150 16.046 C 14.401 16.229,13.898 16.985,14.027 17.734 C 14.167 18.554,14.936 19.110,15.738 18.973 C 16.554 18.833,17.110 18.062,16.973 17.262 C 16.825 16.403,15.985 15.843,15.150 16.046 " fill="#0F172A" stroke="none" fill-rule="evenodd"></path></svg>