<svg width="20" height="20" viewBox="0 0 20 20" fill="none" xmlns="http://www.w3.org/2000/svg"><path d="M9.617 1.019 C 9.047 1.097,8.630 1.217,8.228 1.419 C 7.259 1.907,6.545 2.732,6.200 3.761 C 6.049 4.213,6.000 4.596,6.000 5.342 L 6.000 6.000 5.258 6.001 C 4.429 6.001,4.195 6.034,3.878 6.194 C 3.476 6.397,3.130 6.803,3.000 7.224 C 2.948 7.391,2.848 8.434,2.517 12.233 C 2.288 14.871,2.100 17.140,2.100 17.275 C 2.100 18.054,2.671 18.768,3.436 18.949 C 3.623 18.993,4.453 18.999,10.000 18.999 C 15.547 18.999,16.377 18.993,16.564 18.949 C 17.329 18.768,17.900 18.054,17.900 17.275 C 17.900 17.140,17.712 14.871,17.483 12.233 C 17.152 8.434,17.052 7.391,17.000 7.224 C 16.870 6.803,16.524 6.397,16.122 6.194 C 15.805 6.034,15.571 6.001,14.742 6.001 L 14.000 6.000 14.000 5.342 C 14.000 4.593,13.951 4.213,13.798 3.754 C 13.339 2.387,12.208 1.380,10.795 1.082 C 10.555 1.032,9.814 0.992,9.617 1.019 M10.630 2.581 C 10.911 2.657,11.329 2.873,11.561 3.059 C 11.850 3.291,12.084 3.593,12.253 3.950 C 12.449 4.364,12.500 4.664,12.500 5.404 L 12.500 6.000 9.996 6.000 L 7.493 6.000 7.509 5.275 C 7.527 4.470,7.547 4.361,7.760 3.920 C 8.106 3.201,8.796 2.676,9.586 2.533 C 9.808 2.493,10.409 2.520,10.630 2.581 M6.979 8.041 C 7.062 8.065,7.177 8.142,7.268 8.232 C 7.485 8.450,7.500 8.529,7.500 9.447 C 7.500 10.313,7.532 10.558,7.695 10.959 C 7.934 11.548,8.452 12.066,9.041 12.305 C 10.172 12.766,11.424 12.374,12.098 11.347 C 12.241 11.130,12.331 10.927,12.435 10.583 C 12.461 10.500,12.483 10.087,12.496 9.478 L 12.517 8.506 12.618 8.362 C 12.915 7.939,13.419 7.882,13.768 8.232 C 14.000 8.464,14.011 8.533,13.990 9.641 C 13.971 10.634,13.952 10.784,13.783 11.287 C 13.246 12.887,11.694 14.000,10.000 14.000 C 8.306 14.000,6.754 12.887,6.217 11.287 C 6.046 10.778,6.028 10.636,6.010 9.633 C 5.990 8.516,5.998 8.466,6.232 8.231 C 6.452 8.011,6.682 7.953,6.979 8.041 " fill="#0F172A" stroke="none" fill-rule="evenodd"></path></svg>