<svg width="20" height="20" viewBox="0 0 20 20" fill="none" xmlns="http://www.w3.org/2000/svg"><path d="M3.850 3.495 C 3.701 3.563,3.246 4.029,2.918 4.450 C 1.919 5.733,1.304 7.198,1.078 8.833 C 0.999 9.406,0.999 10.594,1.078 11.167 C 1.341 13.069,2.147 14.777,3.421 16.131 C 3.756 16.487,3.892 16.565,4.176 16.566 C 4.594 16.568,4.900 16.258,4.900 15.833 C 4.900 15.590,4.831 15.458,4.539 15.136 C 3.961 14.501,3.608 13.988,3.265 13.283 C 2.397 11.504,2.264 9.519,2.888 7.633 C 3.225 6.614,3.754 5.727,4.539 4.864 C 4.834 4.540,4.900 4.410,4.899 4.159 C 4.898 3.856,4.730 3.598,4.459 3.485 C 4.294 3.416,4.014 3.421,3.850 3.495 M15.517 3.497 C 15.176 3.654,15.011 4.047,15.133 4.415 C 15.158 4.492,15.286 4.668,15.448 4.848 C 15.820 5.263,16.059 5.566,16.276 5.900 C 17.900 8.402,17.900 11.598,16.276 14.100 C 16.059 14.434,15.820 14.737,15.448 15.152 C 15.081 15.560,15.009 15.806,15.159 16.138 C 15.329 16.514,15.798 16.688,16.154 16.507 C 16.330 16.417,16.833 15.884,17.186 15.414 C 18.119 14.172,18.671 12.833,18.922 11.200 C 19.006 10.660,19.006 9.340,18.922 8.800 C 18.671 7.167,18.119 5.828,17.186 4.586 C 16.821 4.100,16.320 3.573,16.150 3.495 C 15.976 3.416,15.689 3.417,15.517 3.497 M6.863 6.266 C 6.665 6.302,6.462 6.447,6.233 6.717 C 5.645 7.413,5.284 8.148,5.096 9.033 C 5.035 9.323,5.022 9.490,5.022 10.000 C 5.022 10.686,5.078 11.046,5.273 11.617 C 5.548 12.423,6.217 13.420,6.637 13.649 C 7.146 13.926,7.733 13.574,7.733 12.992 C 7.733 12.775,7.657 12.623,7.410 12.351 C 7.025 11.926,6.752 11.410,6.596 10.817 C 6.483 10.383,6.483 9.617,6.596 9.183 C 6.752 8.590,7.025 8.074,7.410 7.649 C 7.657 7.377,7.733 7.225,7.733 7.008 C 7.733 6.528,7.328 6.182,6.863 6.266 M12.867 6.266 C 12.507 6.333,12.267 6.631,12.267 7.008 C 12.267 7.225,12.343 7.377,12.590 7.649 C 12.975 8.074,13.248 8.590,13.404 9.183 C 13.517 9.617,13.517 10.383,13.404 10.817 C 13.248 11.410,12.975 11.926,12.590 12.351 C 12.343 12.623,12.267 12.775,12.267 12.992 C 12.267 13.423,12.577 13.740,12.998 13.740 C 13.261 13.740,13.401 13.670,13.638 13.420 C 14.410 12.605,14.864 11.586,14.972 10.427 C 15.102 9.043,14.604 7.596,13.655 6.600 C 13.382 6.312,13.148 6.214,12.867 6.266 M9.678 9.060 C 8.841 9.359,8.768 10.501,9.561 10.890 C 9.830 11.023,10.170 11.023,10.439 10.890 C 10.797 10.715,10.982 10.411,10.982 10.000 C 10.982 9.716,10.913 9.526,10.736 9.325 C 10.497 9.052,10.027 8.935,9.678 9.060 " fill="#0F172A" stroke="none" fill-rule="evenodd"></path></svg>