<svg width="20" height="20" viewBox="0 0 20 20" fill="none" xmlns="http://www.w3.org/2000/svg"><path d="M2.450 2.078 C 2.086 2.248,1.930 2.589,2.036 2.983 C 2.067 3.099,2.535 3.580,5.536 6.584 C 7.441 8.490,9.000 10.076,9.000 10.107 C 9.000 10.254,9.151 10.554,9.298 10.702 C 9.446 10.849,9.746 11.000,9.893 11.000 C 9.924 11.000,11.510 12.559,13.416 14.464 C 17.106 18.150,16.942 18.000,17.250 18.000 C 17.644 18.000,18.001 17.644,18.000 17.252 C 17.999 16.942,18.154 17.109,14.464 13.416 C 12.534 11.485,11.000 9.924,11.000 9.892 C 11.000 9.793,10.876 9.502,10.781 9.378 C 10.662 9.221,10.436 9.082,10.223 9.033 C 10.052 8.993,10.013 8.956,6.617 5.564 C 3.945 2.897,3.150 2.121,3.033 2.069 C 2.836 1.980,2.654 1.983,2.450 2.078 M15.517 3.497 C 15.254 3.618,15.100 3.866,15.100 4.167 C 15.100 4.409,15.167 4.538,15.461 4.862 C 16.038 5.499,16.391 6.011,16.736 6.717 C 17.474 8.222,17.684 9.949,17.331 11.590 C 17.233 12.042,17.001 12.734,16.813 13.135 L 16.655 13.471 17.206 14.022 L 17.757 14.574 17.909 14.295 C 18.416 13.362,18.770 12.270,18.922 11.167 C 19.001 10.594,19.001 9.406,18.922 8.833 C 18.658 6.919,17.846 5.208,16.552 3.840 C 16.401 3.680,16.225 3.530,16.150 3.496 C 15.976 3.416,15.689 3.417,15.517 3.497 M2.057 5.771 C 1.562 6.697,1.229 7.741,1.078 8.833 C 0.999 9.406,0.999 10.594,1.078 11.167 C 1.342 13.081,2.154 14.792,3.448 16.160 C 3.756 16.485,3.899 16.565,4.176 16.566 C 4.594 16.568,4.900 16.258,4.900 15.833 C 4.900 15.591,4.833 15.462,4.539 15.138 C 3.962 14.501,3.609 13.989,3.264 13.283 C 2.401 11.523,2.266 9.521,2.882 7.650 C 2.963 7.403,3.100 7.050,3.187 6.865 L 3.345 6.529 2.793 5.977 L 2.241 5.425 2.057 5.771 M12.867 6.266 C 12.700 6.297,12.558 6.379,12.442 6.512 C 12.308 6.665,12.256 6.833,12.273 7.062 C 12.289 7.277,12.349 7.380,12.681 7.763 C 13.195 8.359,13.500 9.196,13.500 10.013 L 13.500 10.317 14.128 10.944 L 14.755 11.571 14.843 11.211 C 15.125 10.054,15.008 8.900,14.503 7.851 C 14.283 7.393,14.078 7.081,13.749 6.702 C 13.432 6.335,13.175 6.209,12.867 6.266 M5.157 8.789 C 4.875 9.946,4.992 11.100,5.497 12.149 C 5.814 12.808,6.326 13.479,6.643 13.652 C 6.951 13.820,7.326 13.752,7.558 13.488 C 7.692 13.335,7.744 13.167,7.727 12.938 C 7.711 12.724,7.649 12.617,7.329 12.250 C 6.817 11.661,6.545 10.953,6.509 10.112 L 6.491 9.673 5.868 9.051 L 5.245 8.429 5.157 8.789 " fill="#0F172A" stroke="none" fill-rule="evenodd"></path></svg>