<svg width="20" height="20" viewBox="0 0 20 20" fill="none" xmlns="http://www.w3.org/2000/svg"><path d="M14.683 1.058 C 14.365 1.172,14.152 1.387,14.054 1.694 C 14.026 1.780,13.949 2.127,13.882 2.467 C 13.750 3.139,13.698 3.291,13.536 3.475 C 13.362 3.673,13.150 3.752,12.359 3.913 C 11.571 4.073,11.422 4.132,11.235 4.358 C 11.100 4.522,11.000 4.795,11.000 5.000 C 11.000 5.214,11.104 5.487,11.251 5.659 C 11.433 5.871,11.637 5.950,12.400 6.103 C 13.122 6.247,13.283 6.299,13.459 6.448 C 13.669 6.626,13.730 6.784,13.887 7.559 C 13.980 8.016,14.066 8.348,14.119 8.457 C 14.223 8.671,14.419 8.844,14.657 8.933 C 15.124 9.108,15.667 8.897,15.881 8.457 C 15.934 8.348,16.020 8.016,16.113 7.559 C 16.270 6.784,16.331 6.626,16.541 6.448 C 16.717 6.299,16.878 6.247,17.600 6.103 C 18.363 5.950,18.567 5.871,18.749 5.659 C 18.896 5.487,19.000 5.214,19.000 5.000 C 19.000 4.795,18.900 4.522,18.765 4.358 C 18.578 4.132,18.429 4.073,17.646 3.913 C 16.892 3.760,16.721 3.704,16.541 3.552 C 16.332 3.375,16.270 3.215,16.113 2.446 C 15.956 1.673,15.902 1.514,15.736 1.325 C 15.498 1.054,15.027 0.935,14.683 1.058 M5.683 5.060 C 5.469 5.134,5.319 5.241,5.200 5.405 C 5.137 5.492,4.975 5.927,4.716 6.701 C 4.305 7.929,4.249 8.049,4.000 8.230 C 3.910 8.295,3.490 8.452,2.697 8.717 C 1.431 9.141,1.332 9.189,1.159 9.469 C 0.959 9.792,0.959 10.208,1.159 10.531 C 1.332 10.811,1.431 10.859,2.697 11.283 C 3.930 11.695,4.049 11.751,4.230 12.000 C 4.295 12.090,4.452 12.510,4.717 13.303 C 5.141 14.569,5.189 14.668,5.469 14.841 C 5.792 15.041,6.208 15.041,6.531 14.841 C 6.811 14.668,6.859 14.569,7.283 13.303 C 7.548 12.510,7.705 12.090,7.770 12.000 C 7.951 11.751,8.070 11.695,9.303 11.283 C 10.569 10.859,10.668 10.811,10.841 10.531 C 11.109 10.098,11.007 9.516,10.610 9.214 C 10.506 9.134,10.184 9.012,9.303 8.717 C 8.510 8.452,8.090 8.295,8.000 8.230 C 7.751 8.049,7.695 7.929,7.284 6.701 C 7.019 5.908,6.863 5.493,6.797 5.402 C 6.553 5.064,6.086 4.921,5.683 5.060 M12.678 13.062 C 12.467 13.135,12.290 13.265,12.184 13.428 C 12.139 13.495,12.037 13.741,11.956 13.975 C 11.729 14.627,11.616 14.738,10.950 14.966 C 10.478 15.126,10.301 15.239,10.159 15.469 C 9.959 15.792,9.959 16.208,10.159 16.531 C 10.301 16.761,10.478 16.874,10.950 17.034 C 11.619 17.263,11.737 17.381,11.966 18.050 C 12.126 18.522,12.239 18.699,12.469 18.841 C 12.792 19.041,13.208 19.041,13.531 18.841 C 13.761 18.699,13.874 18.522,14.034 18.050 C 14.263 17.381,14.381 17.263,15.050 17.034 C 15.522 16.874,15.699 16.761,15.841 16.531 C 16.041 16.208,16.041 15.792,15.841 15.469 C 15.699 15.239,15.522 15.126,15.050 14.966 C 14.384 14.738,14.271 14.627,14.044 13.975 C 13.876 13.490,13.789 13.341,13.594 13.199 C 13.326 13.005,12.988 12.954,12.678 13.062 " fill="#0F172A" stroke="none" fill-rule="evenodd"></path></svg>