<svg width="20" height="20" viewBox="0 0 20 20" fill="none" xmlns="http://www.w3.org/2000/svg"><path d="M8.950 3.079 C 8.825 3.138,8.279 3.632,6.745 5.076 L 4.707 6.996 3.829 7.006 L 2.950 7.017 2.791 7.110 C 2.590 7.228,2.499 7.369,2.367 7.767 C 1.877 9.241,1.881 10.797,2.378 12.260 C 2.517 12.670,2.607 12.798,2.839 12.913 C 3.013 13.000,3.015 13.000,3.858 13.000 L 4.703 13.000 6.773 14.948 C 8.501 16.575,8.868 16.905,8.994 16.948 C 9.283 17.047,9.533 16.996,9.751 16.795 C 10.021 16.546,10.000 17.129,10.000 10.000 C 10.000 2.860,10.022 3.446,9.749 3.206 C 9.503 2.989,9.232 2.946,8.950 3.079 M12.450 7.079 C 12.358 7.122,12.251 7.194,12.210 7.237 C 12.101 7.357,12.001 7.600,12.001 7.750 C 12.001 8.023,12.089 8.136,13.043 9.092 L 13.950 10.000 13.043 10.908 C 12.089 11.864,12.001 11.977,12.001 12.250 C 12.001 12.400,12.101 12.643,12.210 12.763 C 12.311 12.872,12.592 12.999,12.733 12.999 C 13.037 13.000,13.063 12.980,14.059 11.989 L 15.001 11.052 15.909 11.958 C 16.852 12.899,16.978 12.998,17.233 12.999 C 17.634 13.001,18.000 12.643,17.999 12.250 C 17.998 11.976,17.911 11.864,16.957 10.908 L 16.050 10.000 16.957 9.092 C 17.911 8.136,17.998 8.024,17.999 7.750 C 17.999 7.595,17.877 7.315,17.763 7.210 C 17.643 7.101,17.400 7.001,17.250 7.001 C 16.977 7.001,16.864 7.089,15.908 8.043 L 15.000 8.950 14.092 8.043 C 13.136 7.089,13.024 7.002,12.750 7.001 C 12.677 7.001,12.542 7.036,12.450 7.079 " fill="#0F172A" stroke="none" fill-rule="evenodd"></path></svg>