<svg width="20" height="20" viewBox="0 0 20 20" fill="none" xmlns="http://www.w3.org/2000/svg"><path d="M8.950 3.079 C 8.825 3.138,8.279 3.632,6.745 5.076 L 4.707 6.996 3.829 7.006 L 2.950 7.017 2.791 7.110 C 2.590 7.228,2.499 7.369,2.367 7.767 C 1.877 9.241,1.881 10.797,2.378 12.260 C 2.517 12.670,2.607 12.798,2.839 12.913 C 3.013 13.000,3.015 13.000,3.858 13.000 L 4.703 13.000 6.773 14.948 C 8.501 16.575,8.868 16.905,8.994 16.948 C 9.283 17.047,9.533 16.996,9.751 16.795 C 10.021 16.546,10.000 17.129,10.000 10.000 C 10.000 2.860,10.022 3.446,9.749 3.206 C 9.503 2.989,9.232 2.946,8.950 3.079 M15.183 4.869 C 14.904 4.951,14.687 5.262,14.685 5.583 C 14.684 5.831,14.748 5.946,15.112 6.355 C 15.762 7.086,16.181 7.932,16.405 8.971 C 16.469 9.266,16.480 9.417,16.480 10.000 C 16.480 10.583,16.469 10.734,16.405 11.029 C 16.181 12.068,15.762 12.914,15.112 13.645 C 14.799 13.996,14.709 14.138,14.681 14.319 C 14.623 14.704,14.931 15.109,15.317 15.154 C 15.677 15.197,15.881 15.064,16.394 14.450 C 16.748 14.027,17.029 13.585,17.297 13.029 C 17.621 12.358,17.803 11.775,17.923 11.029 C 17.999 10.554,17.999 9.446,17.923 8.971 C 17.801 8.214,17.626 7.653,17.297 6.971 C 16.939 6.228,16.454 5.541,15.960 5.078 C 15.718 4.851,15.471 4.784,15.183 4.869 M12.983 7.030 C 12.721 7.151,12.567 7.399,12.567 7.700 C 12.567 7.922,12.634 8.074,12.835 8.306 C 13.278 8.815,13.499 9.378,13.499 10.000 C 13.499 10.622,13.278 11.185,12.835 11.694 C 12.632 11.929,12.566 12.078,12.567 12.307 C 12.569 12.730,12.879 13.034,13.307 13.033 C 13.536 13.032,13.712 12.947,13.905 12.746 C 15.061 11.535,15.323 9.667,14.547 8.164 C 14.283 7.653,13.868 7.147,13.617 7.030 C 13.443 6.949,13.158 6.949,12.983 7.030 " fill="#0F172A" stroke="none" fill-rule="evenodd"></path></svg>