<svg width="20" height="20" viewBox="0 0 20 20" fill="none" xmlns="http://www.w3.org/2000/svg"><path d="M3.783 2.053 C 3.654 2.080,3.409 2.171,3.233 2.258 C 2.789 2.478,2.471 2.795,2.254 3.235 C 2.009 3.732,2.001 3.800,2.001 5.500 C 2.001 7.200,2.009 7.268,2.254 7.765 C 2.472 8.207,2.793 8.528,3.235 8.746 C 3.732 8.991,3.800 8.999,5.500 8.999 C 7.200 8.999,7.268 8.991,7.765 8.746 C 8.207 8.528,8.528 8.207,8.746 7.765 C 8.991 7.268,8.999 7.200,8.999 5.500 C 8.999 3.807,8.990 3.730,8.753 3.250 C 8.443 2.624,7.879 2.191,7.193 2.052 C 6.835 1.979,4.139 1.980,3.783 2.053 M12.783 2.053 C 12.654 2.080,12.409 2.171,12.233 2.258 C 11.789 2.478,11.471 2.795,11.254 3.235 C 11.009 3.732,11.001 3.800,11.001 5.500 C 11.001 7.200,11.009 7.268,11.254 7.765 C 11.472 8.207,11.793 8.528,12.235 8.746 C 12.732 8.991,12.800 8.999,14.500 8.999 C 16.200 8.999,16.268 8.991,16.765 8.746 C 17.207 8.528,17.528 8.207,17.746 7.765 C 17.991 7.268,17.999 7.200,17.999 5.500 C 17.999 3.807,17.990 3.730,17.753 3.250 C 17.443 2.624,16.879 2.191,16.193 2.052 C 15.835 1.979,13.139 1.980,12.783 2.053 M3.783 11.053 C 3.654 11.080,3.409 11.171,3.233 11.258 C 2.789 11.478,2.471 11.795,2.254 12.235 C 2.009 12.732,2.001 12.800,2.001 14.500 C 2.001 16.200,2.009 16.268,2.254 16.765 C 2.472 17.207,2.793 17.528,3.235 17.746 C 3.732 17.991,3.800 17.999,5.500 17.999 C 7.200 17.999,7.268 17.991,7.765 17.746 C 8.207 17.528,8.528 17.207,8.746 16.765 C 8.991 16.268,8.999 16.200,8.999 14.500 C 8.999 12.807,8.990 12.730,8.753 12.250 C 8.443 11.624,7.879 11.191,7.193 11.052 C 6.835 10.979,4.139 10.980,3.783 11.053 M12.783 11.053 C 12.654 11.080,12.409 11.171,12.233 11.258 C 11.789 11.478,11.471 11.795,11.254 12.235 C 11.009 12.732,11.001 12.800,11.001 14.500 C 11.001 16.200,11.009 16.268,11.254 16.765 C 11.472 17.207,11.793 17.528,12.235 17.746 C 12.732 17.991,12.800 17.999,14.500 17.999 C 16.200 17.999,16.268 17.991,16.765 17.746 C 17.207 17.528,17.528 17.207,17.746 16.765 C 17.991 16.268,17.999 16.200,17.999 14.500 C 17.999 12.807,17.990 12.730,17.753 12.250 C 17.443 11.624,16.879 11.191,16.193 11.052 C 15.835 10.979,13.139 10.980,12.783 11.053 " fill="#0F172A" stroke="none" fill-rule="evenodd"></path></svg>