<svg width="20" height="20" viewBox="0 0 20 20" fill="none" xmlns="http://www.w3.org/2000/svg"><path d="M3.783 2.053 C 3.654 2.080,3.409 2.171,3.233 2.258 C 2.789 2.478,2.471 2.795,2.254 3.235 C 2.009 3.732,2.001 3.800,2.001 5.500 C 2.001 7.200,2.009 7.268,2.254 7.765 C 2.472 8.207,2.793 8.528,3.235 8.746 C 3.732 8.991,3.800 8.999,5.500 8.999 C 7.200 8.999,7.268 8.991,7.765 8.746 C 8.207 8.528,8.528 8.207,8.746 7.765 C 8.991 7.268,8.999 7.200,8.999 5.500 C 8.999 3.807,8.990 3.730,8.753 3.250 C 8.443 2.624,7.879 2.191,7.193 2.052 C 6.835 1.979,4.139 1.980,3.783 2.053 M12.783 2.053 C 12.653 2.080,12.410 2.171,12.233 2.258 C 11.695 2.526,11.319 2.966,11.102 3.583 C 11.019 3.816,11.019 3.819,11.008 5.363 C 10.995 7.072,11.009 7.246,11.200 7.658 C 11.451 8.201,11.800 8.550,12.344 8.801 C 12.739 8.983,12.921 9.000,14.500 9.000 C 16.131 9.000,16.272 8.985,16.717 8.767 C 17.218 8.521,17.525 8.214,17.768 7.717 C 17.985 7.271,18.000 7.130,18.000 5.500 C 18.000 3.921,17.983 3.739,17.801 3.344 C 17.482 2.654,16.915 2.198,16.193 2.052 C 15.835 1.979,13.139 1.980,12.783 2.053 M3.783 11.053 C 3.653 11.080,3.410 11.171,3.233 11.258 C 2.695 11.526,2.319 11.966,2.102 12.583 C 2.019 12.816,2.019 12.819,2.008 14.363 C 1.995 16.072,2.009 16.246,2.200 16.658 C 2.451 17.201,2.800 17.550,3.344 17.801 C 3.739 17.983,3.921 18.000,5.500 18.000 C 7.131 18.000,7.272 17.985,7.717 17.767 C 8.218 17.521,8.525 17.214,8.768 16.717 C 8.985 16.271,9.000 16.130,9.000 14.500 C 9.000 12.921,8.983 12.739,8.801 12.344 C 8.482 11.654,7.915 11.198,7.193 11.052 C 6.835 10.979,4.139 10.980,3.783 11.053 M14.263 11.044 C 14.086 11.110,13.948 11.218,13.861 11.359 C 13.785 11.481,13.783 11.503,13.767 12.617 L 13.750 13.750 12.614 13.767 L 11.478 13.783 11.341 13.874 C 11.019 14.087,10.914 14.543,11.110 14.876 C 11.162 14.963,11.265 15.076,11.341 15.126 L 11.478 15.217 12.614 15.233 L 13.750 15.250 13.767 16.386 L 13.783 17.522 13.874 17.659 C 14.163 18.095,14.837 18.095,15.126 17.659 L 15.217 17.522 15.233 16.386 L 15.250 15.250 16.386 15.233 L 17.522 15.217 17.659 15.126 C 17.735 15.076,17.838 14.963,17.890 14.876 C 18.086 14.543,17.981 14.087,17.659 13.874 L 17.522 13.783 16.386 13.767 L 15.250 13.750 15.233 12.614 L 15.217 11.478 15.126 11.341 C 14.950 11.075,14.549 10.937,14.263 11.044 " fill="#0F172A" stroke="none" fill-rule="evenodd"></path></svg>