<svg width="20" height="20" viewBox="0 0 20 20" fill="none" xmlns="http://www.w3.org/2000/svg"><path d="M3.783 2.053 C 3.654 2.080,3.409 2.171,3.233 2.258 C 2.789 2.478,2.471 2.795,2.254 3.235 C 1.990 3.770,2.001 3.578,2.001 7.500 C 2.001 11.422,1.990 11.230,2.254 11.765 C 2.472 12.207,2.793 12.528,3.235 12.746 C 3.682 12.967,3.875 12.999,4.758 12.999 L 5.500 13.000 5.500 11.008 C 5.500 8.816,5.514 8.617,5.699 8.065 C 5.888 7.500,6.181 7.027,6.604 6.604 C 7.027 6.181,7.500 5.888,8.065 5.699 C 8.617 5.514,8.816 5.500,11.008 5.500 L 13.000 5.500 12.999 4.758 C 12.999 3.880,12.966 3.680,12.753 3.250 C 12.514 2.766,12.168 2.436,11.656 2.199 C 11.219 1.997,11.273 2.000,7.476 2.003 C 4.613 2.005,3.976 2.014,3.783 2.053 M8.783 7.053 C 8.653 7.080,8.410 7.171,8.233 7.258 C 7.696 7.526,7.323 7.961,7.100 8.583 L 7.017 8.817 7.007 12.367 C 6.997 16.274,6.994 16.213,7.200 16.658 C 7.451 17.201,7.800 17.550,8.344 17.801 C 8.780 18.002,8.731 18.000,12.500 18.000 C 16.343 18.000,16.229 18.006,16.717 17.767 C 17.218 17.521,17.525 17.214,17.768 16.717 C 18.006 16.228,18.000 16.342,18.000 12.500 C 18.000 8.731,18.002 8.780,17.801 8.344 C 17.549 7.800,17.201 7.451,16.658 7.200 C 16.219 6.997,16.275 7.000,12.476 7.003 C 9.613 7.005,8.976 7.014,8.783 7.053 " fill="#0F172A" stroke="none" fill-rule="evenodd"></path></svg>