<svg width="20" height="20" viewBox="0 0 20 20" fill="none" xmlns="http://www.w3.org/2000/svg"><path d="M9.783 1.036 C 9.728 1.052,8.011 2.046,5.967 3.244 C 2.485 5.285,2.243 5.432,2.145 5.577 C 1.959 5.850,1.959 6.150,2.145 6.423 C 2.243 6.568,2.485 6.715,5.967 8.755 C 8.011 9.953,9.736 10.948,9.800 10.967 C 9.947 11.008,10.053 11.008,10.200 10.967 C 10.264 10.948,11.989 9.953,14.033 8.755 C 17.515 6.715,17.757 6.568,17.855 6.423 C 18.041 6.150,18.041 5.850,17.855 5.577 C 17.757 5.432,17.515 5.285,14.033 3.245 C 11.989 2.047,10.264 1.052,10.200 1.033 C 10.061 0.994,9.920 0.995,9.783 1.036 M2.717 9.149 C 2.334 9.374,2.231 9.450,2.145 9.577 C 1.959 9.850,1.959 10.150,2.145 10.423 C 2.243 10.568,2.485 10.715,5.967 12.755 C 8.011 13.953,9.736 14.948,9.800 14.967 C 9.864 14.985,9.954 15.000,10.000 15.000 C 10.046 15.000,10.136 14.985,10.200 14.967 C 10.264 14.948,11.989 13.953,14.033 12.755 C 17.515 10.715,17.757 10.568,17.855 10.423 C 18.041 10.150,18.041 9.850,17.855 9.577 C 17.769 9.450,17.667 9.374,17.277 9.147 L 16.804 8.871 13.877 10.586 C 11.622 11.909,10.889 12.323,10.683 12.391 C 10.451 12.469,10.363 12.480,10.000 12.480 C 9.637 12.480,9.549 12.469,9.315 12.391 C 9.109 12.322,8.399 11.921,6.199 10.631 C 4.632 9.713,3.313 8.942,3.267 8.918 C 3.189 8.879,3.149 8.896,2.717 9.149 M2.733 13.141 C 2.486 13.286,2.255 13.430,2.220 13.461 C 2.116 13.553,2.001 13.837,2.001 14.000 C 2.001 14.196,2.129 14.468,2.271 14.575 C 2.415 14.682,9.539 18.857,9.717 18.938 C 9.887 19.015,10.113 19.015,10.283 18.938 C 10.461 18.857,17.585 14.682,17.729 14.575 C 17.871 14.468,17.999 14.196,17.999 14.000 C 17.999 13.837,17.884 13.553,17.780 13.461 C 17.745 13.430,17.511 13.285,17.260 13.138 L 16.804 12.871 13.877 14.587 C 11.621 15.909,10.889 16.323,10.683 16.391 C 10.451 16.469,10.363 16.480,10.000 16.480 C 9.637 16.480,9.549 16.469,9.315 16.391 C 9.109 16.322,8.399 15.921,6.199 14.631 C 4.632 13.713,3.313 12.942,3.267 12.918 C 3.190 12.879,3.150 12.896,2.733 13.141 " fill="#0F172A" stroke="none" fill-rule="evenodd"></path></svg>