<svg width="20" height="20" viewBox="0 0 20 20" fill="none" xmlns="http://www.w3.org/2000/svg"><path d="M9.783 2.329 C 9.602 2.377,9.409 2.496,9.294 2.630 C 9.210 2.728,8.949 3.320,8.254 4.992 C 7.744 6.219,7.317 7.238,7.305 7.257 C 7.293 7.277,6.367 7.364,5.100 7.464 C 2.454 7.674,2.363 7.683,2.198 7.768 C 1.837 7.952,1.627 8.378,1.702 8.775 C 1.737 8.962,1.795 9.079,1.923 9.222 C 1.974 9.279,2.812 10.005,3.783 10.835 C 4.755 11.664,5.569 12.360,5.591 12.381 C 5.624 12.410,5.513 12.922,5.066 14.792 C 4.755 16.097,4.500 17.225,4.500 17.298 C 4.500 17.633,4.747 17.989,5.083 18.137 C 5.275 18.222,5.565 18.235,5.738 18.167 C 5.800 18.143,6.784 17.554,7.925 16.858 L 10.000 15.593 12.075 16.858 C 13.216 17.554,14.200 18.143,14.262 18.167 C 14.435 18.235,14.725 18.222,14.917 18.137 C 15.253 17.989,15.500 17.633,15.500 17.298 C 15.500 17.225,15.245 16.097,14.934 14.792 C 14.487 12.922,14.376 12.410,14.409 12.381 C 14.431 12.360,15.245 11.664,16.217 10.835 C 17.188 10.005,18.026 9.279,18.077 9.222 C 18.205 9.079,18.263 8.963,18.298 8.775 C 18.373 8.378,18.163 7.952,17.802 7.768 C 17.637 7.683,17.546 7.674,14.900 7.464 C 13.633 7.364,12.707 7.277,12.695 7.257 C 12.683 7.238,12.256 6.219,11.746 4.992 C 10.748 2.591,10.737 2.571,10.430 2.415 C 10.254 2.326,9.949 2.285,9.783 2.329 " fill="#0F172A" stroke="none" fill-rule="evenodd"></path></svg>