<svg width="20" height="20" viewBox="0 0 20 20" fill="none" xmlns="http://www.w3.org/2000/svg"><path d="M9.758 2.046 C 9.564 2.118,9.414 2.250,9.328 2.424 C 9.254 2.576,9.250 2.621,9.240 3.393 C 9.228 4.300,9.252 4.490,9.404 4.700 C 9.527 4.870,9.785 4.999,10.002 5.000 C 10.338 5.000,10.658 4.736,10.731 4.397 C 10.776 4.185,10.776 2.799,10.731 2.600 C 10.683 2.390,10.561 2.219,10.386 2.116 C 10.204 2.010,9.936 1.979,9.758 2.046 M4.606 4.184 C 4.405 4.271,4.293 4.375,4.213 4.547 C 4.121 4.745,4.110 4.978,4.185 5.159 C 4.254 5.326,5.436 6.518,5.617 6.603 C 5.897 6.734,6.262 6.667,6.473 6.445 C 6.661 6.247,6.722 5.899,6.615 5.641 C 6.546 5.474,5.364 4.282,5.183 4.197 C 5.024 4.123,4.761 4.117,4.606 4.184 M14.817 4.197 C 14.636 4.282,13.454 5.474,13.385 5.641 C 13.278 5.899,13.339 6.245,13.527 6.446 C 13.729 6.662,14.137 6.735,14.393 6.603 C 14.461 6.567,14.804 6.249,15.154 5.894 C 15.850 5.192,15.886 5.136,15.860 4.814 C 15.818 4.310,15.269 3.985,14.817 4.197 M9.550 7.035 C 8.371 7.218,7.410 8.086,7.096 9.250 C 7.038 9.466,7.024 9.609,7.024 10.000 C 7.024 10.391,7.038 10.534,7.096 10.750 C 7.381 11.805,8.195 12.619,9.250 12.904 C 9.466 12.962,9.609 12.976,10.000 12.976 C 10.391 12.976,10.534 12.962,10.750 12.904 C 11.805 12.619,12.619 11.805,12.904 10.750 C 12.962 10.534,12.976 10.391,12.976 10.000 C 12.976 9.609,12.962 9.466,12.904 9.250 C 12.619 8.194,11.790 7.366,10.750 7.099 C 10.442 7.020,9.848 6.988,9.550 7.035 M2.399 9.342 C 2.222 9.435,2.050 9.671,2.017 9.866 C 1.964 10.177,2.128 10.515,2.399 10.658 C 2.548 10.736,2.556 10.736,3.535 10.726 L 4.522 10.717 4.659 10.626 C 5.095 10.337,5.095 9.663,4.659 9.374 L 4.522 9.283 3.535 9.274 C 2.556 9.264,2.548 9.264,2.399 9.342 M15.399 9.342 C 15.222 9.435,15.050 9.671,15.017 9.866 C 14.964 10.177,15.128 10.515,15.399 10.658 C 15.548 10.736,15.556 10.736,16.535 10.726 L 17.522 10.717 17.659 10.626 C 18.095 10.337,18.095 9.663,17.659 9.374 L 17.522 9.283 16.535 9.274 C 15.556 9.264,15.548 9.264,15.399 9.342 M5.617 13.397 C 5.533 13.436,5.245 13.701,4.846 14.105 C 4.150 14.808,4.114 14.865,4.140 15.186 C 4.182 15.690,4.731 16.015,5.183 15.803 C 5.364 15.718,6.546 14.526,6.615 14.359 C 6.727 14.089,6.652 13.720,6.446 13.527 C 6.238 13.332,5.877 13.275,5.617 13.397 M13.750 13.397 C 13.400 13.559,13.234 13.996,13.385 14.359 C 13.454 14.526,14.636 15.718,14.817 15.803 C 14.968 15.874,15.203 15.885,15.370 15.829 C 15.757 15.699,15.973 15.221,15.815 14.841 C 15.746 14.674,14.564 13.482,14.383 13.397 C 14.210 13.316,13.925 13.316,13.750 13.397 M9.758 15.046 C 9.567 15.117,9.414 15.249,9.335 15.413 C 9.266 15.555,9.264 15.596,9.274 16.541 L 9.283 17.522 9.374 17.659 C 9.663 18.095,10.337 18.095,10.626 17.659 L 10.717 17.522 10.717 16.500 L 10.717 15.478 10.626 15.341 C 10.449 15.073,10.049 14.937,9.758 15.046 " fill="#0F172A" stroke="none" fill-rule="evenodd"></path></svg>