<svg width="20" height="20" viewBox="0 0 20 20" fill="none" xmlns="http://www.w3.org/2000/svg"><path d="M3.150 2.046 C 2.596 2.181,2.154 2.638,2.035 3.200 C 2.006 3.337,1.999 4.912,2.006 9.450 L 2.017 15.517 2.110 15.815 C 2.433 16.845,3.165 17.577,4.185 17.887 C 4.455 17.970,4.532 17.978,5.000 17.978 C 5.468 17.978,5.545 17.970,5.815 17.887 C 6.835 17.577,7.567 16.845,7.890 15.815 L 7.983 15.517 7.994 9.450 C 8.001 4.912,7.994 3.337,7.965 3.200 C 7.843 2.624,7.377 2.156,6.807 2.037 C 6.551 1.983,3.375 1.992,3.150 2.046 M11.800 4.338 C 11.395 4.403,11.254 4.508,10.342 5.412 L 9.500 6.246 9.500 10.498 L 9.500 14.750 12.462 11.783 C 15.721 8.520,15.577 8.682,15.669 8.169 C 15.722 7.872,15.678 7.582,15.534 7.272 C 15.439 7.070,15.319 6.939,14.190 5.812 C 12.852 4.475,12.809 4.441,12.371 4.348 C 12.125 4.296,12.064 4.295,11.800 4.338 M11.350 15.000 L 8.350 18.000 12.517 18.000 C 16.992 17.999,16.827 18.005,17.191 17.830 C 17.395 17.732,17.732 17.395,17.830 17.191 C 17.995 16.847,17.999 16.795,17.999 15.000 C 17.999 13.209,17.995 13.150,17.833 12.816 C 17.659 12.457,17.220 12.124,16.807 12.037 C 16.697 12.014,16.197 12.000,15.490 12.000 L 14.350 12.000 11.350 15.000 M5.448 14.114 C 5.796 14.284,5.982 14.592,5.983 15.000 C 5.983 15.207,5.967 15.282,5.890 15.441 C 5.777 15.670,5.586 15.842,5.343 15.933 C 4.608 16.208,3.849 15.536,4.032 14.772 C 4.183 14.145,4.863 13.828,5.448 14.114 " fill="#0F172A" stroke="none" fill-rule="evenodd"></path></svg>