<svg width="20" height="20" viewBox="0 0 20 20" fill="none" xmlns="http://www.w3.org/2000/svg"><path d="M2.917 3.023 C 2.476 3.082,2.004 3.327,1.649 3.682 C 1.341 3.991,1.167 4.289,1.066 4.687 C 1.002 4.937,1.000 5.077,1.000 9.957 C 1.000 15.551,0.986 15.200,1.234 15.717 C 1.462 16.188,1.810 16.537,2.283 16.767 C 2.802 17.019,2.257 17.003,10.133 16.993 L 17.183 16.983 17.417 16.905 C 18.003 16.710,18.503 16.285,18.758 15.767 C 19.015 15.244,18.999 15.637,18.999 10.033 C 18.999 4.416,19.014 4.778,18.753 4.250 C 18.514 3.766,18.168 3.436,17.656 3.199 C 17.200 2.989,17.626 3.000,9.976 3.005 C 6.149 3.008,2.972 3.016,2.917 3.023 M8.894 6.242 C 8.970 6.293,9.074 6.396,9.125 6.473 C 9.214 6.608,9.217 6.626,9.227 7.153 C 9.237 7.639,9.231 7.707,9.172 7.822 C 9.095 7.972,8.964 8.101,8.800 8.188 C 8.689 8.247,8.544 8.250,5.983 8.259 C 4.161 8.266,3.229 8.257,3.117 8.233 C 2.890 8.185,2.722 8.066,2.610 7.876 C 2.518 7.719,2.517 7.708,2.517 7.183 C 2.517 6.750,2.527 6.631,2.572 6.549 C 2.653 6.402,2.798 6.266,2.950 6.196 C 3.077 6.137,3.224 6.135,5.919 6.142 L 8.755 6.150 8.894 6.242 M17.050 6.196 C 17.201 6.265,17.347 6.401,17.428 6.549 C 17.473 6.631,17.483 6.750,17.483 7.183 C 17.483 7.708,17.482 7.719,17.390 7.876 C 17.278 8.066,17.110 8.185,16.883 8.233 C 16.771 8.257,15.839 8.266,14.017 8.259 C 11.323 8.250,11.316 8.250,11.183 8.178 C 11.028 8.094,10.897 7.961,10.820 7.810 C 10.778 7.725,10.767 7.597,10.767 7.193 C 10.768 6.616,10.803 6.488,11.004 6.319 C 11.230 6.128,11.090 6.136,14.117 6.135 C 16.763 6.135,16.924 6.138,17.050 6.196 M8.817 9.830 C 8.980 9.906,9.113 10.043,9.182 10.207 C 9.262 10.399,9.254 11.269,9.170 11.450 C 9.094 11.614,8.959 11.744,8.783 11.823 C 8.659 11.879,8.470 11.884,5.989 11.893 C 4.250 11.899,3.262 11.890,3.140 11.868 C 2.898 11.823,2.727 11.707,2.610 11.509 C 2.518 11.353,2.517 11.341,2.517 10.814 L 2.517 10.278 2.617 10.116 C 2.690 9.997,2.766 9.928,2.896 9.860 L 3.074 9.767 5.879 9.767 C 8.538 9.768,8.690 9.771,8.817 9.830 M17.104 9.860 C 17.234 9.928,17.310 9.997,17.383 10.116 L 17.483 10.278 17.483 10.814 C 17.483 11.341,17.482 11.353,17.390 11.509 C 17.273 11.707,17.102 11.823,16.860 11.868 C 16.738 11.890,15.750 11.899,14.011 11.893 C 11.530 11.884,11.341 11.879,11.217 11.823 C 11.041 11.744,10.906 11.614,10.830 11.450 C 10.746 11.269,10.738 10.399,10.818 10.207 C 10.887 10.043,11.020 9.906,11.183 9.830 C 11.310 9.771,11.462 9.768,14.121 9.767 L 16.926 9.767 17.104 9.860 M8.817 13.462 C 8.983 13.538,9.152 13.726,9.201 13.891 C 9.224 13.968,9.234 14.211,9.228 14.519 C 9.217 15.003,9.213 15.027,9.125 15.161 C 9.074 15.237,8.970 15.341,8.894 15.391 L 8.755 15.483 5.958 15.492 C 3.988 15.498,3.120 15.490,3.022 15.464 C 2.846 15.417,2.586 15.157,2.536 14.977 C 2.485 14.794,2.493 14.045,2.548 13.892 C 2.614 13.705,2.746 13.550,2.907 13.471 C 3.049 13.400,3.061 13.400,5.867 13.401 C 8.519 13.401,8.691 13.405,8.817 13.462 M17.159 13.508 C 17.234 13.558,17.338 13.670,17.390 13.758 C 17.477 13.907,17.484 13.945,17.495 14.362 C 17.503 14.657,17.492 14.859,17.464 14.960 C 17.406 15.165,17.166 15.414,16.978 15.464 C 16.880 15.490,16.012 15.498,14.042 15.492 L 11.245 15.483 11.106 15.391 C 11.030 15.341,10.926 15.237,10.875 15.161 C 10.786 15.026,10.783 15.007,10.773 14.481 C 10.761 13.883,10.785 13.787,10.989 13.594 C 11.200 13.393,11.052 13.401,14.169 13.409 L 17.022 13.417 17.159 13.508 " fill="#0F172A" stroke="none" fill-rule="evenodd"></path></svg>