<svg width="20" height="20" viewBox="0 0 20 20" fill="none" xmlns="http://www.w3.org/2000/svg"><path d="M5.086 3.034 C 4.235 3.182,3.464 3.813,3.168 4.604 C 3.010 5.029,3.001 5.148,3.001 6.926 C 3.000 8.732,3.011 8.883,3.182 9.309 C 3.366 9.768,3.355 9.756,6.883 13.294 C 8.753 15.171,10.370 16.773,10.476 16.855 C 10.725 17.049,11.161 17.252,11.464 17.316 C 11.771 17.381,12.229 17.381,12.536 17.316 C 12.852 17.250,13.288 17.042,13.544 16.837 C 13.785 16.643,16.738 13.683,16.896 13.477 C 17.052 13.272,17.258 12.811,17.316 12.536 C 17.381 12.229,17.381 11.771,17.316 11.464 C 17.252 11.161,17.049 10.724,16.855 10.476 C 16.599 10.147,9.971 3.558,9.758 3.420 C 9.531 3.274,9.281 3.159,9.012 3.079 C 8.838 3.028,8.617 3.020,7.033 3.014 C 6.052 3.009,5.176 3.019,5.086 3.034 M6.448 5.114 C 6.796 5.284,6.982 5.592,6.983 6.000 C 6.983 6.207,6.967 6.282,6.890 6.441 C 6.665 6.898,6.132 7.111,5.657 6.933 C 5.059 6.709,4.823 5.998,5.166 5.456 C 5.432 5.037,5.987 4.889,6.448 5.114 " fill="#0F172A" stroke="none" fill-rule="evenodd"></path></svg>