<svg width="20" height="20" viewBox="0 0 20 20" fill="none" xmlns="http://www.w3.org/2000/svg"><path d="M2.783 3.053 C 2.654 3.080,2.409 3.171,2.233 3.258 C 1.789 3.478,1.471 3.795,1.254 4.235 C 1.009 4.731,1.001 4.801,1.001 6.496 C 1.000 7.510,1.012 8.016,1.038 8.103 C 1.102 8.315,1.249 8.457,1.574 8.620 C 1.945 8.807,2.157 9.001,2.313 9.297 C 2.554 9.755,2.553 10.245,2.311 10.706 C 2.155 11.003,1.914 11.223,1.556 11.393 C 1.251 11.539,1.102 11.684,1.038 11.897 C 0.977 12.101,0.987 14.916,1.050 15.217 C 1.185 15.863,1.642 16.453,2.235 16.746 C 2.780 17.015,2.406 16.999,8.008 16.999 L 13.000 17.000 13.000 16.289 C 13.000 15.580,13.000 15.578,13.092 15.398 C 13.152 15.279,13.233 15.183,13.328 15.117 C 13.460 15.025,13.496 15.017,13.750 15.017 C 14.005 15.017,14.039 15.025,14.172 15.118 C 14.252 15.174,14.354 15.286,14.400 15.368 C 14.481 15.512,14.484 15.539,14.494 16.258 L 14.505 17.000 15.744 16.999 C 17.174 16.999,17.280 16.985,17.765 16.746 C 18.017 16.622,18.132 16.539,18.335 16.335 C 18.539 16.132,18.622 16.017,18.746 15.765 C 18.991 15.269,18.999 15.199,18.999 13.504 C 19.000 12.490,18.988 11.984,18.962 11.897 C 18.898 11.684,18.749 11.539,18.444 11.393 C 18.086 11.223,17.845 11.003,17.689 10.706 C 17.447 10.245,17.446 9.755,17.687 9.297 C 17.843 9.001,18.055 8.807,18.426 8.620 C 18.751 8.457,18.898 8.315,18.962 8.103 C 18.988 8.016,19.000 7.510,18.999 6.496 C 18.999 4.808,18.990 4.729,18.753 4.250 C 18.514 3.766,18.168 3.436,17.656 3.199 C 17.272 3.022,17.060 3.000,15.720 3.000 L 14.505 3.000 14.494 3.742 C 14.484 4.462,14.481 4.488,14.400 4.633 C 14.301 4.809,14.064 4.981,13.878 5.011 C 13.554 5.063,13.243 4.901,13.092 4.602 C 13.000 4.422,13.000 4.420,13.000 3.711 L 13.000 3.000 8.008 3.003 C 3.815 3.005,2.979 3.013,2.783 3.053 M14.173 6.785 C 14.252 6.841,14.354 6.953,14.400 7.035 C 14.480 7.177,14.484 7.212,14.494 7.837 C 14.501 8.233,14.491 8.544,14.469 8.624 C 14.417 8.819,14.303 8.968,14.122 9.080 C 13.989 9.162,13.927 9.179,13.756 9.179 C 13.426 9.178,13.206 9.035,13.069 8.733 C 13.008 8.598,13.001 8.516,13.001 7.917 C 13.001 7.284,13.005 7.241,13.080 7.079 C 13.158 6.913,13.303 6.771,13.468 6.702 C 13.513 6.683,13.658 6.671,13.790 6.676 C 13.995 6.683,14.050 6.699,14.173 6.785 M10.479 10.041 C 10.750 10.121,11.000 10.461,11.000 10.750 C 11.000 11.037,10.743 11.392,10.483 11.463 C 10.394 11.488,9.736 11.500,8.500 11.500 C 7.264 11.500,6.606 11.488,6.517 11.463 C 6.430 11.440,6.328 11.370,6.227 11.266 C 6.013 11.045,5.954 10.816,6.036 10.521 C 6.081 10.360,6.350 10.083,6.505 10.038 C 6.680 9.988,10.309 9.990,10.479 10.041 M14.173 10.952 C 14.252 11.008,14.354 11.120,14.400 11.201 C 14.480 11.344,14.484 11.378,14.494 12.004 C 14.501 12.400,14.491 12.710,14.469 12.791 C 14.417 12.985,14.303 13.135,14.122 13.247 C 13.989 13.329,13.927 13.346,13.756 13.345 C 13.426 13.344,13.206 13.201,13.069 12.900 C 13.008 12.765,13.001 12.683,13.001 12.083 C 13.001 11.450,13.005 11.408,13.080 11.246 C 13.158 11.079,13.303 10.938,13.468 10.869 C 13.513 10.850,13.658 10.838,13.790 10.843 C 13.995 10.850,14.050 10.866,14.173 10.952 M8.479 12.541 C 8.750 12.621,9.000 12.961,9.000 13.250 C 9.000 13.537,8.743 13.892,8.483 13.963 C 8.305 14.012,6.695 14.012,6.517 13.963 C 6.430 13.940,6.328 13.870,6.227 13.766 C 6.013 13.545,5.954 13.316,6.036 13.021 C 6.081 12.860,6.350 12.583,6.505 12.538 C 6.675 12.489,8.313 12.491,8.479 12.541 " fill="#0F172A" stroke="none" fill-rule="evenodd"></path></svg>