<svg width="20" height="20" viewBox="0 0 20 20" fill="none" xmlns="http://www.w3.org/2000/svg"><path d="M5.283 3.019 C 5.155 3.026,4.705 3.047,4.283 3.068 C 3.862 3.088,3.412 3.119,3.283 3.136 C 2.835 3.196,2.382 3.507,2.190 3.886 C 1.993 4.277,2.000 4.137,2.000 7.456 L 2.000 10.500 6.500 10.500 L 11.000 10.500 11.000 7.456 C 11.000 4.754,10.994 4.392,10.946 4.231 C 10.762 3.608,10.303 3.210,9.683 3.134 C 9.027 3.053,6.140 2.978,5.283 3.019 M13.005 5.037 C 12.849 5.083,12.581 5.361,12.536 5.521 C 12.501 5.649,12.481 14.233,12.516 14.233 C 12.525 14.233,12.611 14.173,12.708 14.100 C 12.962 13.907,13.343 13.717,13.685 13.613 C 13.952 13.532,14.035 13.522,14.483 13.522 C 14.897 13.521,15.030 13.534,15.250 13.594 C 15.881 13.768,16.434 14.126,16.830 14.618 C 17.023 14.858,17.260 15.280,17.333 15.517 C 17.356 15.590,17.386 15.662,17.399 15.677 C 17.441 15.723,17.738 15.362,17.844 15.137 C 17.970 14.869,17.992 14.644,17.959 13.950 C 17.841 11.386,17.239 8.563,16.309 6.200 C 16.119 5.718,15.972 5.495,15.726 5.314 C 15.338 5.028,15.289 5.019,14.133 5.011 C 13.531 5.007,13.071 5.017,13.005 5.037 M2.000 13.315 C 2.000 14.735,2.011 14.856,2.173 15.179 C 2.373 15.577,2.777 15.881,3.220 15.967 C 3.522 16.026,3.532 16.020,3.603 15.733 C 3.638 15.596,3.734 15.345,3.817 15.175 C 4.195 14.410,4.840 13.871,5.690 13.611 C 5.954 13.531,6.034 13.522,6.500 13.522 C 6.966 13.522,7.046 13.531,7.310 13.611 C 8.351 13.929,9.142 14.733,9.396 15.734 L 9.459 15.983 9.888 15.993 C 10.158 15.999,10.372 15.988,10.467 15.962 C 10.659 15.908,10.903 15.670,10.959 15.479 C 10.989 15.379,11.000 14.891,11.000 13.671 L 11.000 12.000 6.500 12.000 L 2.000 12.000 2.000 13.315 M6.150 15.046 C 5.401 15.229,4.898 15.985,5.027 16.734 C 5.167 17.554,5.936 18.110,6.738 17.973 C 7.554 17.833,8.110 17.062,7.973 16.262 C 7.825 15.403,6.985 14.843,6.150 15.046 M14.150 15.046 C 13.401 15.229,12.898 15.985,13.027 16.734 C 13.167 17.554,13.936 18.110,14.738 17.973 C 15.554 17.833,16.110 17.062,15.973 16.262 C 15.825 15.403,14.985 14.843,14.150 15.046 " fill="#0F172A" stroke="none" fill-rule="evenodd"></path></svg>