<svg width="20" height="20" viewBox="0 0 20 20" fill="none" xmlns="http://www.w3.org/2000/svg"><path d="M2.150 2.046 C 1.902 2.107,1.587 2.288,1.420 2.467 C 1.244 2.654,1.089 2.949,1.038 3.193 C 0.984 3.444,0.984 13.556,1.038 13.807 C 1.090 14.052,1.244 14.346,1.421 14.534 C 1.592 14.718,1.938 14.910,2.193 14.963 C 2.315 14.988,3.251 15.000,5.185 15.000 L 8.000 15.000 8.000 15.749 L 8.000 16.498 6.253 16.507 L 4.506 16.517 4.362 16.618 C 4.067 16.825,3.945 17.138,4.032 17.462 C 4.083 17.651,4.331 17.903,4.521 17.959 C 4.720 18.018,15.280 18.018,15.479 17.959 C 15.750 17.879,16.000 17.539,16.000 17.250 C 16.000 16.961,15.750 16.621,15.479 16.541 C 15.379 16.511,14.891 16.500,13.671 16.500 L 12.000 16.500 12.000 15.750 L 12.000 15.000 14.815 15.000 C 16.749 15.000,17.685 14.988,17.807 14.963 C 18.062 14.910,18.408 14.718,18.579 14.534 C 18.756 14.346,18.910 14.052,18.962 13.807 C 19.015 13.558,19.016 3.445,18.963 3.193 C 18.910 2.938,18.718 2.592,18.534 2.421 C 18.346 2.244,18.052 2.090,17.807 2.038 C 17.542 1.981,2.381 1.990,2.150 2.046 M17.500 8.500 L 17.500 13.500 10.000 13.500 L 2.500 13.500 2.500 8.500 L 2.500 3.500 10.000 3.500 L 17.500 3.500 17.500 8.500 M4.000 8.500 L 4.000 12.000 10.000 12.000 L 16.000 12.000 16.000 8.500 L 16.000 5.000 10.000 5.000 L 4.000 5.000 4.000 8.500 " fill="#0F172A" stroke="none" fill-rule="evenodd"></path></svg>