<svg width="20" height="20" viewBox="0 0 20 20" fill="none" xmlns="http://www.w3.org/2000/svg"><path d="M7.550 2.035 C 6.393 2.215,5.462 3.036,5.113 4.183 C 5.030 4.455,5.022 4.532,5.022 5.000 C 5.022 5.468,5.030 5.545,5.113 5.815 C 5.424 6.836,6.164 7.576,7.185 7.887 C 7.455 7.970,7.532 7.978,8.000 7.978 C 8.468 7.978,8.545 7.970,8.815 7.887 C 9.836 7.576,10.576 6.836,10.887 5.815 C 10.970 5.545,10.978 5.468,10.978 5.000 C 10.978 4.532,10.970 4.455,10.887 4.183 C 10.570 3.141,9.770 2.361,8.750 2.099 C 8.442 2.020,7.848 1.988,7.550 2.035 M12.398 7.843 C 12.128 7.985,11.964 8.324,12.017 8.634 C 12.050 8.828,12.223 9.065,12.398 9.157 L 12.546 9.234 15.534 9.226 L 18.522 9.217 18.659 9.126 C 19.095 8.837,19.095 8.163,18.659 7.874 L 18.522 7.783 15.534 7.774 L 12.546 7.766 12.398 7.843 M7.370 10.038 C 6.195 10.161,5.060 10.645,4.133 11.417 C 3.026 12.341,2.249 13.745,2.063 15.158 C 2.015 15.524,2.073 15.792,2.259 16.065 C 2.411 16.288,2.586 16.423,3.103 16.716 C 5.836 18.263,9.217 18.412,12.109 17.114 C 12.551 16.915,13.223 16.543,13.460 16.365 C 13.672 16.206,13.853 15.931,13.920 15.668 C 13.967 15.482,13.969 15.411,13.934 15.151 C 13.672 13.202,12.417 11.486,10.617 10.612 C 9.589 10.114,8.496 9.920,7.370 10.038 " fill="#0F172A" stroke="none" fill-rule="evenodd"></path></svg>