<svg width="20" height="20" viewBox="0 0 20 20" fill="none" xmlns="http://www.w3.org/2000/svg"><path d="M6.550 2.035 C 5.393 2.215,4.462 3.036,4.113 4.183 C 4.030 4.455,4.022 4.532,4.022 5.000 C 4.022 5.468,4.030 5.545,4.113 5.815 C 4.424 6.836,5.164 7.576,6.185 7.887 C 6.455 7.970,6.532 7.978,7.000 7.978 C 7.468 7.978,7.545 7.970,7.815 7.887 C 7.979 7.837,8.234 7.734,8.381 7.657 C 9.109 7.278,9.638 6.631,9.887 5.815 C 9.970 5.545,9.978 5.468,9.978 5.000 C 9.978 4.532,9.970 4.455,9.887 4.183 C 9.570 3.141,8.770 2.361,7.750 2.099 C 7.442 2.020,6.848 1.988,6.550 2.035 M14.086 4.033 C 13.281 4.179,12.597 4.706,12.248 5.450 C 12.060 5.851,12.017 6.045,12.017 6.500 C 12.017 6.711,12.038 6.966,12.062 7.067 C 12.132 7.349,12.370 7.827,12.559 8.061 C 13.016 8.629,13.783 9.000,14.500 9.000 C 15.217 9.000,15.984 8.629,16.441 8.061 C 16.775 7.647,17.000 7.018,17.000 6.500 C 17.000 5.783,16.629 5.016,16.061 4.559 C 15.829 4.373,15.411 4.157,15.130 4.081 C 14.909 4.020,14.308 3.993,14.086 4.033 M6.370 10.038 C 5.195 10.161,4.060 10.645,3.133 11.417 C 2.026 12.341,1.249 13.745,1.063 15.158 C 1.015 15.524,1.073 15.792,1.259 16.065 C 1.411 16.288,1.586 16.423,2.103 16.716 C 4.836 18.263,8.217 18.412,11.109 17.114 C 11.551 16.915,12.223 16.543,12.460 16.365 C 12.672 16.206,12.853 15.931,12.920 15.668 C 12.967 15.482,12.969 15.411,12.934 15.151 C 12.672 13.202,11.417 11.486,9.617 10.612 C 8.589 10.114,7.496 9.920,6.370 10.038 M13.942 11.034 C 13.675 11.068,13.393 11.134,13.073 11.238 C 12.882 11.301,12.867 11.312,12.906 11.366 C 13.654 12.387,14.124 13.413,14.354 14.524 C 14.446 14.969,14.477 15.565,14.424 15.863 L 14.398 16.010 14.824 15.988 C 15.951 15.928,16.825 15.702,17.832 15.209 C 18.563 14.851,18.767 14.632,18.767 14.203 C 18.767 13.931,18.462 13.289,18.106 12.808 C 17.875 12.496,17.338 11.984,17.019 11.772 C 16.523 11.441,15.919 11.191,15.358 11.083 C 15.023 11.019,14.271 10.993,13.942 11.034 " fill="#0F172A" stroke="none" fill-rule="evenodd"></path></svg>