<svg width="20" height="20" viewBox="0 0 20 20" fill="none" xmlns="http://www.w3.org/2000/svg"><path d="M9.550 3.035 C 8.393 3.215,7.462 4.036,7.113 5.183 C 7.030 5.455,7.022 5.532,7.022 6.000 C 7.022 6.468,7.030 6.545,7.113 6.815 C 7.424 7.836,8.164 8.576,9.185 8.887 C 9.455 8.970,9.532 8.978,10.000 8.978 C 10.468 8.978,10.545 8.970,10.815 8.887 C 10.979 8.837,11.234 8.734,11.381 8.657 C 12.109 8.278,12.638 7.631,12.887 6.815 C 12.970 6.545,12.978 6.468,12.978 6.000 C 12.978 5.532,12.970 5.455,12.887 5.183 C 12.570 4.141,11.770 3.361,10.750 3.099 C 10.442 3.020,9.848 2.988,9.550 3.035 M3.567 6.052 C 2.681 6.243,2.001 7.089,2.001 8.000 C 2.001 9.079,2.921 9.999,4.000 9.999 C 4.920 9.999,5.761 9.316,5.950 8.417 C 6.092 7.738,5.898 7.092,5.403 6.597 C 4.907 6.101,4.248 5.905,3.567 6.052 M15.567 6.052 C 14.681 6.243,14.001 7.089,14.001 8.000 C 14.001 9.079,14.921 9.999,16.000 9.999 C 16.920 9.999,17.761 9.316,17.950 8.417 C 18.092 7.738,17.898 7.092,17.403 6.597 C 16.907 6.101,16.248 5.905,15.567 6.052 M3.550 11.035 C 2.371 11.218,1.407 12.089,1.096 13.250 C 1.041 13.455,1.024 13.621,1.021 13.967 C 1.014 14.764,1.157 15.139,1.550 15.356 C 2.094 15.656,2.812 15.895,3.333 15.950 L 3.550 15.972 3.553 15.511 C 3.555 15.173,3.576 14.957,3.630 14.700 C 3.877 13.526,4.483 12.360,5.261 11.559 L 5.446 11.369 5.231 11.269 C 4.779 11.057,4.054 10.956,3.550 11.035 M9.424 11.034 C 8.078 11.189,6.821 11.916,5.985 13.024 C 5.463 13.716,5.032 14.873,5.034 15.579 C 5.034 15.920,5.202 16.145,5.777 16.577 C 6.641 17.227,7.625 17.667,8.660 17.867 C 10.618 18.245,12.626 17.778,14.228 16.573 C 14.872 16.089,14.989 15.905,14.955 15.434 C 14.944 15.278,14.897 15.000,14.853 14.817 C 14.390 12.928,12.887 11.489,10.973 11.101 C 10.577 11.021,9.823 10.988,9.424 11.034 M15.550 11.035 C 15.284 11.076,14.923 11.187,14.721 11.289 L 14.558 11.372 14.741 11.561 C 15.517 12.360,16.123 13.528,16.370 14.700 C 16.424 14.956,16.445 15.173,16.447 15.508 C 16.450 16.039,16.409 15.999,16.871 15.918 C 17.299 15.843,17.704 15.715,18.095 15.531 C 18.701 15.245,18.810 15.134,18.922 14.683 C 19.008 14.334,18.999 13.603,18.904 13.250 C 18.620 12.195,17.790 11.366,16.750 11.099 C 16.442 11.020,15.848 10.988,15.550 11.035 " fill="#0F172A" stroke="none" fill-rule="evenodd"></path></svg>