<svg width="20" height="20" viewBox="0 0 20 20" fill="none" xmlns="http://www.w3.org/2000/svg"><path d="M9.550 2.035 C 8.393 2.215,7.462 3.036,7.113 4.183 C 7.030 4.455,7.022 4.532,7.022 5.000 C 7.022 5.468,7.030 5.545,7.113 5.815 C 7.424 6.836,8.164 7.576,9.185 7.887 C 9.455 7.970,9.532 7.978,10.000 7.978 C 10.468 7.978,10.545 7.970,10.815 7.887 C 11.836 7.576,12.576 6.836,12.887 5.815 C 12.970 5.545,12.978 5.468,12.978 5.000 C 12.978 4.532,12.970 4.455,12.887 4.183 C 12.570 3.141,11.770 2.361,10.750 2.099 C 10.442 2.020,9.848 1.988,9.550 2.035 M9.300 10.036 C 8.478 10.120,7.720 10.339,6.950 10.715 C 6.146 11.108,5.581 11.518,4.965 12.155 C 4.419 12.720,4.042 13.263,3.697 13.983 C 3.445 14.509,3.400 14.655,3.401 14.943 C 3.402 15.378,3.578 15.684,4.009 16.004 C 6.654 17.968,10.049 18.517,13.150 17.483 C 14.075 17.175,14.789 16.822,15.633 16.254 C 16.404 15.736,16.571 15.512,16.591 14.967 C 16.603 14.655,16.601 14.644,16.453 14.286 C 15.666 12.384,13.951 10.855,11.967 10.284 C 11.167 10.053,10.102 9.955,9.300 10.036 " fill="#0F172A" stroke="none" fill-rule="evenodd"></path></svg>