<svg width="20" height="20" viewBox="0 0 20 20" fill="none" xmlns="http://www.w3.org/2000/svg"><path d="M4.148 2.079 C 3.910 2.190,3.811 2.329,3.537 2.932 C 2.731 4.710,2.267 6.458,2.060 8.500 C 2.004 9.048,2.004 10.952,2.060 11.500 C 2.267 13.544,2.727 15.274,3.540 17.077 C 3.732 17.503,3.815 17.649,3.933 17.768 C 4.226 18.062,4.639 18.078,4.941 17.806 C 5.230 17.546,5.274 17.236,5.081 16.832 C 4.263 15.127,3.780 13.428,3.579 11.547 C 3.500 10.813,3.500 9.187,3.579 8.453 C 3.780 6.572,4.263 4.873,5.081 3.168 C 5.274 2.764,5.230 2.454,4.941 2.194 C 4.712 1.988,4.432 1.947,4.148 2.079 M15.287 2.049 C 15.013 2.147,14.802 2.448,14.801 2.746 C 14.800 2.877,14.845 3.006,15.030 3.413 C 15.801 5.100,16.228 6.646,16.421 8.453 C 16.500 9.187,16.500 10.813,16.421 11.547 C 16.228 13.354,15.801 14.900,15.030 16.587 C 14.845 16.994,14.800 17.123,14.801 17.254 C 14.803 17.652,15.149 17.999,15.546 18.000 C 15.879 18.000,16.111 17.813,16.322 17.372 C 17.205 15.524,17.722 13.648,17.940 11.500 C 17.996 10.952,17.996 9.048,17.940 8.500 C 17.723 6.364,17.238 4.594,16.342 2.667 C 16.178 2.313,16.065 2.179,15.851 2.079 C 15.662 1.991,15.478 1.981,15.287 2.049 M7.483 5.445 C 7.276 5.513,7.082 5.621,6.665 5.901 C 6.134 6.257,6.000 6.428,6.000 6.750 C 6.000 7.150,6.351 7.499,6.754 7.500 C 6.929 7.500,7.108 7.417,7.513 7.148 C 7.726 7.006,7.905 6.896,7.911 6.903 C 7.923 6.919,9.134 9.865,9.143 9.902 C 9.149 9.925,8.400 11.100,7.644 12.255 C 7.361 12.686,7.320 12.734,7.161 12.813 C 6.863 12.962,6.589 12.921,6.225 12.674 C 5.970 12.500,5.778 12.464,5.521 12.541 C 5.336 12.596,5.084 12.844,5.037 13.017 C 4.921 13.441,5.079 13.734,5.592 14.043 C 5.995 14.287,6.278 14.375,6.717 14.392 C 7.164 14.410,7.431 14.355,7.826 14.164 C 8.292 13.939,8.511 13.691,9.234 12.572 C 9.637 11.948,9.853 11.643,9.869 11.672 C 9.883 11.697,10.085 12.182,10.319 12.750 C 10.552 13.318,10.795 13.862,10.859 13.959 C 11.227 14.520,11.938 14.753,12.595 14.529 C 12.818 14.453,13.660 13.903,13.814 13.732 C 13.988 13.539,14.039 13.294,13.963 13.017 C 13.916 12.844,13.664 12.596,13.479 12.541 C 13.176 12.450,13.051 12.489,12.507 12.843 C 12.282 12.989,12.094 13.103,12.088 13.096 C 12.077 13.081,10.866 10.134,10.857 10.098 C 10.845 10.057,12.574 7.401,12.679 7.298 C 12.919 7.064,13.298 7.038,13.607 7.234 C 14.009 7.489,14.196 7.540,14.467 7.467 C 14.660 7.415,14.911 7.170,14.963 6.983 C 15.034 6.725,14.991 6.473,14.844 6.299 C 14.733 6.167,14.315 5.885,14.071 5.777 C 13.394 5.477,12.545 5.562,11.911 5.993 C 11.592 6.210,11.412 6.437,10.769 7.428 C 10.364 8.052,10.147 8.357,10.131 8.328 C 10.117 8.303,9.915 7.818,9.681 7.250 C 9.448 6.682,9.204 6.136,9.139 6.038 C 9.001 5.827,8.756 5.623,8.500 5.506 C 8.348 5.436,8.256 5.420,7.967 5.411 C 7.739 5.405,7.570 5.416,7.483 5.445 " fill="#0F172A" stroke="none" fill-rule="evenodd"></path></svg>