<svg width="20" height="20" viewBox="0 0 20 20" fill="none" xmlns="http://www.w3.org/2000/svg"><path d="M1.450 4.079 C 1.251 4.173,1.161 4.265,1.069 4.467 C 0.980 4.665,0.983 4.846,1.080 5.050 C 1.194 5.289,11.740 15.830,11.967 15.931 C 12.336 16.097,12.742 15.935,12.921 15.552 C 13.017 15.346,13.020 15.165,12.931 14.967 C 12.830 14.740,2.289 4.194,2.050 4.080 C 1.839 3.980,1.662 3.979,1.450 4.079 M8.583 8.400 L 12.983 12.800 12.992 9.442 C 13.002 5.749,13.004 5.782,12.801 5.344 C 12.549 4.799,12.201 4.451,11.658 4.200 C 11.220 3.998,11.265 4.000,7.560 4.000 L 4.183 4.000 8.583 8.400 M18.000 4.039 C 17.909 4.064,17.522 4.433,16.230 5.727 C 14.812 7.148,14.572 7.403,14.539 7.521 C 14.486 7.707,14.484 12.290,14.537 12.483 C 14.567 12.597,14.814 12.859,16.193 14.241 C 17.096 15.146,17.865 15.890,17.929 15.920 C 18.224 16.060,18.532 16.004,18.767 15.768 C 18.858 15.678,18.935 15.562,18.959 15.479 C 19.018 15.280,19.018 4.720,18.959 4.521 C 18.935 4.438,18.858 4.323,18.768 4.232 C 18.554 4.019,18.300 3.955,18.000 4.039 M1.001 10.583 C 1.001 14.412,0.990 14.231,1.254 14.765 C 1.472 15.207,1.793 15.528,2.235 15.746 C 2.774 16.012,2.594 16.001,6.415 15.992 L 9.800 15.983 5.400 11.583 L 1.000 7.183 1.001 10.583 " fill="#0F172A" stroke="none" fill-rule="evenodd"></path></svg>