<svg width="20" height="20" viewBox="0 0 20 20" fill="none" xmlns="http://www.w3.org/2000/svg"><path d="M2.783 4.053 C 2.654 4.080,2.409 4.171,2.233 4.258 C 1.789 4.478,1.471 4.795,1.254 5.235 C 0.988 5.775,1.001 5.521,1.001 10.000 C 1.001 14.479,0.988 14.225,1.254 14.765 C 1.472 15.207,1.793 15.528,2.235 15.746 C 2.775 16.012,2.521 15.999,7.000 15.999 C 11.479 15.999,11.225 16.012,11.765 15.746 C 12.207 15.528,12.528 15.207,12.746 14.765 C 13.012 14.225,12.999 14.479,12.999 10.000 C 12.999 5.533,13.011 5.772,12.753 5.250 C 12.514 4.766,12.168 4.436,11.656 4.199 C 11.214 3.995,11.322 4.000,6.976 4.003 C 3.679 4.005,2.978 4.013,2.783 4.053 M18.000 4.039 C 17.909 4.064,17.522 4.433,16.230 5.727 C 14.812 7.148,14.572 7.403,14.539 7.521 C 14.486 7.707,14.484 12.290,14.537 12.483 C 14.567 12.597,14.814 12.859,16.193 14.241 C 17.096 15.146,17.865 15.890,17.929 15.920 C 18.224 16.060,18.532 16.004,18.767 15.768 C 18.858 15.678,18.935 15.562,18.959 15.479 C 19.018 15.280,19.018 4.720,18.959 4.521 C 18.935 4.438,18.858 4.323,18.768 4.232 C 18.554 4.019,18.300 3.955,18.000 4.039 " fill="#0F172A" stroke="none" fill-rule="evenodd"></path></svg>