<svg width="20" height="20" viewBox="0 0 20 20" fill="none" xmlns="http://www.w3.org/2000/svg"><path d="M2.783 3.053 C 2.653 3.080,2.410 3.171,2.233 3.258 C 1.696 3.526,1.323 3.961,1.100 4.583 L 1.017 4.817 1.007 9.867 C 0.997 15.426,0.990 15.204,1.200 15.658 C 1.451 16.201,1.800 16.550,2.344 16.801 C 2.740 16.984,2.918 17.000,4.532 17.000 L 6.000 17.000 6.000 10.000 L 6.000 3.000 4.508 3.003 C 3.353 3.005,2.964 3.016,2.783 3.053 M7.500 10.000 L 7.500 17.000 10.000 17.000 L 12.500 17.000 12.500 10.000 L 12.500 3.000 10.000 3.000 L 7.500 3.000 7.500 10.000 M14.000 10.000 L 14.000 17.000 15.492 16.999 C 17.200 16.999,17.268 16.991,17.765 16.746 C 18.207 16.528,18.528 16.207,18.746 15.765 C 19.015 15.219,18.999 15.594,18.999 10.000 C 18.999 4.420,19.014 4.778,18.753 4.250 C 18.514 3.766,18.168 3.436,17.656 3.199 C 17.260 3.016,17.082 3.000,15.468 3.000 L 14.000 3.000 14.000 10.000 " fill="#0F172A" stroke="none" fill-rule="evenodd"></path></svg>