<svg width="20" height="20" viewBox="0 0 20 20" fill="none" xmlns="http://www.w3.org/2000/svg"><path d="M3.783 2.053 C 3.654 2.080,3.409 2.171,3.233 2.258 C 2.789 2.478,2.471 2.795,2.254 3.235 C 2.016 3.716,2.001 3.834,2.001 5.183 C 2.001 5.935,2.013 6.397,2.037 6.483 C 2.086 6.660,2.340 6.914,2.517 6.963 C 2.796 7.040,3.039 6.988,3.238 6.809 C 3.489 6.582,3.481 6.627,3.500 5.244 L 3.517 4.006 3.618 3.862 C 3.673 3.783,3.783 3.673,3.862 3.618 L 4.006 3.517 5.244 3.500 C 6.627 3.481,6.582 3.489,6.809 3.238 C 6.988 3.040,7.040 2.797,6.963 2.517 C 6.916 2.344,6.664 2.096,6.479 2.041 C 6.273 1.979,4.097 1.989,3.783 2.053 M13.505 2.038 C 13.443 2.056,13.321 2.143,13.233 2.231 C 13.014 2.450,12.953 2.680,13.036 2.979 C 13.084 3.151,13.341 3.406,13.521 3.459 C 13.616 3.488,13.988 3.500,14.754 3.500 C 15.452 3.500,15.898 3.514,15.983 3.537 C 16.160 3.586,16.414 3.840,16.463 4.017 C 16.486 4.102,16.500 4.549,16.500 5.250 C 16.500 5.933,16.514 6.399,16.536 6.479 C 16.609 6.741,16.963 7.000,17.250 7.000 C 17.539 7.000,17.879 6.750,17.959 6.479 C 18.024 6.260,18.015 4.140,17.948 3.807 C 17.802 3.085,17.346 2.518,16.656 2.199 C 16.273 2.022,16.057 2.000,14.776 2.003 C 14.139 2.005,13.566 2.020,13.505 2.038 M9.550 7.035 C 8.371 7.218,7.410 8.086,7.096 9.250 C 7.038 9.466,7.024 9.609,7.024 10.000 C 7.024 10.391,7.038 10.534,7.096 10.750 C 7.381 11.805,8.195 12.619,9.250 12.904 C 9.466 12.962,9.609 12.976,10.000 12.976 C 10.391 12.976,10.534 12.962,10.750 12.904 C 11.805 12.619,12.619 11.805,12.904 10.750 C 12.962 10.534,12.976 10.391,12.976 10.000 C 12.976 9.609,12.962 9.466,12.904 9.250 C 12.619 8.194,11.790 7.366,10.750 7.099 C 10.442 7.020,9.848 6.988,9.550 7.035 M2.505 13.038 C 2.350 13.083,2.081 13.360,2.036 13.521 C 2.014 13.601,2.000 14.079,2.000 14.793 C 2.000 16.055,2.024 16.276,2.200 16.658 C 2.451 17.201,2.800 17.549,3.344 17.801 C 3.723 17.976,3.946 18.000,5.203 18.000 C 6.004 18.000,6.383 17.988,6.479 17.959 C 6.750 17.879,7.000 17.539,7.000 17.250 C 7.000 16.961,6.750 16.621,6.479 16.541 C 6.384 16.512,6.012 16.500,5.246 16.500 C 4.548 16.500,4.102 16.486,4.017 16.463 C 3.840 16.414,3.586 16.160,3.537 15.983 C 3.514 15.898,3.500 15.452,3.500 14.754 C 3.500 13.988,3.488 13.616,3.459 13.521 C 3.435 13.438,3.358 13.323,3.268 13.232 C 3.055 13.020,2.797 12.954,2.505 13.038 M17.005 13.038 C 16.850 13.083,16.581 13.360,16.536 13.521 C 16.514 13.601,16.500 14.067,16.500 14.750 C 16.500 15.422,16.486 15.900,16.464 15.977 C 16.445 16.047,16.375 16.165,16.309 16.238 C 16.082 16.489,16.127 16.481,14.744 16.500 L 13.506 16.517 13.362 16.618 C 13.067 16.825,12.945 17.138,13.032 17.462 C 13.083 17.651,13.331 17.903,13.521 17.959 C 13.737 18.024,15.859 18.015,16.193 17.949 C 16.483 17.891,16.901 17.699,17.149 17.509 C 17.517 17.227,17.853 16.674,17.949 16.193 C 18.015 15.859,18.024 13.737,17.959 13.521 C 17.935 13.438,17.858 13.323,17.768 13.232 C 17.555 13.020,17.297 12.954,17.005 13.038 " fill="#0F172A" stroke="none" fill-rule="evenodd"></path></svg>