<svg width="20" height="20" viewBox="0 0 20 20" fill="none" xmlns="http://www.w3.org/2000/svg"><path d="M2.783 2.053 C 2.654 2.080,2.409 2.171,2.233 2.258 C 1.789 2.478,1.471 2.795,1.254 3.235 C 1.099 3.549,0.987 3.957,1.007 4.138 L 1.017 4.230 1.200 4.113 C 1.658 3.819,2.160 3.629,2.690 3.550 C 3.181 3.476,16.819 3.476,17.310 3.550 C 17.840 3.629,18.342 3.819,18.800 4.113 L 18.983 4.230 18.993 4.138 C 19.013 3.960,18.901 3.549,18.753 3.250 C 18.513 2.766,18.168 2.436,17.656 2.199 C 17.201 1.989,17.625 2.000,9.976 2.003 C 4.075 2.005,2.981 2.013,2.783 2.053 M2.783 5.053 C 2.653 5.080,2.410 5.171,2.233 5.258 C 1.552 5.597,1.098 6.257,1.013 7.032 L 0.990 7.248 1.087 7.184 C 1.522 6.897,1.924 6.719,2.426 6.591 L 2.717 6.517 10.017 6.517 L 17.317 6.517 17.636 6.605 C 18.058 6.722,18.398 6.866,18.720 7.065 C 19.031 7.257,19.036 7.252,18.951 6.823 C 18.771 5.922,18.087 5.233,17.193 5.052 C 16.965 5.006,16.157 5.000,9.976 5.003 C 4.075 5.005,2.981 5.013,2.783 5.053 M2.783 8.053 C 2.655 8.079,2.408 8.172,2.233 8.258 C 1.695 8.526,1.322 8.962,1.100 9.583 L 1.017 9.817 1.007 12.867 C 0.997 16.224,0.996 16.218,1.200 16.658 C 1.451 17.201,1.800 17.550,2.344 17.801 C 2.799 18.011,2.379 18.000,10.000 18.000 C 17.733 18.000,17.210 18.016,17.717 17.767 C 18.218 17.521,18.525 17.214,18.768 16.717 C 19.003 16.234,19.000 16.287,19.000 13.000 C 19.000 9.780,19.000 9.774,18.801 9.344 C 18.550 8.800,18.201 8.451,17.658 8.200 C 17.235 8.004,17.129 7.997,14.833 8.007 L 12.750 8.017 12.561 8.110 C 12.202 8.286,12.043 8.555,11.998 9.062 C 11.946 9.658,11.752 10.082,11.366 10.445 C 10.586 11.180,9.414 11.180,8.634 10.445 C 8.246 10.080,8.054 9.658,8.001 9.056 C 7.956 8.543,7.783 8.263,7.402 8.087 C 7.253 8.018,7.209 8.017,5.133 8.011 C 3.398 8.006,2.975 8.013,2.783 8.053 " fill="#0F172A" stroke="none" fill-rule="evenodd"></path></svg>