<svg width="20" height="20" viewBox="0 0 20 20" fill="none" xmlns="http://www.w3.org/2000/svg"><path d="M9.267 3.020 C 9.166 3.027,8.859 3.056,8.584 3.085 C 5.717 3.383,3.026 4.654,0.905 6.713 C 0.335 7.265,0.320 7.616,0.842 8.158 C 1.219 8.549,1.526 8.652,1.862 8.499 C 1.947 8.461,2.169 8.279,2.387 8.069 C 4.117 6.406,6.278 5.382,8.701 5.078 C 9.319 5.000,10.681 5.000,11.299 5.078 C 13.722 5.382,15.883 6.406,17.613 8.069 C 18.021 8.461,18.193 8.565,18.433 8.565 C 18.654 8.565,18.843 8.463,19.120 8.195 C 19.405 7.919,19.533 7.692,19.533 7.468 C 19.532 7.207,19.415 7.020,19.015 6.638 C 16.909 4.628,14.298 3.404,11.433 3.083 C 10.971 3.032,9.652 2.993,9.267 3.020 M9.367 7.021 C 7.674 7.180,6.341 7.639,5.008 8.521 C 4.531 8.838,4.206 9.099,3.771 9.517 C 3.389 9.883,3.301 10.026,3.301 10.283 C 3.301 10.518,3.396 10.702,3.658 10.973 C 3.972 11.299,4.126 11.384,4.400 11.382 C 4.683 11.381,4.774 11.329,5.167 10.952 C 5.649 10.489,6.054 10.187,6.597 9.887 C 8.725 8.710,11.267 8.710,13.404 9.887 C 13.930 10.177,14.370 10.506,14.850 10.968 C 15.224 11.328,15.318 11.381,15.600 11.382 C 15.874 11.384,16.028 11.299,16.342 10.973 C 16.604 10.702,16.699 10.518,16.699 10.283 C 16.699 10.030,16.609 9.882,16.246 9.532 C 14.858 8.194,13.104 7.343,11.200 7.084 C 10.826 7.032,9.665 6.993,9.367 7.021 M9.329 11.048 C 8.239 11.205,7.253 11.691,6.487 12.450 C 6.190 12.744,6.115 12.905,6.142 13.198 C 6.163 13.434,6.259 13.588,6.571 13.887 C 6.811 14.116,6.932 14.188,7.130 14.220 C 7.373 14.259,7.550 14.182,7.848 13.907 C 8.312 13.479,8.732 13.236,9.250 13.096 C 9.466 13.038,9.609 13.024,10.000 13.024 C 10.391 13.024,10.534 13.038,10.750 13.096 C 11.268 13.236,11.688 13.479,12.152 13.907 C 12.450 14.182,12.627 14.259,12.870 14.220 C 13.068 14.188,13.189 14.116,13.429 13.887 C 13.741 13.588,13.837 13.434,13.858 13.198 C 13.885 12.904,13.810 12.744,13.510 12.447 C 13.131 12.071,12.732 11.790,12.217 11.534 C 11.500 11.179,10.933 11.039,10.117 11.016 C 9.824 11.007,9.530 11.019,9.329 11.048 M9.667 15.053 C 9.059 15.216,8.748 15.748,8.984 16.221 C 9.087 16.429,9.507 16.843,9.705 16.933 C 9.890 17.017,10.110 17.017,10.295 16.933 C 10.493 16.843,10.913 16.429,11.016 16.221 C 11.200 15.853,11.076 15.473,10.689 15.216 C 10.385 15.016,10.023 14.958,9.667 15.053 " fill="#0F172A" stroke="none" fill-rule="evenodd"></path></svg>