<svg width="20" height="20" viewBox="0 0 20 20" fill="none" xmlns="http://www.w3.org/2000/svg"><path d="M2.783 3.053 C 2.654 3.080,2.409 3.171,2.233 3.258 C 1.789 3.478,1.471 3.795,1.254 4.235 C 0.985 4.781,1.001 4.406,1.001 10.000 C 1.001 15.594,0.985 15.219,1.254 15.765 C 1.472 16.207,1.793 16.528,2.235 16.746 C 2.788 17.019,2.176 16.999,10.000 16.999 C 17.824 16.999,17.212 17.019,17.765 16.746 C 18.017 16.622,18.132 16.539,18.335 16.335 C 18.539 16.132,18.622 16.017,18.746 15.765 C 19.015 15.219,18.999 15.594,18.999 10.000 C 18.999 4.420,19.014 4.778,18.753 4.250 C 18.514 3.766,18.168 3.436,17.656 3.199 C 17.201 2.989,17.625 3.000,9.976 3.003 C 4.075 3.005,2.981 3.013,2.783 3.053 M4.369 5.355 C 4.879 5.632,4.877 6.382,4.367 6.666 C 4.147 6.788,3.842 6.785,3.625 6.657 C 3.207 6.411,3.136 5.789,3.489 5.462 C 3.646 5.316,3.769 5.269,3.995 5.268 C 4.163 5.267,4.241 5.285,4.369 5.355 M7.369 5.355 C 7.879 5.632,7.877 6.382,7.367 6.666 C 7.147 6.788,6.842 6.785,6.625 6.657 C 6.207 6.411,6.136 5.789,6.489 5.462 C 6.646 5.316,6.769 5.269,6.995 5.268 C 7.163 5.267,7.241 5.285,7.369 5.355 M10.369 5.355 C 10.879 5.632,10.877 6.382,10.367 6.666 C 10.147 6.788,9.842 6.785,9.625 6.657 C 9.207 6.411,9.136 5.789,9.489 5.462 C 9.646 5.316,9.769 5.269,9.995 5.268 C 10.163 5.267,10.241 5.285,10.369 5.355 M17.500 11.921 C 17.500 14.138,17.490 14.875,17.459 14.979 C 17.404 15.164,17.156 15.416,16.983 15.463 C 16.795 15.515,3.205 15.515,3.017 15.463 C 2.846 15.416,2.584 15.152,2.536 14.977 C 2.512 14.892,2.500 13.885,2.500 11.925 L 2.500 9.000 10.000 9.000 L 17.500 9.000 17.500 11.921 " fill="#0F172A" stroke="none" fill-rule="evenodd"></path></svg>