<svg width="20" height="20" viewBox="0 0 20 20" fill="none" xmlns="http://www.w3.org/2000/svg"><path d="M13.954 1.035 C 13.015 1.144,12.115 1.573,11.407 2.248 C 10.730 2.895,10.316 3.625,10.095 4.567 C 10.041 4.794,10.023 5.037,10.001 5.800 C 9.981 6.488,9.959 6.808,9.920 6.961 C 9.850 7.235,9.668 7.627,9.511 7.841 C 9.425 7.958,8.207 8.994,5.595 11.171 C 2.895 13.421,1.751 14.395,1.620 14.553 C 0.733 15.629,0.811 17.209,1.801 18.199 C 2.791 19.189,4.371 19.267,5.447 18.380 C 5.605 18.249,6.579 17.105,8.829 14.405 C 11.006 11.793,12.042 10.575,12.159 10.489 C 12.373 10.332,12.765 10.150,13.039 10.080 C 13.191 10.042,13.516 10.019,14.200 9.999 C 15.234 9.969,15.429 9.940,16.017 9.733 C 16.675 9.501,17.238 9.131,17.756 8.589 C 18.520 7.790,18.935 6.821,18.988 5.717 C 19.016 5.110,18.914 4.402,18.747 4.049 C 18.653 3.849,18.381 3.775,18.157 3.887 C 18.098 3.916,17.420 4.567,16.650 5.333 C 15.880 6.099,15.217 6.743,15.177 6.763 C 15.046 6.830,14.908 6.802,14.610 6.650 C 14.066 6.371,13.613 5.913,13.332 5.354 C 13.196 5.085,13.172 4.950,13.237 4.823 C 13.258 4.783,13.909 4.112,14.685 3.333 C 15.461 2.554,16.112 1.874,16.131 1.823 C 16.201 1.638,16.176 1.476,16.058 1.349 C 15.967 1.250,15.901 1.220,15.633 1.153 C 15.065 1.010,14.507 0.971,13.954 1.035 M4.448 15.114 C 4.796 15.284,4.982 15.592,4.983 16.000 C 4.983 16.207,4.967 16.282,4.890 16.441 C 4.777 16.670,4.586 16.842,4.343 16.933 C 3.608 17.208,2.849 16.536,3.032 15.772 C 3.183 15.145,3.863 14.828,4.448 15.114 " fill="#0F172A" stroke="none" fill-rule="evenodd"></path></svg>