<svg width="20" height="20" viewBox="0 0 20 20" fill="none" xmlns="http://www.w3.org/2000/svg"><path d="M9.433 2.019 C 9.369 2.027,9.177 2.049,9.007 2.069 C 7.090 2.292,5.164 3.324,3.941 4.782 C 2.913 6.007,2.318 7.311,2.078 8.867 C 1.995 9.402,1.995 10.598,2.078 11.133 C 2.628 14.691,5.309 17.372,8.867 17.922 C 9.402 18.005,10.598 18.005,11.133 17.922 C 12.644 17.689,14.032 17.061,15.183 16.090 C 16.447 15.024,17.377 13.512,17.778 11.866 C 17.938 11.208,17.982 10.810,17.982 10.000 C 17.982 9.447,17.966 9.149,17.922 8.867 C 17.533 6.348,16.075 4.235,13.882 3.012 C 13.033 2.539,12.144 2.239,11.133 2.084 C 10.800 2.033,9.680 1.991,9.433 2.019 M8.033 7.069 C 8.143 7.118,8.429 7.381,9.092 8.043 L 10.000 8.950 10.908 8.043 C 11.864 7.089,11.977 7.001,12.250 7.001 C 12.400 7.001,12.643 7.101,12.763 7.210 C 12.877 7.315,12.999 7.595,12.999 7.750 C 12.998 8.024,12.911 8.136,11.957 9.092 L 11.050 10.000 11.957 10.908 C 12.911 11.864,12.998 11.976,12.999 12.250 C 12.999 12.323,12.964 12.458,12.922 12.550 C 12.752 12.914,12.410 13.070,12.017 12.963 C 11.906 12.933,11.726 12.771,10.942 11.989 L 10.000 11.052 9.058 11.989 C 8.274 12.771,8.094 12.933,7.983 12.963 C 7.590 13.070,7.248 12.914,7.078 12.550 C 7.036 12.458,7.001 12.323,7.001 12.250 C 7.002 11.976,7.089 11.864,8.043 10.908 L 8.950 10.000 8.043 9.092 C 7.089 8.136,7.001 8.023,7.001 7.750 C 7.001 7.600,7.101 7.357,7.210 7.237 C 7.315 7.123,7.595 7.001,7.750 7.001 C 7.823 7.001,7.951 7.032,8.033 7.069 " fill="#0F172A" stroke="none" fill-rule="evenodd"></path></svg>